<svg id="圖層_1" data-name="圖層 1" xmlns="http://www.w3.org/2000/svg" viewBox="0 0 1620 843"><defs><style>.cls-1{fill:#f9c90d;}</style></defs><rect class="cls-1" width="1620" height="843"/><rect x="69" y="363.42" width="17" height="4"/><path d="M79.94,71.46c2.14.77,5,1.8,6.48,2.5l-1.07,1.79c-1.63-.84-5-2.19-7.33-3.08l.8-1.21H78c-.88,2.24-2.91,3.55-8.25,4.16a5.52,5.52,0,0,0-1-1.9c4-.36,5.81-1.07,6.65-2.26H69.11V69.59h7c.06-.28.09-.59.13-.91h2.38c0,.32-.08.63-.12.91H86.3v1.87ZM72.76,69H70.65V59.22h5.66c.17-.47.32-.95.42-1.33l2.47.23c-.17.38-.35.76-.52,1.1H84.9v8.06c0,.81-.14,1.25-.63,1.53a3.46,3.46,0,0,1-1.81.33,8.06,8.06,0,0,0-.6-1.48l-.61.79c-.63-.43-1.69-1.08-2.72-1.65v1.37H76.84v-1.5a10.47,10.47,0,0,1-2.77,1.92A7.64,7.64,0,0,0,73,67.33a9.8,9.8,0,0,0,3.08-1.82H73.4V64.18h1.31a4.07,4.07,0,0,0-.38-.91l1.24-.36a5.36,5.36,0,0,1,.55,1.21l-.17.06h.89V62.83c-1,0-2,.06-3,0a4.43,4.43,0,0,0-.36-1.14A59.54,59.54,0,0,0,81,61.22l.91,1.16c-1,.15-2.14.28-3.38.36v1.44h.82l-.12,0a10.88,10.88,0,0,0,.59-1.37l1.37.38c-.25.38-.45.73-.63,1h1.51v1.33h-3a28.81,28.81,0,0,1,3.08,1.71l-.17.26h.51c.15,0,.19,0,.19-.2V61H72.76Z"/><path d="M95.18,62.79c-.42.86-.92,1.75-1.47,2.64h0v10.2H91.62V68.4A17.08,17.08,0,0,1,90.26,70,18.67,18.67,0,0,0,89,67.85a20.43,20.43,0,0,0,4.14-5.78Zm-.33-4.06A31.16,31.16,0,0,1,90.2,64a13.64,13.64,0,0,0-1-1.86,19.53,19.53,0,0,0,3.69-4.26ZM93.87,74a10.3,10.3,0,0,0,1.48-3.51l1.71.66a13.53,13.53,0,0,1-1.5,3.82ZM107,69.69h-5.75c.39.66.83,1.48,1.08,2l-1.75.63A25.69,25.69,0,0,0,99.43,70l1-.32H94.74V67.88H107ZM99.51,62c0-.3.07-.62.11-1H95V59.24h4.78c0-.51.06-1,.08-1.41l2.39.08-.19,1.33h4.87V61h-5.11c-.06.34-.12.66-.16,1h4.7v5H95.67V62ZM101.9,73.7c.53,0,.65-.21.7-1.58a6.17,6.17,0,0,0,1.73.67c-.21,2.07-.74,2.58-2.2,2.58H99.77c-2,0-2.43-.53-2.43-2.19V70.87h2v2.3c0,.47.11.53.74.53ZM98.73,63.59H97.44v1.84h1.29Zm2.87,0h-1.33v1.84h1.33Zm1.52,1.84h1.38V63.59h-1.38Zm2,4.9a13.85,13.85,0,0,1,2,3.59l-1.76.8a12.4,12.4,0,0,0-1.9-3.64Z"/><path d="M113.17,66.82a15.64,15.64,0,0,0-3.52-2.07l1.18-1.69a14.77,14.77,0,0,1,3.59,1.9Zm2.24,2.58c-1,2-2.09,4.16-3.19,6l-1.94-1.48a60.13,60.13,0,0,0,3.44-6Zm-1.18-7.63a13.73,13.73,0,0,0-3.47-2.13L112,58a14,14,0,0,1,3.57,2Zm12.24,5.45a11.25,11.25,0,0,1-3.1,4.94,16.15,16.15,0,0,0,4.26,1.4,8.84,8.84,0,0,0-1.49,2,15.16,15.16,0,0,1-4.74-2,18.47,18.47,0,0,1-5.55,2,8,8,0,0,0-1.12-2,16.32,16.32,0,0,0,4.78-1.46,12.82,12.82,0,0,1-2.28-2.92l1.47-.5h-2.57v-2h8.44l.4-.08Zm-6.77-5.64a11.24,11.24,0,0,1-2.92,5,12.8,12.8,0,0,0-2-1.42c1.94-1.52,2.93-4.14,3.31-7.28l2.33.27q-.1.71-.24,1.38h6.19s0,.54-.06.84c-.19,3.06-.43,4.43-.95,5a2.18,2.18,0,0,1-1.52.68,22.83,22.83,0,0,1-2.47,0,4.62,4.62,0,0,0-.66-2.09c.85.09,1.71.11,2.09.11a.93.93,0,0,0,.66-.19c.23-.22.4-.91.52-2.35Zm-.34,7.12a9.26,9.26,0,0,0,2,2.22,8,8,0,0,0,1.95-2.22Z"/><path d="M133.56,65.55a10.91,10.91,0,0,1-2.15,2.75A8.53,8.53,0,0,0,130,66.74a11.35,11.35,0,0,0,3.23-4.23h-2.76V60.59h3.12V57.91h2.14v2.68h2.68v1.92H135.7v.7c.76.44,2.57,1.73,3,2.09l-1.18,1.81c-.44-.48-1.14-1.16-1.83-1.79v4h-2.14Zm-3.46,8a12.91,12.91,0,0,0,1.65-3.91l2,.8a18.75,18.75,0,0,1-1.6,4.14Zm10.85-.3c.89,0,1-.27,1.14-2.18a5.36,5.36,0,0,0,2,.79c-.29,2.72-.91,3.38-3,3.38H137.7c-2.58,0-3.23-.62-3.23-2.6v-2.6h2.22v2.56c0,.57.19.65,1.22.65Zm-2.21-4.71.38.34v-10h7.72V69.06h-7.53c.74.69,1.56,1.48,2,2l-1.64,1.36a29.32,29.32,0,0,0-2.5-2.64Zm2.43-6.82h3.5v-1.1h-3.5Zm0,2.77h3.5V63.4h-3.5Zm0,2.79h3.5V66.16h-3.5Zm4.39,2.11c.76,1.18,1.86,2.8,2.38,3.78l-2.11,1.09c-.46-1-1.5-2.68-2.24-4Z"/><path d="M155.88,66.76a23,23,0,0,1-1.48,4.94c.3.19.66.46,1.16.76,1.31.78,3.1.9,5.32.9a63.38,63.38,0,0,0,7.69-.5,8.44,8.44,0,0,0-.66,2.32c-1.56.09-4.92.23-7.15.23-2.52,0-4.12-.21-5.49-1-.79-.44-1.48-1.06-1.86-1.06s-1.12,1.29-1.59,2.37l-1.5-2.15a8.63,8.63,0,0,1,2-1.82,17.87,17.87,0,0,0,1.1-3.29H151c.44-1.12.93-2.64,1.37-4.12h-1.71v-2h4.44c-.4,1.33-.85,2.85-1.31,4.18h.78l.34-.08Zm-3.19-5c-.21-.86-.72-2.23-1-3.27l2-.61c.36,1,.86,2.3,1.12,3.15Zm5.59,10.75h-2V64.26h1.4V58.44h8.19v5.82h1.39V70.6c0,.89-.15,1.37-.74,1.67a5.36,5.36,0,0,1-2.36.31,5.69,5.69,0,0,0-.49-1.64h-2.85v.59h-1.62V66.74h5v4.09H165c.21,0,.27-.06.27-.25V66h-7Zm1.4-8.26h1.07v-3h3.13V60.11h-4.2Zm2.89,3.93h-1.71v1.33h1.71Zm1.31-5.51h-1.5v1.58h1.5Z"/><path d="M181.7,58.75c-.13.19-.26.36-.4.55a25.47,25.47,0,0,0,7.49,5A10.55,10.55,0,0,0,187,66.38,24.91,24.91,0,0,1,183.35,64v1.86h-6.61V64a26.86,26.86,0,0,1-4.14,2.62,9.3,9.3,0,0,0-1.75-2.09,19.38,19.38,0,0,0,8.59-6.82Zm3.61,8,1.79.86c-1.68,2.39-4.11,5.52-6.16,8.07l-2.35-1.1c1.42-1.67,3.07-3.71,4.38-5.4H173.3V66.92h11.61ZM183,63.72A30.42,30.42,0,0,1,180,61a21.55,21.55,0,0,1-2.9,2.75Z"/><path d="M201.86,67.18a10.72,10.72,0,0,0,7.47,6.21,8.25,8.25,0,0,0-1.56,2.11A12.19,12.19,0,0,1,200.3,69c-1,2.53-3.19,4.92-7.46,6.52a9.1,9.1,0,0,0-1.48-2c4.38-1.56,6.25-4,7-6.42H192V64.86h6.84c0-.51.06-1,.06-1.46V61.48H192.7V59.16h15.05v2.32h-6.46v2c0,.45,0,.93,0,1.42h7.24v2.32Z"/><path d="M222.29,58.44c-.1.12-.19.25-.29.36a18.27,18.27,0,0,0,7.88,3.42A7.85,7.85,0,0,0,228.46,64c-.38-.09-.78-.23-1.18-.34v4.9h-13.2V63.72a12.09,12.09,0,0,1-1.18.36,12.27,12.27,0,0,0-1.22-1.74c3.5-.82,6.88-2.4,8.61-4.6Zm4.31,4.92A20.68,20.68,0,0,1,224,62.2v.5h-6.66v-.38a22.73,22.73,0,0,1-2.3,1Zm-11.46,5.78h11.17v6.42H224V75.1h-6.63v.52h-2.23Zm2.15-2a7.46,7.46,0,0,0-.65-2l1.47-.42H216v2.39Zm.08,3.48v.76H224v-.76Zm6.63,3v-.76h-6.63v.76Zm-4.32-8.87H218.2a8.4,8.4,0,0,1,.76,2l-1.21.38h1.93Zm2.74-3.52a17.27,17.27,0,0,1-1.6-1.23,18.91,18.91,0,0,1-1.61,1.23Zm-.91,3.52v2.39h1.76l-1.14-.32a14.11,14.11,0,0,0,.74-2.07Zm3.76,0h-2l1.48.36c-.38.76-.74,1.5-1,2h1.54Z"/><path d="M242.45,73.18c.49,0,1,.06,1.51.06,1.07,0,4.72,0,6.07-.06a7.86,7.86,0,0,0-.77,2.17h-5.41c-3.48,0-5.83-.49-7.43-2.7a8.39,8.39,0,0,1-2.66,3,8.63,8.63,0,0,0-1.71-1.57,8.06,8.06,0,0,0,3.54-5.76l2.26.34c-.14.61-.29,1.18-.44,1.73a4.19,4.19,0,0,0,2.74,2.38V68h-7.41V66h16.75v2h-7v1.42h5.85v2h-5.85Zm5.24-8.05h-13.2V58.54h13.2Zm-2.3-5h-8.7v1h8.7Zm0,2.45h-8.7v1h8.7Z"/><path d="M258.22,67a16.45,16.45,0,0,1-1.6,4.77l1.06.63c1.31.74,3.12.85,5.28.85a62.81,62.81,0,0,0,7.72-.51,9.26,9.26,0,0,0-.69,2.39c-1.53.12-4.9.23-7.12.23-2.49,0-4.1-.21-5.49-1-.8-.42-1.44-1-1.84-1s-1.14,1.24-1.66,2.26l-1.48-2.18a7.33,7.33,0,0,1,1.81-1.6,11.27,11.27,0,0,0,1.57-3.42h-2.66c.5-1.12,1.07-2.64,1.56-4.12h-1.9v-2h4.77c-.46,1.35-1,2.87-1.5,4.18h.49l.35-.06ZM255,61.8c-.33-.87-1-2.26-1.41-3.28l2-.72c.47,1,1.1,2.31,1.46,3.13Zm15.14,0H258V60h5a14.45,14.45,0,0,0-.82-1.62l2.19-.68a16.39,16.39,0,0,1,1.12,2l-.76.25h5.32Zm-10.93,5.66h9.5v4.8h-9.5Zm9.33-3.33h-9.12V62.49h9.12Zm-9.12.86h9.12v1.6h-9.12Zm1.9,5.66h5.17V69h-5.17Z"/><path d="M278.66,58.58a36.42,36.42,0,0,1-1.48,3.6V75.65H275V65.93a18.43,18.43,0,0,1-1.27,1.63,15.2,15.2,0,0,0-1.07-2.45,20.1,20.1,0,0,0,3.88-7.18Zm11.61.28V75.45h-2.15v-.94H281v1.11h-2.05V58.86Zm-2.15,13.7V60.82H281V72.56Zm-2.74-7.77v1.63h1.83v5.09H282V66.42h1.69V64.79h-2.19V63.15h2.19V61.22h1.74v1.93h2.3v1.64Zm.14,3.19h-1.94v2h1.94Z"/><path d="M299.18,69.65c-.23-.55-.63-1.41-1.05-2.22v8.19h-2.05V68.51a15.74,15.74,0,0,1-1.73,3.74,11.16,11.16,0,0,0-1-2,18.92,18.92,0,0,0,2.54-6.37H293.8V61.8h2.28V57.89h2.05V61.8H300v2.09h-1.9v.84c.52.7,1.88,2.79,2.21,3.31Zm5.17.78a7.83,7.83,0,0,1-3.94,4.9,8.23,8.23,0,0,0-1.16-1.44,6.13,6.13,0,0,0,2.65-2.38h-2.07V70h3l.32,0Zm6.78-.91c-.93.68-1.94,1.38-2.79,1.92a8.55,8.55,0,0,0,3.15,2,8.44,8.44,0,0,0-1.33,1.65,9.34,9.34,0,0,1-3.5-3v1.48c0,1-.17,1.45-.81,1.75a6.39,6.39,0,0,1-2.62.32,6.36,6.36,0,0,0-.57-1.84c.66,0,1.38,0,1.59,0s.31-.06.31-.27V69.35h-3.12V67.81H306c-.88-.36-1.84-.72-2.68-1l.55-.61H300V64.58h4.52v-.74h-3.31V62.3h3.31v-.7h-4V60h2a13.1,13.1,0,0,0-.85-1.5l1.65-.61a11.16,11.16,0,0,1,1.16,1.9L304,60h3.06l-.38-.13a16.61,16.61,0,0,0,1-2l2,.57L308.53,60h2.33v1.6h-4.18v.7h3.73v1.54h-3.73v.74h4.51v1.65h-4.73a16.07,16.07,0,0,1,2.37,1l-1.2,1.35a8.57,8.57,0,0,0-1-.5v1a7,7,0,0,0,.69,1.18,20.79,20.79,0,0,0,2.13-2Z"/><path d="M331.44,68.36h-7.37v4.58c0,1.27-.29,1.9-1.18,2.26a11.37,11.37,0,0,1-4,.4,9,9,0,0,0-1-2.34c1.33.08,2.81.08,3.21.06s.55-.12.55-.44V68.36h-7.52V66.1h7.52V63.46a24,24,0,0,0,3.67-2.24h-9.31V59h11.84l.53-.11,1.71,1.31a28.14,28.14,0,0,1-6.08,4.48V66.1h7.37Z"/><path d="M338.53,63.71a3.08,3.08,0,1,1-3.08,3.07A3.07,3.07,0,0,1,338.53,63.71Zm0,4.78a1.71,1.71,0,1,0-1.71-1.71A1.7,1.7,0,0,0,338.53,68.49Z"/><path d="M84.69,93.34V108.6H82.27v-.93h-9v1H71V93.34h4.87a24.5,24.5,0,0,0,.51-2.49l2.73.31c-.28.76-.59,1.5-.89,2.18ZM73.25,95.51v1.95h9V95.51Zm0,4v2h9v-2Zm9,6v-2h-9v2Z"/><path d="M95.2,95.7A26.49,26.49,0,0,1,93.75,98v10.67H91.64v-8.13A17.49,17.49,0,0,1,90.16,102,13.41,13.41,0,0,0,89,99.84,16,16,0,0,0,93.22,95Zm-.33-4a22.92,22.92,0,0,1-4.54,4.63,16,16,0,0,0-1.18-1.65,16,16,0,0,0,3.73-3.76Zm7.34,14.59a8.44,8.44,0,0,0,1.44.09c.53,0,2.62,0,3.34,0a6.57,6.57,0,0,0-.62,2h-2.91c-2.58,0-4.6-.63-6-3a8.4,8.4,0,0,1-2,3.18,9.89,9.89,0,0,0-1.71-1.45c1.79-1.52,2.43-4.12,2.6-7.29l2.19.17c-.08,1-.17,1.82-.32,2.66a5.4,5.4,0,0,0,1.88,2.79v-6.9h.68a13.28,13.28,0,0,0-1.22-.85c1.85-1.42,2.85-3.87,3.23-6.82l2.11.25a19.17,19.17,0,0,1-.72,3.17,24.66,24.66,0,0,1,2.94,3l-1.5,1.5a19.31,19.31,0,0,0-2.24-2.58,10,10,0,0,1-1.57,2.29h.4v2.68h3.66v1.9h-3.66Zm-2.27-9.1a15,15,0,0,0-1.52-1.35,11,11,0,0,1-2.29,3.27,10.65,10.65,0,0,0-1.6-1.54,11.23,11.23,0,0,0,3.19-6.65l2.15.32A21.32,21.32,0,0,1,99.15,94a17.06,17.06,0,0,1,1.8,1.4Z"/><path d="M115.81,91.63a33.44,33.44,0,0,1-1.88,4.05V108.6h-2.17V99c-.4.52-.79,1-1.17,1.39a14.11,14.11,0,0,0-1.24-2.36,19.53,19.53,0,0,0,4.33-7.1Zm8.23,14.8c1.12,0,1.33-.47,1.46-2.6a6.94,6.94,0,0,0,2,.83c-.28,2.83-.95,3.79-3.28,3.79h-4.32c-2.64,0-3.4-.69-3.4-3.33V99.8l-1.44.57-.85-2,2.29-.9V93h2.13v3.63l1.9-.74V91h2v4.12l2.55-1,.19-.13,1.69.51-.08.36a69.78,69.78,0,0,1-.76,8.65l-1.86-.53c.21-1.6.34-4.11.42-6.43l-2.15.88v6.72h-2V98.19l-1.9.77v6.16c0,1.12.19,1.31,1.45,1.31Z"/><path d="M147.37,93.82s0,.76,0,1c-.25,8.49-.46,11.52-1.24,12.52a2.56,2.56,0,0,1-1.82,1,23.4,23.4,0,0,1-3,0,5.36,5.36,0,0,0-.74-2.21c1.21.12,2.33.12,2.83.12a1,1,0,0,0,.83-.33c.55-.61.8-3.46,1-10.16h-4.07a16.17,16.17,0,0,1-1.67,3A13,13,0,0,0,138,97.81v8.87H133v1.38h-2.05V94h2.14a19.37,19.37,0,0,0,.55-3.06l2.47.34c-.32,1-.66,1.9-1,2.72H138V97a20,20,0,0,0,2.57-6.12l2.14.49a21.05,21.05,0,0,1-.74,2.42ZM136,95.93h-3V99h3Zm0,8.75V101h-3v3.72Zm6.31-1a42.47,42.47,0,0,0-2.64-4.39l1.76-1a44.14,44.14,0,0,1,2.79,4.22Z"/><path d="M167.79,96.89v1.69H151V96.89h7.2V96h-5.34V94.41h5.34v-.86h-6V91.86h6v-1h2.3v1h6.32v1.69H160.5v.86H166V96H160.5v.89Zm-2.33,9.58c0,1.06-.27,1.54-1.05,1.82a11.77,11.77,0,0,1-3.44.29,7.44,7.44,0,0,0-.7-1.81c.93.06,2.17.06,2.45,0s.44-.09.44-.38v-.74h-7.75a6.64,6.64,0,0,1-1.43,3.15,10.56,10.56,0,0,0-1.73-1.61,6.66,6.66,0,0,0,1.18-4.47V99.42h12Zm-2.3-2.24v-.88h-7.49c0,.29,0,.57,0,.88ZM155.67,101v.83h7.49V101Z"/><path d="M184.57,99.5a11.3,11.3,0,0,0,4.27,2.85,7.83,7.83,0,0,0-1.53,1.86,10.91,10.91,0,0,1-2.21-1.33v5.68h-2.49v-.72h-5.75v.79H174.5v-5.75a14,14,0,0,1-2.11,1.39,5.63,5.63,0,0,0-1.54-1.85,13.5,13.5,0,0,0,3.9-2.92h-3.5V97.56h5l.51-.89h-3.8V94.88h4.56c.1-.28.16-.55.25-.84h-5.51v-1.9h5.93c.07-.41.13-.85.17-1.25l2.41.23a9.86,9.86,0,0,1-.17,1h6.8V94h-7.2c-.07.29-.15.56-.23.84h6.86v1.79h-7.54a8.7,8.7,0,0,1-.4.89h9.58V99.5Zm-2,2.75h-5.75v1h5.75Zm0,3.71v-1h-5.75v1Zm-4.92-6.46a7.93,7.93,0,0,1-.66.93h5.64a11.15,11.15,0,0,1-.65-.93Z"/><path d="M197.11,103.79c-.3-.53-.85-1.33-1.39-2.09v6.93h-2.09V102a16,16,0,0,1-1.63,1.65,9.44,9.44,0,0,0-.91-2.22,15.07,15.07,0,0,0,4.14-5.27h-3.7v-2h2.9a23.77,23.77,0,0,0-1.31-2.32l1.71-.87a19.7,19.7,0,0,1,1.54,2.45l-1.23.74h1.17l.35-.09,1.1.89a22.92,22.92,0,0,1-2,4.2v.19l.29.28a11.84,11.84,0,0,0,1.29-1.8L198.61,99c-.62.55-1.19,1.14-1.65,1.6.53.59,1.06,1.2,1.27,1.44Zm11.36-5.17a14.51,14.51,0,0,1-2.81,6.2,10.7,10.7,0,0,0,3.67,1.82,7.78,7.78,0,0,0-1.39,1.94,11.66,11.66,0,0,1-3.8-2.21,13.56,13.56,0,0,1-3.76,2.25,8.51,8.51,0,0,0-1.2-1.85,10.56,10.56,0,0,0,3.53-1.93,14.87,14.87,0,0,1-2.1-3.88c-.23,2.6-.88,5.58-2.64,7.6a8.27,8.27,0,0,0-1.62-1.46c2.09-2.4,2.28-5.95,2.28-8.57V93.44h4V90.89h2.11v2.55h2.47l.34-.06,1.6.32a33.8,33.8,0,0,1-1.22,4.13l-1.9-.44c.17-.5.34-1.16.5-1.86h-1.79v2.66h2l.38-.08Zm-7.77-3.09v2.66h1.9V95.53Zm1.6,4.63a11.56,11.56,0,0,0,1.84,3.19,10.62,10.62,0,0,0,1.77-3.19Z"/><path d="M219.85,100.62a17.37,17.37,0,0,1,.8,2.09l-.76.26h.29v1.83c0,1.5-.38,2.9-2.78,3.74a4.79,4.79,0,0,0-1-1.25,3.09,3.09,0,0,0,1.85-1.12h-2.15V103.3h1.37v1.61h1.14V103h.83l-.11-.47a15.66,15.66,0,0,0-3.36.55v0a12.18,12.18,0,0,0-.38-1.25,2.49,2.49,0,0,0,1-.52,9.93,9.93,0,0,0,.81-.7,4.42,4.42,0,0,0-1.35.23v0a8.71,8.71,0,0,0-.45-1.29,1.08,1.08,0,0,0,.62-.34,5.66,5.66,0,0,0,1.13-1.35h-2.51v10.84h-2.17v-17H220v6.18h-1.91l.7.38a10.9,10.9,0,0,1-1.31,1.4l1,0c.24-.29.47-.59.7-.88l1.1.76a17.75,17.75,0,0,1-2.47,2.2l1.18-.11a5.5,5.5,0,0,0-.23-.61Zm-5-7.49V94h3v-.9Zm0,3.14h3v-.88h-3ZM228.74,106c0,1.09-.15,1.71-.79,2.09a5.61,5.61,0,0,1-2.8.42,8,8,0,0,0-.47-1.84h-.91v-.53h-1.14v2.22h-1.58V103h0c-.1-.3-.27-.85-.4-1.17a2,2,0,0,0,1-.52c.15-.11.43-.36.79-.7a4.31,4.31,0,0,0-1.34.23,8.38,8.38,0,0,0-.46-1.29,1.42,1.42,0,0,0,.63-.35,7,7,0,0,0,1.12-1.38h-1.16V91.61h7.46Zm-3.53.33c.46,0,.86,0,1,0s.32-.1.32-.35V97.79h-3.44l.74.4a10.45,10.45,0,0,1-1.27,1.38l.93,0c.28-.31.55-.61.78-.92l1.08.78a21.73,21.73,0,0,1-2.45,2.26l1.16-.11c-.09-.21-.17-.42-.27-.61l1.07-.34a19.07,19.07,0,0,1,.89,2.09l-1.12.43c-.06-.16-.13-.39-.19-.62-2,.25-2.72.38-3.1.47h1.26v1.94h1.14V103.3h1.44Zm-1.79-13.23V94h3.14v-.9Zm0,3.14h3.14v-.88h-3.14Z"/><path d="M237.58,99.76a23,23,0,0,1-1.5,4.94c.3.19.67.46,1.18.76,1.29.78,3.08.9,5.3.9a62.53,62.53,0,0,0,7.67-.5,9.14,9.14,0,0,0-.64,2.32c-1.58.09-4.92.23-7.14.23-2.53,0-4.13-.21-5.49-1-.8-.44-1.47-1.06-1.87-1.06s-1.1,1.29-1.57,2.37l-1.5-2.15a7.74,7.74,0,0,1,2-1.8,20.4,20.4,0,0,0,1.08-3.31H232.7c.44-1.12,1-2.64,1.37-4.12h-1.71v-2h4.44c-.4,1.33-.85,2.85-1.29,4.18h.76l.34-.08Zm-3.21-5c-.21-.86-.7-2.24-1-3.27l2-.61c.36,1,.84,2.3,1.1,3.15Zm4.35,3c-.32.38-.64.7-1,1a14.57,14.57,0,0,0-1.21-2.07,14.3,14.3,0,0,0,3.64-5.76l2.06.57a25.28,25.28,0,0,1-1,2.41H244a19.81,19.81,0,0,0-.89-2l2.13-.61a14.85,14.85,0,0,1,1.21,2.66h3v1.9h-3.83v1.08h3.05v1.83h-3.05V99.9h3v1.82h-3v1.2h4v1.9h-8.79v.79h-2.19Zm4.79-1.92h-2.6v1.08h2.6Zm0,2.91h-2.6V99.9h2.6Zm0,3h-2.6v1.2h2.6Z"/><path d="M267.9,106.18h2.28v1.94H252.86v-1.94h2.2v-4.33H267.9Zm2.28-12.61v1.9h-5.73A11.24,11.24,0,0,1,263,97.75a17.7,17.7,0,0,0-1.67-1.24v1.6H258.8v1.12H262v1.71h-8.66V91.52h8.55v1.71h-3.1v1h2.57V96.4a13.15,13.15,0,0,0,2.41-5.51l2.09.42c-.19.78-.4,1.52-.66,2.26Zm-14.8-.34v1H257v-1Zm4.15,2.43h-4.15v1h4.15ZM257,98.11h-1.62v1.12H257Zm.17,8.07h1.43V103.6h-1.43Zm3.5-2.58v2.58h1.5V103.6Zm9.17-3.27h-6.55v-2h6.55Zm-5.62,3.27v2.58h1.46V103.6Z"/><path d="M278.68,92.11A17.21,17.21,0,0,1,277,94.82a18.39,18.39,0,0,1,.82,6.25c0,2.63-.14,5.4-.92,6.52a1.49,1.49,0,0,1-1,.66,6.76,6.76,0,0,1-1.86.16,4.6,4.6,0,0,0-.5-2,7.13,7.13,0,0,0,1.33,0,.62.62,0,0,0,.5-.27c.34-.4.45-2.26.47-4.26a15.66,15.66,0,0,1-1.71,2.23,8,8,0,0,0-1.21-1.77,11.57,11.57,0,0,0,2.81-4.07,15.89,15.89,0,0,0-.27-1.61,11.76,11.76,0,0,1-1.18,1.06,11.24,11.24,0,0,0-1.38-1.38,14.47,14.47,0,0,0,1.88-1.81,10.49,10.49,0,0,0-1.58-2.43l1.54-1A11.29,11.29,0,0,1,276,92.79a14.31,14.31,0,0,0,.93-1.69Zm9.53,5.56c.37,3.78,1.07,7.28,2.87,9a8.94,8.94,0,0,0-1.52,1.86,11.68,11.68,0,0,1-2.26-5.32,12.24,12.24,0,0,1-2.52,5.43,6.22,6.22,0,0,0-1.52-1.42l0,0h-2.87v1H278.7V102h5.22v4.37c1.48-2.22,2-5.24,2.19-8.72h-1.68V95.93h-6.36V94.14h2.79a18,18,0,0,0-1.08-2.37l1.69-.63a16.53,16.53,0,0,1,1.2,2.37l-1.41.63h3.42v1.69h1.48c0-1.44,0-3,0-4.52h2v1.35l1.35-.59a12.27,12.27,0,0,1,1.29,2.72l-1.52.64a11.29,11.29,0,0,0-1.14-2.68c0,1,0,2.09,0,3.08h2.47v1.84Zm-4.25.91H278.7V96.82H284Zm-5.26.86H284v1.77H278.7Zm3.59,4.22h-1.88v1.94h1.88Z"/><path d="M301.65,103.28c-2.51,1.12-5.32,2.32-7.47,3.21l-.76-2.41c.72-.25,1.58-.56,2.53-.94l-.38-11.09,2.36-.09.34,10.27c1-.4,1.92-.8,2.87-1.18Zm7.86,5.34A32.07,32.07,0,0,0,306,104a13.64,13.64,0,0,1-5.77,4.61,13.7,13.7,0,0,0-1.81-2c6-2.28,8-6.88,8.68-14.69l2.49.23a29.2,29.2,0,0,1-2.32,9.65,42.11,42.11,0,0,1,4.22,4.88Zm-7.12-9.75a19.1,19.1,0,0,0-2.83-4.71l2.05-1a19.28,19.28,0,0,1,3,4.56Z"/><path d="M319.87,95.68a23.07,23.07,0,0,1-1.5,2.51v10.5h-2.13v-7.88c-.4.42-.82.8-1.2,1.14a12.9,12.9,0,0,0-1.19-2.11,16,16,0,0,0,4-4.86Zm-.34-4a20.46,20.46,0,0,1-4.33,4.65,15.89,15.89,0,0,0-1.2-1.63,15.49,15.49,0,0,0,3.53-3.78Zm10.58,9.59a10.66,10.66,0,0,1-3.17,4.28,19.9,19.9,0,0,0,4.46,1.21,8.55,8.55,0,0,0-1.35,2,18,18,0,0,1-5.17-1.8,20.31,20.31,0,0,1-5.24,1.84,7.35,7.35,0,0,0-1.06-1.92,18.56,18.56,0,0,0,4.33-1.23,12.25,12.25,0,0,1-1.25-1.13,11.94,11.94,0,0,1-1.24,1,15.81,15.81,0,0,0-1.48-1.63c.45-.31.91-.63,1.37-1a10.91,10.91,0,0,1-1-1.67l1.84-.61a6.16,6.16,0,0,0,.52.91A12.35,12.35,0,0,0,323,99.63a12.65,12.65,0,0,0-3,.42,13.72,13.72,0,0,0-.66-2,6.15,6.15,0,0,0,2.15-.93c.34-.18,1-.52,1.73-1a9.59,9.59,0,0,0-2.8.32,22.35,22.35,0,0,0-.72-2.13,3.61,3.61,0,0,0,1.27-.66A14.74,14.74,0,0,0,324,90.93l2.26,1a23.3,23.3,0,0,1-3,2.43l2.45,0a25.76,25.76,0,0,0,2.06-1.77l2.1,1.14a35.89,35.89,0,0,1-6,4.07l4-.21L327,96.46l1.73-.9a42.38,42.38,0,0,1,2.87,4.13l-1.86,1.06a15.86,15.86,0,0,0-.88-1.54l-3.49.23c-.21.44-.44.85-.67,1.27h3.61l.36-.09Zm-6.63,1.24c-.15.19-.3.38-.46.55a11.24,11.24,0,0,0,1.9,1.46,8,8,0,0,0,2.15-2Z"/><path d="M336.27,102.4c1.48-.47,2.33-1.29,2.45-2.29h-.21a1.69,1.69,0,0,1-1.81-1.69,1.74,1.74,0,0,1,1.87-1.71c1.35,0,2.05,1,2.05,2.61a4.77,4.77,0,0,1-3.74,4.59Z"/><path d="M351.41,91.63a33.44,33.44,0,0,1-1.88,4.05V108.6h-2.17V99c-.4.52-.79,1-1.17,1.39A14.11,14.11,0,0,0,345,98.05a19.53,19.53,0,0,0,4.33-7.1Zm8.23,14.8c1.12,0,1.33-.47,1.46-2.6a6.94,6.94,0,0,0,2,.83c-.28,2.83-.95,3.79-3.28,3.79H355.5c-2.65,0-3.41-.69-3.41-3.33V99.8l-1.44.57-.85-2,2.29-.9V93h2.13v3.63l1.9-.74V91h2v4.12l2.55-1,.19-.13,1.69.51-.08.36a71.82,71.82,0,0,1-.75,8.65l-1.87-.53c.21-1.6.35-4.11.42-6.43l-2.15.88v6.72h-2V98.19l-1.9.77v6.16c0,1.12.19,1.31,1.45,1.31Z"/><path d="M378.92,106.34c1.71,0,2-.52,2.26-3a7.63,7.63,0,0,0,2.11.84c-.38,3.15-1.14,4.18-4.22,4.18h-5.92c-3.35,0-4.34-.76-4.34-3.69V99.59l-2.65.84-.59-2.05,3.24-1V92.22H371v4.45l2.9-.92V90.91h2.27V95L379.72,94l.61-.42,1.69.53-.08.35a69,69,0,0,1-.83,8.49l-1.87-.53c.23-1.54.38-4,.46-6.24l-3.49,1.13v7.1h-2.27V98l-2.9.93v5.81c0,1.41.26,1.64,2.13,1.64Z"/><path d="M387.21,97.5a6.38,6.38,0,0,0-1.18-1,13.24,13.24,0,0,0,2.68-5.66l2,.25c-.13.49-.27,1-.44,1.48h1.77l.36-.11,1.25.83a23.91,23.91,0,0,1-1.21,2.36h2.15v7.65h-7.41ZM386,107.82a7.51,7.51,0,0,0,1.29-3.92l1.56.38a8.27,8.27,0,0,1-1.39,4.37Zm3-9.16h1.07V97.48H389Zm0,2.91h1.07v-1.24H389Zm.67-7.26c-.19.48-.42.93-.65,1.39h1.43c.2-.4.45-.9.64-1.39Zm.91,9.61a20,20,0,0,1,.26,3.77l-1.53.17a19.82,19.82,0,0,0-.18-3.77Zm1.78,0a14.9,14.9,0,0,1,.86,3.54l-1.46.32a16.17,16.17,0,0,0-.76-3.59Zm.35-6.4h-1.09v1.18h1.09Zm0,2.85h-1.09v1.24h1.09Zm1.5,3.27a15.11,15.11,0,0,1,1.4,3.5l-1.46.57a14.51,14.51,0,0,0-1.27-3.59Zm9.69.44h-3.56v4.56h-2.2V104h-3.23v-2h3.23v-1.78h-2.72V98.34h2.72V96.69H395v-2h1.47a14.37,14.37,0,0,0-1.22-3.15l1.84-.65a12.43,12.43,0,0,1,1.41,3.4l-1,.4h3.63l-1.27-.32a21.5,21.5,0,0,0,1.27-3.5l2.3.49a36.31,36.31,0,0,1-1.61,3.33h1.67v2h-3.12v1.65h2.83v1.94h-2.83v1.78h3.56Z"/><path d="M422,101.59c-2.69,4.5-7.73,6.23-14.49,7a8.05,8.05,0,0,0-1.05-2.17c6.35-.53,11.12-1.9,13.47-5.76Zm-9.76-7.36a32.84,32.84,0,0,1-3.46,6.69,15.46,15.46,0,0,0-2-1.1,21.71,21.71,0,0,0,3.28-6.14Zm4.1-3.32v11.82h-2.24V90.91Zm4.35,2.68a50.07,50.07,0,0,1,3.54,6.12l-1.94,1.14a53,53,0,0,0-3.42-6.31Z"/><path d="M435.47,100.75a34.36,34.36,0,0,1-3.54,4.66l7.7-.46c-.67-1-1.37-1.92-2-2.74l2.09-.91a31.38,31.38,0,0,1,4.22,6.12l-2.2,1.14c-.21-.48-.48-1-.8-1.58-9.57.76-10.9.82-11.86,1.18-.13-.46-.51-1.6-.77-2.22a3.17,3.17,0,0,0,1.46-1.14,26.06,26.06,0,0,0,2.87-4h-5.34V98.47h7.39v-2.7H428.7V93.49h5.95V90.87H437v2.62h6.12v2.28H437v2.7h7.49v2.28Z"/><path d="M453.16,100.9c-.52.19-1,.4-1.56.57v4.6c0,1.05-.17,1.6-.74,2a5,5,0,0,1-2.57.41,7.82,7.82,0,0,0-.59-2.1c.67,0,1.3,0,1.52,0s.31-.07.31-.32v-3.86l-1.54.54-.53-2.17c.58-.15,1.29-.36,2.07-.61v-3.4h-1.81V94.48h1.81V90.89h2.07v3.59h1.29v2.09H451.6v2.72l1.19-.4Zm7.9,1.43a12,12,0,0,0,4.16,3.42,9.49,9.49,0,0,0-1.54,1.76,13.94,13.94,0,0,1-3.89-3.72v4.86h-2.23V104a11.53,11.53,0,0,1-3.85,3.65,9.87,9.87,0,0,0-1.45-1.71,10.31,10.31,0,0,0,4.14-3.61h-3v-2h4.2V98.43h2.23v1.88h4.93v2Zm-2.6-8.13c-.16,2.68-.82,4.19-4.45,5a5.4,5.4,0,0,0-1.1-1.74c3-.48,3.38-1.35,3.49-3.23Zm-3,1.44h-2.09V91.77h11.22v3.76h-2.2V93.68h-6.93Zm8,1.16a6.27,6.27,0,0,0,1.18-.13c.06.51.11,1.38.17,1.88a4.57,4.57,0,0,1-1.31.11h-1.69c-2,0-2.41-.63-2.41-2.51v-2h2v2c0,.46.06.63.38.63Z"/><path d="M474.17,103.07c-.32-.48-.86-1.18-1.39-1.83v7.38h-2.22v-7a14.1,14.1,0,0,1-2.17,1.68,11.17,11.17,0,0,0-.85-2.3,13.39,13.39,0,0,0,4.88-4.92h-4.33v-2h3.23a13.21,13.21,0,0,0-1.39-2L471.66,91a11.09,11.09,0,0,1,1.69,2.39l-1.06.72h1.35L474,94l1.19.87a19.19,19.19,0,0,1-2.18,4c.76.67,2.15,2,2.51,2.4Zm9.31,3.51c.32,0,.38-.24.44-2.14a5.36,5.36,0,0,0,1.84.83c-.19,2.59-.72,3.27-2,3.27h-1.25c-1.67,0-2-.65-2-2.53v-3.72h-1.07c-.26,3.1-1,5.19-4.65,6.36a5.8,5.8,0,0,0-1.12-1.65c3-.87,3.55-2.37,3.76-4.71h-1.25V91.65h8.41v10.64h-2V106c0,.52,0,.57.3.57Zm-5.3-11.91h4.2V93.44h-4.2Zm0,2.89h4.2V96.34h-4.2Zm0,2.92h4.2V99.25h-4.2Z"/><path d="M505,93.3v4.43h-2.37V95.47H491.4v2.26h-2.26V93.3h7.11a17.19,17.19,0,0,0-.82-2l2.2-.65a11.86,11.86,0,0,1,1.12,2.6ZM500.79,106c1.46,0,1.69-.41,1.92-2.86A8.29,8.29,0,0,0,505,104c-.38,3.23-1.12,4.18-4.07,4.18h-5.11c-3.25,0-4.2-.74-4.2-3.35V97H494v3.68a38.43,38.43,0,0,0,7.2-2.6l1.8,1.81a52.75,52.75,0,0,1-9,2.84v2.08c0,1,.26,1.13,1.92,1.13Z"/><path d="M512.85,96.71a3.08,3.08,0,1,1-3.07,3.07A3.07,3.07,0,0,1,512.85,96.71Zm0,4.78a1.71,1.71,0,1,0-1.71-1.71A1.7,1.7,0,0,0,512.85,101.49Z"/><path d="M75.87,134.7a37.18,37.18,0,0,1,2.62,5l-2.11,1.12a12.4,12.4,0,0,0-.66-1.63c-4.46,1.4-5.22,1.71-5.76,2.07a8.09,8.09,0,0,0-.87-2.3,1.42,1.42,0,0,0,.87-1.33V124.84h8v9.39H72.28V138l2.53-.72c-.31-.55-.61-1.11-.89-1.6Zm-3.59-7.84v1.61H75.7v-1.61Zm3.42,5.35v-1.73H72.28v1.73Zm10.13,3.69c0,1-.17,1.61-.82,2a5.57,5.57,0,0,1-2.7.38,8,8,0,0,0-.62-2.13,14.83,14.83,0,0,0,1.59,0c.23,0,.32-.07.32-.32V127H81.31v14.59H79V125h6.8Z"/><path d="M101.84,134.68a9,9,0,0,1-1,3.31,19,19,0,0,0,6.5,1.59,9.14,9.14,0,0,0-1.35,2,17.52,17.52,0,0,1-6.5-2,9.61,9.61,0,0,1-3.89,2,13,13,0,0,0-1.41-1.88,8.72,8.72,0,0,0,3.46-1.46,11.12,11.12,0,0,1-2.34-2.83l1.84-.57a8,8,0,0,0,1.77,2,6.14,6.14,0,0,0,.7-2.17H95.35v-5.55h4.37V127.8H95v-1.74c-.34.72-.72,1.46-1.14,2.18v13.43H91.66v-10.2a19.81,19.81,0,0,1-1.56,1.79,15,15,0,0,0-1.19-2.32,20.13,20.13,0,0,0,4.59-7.09l2.09.69c-.17.4-.34.79-.51,1.21h4.64V124H102v1.73h5v2h-5v1.33h4.52v5.55Zm-2.12-1.82V131H97.38v1.88ZM102,131v1.88h2.35V131Z"/><path d="M119.89,139.18c.5,0,1,.06,1.52.06,1.07,0,4.71,0,6.06-.06a8.19,8.19,0,0,0-.76,2.17H121.3c-3.48,0-5.83-.49-7.43-2.7a8.48,8.48,0,0,1-2.66,3,8.63,8.63,0,0,0-1.71-1.57,8.06,8.06,0,0,0,3.54-5.76l2.26.34c-.14.61-.29,1.18-.44,1.73a4.19,4.19,0,0,0,2.74,2.38V134h-7.41v-2h16.75v2h-7v1.42h5.86v2h-5.86Zm5.25-8.05H111.93v-6.59h13.21Zm-2.3-5h-8.7v1h8.7Zm0,2.45h-8.7v1h8.7Z"/><path d="M140.59,133.18a10.72,10.72,0,0,0,7.46,6.21,8.49,8.49,0,0,0-1.56,2.11A12.14,12.14,0,0,1,139,135c-1.05,2.53-3.19,4.92-7.47,6.52a8.79,8.79,0,0,0-1.48-2c4.39-1.56,6.25-4,7-6.42h-6.36v-2.32h6.83c0-.51.06-1,.06-1.46v-1.92h-6.21v-2.32h15v2.32H140v2c0,.45,0,.93,0,1.42h7.24v2.32Z"/><path d="M165.17,130.35c-.06,5.17.13,9,1.24,9,.28,0,.38-1.05.39-2.66a7.86,7.86,0,0,0,1.45,1.44c-.15,2.43-.59,3.48-2,3.48-2.84,0-3.27-4-3.35-9.56H152.65v-1.5c-.23.21-.44.4-.66.57a13.82,13.82,0,0,0-1.58-1.84,12.56,12.56,0,0,0,4.24-5.36l2.2.67c-.13.3-.28.62-.46,1h11.14v1.69h-12.1l-.5.74h11v1.63H154.84v-1.5a16.34,16.34,0,0,1-2,2.26Zm-9.17,7.5a10.14,10.14,0,0,1-3.86,3.75,9,9,0,0,0-1.41-1.62,8.49,8.49,0,0,0,3.61-2.73Zm2.24-.85v4.58h-2.13V137h-4.69v-1.71h2.18a7.42,7.42,0,0,0-1.16-2.17l1.71-.68a7.6,7.6,0,0,1,1.26,2.2l-1.58.65h2.28v-2.87h2.13v2.87h1.59l-1-.4a19.68,19.68,0,0,0,1.31-2.37l2,.6c-.6.78-1.23,1.58-1.72,2.17h2.27V137Zm1.5.19a27.73,27.73,0,0,1,3.49,2.73l-1.35,1.37a28.79,28.79,0,0,0-3.43-2.88Z"/><path d="M177.14,138.25h-3.59v1.5h-1.92V125.33h5.51Zm-3.59-10.9v3.36h1.79v-3.36Zm1.79,8.89v-3.55h-1.79v3.55Zm12.23,3.25c0,1-.19,1.52-.89,1.82a7.21,7.21,0,0,1-2.91.32,7.84,7.84,0,0,0-.61-1.91c.78.05,1.68,0,1.92,0s.34-.07.34-.3v-.65h-4.95a7.12,7.12,0,0,1-1.39,3,9,9,0,0,0-1.63-1.51,7.11,7.11,0,0,0,1.19-4.63v-3.44h8.93Zm1-9.6v1.62H177.83v-1.62H182v-.81h-3.5v-1.52H182v-.76h-4.15v-1.62H182v-1.29h2.12v1.29h4.2v1.62h-4.2v.76h3.67v1.52h-3.67v.81Zm-3.14,7.36v-.88h-4.69c0,.29,0,.57,0,.88Zm-4.67-3.44v1h4.67v-1Z"/><path d="M208.38,138.9c0,1.14-.21,1.77-.9,2.15a6.53,6.53,0,0,1-3.06.41,8,8,0,0,0-.68-2.24c.84,0,1.75,0,2,0s.38-.11.38-.4v-3.21h-3a13.35,13.35,0,0,1-2,6,9.39,9.39,0,0,0-1.88-1.2,6.68,6.68,0,0,0,.66-1.1l-1.74.83c-.1-.34-.25-.76-.42-1.19-4.05,1.74-4.77,2.16-5.26,2.56a6.45,6.45,0,0,0-1.18-1.65,2.55,2.55,0,0,0,.91-2v-12h3.08a12.62,12.62,0,0,0-.63-1.51l2.22-.43a13.64,13.64,0,0,1,.88,1.94h2.39v8.37h-5.68V138l2.37-1c-.3-.59-.6-1.2-.91-1.75l1.92-.8a32.82,32.82,0,0,1,2.26,4.39,20,20,0,0,0,1.1-7.56v-6.55h7.17Zm-13.91-11v1.18H198V127.9Zm3.48,4.33V131h-3.48v1.25Zm8.2,1.37v-2.51h-2.77v.19c0,.72,0,1.5-.06,2.32Zm-2.77-6.82v2.3h2.77v-2.3Z"/><path d="M229.07,126.82s0,.76,0,1c-.25,8.49-.46,11.52-1.24,12.52a2.56,2.56,0,0,1-1.82,1,23.4,23.4,0,0,1-3,0,5.36,5.36,0,0,0-.74-2.21c1.21.12,2.33.12,2.83.12a1,1,0,0,0,.83-.33c.55-.61.8-3.46,1-10.16h-4.07a16.17,16.17,0,0,1-1.67,3,13,13,0,0,0-1.46-1.06v8.87h-5.07v1.38h-2V127h2.14a19.37,19.37,0,0,0,.55-3.06l2.47.34c-.32,1-.66,1.9-1,2.72h3V130a19.75,19.75,0,0,0,2.56-6.12l2.15.49a21.05,21.05,0,0,1-.74,2.42Zm-11.38,2.11h-3V132h3Zm0,8.75V134h-3v3.72Zm6.31-1a41,41,0,0,0-2.65-4.39l1.77-1a44.14,44.14,0,0,1,2.79,4.22Z"/><path d="M247.75,125v16.34h-2.44v-1.2h-8.43v1.24h-2.34V125Zm-10.87,2.28v4.08h8.43v-4.08Zm8.43,10.58v-4.25h-8.43v4.25Z"/><path d="M270.17,134.36h-7.38v4.58c0,1.27-.28,1.9-1.17,2.26a11.4,11.4,0,0,1-4,.4,9.36,9.36,0,0,0-1-2.34c1.33.08,2.81.08,3.21.06s.55-.12.55-.44v-4.52h-7.52V132.1h7.52v-2.64a24.43,24.43,0,0,0,3.66-2.24h-9.3V125h11.83l.53-.11,1.71,1.31a27.66,27.66,0,0,1-6.08,4.48v1.45h7.38Z"/><path d="M275,135.4c1.48-.47,2.34-1.29,2.45-2.29h-.21a1.68,1.68,0,0,1-1.8-1.69,1.73,1.73,0,0,1,1.86-1.71c1.35,0,2,1,2,2.61a4.76,4.76,0,0,1-3.74,4.59Z"/><path d="M290.13,124.63a32,32,0,0,1-1.88,4.05V141.6h-2.16V132c-.4.52-.8,1-1.18,1.39a14,14,0,0,0-1.23-2.36A19.67,19.67,0,0,0,288,124Zm8.23,14.8c1.12,0,1.33-.47,1.46-2.6a7.12,7.12,0,0,0,2,.83c-.29,2.83-.95,3.79-3.29,3.79h-4.31c-2.64,0-3.4-.69-3.4-3.33V132.8l-1.44.57-.86-2,2.3-.9V126H293v3.63l1.9-.74V124h2v4.12l2.54-1,.19-.13,1.7.51-.08.36a71.76,71.76,0,0,1-.76,8.65l-1.86-.53c.21-1.6.34-4.11.42-6.43l-2.15.88v6.72h-2v-5.94L293,132v6.16c0,1.12.19,1.31,1.44,1.31Z"/><path d="M321.69,126.82s0,.76,0,1c-.24,8.49-.45,11.52-1.23,12.52a2.56,2.56,0,0,1-1.83,1,23.4,23.4,0,0,1-3,0,5.36,5.36,0,0,0-.74-2.21c1.22.12,2.34.12,2.83.12a1,1,0,0,0,.84-.33c.55-.61.8-3.46,1-10.16H315.5a16.77,16.77,0,0,1-1.67,3,13.23,13.23,0,0,0-1.47-1.06v8.87h-5.07v1.38h-2.05V127h2.15a22,22,0,0,0,.55-3.06l2.47.34c-.33,1-.67,1.9-1,2.72h2.94V130a19.53,19.53,0,0,0,2.57-6.12l2.15.49a21.11,21.11,0,0,1-.75,2.42Zm-11.38,2.11h-3V132h3Zm0,8.75V134h-3v3.72Zm6.31-1a40.77,40.77,0,0,0-2.64-4.39l1.77-1a46.13,46.13,0,0,1,2.79,4.22Z"/><path d="M328.63,130.84a50.25,50.25,0,0,1-1.39,7.89l-2.28-.91a37.18,37.18,0,0,0,1.47-7.39Zm3.57-1.53v8.81c0,.89.15,1,1.07,1H336c.95,0,1.12-.61,1.26-3.58a6.84,6.84,0,0,0,2.12.95c-.26,3.61-.87,4.73-3.21,4.73H333c-2.47,0-3.15-.76-3.15-3.15v-8.81ZM332,124.2a34.12,34.12,0,0,1,5.26,3.93l-1.67,1.76a34,34,0,0,0-5.13-4.16Zm8.28,5.62a34.43,34.43,0,0,1,2.45,7.06l-2.3,1a32.43,32.43,0,0,0-2.25-7.17Z"/><path d="M350,132.59a12.06,12.06,0,0,0,1.31-1.82l1.33,1.23c-.6.55-1.17,1.12-1.65,1.58l1.33,1.42-1.18,1.77a24.56,24.56,0,0,0-1.48-2.13v7h-2v-6.79a13.53,13.53,0,0,1-1.79,1.77,9.38,9.38,0,0,0-.95-2.24,15.06,15.06,0,0,0,4.32-5.23H345.5v-2h3c-.36-.7-.93-1.61-1.4-2.32l1.61-1a19.52,19.52,0,0,1,1.6,2.39l-1.29.91h1.33l.36-.09,1.12.91a22,22,0,0,1-2.15,4.24v.11Zm12.84,6.63v2h-10.8v-2h4.21v-1.94H352.8v-2h3.49v-1.48h-3.61v-9.06h9.48v9.06H358.4v1.48h3.9v2h-3.9v1.94Zm-8.18-10.83h1.59v-1.72H354.7Zm1.59,3.54v-1.77H354.7v1.77Zm3.75-5.26H358.4v1.72H360Zm0,3.49H358.4v1.77H360Z"/><path d="M368.51,136.52v1.64h-2.09V124.92h6.33v11.6Zm0-9.55v2.7h2.15V127Zm2.15,7.5v-2.79h-2.15v2.79ZM382.74,139c0,1.2-.25,1.79-1,2.17a8.5,8.5,0,0,1-3.44.42,7.36,7.36,0,0,0-.78-2.19c1,.06,2.17,0,2.49,0s.48-.11.48-.44v-3.34h-4.09a10,10,0,0,1-3.26,6.06,7.54,7.54,0,0,0-1.73-1.46c2.87-2.36,3.11-5.91,3.11-8.76v-6.86h8.21Zm-2.24-5.39v-2.43h-3.74v.3c0,.66,0,1.39-.08,2.13Zm-3.74-6.9v2.43h3.74v-2.43Z"/><path d="M402.16,126.65v14.93h-2.4v-1.2h-9.59v1.22h-2.3V126.65h4.77a20.52,20.52,0,0,0,.78-2.83l2.94.38c-.36.85-.72,1.69-1.1,2.45Zm-12,2.29v3.39h9.59v-3.39Zm9.59,9.14v-3.51h-9.59v3.51Z"/><path d="M421.69,126.4a13.18,13.18,0,0,1-4.12,4.81,25.23,25.23,0,0,0,6.72,1.71,9.59,9.59,0,0,0-1.44,2.2,21.21,21.21,0,0,1-7.41-2.55,27,27,0,0,1-7.62,2.66,7.25,7.25,0,0,0-1.1-2.12,25,25,0,0,0,6.63-2,12.87,12.87,0,0,1-1.9-1.86,22.72,22.72,0,0,1-2.74,2.2,6.85,6.85,0,0,0-1.5-1.75,16.3,16.3,0,0,0,5.7-5.9l2.43.51c-.26.42-.53.85-.83,1.29h5.24l.38-.09Zm-11.13,10.88a71.86,71.86,0,0,1,10.14,2.44l-1,2.1a78,78,0,0,0-10.05-2.73ZM413,134a72,72,0,0,1,7.08,1.88l-1,2c-1.59-.59-4.84-1.58-7-2.13Zm-.27-6.1a11.86,11.86,0,0,0,2.58,2.17,12.5,12.5,0,0,0,2.93-2.51h-5.21Z"/><path d="M437.46,133.18a10.72,10.72,0,0,0,7.47,6.21,8.25,8.25,0,0,0-1.56,2.11A12.19,12.19,0,0,1,435.9,135c-1,2.53-3.19,4.92-7.46,6.52a9.1,9.1,0,0,0-1.48-2c4.38-1.56,6.25-4,7-6.42h-6.36v-2.32h6.84c0-.51.06-1,.06-1.46v-1.92H428.3v-2.32h15.05v2.32h-6.46v2c0,.45,0,.93,0,1.42h7.24v2.32Z"/><path d="M464.67,126.82s0,.76,0,1c-.25,8.49-.46,11.52-1.24,12.52a2.56,2.56,0,0,1-1.82,1,23.4,23.4,0,0,1-3,0,5.36,5.36,0,0,0-.74-2.21c1.21.12,2.33.12,2.83.12a1,1,0,0,0,.83-.33c.55-.61.8-3.46,1-10.16h-4.07a16.17,16.17,0,0,1-1.67,3,13,13,0,0,0-1.46-1.06v8.87h-5.07v1.38h-2V127h2.14a19.37,19.37,0,0,0,.55-3.06l2.47.34c-.32,1-.66,1.9-1,2.72h2.94V130a20,20,0,0,0,2.57-6.12l2.14.49a21.05,21.05,0,0,1-.74,2.42Zm-11.38,2.11h-3V132h3Zm0,8.75V134h-3v3.72Zm6.31-1a42.47,42.47,0,0,0-2.64-4.39l1.76-1a44.14,44.14,0,0,1,2.79,4.22Z"/><path d="M477.91,127.22V129h6.65v10.24c0,1.08-.23,1.62-1,2a8.68,8.68,0,0,1-3.25.36,7.56,7.56,0,0,0-.74-2c.38,0,.78,0,1.14,0A30.25,30.25,0,0,0,478,137l1.35-1.18c.91.74,2.18,1.83,2.83,2.49l-1.35,1.33c.49,0,.93,0,1.1,0s.42-.09.42-.38v-8.11h-4.43v10.28h-2.22V131.09h-4.58V141.6H469V129h6.74v-1.76h-7.56V125h17.15v2.23Zm-6.78,11.17c.87-.59,2.24-1.62,3.55-2.64l.78,1.53c-1,1.05-2.2,2.11-3.25,3Zm1.42-6.77c.95.73,2.34,1.81,3,2.45l-1.35,1.45a33.27,33.27,0,0,0-2.91-2.62Zm5.46,2.55a20.39,20.39,0,0,0,3.09-2.45l1.24,1.54a30.55,30.55,0,0,1-3.33,2.28Z"/><path d="M493.7,124.54a33.63,33.63,0,0,1-1.42,3.68v13.4h-2.17v-9.45c-.36.52-.72,1-1.06,1.43a14.41,14.41,0,0,0-1.1-2.43,20.82,20.82,0,0,0,3.68-7.24Zm11.72,5.87s0,.66,0,1c-.26,6-.55,8.37-1.19,9.17a2.33,2.33,0,0,1-1.65.9,17.26,17.26,0,0,1-2.66,0,5.23,5.23,0,0,0-.71-2.18c1,.07,1.9.09,2.34.09a.89.89,0,0,0,.76-.28c.4-.46.66-2.26.85-6.65H499.5c.38-1.39.83-3.34,1.17-5.23H498c-.13,5.31-.57,10.91-3.74,14.48a6,6,0,0,0-1.73-1.61c2.85-3.1,3.06-8.14,3.12-12.87h-1.75v-2h9.29c-.3,1.66-.72,3.59-1.1,5.23Z"/><path d="M524.35,136.62a33.23,33.23,0,0,0-2.55-5.23,10.9,10.9,0,0,1-4.37,5.72,11.12,11.12,0,0,0-1.71-1.44,10,10,0,0,0,4.26-5.93h-2.19v-1.35a13.06,13.06,0,0,1-7.2,8.48,8.31,8.31,0,0,0-1.57-1.73,10.88,10.88,0,0,0,5.39-4.39,20.46,20.46,0,0,0-2.51-1.86,13.92,13.92,0,0,1-2.41,2.49,11,11,0,0,0-.87-2,12.87,12.87,0,0,0,3.8-5.68l2.11.65c-.16.38-.35.76-.54,1.16h2.62l.4-.06,1.41.53c-.11.57-.25,1.14-.4,1.68h2.28a8.28,8.28,0,0,0,0-1v-2.49h2.14v2.52c0,.31,0,.61,0,.94h3.78v2.12h-3.08a37.06,37.06,0,0,1,3.21,5.95Zm-15.73,4.2a18.44,18.44,0,0,0,2.33-3.71l2.13.55a24.11,24.11,0,0,1-2.32,4.05Zm4.61-8.84-3.59,1.33-.45-1.73c1-.22,2.37-.6,3.81-1Zm-.41-4.38a23.83,23.83,0,0,1,2.41,1.57,11.68,11.68,0,0,0,.64-1.92H513Zm3.53,10a21.48,21.48,0,0,1,.49,3.55l-2.22.32a24.27,24.27,0,0,0-.36-3.65Zm3.86-.17a19.49,19.49,0,0,1,1.12,3.53l-2.25.44a18.36,18.36,0,0,0-1-3.61Zm3.76-.52a25.09,25.09,0,0,1,2.39,3.78l-2.13,1a23.74,23.74,0,0,0-2.26-3.91Zm.28-9.36a11.65,11.65,0,0,0-1.69-2.57l1.63-.91a13.1,13.1,0,0,1,1.79,2.47Z"/><path d="M539.59,124.44c-.1.12-.19.25-.29.36a18.27,18.27,0,0,0,7.88,3.42,7.85,7.85,0,0,0-1.42,1.73c-.38-.09-.78-.23-1.18-.34v4.9h-13.2v-4.79a12.09,12.09,0,0,1-1.18.36,12.17,12.17,0,0,0-1.21-1.74c3.49-.82,6.87-2.4,8.6-4.6Zm4.31,4.92a20.68,20.68,0,0,1-2.59-1.16v.5h-6.66v-.38a21.77,21.77,0,0,1-2.3,1Zm-11.46,5.78h11.17v6.42H541.3v-.46h-6.63v.52h-2.23Zm2.15-2a7.11,7.11,0,0,0-.65-2l1.47-.42h-2.15v2.39Zm.08,3.48v.76h6.63v-.76Zm6.63,3v-.76h-6.63v.76ZM537,130.75H535.5a8.4,8.4,0,0,1,.76,2l-1.21.38H537Zm2.74-3.52a17.27,17.27,0,0,1-1.6-1.23,18.91,18.91,0,0,1-1.61,1.23Zm-.91,3.52v2.39h1.76l-1.14-.32a14.11,14.11,0,0,0,.74-2.07Zm3.76,0h-2l1.48.36c-.38.76-.74,1.5-1,2h1.54Z"/><path d="M559.23,127.56v3l.38-.44a43,43,0,0,1,6.48,3.84L564.42,136a38.07,38.07,0,0,0-5.19-3.46v9H556.8v-14h-6.86v-2.28h16.93v2.28Z"/><path d="M571.87,135.4c1.48-.47,2.33-1.29,2.45-2.29h-.21a1.69,1.69,0,0,1-1.81-1.69,1.74,1.74,0,0,1,1.87-1.71c1.34,0,2.05,1,2.05,2.61a4.77,4.77,0,0,1-3.75,4.59Z"/><path d="M588.26,128.81H581V127h3.11a18.18,18.18,0,0,0-1.16-2.4l1.66-.81a21.68,21.68,0,0,1,1.35,2.52l-1.22.69h3.53Zm-6.49,2.57v-1.71h5.7v1.71Zm5.73,2.54h-5.73v-1.71h5.73Zm10.85-.32a16.53,16.53,0,0,1-2.77,3.68,29.68,29.68,0,0,1,3.08,2.95l-1.79,1.39a28.36,28.36,0,0,0-2.83-3,19.12,19.12,0,0,1-5.64,3,12,12,0,0,0-.9-1.31v.23h-3.83v.8h-1.88v-6.56h5.71v5c4.07-1.37,7.28-4,8.71-6.93Zm-12.67,3h-2v2.13h2Zm11.42-6.75a18,18,0,0,1-7.77,7.47,17.21,17.21,0,0,0-1.16-1.6,14.82,14.82,0,0,0,4.29-2.92,12.78,12.78,0,0,0-3.36.45c-.08-.51-.3-1.5-.44-2a2.33,2.33,0,0,0,1.33-.61,21.06,21.06,0,0,0,1.47-2.51h-2.87v-2.05h4.16a15.24,15.24,0,0,0-.65-1.76l2-.61a10.85,10.85,0,0,1,.93,2.37h3.48v2.05h-4.81c-.49.92-1.1,2-1.6,2.93l2-.11a11.33,11.33,0,0,0,1-1.73Z"/><path d="M606.66,132.76a24.86,24.86,0,0,1-1.49,4.94c.29.19.65.46,1.16.76,1.29.78,3.08.9,5.3.9a63.16,63.16,0,0,0,7.7-.5,8.13,8.13,0,0,0-.67,2.32c-1.56.09-4.92.23-7.14.23-2.51,0-4.12-.21-5.49-1-.8-.44-1.46-1.06-1.86-1.06s-1.1,1.29-1.58,2.37l-1.5-2.15a8.63,8.63,0,0,1,2-1.82,20.46,20.46,0,0,0,1.09-3.29h-2.4c.44-1.12,1-2.64,1.39-4.12h-1.71v-2h4.43c-.4,1.33-.84,2.85-1.3,4.18h.76l.35-.08Zm-3.21-5c-.19-.86-.71-2.25-1-3.27l2-.61c.37,1,.84,2.3,1.11,3.15Zm7.54,1.14c0-.31.13-.61.19-.94h-4.56v-1.84h2.52a13.44,13.44,0,0,0-.89-1.5L610,124a13.77,13.77,0,0,1,1.21,1.9l-.66.3h2.85a14.08,14.08,0,0,0,1.19-2.26l2.19.61q-.6.89-1.14,1.65h3V128h-5.13c-.15.35-.3.63-.46.94h4.13v9.17h-9.2v-9.17Zm4,1.59h-4.84v1H615Zm0,2.47h-4.84v1H615Zm0,2.47h-4.84v1H615Z"/><path d="M630.71,132.93s0,.55,0,.82c-.19,4.58-.38,6.4-.91,7.05a2,2,0,0,1-1.43.7,13.21,13.21,0,0,1-2.29.06,4.7,4.7,0,0,0-.57-2,14.54,14.54,0,0,0,1.86.1.68.68,0,0,0,.62-.25c.29-.32.46-1.54.59-4.54h-2.1a10.82,10.82,0,0,1-3.35,6.74,5.91,5.91,0,0,0-1.5-1.65c2.49-2.05,2.87-5.47,3-8.62h-1.9v-6.61h7.81v6.61h-3.71c0,.51-.07,1-.11,1.55Zm-5.93-3.57h3.57v-2.6h-3.57Zm9.39,7.52H632V126.19h2.21Zm4.5-12.61V138.9c0,1.33-.27,2-1,2.32a10.11,10.11,0,0,1-3.78.43,8.08,8.08,0,0,0-.77-2.33c1.23,0,2.45,0,2.85,0s.51-.12.51-.46V124.27Z"/><path d="M659.42,126.82s0,.76,0,1c-.25,8.49-.46,11.52-1.24,12.52a2.56,2.56,0,0,1-1.82,1,23.4,23.4,0,0,1-3,0,5.36,5.36,0,0,0-.74-2.21c1.21.12,2.33.12,2.83.12a1,1,0,0,0,.83-.33c.55-.61.8-3.46,1-10.16h-4.07a16.17,16.17,0,0,1-1.67,3,13,13,0,0,0-1.46-1.06v8.87H645v1.38h-2V127h2.14a19.37,19.37,0,0,0,.55-3.06l2.47.34c-.32,1-.66,1.9-1,2.72h2.94V130a20,20,0,0,0,2.57-6.12l2.14.49a21.05,21.05,0,0,1-.74,2.42ZM648,128.93h-3V132h3Zm0,8.75V134h-3v3.72Zm6.31-1a42.47,42.47,0,0,0-2.64-4.39l1.76-1a44.14,44.14,0,0,1,2.79,4.22Z"/><path d="M672.57,123.91c0,.8-.06,1.82-.14,3,.27,2.57,1.43,9.73,8.06,12.66a6,6,0,0,0-1.65,1.95,14.69,14.69,0,0,1-7.43-9,15.52,15.52,0,0,1-7,9.1,7.36,7.36,0,0,0-1.88-1.85c7.71-4.12,7.35-12.63,7.42-15.84Z"/><path d="M695,136.54a9.1,9.1,0,0,0,.23,1.5c-2.59.71-3.65,1-4.18,1.24.7.06,1.5.08,2.31.08a62.57,62.57,0,0,0,7.68-.5,8.78,8.78,0,0,0-.65,2.32c-1.57.09-4.92.23-7.14.23-2.51,0-4.12-.21-5.49-1-.78-.44-1.46-1.06-1.86-1.06s-1.1,1.29-1.58,2.37l-1.5-2.15a8.08,8.08,0,0,1,2.05-1.84,21.72,21.72,0,0,0,1-3.27h-2.34c.46-1.14,1-2.64,1.43-4.12h-1.75v-2h4.5c-.4,1.35-.89,2.87-1.35,4.18H687l.34-.08.95.34a28.07,28.07,0,0,1-.74,3,18.45,18.45,0,0,0,4.54-1.35h-2.83V131H699v3.49h-.4l1.07.69a18.81,18.81,0,0,1-1.69,1.1c.8.47,1.54.93,2,1.27l-1.1,1.39c-1-.84-3.21-2.19-4.75-3.14l1-1.17,1.36.81a15.85,15.85,0,0,0,1.31-1h-3.09A11.31,11.31,0,0,1,692.5,136v1.2Zm-9.8-8.77c-.21-.86-.73-2.23-1-3.25l2-.61c.37,1,.86,2.3,1.13,3.13Zm5.45,9a16.87,16.87,0,0,1-2,.57,8.23,8.23,0,0,0-1.12-1.48,15.59,15.59,0,0,1-.67,1.82c.33.21.69.48,1.16.76a6.72,6.72,0,0,0,2.45.76,4.17,4.17,0,0,0-.55-1.18,1,1,0,0,0,.69-1.1Zm9.86-6.42H687.75v-1.56h12.73Zm-.88-2.15H688.7V124.4h10.9Zm-7.84-2.56H690.6V127h1.16Zm-.42,7.54h5.43v-1h-5.43Zm3.34-7.54h-1.21V127h1.21Zm2.91,0h-1.22V127h1.22Z"/><path d="M713.64,139.18c.5,0,1,.06,1.52.06,1.07,0,4.72,0,6.06-.06a8.19,8.19,0,0,0-.76,2.17h-5.41c-3.48,0-5.83-.49-7.43-2.7a8.48,8.48,0,0,1-2.66,3,8.63,8.63,0,0,0-1.71-1.57,8.06,8.06,0,0,0,3.54-5.76l2.26.34c-.14.61-.29,1.18-.44,1.73a4.19,4.19,0,0,0,2.74,2.38V134h-7.41v-2h16.75v2h-7.05v1.42h5.86v2h-5.86Zm5.25-8.05H705.68v-6.59h13.21Zm-2.3-5h-8.7v1h8.7Zm0,2.45h-8.7v1h8.7Z"/><path d="M734.34,124.44c-.1.12-.19.25-.29.36a18.27,18.27,0,0,0,7.88,3.42,7.85,7.85,0,0,0-1.42,1.73c-.38-.09-.78-.23-1.18-.34v4.9h-13.2v-4.79a12.09,12.09,0,0,1-1.18.36,12.17,12.17,0,0,0-1.21-1.74c3.49-.82,6.87-2.4,8.6-4.6Zm4.31,4.92a20.68,20.68,0,0,1-2.59-1.16v.5H729.4v-.38a21.77,21.77,0,0,1-2.3,1Zm-11.46,5.78h11.17v6.42h-2.31v-.46h-6.63v.52h-2.23Zm2.15-2a7.11,7.11,0,0,0-.65-2l1.47-.42H728v2.39Zm.08,3.48v.76h6.63v-.76Zm6.63,3v-.76h-6.63v.76Zm-4.32-8.87h-1.48a8.4,8.4,0,0,1,.76,2l-1.21.38h1.93Zm2.74-3.52a17.27,17.27,0,0,1-1.6-1.23,18.91,18.91,0,0,1-1.61,1.23Zm-.91,3.52v2.39h1.76l-1.14-.32a14.11,14.11,0,0,0,.74-2.07Zm3.76,0h-2l1.48.36c-.38.76-.74,1.5-1,2h1.54Z"/><path d="M761.6,126.51v2.17H751.44a21.73,21.73,0,0,1-2.23,3.74v9.2h-2.29V135a13.44,13.44,0,0,1-1.68,1.33,15.48,15.48,0,0,0-1.12-2.18,14.37,14.37,0,0,0,4.73-5.47h-4.12v-2.17h5.13c.32-.89.61-1.76.84-2.64l2.37.57c-.21.7-.46,1.39-.72,2.07ZM757,139.07h4.5v2.09H750.16v-2.09h4.6v-4.33H750.9v-2.09h3.86V129.5H757v3.15h3.76v2.09H757Z"/><path d="M768.88,129.71a3.08,3.08,0,1,1-3.08,3.07A3.07,3.07,0,0,1,768.88,129.71Zm0,4.78a1.71,1.71,0,1,0-1.71-1.71A1.7,1.7,0,0,0,768.88,134.49Z"/><path d="M76.73,169.64a24.58,24.58,0,0,1-5.74,5,17.57,17.57,0,0,0-1.88-1.57,17.42,17.42,0,0,0,5.22-4.41Zm7.71-11.36v9.08H71v-9.08Zm-11.08,6.93H82v-4.77H73.36Zm7.72,3.42a40.76,40.76,0,0,1,5.16,4.62l-2.12,1.33a34.65,34.65,0,0,0-5-4.79Z"/><path d="M100.76,163a48.74,48.74,0,0,1,6.33,5.15l-1.92,1.72a44.5,44.5,0,0,0-5.81-5.14v9.84H96.89v-9.27a22.84,22.84,0,0,1-6,4.67A13.46,13.46,0,0,0,89.29,168a19.93,19.93,0,0,0,8.18-7.47H89.89v-2.32h16.48v2.32h-5.91c-.33.59-.71,1.18-1.1,1.75v2Z"/><path d="M115,165.76a23,23,0,0,1-1.48,4.94c.3.19.66.46,1.16.76,1.31.78,3.09.9,5.32.9a63.38,63.38,0,0,0,7.69-.5,8.44,8.44,0,0,0-.66,2.32c-1.56.09-4.92.23-7.15.23-2.52,0-4.12-.21-5.49-1-.8-.44-1.48-1.06-1.86-1.06s-1.12,1.29-1.59,2.37l-1.51-2.15a8.86,8.86,0,0,1,2-1.82,17.87,17.87,0,0,0,1.1-3.29h-2.39c.43-1.12.93-2.64,1.37-4.12h-1.71v-2h4.44c-.4,1.33-.85,2.85-1.31,4.18h.78l.34-.08Zm-3.19-5c-.21-.86-.72-2.23-1-3.27l2-.61c.36,1,.85,2.3,1.12,3.15Zm5.58,10.75h-2v-8.26h1.4v-5.82h8.19v5.82h1.39v6.34c0,.89-.15,1.37-.74,1.67a5.36,5.36,0,0,1-2.36.31,6,6,0,0,0-.49-1.64H120v.59h-1.62v-4.79h5v4.09h.78c.21,0,.27-.06.27-.25V165h-7Zm1.41-8.26h1.06v-3H123v-1.16h-4.2Zm2.89,3.93H120v1.33h1.71Zm1.31-5.51h-1.5v1.58H123Z"/><path d="M140.85,157.75c-.13.19-.26.36-.4.55a25.47,25.47,0,0,0,7.49,5,10.55,10.55,0,0,0-1.77,2.07A24.91,24.91,0,0,1,142.5,163v1.86h-6.61V163a26.86,26.86,0,0,1-4.14,2.62A9.3,9.3,0,0,0,130,163.5a19.38,19.38,0,0,0,8.59-6.82Zm3.61,8.05,1.79.86c-1.67,2.39-4.11,5.52-6.16,8.07l-2.35-1.1c1.42-1.67,3.07-3.71,4.38-5.4h-9.66v-2.31h11.6Zm-2.34-3.08a30.42,30.42,0,0,1-3-2.75,21.55,21.55,0,0,1-2.9,2.75Z"/><path d="M161,166.18a10.72,10.72,0,0,0,7.47,6.21,8.25,8.25,0,0,0-1.56,2.11,12.19,12.19,0,0,1-7.47-6.46c-1,2.53-3.19,4.92-7.46,6.52a9.1,9.1,0,0,0-1.48-2c4.38-1.56,6.25-4,7-6.42h-6.36v-2.32H158c0-.51.06-1,.06-1.46v-1.92h-6.22v-2.32H166.9v2.32h-6.46v2c0,.45,0,.93,0,1.42h7.24v2.32Z"/><path d="M181.17,172.18c.49,0,1,.06,1.52.06,1.06,0,4.71,0,6.06-.06a7.85,7.85,0,0,0-.76,2.17h-5.41c-3.48,0-5.84-.49-7.43-2.7a8.58,8.58,0,0,1-2.66,3,8.92,8.92,0,0,0-1.71-1.57,8,8,0,0,0,3.53-5.76l2.26.34c-.13.61-.28,1.18-.43,1.73a4.18,4.18,0,0,0,2.73,2.38V167h-7.41v-2h16.76v2h-7.05v1.42H187v2h-5.85Zm5.24-8.05h-13.2v-6.59h13.2Zm-2.3-5h-8.7v1h8.7Zm0,2.45h-8.7v1h8.7Z"/><path d="M197.51,157.63a33.44,33.44,0,0,1-1.88,4.05V174.6h-2.17V165c-.4.52-.79,1-1.17,1.39a14.11,14.11,0,0,0-1.24-2.36,19.53,19.53,0,0,0,4.33-7.1Zm8.23,14.8c1.12,0,1.33-.47,1.46-2.6a6.94,6.94,0,0,0,2,.83c-.28,2.83-.95,3.79-3.28,3.79h-4.32c-2.64,0-3.4-.69-3.4-3.33V165.8l-1.44.57-.85-2,2.29-.9V159h2.13v3.63l1.9-.74V157h2v4.12l2.55-1L207,160l1.69.51-.08.36a69.78,69.78,0,0,1-.76,8.65L206,169c.21-1.6.35-4.11.42-6.43l-2.15.88v6.72h-2v-5.94l-1.9.77v6.16c0,1.12.19,1.31,1.45,1.31Z"/><path d="M217.37,166a16.45,16.45,0,0,1-1.6,4.77l1.06.63c1.31.74,3.12.85,5.28.85a62.81,62.81,0,0,0,7.72-.51,9.26,9.26,0,0,0-.69,2.39c-1.54.12-4.9.23-7.12.23-2.49,0-4.1-.21-5.49-1-.8-.42-1.45-1-1.84-1s-1.14,1.24-1.66,2.26l-1.48-2.18a7.33,7.33,0,0,1,1.81-1.6,11.27,11.27,0,0,0,1.57-3.42h-2.66c.5-1.12,1.07-2.64,1.56-4.12h-1.9v-2h4.77c-.46,1.35-1,2.87-1.5,4.18h.49l.35-.06Zm-3.25-5.19c-.33-.87-1-2.26-1.41-3.28l2-.72c.47,1,1.1,2.31,1.46,3.13Zm15.14-.05H217.17V159h5a14.45,14.45,0,0,0-.82-1.62l2.19-.68a16.39,16.39,0,0,1,1.12,2.05l-.76.25h5.32Zm-10.93,5.66h9.5v4.8h-9.5Zm9.33-3.33h-9.12v-1.59h9.12Zm-9.12.86h9.12v1.6h-9.12Zm1.9,5.66h5.17V168h-5.17Z"/><path d="M237.81,157.58a36.42,36.42,0,0,1-1.48,3.6v13.47h-2.15v-9.72a18.43,18.43,0,0,1-1.27,1.63,15.2,15.2,0,0,0-1.07-2.45,19.94,19.94,0,0,0,3.88-7.18Zm11.61.28v16.59h-2.15v-.94h-7.14v1.11h-2V157.86Zm-2.15,13.7V159.82h-7.14v11.74Zm-2.73-7.77v1.63h1.82v5.09H241.1v-5.09h1.69v-1.63H240.6v-1.64h2.19v-1.93h1.75v1.93h2.29v1.64Zm.13,3.19h-1.94v2h1.94Z"/><path d="M268,171.75c0,1.37-.32,2-1.2,2.39a11.42,11.42,0,0,1-4.19.44,10,10,0,0,0-.95-2.38c1.33.08,2.92.06,3.34.06s.61-.15.61-.55V169h-8.13a10.29,10.29,0,0,1-3.21,5.67,9.33,9.33,0,0,0-1.75-1.63c2.87-2.45,3.13-6.08,3.13-9v-6.25H268Zm-2.39-5v-2.32H258c0,.72-.06,1.52-.13,2.32ZM258,160v2.32h7.62V160Z"/><path d="M281.22,169.28c-2.5,1.12-5.32,2.32-7.46,3.21l-.76-2.41c.72-.25,1.58-.56,2.52-.94l-.38-11.09,2.36-.09.34,10.27c1-.4,1.92-.8,2.87-1.18Zm7.87,5.34a32.82,32.82,0,0,0-3.55-4.58,13.61,13.61,0,0,1-5.78,4.61,13.06,13.06,0,0,0-1.8-2c6-2.28,8-6.88,8.68-14.69l2.49.23a29.45,29.45,0,0,1-2.32,9.65,43.11,43.11,0,0,1,4.22,4.88ZM282,164.87a19.1,19.1,0,0,0-2.83-4.71l2.06-1a19.6,19.6,0,0,1,3,4.56Z"/><path d="M309.27,168.08a27,27,0,0,0-2.45-2.2,8.1,8.1,0,0,1-1.28,1.63,10.56,10.56,0,0,0-1.48-1,16.6,16.6,0,0,0,7.26,5.3,10.75,10.75,0,0,0-1.67,2.07,18.23,18.23,0,0,1-6.16-4.8v5.52h-2.37v-5.41a18.33,18.33,0,0,1-6.1,4.69,13.85,13.85,0,0,0-1.6-1.94,16.83,16.83,0,0,0,7.7-6.11v-4.39H294.2v-2.22h6.92v-2.34h2.37v2.34h7.16v2.22h-7.16v4.25l.29.44a8.48,8.48,0,0,0,2.39-4.58l2.2.4a18,18,0,0,1-.62,2c1.08.83,2.39,1.84,3.09,2.48ZM299.48,162a17,17,0,0,1-.68,2.05c.68.59,1.41,1.22,1.84,1.67l-1.52,1.58a16,16,0,0,0-1.27-1.33,10.21,10.21,0,0,1-2.18,2.6,15.15,15.15,0,0,0-1.75-1.48,9.17,9.17,0,0,0,3.36-5.51Z"/><path d="M331.52,159.76h-3.29a12.45,12.45,0,0,1,1.31,1.2l-1.37,1.19h1.56V167h-6v1.12h7s0,.55-.06.82c-.19,2.52-.41,3.76-.91,4.25a2,2,0,0,1-1.44.67,19.62,19.62,0,0,1-2.42,0,4.5,4.5,0,0,0-.62-2.06,15,15,0,0,0,1.94.08.87.87,0,0,0,.64-.17,3.44,3.44,0,0,0,.46-1.75h-4.54v4.69h-2.23V171a17.09,17.09,0,0,1-5.77,3.63,8.81,8.81,0,0,0-1.42-1.79,16.77,16.77,0,0,0,5.5-2.83h-4.08a42,42,0,0,0,.7-4.86h5.07V164h-5.77v-1.87h3.87a14.28,14.28,0,0,0-1.74-1.74l.72-.63h-1.12a15,15,0,0,1-1.94,2.45,13.63,13.63,0,0,0-1.52-1.52,10.94,10.94,0,0,0,2.76-4l2,.57c-.1.25-.21.51-.34.76h4.18v1.73h-2.72a12.09,12.09,0,0,1,1.29,1.25l-1.21,1.12h8a14.59,14.59,0,0,0-1.84-1.69l.82-.7h-1.56a10.16,10.16,0,0,1-1.48,1.84,11,11,0,0,0-1.69-1.31,8.53,8.53,0,0,0,2.37-3.57l2.05.51c-.09.27-.2.55-.32.82h5.23Zm-10,7.2h-3.09c-.06.38-.1.76-.15,1.12h3.24Zm6-2.94h-3.78v1.08h3.78Z"/><path d="M352,164.36v2.45H334.5v-2.45Z"/><path d="M361,169.49h-6v-2.26h6Zm-.41-7.68h-5.23v-2.18h5.23Zm6.3,3c.8,3.63,2.45,6.46,5.7,7.68a8.24,8.24,0,0,0-1.5,2,9.48,9.48,0,0,1-5-5.4,10.42,10.42,0,0,1-5.55,5.59,9.07,9.07,0,0,0-1.71-1.86c5.09-2.34,5.62-6,5.62-8.49v-1.75h2.43v2.22Zm-3.32-2.72a18.08,18.08,0,0,1-2.07,4,16.08,16.08,0,0,0-2.26-1.31c1.57-1.77,2.7-4.81,3.25-7.87l2.5.42c-.19.87-.39,1.73-.64,2.56h5.72l.43-.13,1.66,1a32.11,32.11,0,0,1-2,5.51,16.6,16.6,0,0,0-1.94-.93,24,24,0,0,0,1.12-3.18Z"/><path d="M381.75,167.05c-.7.19-1.4.4-2.12.59v4.58c0,1.07-.19,1.6-.78,2a5.3,5.3,0,0,1-2.59.42,8,8,0,0,0-.62-2.07,14,14,0,0,0,1.44,0c.23,0,.32-.07.32-.3v-4l-1.8.48-.55-2.17c.68-.13,1.48-.32,2.35-.51v-3.46h-2v-2.09h2v-3.57h2.23v3.57h1.74v2.09h-1.74v2.89l1.84-.48Zm7.77,5c1.07,0,1.26-.49,1.45-2.62a7.14,7.14,0,0,0,2.18.91c-.3,2.85-1,3.9-3.42,3.9h-4.12c-2.62,0-3.46-.71-3.46-3.54V157.78h10.09v10.6h-2.37v-1.19h-5.36v3.53c0,1.16.17,1.33,1.35,1.33Zm-5-12v5h1.61v-5Zm5.36,0h-1.64v5h1.64Z"/><path d="M398.32,161.2a15,15,0,0,1-1.86,1.49,13.55,13.55,0,0,0-.91-2.15,10.9,10.9,0,0,0,3.87-3.82l1.87.68c-.12.21-.25.42-.38.63a28,28,0,0,1,3,1.79l-1,1.65c-.3-.23-.7-.53-1.17-.84V162h-3.35Zm14.53,1.31a21.52,21.52,0,0,1-2.29,7.74,9.1,9.1,0,0,0,3,2.58,8.54,8.54,0,0,0-1.45,1.79,10.6,10.6,0,0,1-2.83-2.51,11.34,11.34,0,0,1-3,2.62,9.73,9.73,0,0,0-1-1.41,6.46,6.46,0,0,1-.63,1.35,9.34,9.34,0,0,0-1.71-1.08l-1.16.49c-.09-.38-.23-.85-.4-1.35-3.64,1.32-4.27,1.62-4.69,1.92a6.65,6.65,0,0,0-.7-1.84,1.15,1.15,0,0,0,.78-1.16v-9H403v6.8h-4.32v2.34l2.09-.69c-.13-.36-.26-.68-.38-1l1.62-.57c.42,1,.93,2.3,1.27,3.25,1.06-2.47,1.16-5.75,1.16-8.21V160h0v-2h8.13v2H406.4v2.22h4.76l.36-.06Zm-14.19,1.77v.91h2.51v-.91Zm2.51,3.55v-1.08h-2.51v1.08Zm.42-7.25c-.55-.36-1.16-.74-1.71-1.07-.29.36-.61.72-.93,1.07Zm6.48,9.67a20.67,20.67,0,0,1-1.69-4.32,26,26,0,0,1-1,6.86A9,9,0,0,0,408.07,170.25Zm-.23-6.08a20,20,0,0,0,1.44,4,20.07,20.07,0,0,0,1.28-4Z"/><path d="M430.87,172.13c.72,0,1-.31,1.06-2.66a7.3,7.3,0,0,0,2,.74c-.24,3.44-1.12,4.12-3.23,4.12h-4c-2.53,0-3.67-1-3.67-2.54,0-1,.25-2.15,4.88-6.1h-3.61v-2c-.17.23-.36.46-.55.67a17.48,17.48,0,0,0-1.46-1.24v6.78h-3.53v1.53h-2.08V158.54h5.61v3.94a14.58,14.58,0,0,0,3-5.61l2.24.55a21.23,21.23,0,0,1-.82,2.13h6.69v2.11h-7.75a14.93,14.93,0,0,1-1.31,1.94h6.46l.51-.06,1.52.85a2.51,2.51,0,0,1-.32.39c-6.67,5.14-7.16,6.07-7.16,6.68s.47.67,1.25.67Zm-10.6-11.42h-1.5v7h1.5Z"/><path d="M451.33,172.3c.61,0,.7-.33.8-2.28a6.64,6.64,0,0,0,2,.85c-.25,2.76-.83,3.5-2.62,3.5h-2.37c-2.21,0-2.74-.68-2.74-2.74V168h-2.55c-.24,3.62-1.14,5.66-6.15,6.64a5.85,5.85,0,0,0-1.2-1.91c4.3-.71,4.86-2,5-4.73h-4.7v-2.13H453.8V168h-5.07v3.62c0,.61.11.69.78.69Zm-11.85-8.74h-2.25v-4.71h6.94a13.45,13.45,0,0,0-.65-1.48l2.32-.69a14.31,14.31,0,0,1,1,2.17h6.55v4.71H451V161H439.48Zm.87.91v-2.09h9.82v2.09Z"/><path d="M458.82,168.4c1.48-.47,2.33-1.29,2.45-2.29h-.21a1.69,1.69,0,0,1-1.81-1.69,1.74,1.74,0,0,1,1.87-1.71c1.34,0,2.05,1,2.05,2.61a4.77,4.77,0,0,1-3.74,4.59Z"/><path d="M74.39,199a16.16,16.16,0,0,1-1.6,4.77l1.07.63c1.31.74,3.11.85,5.28.85a62.52,62.52,0,0,0,7.71-.51,9.64,9.64,0,0,0-.68,2.39c-1.54.12-4.9.23-7.13.23-2.48,0-4.1-.21-5.49-1-.79-.42-1.44-1-1.84-1s-1.14,1.24-1.65,2.26l-1.48-2.18a7.3,7.3,0,0,1,1.8-1.6A11.05,11.05,0,0,0,72,200.45H69.3c.49-1.12,1.06-2.64,1.56-4.12H69v-2h4.77c-.46,1.35-1,2.87-1.51,4.18h.5l.34-.06Zm-3.25-5.19c-.32-.87-1-2.26-1.4-3.28l2-.72c.48,1,1.1,2.31,1.47,3.13Zm15.14-.05H74.2V192h5a14.4,14.4,0,0,0-.81-1.62l2.18-.68a15.19,15.19,0,0,1,1.12,2.05L81,192h5.32Zm-10.92,5.66h9.5v4.8h-9.5Zm9.33-3.33H75.57v-1.59h9.12Zm-9.12.86h9.12v1.6H75.57Zm1.9,5.66h5.16V201H77.47Z"/><path d="M106.88,197.36v2.45H89.4v-2.45Z"/><path d="M127.25,203.59h-6.5v4.06h-2.34v-4.06h-8.55v-2.17h3v-5h5.54v-2.28h-4.06a17,17,0,0,1-2.59,3.45,16.51,16.51,0,0,0-2-1.46,14.61,14.61,0,0,0,4-6.33l2.29.59a12.35,12.35,0,0,1-.62,1.56H126.2v2.19h-5.45v2.28h5v2.09h-5v2.88h6.5Zm-8.84-2.17v-2.88h-3.28v2.88Z"/><path d="M138.25,202.28c-2.51,1.12-5.32,2.32-7.47,3.21l-.76-2.41c.73-.25,1.58-.56,2.53-.94l-.38-11.09,2.36-.09.34,10.27c.95-.4,1.92-.8,2.87-1.18Zm7.86,5.34a32.07,32.07,0,0,0-3.55-4.58,13.64,13.64,0,0,1-5.77,4.61,13.7,13.7,0,0,0-1.81-2c6-2.28,8-6.88,8.68-14.69l2.49.23a29.2,29.2,0,0,1-2.32,9.65,42.11,42.11,0,0,1,4.22,4.88ZM139,197.87a19.1,19.1,0,0,0-2.83-4.71l2.05-1a19.28,19.28,0,0,1,3,4.56Z"/><path d="M166.29,201.08a25.72,25.72,0,0,0-2.45-2.2,8.43,8.43,0,0,1-1.27,1.63,10.56,10.56,0,0,0-1.48-1,16.56,16.56,0,0,0,7.25,5.3,10.75,10.75,0,0,0-1.67,2.07,18.2,18.2,0,0,1-6.15-4.8v5.52h-2.38v-5.41a18.33,18.33,0,0,1-6.1,4.69,14.5,14.5,0,0,0-1.59-1.94,16.75,16.75,0,0,0,7.69-6.11v-4.39h-6.91v-2.22h6.91v-2.34h2.38v2.34h7.16v2.22h-7.16v4.25c.09.16.19.29.28.44a8.42,8.42,0,0,0,2.4-4.58l2.2.4a16.16,16.16,0,0,1-.63,2c1.09.83,2.4,1.84,3.1,2.48ZM156.51,195a17,17,0,0,1-.69,2.05c.69.59,1.41,1.22,1.85,1.67l-1.52,1.58a17.88,17.88,0,0,0-1.27-1.33,10,10,0,0,1-2.19,2.6,13.63,13.63,0,0,0-1.75-1.48,9.17,9.17,0,0,0,3.36-5.51Z"/><path d="M188.54,192.76h-3.29a11.52,11.52,0,0,1,1.31,1.2l-1.36,1.19h1.55V200h-6v1.12h7s0,.55-.06.82c-.19,2.52-.42,3.76-.91,4.25a2,2,0,0,1-1.45.67,19.45,19.45,0,0,1-2.41,0,4.64,4.64,0,0,0-.63-2.06,15,15,0,0,0,1.94.08.88.88,0,0,0,.65-.17,3.38,3.38,0,0,0,.45-1.75h-4.54v4.69h-2.22V204a17.18,17.18,0,0,1-5.77,3.63,8.86,8.86,0,0,0-1.43-1.79,16.73,16.73,0,0,0,5.51-2.83h-4.08a44.27,44.27,0,0,0,.7-4.86h5.07V197h-5.77v-1.87h3.87a15.15,15.15,0,0,0-1.75-1.74l.72-.63h-1.12a14.94,14.94,0,0,1-1.93,2.45,15.57,15.57,0,0,0-1.52-1.52,10.92,10.92,0,0,0,2.75-4l2,.57a6.43,6.43,0,0,1-.35.76h4.18v1.73h-2.71a13.13,13.13,0,0,1,1.29,1.25L177,195.15h8a16.11,16.11,0,0,0-1.84-1.69l.81-.7h-1.55a9.78,9.78,0,0,1-1.49,1.84,10.56,10.56,0,0,0-1.69-1.31,8.55,8.55,0,0,0,2.38-3.57l2,.51c-.1.27-.21.55-.32.82h5.22Zm-10,7.2h-3.1c0,.38-.09.76-.15,1.12h3.25Zm6-2.94h-3.78v1.08h3.78Z"/><path d="M209,197.36v2.45H191.53v-2.45Z"/><path d="M218.05,202.49h-6v-2.26h6Zm-.42-7.68h-5.22v-2.18h5.22Zm6.31,3c.8,3.63,2.45,6.46,5.7,7.68a7.76,7.76,0,0,0-1.5,2,9.53,9.53,0,0,1-5-5.4,10.38,10.38,0,0,1-5.55,5.59,9.07,9.07,0,0,0-1.71-1.86c5.09-2.34,5.63-6,5.63-8.49v-1.75h2.43v2.22Zm-3.33-2.72a18.08,18.08,0,0,1-2.07,4,15.53,15.53,0,0,0-2.26-1.31c1.58-1.77,2.7-4.81,3.25-7.87l2.51.42c-.19.87-.4,1.73-.65,2.56h5.72l.44-.13,1.65,1a30.5,30.5,0,0,1-2,5.51,15.71,15.71,0,0,0-1.93-.93,25.51,25.51,0,0,0,1.12-3.18Z"/><path d="M247.27,205.7c.61,0,.74-.19.82-1.49a6.07,6.07,0,0,0,1.86.69c-.23,2-.8,2.49-2.45,2.49h-2.79c-2.26,0-2.83-.5-2.83-2.19v-.85h-2.09c-.57,1.9-2.06,2.83-6.62,3.28a5.68,5.68,0,0,0-.95-1.71c3.63-.2,4.81-.62,5.3-1.57h-2V198h11v6.4h-2.45v.83c0,.48.15.52.91.52Zm-12.46-6.92h-2V196h2.09l-.3-4.5,0,0a23.65,23.65,0,0,0,3.44-1.54l1.19,1a20.91,20.91,0,0,1-2.6,1.1l0,.46h2v1.18h-1.88l.05.59h1.89v1.17h-1.81l0,.61h2.64c-.23-.23-.53-.51-.74-.68a11.18,11.18,0,0,0,1.48-.82c-.32-.21-.65-.42-.95-.59l.85-.76a10.27,10.27,0,0,1,1,.61,5.29,5.29,0,0,0,.72-.82l.08,0a8,8,0,0,0-.82-.68,7.91,7.91,0,0,1-1.44.89,8.79,8.79,0,0,0-.93-.87,11.55,11.55,0,0,0,1.35-.72,9.31,9.31,0,0,0-.84-.48l.85-.76c.31.15.61.34.94.53a4.36,4.36,0,0,0,.72-.78l1.19.34a5.43,5.43,0,0,1-.91,1.07,8.35,8.35,0,0,1,.78.65l-.83.83,1.1.29a9.19,9.19,0,0,1-.95,1.17,10.26,10.26,0,0,1,.93.78l-.82.78h3.12l0-.61h-1.9v-1.17h2l0-.59h-2V192.4h2l0-.59h-2.3V190.5h4.36c-.06,1.77-.16,3.91-.31,5.45h2v2.83h-2.09v-1.42h-12.5Zm2.89.95h6.59v-.62H237.7Zm0,1.71h6.59v-.63H237.7Zm0,1.77h6.59v-.67H237.7Zm4.5-7.26a9.32,9.32,0,0,0-.89-.78q-.59.44-1.14.78Z"/><path d="M258.92,194.91a21.37,21.37,0,0,1-1.65,2.39v10.32h-2.19v-7.89a18.28,18.28,0,0,1-1.71,1.54,17.14,17.14,0,0,0-1.08-2.34,16.94,16.94,0,0,0,4.65-4.88Zm-.32-4.13a20.32,20.32,0,0,1-5,4.77,15,15,0,0,0-1.12-1.92,13.6,13.6,0,0,0,3.95-3.72Zm11.55,11.92h-2.61v2.69c0,1.05-.19,1.58-.93,1.9a7.34,7.34,0,0,1-2.94.33,8,8,0,0,0-.71-2c.8,0,1.7,0,1.94,0s.34-.1.34-.3V202.7h-4a19.82,19.82,0,0,1,2.17,2.37l-1.69,1.2a15.42,15.42,0,0,0-2.19-2.64l1.41-.93h-2.66v-1.92h6.95v-1.09h-6.49v-1.84h11v1.84h-2.21v1.09h2.59Zm-1-5.68h-9.4v-6.58h9.4Zm-2.28-5H261.9V193h4.94Zm0,2.43H261.9v1h4.94Z"/><path d="M276.7,199.05c-.78-.55-2.41-1.45-3.53-2.05l1.21-1.68c1.05.52,2.74,1.33,3.58,1.85Zm-3.26,6.84a57.46,57.46,0,0,0,3.6-6l1.66,1.52c-1,2-2.21,4.16-3.37,6Zm4.08-12a40.28,40.28,0,0,0-3.46-2.09l1.27-1.63c1.07.53,2.72,1.37,3.54,1.9Zm8.42,3.71V200h3.87v7.58h-2.15v-.68H282v.77h-2V200h3.88v-2.39h-5.05V195.4h5.05v-2.22c-1.25.19-2.51.32-3.71.44a7.84,7.84,0,0,0-.62-1.94,37.49,37.49,0,0,0,8.87-1.79l1.75,1.79a25.39,25.39,0,0,1-4.14,1.12v2.6h4.82v2.17Zm1.72,4.44H282v2.79h5.71Z"/><path d="M304.46,199.41c-.72.36-1.46.68-2.22,1h7.05v7.2H307v-.5h-7.26v.5h-2.2v-5.57c-1,.3-2.09.57-3.14.82a13.07,13.07,0,0,0-1-1.79,45.87,45.87,0,0,0,6.37-1.67h-5.81v-1.94h6.11v-1.08h-4.56v-1.85h4.56v-1h2.24v1h4.18v1.58a13.9,13.9,0,0,0,2.49-2.07l1.67,1.07a20.07,20.07,0,0,1-2.83,2.35h3.1v1.94Zm-7.1-6.55h-3.44v-1.94h3.44v-1h2.24v1H302v1.94H299.6V194h-2.24Zm9.61,9.26h-7.26v.94H307Zm0,3.29v-.95h-7.26v.95Zm-4.68-7.94h2c.63-.34,1.25-.7,1.84-1.08h-3.82Zm3-4.61h-2.57v-1.94h2.57v-1h2.24v1h3.29v1.94h-3.29V194h-2.24Z"/><path d="M321.14,195.71a17.48,17.48,0,0,1-1.31,6.57,27.52,27.52,0,0,1,2.3,2.3l-1.48,1.88a25.61,25.61,0,0,0-1.94-2.13,12.84,12.84,0,0,1-3.23,3.34,8.45,8.45,0,0,0-1.59-1.57,11.56,11.56,0,0,0,3.21-3.33c-1-.89-2-1.8-2.83-2.56.3-1.14.62-2.59.89-4.14l-1.07.07-.2-2.15,1.61-.05c.19-1.37.34-2.74.42-4l2.24.09c-.11,1.2-.27,2.49-.47,3.8l1.36-.07v-1.2h2.11v1.08l1-.05v2Zm-3.8.24c-.22,1.26-.45,2.49-.7,3.57l1.46,1.24a15.35,15.35,0,0,0,.93-4.92Zm14.33,3.9h-3.8v5.33c0,1.16-.25,1.73-1.05,2.09a8.62,8.62,0,0,1-3.32.36,8.7,8.7,0,0,0-.76-2.14c.95,0,2.05,0,2.35,0s.42-.08.42-.36v-5.3h-4V197.7h4v-1.82a15.15,15.15,0,0,0,2.32-2.78h-5.57v-2h7.05l.53-.11,1.52,1.1a23,23,0,0,1-3.49,4.23v1.43h3.8Z"/><path d="M351.37,199.85c-.59.32-1.21.66-1.82,1a7.54,7.54,0,0,0,2.77,4.09,7.53,7.53,0,0,0-1.4,1.67,9.65,9.65,0,0,1-3-5l-.49.21c.62,2.07.32,4.16-.5,5a2.29,2.29,0,0,1-1.92.84c-.36,0-.77,0-1.19,0a4.71,4.71,0,0,0-.53-1.92,10.87,10.87,0,0,0,1.27.08.81.81,0,0,0,.83-.42,2.75,2.75,0,0,0,.37-1.75,19.12,19.12,0,0,1-5.49,3.14,10.17,10.17,0,0,0-1.28-1.58,16.39,16.39,0,0,0,6.4-3.38c-.07-.21-.15-.4-.24-.61a18.92,18.92,0,0,1-4.85,2.7,8,8,0,0,0-1.17-1.41,16.11,16.11,0,0,0,5.24-2.49c-.17-.19-.34-.36-.51-.53a16.68,16.68,0,0,1-3.65,1.88,6.65,6.65,0,0,0-1.18-1.38,18.71,18.71,0,0,0,3.72-1.56h-2.31v-2.7c-.19.17-.4.34-.59.49a6.85,6.85,0,0,0-1.31-1.48l0,0V207.6h-2.17v-9.5a16.78,16.78,0,0,1-1.08,1.31,15.42,15.42,0,0,0-1.22-2.34,20.27,20.27,0,0,0,4.11-7.1l2.12.66a27.94,27.94,0,0,1-1.71,3.91,13,13,0,0,0,4-4.63l2.09.4c-.17.3-.34.63-.53.93h2.93l.4-.11,1.25,1a21.57,21.57,0,0,1-1.33,1.82h3.5v4.41h-5.63l-.05,0a7.24,7.24,0,0,1,1.57,1.91,22.51,22.51,0,0,0,3-1.84Zm-8.3-7c-.27.34-.55.69-.84,1h2.83a7.13,7.13,0,0,0,.78-1Zm-.61,3.8h2.09v-1.18h-2.09Zm6.37-1.18h-2.27v1.18h2.27Z"/><path d="M368,205.34c1.71,0,2-.52,2.26-3a7.63,7.63,0,0,0,2.11.84c-.38,3.15-1.14,4.18-4.22,4.18h-5.93c-3.34,0-4.33-.76-4.33-3.69v-5.09l-2.66.84-.59-2.05,3.25-1v-5.15h2.22v4.45l2.91-.92v-4.84h2.26V194l3.51-1.08.61-.42,1.69.53-.07.35a69,69,0,0,1-.84,8.49l-1.86-.53c.23-1.54.38-4,.46-6.24l-3.5,1.13v7.1H363V197l-2.91.93v5.81c0,1.41.27,1.64,2.13,1.64Z"/><path d="M386.71,196a48.74,48.74,0,0,1,6.33,5.15l-1.92,1.72a44.5,44.5,0,0,0-5.81-5.14v9.84h-2.47v-9.27a22.84,22.84,0,0,1-6,4.67,13.46,13.46,0,0,0-1.55-2.05,19.93,19.93,0,0,0,8.18-7.47h-7.58v-2.32h16.48v2.32h-5.91a20.38,20.38,0,0,1-1.1,1.75v2Z"/><path d="M400.94,200.61c.86.51,2.76,1.9,3.21,2.26l-1.21,1.92c-.44-.56-1.26-1.41-2-2.15v5h-2v-4.77a15.16,15.16,0,0,1-2.57,3.61,13.9,13.9,0,0,0-1-2.07,15.63,15.63,0,0,0,3-4.07h-2.26V195H399v-1.27h-3.08v-2H399V190h2v1.75h3.21v2h-3.21V195h2.93v5.3h-2.93Zm-3-2.09h1.18v-1.75h-1.18Zm4.12-1.75h-1.23v1.75H402Zm8.88,7.48a19.92,19.92,0,0,1,2.68,2.15l-1.68,1.22a20.63,20.63,0,0,0-2.83-2.45l1.33-.92h-3.59l1.41.88a12,12,0,0,1-3.71,2.5,14.81,14.81,0,0,0-1.44-1.4,10.83,10.83,0,0,0,3.1-2h-1.35v-7.62h.36a8.94,8.94,0,0,0-1.31-1.42,4.09,4.09,0,0,0,2.68-2.6h-1.88v-1.92H413s0,.49,0,.74c-.15,2.49-.36,3.67-.78,4.12a1.82,1.82,0,0,1-1.2.59,13,13,0,0,1-1.86,0,4.78,4.78,0,0,0-.53-1.84,11.35,11.35,0,0,0,1.37.07.58.58,0,0,0,.51-.17c.17-.17.28-.62.38-1.63h-2.13a6,6,0,0,1-3.17,4h7v7.62Zm-4.07-5.49h3.63V198h-3.63Zm0,2.07h3.63V200h-3.63Zm0,2.07h3.63v-.79h-3.63Z"/><path d="M420.23,195.71a3.08,3.08,0,1,1-3.08,3.07A3.06,3.06,0,0,1,420.23,195.71Zm0,4.78a1.71,1.71,0,1,0-1.71-1.71A1.7,1.7,0,0,0,420.23,200.49Z"/><path d="M79.94,269.46c2.14.77,5,1.8,6.48,2.5l-1.07,1.79c-1.63-.84-5-2.19-7.33-3.08l.8-1.21H78c-.88,2.24-2.91,3.55-8.25,4.16a5.52,5.52,0,0,0-1-1.9c4-.36,5.81-1.07,6.65-2.26H69.11v-1.87h7c.06-.28.09-.59.13-.91h2.38c0,.32-.08.63-.12.91H86.3v1.87ZM72.76,267H70.65v-9.73h5.66c.17-.47.32-1,.42-1.33l2.47.23c-.17.38-.35.76-.52,1.1H84.9v8.06c0,.81-.14,1.25-.63,1.53a3.46,3.46,0,0,1-1.81.33,8.06,8.06,0,0,0-.6-1.48l-.61.79c-.63-.43-1.69-1.08-2.72-1.65v1.37H76.84v-1.5a10.47,10.47,0,0,1-2.77,1.92A7.64,7.64,0,0,0,73,265.33a9.8,9.8,0,0,0,3.08-1.82H73.4v-1.33h1.31a4.07,4.07,0,0,0-.38-.91l1.24-.36a5.36,5.36,0,0,1,.55,1.21l-.17.06h.89v-1.35c-1,0-2,.06-3,0a4.43,4.43,0,0,0-.36-1.14,59.54,59.54,0,0,0,7.48-.51l.91,1.16c-1,.15-2.14.28-3.38.36v1.44h.82l-.12,0a10.88,10.88,0,0,0,.59-1.37l1.37.38c-.25.38-.45.73-.63,1h1.51v1.33h-3a28.81,28.81,0,0,1,3.08,1.71l-.17.26h.51c.15,0,.19-.05.19-.2V259H72.76Z"/><path d="M95.18,260.79c-.42.86-.92,1.75-1.47,2.64h0v10.2H91.62V266.4A17.08,17.08,0,0,1,90.26,268,18.67,18.67,0,0,0,89,265.85a20.43,20.43,0,0,0,4.14-5.78Zm-.33-4.06A31.16,31.16,0,0,1,90.2,262a13.64,13.64,0,0,0-1-1.86,19.53,19.53,0,0,0,3.69-4.26Zm-1,15.23a10.3,10.3,0,0,0,1.48-3.51l1.71.66a13.53,13.53,0,0,1-1.5,3.82ZM107,267.69h-5.75c.39.66.83,1.48,1.08,2l-1.75.63A25.69,25.69,0,0,0,99.43,268l1-.32H94.74v-1.81H107ZM99.51,260c0-.3.07-.62.11-1H95v-1.79h4.78c0-.51.06-1,.08-1.41l2.39.08-.19,1.33h4.87V259h-5.11c-.06.34-.12.66-.16,1h4.7v5H95.67v-5Zm2.39,11.71c.53,0,.65-.21.7-1.58a6.17,6.17,0,0,0,1.73.67c-.21,2.07-.74,2.58-2.2,2.58H99.77c-2,0-2.43-.53-2.43-2.19v-2.31h2v2.3c0,.47.11.53.74.53Zm-3.17-10.11H97.44v1.84h1.29Zm2.87,0h-1.33v1.84h1.33Zm1.52,1.84h1.38v-1.84h-1.38Zm2,4.9a13.85,13.85,0,0,1,2,3.59l-1.76.8a12.4,12.4,0,0,0-1.9-3.64Z"/><path d="M113.17,264.82a15.64,15.64,0,0,0-3.52-2.07l1.18-1.69a14.77,14.77,0,0,1,3.59,1.9Zm2.24,2.58c-1,2-2.09,4.16-3.19,6l-1.94-1.48a60.13,60.13,0,0,0,3.44-6Zm-1.18-7.63a13.73,13.73,0,0,0-3.47-2.13L112,256a14,14,0,0,1,3.57,2Zm12.24,5.45a11.25,11.25,0,0,1-3.1,4.94,16.15,16.15,0,0,0,4.26,1.4,8.84,8.84,0,0,0-1.49,2,15.16,15.16,0,0,1-4.74-2,18.47,18.47,0,0,1-5.55,2,8,8,0,0,0-1.12-2,16.32,16.32,0,0,0,4.78-1.46,12.82,12.82,0,0,1-2.28-2.92l1.47-.5h-2.57v-2h8.44l.4-.08Zm-6.77-5.64a11.24,11.24,0,0,1-2.92,5,12.8,12.8,0,0,0-2-1.42c1.94-1.52,2.93-4.14,3.31-7.28l2.33.27q-.1.7-.24,1.38h6.19s0,.54-.06.84c-.19,3.06-.43,4.43-.95,5a2.18,2.18,0,0,1-1.52.68,22.83,22.83,0,0,1-2.47,0,4.62,4.62,0,0,0-.66-2.09c.85.09,1.71.11,2.09.11a.93.93,0,0,0,.66-.19c.23-.22.4-.91.52-2.35Zm-.34,7.12a9.26,9.26,0,0,0,2,2.22,8,8,0,0,0,1.95-2.22Z"/><path d="M133.56,263.55a10.91,10.91,0,0,1-2.15,2.75,8.53,8.53,0,0,0-1.44-1.56,11.35,11.35,0,0,0,3.23-4.23h-2.76v-1.92h3.12v-2.68h2.14v2.68h2.68v1.92H135.7v.7c.76.44,2.57,1.73,3,2.09l-1.18,1.81c-.44-.48-1.14-1.16-1.83-1.79v4h-2.14Zm-3.46,8a12.91,12.91,0,0,0,1.65-3.91l2,.8a18.75,18.75,0,0,1-1.6,4.14Zm10.85-.3c.89,0,1-.27,1.14-2.18a5.36,5.36,0,0,0,2,.79c-.29,2.72-.91,3.38-3,3.38H137.7c-2.58,0-3.23-.62-3.23-2.6v-2.6h2.22v2.56c0,.57.19.65,1.22.65Zm-2.21-4.71.38.34V256.84h7.72v10.22h-7.53c.74.69,1.56,1.48,2,2l-1.64,1.36a29.32,29.32,0,0,0-2.5-2.64Zm2.43-6.82h3.5v-1.1h-3.5Zm0,2.77h3.5v-1.1h-3.5Zm0,2.79h3.5v-1.13h-3.5Zm4.39,2.11c.76,1.18,1.86,2.8,2.38,3.78l-2.11,1.09c-.46-1-1.5-2.68-2.24-3.95Z"/><path d="M155.88,264.76a23,23,0,0,1-1.48,4.94c.3.19.66.46,1.16.76,1.31.78,3.1.9,5.32.9a63.38,63.38,0,0,0,7.69-.5,8.44,8.44,0,0,0-.66,2.32c-1.56.09-4.92.23-7.15.23-2.52,0-4.12-.21-5.49-1-.79-.44-1.48-1.06-1.86-1.06s-1.12,1.29-1.59,2.37l-1.5-2.15a8.63,8.63,0,0,1,2-1.82,17.87,17.87,0,0,0,1.1-3.29H151c.44-1.12.93-2.64,1.37-4.12h-1.71v-2h4.44c-.4,1.33-.85,2.85-1.31,4.18h.78l.34-.08Zm-3.19-5c-.21-.86-.72-2.23-1-3.27l2-.61c.36,1,.86,2.3,1.12,3.15Zm5.59,10.75h-2v-8.26h1.4v-5.82h8.19v5.82h1.39v6.34c0,.89-.15,1.37-.74,1.67a5.36,5.36,0,0,1-2.36.31,5.69,5.69,0,0,0-.49-1.64h-2.85v.59h-1.62v-4.79h5v4.09H165c.21,0,.27-.06.27-.25V264h-7Zm1.4-8.26h1.07v-3h3.13v-1.16h-4.2Zm2.89,3.93h-1.71v1.33h1.71Zm1.31-5.51h-1.5v1.58h1.5Z"/><path d="M181.7,256.75c-.13.19-.26.36-.4.55a25.47,25.47,0,0,0,7.49,5,10.55,10.55,0,0,0-1.77,2.07,24.91,24.91,0,0,1-3.67-2.37v1.86h-6.61V262a26.86,26.86,0,0,1-4.14,2.62,9.3,9.3,0,0,0-1.75-2.09,19.38,19.38,0,0,0,8.59-6.82Zm3.61,8.05,1.79.86c-1.68,2.39-4.11,5.52-6.16,8.07l-2.35-1.1c1.42-1.67,3.07-3.71,4.38-5.4H173.3v-2.31h11.61ZM183,261.72a30.42,30.42,0,0,1-3-2.75,21.55,21.55,0,0,1-2.9,2.75Z"/><path d="M201.86,265.18a10.72,10.72,0,0,0,7.47,6.21,8.25,8.25,0,0,0-1.56,2.11A12.19,12.19,0,0,1,200.3,267c-1,2.53-3.19,4.92-7.46,6.52a9.1,9.1,0,0,0-1.48-2c4.38-1.56,6.25-4,7-6.42H192v-2.32h6.84c0-.51.06-1,.06-1.46v-1.92H192.7v-2.32h15.05v2.32h-6.46v2c0,.45,0,.93,0,1.42h7.24v2.32Z"/><path d="M222.29,256.44c-.1.12-.19.25-.29.36a18.27,18.27,0,0,0,7.88,3.42,7.85,7.85,0,0,0-1.42,1.73c-.38-.09-.78-.23-1.18-.34v4.9h-13.2v-4.79a12.09,12.09,0,0,1-1.18.36,12.27,12.27,0,0,0-1.22-1.74c3.5-.82,6.88-2.4,8.61-4.6Zm4.31,4.92A20.68,20.68,0,0,1,224,260.2v.5h-6.66v-.38a22.73,22.73,0,0,1-2.3,1Zm-11.46,5.78h11.17v6.42H224v-.46h-6.63v.52h-2.23Zm2.15-2a7.46,7.46,0,0,0-.65-2l1.47-.42H216v2.39Zm.08,3.48v.76H224v-.76Zm6.63,3v-.76h-6.63v.76Zm-4.32-8.87H218.2a8.4,8.4,0,0,1,.76,2l-1.21.38h1.93Zm2.74-3.52a17.27,17.27,0,0,1-1.6-1.23,18.91,18.91,0,0,1-1.61,1.23Zm-.91,3.52v2.39h1.76l-1.14-.32a14.11,14.11,0,0,0,.74-2.07Zm3.76,0h-2l1.48.36c-.38.76-.74,1.5-1,2h1.54Z"/><path d="M242.45,271.18c.49,0,1,.06,1.51.06,1.07,0,4.72,0,6.07-.06a7.86,7.86,0,0,0-.77,2.17h-5.41c-3.48,0-5.83-.49-7.43-2.7a8.39,8.39,0,0,1-2.66,3,8.63,8.63,0,0,0-1.71-1.57,8.06,8.06,0,0,0,3.54-5.76l2.26.34c-.14.61-.29,1.18-.44,1.73a4.19,4.19,0,0,0,2.74,2.38V266h-7.41v-2h16.75v2h-7v1.42h5.85v2h-5.85Zm5.24-8.05h-13.2v-6.59h13.2Zm-2.3-5h-8.7v1h8.7Zm0,2.45h-8.7v1h8.7Z"/><path d="M258.22,265a16.45,16.45,0,0,1-1.6,4.77l1.06.63c1.31.74,3.12.85,5.28.85a62.81,62.81,0,0,0,7.72-.51,9.26,9.26,0,0,0-.69,2.39c-1.53.12-4.9.23-7.12.23-2.49,0-4.1-.21-5.49-1-.8-.42-1.44-1-1.84-1s-1.14,1.24-1.66,2.26l-1.48-2.18a7.33,7.33,0,0,1,1.81-1.6,11.27,11.27,0,0,0,1.57-3.42h-2.66c.5-1.12,1.07-2.64,1.56-4.12h-1.9v-2h4.77c-.46,1.35-1,2.87-1.5,4.18h.49l.35-.06ZM255,259.8c-.33-.87-1-2.26-1.41-3.28l2-.72c.47,1,1.1,2.31,1.46,3.13Zm15.14-.05H258V258h5a14.45,14.45,0,0,0-.82-1.62l2.19-.68a16.39,16.39,0,0,1,1.12,2.05l-.76.25h5.32Zm-10.93,5.66h9.5v4.8h-9.5Zm9.33-3.33h-9.12v-1.59h9.12Zm-9.12.86h9.12v1.6h-9.12Zm1.9,5.66h5.17V267h-5.17Z"/><path d="M278.66,256.58a36.42,36.42,0,0,1-1.48,3.6v13.47H275v-9.72a18.43,18.43,0,0,1-1.27,1.63,15.2,15.2,0,0,0-1.07-2.45,20.1,20.1,0,0,0,3.88-7.18Zm11.61.28v16.59h-2.15v-.94H281v1.11h-2.05V256.86Zm-2.15,13.7V258.82H281v11.74Zm-2.74-7.77v1.63h1.83v5.09H282v-5.09h1.69v-1.63h-2.19v-1.64h2.19v-1.93h1.74v1.93h2.3v1.64Zm.14,3.19h-1.94v2h1.94Z"/><path d="M299.18,267.65c-.23-.55-.63-1.41-1.05-2.22v8.19h-2.05v-7.11a15.74,15.74,0,0,1-1.73,3.74,11.16,11.16,0,0,0-1-2,18.92,18.92,0,0,0,2.54-6.37H293.8V259.8h2.28v-3.91h2.05v3.91H300v2.09h-1.9v.84c.52.7,1.88,2.79,2.21,3.31Zm5.17.78a7.83,7.83,0,0,1-3.94,4.9,8.23,8.23,0,0,0-1.16-1.44,6.13,6.13,0,0,0,2.65-2.38h-2.07V268h3l.32-.05Zm6.78-.91c-.93.68-1.94,1.38-2.79,1.92a8.55,8.55,0,0,0,3.15,2.05,8.44,8.44,0,0,0-1.33,1.65,9.34,9.34,0,0,1-3.5-3v1.48c0,.95-.17,1.45-.81,1.75a6.39,6.39,0,0,1-2.62.32,6.36,6.36,0,0,0-.57-1.84c.66,0,1.38,0,1.59,0s.31-.06.31-.27v-4.19h-3.12v-1.54H306c-.88-.36-1.84-.72-2.68-1l.55-.61H300v-1.65h4.52v-.74h-3.31V260.3h3.31v-.7h-4V258h2a13.1,13.1,0,0,0-.85-1.5l1.65-.61a11.16,11.16,0,0,1,1.16,1.9l-.5.21h3.06l-.38-.13a16.61,16.61,0,0,0,1-2l2,.57L308.53,258h2.33v1.6h-4.18v.7h3.73v1.54h-3.73v.74h4.51v1.65h-4.73a16.07,16.07,0,0,1,2.37,1l-1.2,1.35a8.57,8.57,0,0,0-1-.5v.95a7,7,0,0,0,.69,1.18,20.79,20.79,0,0,0,2.13-2Z"/><path d="M331.44,266.36h-7.37v4.58c0,1.27-.29,1.9-1.18,2.26a11.37,11.37,0,0,1-4,.4,9,9,0,0,0-1-2.34c1.33.08,2.81.08,3.21.06s.55-.12.55-.44v-4.52h-7.52V264.1h7.52v-2.64a24,24,0,0,0,3.67-2.24h-9.31V257h11.84l.53-.11,1.71,1.31a28.14,28.14,0,0,1-6.08,4.48v1.45h7.37Z"/><path d="M336.27,267.4c1.48-.47,2.33-1.29,2.45-2.29h-.21a1.69,1.69,0,0,1-1.81-1.69,1.74,1.74,0,0,1,1.87-1.71c1.35,0,2.05,1,2.05,2.61a4.77,4.77,0,0,1-3.74,4.59Z"/><path d="M351.41,256.63a33.44,33.44,0,0,1-1.88,4.05V273.6h-2.17V264c-.4.52-.79,1-1.17,1.39a14.11,14.11,0,0,0-1.24-2.36,19.53,19.53,0,0,0,4.33-7.1Zm8.23,14.8c1.12,0,1.33-.47,1.46-2.6a6.94,6.94,0,0,0,2,.83c-.28,2.83-.95,3.79-3.28,3.79H355.5c-2.65,0-3.41-.69-3.41-3.33V264.8l-1.44.57-.85-2,2.29-.9V258h2.13v3.63l1.9-.74V256h2v4.12l2.55-1,.19-.13,1.69.51-.08.36a71.82,71.82,0,0,1-.75,8.65l-1.87-.53c.21-1.6.35-4.11.42-6.43l-2.15.88v6.72h-2v-5.94l-1.9.77v6.16c0,1.12.19,1.31,1.45,1.31Z"/><path d="M377.67,268.54a10.3,10.3,0,0,0,.23,1.5c-2.59.71-3.65,1-4.18,1.24.7.06,1.5.08,2.31.08a62.57,62.57,0,0,0,7.68-.5,8.78,8.78,0,0,0-.65,2.32c-1.57.09-4.92.23-7.14.23-2.51,0-4.12-.21-5.49-1-.78-.44-1.46-1.06-1.86-1.06s-1.1,1.29-1.58,2.37l-1.5-2.15a8.08,8.08,0,0,1,2.05-1.84,21.72,21.72,0,0,0,1-3.27h-2.34c.46-1.14,1-2.64,1.43-4.12h-1.75v-2h4.5c-.4,1.35-.89,2.87-1.35,4.18h.69l.34-.08,1,.34a28.07,28.07,0,0,1-.74,3,18.45,18.45,0,0,0,4.54-1.35H372V263h9.76v3.49h-.4l1.07.69a18.81,18.81,0,0,1-1.69,1.1c.8.47,1.54.93,2,1.27l-1.1,1.39c-1.05-.84-3.21-2.19-4.75-3.14l1-1.17,1.36.81a15.85,15.85,0,0,0,1.31-.95h-3.09A11.31,11.31,0,0,1,375.2,268v1.2Zm-9.8-8.77c-.21-.86-.73-2.23-1.05-3.25l2-.61c.37,1,.86,2.3,1.13,3.13Zm5.45,9a16.87,16.87,0,0,1-2,.57,8.23,8.23,0,0,0-1.12-1.48,15.59,15.59,0,0,1-.67,1.82c.33.21.69.48,1.16.76a6.72,6.72,0,0,0,2.45.76,4.17,4.17,0,0,0-.55-1.18,1,1,0,0,0,.69-1.1Zm9.86-6.42H370.45v-1.56h12.73Zm-.88-2.15H371.4V256.4h10.9Zm-7.84-2.56H373.3V259h1.16ZM374,265.2h5.43v-1H374Zm3.34-7.54h-1.21V259h1.21Zm2.91,0h-1.22V259h1.22Z"/><path d="M397.64,262a48.61,48.61,0,0,1,6.32,5.15L402,268.9a43.85,43.85,0,0,0-5.81-5.14v9.84h-2.47v-9.27a22.79,22.79,0,0,1-6,4.67,12.9,12.9,0,0,0-1.56-2.05,20,20,0,0,0,8.19-7.47h-7.58v-2.32h16.47v2.32h-5.91a18.18,18.18,0,0,1-1.1,1.75v2Z"/><path d="M411.87,260.93c-.65,2.83-1.67,6.36-3.25,8.45a20.45,20.45,0,0,0-2.2-1.18c1.52-1.92,2.47-5.24,2.86-7.71Zm4.84-4.77V270.8c0,1.39-.32,2-1.16,2.38a11.58,11.58,0,0,1-4,.44,10.14,10.14,0,0,0-.9-2.36c1.24.06,2.64.06,3.06,0s.57-.13.57-.5V256.16Zm4.3,4.12a33.82,33.82,0,0,1,3.57,8.51l-2.47,1a32.64,32.64,0,0,0-3.33-8.64Z"/><path d="M430.75,262.84a50.26,50.26,0,0,1-1.38,7.89l-2.28-.91a37.93,37.93,0,0,0,1.46-7.39Zm3.58-1.53v8.81c0,.89.15,1.05,1.06,1.05h2.72c.95,0,1.12-.61,1.25-3.58a6.79,6.79,0,0,0,2.13,1c-.27,3.61-.88,4.73-3.21,4.73h-3.16c-2.47,0-3.15-.76-3.15-3.15v-8.81Zm-.17-5.11a34.12,34.12,0,0,1,5.26,3.93l-1.67,1.76a34.46,34.46,0,0,0-5.13-4.16Zm8.28,5.62a35.67,35.67,0,0,1,2.45,7.06l-2.3,1a32,32,0,0,0-2.26-7.17Z"/><path d="M456.69,255.87h2.05V264c0,3.59-.47,7.56-3.59,9.7a8.12,8.12,0,0,0-1.48-1.63,6,6,0,0,0,2.81-4.67c-.65.53-1.27,1.06-1.88,1.53l-1.22-2.07h-1v2.54l2-.49.27,1.88c-2.38.66-4.9,1.35-6.86,1.86l-.46-2,.95-.21v-6.14h1.56V270l.76-.19V263h-2.28V256.8h5.74v2.36l1.57-.7a16.17,16.17,0,0,1,1.07,2.12Zm-6.56,5.28h2v-2.47h-2Zm4,5.27c.74-.4,1.62-.88,2.51-1.41,0-.36,0-.72,0-1.06v-1.2l-1.29.57a13.63,13.63,0,0,0-1.35-3.76V263H452.4v1.8h1.76Zm8.91,4.95c.31,0,.36-.47.42-2.1a5,5,0,0,0,1.86.89c-.21,2.3-.74,3.21-2.11,3.21h-1.46c-1.61,0-2.07-.63-2.07-3V255.87h2.11v5.57a26.16,26.16,0,0,0,1.21-3.15l2.11,1c-.78,1.37-1.57,3-2.26,4l-1.06-.59v1.9l.38-.38a30.29,30.29,0,0,1,3.17,2.81l-1.48,1.6a22.1,22.1,0,0,0-2.07-2.11v3.89c0,.84.06.95.38.95Z"/><path d="M473.79,270.58a12.37,12.37,0,0,0,3.8.41c1.44,0,6.48,0,8.19-.07a7.45,7.45,0,0,0-.86,2.24h-7.33c-3.52,0-5.78-.47-7.28-2.6a13.51,13.51,0,0,1-.87,3.34,19.93,19.93,0,0,0-1.9-1c.93-1.92,1.12-5.09,1.16-8.34l2.07.15c0,.84-.06,1.68-.1,2.46a6.12,6.12,0,0,0,1.05,2v-5.72H468v-2h3.21v-1.76h-2.67v-2h2.67V256h2.13v1.84h2.53v2h-2.53v1.76h3v2h-2.56v2.05h2.41v2h-2.41Zm6.17-.46c-2.12,0-2.81-.65-2.81-3.06V256.63h7.33v7.22h-5.14v3.21c0,.88.11,1,.91,1h2.45c.72,0,.85-.44,1-2.45a6.36,6.36,0,0,0,2,.87c-.24,2.7-.85,3.61-2.75,3.61Zm-.62-11.51v3.28h3v-3.28Z"/><path d="M497,267.12a10,10,0,0,1-6.84,6.69,6.28,6.28,0,0,0-1.25-1.6,11.24,11.24,0,0,0,3.23-1.42,17.73,17.73,0,0,0-1.37-1.41c-.38.28-.74.55-1.12.78-.31-.34-1-1-1.35-1.35a8.68,8.68,0,0,0,3.63-3.36h-3.35v-1.77h3v-1.25h-2v-1.81h2v-1.37h2.11v1.37h1.15v-1.31h2v1.31H498v-1.31h2v1.31h1.22v-1.39h2.16v1.39h1.83v1.81h-1.83v1.25h2.49v1.77H492.66l1.1.3c-.15.29-.32.57-.5.86h2.15l.32-.06ZM492,258.7a16.7,16.7,0,0,1-2,1.64,6.14,6.14,0,0,0-1.62-1.31,10.59,10.59,0,0,0,3.48-3.18l2.16.42c-.17.27-.34.51-.53.76H504.7v1.67Zm.09,9.39-.19.19a15.74,15.74,0,0,1,1.51,1.37,7.55,7.55,0,0,0,1.1-1.56Zm1.49-4.41h1.15v-1.25h-1.15Zm12.33,7.9h-3v2h-2.14v-2h-2.34l-2.05,0c.36-.89.74-2.11,1.1-3.27H497v-1.72h3.8v-.94h2.14v.94h2.64v1.72h-2.64v1.56h3Zm-9.22-9.15v1.25H498v-1.25Zm4.07,7.46v-1.56h-1.24c-.17.54-.34,1.05-.51,1.56Zm-.84-7.46v1.25h1.22v-1.25Z"/><path d="M524.44,267.08a25.72,25.72,0,0,0-2.45-2.2,8.43,8.43,0,0,1-1.27,1.63,10.56,10.56,0,0,0-1.48-1,16.56,16.56,0,0,0,7.25,5.3,10.75,10.75,0,0,0-1.67,2.07,18.2,18.2,0,0,1-6.15-4.8v5.52h-2.38v-5.41a18.33,18.33,0,0,1-6.1,4.69A14.5,14.5,0,0,0,508.6,271a16.75,16.75,0,0,0,7.69-6.11v-4.39h-6.91v-2.22h6.91v-2.34h2.38v2.34h7.16v2.22h-7.16v4.25c.09.16.19.29.28.44a8.41,8.41,0,0,0,2.39-4.58l2.21.4a16.16,16.16,0,0,1-.63,2c1.08.83,2.4,1.84,3.1,2.48ZM514.66,261a17,17,0,0,1-.69,2.05c.69.59,1.41,1.22,1.85,1.67l-1.52,1.58A16.37,16.37,0,0,0,513,265a9.82,9.82,0,0,1-2.18,2.6,13.63,13.63,0,0,0-1.75-1.48,9.17,9.17,0,0,0,3.36-5.51Z"/><path d="M533.28,261.71a3.08,3.08,0,1,1-3.08,3.07A3.07,3.07,0,0,1,533.28,261.71Zm0,4.78a1.71,1.71,0,1,0-1.71-1.71A1.7,1.7,0,0,0,533.28,266.49Z"/></svg>