<?xml version="1.0" encoding="utf-8"?>
<!-- Generator: Adobe Illustrator 25.4.1, SVG Export Plug-In . SVG Version: 6.00 Build 0)  -->
<svg version="1.1" id="圖層_1" xmlns="http://www.w3.org/2000/svg" xmlns:xlink="http://www.w3.org/1999/xlink" x="0px" y="0px"
	 viewBox="0 0 1620 2616.11" style="enable-background:new 0 0 1620 2616.11;" xml:space="preserve">
<style type="text/css">
	.st0{fill:#F9C90D;}
</style>
<rect x="0" y="0" class="st0" width="1620" height="2616.11"/>
<g>
	<path d="M817.94,75.37c-0.86,1.54-1.92,2.93-3.15,4.16c0.51,1.46,1.1,2.34,1.67,2.34c0.4,0,0.63-0.91,0.72-3.15
		c0.49,0.53,1.25,1.04,1.86,1.29c-0.36,3.32-1.06,4.16-2.79,4.16c-1.39,0-2.45-1.14-3.27-3c-1.1,0.91-2.3,1.69-3.51,2.32
		c-0.32-0.53-0.95-1.31-1.5-1.82c1.46-0.67,2.93-1.6,4.24-2.68c-0.42-1.5-0.74-3.23-0.97-5.09h-3.86v2.17
		c0.97-0.17,1.96-0.36,2.93-0.53l0.17,2.05l-3.1,0.63v3.25c0,1.24-0.27,1.84-1.03,2.2c-0.74,0.36-1.88,0.46-3.42,0.44
		c-0.1-0.63-0.47-1.65-0.8-2.28c1.06,0.06,2.17,0.04,2.51,0.02c0.34,0,0.46-0.09,0.46-0.4v-2.75c-1.22,0.25-2.39,0.49-3.4,0.68
		l-0.55-2.28c1.08-0.17,2.45-0.38,3.95-0.65v-2.55h-3.59v-2.15h3.59v-2.17c-1.03,0.17-2.07,0.3-3.04,0.42
		c-0.09-0.55-0.4-1.39-0.64-1.9c2.66-0.36,5.6-0.97,7.54-1.6l1.52,1.92c-0.95,0.29-1.99,0.53-3.1,0.76v2.56h3.65
		c-0.15-1.71-0.21-3.48-0.23-5.21h2.37c-0.04,1.77,0.04,3.53,0.19,5.21h5.17v2.15h-4.94c0.15,1.14,0.34,2.24,0.55,3.21
		c0.69-0.82,1.31-1.67,1.8-2.58L817.94,75.37z M816.55,71.19c-0.49-0.87-1.67-2.22-2.7-3.13l1.71-1.16
		c1.01,0.87,2.26,2.13,2.81,3.02L816.55,71.19z"/>
	<path d="M811.35,102.08c0.49,0.04,1.01,0.06,1.52,0.06c1.06,0,4.71,0,6.06-0.06c-0.3,0.51-0.65,1.5-0.76,2.17h-5.41
		c-3.48,0-5.83-0.49-7.43-2.7c-0.68,1.25-1.56,2.26-2.66,3.02c-0.32-0.42-1.2-1.25-1.71-1.58c1.94-1.2,3.1-3.21,3.53-5.76l2.26,0.34
		c-0.13,0.61-0.29,1.18-0.44,1.73c0.59,1.29,1.52,2,2.74,2.38v-4.83h-7.41v-2h16.76v2h-7.05v1.42h5.85v1.96h-5.85V102.08z
		 M816.59,94.03h-13.2v-6.59h13.2V94.03z M814.29,89.01h-8.7v0.97h8.7V89.01z M814.29,91.46h-8.7v0.99h8.7V91.46z"/>
	<path d="M806.5,107.86c-0.4,1.25-0.85,2.57-1.42,3.82v13.26h-2.11v-9.33c-0.34,0.51-0.68,0.97-1.01,1.39
		c-0.19-0.55-0.74-1.84-1.12-2.43c1.48-1.8,2.81-4.54,3.57-7.31L806.5,107.86z M812.49,109.78c-0.82,3.76-2.7,6.31-5.24,7.73
		c-0.25-0.42-0.76-1.12-1.16-1.48c1.01-0.49,1.92-1.25,2.66-2.24c-0.3-0.36-0.72-0.74-1.12-1.1c-0.3,0.4-0.63,0.76-0.97,1.12
		c-0.3-0.4-0.97-0.93-1.41-1.16c1.56-1.54,2.51-3.55,3-5.22l1.86,0.29c-0.13,0.36-0.27,0.76-0.42,1.16h1.37l0.32-0.08l1.22,0.42
		l-0.02,0.06h2.7v-1.79h1.9v1.79h1.18v1.71h-1.18v2.36h1.63v1.75h-1.63v2.03h-1.9v-2.03h-3.25c0.3-1.08,0.63-2.66,0.89-4.1h-0.44
		V109.78z M810.97,120.7c-0.89,1.41-2.32,2.98-3.42,3.95c-0.38-0.38-1.2-1.16-1.67-1.5c1.08-0.8,2.3-2.05,3.02-3.17L810.97,120.7z
		 M813.53,119.7v5.26h-2.18v-5.26h-5.09v-1.94h5.09v-1.92h2.18v1.92h5.24v1.94H813.53z M808.95,110.5c-0.11,0.23-0.23,0.48-0.34,0.7
		c0.38,0.3,0.8,0.67,1.12,0.99c0.27-0.55,0.49-1.1,0.66-1.69H808.95z M815.58,119.92c1.2,1.08,2.56,2.55,3.25,3.5l-1.69,1.35
		c-0.64-1.01-2.01-2.58-3.17-3.71L815.58,119.92z M815.28,110.98h-0.66c-0.15,0.78-0.32,1.61-0.49,2.36h1.16V110.98z"/>
	<path d="M815.91,143.03c0.65,0,0.74-0.34,0.82-2.56c0.49,0.36,1.46,0.72,2.09,0.87c-0.23,3.04-0.84,3.82-2.7,3.82h-2.43
		c-2.22,0-2.77-0.68-2.77-2.81v-3.48h-2.17c-0.4,3.19-1.41,5.38-6.36,6.55c-0.23-0.63-0.84-1.6-1.33-2.11
		c4.24-0.8,4.96-2.22,5.26-4.45h-2.54v-6.04h5.02v-1.52h-7.01v-2.05h7.01v-1.61h2.3v1.61h7.22v2.05h-7.22v1.52h5.32v6.04h-3.17v3.46
		c0,0.63,0.11,0.7,0.8,0.7H815.91z M805.95,136.87h8.11v-2.07h-8.11V136.87z"/>
	<path d="M813.93,159.22v4.52c0,0.93-0.15,1.41-0.78,1.71c-0.59,0.3-1.41,0.32-2.45,0.32c-0.08-0.57-0.32-1.33-0.57-1.88
		c0.59,0.04,1.2,0.04,1.41,0.04c0.21-0.02,0.27-0.08,0.27-0.27v-4.24c-2.34,0.25-2.89,0.36-3.29,0.51c-0.09-0.38-0.42-1.37-0.64-1.9
		c0.59-0.08,1.1-0.4,1.9-0.93c0.38-0.23,1.04-0.72,1.88-1.39c-2.24,0.21-2.73,0.32-3.06,0.47c-0.09-0.4-0.42-1.35-0.63-1.86
		c0.4-0.08,0.76-0.29,1.22-0.61c0.46-0.3,1.67-1.23,2.68-2.34c-1.18,0.42-2.41,0.78-3.57,1.08c-0.12-0.42-0.4-1.06-0.65-1.5
		c-0.63,1.2-1.39,2.43-2.13,3.46v1.9c0.64-0.25,1.27-0.51,1.92-0.76l0.42,1.82c-0.78,0.34-1.56,0.68-2.34,0.99v5.3
		c0,0.85-0.15,1.31-0.7,1.61c-0.53,0.3-1.25,0.34-2.28,0.34c-0.07-0.51-0.36-1.25-0.62-1.73c0.61,0.02,1.21,0.02,1.42,0.02
		c0.19-0.02,0.27-0.08,0.27-0.29v-4.45l-2.09,0.85l-0.46-2.11c0.72-0.23,1.6-0.55,2.54-0.91v-2.83c0.59-0.84,1.22-2.01,1.71-3.12
		h-3.54v-1.88h4.6l0.42-0.13l1.35,0.97c-0.13,0.25-0.27,0.51-0.42,0.8c2.41-0.67,4.98-1.65,6.44-2.77l1.62,1.46
		c-0.89,0.59-1.98,1.1-3.12,1.56l1.5,0.74c-0.78,0.76-1.65,1.54-2.54,2.2l2.13-0.13c0.49-0.48,0.99-0.99,1.41-1.46l1.62,1.27
		c-1.45,1.42-3.08,2.79-4.77,3.95l3.65-0.3c-0.3-0.55-0.63-1.08-0.89-1.56l1.58-0.8c0.82,1.31,1.9,3.06,2.38,4.14l-1.71,0.93
		c-0.13-0.3-0.28-0.68-0.49-1.1L813.93,159.22z M811.35,160.72c-0.69,1.6-1.79,3.31-2.72,4.37c-0.44-0.3-1.37-0.72-1.9-0.93
		c1.06-1.01,2.03-2.54,2.64-3.99L811.35,160.72z M816.17,159.88c0.95,1.29,2.03,2.98,2.56,4.1l-1.8,0.93
		c-0.47-1.12-1.58-2.92-2.49-4.24L816.17,159.88z"/>
	<path d="M806.39,177.84c-0.34,1.58-0.8,3.15-1.39,4.46c0.3,0.19,0.66,0.46,1.16,0.76c1.31,0.78,3.1,0.89,5.32,0.89
		c2.17,0,5.58-0.19,7.69-0.49c-0.27,0.61-0.65,1.71-0.66,2.32c-1.56,0.09-4.94,0.23-7.14,0.23c-2.53,0-4.12-0.21-5.51-1.01
		c-0.78-0.44-1.46-1.06-1.86-1.06c-0.42,0-1.1,1.29-1.58,2.37l-1.5-2.15c0.66-0.8,1.35-1.42,1.99-1.82
		c0.44-0.93,0.82-2.13,1.08-3.29h-2.37c0.44-1.12,0.93-2.64,1.37-4.12h-1.71v-2.01h4.45c-0.4,1.33-0.86,2.85-1.31,4.18h0.78
		l0.34-0.08l0.86,0.3v-0.99h0.42v-0.49h2.01v0.49h2.39v-0.84h-3.69v-6.44h9.74v6.44h-4.03v0.84h4.88v5.34c0,0.89-0.19,1.27-0.8,1.52
		c-0.59,0.25-1.46,0.25-2.64,0.25c-0.07-0.47-0.34-1.08-0.55-1.52c0.63,0.04,1.37,0.04,1.58,0.04c0.23-0.02,0.3-0.08,0.3-0.29v-3.67
		h-2.91v1.5l0.88-0.04c-0.1-0.3-0.21-0.59-0.3-0.84l1.37-0.3c0.38,0.93,0.78,2.18,0.91,2.94l-1.44,0.36
		c-0.02-0.17-0.06-0.38-0.1-0.61c-1.86,0.19-3.67,0.34-5.11,0.49l-0.19-1.77c0.59-0.04,1.31-0.08,2.09-0.11v-1.63h-2.39v5.22h-2.01
		v-5.22h-0.42V177.84z M803.29,172.37c-0.21-0.86-0.72-2.22-1.04-3.25l1.99-0.61c0.36,1.03,0.86,2.3,1.12,3.13L803.29,172.37z
		 M809.54,171.55h1.67v-0.95h-1.67V171.55z M811.22,173.96v-0.97h-1.67v0.97H811.22z M815.17,170.6h-1.92v0.95h1.92V170.6z
		 M815.17,172.99h-1.92v0.97h1.92V172.99z"/>
	<path d="M807.76,202.88c1.2-0.21,2.43-0.42,3.63-0.61l0.11,1.94c-3.32,0.65-6.91,1.29-9.5,1.75l-0.49-2.09
		c1.14-0.15,2.56-0.38,4.1-0.63v-2.58h-3.46v-1.96h3.46v-1.69h2.15v1.69h3.42v1.96h-3.42V202.88z M801.7,190.04h9.88v1.94h-2.68
		c0.99,1.24,2.17,2.93,2.64,4.05l-1.71,1.12c-0.11-0.29-0.27-0.61-0.44-0.95c-5.24,0.44-6.06,0.53-6.61,0.76
		c-0.13-0.46-0.49-1.46-0.72-2.05c0.29-0.08,0.59-0.38,0.88-0.8c0.21-0.29,0.72-1.14,1.18-2.13h-2.41V190.04z M808.35,194.46
		c-0.36-0.55-0.74-1.08-1.1-1.56l1.6-0.93h-2.28c-0.48,0.91-1.06,1.86-1.65,2.68L808.35,194.46z M814.41,202.16h-2.09v-11.47h2.09
		V202.16z M818.15,189.12v14.7c0,1.2-0.23,1.77-0.95,2.13c-0.72,0.34-1.8,0.42-3.29,0.42c-0.1-0.59-0.46-1.56-0.76-2.17
		c1.01,0.04,2.03,0.04,2.36,0.04c0.32,0,0.44-0.11,0.44-0.44v-14.69H818.15z"/>
	<path d="M807.59,220.95c-0.04-0.25-0.1-0.53-0.15-0.86c-4.29,0.7-5.04,0.91-5.51,1.14c-0.11-0.44-0.47-1.54-0.74-2.11
		c0.53-0.11,0.99-0.53,1.65-1.22c0.29-0.27,0.78-0.78,1.37-1.5c-1.61,0.19-2.05,0.3-2.36,0.44c-0.09-0.46-0.46-1.48-0.72-2.07
		c0.42-0.1,0.76-0.44,1.21-0.97c0.44-0.53,1.82-2.56,2.62-4.54l2.15,0.91c-0.82,1.56-1.88,3.13-2.95,4.43l1.48-0.11
		c0.55-0.76,1.06-1.6,1.52-2.43l1.94,1.31c-1.22,1.86-2.68,3.7-4.2,5.26l2.05-0.29c-0.15-0.49-0.3-0.97-0.47-1.42l1.8-0.48
		c0.51,1.25,1.03,2.93,1.21,3.93L807.59,220.95z M804.34,222.2c-0.27,1.63-0.78,3.44-1.24,4.58c-0.47-0.25-1.4-0.53-1.96-0.68
		c0.53-1.08,0.97-2.81,1.2-4.31L804.34,222.2z M806.52,221.63c0.29,1.25,0.55,2.85,0.65,3.91l-1.92,0.55
		c-0.04-1.08-0.29-2.74-0.53-3.99L806.52,221.63z M808.65,220.93c0.36,0.8,0.74,1.86,0.93,2.55l-1.77,0.7
		c-0.15-0.7-0.55-1.82-0.87-2.66L808.65,220.93z M818.87,224.02v2.2h-10.22v-2.2h4.07v-11.09h-3.4v-2.22h9.23v2.22h-3.48v11.09
		H818.87z"/>
	<path d="M816.91,242.08h-2.16l1.86,0.53c-0.42,0.84-0.82,1.69-1.22,2.41h3.23v1.9h-11.8v-1.9h2.94c-0.11-0.7-0.4-1.63-0.76-2.38
		l1.94-0.55c0.42,0.78,0.8,1.82,0.89,2.55l-1.25,0.38h2.58c0.4-0.87,0.86-2.03,1.06-2.94h-5.74v-4.12c-0.32,0.25-0.67,0.49-0.99,0.7
		c-0.21-0.38-0.61-0.95-0.99-1.37c-0.1,0.3-0.17,0.57-0.25,0.82l-1.12-0.46c0,0.87-0.06,1.77-0.13,2.64l0.15-0.11
		c0.42,0.55,1.92,3,2.26,3.5l-1.58,1.54c-0.27-0.67-0.76-1.63-1.24-2.49c-0.36,1.63-0.99,3.21-2.03,4.6
		c-0.29-0.46-0.93-1.12-1.35-1.41c1.6-2.26,2.01-5.02,2.11-7.75l-1.44,0.42c-0.13-1.29-0.55-3.51-0.95-5.19l1.5-0.38
		c0.34,1.27,0.7,2.83,0.91,4.07v-0.59v-6.54h1.8v6.54v0.91c0.27-1.27,0.55-3.12,0.65-4.43l1.62,0.53l0.7-0.82
		c0.38,0.23,0.84,0.55,1.27,0.84c0.17-0.38,0.36-0.8,0.51-1.24h-2.22v-1.92h3.02l0.36-0.06l1.29,0.42
		c-0.29,1.46-0.72,2.77-1.27,3.91h3.27c-0.57-1.16-1.08-2.58-1.56-4.45l1.86-0.4c0.13,0.53,0.29,1.03,0.44,1.48
		c0.4-0.34,0.78-0.68,1.06-0.99l1.43,1.46c-0.63,0.42-1.25,0.83-1.82,1.18c0.11,0.28,0.27,0.53,0.4,0.78
		c0.51-0.36,1.03-0.8,1.37-1.14l1.45,1.52c-0.65,0.34-1.24,0.7-1.8,1.01c0.57,0.61,1.18,1.1,1.9,1.54
		c-0.53,0.42-1.14,1.16-1.39,1.75c-0.27-0.19-0.53-0.36-0.78-0.57V242.08z M808.42,235.12c-0.38-0.29-0.78-0.61-1.16-0.87
		c-0.21,0.85-0.42,1.73-0.61,2.55C807.3,236.36,807.89,235.79,808.42,235.12z M810.44,236.51v-0.74c-0.38,0.57-0.8,1.1-1.23,1.56
		h7.14c-0.51-0.51-0.99-1.08-1.43-1.75v0.93H810.44z M814.79,239.07h-4.27v1.25h4.27V239.07z"/>
	<path d="M807.92,268.81c1.46-0.55,2.28-1.5,2.28-2.6c-0.06,0-0.11,0-0.17,0c-0.91,0-1.75-0.59-1.75-1.65c0-1.01,0.82-1.65,1.8-1.65
		c1.29,0,2.01,1.03,2.01,2.75c0,2.22-1.31,3.91-3.59,4.67L807.92,268.81z"/>
	<path d="M818.45,273.24v2.17h-10.16c-0.63,1.31-1.35,2.58-2.22,3.74v9.19h-2.3v-6.61c-0.53,0.49-1.06,0.91-1.67,1.33
		c-0.25-0.61-0.76-1.63-1.12-2.18c1.99-1.29,3.59-3.29,4.73-5.47h-4.12v-2.17h5.13c0.32-0.89,0.61-1.77,0.84-2.64l2.38,0.57
		c-0.21,0.7-0.46,1.39-0.72,2.07H818.45z M813.89,285.79h4.5v2.09h-11.38v-2.09h4.6v-4.33h-3.86v-2.09h3.86v-3.15h2.28v3.15h3.76
		v2.09h-3.76V285.79z"/>
	<path d="M807.39,296.09c-0.44,0.74-0.95,1.54-1.54,2.28v10.43h-2.21v-7.86c-0.57,0.57-1.12,1.08-1.67,1.54
		c-0.17-0.53-0.76-1.79-1.1-2.34c1.63-1.18,3.44-3.04,4.52-4.88L807.39,296.09z M807.05,291.95c-1.23,1.75-3.12,3.63-4.84,4.77
		c-0.25-0.51-0.8-1.44-1.14-1.9c1.44-0.91,3.06-2.47,3.82-3.72L807.05,291.95z M818.3,302.3c-0.89,0.7-2,1.46-2.89,2.01
		c0.91,1.06,2.07,1.92,3.5,2.45c-0.51,0.44-1.18,1.35-1.5,1.98c-3.23-1.52-4.98-4.39-6.02-8.23h-1.2v5.34l2.64-0.59
		c0,0.65,0.02,1.58,0.12,2.07c-3.72,0.93-4.43,1.22-4.88,1.5c-0.15-0.49-0.63-1.39-0.97-1.77c0.4-0.25,0.89-0.76,0.89-1.65V291.8
		h9.2v8.72h-3.84c0.27,0.82,0.61,1.58,0.99,2.28c0.85-0.61,1.86-1.42,2.53-2.09L818.3,302.3z M810.19,293.74v1.48h4.79v-1.48H810.19
		z M810.19,298.58h4.79v-1.54h-4.79V298.58z"/>
	<path d="M818,323.51c-1.04,0.76-2.24,1.5-3.34,2.09c1.2,0.72,2.62,1.24,4.33,1.56c-0.49,0.46-1.12,1.41-1.43,2.01
		c-4.24-0.97-6.78-3.17-8.4-6.67h-2.72v4.03l4.16-0.84c-0.11,0.61-0.19,1.54-0.19,2.01c-4.54,1.01-5.59,1.25-6.1,1.48l-0.12,0.09
		c-0.15-0.53-0.59-1.71-0.95-2.24c0.42-0.23,0.97-0.68,0.97-1.46v-3.08h-2.77v-1.99h3.15v-8.4h11.99v1.84h-9.67V315h9.14v1.75h-9.14
		v0.99h9.14v1.75h-9.14v1.03h11.66v1.99h-2.05L818,323.51z M811.54,322.5c0.42,0.72,0.93,1.35,1.54,1.92
		c0.97-0.59,2.03-1.29,2.79-1.92H811.54z"/>
	<path d="M818.39,334.82c0,0,0,0.76-0.02,1.03c-0.25,8.49-0.46,11.51-1.23,12.52c-0.53,0.7-1.06,0.91-1.82,1.04
		c-0.72,0.09-1.86,0.08-2.98,0.04c-0.04-0.63-0.34-1.58-0.74-2.2c1.22,0.11,2.34,0.11,2.83,0.11c0.38,0,0.59-0.08,0.84-0.32
		c0.55-0.61,0.8-3.46,1.01-10.16h-4.07c-0.49,1.14-1.08,2.18-1.67,3c-0.3-0.29-0.95-0.72-1.46-1.06v8.87h-5.07v1.39h-2.05v-14.12
		h2.15c0.25-0.95,0.47-2.17,0.55-3.06l2.47,0.34c-0.32,0.95-0.67,1.9-0.99,2.72h2.94v3.08c1.1-1.6,2.01-3.89,2.57-6.12l2.15,0.49
		c-0.19,0.82-0.46,1.62-0.74,2.41H818.39z M807.02,336.92h-3.02V340h3.02V336.92z M807.02,345.68v-3.72h-3.02v3.72H807.02z
		 M813.32,344.66c-0.53-1.14-1.71-3-2.64-4.39l1.77-1.01c0.95,1.31,2.2,3.12,2.79,4.22L813.32,344.66z"/>
	<path d="M817.88,354.65c-0.59,2-1.48,3.69-2.64,5.11c1.1,0.87,2.41,1.63,3.93,2.11c-0.46,0.44-1.1,1.31-1.41,1.9l-0.04-0.02v6.21
		h-2.17v-0.59h-3.57v0.65h-2.09v-6.17l-0.44,0.19c-0.15-0.3-0.42-0.72-0.7-1.08v0.55h-2.09v2.53l2.24-0.51l0.21,2
		c-2.66,0.67-5.55,1.33-7.7,1.82l-0.4-2.17l0.86-0.15v-6.38h1.84v6l0.95-0.19v-7.14h-2.66v-6.29h6.55v4.71
		c1.39-1.33,2.53-3.34,3.15-5.42l2.15,0.53c-0.15,0.42-0.3,0.86-0.47,1.27h2.66l0.4-0.08L817.88,354.65z M803.99,357.37h2.51v-2.41
		h-2.53L803.99,357.37z M808.76,362.12c1.31-0.57,2.56-1.39,3.63-2.37c-0.46-0.55-0.84-1.12-1.18-1.67
		c-0.36,0.47-0.74,0.91-1.12,1.31c-0.32-0.34-1.01-0.95-1.52-1.29v1.22h-1.9v2.22h2.09V362.12z M816.19,363.01
		c-0.88-0.51-1.65-1.08-2.38-1.73c-0.72,0.67-1.5,1.22-2.34,1.73H816.19z M815.56,367.44v-2.53h-3.57v2.53H815.56z M812.49,356.04
		l-0.15,0.29c0.38,0.65,0.86,1.31,1.39,1.96c0.55-0.7,1.01-1.44,1.39-2.24H812.49z"/>
	<path d="M818.64,387.27v2.28h-17.27v-2.28h6.8v-14.3h2.43v5.43h6.71v2.3h-6.71v6.57H818.64z"/>
	<path d="M807.92,411.78c1.46-0.55,2.28-1.5,2.28-2.6c-0.06,0-0.11,0-0.17,0c-0.91,0-1.75-0.59-1.75-1.65c0-1.01,0.82-1.65,1.8-1.65
		c1.29,0,2.01,1.03,2.01,2.75c0,2.22-1.31,3.91-3.59,4.67L807.92,411.78z"/>
	<path d="M818.36,424.67c-0.32,3.69-0.65,5.28-1.24,5.89c-0.42,0.47-0.83,0.63-1.42,0.7c-0.49,0.06-1.35,0.08-2.26,0.04
		c-0.04-0.61-0.27-1.44-0.61-2.01c0.76,0.09,1.48,0.09,1.84,0.09c0.27,0,0.44-0.04,0.63-0.21c0.3-0.3,0.55-1.25,0.78-3.42h-11.3
		c-0.3,0.23-0.63,0.44-0.97,0.65l1.73,0.55c-0.38,1.63-1.03,3.27-2.22,4.29l-1.77-1.12c1.01-0.85,1.71-2.18,2.05-3.59
		c-0.46,0.28-0.93,0.53-1.41,0.78c-0.27-0.57-0.8-1.46-1.18-1.98c3.13-1.44,5.53-3.8,7.28-6.52h-6.1v-1.98h3.19
		c-0.28-0.74-0.74-1.67-1.2-2.41l1.96-0.76c0.59,0.85,1.2,1.99,1.46,2.77l-0.95,0.4h2.76c0.53-1.06,0.97-2.15,1.31-3.25l2.26,0.63
		c-0.32,0.89-0.68,1.77-1.08,2.62h3.72c-0.19,1.14-0.47,2.43-0.72,3.48h2.17c-0.21,1.14-0.46,2.47-0.68,3.5h2.03L818.36,424.67z
		 M808.02,426.93c0.32,1.1,0.53,2.55,0.51,3.5l-1.96,0.25c0.06-0.93-0.09-2.39-0.38-3.51L808.02,426.93z M808.5,422.27
		c-0.44,0.53-0.91,1.04-1.43,1.54h7.26c0.11-0.46,0.23-0.99,0.34-1.54H808.5z M810.83,426.58c0.4,0.95,0.78,2.22,0.91,3.08
		l-1.8,0.46c-0.12-0.85-0.49-2.15-0.88-3.15L810.83,426.58z M810.87,418.81c-0.28,0.51-0.59,1.01-0.91,1.5h2.91
		c0.11-0.46,0.23-0.97,0.32-1.5H810.87z M812.98,429.13c-0.15-0.67-0.65-1.77-1.12-2.57l1.56-0.53c0.51,0.76,1.04,1.8,1.23,2.51
		L812.98,429.13z"/>
	<path d="M807.53,434.76c-0.48,1.2-1.01,2.45-1.65,3.63v13.34h-2.22v-9.8c-0.47,0.63-0.95,1.22-1.42,1.71
		c-0.21-0.55-0.84-1.79-1.22-2.34c1.75-1.75,3.42-4.46,4.37-7.22L807.53,434.76z M818.72,442.51h-4.67v9.25h-2.36v-9.25h-4.88v-2.22
		h4.88v-5.98h2.36v5.98h4.67V442.51z"/>
	<path d="M804.6,457.8v3.27c0,3.1-0.27,7.98-1.67,11.06c-0.38-0.4-1.35-1.12-1.8-1.33c1.23-2.83,1.33-6.9,1.33-9.73v-5.22h7.12
		c-0.1-0.4-0.21-0.82-0.3-1.14l2.28-0.42c0.19,0.47,0.38,1.06,0.51,1.56h6.48v1.96H804.6z M806.75,462.15
		c0,0.97-0.13,2.13-0.99,2.95c-0.23-0.27-0.76-0.7-1.08-0.87c0.72-0.53,0.84-1.48,0.84-2.13v-0.74h1.23V462.15z M815.41,467.38
		c0.99,1.12,2.36,2.72,3.08,3.69l-1.73,0.91c-0.19-0.29-0.44-0.63-0.7-0.99c-8.95,0.65-9.99,0.67-10.7,0.89
		c-0.08-0.36-0.34-1.29-0.53-1.8c0.65-0.09,1.29-0.34,2.26-0.84c0.42-0.17,1.21-0.55,2.15-1.08c-2.43,0.15-2.89,0.25-3.21,0.36
		c-0.08-0.34-0.32-1.2-0.51-1.67c0.36-0.04,0.78-0.23,1.23-0.47c0.49-0.25,2.03-1.1,3.19-2.13c-0.42-0.17-0.51-0.55-0.51-1.22v-1.6
		h1.2v1.62c0,0.29,0.02,0.38,0.21,0.38c0.15,0,0.44,0,0.61-0.06c0.02,0.19,0.02,0.38,0.04,0.59c0.64-0.53,0.76-1.33,0.76-1.92v-0.72
		h1.23v0.78c0,0.91-0.13,2.01-1.01,2.79c-0.21-0.27-0.66-0.63-0.99-0.82l0.02,0.19c-0.15,0.06-0.42,0.08-0.66,0.08h-0.34h-0.02
		l1.16,0.74c-0.93,0.68-1.98,1.35-3,1.88l2.83-0.13c0.87-0.55,1.75-1.14,2.53-1.79l1.67,1.12c-1.98,1.42-4.07,2.66-6.12,3.63
		l5.34-0.36c-0.38-0.44-0.76-0.89-1.08-1.29L815.41,467.38z M807.26,464.74v-3.97h-2.07v-1.69h2.07v-0.87h1.69v0.87h2.3v1.69h-2.3
		v3.97H807.26z M814.03,464.77v-4.01h-2.28v-1.69h2.28v-0.87h1.69v0.87h2.7v1.69h-2.7v4.01H814.03z M818,463.67
		c0.19,0,0.55-0.02,0.74-0.08c0.02,0.29,0.04,0.65,0.08,0.95c-0.17,0.06-0.49,0.08-0.78,0.08h-0.66c-0.99,0-1.16-0.44-1.16-1.39
		v-1.9h1.27v1.92c0,0.3,0.02,0.42,0.25,0.42H818z"/>
	<path d="M816.44,490.29h2.21v1.75h-17.29v-1.75h2.24v-2.89c-0.25,0.27-0.55,0.53-0.87,0.74l-1.52-1.33
		c0.95-0.57,1.67-1.56,2.03-2.54l1.75,0.68c-0.21,0.55-0.46,1.12-0.78,1.63h2.72c-0.02-0.51-0.17-1.33-0.38-1.96l1.92-0.3
		c0.23,0.59,0.42,1.41,0.47,1.92l-1.9,0.34h4.24c-0.13-0.55-0.46-1.31-0.78-1.88l1.71-0.44h-10.6v-1.62h7.11v-0.72h-5.36v-1.52h5.36
		v-0.72h-7.24v-1.62h7.24v-0.72h-5.26v-1.52h5.26v-0.97h2.24v0.97h5.7v2.24h1.88v1.62h-1.88v2.24h-5.7v0.72h7.49v1.62h-1.96
		c0.89,0.85,1.88,1.94,2.36,2.72l-1.77,0.85c-0.15-0.27-0.38-0.59-0.63-0.93V490.29z M805.71,490.29h1.44v-1.99h-1.44V490.29z
		 M809.2,488.3v1.99h1.5v-1.99H809.2z M810.95,478.08h3.48v-0.72h-3.48V478.08z M810.95,480.41h3.48v-0.72h-3.48V480.41z
		 M812.37,484.27c0.4,0.57,0.74,1.39,0.89,1.9l-1.44,0.42h4.37c-0.49-0.63-1.06-1.27-1.58-1.8l1.31-0.51H812.37z M814.22,488.3
		h-1.46v1.99h1.46V488.3z"/>
	<path d="M809.33,510.37c-2.66,0.65-5.57,1.33-7.73,1.82l-0.51-2.11c1.29-0.23,3.02-0.57,4.85-0.95l-0.46-0.11
		c0.27-1.06,0.57-2.68,0.67-3.88l2.2,0.47c-0.32,1.1-0.65,2.28-0.95,3.21l1.75-0.36L809.33,510.37z M809.05,498.23h-7.64v-2.07h7.64
		V498.23z M808.63,504.88h-6.71v-5.32h6.71V504.88z M802.78,509.16c-0.02-0.89-0.27-2.32-0.63-3.38l1.8-0.46
		c0.4,1.06,0.68,2.43,0.74,3.32L802.78,509.16z M806.62,501.33h-2.79v1.79h2.79V501.33z M813.59,510.53
		c-1.03,0.97-2.75,1.98-4.22,2.53c-0.32-0.4-0.99-1.04-1.48-1.44c1.43-0.49,3.06-1.46,3.86-2.26L813.59,510.53z M812.45,499.22
		c0.08-0.42,0.13-0.85,0.19-1.27h-3.13v-1.9h9.16v1.9h-3.55c-0.13,0.44-0.27,0.87-0.4,1.27h3.53v10.03h-8.28v-10.03H812.45z
		 M816.08,500.89h-4.07v1.2h4.07V500.89z M816.08,503.63h-4.07v1.2h4.07V503.63z M816.08,506.4h-4.07v1.22h4.07V506.4z
		 M816.08,509.5c1.01,0.67,2.43,1.67,3.17,2.36l-1.8,1.2c-0.65-0.68-2.03-1.77-3.08-2.49L816.08,509.5z"/>
	<path d="M811.61,516.27c-0.1,0.11-0.19,0.25-0.29,0.36c1.75,1.52,4.86,2.83,7.88,3.42c-0.47,0.4-1.12,1.2-1.42,1.73
		c-0.38-0.09-0.78-0.23-1.18-0.34v4.9h-13.2v-4.79c-0.4,0.13-0.8,0.27-1.18,0.36c-0.23-0.42-0.84-1.33-1.22-1.75
		c3.5-0.82,6.88-2.39,8.61-4.6L811.61,516.27z M815.93,521.19c-0.89-0.32-1.75-0.72-2.58-1.16v0.49h-6.67v-0.38
		c-0.74,0.38-1.5,0.74-2.3,1.04H815.93z M804.47,526.96h11.17v6.42h-2.32v-0.46h-6.63v0.51h-2.22V526.96z M806.62,524.97
		c-0.1-0.59-0.34-1.37-0.65-1.98l1.46-0.42h-2.15v2.39H806.62z M806.69,528.44v0.76h6.63v-0.76H806.69z M813.32,531.44v-0.76h-6.63
		v0.76H813.32z M809.01,522.57h-1.48c0.34,0.65,0.64,1.46,0.76,2.01l-1.22,0.38h1.94V522.57z M811.75,519.06
		c-0.57-0.4-1.12-0.82-1.6-1.24c-0.49,0.42-1.04,0.84-1.62,1.24H811.75z M810.83,522.57v2.39h1.77l-1.14-0.32
		c0.27-0.57,0.57-1.44,0.74-2.07H810.83z M814.6,522.57h-1.98l1.48,0.36c-0.38,0.76-0.74,1.5-1.04,2.03h1.54V522.57z"/>
	<path d="M816.69,548.13h2.17v1.65h-2.17v2.15c0,0.97-0.15,1.44-0.88,1.73c-0.7,0.27-1.61,0.29-2.94,0.29
		c-0.06-0.55-0.32-1.25-0.55-1.77l-0.76,0.48c-0.3-0.67-0.95-1.63-1.63-2.32l0.93-0.55h-1.79v1.1h-2.92v3h-2v-3h-3.06v-1.98h3.06
		v-1.14h-2.43v-6.86h2.43v-0.99h-2.79v-1.96h2.79v-1.8h2v1.8h2.7v1.96h-2.7v0.99h2.53v6.86h-2.53v1.14h2.92v-0.78h5.57v-0.74h2.05
		V548.13z M803.33,543.61h1.08v-1.12h-1.08V543.61z M803.33,546.21h1.08v-1.12h-1.08V546.21z M807.04,542.48h-1.16v1.12h1.16V542.48
		z M807.04,545.09h-1.16v1.12h1.16V545.09z M809.05,545.75c1.04,0,2.36-0.02,3.8-0.06v-0.84h-3.3v-5.09h3.3v-0.7h-3.63v-1.65h3.63
		v-1.25h1.92v1.25h3.82v1.65h-3.82v0.7h3.48v5.09h-0.8c0.63,0.72,1.2,1.56,1.52,2.18l-1.58,0.78c-0.1-0.19-0.21-0.42-0.36-0.67
		c-2.85,0.09-5.78,0.17-7.87,0.21L809.05,545.75z M811.31,541.72h1.54v-0.74h-1.54V541.72z M812.85,543.64v-0.76h-1.54v0.76H812.85z
		 M814.63,549.78h-2.85c0.59,0.59,1.12,1.31,1.39,1.84l-0.78,0.49c0.76,0.04,1.63,0.04,1.88,0.04c0.27-0.02,0.36-0.08,0.36-0.29
		V549.78z M814.77,540.98v0.74h1.62v-0.74H814.77z M816.38,542.88h-1.62v0.76h1.62V542.88z M814.77,545.66l1.22-0.02
		c-0.15-0.19-0.3-0.36-0.46-0.53l0.53-0.25h-1.29V545.66z"/>
	<path d="M803.62,563.96c-0.19,0.91-0.57,1.88-0.95,2.54c-0.27-0.21-0.84-0.51-1.16-0.65c0.4-0.65,0.65-1.42,0.78-2.18
		L803.62,563.96z M806.56,563.38c-0.06-0.17-0.12-0.36-0.21-0.57c-3.25,0.32-3.76,0.42-4.09,0.57c-0.06-0.32-0.29-1.04-0.46-1.39
		c0.34-0.06,0.68-0.29,1.08-0.63c0.19-0.13,0.53-0.44,0.95-0.85c-1.18,0.11-1.5,0.17-1.69,0.25c-0.08-0.32-0.32-1.01-0.51-1.39
		c0.27-0.06,0.51-0.21,0.74-0.46c0.25-0.23,1.1-1.12,1.58-2.11l1.52,0.46c-0.47,0.76-1.08,1.52-1.63,2.11l1.1-0.06
		c0.23-0.29,0.46-0.57,0.66-0.87l1.44,0.57c-0.87,1.08-1.84,2.09-2.79,2.89l1.61-0.13c-0.13-0.25-0.25-0.49-0.38-0.68l1.16-0.36
		c0.42,0.68,0.91,1.65,1.1,2.24L806.56,563.38z M817.65,570.58c0,0-0.08,0.63-0.17,0.89c-0.29,1.29-0.66,2.01-1.23,2.38
		c-0.57,0.3-1.21,0.38-2.2,0.38c-0.86,0.02-2.6,0-4.22-0.09c-0.02-0.42-0.21-1.01-0.51-1.42c1.62,0.13,3.51,0.15,4.2,0.15
		c0.51,0,0.82-0.02,1.03-0.11c0.23-0.13,0.42-0.4,0.59-0.82h-12.21c0.4-0.95,0.84-2.28,1.16-3.42h10.37v-0.65h-11.3v-1.33h13.39
		v3.33h-10.77l-0.23,0.72H817.65z M804.32,566.23c-0.06-0.63-0.25-1.6-0.49-2.34l1.23-0.25c0.27,0.7,0.51,1.65,0.57,2.26
		L804.32,566.23z M806.31,565.68c-0.1-0.55-0.36-1.37-0.66-2l1.08-0.34c0.34,0.61,0.65,1.41,0.76,1.92L806.31,565.68z
		 M812.85,559.22h-5.64v-1.18h2.22c-0.13-0.34-0.29-0.7-0.46-0.99l1.37-0.42c0.27,0.44,0.51,0.95,0.68,1.41h1.82V559.22z
		 M807.76,562.99h4.62v2.91h-4.62V562.99z M812.3,560.78h-4.5v-0.97h4.5V560.78z M807.8,561.37h4.5v1.01h-4.5V561.37z
		 M809.09,564.87h1.92v-0.85h-1.92V564.87z M814.69,563.94c-0.17,0.84-0.49,1.75-0.85,2.38c-0.25-0.21-0.86-0.49-1.2-0.63
		c0.38-0.61,0.59-1.33,0.7-2.03L814.69,563.94z M817.64,563.4c-0.04-0.17-0.1-0.36-0.15-0.57c-3.4,0.34-3.93,0.46-4.25,0.61
		c-0.08-0.32-0.29-1.03-0.46-1.41c0.34-0.06,0.72-0.27,1.14-0.63c0.19-0.13,0.55-0.44,0.99-0.85c-1.23,0.09-1.56,0.17-1.77,0.25
		c-0.08-0.28-0.3-0.95-0.46-1.31c0.25-0.06,0.48-0.21,0.74-0.46c0.25-0.25,1.1-1.2,1.62-2.2l1.39,0.49
		c-0.48,0.76-1.03,1.48-1.6,2.09l1.2-0.06c0.29-0.32,0.53-0.65,0.78-0.95l1.39,0.57c-0.87,1.08-1.86,2.13-2.81,2.94l1.67-0.13
		c-0.12-0.23-0.25-0.44-0.36-0.65l1.14-0.4c0.44,0.68,0.89,1.6,1.06,2.2L817.64,563.4z M815.39,566.12
		c-0.02-0.61-0.21-1.54-0.44-2.26l1.23-0.27c0.25,0.72,0.46,1.63,0.51,2.22L815.39,566.12z M817.94,563.33
		c0.34,0.67,0.66,1.54,0.82,2.11l-1.2,0.38c-0.09-0.57-0.42-1.46-0.72-2.15L817.94,563.33z"/>
	<path d="M807.92,595.61c1.46-0.55,2.28-1.5,2.28-2.6c-0.06,0-0.11,0-0.17,0c-0.91,0-1.75-0.59-1.75-1.65c0-1.01,0.82-1.65,1.8-1.65
		c1.29,0,2.01,1.03,2.01,2.75c0,2.22-1.31,3.91-3.59,4.67L807.92,595.61z"/>
	<path d="M818.66,612.57v2.18h-13.49v-2.18h5.78v-4.73h-3.7v-1.16c-1.1,2.89-2.68,5.53-4.86,7.5c-0.34-0.51-1.03-1.35-1.48-1.8
		c2.66-2.3,4.26-5.87,5.24-9.61h-4.48v-2.18h4.98c0.23-1.06,0.4-2.13,0.55-3.15l2.36,0.29c-0.17,0.95-0.34,1.92-0.55,2.87h9.37v2.18
		h-9.88c-0.27,0.97-0.53,1.96-0.88,2.91h10.37v2.17h-4.69v4.73H818.66z"/>
	<path d="M810.99,631.19c-0.55,0.89-1.54,1.52-3.21,2c1.03,0.23,2.26,0.27,3.63,0.27c2.24,0,5.6-0.19,7.71-0.47
		c-0.25,0.55-0.59,1.58-0.63,2.17c-1.58,0.08-5,0.21-7.18,0.21c-2.53,0-4.12-0.21-5.49-0.99c-0.8-0.46-1.44-1.06-1.84-1.06
		c-0.44,0-1.08,1.23-1.6,2.34l-1.39-1.98c0.55-0.7,1.16-1.29,1.71-1.67c0.46-1.03,0.87-2.34,1.16-3.59h-2.3
		c0.48-1.12,1.04-2.66,1.5-4.14h-1.8v-1.98h4.63c-0.44,1.33-0.95,2.87-1.41,4.18h0.47l0.3-0.06l0.93,0.3
		c-0.32,1.75-0.82,3.53-1.45,4.98c0.34,0.21,0.74,0.53,1.35,0.86c0.38,0.23,0.76,0.4,1.22,0.53c-0.21-0.44-0.61-0.95-0.89-1.23
		c2.22-0.46,3-1.18,3.34-2.28h-3.4v-1.24h4.94c-0.11-0.27-0.23-0.53-0.34-0.78l1.84-0.4c0.19,0.32,0.42,0.78,0.61,1.18h4.96v1.24
		h-6.72c-0.04,0.15-0.08,0.3-0.11,0.46h5.17c0,0-0.02,0.42-0.08,0.61c-0.17,1.12-0.4,1.73-0.8,2.01c-0.34,0.29-0.76,0.36-1.23,0.38
		c-0.42,0.04-1.25,0.04-2.07-0.04c-0.02-0.34-0.19-0.87-0.38-1.22c0.68,0.08,1.33,0.08,1.62,0.08c0.27,0,0.4-0.02,0.53-0.13
		c0.12-0.1,0.21-0.25,0.29-0.51H810.99z M803.6,621.75c-0.25-0.87-0.84-2.24-1.21-3.29l1.88-0.53c0.4,1.01,0.97,2.3,1.27,3.13
		L803.6,621.75z M808.23,626.67h-1.96v-1.94h5c-0.06-0.19-0.12-0.4-0.19-0.55h-3.57v-5.28h3.12c0.19-0.38,0.38-0.78,0.47-1.06
		l2.34,0.15c-0.23,0.34-0.46,0.65-0.69,0.91h4.46v5.28h-3.84c0.1,0.19,0.17,0.38,0.25,0.55h4.82v1.82h-2.03v-0.74h-1.29v0.65
		c0,0.28,0.02,0.46,0.44,0.46h1.12c0.34,0,1.12-0.04,1.37-0.13c0.04,0.46,0.04,0.63,0.13,1.08c-0.29,0.08-0.91,0.09-1.41,0.09h-2.11
		c-1.22,0-1.37-0.65-1.37-1.52v-0.63h-1.21c-0.59,1.39-1.8,2.01-4.69,2.39c-0.15-0.36-0.51-0.82-0.83-1.1
		c2.13-0.21,3.04-0.59,3.47-1.29h-1.8V626.67z M809.6,620.37h5.43v-0.55h-5.43V620.37z M809.6,621.81h5.43v-0.55h-5.43V621.81z
		 M809.6,623.27h5.43v-0.59h-5.43V623.27z"/>
	<path d="M811.35,653.56c0.49,0.04,1.01,0.06,1.52,0.06c1.06,0,4.71,0,6.06-0.06c-0.3,0.51-0.65,1.5-0.76,2.17h-5.41
		c-3.48,0-5.83-0.49-7.43-2.7c-0.68,1.25-1.56,2.26-2.66,3.02c-0.32-0.42-1.2-1.25-1.71-1.58c1.94-1.2,3.1-3.21,3.53-5.76l2.26,0.34
		c-0.13,0.61-0.29,1.18-0.44,1.73c0.59,1.29,1.52,1.99,2.74,2.37v-4.83h-7.41v-1.99h16.76v1.99h-7.05v1.42h5.85v1.96h-5.85V653.56z
		 M816.59,645.5h-13.2v-6.59h13.2V645.5z M814.29,640.49h-8.7v0.97h8.7V640.49z M814.29,642.94h-8.7v0.99h8.7V642.94z"/>
	<path d="M813.97,673.28c1.8,0.59,3.71,1.24,4.92,1.73l-1.99,1.42c-1.27-0.59-3.44-1.46-5.53-2.15l1.14-1.01h-5.28l1.39,0.97
		c-1.56,0.87-4.01,1.77-5.95,2.22c-0.34-0.42-1.06-1.12-1.56-1.52c1.67-0.36,3.69-1.03,5.02-1.67h-2.6v-6.27h13.11v6.27H813.97z
		 M818.68,666.42h-17.29v-1.9h17.29V666.42z M805.65,661.56h-3.27v-1.69h3.27v-1.18h2.2v1.18h4.35v-1.18h2.32v1.18h3.25v1.69h-3.25
		v2.34h-8.87V661.56z M805.71,669.44h3.12v-0.91h-3.12V669.44z M805.71,671.76h3.12v-0.91h-3.12V671.76z M807.85,661.56v0.85h4.35
		v-0.85H807.85z M814.35,668.53h-3.29v0.91h3.29V668.53z M814.35,670.85h-3.29v0.91h3.29V670.85z"/>
	<path d="M814.37,694.46c1.82,0,2.11-0.42,2.36-2.77c0.57,0.32,1.5,0.68,2.13,0.8c-0.4,3.12-1.18,4.03-4.37,4.03h-6.5
		c-3.53,0-4.62-0.68-4.62-3.4v-6.92c-0.38,0.3-0.76,0.57-1.12,0.84c-0.21-0.53-0.82-1.65-1.22-2.17c2.24-1.35,4.54-3.53,5.81-5.89
		l2.05,0.78c-0.15,0.27-0.32,0.55-0.47,0.82h4.37l0.44-0.11l1.44,1.08c-0.65,0.91-1.46,1.94-2.34,2.83h4.64v7.14h-2.22v-0.65h-9.2
		v2.24c0,1.16,0.32,1.35,2.39,1.35H814.37z M806.98,682.59c-0.51,0.63-1.03,1.22-1.6,1.79h4.26c0.55-0.51,1.1-1.14,1.6-1.79H806.98z
		 M805.55,688.73h3.53v-2.26h-3.53V688.73z M814.75,686.47h-3.46v2.26h3.46V686.47z"/>
	<path d="M807.92,718.16c1.46-0.55,2.28-1.5,2.28-2.6c-0.06,0-0.11,0-0.17,0c-0.91,0-1.75-0.59-1.75-1.65c0-1.01,0.82-1.65,1.8-1.65
		c1.29,0,2.01,1.03,2.01,2.75c0,2.22-1.31,3.91-3.59,4.67L807.92,718.16z"/>
	<path d="M808.65,725.42c-0.4,1.04-0.85,2.07-1.39,3.04h9.84v9.18h-2.39v-0.95h-7.05v1.04h-2.26v-6.44
		c-0.85,1.06-1.82,2.01-2.94,2.81c-0.32-0.53-1.04-1.35-1.5-1.8c2.41-1.63,4.08-4.14,5.24-6.88h-4.58v-2.22h5.36
		c0.34-1.06,0.61-2.17,0.82-3.23l2.38,0.44c-0.23,0.93-0.48,1.86-0.76,2.79h8.98v2.22H808.65z M807.66,730.64v3.86h7.05v-3.86
		H807.66z"/>
	<path d="M810.99,753.74c-0.55,0.89-1.54,1.52-3.21,2c1.03,0.23,2.26,0.27,3.63,0.27c2.24,0,5.6-0.19,7.71-0.47
		c-0.25,0.55-0.59,1.58-0.63,2.17c-1.58,0.08-5,0.21-7.18,0.21c-2.53,0-4.12-0.21-5.49-0.99c-0.8-0.46-1.44-1.06-1.84-1.06
		c-0.44,0-1.08,1.23-1.6,2.34l-1.39-1.98c0.55-0.7,1.16-1.29,1.71-1.67c0.46-1.03,0.87-2.34,1.16-3.59h-2.3
		c0.48-1.12,1.04-2.66,1.5-4.14h-1.8v-1.98h4.63c-0.44,1.33-0.95,2.87-1.41,4.18h0.47l0.3-0.06l0.93,0.3
		c-0.32,1.75-0.82,3.53-1.45,4.98c0.34,0.21,0.74,0.53,1.35,0.86c0.38,0.23,0.76,0.4,1.22,0.53c-0.21-0.44-0.61-0.95-0.89-1.23
		c2.22-0.46,3-1.18,3.34-2.28h-3.4v-1.24h4.94c-0.11-0.27-0.23-0.53-0.34-0.78l1.84-0.4c0.19,0.32,0.42,0.78,0.61,1.18h4.96v1.24
		h-6.72c-0.04,0.15-0.08,0.3-0.11,0.46h5.17c0,0-0.02,0.42-0.08,0.61c-0.17,1.12-0.4,1.73-0.8,2.01c-0.34,0.29-0.76,0.36-1.23,0.38
		c-0.42,0.04-1.25,0.04-2.07-0.04c-0.02-0.34-0.19-0.87-0.38-1.22c0.68,0.08,1.33,0.08,1.62,0.08c0.27,0,0.4-0.02,0.53-0.13
		c0.12-0.1,0.21-0.25,0.29-0.51H810.99z M803.6,744.3c-0.25-0.87-0.84-2.24-1.21-3.29l1.88-0.53c0.4,1.01,0.97,2.3,1.27,3.13
		L803.6,744.3z M808.23,749.22h-1.96v-1.94h5c-0.06-0.19-0.12-0.4-0.19-0.55h-3.57v-5.28h3.12c0.19-0.38,0.38-0.78,0.47-1.06
		l2.34,0.15c-0.23,0.34-0.46,0.65-0.69,0.91h4.46v5.28h-3.84c0.1,0.19,0.17,0.38,0.25,0.55h4.82v1.82h-2.03v-0.74h-1.29v0.65
		c0,0.28,0.02,0.46,0.44,0.46h1.12c0.34,0,1.12-0.04,1.37-0.13c0.04,0.46,0.04,0.63,0.13,1.08c-0.29,0.08-0.91,0.09-1.41,0.09h-2.11
		c-1.22,0-1.37-0.65-1.37-1.52v-0.63h-1.21c-0.59,1.39-1.8,2.01-4.69,2.39c-0.15-0.36-0.51-0.82-0.83-1.1
		c2.13-0.21,3.04-0.59,3.47-1.29h-1.8V749.22z M809.6,742.92h5.43v-0.55h-5.43V742.92z M809.6,744.36h5.43v-0.55h-5.43V744.36z
		 M809.6,745.82h5.43v-0.59h-5.43V745.82z"/>
	<path d="M811.35,776.11c0.49,0.04,1.01,0.06,1.52,0.06c1.06,0,4.71,0,6.06-0.06c-0.3,0.51-0.65,1.5-0.76,2.17h-5.41
		c-3.48,0-5.83-0.49-7.43-2.7c-0.68,1.25-1.56,2.26-2.66,3.02c-0.32-0.42-1.2-1.25-1.71-1.58c1.94-1.2,3.1-3.21,3.53-5.76l2.26,0.34
		c-0.13,0.61-0.29,1.18-0.44,1.73c0.59,1.29,1.52,1.99,2.74,2.37v-4.83h-7.41v-1.99h16.76v1.99h-7.05v1.42h5.85v1.96h-5.85V776.11z
		 M816.59,768.05h-13.2v-6.59h13.2V768.05z M814.29,763.04h-8.7v0.97h8.7V763.04z M814.29,765.49h-8.7v0.99h8.7V765.49z"/>
	<path d="M817.16,783.99v14.93h-2.39v-1.2h-9.59v1.22h-2.3v-14.95h4.77c0.32-0.93,0.63-1.98,0.78-2.83l2.94,0.38
		c-0.36,0.86-0.72,1.69-1.1,2.45H817.16z M805.17,786.29v3.38h9.59v-3.38H805.17z M814.77,795.43v-3.51h-9.59v3.51H814.77z"/>
	<path d="M814.37,817.01c1.82,0,2.11-0.42,2.36-2.77c0.57,0.32,1.5,0.68,2.13,0.8c-0.4,3.12-1.18,4.03-4.37,4.03h-6.5
		c-3.53,0-4.62-0.68-4.62-3.4v-6.92c-0.38,0.3-0.76,0.57-1.12,0.84c-0.21-0.53-0.82-1.65-1.22-2.17c2.24-1.35,4.54-3.53,5.81-5.89
		l2.05,0.78c-0.15,0.27-0.32,0.55-0.47,0.82h4.37l0.44-0.11l1.44,1.08c-0.65,0.91-1.46,1.94-2.34,2.83h4.64v7.14h-2.22v-0.65h-9.2
		v2.24c0,1.16,0.32,1.35,2.39,1.35H814.37z M806.98,805.14c-0.51,0.63-1.03,1.22-1.6,1.79h4.26c0.55-0.51,1.1-1.14,1.6-1.79H806.98z
		 M805.55,811.28h3.53v-2.26h-3.53V811.28z M814.75,809.02h-3.46v2.26h3.46V809.02z"/>
	<path d="M807.92,840.71c1.46-0.55,2.28-1.5,2.28-2.6c-0.06,0-0.11,0-0.17,0c-0.91,0-1.75-0.59-1.75-1.65c0-1.01,0.82-1.65,1.8-1.65
		c1.29,0,2.01,1.03,2.01,2.75c0,2.22-1.31,3.91-3.59,4.67L807.92,840.71z"/>
	<path d="M817.94,851.52c-0.86,1.54-1.92,2.93-3.15,4.16c0.51,1.46,1.1,2.34,1.67,2.34c0.4,0,0.63-0.91,0.72-3.15
		c0.49,0.53,1.25,1.04,1.86,1.29c-0.36,3.32-1.06,4.16-2.79,4.16c-1.39,0-2.45-1.14-3.27-3c-1.1,0.91-2.3,1.69-3.51,2.32
		c-0.32-0.53-0.95-1.31-1.5-1.82c1.46-0.67,2.93-1.6,4.24-2.68c-0.42-1.5-0.74-3.23-0.97-5.09h-3.86v2.17
		c0.97-0.17,1.96-0.36,2.93-0.53l0.17,2.05l-3.1,0.63v3.25c0,1.23-0.27,1.84-1.03,2.2c-0.74,0.36-1.88,0.46-3.42,0.44
		c-0.1-0.63-0.47-1.65-0.8-2.28c1.06,0.06,2.17,0.04,2.51,0.02c0.34,0,0.46-0.09,0.46-0.4v-2.75c-1.22,0.25-2.39,0.49-3.4,0.68
		l-0.55-2.28c1.08-0.17,2.45-0.38,3.95-0.65v-2.54h-3.59v-2.15h3.59v-2.17c-1.03,0.17-2.07,0.3-3.04,0.42
		c-0.09-0.55-0.4-1.39-0.64-1.9c2.66-0.36,5.6-0.97,7.54-1.6l1.52,1.92c-0.95,0.29-1.99,0.53-3.1,0.76v2.56h3.65
		c-0.15-1.71-0.21-3.48-0.23-5.21h2.37c-0.04,1.77,0.04,3.53,0.19,5.21h5.17v2.15h-4.94c0.15,1.14,0.34,2.24,0.55,3.21
		c0.69-0.82,1.31-1.67,1.8-2.58L817.94,851.52z M816.55,847.34c-0.49-0.87-1.67-2.22-2.7-3.13l1.71-1.16
		c1.01,0.87,2.26,2.13,2.81,3.02L816.55,847.34z"/>
	<path d="M811.84,871.18h-3.27v9.44h-2.09v-16.64c-0.38,1.08-0.82,2.2-1.31,3.29v13.39h-2.15v-9.5c-0.38,0.57-0.78,1.1-1.18,1.56
		c-0.17-0.53-0.72-1.84-1.08-2.43c1.54-1.77,2.93-4.54,3.76-7.33l2.09,0.63l-0.12,0.36h5.34V871.18z M808.57,865.66v1.08h1.56v-1.08
		H808.57z M810.13,869.47v-1.12h-1.56v1.12H810.13z M818.34,878.04c0,1.25-0.27,1.86-1.03,2.19c-0.78,0.36-1.98,0.42-3.76,0.42
		c-0.08-0.63-0.44-1.62-0.72-2.19c1.16,0.08,2.47,0.06,2.85,0.04c0.36,0,0.49-0.11,0.49-0.47v-6.84h-3.48v-7.24h5.64V878.04z
		 M814.48,865.66v1.08h1.69v-1.08H814.48z M816.17,869.47v-1.12h-1.69v1.12H816.17z"/>
	<path d="M811.1,898.47c0.95,0.17,1.98,0.23,3.04,0.23c0.86,0.02,3.71,0,4.81-0.02c-0.32,0.51-0.68,1.54-0.8,2.19h-4.14
		c-3.78,0-6.76-0.67-8.76-3.51c-0.63,1.5-1.44,2.83-2.6,3.76c-0.38-0.44-1.18-1.14-1.69-1.44c2.13-1.69,3.02-4.88,3.29-7.54
		l2.34,0.27c-0.13,0.82-0.3,1.67-0.53,2.51c0.66,1.39,1.62,2.28,2.74,2.85v-6.4h-7.18v-2.11h7.18v-1.84h-5.51v-2.07h5.51v-1.94h2.32
		v1.94h5.85v2.07h-5.85v1.84h7.33v2.11h-7.33v2.3h6.06v2.01h-6.06V898.47z"/>
	<path d="M818.39,906.71c0,0,0,0.76-0.02,1.03c-0.25,8.49-0.46,11.51-1.23,12.52c-0.53,0.7-1.06,0.91-1.82,1.04
		c-0.72,0.09-1.86,0.08-2.98,0.04c-0.04-0.63-0.34-1.58-0.74-2.2c1.22,0.11,2.34,0.11,2.83,0.11c0.38,0,0.59-0.08,0.84-0.32
		c0.55-0.61,0.8-3.46,1.01-10.16h-4.07c-0.49,1.14-1.08,2.18-1.67,3c-0.3-0.29-0.95-0.72-1.46-1.06v8.87h-5.07v1.39h-2.05v-14.12
		h2.15c0.25-0.95,0.47-2.17,0.55-3.06l2.47,0.34c-0.32,0.95-0.67,1.9-0.99,2.72h2.94v3.08c1.1-1.6,2.01-3.89,2.57-6.12l2.15,0.49
		c-0.19,0.82-0.46,1.62-0.74,2.41H818.39z M807.02,908.82h-3.02v3.08h3.02V908.82z M807.02,917.58v-3.72h-3.02v3.72H807.02z
		 M813.32,916.56c-0.53-1.14-1.71-3-2.64-4.39l1.77-1.01c0.95,1.31,2.2,3.12,2.79,4.22L813.32,916.56z"/>
	<path d="M811.35,939.51c0.49,0.04,1.01,0.06,1.52,0.06c1.06,0,4.71,0,6.06-0.06c-0.3,0.51-0.65,1.5-0.76,2.17h-5.41
		c-3.48,0-5.83-0.49-7.43-2.7c-0.68,1.25-1.56,2.26-2.66,3.02c-0.32-0.42-1.2-1.25-1.71-1.58c1.94-1.2,3.1-3.21,3.53-5.76l2.26,0.34
		c-0.13,0.61-0.29,1.18-0.44,1.73c0.59,1.29,1.52,1.99,2.74,2.37v-4.83h-7.41v-1.99h16.76v1.99h-7.05v1.42h5.85v1.96h-5.85V939.51z
		 M816.59,931.45h-13.2v-6.59h13.2V931.45z M814.29,926.44h-8.7v0.97h8.7V926.44z M814.29,928.89h-8.7v0.99h8.7V928.89z"/>
	<path d="M813.65,944.92c0.87,2.77,2.81,5.47,5.45,6.84c-0.46,0.47-1.23,1.44-1.6,2.09c-0.49-0.32-0.99-0.7-1.44-1.1
		c-0.21,5.6-0.44,7.79-1.1,8.57c-0.48,0.63-0.99,0.82-1.73,0.91c-0.65,0.09-1.75,0.09-2.87,0.06c-0.04-0.68-0.34-1.63-0.74-2.28
		c1.04,0.08,2.03,0.09,2.51,0.09c0.34,0,0.55-0.04,0.76-0.27c0.38-0.42,0.59-2.11,0.76-6.06h-3.74c-0.47,3.65-1.71,6.9-6.63,8.74
		c-0.29-0.65-0.95-1.58-1.5-2.09c4.29-1.39,5.28-3.89,5.66-6.65h-3.21v-1.25c-0.46,0.49-0.93,0.95-1.42,1.37
		c-0.4-0.46-1.37-1.29-1.9-1.67c2.15-1.54,3.84-4.08,4.71-6.93l2.38,0.57c-0.7,2.13-1.75,4.1-2.98,5.72h9.84
		c-1.23-1.35-2.2-2.95-2.87-4.54h-3.02v-2.11H813.65z"/>
	<path d="M813.72,973.78c1.37,1.14,3.25,2.07,5.21,2.56c-0.48,0.46-1.16,1.33-1.5,1.94c-1.14-0.38-2.22-0.89-3.21-1.54v6h-2.36
		v-6.69h1.43c-0.86-0.68-1.62-1.42-2.22-2.28h-1.96c-0.63,0.84-1.43,1.58-2.28,2.26h1.61v1.31c0,1.8-0.55,4.2-4.33,5.59
		c-0.3-0.55-1.06-1.41-1.56-1.82c3.17-1.04,3.55-2.64,3.55-3.86v-0.68c-1.08,0.74-2.24,1.33-3.46,1.77
		c-0.32-0.55-0.99-1.39-1.48-1.86c1.9-0.55,3.78-1.54,5.13-2.7h-3.02v-8.07h13.54v8.07H813.72z M805.53,968.9h3.32v-1.37h-3.32
		V968.9z M805.53,971.96h3.32v-1.37h-3.32V971.96z M814.46,967.53h-3.32v1.37h3.32V967.53z M814.46,970.59h-3.32v1.37h3.32V970.59z"
		/>
	<path d="M807.92,1004.11c1.46-0.55,2.28-1.5,2.28-2.6c-0.06,0-0.11,0-0.17,0c-0.91,0-1.75-0.59-1.75-1.65
		c0-1.01,0.82-1.65,1.8-1.65c1.29,0,2.01,1.03,2.01,2.75c0,2.22-1.31,3.91-3.59,4.67L807.92,1004.11z"/>
	<path d="M807.49,1010.15c-0.7,5.07-2.01,9.18-4.73,11.93c-0.32-0.48-1.29-1.46-1.82-1.86c2.45-2.22,3.61-5.74,4.18-10.07h-3.49
		v-2.18h3.74c0.06-0.68,0.11-1.37,0.15-2.09l2.39,0.15c-0.06,0.67-0.1,1.29-0.17,1.94h10.52v2.18H807.49z M813.63,1010.95
		c-0.06,1.79-0.13,3.42-0.34,4.9c1.04,2.6,2.94,4.81,5.39,5.95c-0.47,0.4-1.14,1.2-1.46,1.77c-1.96-1.04-3.51-2.72-4.69-4.79
		c-0.86,2.17-2.43,3.84-5.41,4.98c-0.25-0.57-0.86-1.42-1.33-1.84c5.3-1.88,5.39-5.53,5.53-10.96H813.63z M808.23,1017.58
		c-0.17-1.22-0.61-3.27-1.03-4.83l1.88-0.57c0.46,1.52,0.97,3.51,1.16,4.69L808.23,1017.58z M814.29,1016.63
		c0.44-1.14,1.03-2.91,1.31-4.27l1.9,0.89c-0.46,1.5-1.01,3.13-1.46,4.24L814.29,1016.63z"/>
	<path d="M814.37,1041.69c1.82,0,2.11-0.42,2.36-2.77c0.57,0.32,1.5,0.68,2.13,0.8c-0.4,3.12-1.18,4.03-4.37,4.03h-6.5
		c-3.53,0-4.62-0.68-4.62-3.4v-6.92c-0.38,0.3-0.76,0.57-1.12,0.84c-0.21-0.53-0.82-1.65-1.22-2.17c2.24-1.35,4.54-3.53,5.81-5.89
		l2.05,0.78c-0.15,0.27-0.32,0.55-0.47,0.82h4.37l0.44-0.11l1.44,1.08c-0.65,0.91-1.46,1.94-2.34,2.83h4.64v7.14h-2.22v-0.65h-9.2
		v2.24c0,1.16,0.32,1.35,2.39,1.35H814.37z M806.98,1029.82c-0.51,0.63-1.03,1.22-1.6,1.79h4.26c0.55-0.51,1.1-1.14,1.6-1.79H806.98
		z M805.55,1035.95h3.53v-2.26h-3.53V1035.95z M814.75,1033.69h-3.46v2.26h3.46V1033.69z"/>
	<path d="M818.39,1049.69c0,0,0,0.76-0.02,1.03c-0.25,8.49-0.46,11.51-1.23,12.52c-0.53,0.7-1.06,0.91-1.82,1.04
		c-0.72,0.09-1.86,0.08-2.98,0.04c-0.04-0.63-0.34-1.58-0.74-2.2c1.22,0.11,2.34,0.11,2.83,0.11c0.38,0,0.59-0.08,0.84-0.32
		c0.55-0.61,0.8-3.46,1.01-10.16h-4.07c-0.49,1.14-1.08,2.18-1.67,3c-0.3-0.29-0.95-0.72-1.46-1.06v8.87h-5.07v1.39h-2.05v-14.12
		h2.15c0.25-0.95,0.47-2.17,0.55-3.06l2.47,0.34c-0.32,0.95-0.67,1.9-0.99,2.72h2.94v3.08c1.1-1.6,2.01-3.89,2.57-6.12l2.15,0.49
		c-0.19,0.82-0.46,1.62-0.74,2.41H818.39z M807.02,1051.8h-3.02v3.08h3.02V1051.8z M807.02,1060.56v-3.72h-3.02v3.72H807.02z
		 M813.32,1059.53c-0.53-1.14-1.71-3-2.64-4.39l1.77-1.01c0.95,1.31,2.2,3.12,2.79,4.22L813.32,1059.53z"/>
	<path d="M818.76,1074.66v2.45h-17.48v-2.45H818.76z"/>
	<path d="M800.96,1104.6c0.68-0.8,1.12-2.11,1.29-3.36l1.52,0.46c-0.23,1.35-0.55,2.79-1.35,3.67L800.96,1104.6z M801.37,1098.9
		c0.95-0.02,2.11-0.06,3.38-0.09v-0.91h-2.92v-1.71h2.92v-0.84h-2.96v-7.16h8.04v7.16h-3.08v0.84h3.04v1.71h-3.04v0.84
		c1.1-0.04,2.24-0.09,3.34-0.13l-0.04,1.75c-3.08,0.19-6.33,0.36-8.62,0.46L801.37,1098.9z M803.48,1093.83h1.6v-4.12h-1.6v0.8
		l0.89-0.27c0.3,0.87,0.55,1.99,0.61,2.74l-1.01,0.3c-0.04-0.72-0.23-1.79-0.49-2.64V1093.83z M805.29,1101.18
		c0.23,1.06,0.38,2.41,0.4,3.32l-1.46,0.17c0.04-0.89-0.11-2.26-0.32-3.32L805.29,1101.18z M807.15,1101.01
		c0.36,1.01,0.7,2.28,0.82,3.15l-1.39,0.29c-0.09-0.86-0.42-2.17-0.78-3.17L807.15,1101.01z M808.08,1089.7h-1.63v3.13
		c0.27-0.76,0.59-1.86,0.72-2.62l0.91,0.32V1089.7z M808.08,1093.83v-2.7c-0.3,0.8-0.61,1.62-0.86,2.17l-0.78-0.29v0.82H808.08z
		 M808.99,1100.61c0.61,0.89,1.21,2.11,1.46,2.94l-1.42,0.59c-0.23-0.84-0.8-2.09-1.39-3.04L808.99,1100.61z M815.18,1093.62v2.93
		h3.04v8.72h-2.17v-0.67h-3.52v0.74h-2.05v-8.8h2.49v-8.91h2.2v3.89h3.67v2.09H815.18z M816.06,1098.59h-3.52v3.97h3.52V1098.59z"/>
	<path d="M807.92,1126.66c1.46-0.55,2.28-1.5,2.28-2.6c-0.06,0-0.11,0-0.17,0c-0.91,0-1.75-0.59-1.75-1.65
		c0-1.01,0.82-1.65,1.8-1.65c1.29,0,2.01,1.03,2.01,2.75c0,2.22-1.31,3.91-3.59,4.67L807.92,1126.66z"/>
	<path d="M817.94,1137.47c-0.86,1.54-1.92,2.93-3.15,4.16c0.51,1.46,1.1,2.34,1.67,2.34c0.4,0,0.63-0.91,0.72-3.15
		c0.49,0.53,1.25,1.04,1.86,1.29c-0.36,3.32-1.06,4.16-2.79,4.16c-1.39,0-2.45-1.14-3.27-3c-1.1,0.91-2.3,1.69-3.51,2.32
		c-0.32-0.53-0.95-1.31-1.5-1.82c1.46-0.67,2.93-1.6,4.24-2.68c-0.42-1.5-0.74-3.23-0.97-5.09h-3.86v2.17
		c0.97-0.17,1.96-0.36,2.93-0.53l0.17,2.05l-3.1,0.63v3.25c0,1.23-0.27,1.84-1.03,2.2c-0.74,0.36-1.88,0.46-3.42,0.44
		c-0.1-0.63-0.47-1.65-0.8-2.28c1.06,0.06,2.17,0.04,2.51,0.02c0.34,0,0.46-0.09,0.46-0.4v-2.75c-1.22,0.25-2.39,0.49-3.4,0.68
		l-0.55-2.28c1.08-0.17,2.45-0.38,3.95-0.65v-2.54h-3.59v-2.15h3.59v-2.17c-1.03,0.17-2.07,0.3-3.04,0.42
		c-0.09-0.55-0.4-1.39-0.64-1.9c2.66-0.36,5.6-0.97,7.54-1.6l1.52,1.92c-0.95,0.29-1.99,0.53-3.1,0.76v2.56h3.65
		c-0.15-1.71-0.21-3.48-0.23-5.21h2.37c-0.04,1.77,0.04,3.53,0.19,5.21h5.17v2.15h-4.94c0.15,1.14,0.34,2.24,0.55,3.21
		c0.69-0.82,1.31-1.67,1.8-2.58L817.94,1137.47z M816.55,1133.29c-0.49-0.87-1.67-2.22-2.7-3.13l1.71-1.16
		c1.01,0.87,2.26,2.13,2.81,3.02L816.55,1133.29z"/>
	<path d="M811.84,1157.13h-3.27v9.44h-2.09v-16.64c-0.38,1.08-0.82,2.2-1.31,3.29v13.39h-2.15v-9.5c-0.38,0.57-0.78,1.1-1.18,1.56
		c-0.17-0.53-0.72-1.84-1.08-2.43c1.54-1.77,2.93-4.54,3.76-7.33l2.09,0.63l-0.12,0.36h5.34V1157.13z M808.57,1151.61v1.08h1.56
		v-1.08H808.57z M810.13,1155.42v-1.12h-1.56v1.12H810.13z M818.34,1163.99c0,1.25-0.27,1.86-1.03,2.19
		c-0.78,0.36-1.98,0.42-3.76,0.42c-0.08-0.63-0.44-1.62-0.72-2.19c1.16,0.08,2.47,0.06,2.85,0.04c0.36,0,0.49-0.11,0.49-0.47v-6.84
		h-3.48v-7.24h5.64V1163.99z M814.48,1151.61v1.08h1.69v-1.08H814.48z M816.17,1155.42v-1.12h-1.69v1.12H816.17z"/>
	<path d="M803.39,1182.06c-0.13,1.67-0.44,3.48-0.84,4.62c-0.36-0.19-1.2-0.44-1.63-0.55c0.44-1.12,0.66-2.81,0.76-4.33
		L803.39,1182.06z M801.66,1176.74c-0.02,0.02-0.02,0.06-0.02,0.08c-0.09-0.38-0.42-1.31-0.63-1.8c0.36-0.09,0.69-0.46,1.04-1.03
		c0.4-0.51,1.58-2.64,2.24-4.64l1.88,0.76c-0.68,1.56-1.6,3.23-2.53,4.58l1.39-0.09c0.48-0.84,0.95-1.73,1.35-2.62l1.71,1.06
		c-1.08,2.05-2.53,4.18-4.01,5.91l2.2-0.29c-0.19-0.53-0.42-1.08-0.64-1.58l1.5-0.55c0.57,1.14,1.12,2.62,1.29,3.55l-1.6,0.65
		c-0.02-0.15-0.06-0.32-0.09-0.51c-3.88,0.61-4.52,0.8-4.96,0.99c-0.09-0.38-0.4-1.31-0.63-1.82c0.47-0.11,0.88-0.57,1.46-1.27
		c0.25-0.29,0.74-0.93,1.29-1.75c-1.54,0.17-1.98,0.29-2.26,0.42V1176.74z M805.36,1181.66c0.25,1.25,0.46,2.87,0.51,3.95
		l-1.63,0.42c-0.04-1.1-0.23-2.75-0.42-3.99L805.36,1181.66z M807.38,1181.11c0.42,1.14,0.89,2.6,1.1,3.55l-1.54,0.57
		c-0.17-0.99-0.63-2.49-1.03-3.65L807.38,1181.11z M818.45,1170.21v16.32h-2.16v-0.89h-5.26v1.04h-2.05v-16.47H818.45z
		 M811.02,1172.49v4.6h1.52v-4.6H811.02z M811.02,1183.54h1.52v-4.37h-1.52V1183.54z M816.29,1172.49h-1.69v4.6h1.69V1172.49z
		 M816.29,1183.54v-4.37h-1.69v4.37H816.29z"/>
	<path d="M804.91,1196.69c-0.27,2.45-0.74,5.74-1.39,7.88l-2.28-0.91c0.67-2.01,1.22-4.86,1.46-7.39L804.91,1196.69z
		 M808.48,1195.15v8.82c0,0.89,0.15,1.04,1.06,1.04h2.71c0.95,0,1.12-0.61,1.25-3.57c0.53,0.4,1.5,0.8,2.13,0.95
		c-0.27,3.61-0.88,4.73-3.21,4.73h-3.15c-2.47,0-3.15-0.76-3.15-3.15v-8.82H808.48z M808.31,1190.04c1.71,1.08,4.12,2.75,5.26,3.93
		l-1.67,1.77c-1.03-1.16-3.36-2.96-5.13-4.16L808.31,1190.04z M816.59,1195.67c1.06,2.26,2.05,5.11,2.45,7.07l-2.3,0.95
		c-0.29-1.94-1.27-4.94-2.26-7.16L816.59,1195.67z"/>
	<path d="M818.39,1213.09c0,0,0,0.76-0.02,1.03c-0.25,8.49-0.46,11.51-1.23,12.52c-0.53,0.7-1.06,0.91-1.82,1.04
		c-0.72,0.09-1.86,0.08-2.98,0.04c-0.04-0.63-0.34-1.58-0.74-2.2c1.22,0.11,2.34,0.11,2.83,0.11c0.38,0,0.59-0.08,0.84-0.32
		c0.55-0.61,0.8-3.46,1.01-10.16h-4.07c-0.49,1.14-1.08,2.18-1.67,3c-0.3-0.29-0.95-0.72-1.46-1.06v8.87h-5.07v1.39h-2.05v-14.12
		h2.15c0.25-0.95,0.47-2.17,0.55-3.06l2.47,0.34c-0.32,0.95-0.67,1.9-0.99,2.72h2.94v3.08c1.1-1.6,2.01-3.89,2.57-6.12l2.15,0.49
		c-0.19,0.82-0.46,1.62-0.74,2.41H818.39z M807.02,1215.2h-3.02v3.08h3.02V1215.2z M807.02,1223.96v-3.72h-3.02v3.72H807.02z
		 M813.32,1222.93c-0.53-1.14-1.71-3-2.64-4.39l1.77-1.01c0.95,1.31,2.2,3.12,2.79,4.22L813.32,1222.93z"/>
	<path d="M817.18,1243.53c-0.29-0.23-0.59-0.48-0.95-0.74v5.43h-2.22v-0.44h-8v0.49h-2.13v-5.38c-0.51,0.23-1.01,0.44-1.5,0.63
		c-0.32-0.55-0.99-1.33-1.45-1.79c1.73-0.49,3.59-1.29,5.07-2.24h-4.41v-1.82h3.08c-0.15-0.42-0.36-0.89-0.57-1.23l0.78-0.15
		c-0.06-0.46-0.27-1.12-0.46-1.5c3.42-0.08,7.43-0.32,9.86-0.72l1.16,1.52c-0.48,0.08-1.01,0.15-1.56,0.21l2.13,0.53
		c-0.32,0.47-0.63,0.93-0.89,1.35h3.31v1.82h-3.84c1.69,0.99,3.3,2.03,4.39,2.83L817.18,1243.53z M803.92,1235.66h-2.09v-3.76h6.8
		c-0.12-0.28-0.25-0.57-0.38-0.83l2.32-0.65c0.27,0.46,0.53,0.97,0.74,1.48h6.84v3.76h-2.21v-1.86h-12.02V1235.66z M808.88,1243.03
		h-2.87v0.91h2.87V1243.03z M806.01,1246.22h2.87v-0.93h-2.87V1246.22z M808.88,1236.21c-0.91,0.04-1.79,0.08-2.66,0.1
		c0.27,0.44,0.49,0.97,0.61,1.37h2.05V1236.21z M808.88,1239.58c-0.72,0.68-1.54,1.33-2.45,1.92h2.45V1239.58z M814.01,1243.03h-3
		v0.91h3V1243.03z M814.01,1246.22v-0.93h-3v0.93H814.01z M813.04,1237.67c0.29-0.61,0.61-1.31,0.82-1.86
		c-0.89,0.09-1.86,0.19-2.83,0.27v1.6H813.04z M814.39,1241.49c-1.03-0.68-2.17-1.37-3.29-1.99h-0.08v1.99H814.39z"/>
	<path d="M807.47,1263.19c-0.32-0.48-0.85-1.18-1.39-1.82v7.37h-2.22v-6.97c-0.72,0.65-1.42,1.23-2.16,1.67
		c-0.15-0.63-0.59-1.88-0.86-2.3c1.9-1.04,3.74-2.91,4.88-4.92h-4.33v-2.03h3.23c-0.36-0.67-0.89-1.46-1.39-2.05l1.73-1.06
		c0.65,0.72,1.37,1.69,1.69,2.39l-1.06,0.72h1.35l0.4-0.09l1.2,0.87c-0.55,1.39-1.31,2.74-2.18,3.97c0.76,0.67,2.15,2.01,2.51,2.39
		L807.47,1263.19z M816.78,1266.71c0.32,0,0.38-0.25,0.44-2.15c0.38,0.34,1.27,0.68,1.84,0.84c-0.19,2.58-0.72,3.27-2.01,3.27h-1.25
		c-1.67,0-2.03-0.65-2.03-2.53v-3.72h-1.06c-0.27,3.1-1.01,5.19-4.65,6.36c-0.19-0.51-0.74-1.27-1.12-1.65
		c3.04-0.87,3.55-2.37,3.76-4.71h-1.25v-10.64h8.42v10.64h-1.99v3.72c0,0.51,0.04,0.57,0.3,0.57H816.78z M811.48,1254.79h4.2v-1.23
		h-4.2V1254.79z M811.48,1257.68h4.2v-1.22h-4.2V1257.68z M811.48,1260.61h4.2v-1.23h-4.2V1260.61z"/>
	<path d="M816.44,1286.87h2.21v1.75h-17.29v-1.75h2.24v-2.89c-0.25,0.27-0.55,0.53-0.87,0.74l-1.52-1.33
		c0.95-0.57,1.67-1.56,2.03-2.54l1.75,0.68c-0.21,0.55-0.46,1.12-0.78,1.63h2.72c-0.02-0.51-0.17-1.33-0.38-1.96l1.92-0.3
		c0.23,0.59,0.42,1.41,0.47,1.92l-1.9,0.34h4.24c-0.13-0.55-0.46-1.31-0.78-1.88l1.71-0.44h-10.6v-1.62h7.11v-0.72h-5.36v-1.52h5.36
		v-0.72h-7.24v-1.61h7.24v-0.72h-5.26v-1.52h5.26v-0.97h2.24v0.97h5.7v2.24h1.88v1.61h-1.88v2.24h-5.7v0.72h7.49v1.62h-1.96
		c0.89,0.85,1.88,1.94,2.36,2.72l-1.77,0.86c-0.15-0.27-0.38-0.59-0.63-0.93V1286.87z M805.71,1286.87h1.44v-1.99h-1.44V1286.87z
		 M809.2,1284.87v1.99h1.5v-1.99H809.2z M810.95,1274.65h3.48v-0.72h-3.48V1274.65z M810.95,1276.99h3.48v-0.72h-3.48V1276.99z
		 M812.37,1280.84c0.4,0.57,0.74,1.39,0.89,1.9l-1.44,0.42h4.37c-0.49-0.63-1.06-1.27-1.58-1.8l1.31-0.51H812.37z M814.22,1284.87
		h-1.46v1.99h1.46V1284.87z"/>
	<path d="M809.33,1306.95c-2.66,0.65-5.57,1.33-7.73,1.82l-0.51-2.11c1.29-0.23,3.02-0.57,4.85-0.95l-0.46-0.11
		c0.27-1.06,0.57-2.68,0.67-3.88l2.2,0.48c-0.32,1.1-0.65,2.28-0.95,3.21l1.75-0.36L809.33,1306.95z M809.05,1294.81h-7.64v-2.07
		h7.64V1294.81z M808.63,1301.46h-6.71v-5.32h6.71V1301.46z M802.78,1305.73c-0.02-0.89-0.27-2.32-0.63-3.38l1.8-0.46
		c0.4,1.06,0.68,2.43,0.74,3.33L802.78,1305.73z M806.62,1297.91h-2.79v1.79h2.79V1297.91z M813.59,1307.1
		c-1.03,0.97-2.75,1.98-4.22,2.53c-0.32-0.4-0.99-1.04-1.48-1.44c1.43-0.49,3.06-1.46,3.86-2.26L813.59,1307.1z M812.45,1295.8
		c0.08-0.42,0.13-0.85,0.19-1.27h-3.13v-1.9h9.16v1.9h-3.55c-0.13,0.44-0.27,0.87-0.4,1.27h3.53v10.03h-8.28v-10.03H812.45z
		 M816.08,1297.47h-4.07v1.2h4.07V1297.47z M816.08,1300.2h-4.07v1.2h4.07V1300.2z M816.08,1302.98h-4.07v1.22h4.07V1302.98z
		 M816.08,1306.07c1.01,0.67,2.43,1.67,3.17,2.36l-1.8,1.2c-0.65-0.68-2.03-1.77-3.08-2.49L816.08,1306.07z"/>
	<path d="M807.92,1330.91c1.46-0.55,2.28-1.5,2.28-2.6c-0.06,0-0.11,0-0.17,0c-0.91,0-1.75-0.59-1.75-1.65
		c0-1.01,0.82-1.65,1.8-1.65c1.29,0,2.01,1.03,2.01,2.75c0,2.22-1.31,3.91-3.59,4.67L807.92,1330.91z"/>
	<path d="M816.44,1348.14h2.21v1.75h-17.29v-1.75h2.24v-2.89c-0.25,0.27-0.55,0.53-0.87,0.74l-1.52-1.33
		c0.95-0.57,1.67-1.56,2.03-2.55l1.75,0.68c-0.21,0.55-0.46,1.12-0.78,1.63h2.72c-0.02-0.51-0.17-1.33-0.38-1.96l1.92-0.3
		c0.23,0.59,0.42,1.41,0.47,1.92l-1.9,0.34h4.24c-0.13-0.55-0.46-1.31-0.78-1.88l1.71-0.44h-10.6v-1.61h7.11v-0.72h-5.36v-1.52h5.36
		v-0.72h-7.24v-1.61h7.24v-0.72h-5.26v-1.52h5.26v-0.97h2.24v0.97h5.7v2.24h1.88v1.61h-1.88v2.24h-5.7v0.72h7.49v1.61h-1.96
		c0.89,0.86,1.88,1.94,2.36,2.72l-1.77,0.86c-0.15-0.27-0.38-0.59-0.63-0.93V1348.14z M805.71,1348.14h1.44v-1.99h-1.44V1348.14z
		 M809.2,1346.15v1.99h1.5v-1.99H809.2z M810.95,1335.92h3.48v-0.72h-3.48V1335.92z M810.95,1338.26h3.48v-0.72h-3.48V1338.26z
		 M812.37,1342.12c0.4,0.57,0.74,1.39,0.89,1.9l-1.44,0.42h4.37c-0.49-0.63-1.06-1.27-1.58-1.8l1.31-0.51H812.37z M814.22,1346.15
		h-1.46v1.99h1.46V1346.15z"/>
	<path d="M809.33,1368.22c-2.66,0.65-5.57,1.33-7.73,1.82l-0.51-2.11c1.29-0.23,3.02-0.57,4.85-0.95l-0.46-0.11
		c0.27-1.06,0.57-2.68,0.67-3.88l2.2,0.48c-0.32,1.1-0.65,2.28-0.95,3.21l1.75-0.36L809.33,1368.22z M809.05,1356.08h-7.64v-2.07
		h7.64V1356.08z M808.63,1362.73h-6.71v-5.32h6.71V1362.73z M802.78,1367.01c-0.02-0.89-0.27-2.32-0.63-3.38l1.8-0.46
		c0.4,1.06,0.68,2.43,0.74,3.33L802.78,1367.01z M806.62,1359.18h-2.79v1.79h2.79V1359.18z M813.59,1368.38
		c-1.03,0.97-2.75,1.98-4.22,2.53c-0.32-0.4-0.99-1.04-1.48-1.44c1.43-0.49,3.06-1.46,3.86-2.26L813.59,1368.38z M812.45,1357.07
		c0.08-0.42,0.13-0.85,0.19-1.27h-3.13v-1.9h9.16v1.9h-3.55c-0.13,0.44-0.27,0.87-0.4,1.27h3.53v10.03h-8.28v-10.03H812.45z
		 M816.08,1358.74h-4.07v1.2h4.07V1358.74z M816.08,1361.48h-4.07v1.2h4.07V1361.48z M816.08,1364.25h-4.07v1.22h4.07V1364.25z
		 M816.08,1367.35c1.01,0.67,2.43,1.67,3.17,2.36l-1.8,1.2c-0.65-0.68-2.03-1.77-3.08-2.49L816.08,1367.35z"/>
	<path d="M818.45,1376.19v2.17h-10.16c-0.63,1.31-1.35,2.58-2.22,3.74v9.19h-2.3v-6.61c-0.53,0.49-1.06,0.91-1.67,1.33
		c-0.25-0.61-0.76-1.63-1.12-2.18c1.99-1.29,3.59-3.29,4.73-5.47h-4.12v-2.17h5.13c0.32-0.89,0.61-1.77,0.84-2.64l2.38,0.57
		c-0.21,0.7-0.46,1.39-0.72,2.07H818.45z M813.89,1388.74h4.5v2.09h-11.38v-2.09h4.6v-4.33h-3.86v-2.09h3.86v-3.15h2.28v3.15h3.76
		v2.09h-3.76V1388.74z"/>
	<path d="M817.94,1402.99c-0.86,1.54-1.92,2.93-3.15,4.16c0.51,1.46,1.1,2.34,1.67,2.34c0.4,0,0.63-0.91,0.72-3.15
		c0.49,0.53,1.25,1.04,1.86,1.29c-0.36,3.32-1.06,4.16-2.79,4.16c-1.39,0-2.45-1.14-3.27-3c-1.1,0.91-2.3,1.69-3.51,2.32
		c-0.32-0.53-0.95-1.31-1.5-1.82c1.46-0.67,2.93-1.6,4.24-2.68c-0.42-1.5-0.74-3.23-0.97-5.09h-3.86v2.17
		c0.97-0.17,1.96-0.36,2.93-0.53l0.17,2.05l-3.1,0.63v3.25c0,1.23-0.27,1.84-1.03,2.2c-0.74,0.36-1.88,0.46-3.42,0.44
		c-0.1-0.63-0.47-1.65-0.8-2.28c1.06,0.06,2.17,0.04,2.51,0.02c0.34,0,0.46-0.09,0.46-0.4v-2.75c-1.22,0.25-2.39,0.49-3.4,0.68
		l-0.55-2.28c1.08-0.17,2.45-0.38,3.95-0.65v-2.54h-3.59v-2.15h3.59v-2.17c-1.03,0.17-2.07,0.3-3.04,0.42
		c-0.09-0.55-0.4-1.39-0.64-1.9c2.66-0.36,5.6-0.97,7.54-1.6l1.52,1.92c-0.95,0.29-1.99,0.53-3.1,0.76v2.56h3.65
		c-0.15-1.71-0.21-3.48-0.23-5.21h2.37c-0.04,1.77,0.04,3.53,0.19,5.21h5.17v2.15h-4.94c0.15,1.14,0.34,2.24,0.55,3.21
		c0.69-0.82,1.31-1.67,1.8-2.58L817.94,1402.99z M816.55,1398.81c-0.49-0.87-1.67-2.22-2.7-3.13l1.71-1.16
		c1.01,0.87,2.26,2.13,2.81,3.02L816.55,1398.81z"/>
	<path d="M811.84,1422.66h-3.27v9.44h-2.09v-16.64c-0.38,1.08-0.82,2.2-1.31,3.29v13.39h-2.15v-9.5c-0.38,0.57-0.78,1.1-1.18,1.56
		c-0.17-0.53-0.72-1.84-1.08-2.43c1.54-1.77,2.93-4.54,3.76-7.33l2.09,0.63l-0.12,0.36h5.34V1422.66z M808.57,1417.13v1.08h1.56
		v-1.08H808.57z M810.13,1420.95v-1.12h-1.56v1.12H810.13z M818.34,1429.52c0,1.25-0.27,1.86-1.03,2.19
		c-0.78,0.36-1.98,0.42-3.76,0.42c-0.08-0.63-0.44-1.62-0.72-2.19c1.16,0.08,2.47,0.06,2.85,0.04c0.36,0,0.49-0.11,0.49-0.47v-6.84
		h-3.48v-7.24h5.64V1429.52z M814.48,1417.13v1.08h1.69v-1.08H814.48z M816.17,1420.95v-1.12h-1.69v1.12H816.17z"/>
	<path d="M809.94,1450.34c0,0.97-0.19,1.5-0.84,1.82c-0.61,0.32-1.48,0.36-2.64,0.36c-0.11-0.57-0.44-1.41-0.72-1.92
		c0.7,0.04,1.46,0.04,1.71,0.02c0.23,0,0.3-0.08,0.3-0.3v-1.69h-3.34c-0.21,1.44-0.64,2.87-1.4,3.95c-0.34-0.36-1.24-1.04-1.69-1.27
		c1.18-1.71,1.29-4.1,1.29-5.96V1441h7.33V1450.34z M818.58,1437.65v2.03h-17.19v-2.03h4.05c-0.34-0.65-0.89-1.46-1.43-2.09
		l2.15-0.74c0.68,0.72,1.44,1.75,1.77,2.47l-1.04,0.36h5.28c0.57-0.87,1.18-1.99,1.56-2.87l2.45,0.72
		c-0.46,0.74-0.97,1.48-1.44,2.15H818.58z M807.76,1446.98v-1.24h-3.12c0,0.4-0.02,0.8-0.06,1.24H807.76z M804.64,1442.76v1.31h3.12
		v-1.31H804.64z M813.65,1448.94h-2.07v-7.75h2.07V1448.94z M815.36,1440.65h2.22v9.44c0,1.12-0.21,1.67-0.97,2.03
		c-0.72,0.34-1.75,0.4-3.12,0.38c-0.12-0.61-0.47-1.54-0.82-2.13c0.97,0.04,1.96,0.04,2.28,0.02c0.3,0,0.4-0.08,0.4-0.34V1440.65z"
		/>
	<path d="M806.48,1464.14c-0.34,1.73-0.86,3.51-1.5,4.94c0.3,0.19,0.67,0.46,1.18,0.76c1.29,0.78,3.08,0.89,5.3,0.89
		c2.19,0,5.59-0.19,7.68-0.49c-0.25,0.61-0.63,1.71-0.65,2.32c-1.58,0.09-4.92,0.23-7.14,0.23c-2.53,0-4.12-0.21-5.49-1.01
		c-0.8-0.44-1.46-1.06-1.86-1.06c-0.44,0-1.1,1.29-1.58,2.37l-1.5-2.15c0.64-0.8,1.35-1.42,1.99-1.8c0.42-0.95,0.8-2.15,1.08-3.31
		h-2.39c0.44-1.12,0.95-2.64,1.37-4.12h-1.71v-2.01h4.45c-0.4,1.33-0.86,2.85-1.29,4.18h0.76l0.34-0.08L806.48,1464.14z
		 M803.27,1459.14c-0.21-0.86-0.7-2.24-1.03-3.27l1.99-0.61c0.36,1.03,0.84,2.3,1.1,3.15L803.27,1459.14z M807.62,1462.1
		c-0.32,0.38-0.64,0.7-0.97,1.03c-0.21-0.46-0.84-1.58-1.21-2.07c1.52-1.37,2.89-3.53,3.65-5.76l2.05,0.57
		c-0.29,0.82-0.65,1.61-1.03,2.41h2.83c-0.25-0.68-0.57-1.42-0.89-2.05l2.13-0.61c0.47,0.82,0.97,1.86,1.21,2.66h3v1.9h-3.84v1.08
		h3.06v1.82h-3.06v1.18h2.98v1.82h-2.98v1.2h4.05v1.9h-8.79v0.8h-2.19V1462.1z M812.41,1460.19h-2.6v1.08h2.6V1460.19z
		 M812.41,1463.09h-2.6v1.18h2.6V1463.09z M812.41,1466.09h-2.6v1.2h2.6V1466.09z"/>
	<path d="M817.64,1480.25c-2.39,3.55-6.33,7.29-10.14,9.8c1.18,0.72,2.77,0.85,4.77,0.85c1.94,0,4.85-0.19,6.65-0.46
		c-0.23,0.63-0.61,1.8-0.65,2.41c-1.35,0.09-4.22,0.21-6.08,0.21c-2.34,0-3.86-0.25-5.15-1.04c-0.82-0.47-1.45-1.12-1.86-1.12
		c-0.59,0-1.44,1.27-2.22,2.49l-1.63-2.13c1.37-1.46,2.87-2.47,3.91-2.47h0.11c3.12-1.86,6.36-4.79,8.4-7.37h-11.46v-2.22h7.41
		c-0.46-0.82-1.16-1.86-1.71-2.66l2.03-1.08c0.7,0.95,1.69,2.26,2.13,3.08l-1.16,0.67h4.46l0.44-0.11L817.64,1480.25z"/>
	<path d="M810.83,1499.78v2.98l0.38-0.44c2.05,1.03,5.03,2.66,6.48,3.84l-1.67,2.07c-1.1-0.97-3.27-2.36-5.19-3.46v9.02h-2.43
		v-14.02h-6.86v-2.28h16.93v2.28H810.83z"/>
	<path d="M815.26,1527.44c-0.53,1.31-1.21,2.38-2.09,3.23c1.96,0.67,3.72,1.33,5.07,1.88l-1.61,1.82c-1.43-0.67-3.34-1.42-5.49-2.18
		c-2,1.1-4.62,1.69-8.09,2.03c-0.17-0.63-0.55-1.46-0.93-1.96c2.51-0.15,4.52-0.47,6.12-1.04c-1.4-0.46-2.89-0.89-4.39-1.27
		c0.57-0.7,1.18-1.56,1.77-2.51h-4.12v-2.05h5.32c0.34-0.63,0.63-1.25,0.87-1.84l2.3,0.48c-0.19,0.46-0.42,0.89-0.66,1.37h4.27
		c0.1-0.34,0.19-0.72,0.27-1.08l0.42,0.08l-1.79-0.87c0.86-1.08,1.94-2.85,2.55-4.24l2.18,0.99c-0.86,1.5-1.94,3.08-2.79,4.16
		l1.67,0.32c-0.06,0.23-0.09,0.44-0.15,0.65h2.58v2.05H815.26z M817.26,1518.59c-4.07,0.82-9.8,1.22-14.63,1.31
		c-0.04-0.57-0.3-1.41-0.51-1.92c4.88-0.15,10.49-0.61,14.04-1.31L817.26,1518.59z M804.38,1524.42c-0.25-0.93-0.95-2.41-1.67-3.51
		l1.94-0.72c0.72,1.04,1.5,2.45,1.79,3.4L804.38,1524.42z M808.17,1527.44c-0.3,0.51-0.61,0.99-0.91,1.44
		c1.18,0.32,2.36,0.67,3.5,1.03c0.84-0.65,1.5-1.46,2.03-2.47H808.17z M809.22,1523.72c-0.09-0.89-0.57-2.28-1.12-3.34l2.01-0.57
		c0.59,1.03,1.1,2.38,1.25,3.29L809.22,1523.72z"/>
	<path d="M818.58,1546.81c0,0,0,0.53-0.02,0.76c-0.1,4.22-0.19,5.89-0.61,6.4c-0.32,0.44-0.63,0.59-1.08,0.67
		c-0.36,0.08-0.95,0.08-1.6,0.08c-0.02-0.57-0.21-1.31-0.47-1.8c0.47,0.06,0.86,0.06,1.08,0.06c0.19,0,0.32-0.06,0.46-0.23
		c0.19-0.29,0.27-1.35,0.34-4.22h-0.89c-0.32,2.62-1.08,4.63-2.74,6.16c-0.23-0.44-0.78-1.08-1.21-1.42
		c-0.06,0.36-0.15,0.59-0.27,0.74c-0.3,0.44-0.61,0.59-1.04,0.65c-0.36,0.08-0.93,0.08-1.52,0.08c-0.04-0.55-0.19-1.29-0.46-1.75
		c0.46,0.04,0.78,0.06,1.01,0.06c0.19,0,0.32-0.04,0.44-0.23c0.19-0.29,0.29-1.37,0.36-4.27h-0.86c-0.3,2.66-1.03,4.71-2.62,6.25
		c-0.25-0.44-0.8-1.06-1.22-1.41c1.24-1.16,1.77-2.77,1.98-4.84h-1.41v-1.71h1.54c0.02-0.55,0.04-1.14,0.04-1.75h0.55
		c-0.23-0.46-0.72-1.1-1.08-1.48v0.19h-1.92v10.92h-2.15v-10.92h-2.09v-2.05h2.09v-4.73h2.15v4.73h1.92v1.79
		c1.96-0.68,3-1.61,3.57-2.87h-2.81v-1.79h3.32c0.1-0.57,0.15-1.2,0.19-1.86h2.13c-0.04,0.67-0.11,1.27-0.21,1.86h4.54l-0.06,0.76
		c-0.21,2.74-0.46,3.95-0.95,4.48c-0.38,0.42-0.78,0.53-1.35,0.59c-0.46,0.06-1.27,0.08-2.15,0.04c-0.04-0.57-0.25-1.37-0.57-1.88
		c0.74,0.08,1.44,0.08,1.77,0.08c0.27,0,0.44-0.02,0.59-0.17c0.21-0.21,0.38-0.8,0.51-2.11h-2.79c-0.69,1.96-2.01,3.4-4.6,4.43h1.29
		c-0.02,0.61-0.04,1.2-0.06,1.75h2.53c0,0,0,0.51-0.02,0.74c-0.06,3-0.13,4.71-0.3,5.64c1.25-1.1,1.79-2.66,2.01-4.67h-1.29v-1.71
		h1.42c0.02-0.57,0.04-1.18,0.06-1.82h1.96c-0.02,0.63-0.04,1.24-0.08,1.82H818.58z"/>
	<path d="M807.92,1576.01c1.46-0.55,2.28-1.5,2.28-2.6c-0.06,0-0.11,0-0.17,0c-0.91,0-1.75-0.59-1.75-1.65
		c0-1.01,0.82-1.65,1.8-1.65c1.29,0,2.01,1.03,2.01,2.75c0,2.22-1.31,3.91-3.59,4.67L807.92,1576.01z"/>
	<path d="M817.92,1580.23v4.43h-2.38v-2.26h-11.27v2.26h-2.26v-4.43h7.11c-0.21-0.63-0.51-1.35-0.82-1.96l2.21-0.65
		c0.47,0.82,0.91,1.86,1.12,2.6H817.92z M813.66,1592.9c1.46,0,1.69-0.42,1.92-2.87c0.57,0.38,1.6,0.78,2.26,0.93
		c-0.38,3.23-1.12,4.18-4.06,4.18h-5.11c-3.25,0-4.2-0.74-4.2-3.34v-7.85h2.37v3.68c2.7-0.72,5.41-1.67,7.2-2.6l1.8,1.8
		c-2.58,1.16-5.91,2.13-9.01,2.85v2.07c0,1.01,0.27,1.14,1.92,1.14H813.66z"/>
	<path d="M804.55,1607.4c-0.78-0.55-2.41-1.44-3.55-2.05l1.23-1.67c1.04,0.51,2.73,1.33,3.57,1.84L804.55,1607.4z M806.92,1609.77
		c-1.01,1.98-2.2,4.14-3.34,5.98l-1.92-1.52c1.03-1.42,2.47-3.78,3.59-5.98L806.92,1609.77z M805.52,1602.34
		c-0.74-0.61-2.32-1.58-3.4-2.22l1.33-1.6c1.04,0.57,2.64,1.46,3.44,2.01L805.52,1602.34z M817.94,1613.53
		c0,1.1-0.19,1.67-0.91,2.03c-0.7,0.34-1.73,0.38-3.15,0.38c-0.08-0.61-0.38-1.54-0.68-2.13c0.88,0.06,1.86,0.06,2.17,0.04
		c0.29-0.02,0.38-0.1,0.38-0.34v-2.6c-1.9,0.51-3.88,1.01-5.45,1.41l-0.67-1.86c1.58-0.3,3.88-0.82,6.12-1.35v-3.51h-6.12v3.8
		c0,2.13-0.15,4.98-1.2,6.73c-0.38-0.36-1.31-1.01-1.8-1.24c0.87-1.54,0.93-3.7,0.93-5.49v-5.85h4.1v-5.3h2.28v5.3h4.01V1613.53z
		 M808.74,1603.16c-0.23-0.93-0.97-2.41-1.71-3.51l1.9-0.84c0.76,1.04,1.58,2.43,1.86,3.42L808.74,1603.16z M810.8,1606.26
		c1.42,0.32,3.29,0.97,4.25,1.52l-0.97,1.54c-0.93-0.57-2.77-1.31-4.2-1.69L810.8,1606.26z M818.64,1599.46
		c-0.61,1.33-1.33,2.68-1.9,3.57l-1.96-0.72c0.55-0.97,1.27-2.49,1.65-3.63L818.64,1599.46z"/>
	<path d="M811.94,1629.25c1.33,2.56,3.67,4.29,7.2,5.01c-0.53,0.49-1.22,1.5-1.52,2.15c-3.7-0.97-6-2.92-7.54-5.91
		c-1.06,2.41-3.23,4.56-7.52,5.87c-0.27-0.53-0.95-1.52-1.44-1.98c3.99-1.18,5.91-3.06,6.82-5.15h-6.46v-2.28h7.11
		c0.11-0.76,0.15-1.54,0.15-2.28v-0.72h-3.65c-0.47,0.95-1.01,1.8-1.54,2.47c-0.51-0.36-1.6-0.95-2.2-1.22
		c1.39-1.46,2.49-3.91,3.08-6.35l2.39,0.51c-0.21,0.78-0.46,1.54-0.72,2.28h2.64v-3h2.38v3h5.83v2.3h-5.83v0.72
		c0,0.74-0.02,1.52-0.11,2.28h7.56v2.28H811.94z"/>
	<path d="M817.81,1641.62c-1.75,1.86-4.16,3.88-6.54,5.28v7.33c0,1.29-0.3,1.9-1.24,2.24c-0.95,0.34-2.3,0.4-4.12,0.38
		c-0.12-0.67-0.55-1.67-0.91-2.28c1.35,0.06,2.91,0.04,3.32,0.04s0.57-0.11,0.57-0.44v-8.42c1.48-0.78,3.12-1.99,4.37-3.12H802.3
		v-2.22h13.18l0.49-0.13L817.81,1641.62z"/>
	<path d="M807.92,1678.13c1.46-0.55,2.28-1.5,2.28-2.6c-0.06,0-0.11,0-0.17,0c-0.91,0-1.75-0.59-1.75-1.65
		c0-1.01,0.82-1.65,1.8-1.65c1.29,0,2.01,1.03,2.01,2.75c0,2.22-1.31,3.91-3.59,4.67L807.92,1678.13z"/>
	<path d="M817.33,1683.68c-0.36,1.22-0.89,2.24-1.56,3.1c0.86,0.63,1.94,1.14,3.17,1.46c-0.42,0.4-0.99,1.24-1.23,1.75
		c-1.29-0.44-2.39-1.06-3.29-1.84c-0.95,0.76-2.05,1.35-3.36,1.8c-0.19-0.42-0.86-1.23-1.25-1.62c1.29-0.36,2.39-0.85,3.25-1.54
		c-0.42-0.53-0.8-1.08-1.12-1.65c-0.27,0.32-0.53,0.63-0.82,0.87c-0.23-0.3-0.74-0.87-1.16-1.29v1.94h-1.8
		c0.66,0.38,1.37,0.84,1.77,1.18l-0.93,1.25c-0.44-0.44-1.29-1.04-2.03-1.48v1.94h-1.98v-1.5c-0.78,0.78-1.71,1.44-2.58,1.88
		c-0.28-0.44-0.85-1.1-1.27-1.42c1.08-0.4,2.22-1.08,3.06-1.84h-2.22v-3.61h3.02v-0.65h-3.46v-1.58h3.46v-0.91h1.98v0.91h3.29v1.58
		h-3.29v0.65h3v1.12c1.08-1.04,1.92-2.58,2.36-4.22l2.01,0.47c-0.15,0.49-0.32,0.97-0.49,1.44h4.75v1.8H817.33z M811.06,1695.37h7.6
		v1.86h-17.31v-1.86h2.81v-2.87h2.17v2.87h2.51v-3.57h-6.35v-1.82h14.99v1.82h-6.42v0.95h4.9v1.65h-4.9V1695.37z M803.71,1685.35
		h1.27v-0.97h-1.27V1685.35z M806.96,1684.38v0.97h1.16v-0.97H806.96z M807.47,1686.67h-0.51v0.63L807.47,1686.67z M813.09,1683.68
		c0.3,0.63,0.7,1.22,1.24,1.81c0.38-0.53,0.66-1.12,0.89-1.81H813.09z"/>
	<path d="M806.62,1701.01c-0.4,1.23-0.89,2.51-1.45,3.74v13.34h-2.15v-9.38c-0.34,0.51-0.7,1.01-1.04,1.42
		c-0.19-0.53-0.74-1.84-1.1-2.43c1.48-1.79,2.85-4.56,3.65-7.31L806.62,1701.01z M808.06,1714.9h-1.9v-11.8h1.9v1.33
		c1.39-0.99,2.58-2.47,3.23-4.08l2.01,0.55c-0.17,0.38-0.34,0.78-0.55,1.16h5.85v1.71h-0.91c-0.61,1.1-1.42,2.07-2.36,2.87
		c1.04,0.53,2.28,0.95,3.72,1.2c-0.44,0.42-0.99,1.27-1.29,1.82c-1.62-0.38-3-1.03-4.18-1.77c-1.25,0.74-2.68,1.35-4.24,1.8
		c-0.21-0.48-0.84-1.41-1.23-1.84c1.39-0.32,2.68-0.76,3.8-1.33c-0.51-0.47-0.93-0.99-1.29-1.5c-0.44,0.44-0.87,0.84-1.33,1.18
		c-0.23-0.38-0.82-1.12-1.23-1.54V1714.9z M811.82,1713.64c-0.65,1.31-1.71,2.68-2.68,3.53c-0.36-0.32-1.21-0.85-1.69-1.1
		c0.99-0.76,1.88-1.88,2.43-2.96L811.82,1713.64z M814.46,1712.58v5.45h-2.09v-5.45h-3.52v-1.96h3.52v-1.62h2.09v1.62h3.86v1.96
		H814.46z M811.88,1703.76c0.44,0.61,0.99,1.2,1.67,1.75c0.66-0.51,1.23-1.08,1.71-1.75H811.88z M816.74,1713.02
		c0.87,0.91,1.82,2.2,2.24,3.08l-1.75,0.95c-0.38-0.91-1.31-2.26-2.15-3.23L816.74,1713.02z"/>
	<path d="M818.39,1723.71c0,0,0,0.76-0.02,1.03c-0.25,8.49-0.46,11.51-1.23,12.52c-0.53,0.7-1.06,0.91-1.82,1.04
		c-0.72,0.09-1.86,0.08-2.98,0.04c-0.04-0.63-0.34-1.58-0.74-2.2c1.22,0.11,2.34,0.11,2.83,0.11c0.38,0,0.59-0.08,0.84-0.32
		c0.55-0.61,0.8-3.46,1.01-10.16h-4.07c-0.49,1.14-1.08,2.18-1.67,3c-0.3-0.29-0.95-0.72-1.46-1.06v8.87h-5.07v1.39h-2.05v-14.12
		h2.15c0.25-0.95,0.47-2.17,0.55-3.06l2.47,0.34c-0.32,0.95-0.67,1.9-0.99,2.72h2.94v3.08c1.1-1.6,2.01-3.89,2.57-6.12l2.15,0.49
		c-0.19,0.82-0.46,1.62-0.74,2.41H818.39z M807.02,1725.82h-3.02v3.08h3.02V1725.82z M807.02,1734.58v-3.72h-3.02v3.72H807.02z
		 M813.32,1733.56c-0.53-1.14-1.71-3-2.64-4.39l1.77-1.01c0.95,1.31,2.2,3.12,2.79,4.22L813.32,1733.56z"/>
	<path d="M817.88,1743.55c-0.59,2-1.48,3.69-2.64,5.11c1.1,0.87,2.41,1.63,3.93,2.11c-0.46,0.44-1.1,1.31-1.41,1.9l-0.04-0.02v6.21
		h-2.17v-0.59h-3.57v0.65h-2.09v-6.17l-0.44,0.19c-0.15-0.3-0.42-0.72-0.7-1.08v0.55h-2.09v2.53l2.24-0.51l0.21,2
		c-2.66,0.67-5.55,1.33-7.7,1.82l-0.4-2.17l0.86-0.15v-6.38h1.84v6l0.95-0.19v-7.14h-2.66v-6.29h6.55v4.71
		c1.39-1.33,2.53-3.34,3.15-5.41l2.15,0.53c-0.15,0.42-0.3,0.85-0.47,1.27h2.66l0.4-0.08L817.88,1743.55z M803.99,1746.27h2.51
		v-2.41h-2.53L803.99,1746.27z M808.76,1751.02c1.31-0.57,2.56-1.39,3.63-2.38c-0.46-0.55-0.84-1.12-1.18-1.67
		c-0.36,0.48-0.74,0.91-1.12,1.31c-0.32-0.34-1.01-0.95-1.52-1.29v1.22h-1.9v2.22h2.09V1751.02z M816.19,1751.91
		c-0.88-0.51-1.65-1.08-2.38-1.73c-0.72,0.67-1.5,1.22-2.34,1.73H816.19z M815.56,1756.34v-2.53h-3.57v2.53H815.56z M812.49,1744.94
		l-0.15,0.29c0.38,0.65,0.86,1.31,1.39,1.96c0.55-0.7,1.01-1.44,1.39-2.24H812.49z"/>
	<path d="M811.35,1776.93c0.49,0.04,1.01,0.06,1.52,0.06c1.06,0,4.71,0,6.06-0.06c-0.3,0.51-0.65,1.5-0.76,2.17h-5.41
		c-3.48,0-5.83-0.49-7.43-2.7c-0.68,1.25-1.56,2.26-2.66,3.02c-0.32-0.42-1.2-1.25-1.71-1.58c1.94-1.2,3.1-3.21,3.53-5.76l2.26,0.34
		c-0.13,0.61-0.29,1.18-0.44,1.73c0.59,1.29,1.52,1.99,2.74,2.37v-4.83h-7.41v-1.99h16.76v1.99h-7.05v1.42h5.85v1.96h-5.85V1776.93z
		 M816.59,1768.88h-13.2v-6.59h13.2V1768.88z M814.29,1763.86h-8.7v0.97h8.7V1763.86z M814.29,1766.31h-8.7v0.99h8.7V1766.31z"/>
	<path d="M805.72,1792.78v4.62c0,1.06-0.17,1.6-0.78,1.94c-0.59,0.34-1.43,0.44-2.64,0.42c-0.08-0.57-0.34-1.46-0.63-2.05
		c0.64,0.04,1.31,0.04,1.54,0.02c0.23,0,0.3-0.08,0.3-0.32v-4.03l-1.77,0.46l-0.59-2.15c0.68-0.13,1.48-0.32,2.36-0.53v-3.38h-2.11
		v-2.09h2.11v-3.59h2.21v3.59h1.79v2.09h-1.79v2.85l1.63-0.4l0.27,2.05L805.72,1792.78z M818.98,1796.88v2.13h-11.8v-2.13h6.4
		c0.61-2.45,1.25-6.14,1.5-8.89l2.38,0.34c-0.46,2.87-1.18,6.17-1.82,8.55H818.98z M818.57,1787.38h-10.53v-2.13h4.24
		c-0.13-0.82-0.53-2.03-0.85-2.92l2.16-0.53c0.36,0.91,0.74,2.11,0.95,2.89l-2,0.57h6.02V1787.38z M810.4,1796.35
		c-0.15-1.96-0.63-5.3-1.14-7.85l1.97-0.44c0.57,2.49,1.12,5.78,1.31,7.69L810.4,1796.35z"/>
	<path d="M818,1814.53c-1.04,0.76-2.24,1.5-3.34,2.09c1.2,0.72,2.62,1.24,4.33,1.56c-0.49,0.46-1.12,1.41-1.43,2.01
		c-4.24-0.97-6.78-3.17-8.4-6.67h-2.72v4.03l4.16-0.84c-0.11,0.61-0.19,1.54-0.19,2.01c-4.54,1.01-5.59,1.25-6.1,1.48l-0.12,0.09
		c-0.15-0.53-0.59-1.71-0.95-2.24c0.42-0.23,0.97-0.68,0.97-1.46v-3.08h-2.77v-1.99h3.15v-8.4h11.99v1.84h-9.67v1.04h9.14v1.75
		h-9.14v0.99h9.14v1.75h-9.14v1.03h11.66v1.99h-2.05L818,1814.53z M811.54,1813.53c0.42,0.72,0.93,1.35,1.54,1.92
		c0.97-0.59,2.03-1.29,2.79-1.92H811.54z"/>
	<path d="M818.39,1825.84c0,0,0,0.76-0.02,1.03c-0.25,8.49-0.46,11.51-1.23,12.52c-0.53,0.7-1.06,0.91-1.82,1.04
		c-0.72,0.09-1.86,0.08-2.98,0.04c-0.04-0.63-0.34-1.58-0.74-2.2c1.22,0.11,2.34,0.11,2.83,0.11c0.38,0,0.59-0.08,0.84-0.32
		c0.55-0.61,0.8-3.46,1.01-10.16h-4.07c-0.49,1.14-1.08,2.18-1.67,3c-0.3-0.29-0.95-0.72-1.46-1.06v8.87h-5.07v1.39h-2.05v-14.12
		h2.15c0.25-0.95,0.47-2.17,0.55-3.06l2.47,0.34c-0.32,0.95-0.67,1.9-0.99,2.72h2.94v3.08c1.1-1.6,2.01-3.89,2.57-6.12l2.15,0.49
		c-0.19,0.82-0.46,1.62-0.74,2.41H818.39z M807.02,1827.95h-3.02v3.08h3.02V1827.95z M807.02,1836.71v-3.72h-3.02v3.72H807.02z
		 M813.32,1835.68c-0.53-1.14-1.71-3-2.64-4.39l1.77-1.01c0.95,1.31,2.2,3.12,2.79,4.22L813.32,1835.68z"/>
	<path d="M807.59,1854.95c-0.04-0.25-0.1-0.53-0.15-0.85c-4.29,0.7-5.04,0.91-5.51,1.14c-0.11-0.44-0.47-1.54-0.74-2.11
		c0.53-0.11,0.99-0.53,1.65-1.22c0.29-0.27,0.78-0.78,1.37-1.5c-1.61,0.19-2.05,0.3-2.36,0.44c-0.09-0.46-0.46-1.48-0.72-2.07
		c0.42-0.09,0.76-0.44,1.21-0.97c0.44-0.53,1.82-2.56,2.62-4.54l2.15,0.91c-0.82,1.56-1.88,3.13-2.95,4.43l1.48-0.11
		c0.55-0.76,1.06-1.6,1.52-2.43l1.94,1.31c-1.22,1.86-2.68,3.71-4.2,5.26l2.05-0.29c-0.15-0.49-0.3-0.97-0.47-1.42l1.8-0.47
		c0.51,1.25,1.03,2.92,1.21,3.93L807.59,1854.95z M804.34,1856.2c-0.27,1.63-0.78,3.44-1.24,4.58c-0.47-0.25-1.4-0.53-1.96-0.68
		c0.53-1.08,0.97-2.81,1.2-4.31L804.34,1856.2z M806.52,1855.63c0.29,1.25,0.55,2.85,0.65,3.91l-1.92,0.55
		c-0.04-1.08-0.29-2.74-0.53-3.99L806.52,1855.63z M808.65,1854.93c0.36,0.8,0.74,1.86,0.93,2.54l-1.77,0.7
		c-0.15-0.7-0.55-1.82-0.87-2.66L808.65,1854.93z M818.87,1858.02v2.2h-10.22v-2.2h4.07v-11.09h-3.4v-2.22h9.23v2.22h-3.48v11.09
		H818.87z"/>
	<path d="M816.91,1876.08h-2.16l1.86,0.53c-0.42,0.83-0.82,1.69-1.22,2.41h3.23v1.9h-11.8v-1.9h2.94c-0.11-0.7-0.4-1.63-0.76-2.38
		l1.94-0.55c0.42,0.78,0.8,1.82,0.89,2.55l-1.25,0.38h2.58c0.4-0.87,0.86-2.03,1.06-2.94h-5.74v-4.12c-0.32,0.25-0.67,0.49-0.99,0.7
		c-0.21-0.38-0.61-0.95-0.99-1.37c-0.1,0.3-0.17,0.57-0.25,0.82l-1.12-0.46c0,0.87-0.06,1.77-0.13,2.64l0.15-0.11
		c0.42,0.55,1.92,3,2.26,3.5l-1.58,1.54c-0.27-0.67-0.76-1.63-1.24-2.49c-0.36,1.63-0.99,3.21-2.03,4.6
		c-0.29-0.46-0.93-1.12-1.35-1.41c1.6-2.26,2.01-5.01,2.11-7.75l-1.44,0.42c-0.13-1.29-0.55-3.51-0.95-5.19l1.5-0.38
		c0.34,1.27,0.7,2.83,0.91,4.07v-0.59v-6.54h1.8v6.54v0.91c0.27-1.27,0.55-3.12,0.65-4.43l1.62,0.53l0.7-0.82
		c0.38,0.23,0.84,0.55,1.27,0.84c0.17-0.38,0.36-0.8,0.51-1.24h-2.22v-1.92h3.02l0.36-0.06l1.29,0.42
		c-0.29,1.46-0.72,2.77-1.27,3.91h3.27c-0.57-1.16-1.08-2.58-1.56-4.45l1.86-0.4c0.13,0.53,0.29,1.03,0.44,1.48
		c0.4-0.34,0.78-0.68,1.06-0.99l1.43,1.46c-0.63,0.42-1.25,0.84-1.82,1.18c0.11,0.29,0.27,0.53,0.4,0.78
		c0.51-0.36,1.03-0.8,1.37-1.14l1.45,1.52c-0.65,0.34-1.24,0.7-1.8,1.01c0.57,0.61,1.18,1.1,1.9,1.54
		c-0.53,0.42-1.14,1.16-1.39,1.75c-0.27-0.19-0.53-0.36-0.78-0.57V1876.08z M808.42,1869.12c-0.38-0.29-0.78-0.61-1.16-0.87
		c-0.21,0.86-0.42,1.73-0.61,2.55C807.3,1870.36,807.89,1869.79,808.42,1869.12z M810.44,1870.51v-0.74
		c-0.38,0.57-0.8,1.1-1.23,1.56h7.14c-0.51-0.51-0.99-1.08-1.43-1.75v0.93H810.44z M814.79,1873.07h-4.27v1.25h4.27V1873.07z"/>
	<path d="M807.92,1902.81c1.46-0.55,2.28-1.5,2.28-2.6c-0.06,0-0.11,0-0.17,0c-0.91,0-1.75-0.59-1.75-1.65
		c0-1.01,0.82-1.65,1.8-1.65c1.29,0,2.01,1.03,2.01,2.75c0,2.22-1.31,3.91-3.59,4.67L807.92,1902.81z"/>
	<path d="M817.94,1913.62c-0.86,1.54-1.92,2.93-3.15,4.16c0.51,1.46,1.1,2.34,1.67,2.34c0.4,0,0.63-0.91,0.72-3.15
		c0.49,0.53,1.25,1.04,1.86,1.29c-0.36,3.32-1.06,4.16-2.79,4.16c-1.39,0-2.45-1.14-3.27-3c-1.1,0.91-2.3,1.69-3.51,2.32
		c-0.32-0.53-0.95-1.31-1.5-1.82c1.46-0.67,2.93-1.6,4.24-2.68c-0.42-1.5-0.74-3.23-0.97-5.09h-3.86v2.17
		c0.97-0.17,1.96-0.36,2.93-0.53l0.17,2.05l-3.1,0.63v3.25c0,1.23-0.27,1.84-1.03,2.2c-0.74,0.36-1.88,0.46-3.42,0.44
		c-0.1-0.63-0.47-1.65-0.8-2.28c1.06,0.06,2.17,0.04,2.51,0.02c0.34,0,0.46-0.09,0.46-0.4v-2.75c-1.22,0.25-2.39,0.49-3.4,0.68
		l-0.55-2.28c1.08-0.17,2.45-0.38,3.95-0.65v-2.54h-3.59v-2.15h3.59v-2.17c-1.03,0.17-2.07,0.3-3.04,0.42
		c-0.09-0.55-0.4-1.39-0.64-1.9c2.66-0.36,5.6-0.97,7.54-1.6l1.52,1.92c-0.95,0.29-1.99,0.53-3.1,0.76v2.56h3.65
		c-0.15-1.71-0.21-3.48-0.23-5.21h2.37c-0.04,1.77,0.04,3.53,0.19,5.21h5.17v2.15h-4.94c0.15,1.14,0.34,2.24,0.55,3.21
		c0.69-0.82,1.31-1.67,1.8-2.58L817.94,1913.62z M816.55,1909.44c-0.49-0.87-1.67-2.22-2.7-3.13l1.71-1.16
		c1.01,0.87,2.26,2.13,2.81,3.02L816.55,1909.44z"/>
	<path d="M811.84,1933.28h-3.27v9.44h-2.09v-16.64c-0.38,1.08-0.82,2.2-1.31,3.29v13.39h-2.15v-9.5c-0.38,0.57-0.78,1.1-1.18,1.56
		c-0.17-0.53-0.72-1.84-1.08-2.43c1.54-1.77,2.93-4.54,3.76-7.33l2.09,0.63l-0.12,0.36h5.34V1933.28z M808.57,1927.76v1.08h1.56
		v-1.08H808.57z M810.13,1931.57v-1.12h-1.56v1.12H810.13z M818.34,1940.14c0,1.25-0.27,1.86-1.03,2.19
		c-0.78,0.36-1.98,0.42-3.76,0.42c-0.08-0.63-0.44-1.62-0.72-2.19c1.16,0.08,2.47,0.06,2.85,0.04c0.36,0,0.49-0.11,0.49-0.47v-6.84
		h-3.48v-7.24h5.64V1940.14z M814.48,1927.76v1.08h1.69v-1.08H814.48z M816.17,1931.57v-1.12h-1.69v1.12H816.17z"/>
	<path d="M808.06,1953.62c-0.91,3.93-2.89,6.88-5.21,8.43c-0.38-0.48-1.27-1.35-1.82-1.69c1.79-1.06,3.29-2.92,4.16-5.17h-3.69
		v-2.13h4.64l0.4-0.09L808.06,1953.62z M818.36,1952.32c-1.45,1.29-3.17,2.72-4.62,3.69c1.33,1.82,3.06,3.23,5.28,4.1
		c-0.53,0.44-1.23,1.37-1.58,1.98c-2.76-1.24-4.71-3.27-6.14-5.87v4.35c0,1.24-0.25,1.84-1.06,2.22c-0.78,0.36-1.94,0.38-3.53,0.38
		c-0.09-0.65-0.46-1.65-0.76-2.26c0.95,0.06,2.13,0.06,2.47,0.04c0.34-0.02,0.46-0.11,0.46-0.42v-9.06h-4.75v-2.17h7.05
		c-1.62-0.72-3.82-1.46-5.57-1.92l1.12-1.84c2.2,0.47,5.38,1.48,6.99,2.32l-1.21,2.11c-0.32-0.19-0.74-0.4-1.2-0.61v1.58
		c0.36,1.2,0.82,2.32,1.35,3.34c1.29-1.03,2.72-2.36,3.63-3.5L818.36,1952.32z"/>
	<path d="M806.48,1974.76c-0.34,1.73-0.86,3.51-1.5,4.94c0.3,0.19,0.67,0.46,1.18,0.76c1.29,0.78,3.08,0.89,5.3,0.89
		c2.19,0,5.59-0.19,7.68-0.49c-0.25,0.61-0.63,1.71-0.65,2.32c-1.58,0.09-4.92,0.23-7.14,0.23c-2.53,0-4.12-0.21-5.49-1.01
		c-0.8-0.44-1.46-1.06-1.86-1.06c-0.44,0-1.12,1.29-1.58,2.37l-1.5-2.15c0.64-0.8,1.35-1.42,1.97-1.8c0.44-0.95,0.82-2.15,1.1-3.31
		h-2.39c0.44-1.12,0.95-2.64,1.37-4.12h-1.71v-2.01h4.45c-0.4,1.35-0.86,2.85-1.29,4.18h0.76l0.34-0.08L806.48,1974.76z
		 M803.27,1969.78c-0.21-0.87-0.7-2.24-1.03-3.29l1.99-0.59c0.36,1.01,0.84,2.28,1.1,3.13L803.27,1969.78z M813.23,1976.26
		c0.47,0.21,0.99,0.46,1.52,0.7c0.46-0.3,0.93-0.66,1.31-1.01h-3.29c-0.49,0.51-1.08,0.95-1.77,1.39v1.58l2.58-0.59
		c-0.04,0.46,0,1.16,0.06,1.52c-3.54,0.93-4.12,1.16-4.48,1.41c-0.08-0.42-0.36-1.16-0.59-1.48c0.3-0.11,0.64-0.34,0.64-1.04v-0.46
		c-0.74,0.34-1.46,0.59-2.2,0.82c-0.23-0.4-0.82-1.23-1.2-1.61c1.48-0.34,3.04-0.86,4.2-1.52h-2.45v-4.22h9.46v3.91l1.31,0.84
		c-0.66,0.47-1.39,0.91-2.05,1.29c0.87,0.47,1.67,0.95,2.22,1.37l-1.25,1.31c-1.14-0.91-3.44-2.24-5.21-3.06L813.23,1976.26z
		 M818.41,1971.02h-12.16v-1.62h4.84v-0.84h-3.88v-1.58h3.88v-1.08h2.19v1.08h4.03v1.58h-4.03v0.84h5.13V1971.02z M814.84,1973.24
		h-5.21v1.2h5.21V1973.24z"/>
	<path d="M808.08,1996.38c-0.74,0.21-1.46,0.4-2.22,0.61v4.52c0,1.1-0.21,1.65-0.86,1.98c-0.63,0.36-1.54,0.42-2.87,0.42
		c-0.08-0.59-0.36-1.48-0.64-2.05c0.76,0.02,1.54,0.02,1.79,0.02c0.27,0,0.36-0.09,0.36-0.36v-3.93l-2.01,0.49l-0.59-2.15
		c0.74-0.15,1.65-0.36,2.6-0.59v-3.32h-2.36v-2.09h2.36v-3.59h2.22v3.59h2.03v2.09h-2.03v2.77l1.96-0.47L808.08,1996.38z
		 M817.84,1994.31c-0.8,1.79-1.99,3.53-3.42,5.07c0.51,1.06,1.14,1.69,1.88,1.8c0.44,0.04,0.68-0.87,0.82-2.91
		c0.44,0.49,1.45,1.1,1.88,1.31c-0.49,3.51-1.52,4.41-2.58,4.31c-1.65-0.17-2.87-1.14-3.78-2.81c-1.1,0.95-2.32,1.77-3.55,2.34
		c-0.42-0.57-1.18-1.29-1.82-1.75c1.63-0.65,3.13-1.6,4.48-2.77c-0.47-1.56-0.82-3.46-1.06-5.64l-2.36,0.25l-0.23-2.17l2.39-0.23
		c-0.11-1.46-0.19-3.04-0.25-4.71h2.32c0.02,1.58,0.1,3.08,0.19,4.5l5.7-0.55l0.21,2.11l-5.72,0.57c0.17,1.48,0.4,2.81,0.68,3.95
		c0.97-1.18,1.79-2.49,2.36-3.8L817.84,1994.31z M815.72,1990.51c-0.49-0.78-1.62-2.01-2.43-2.89l1.71-1.12
		c0.82,0.82,1.99,1.99,2.54,2.74L815.72,1990.51z"/>
	<path d="M812.64,2012.88c2.03,1.46,4.96,3.65,6.33,5.15l-1.92,1.73c-1.18-1.41-3.76-3.57-5.81-5.15v9.84h-2.47v-9.27
		c-1.73,1.84-3.76,3.5-6.04,4.67c-0.36-0.61-1.06-1.54-1.56-2.05c3.46-1.62,6.42-4.56,8.19-7.47h-7.58v-2.32h16.47v2.32h-5.91
		c-0.32,0.59-0.7,1.18-1.1,1.75v1.98L812.64,2012.88z"/>
	<path d="M807.76,2041.13c1.2-0.21,2.43-0.42,3.63-0.61l0.11,1.94c-3.32,0.65-6.91,1.29-9.5,1.75l-0.49-2.09
		c1.14-0.15,2.56-0.38,4.1-0.63v-2.58h-3.46v-1.96h3.46v-1.69h2.15v1.69h3.42v1.96h-3.42V2041.13z M801.7,2028.29h9.88v1.94h-2.68
		c0.99,1.24,2.17,2.93,2.64,4.05l-1.71,1.12c-0.11-0.28-0.27-0.61-0.44-0.95c-5.24,0.44-6.06,0.53-6.61,0.76
		c-0.13-0.46-0.49-1.46-0.72-2.05c0.29-0.08,0.59-0.38,0.88-0.8c0.21-0.29,0.72-1.14,1.18-2.13h-2.41V2028.29z M808.35,2032.71
		c-0.36-0.55-0.74-1.08-1.1-1.56l1.6-0.93h-2.28c-0.48,0.91-1.06,1.86-1.65,2.68L808.35,2032.71z M814.41,2040.41h-2.09v-11.47h2.09
		V2040.41z M818.15,2027.37v14.7c0,1.2-0.23,1.77-0.95,2.13c-0.72,0.34-1.8,0.42-3.29,0.42c-0.1-0.59-0.46-1.56-0.76-2.17
		c1.01,0.04,2.03,0.04,2.36,0.04c0.32,0,0.44-0.11,0.44-0.44v-14.68H818.15z"/>
	<path d="M817.92,2050v4.43h-2.38v-2.26h-11.27v2.26h-2.26V2050h7.11c-0.21-0.63-0.51-1.35-0.82-1.96l2.21-0.65
		c0.47,0.82,0.91,1.86,1.12,2.6H817.92z M813.66,2062.67c1.46,0,1.69-0.42,1.92-2.87c0.57,0.38,1.6,0.78,2.26,0.93
		c-0.38,3.23-1.12,4.18-4.06,4.18h-5.11c-3.25,0-4.2-0.74-4.2-3.34v-7.85h2.37v3.68c2.7-0.72,5.41-1.67,7.2-2.6l1.8,1.8
		c-2.58,1.16-5.91,2.13-9.01,2.85v2.07c0,1.01,0.27,1.14,1.92,1.14H813.66z"/>
	<path d="M807.92,2086.63c1.46-0.55,2.28-1.5,2.28-2.6c-0.06,0-0.11,0-0.17,0c-0.91,0-1.75-0.59-1.75-1.65
		c0-1.01,0.82-1.65,1.8-1.65c1.29,0,2.01,1.03,2.01,2.75c0,2.22-1.31,3.91-3.59,4.67L807.92,2086.63z"/>
	<path d="M818,2100.48c-1.04,0.76-2.24,1.5-3.34,2.09c1.2,0.72,2.62,1.24,4.33,1.56c-0.49,0.46-1.12,1.41-1.43,2.01
		c-4.24-0.97-6.78-3.17-8.4-6.67h-2.72v4.03l4.16-0.84c-0.11,0.61-0.19,1.54-0.19,2.01c-4.54,1.01-5.59,1.25-6.1,1.48l-0.12,0.09
		c-0.15-0.53-0.59-1.71-0.95-2.24c0.42-0.23,0.97-0.68,0.97-1.46v-3.08h-2.77v-1.99h3.15v-8.4h11.99v1.84h-9.67v1.04h9.14v1.75
		h-9.14v0.99h9.14v1.75h-9.14v1.03h11.66v1.99h-2.05L818,2100.48z M811.54,2099.48c0.42,0.72,0.93,1.35,1.54,1.92
		c0.97-0.59,2.03-1.29,2.79-1.92H811.54z"/>
	<path d="M817.88,2111.2c-0.59,2-1.48,3.69-2.64,5.11c1.1,0.87,2.41,1.63,3.93,2.11c-0.46,0.44-1.1,1.31-1.41,1.9l-0.04-0.02v6.21
		h-2.17v-0.59h-3.57v0.65h-2.09v-6.17l-0.44,0.19c-0.15-0.3-0.42-0.72-0.7-1.08v0.55h-2.09v2.53l2.24-0.51l0.21,2
		c-2.66,0.67-5.55,1.33-7.7,1.82l-0.4-2.17l0.86-0.15v-6.38h1.84v6l0.95-0.19v-7.14h-2.66v-6.29h6.55v4.71
		c1.39-1.33,2.53-3.34,3.15-5.41l2.15,0.53c-0.15,0.42-0.3,0.85-0.47,1.27h2.66l0.4-0.08L817.88,2111.2z M803.99,2113.92h2.51v-2.41
		h-2.53L803.99,2113.92z M808.76,2118.67c1.31-0.57,2.56-1.39,3.63-2.38c-0.46-0.55-0.84-1.12-1.18-1.67
		c-0.36,0.47-0.74,0.91-1.12,1.31c-0.32-0.34-1.01-0.95-1.52-1.29v1.22h-1.9v2.22h2.09V2118.67z M816.19,2119.56
		c-0.88-0.51-1.65-1.08-2.38-1.73c-0.72,0.67-1.5,1.22-2.34,1.73H816.19z M815.56,2123.99v-2.53h-3.57v2.53H815.56z M812.49,2112.59
		l-0.15,0.29c0.38,0.65,0.86,1.31,1.39,1.96c0.55-0.7,1.01-1.44,1.39-2.24H812.49z"/>
	<path d="M808.35,2130.79c-0.51,1.6-1.16,3.5-1.71,4.98c1.2,1.48,1.45,2.81,1.45,3.95c0,1.22-0.25,2.01-0.88,2.49
		c-0.29,0.23-0.64,0.34-1.08,0.42c-0.36,0.06-0.82,0.06-1.27,0.04c0-0.55-0.17-1.39-0.49-1.94c0.34,0.02,0.65,0.04,0.86,0.02
		c0.21,0,0.4-0.04,0.55-0.15c0.23-0.17,0.34-0.59,0.34-1.14c0-0.91-0.27-2.13-1.39-3.48c0.38-1.14,0.8-2.68,1.12-3.93h-1.79V2147
		h-2.11v-16.96h4.62l0.32-0.09L808.35,2130.79z M818.87,2144.37v2.09H807v-2.09h1.9v-14.13h8.51v14.13H818.87z M811.04,2132.33v2.56
		h4.12v-2.56H811.04z M815.17,2136.93h-4.12v2.66h4.12V2136.93z M811.04,2144.37h4.12v-2.75h-4.12V2144.37z"/>
	<path d="M807.13,2159.71c-0.61,0.19-1.21,0.38-1.82,0.55v4.81c0,1.04-0.17,1.62-0.74,1.98c-0.59,0.36-1.39,0.44-2.64,0.42
		c-0.06-0.55-0.3-1.48-0.55-2.09c0.67,0.04,1.33,0.04,1.56,0.02c0.23,0,0.32-0.08,0.32-0.32v-4.2c-0.63,0.19-1.25,0.36-1.8,0.51
		l-0.49-2.17c0.65-0.13,1.44-0.34,2.3-0.55v-3.29h-1.99v-2.07h1.99v-3.57h2.05v3.57h1.73v2.07h-1.73v2.74l1.54-0.44L807.13,2159.71z
		 M818.6,2152.68v3.46h-1.75v3.29h-7.81v-3.29h-1.71v-3.46h1.62c-0.21-0.65-0.63-1.5-1.03-2.17l1.8-0.65
		c0.49,0.74,1.03,1.73,1.21,2.39l-1.1,0.42h1.9v-2.94h2.15v2.94h1.79l-0.91-0.32c0.38-0.72,0.84-1.77,1.08-2.53l2.15,0.65
		c-0.49,0.8-0.99,1.6-1.39,2.2H818.6z M807.89,2160.16h10.13v7.29h-2.15v-0.61h-5.93v0.61h-2.05V2160.16z M816.51,2154.41h-7.18
		v0.93h7.18V2154.41z M809.94,2161.8v0.95h1.9v-0.95H809.94z M811.84,2165.22v-0.93h-1.9v0.93H811.84z M814.79,2156.84h-3.8v1.08
		h3.8V2156.84z M815.87,2161.8h-2.09v0.95h2.09V2161.8z M815.87,2165.22v-0.93h-2.09v0.93H815.87z"/>
	<path d="M817.94,2179.14c-0.86,1.54-1.92,2.93-3.15,4.16c0.51,1.46,1.1,2.34,1.67,2.34c0.4,0,0.63-0.91,0.72-3.15
		c0.49,0.53,1.25,1.04,1.86,1.29c-0.36,3.32-1.06,4.16-2.79,4.16c-1.39,0-2.45-1.14-3.27-3c-1.1,0.91-2.3,1.69-3.51,2.32
		c-0.32-0.53-0.95-1.31-1.5-1.82c1.46-0.67,2.93-1.6,4.24-2.68c-0.42-1.5-0.74-3.23-0.97-5.09h-3.86v2.17
		c0.97-0.17,1.96-0.36,2.93-0.53l0.17,2.05l-3.1,0.63v3.25c0,1.23-0.27,1.84-1.03,2.2c-0.74,0.36-1.88,0.46-3.42,0.44
		c-0.1-0.63-0.47-1.65-0.8-2.28c1.06,0.06,2.17,0.04,2.51,0.02c0.34,0,0.46-0.09,0.46-0.4v-2.75c-1.22,0.25-2.39,0.49-3.4,0.68
		l-0.55-2.28c1.08-0.17,2.45-0.38,3.95-0.65v-2.54h-3.59v-2.15h3.59v-2.17c-1.03,0.17-2.07,0.3-3.04,0.42
		c-0.09-0.55-0.4-1.39-0.64-1.9c2.66-0.36,5.6-0.97,7.54-1.6l1.52,1.92c-0.95,0.29-1.99,0.53-3.1,0.76v2.56h3.65
		c-0.15-1.71-0.21-3.48-0.23-5.21h2.37c-0.04,1.77,0.04,3.53,0.19,5.21h5.17v2.15h-4.94c0.15,1.14,0.34,2.24,0.55,3.21
		c0.69-0.82,1.31-1.67,1.8-2.58L817.94,2179.14z M816.55,2174.96c-0.49-0.87-1.67-2.22-2.7-3.13l1.71-1.16
		c1.01,0.87,2.26,2.13,2.81,3.02L816.55,2174.96z"/>
	<path d="M811.84,2198.81h-3.27v9.44h-2.09v-16.64c-0.38,1.08-0.82,2.2-1.31,3.29v13.39h-2.15v-9.5c-0.38,0.57-0.78,1.1-1.18,1.56
		c-0.17-0.53-0.72-1.84-1.08-2.43c1.54-1.77,2.93-4.54,3.76-7.33l2.09,0.63l-0.12,0.36h5.34V2198.81z M808.57,2193.28v1.08h1.56
		v-1.08H808.57z M810.13,2197.1v-1.12h-1.56v1.12H810.13z M818.34,2205.67c0,1.25-0.27,1.86-1.03,2.19
		c-0.78,0.36-1.98,0.42-3.76,0.42c-0.08-0.63-0.44-1.62-0.72-2.19c1.16,0.08,2.47,0.06,2.85,0.04c0.36,0,0.49-0.11,0.49-0.47v-6.84
		h-3.48v-7.24h5.64V2205.67z M814.48,2193.28v1.08h1.69v-1.08H814.48z M816.17,2197.1v-1.12h-1.69v1.12H816.17z"/>
	<path d="M807.92,2229.61c1.46-0.55,2.28-1.5,2.28-2.6c-0.06,0-0.11,0-0.17,0c-0.91,0-1.75-0.59-1.75-1.65
		c0-1.01,0.82-1.65,1.8-1.65c1.29,0,2.01,1.03,2.01,2.75c0,2.22-1.31,3.91-3.59,4.67L807.92,2229.61z"/>
	<path d="M807.26,2232.16c-0.51,1.35-1.16,2.72-1.88,4.05v12.92h-2.16v-9.58c-0.4,0.51-0.8,0.97-1.18,1.39
		c-0.21-0.55-0.84-1.8-1.24-2.36c1.73-1.71,3.38-4.39,4.33-7.1L807.26,2232.16z M815.49,2246.95c1.12,0,1.33-0.47,1.46-2.6
		c0.51,0.34,1.41,0.7,1.99,0.84c-0.29,2.83-0.95,3.78-3.29,3.78h-4.31c-2.64,0-3.4-0.68-3.4-3.32v-5.32l-1.45,0.57l-0.85-1.99
		l2.3-0.89v-4.48h2.13v3.63l1.9-0.74v-4.92h2.03v4.12l2.55-0.99l0.19-0.13l1.69,0.51l-0.08,0.36c-0.1,2.72-0.34,6.29-0.76,8.64
		l-1.86-0.53c0.21-1.6,0.34-4.1,0.42-6.42l-2.15,0.87v6.72h-2.03v-5.95l-1.9,0.78v6.16c0,1.12,0.19,1.31,1.44,1.31H815.49z"/>
	<path d="M818.45,2254.46v2.17h-10.16c-0.63,1.31-1.35,2.58-2.22,3.74v9.19h-2.3v-6.61c-0.53,0.49-1.06,0.91-1.67,1.33
		c-0.25-0.61-0.76-1.63-1.12-2.18c1.99-1.29,3.59-3.29,4.73-5.47h-4.12v-2.17h5.13c0.32-0.89,0.61-1.77,0.84-2.64l2.38,0.57
		c-0.21,0.7-0.46,1.39-0.72,2.07H818.45z M813.89,2267.02h4.5v2.09h-11.38v-2.09h4.6v-4.33h-3.86v-2.09h3.86v-3.15h2.28v3.15h3.76
		v2.09h-3.76V2267.02z"/>
	<path d="M811.63,2281.95c-0.13,0.3-0.3,0.61-0.48,0.89h7.22l-0.06,0.76c-0.19,3.65-0.44,5.15-0.91,5.68
		c-0.34,0.44-0.7,0.57-1.16,0.67c-0.42,0.06-1.1,0.08-1.82,0.06c-0.02-0.59-0.23-1.37-0.49-1.86c0.53,0.06,0.97,0.08,1.22,0.08
		c0.25,0,0.38-0.04,0.53-0.23c0.23-0.27,0.4-1.18,0.55-3.4h-0.46c-0.88,2.18-2.22,4.1-3.74,5.36c-0.3-0.34-1.01-0.95-1.39-1.25
		c1.33-0.97,2.45-2.45,3.17-4.1h-0.95c-1.1,2.05-2.85,3.84-4.64,4.98c-0.27-0.34-0.87-1.08-1.23-1.41c1.52-0.83,2.91-2.11,3.84-3.57
		h-0.91c-0.65,0.76-1.37,1.41-2.13,1.92c-0.25-0.3-0.76-0.84-1.16-1.2c-0.28,0.17-0.61,0.27-1.01,0.34
		c-0.32,0.04-0.76,0.06-1.22,0.04c-0.02-0.53-0.19-1.39-0.49-1.92c0.34,0.02,0.61,0.02,0.83,0.02c0.21-0.02,0.38-0.06,0.53-0.17
		c0.21-0.15,0.29-0.53,0.29-1.06c0-0.87-0.25-2.05-1.31-3.33c0.38-1.2,0.78-2.85,1.08-4.14h-1.48v14.91h-1.96v-16.93h4.12l0.32-0.1
		l1.48,0.86c-0.49,1.61-1.12,3.69-1.65,5.17c1.14,1.44,1.39,2.72,1.39,3.82c0,0.72-0.1,1.29-0.29,1.73c0.91-0.72,1.71-1.6,2.28-2.6
		h-1.99v-1.77h11.3v1.77H811.63z M817.54,2279.45h-8.49v-6.5h8.49V2279.45z M815.38,2274.54h-4.31v0.91h4.31V2274.54z
		 M815.38,2276.94h-4.31v0.93h4.31V2276.94z"/>
	<path d="M818.43,2293.64v1.39h-7.35v0.63h5.81v1.31h-13.74v-1.31h5.64v-0.63h-7.18v-1.39h7.18v-0.95h2.28v0.95H818.43z
		 M811.08,2308.51h7.24v1.52h-16.56v-1.52h7.05v-0.61h-5.21v-1.33h5.21v-0.55c-3.25,0.08-3.82,0.13-4.24,0.27
		c-0.08-0.3-0.3-1.01-0.46-1.41c0.29-0.04,0.64-0.11,0.99-0.25c0.23-0.08,0.72-0.27,1.29-0.55h-2.58v-0.32h-1.97v-2.83h16.38v2.83
		h-2.13v-1.42h-12.23v0.55H816v1.2h-1.35c0.84,0.49,1.6,1.04,2.11,1.46l-1.24,1.03h1.12v1.33h-5.57V2308.51z M816.3,2297.51v2.87
		h-12.46v-2.87H816.3z M814.08,2298.62h-8.17v0.66h8.17V2298.62z M808.84,2304.09c-0.44,0.27-0.86,0.51-1.27,0.72l5.21-0.08
		c-0.36-0.21-0.72-0.4-1.03-0.57l0.1-0.08H808.84z M811.08,2306.58h4.26c-0.23-0.21-0.53-0.46-0.86-0.7l-3.4,0.09V2306.58z"/>
	<path d="M808.08,2323.18c-0.74,0.21-1.46,0.4-2.22,0.61v4.52c0,1.1-0.21,1.65-0.86,1.98c-0.63,0.36-1.54,0.42-2.87,0.42
		c-0.08-0.59-0.36-1.48-0.64-2.05c0.76,0.02,1.54,0.02,1.79,0.02c0.27,0,0.36-0.09,0.36-0.36v-3.93l-2.01,0.49l-0.59-2.15
		c0.74-0.15,1.65-0.36,2.6-0.59v-3.32h-2.36v-2.09h2.36v-3.59h2.22v3.59h2.03v2.09h-2.03v2.77l1.96-0.47L808.08,2323.18z
		 M817.84,2321.11c-0.8,1.79-1.99,3.53-3.42,5.07c0.51,1.06,1.14,1.69,1.88,1.8c0.44,0.04,0.68-0.87,0.82-2.91
		c0.44,0.49,1.45,1.1,1.88,1.31c-0.49,3.51-1.52,4.41-2.58,4.31c-1.65-0.17-2.87-1.14-3.78-2.81c-1.1,0.95-2.32,1.77-3.55,2.34
		c-0.42-0.57-1.18-1.29-1.82-1.75c1.63-0.65,3.13-1.6,4.48-2.77c-0.47-1.56-0.82-3.46-1.06-5.64l-2.36,0.25l-0.23-2.17l2.39-0.23
		c-0.11-1.46-0.19-3.04-0.25-4.71h2.32c0.02,1.58,0.1,3.08,0.19,4.5l5.7-0.55l0.21,2.11l-5.72,0.57c0.17,1.48,0.4,2.81,0.68,3.95
		c0.97-1.18,1.79-2.49,2.36-3.8L817.84,2321.11z M815.72,2317.31c-0.49-0.78-1.62-2.01-2.43-2.89l1.71-1.12
		c0.82,0.82,1.99,1.99,2.54,2.74L815.72,2317.31z"/>
	<path d="M812.09,2343.06c-0.72,0.36-1.46,0.68-2.22,1.01h7.05v7.2h-2.32v-0.49h-7.26v0.49h-2.2v-5.57
		c-1.03,0.3-2.09,0.57-3.13,0.82c-0.21-0.46-0.68-1.37-0.99-1.79c2.15-0.42,4.31-0.95,6.37-1.67h-5.81v-1.94h6.12v-1.08h-4.56v-1.84
		h4.56v-1.04h2.24v1.04h4.18v1.58c0.95-0.65,1.79-1.31,2.49-2.07l1.67,1.06c-0.84,0.84-1.79,1.63-2.83,2.36h3.1v1.94H812.09z
		 M804.98,2336.5h-3.44v-1.94h3.44v-1.03h2.24v1.03h2.41v1.94h-2.41v1.16h-2.24V2336.5z M814.6,2345.77h-7.26v0.93h7.26V2345.77z
		 M814.6,2349.06v-0.95h-7.26v0.95H814.6z M809.92,2341.12h1.98c0.63-0.34,1.25-0.7,1.84-1.08h-3.82V2341.12z M812.9,2336.5h-2.56
		v-1.94h2.56v-1.03h2.24v1.03h3.29v1.94h-3.29v1.16h-2.24V2336.5z"/>
	<path d="M816.17,2369.77c0.61,0,0.74-0.19,0.82-1.48c0.44,0.29,1.29,0.57,1.86,0.68c-0.23,1.98-0.8,2.49-2.45,2.49h-2.79
		c-2.26,0-2.83-0.49-2.83-2.19v-0.85h-2.09c-0.57,1.9-2.05,2.83-6.61,3.29c-0.15-0.49-0.59-1.29-0.95-1.71
		c3.63-0.21,4.81-0.63,5.3-1.58h-1.96v-6.4h10.96v6.4h-2.45v0.84c0,0.47,0.15,0.51,0.91,0.51H816.17z M803.71,2362.86h-1.98v-2.83
		h2.09l-0.3-4.5l-0.02-0.02c1.08-0.36,2.56-1.04,3.44-1.54l1.2,0.95c-0.8,0.42-1.73,0.78-2.6,1.1l0.02,0.46h1.96v1.18h-1.88
		l0.06,0.59h1.88v1.18h-1.8l0.04,0.61h2.64c-0.23-0.23-0.53-0.51-0.74-0.68c0.51-0.23,1.03-0.51,1.48-0.82
		c-0.32-0.21-0.65-0.42-0.95-0.59l0.86-0.76c0.34,0.17,0.67,0.38,1.03,0.61c0.29-0.27,0.53-0.55,0.72-0.82l0.08,0.02
		c-0.21-0.21-0.49-0.44-0.82-0.68c-0.48,0.36-0.95,0.67-1.45,0.89c-0.19-0.21-0.64-0.67-0.93-0.87c0.47-0.21,0.93-0.46,1.35-0.72
		c-0.28-0.17-0.57-0.34-0.84-0.47l0.86-0.76c0.3,0.15,0.61,0.34,0.93,0.53c0.29-0.25,0.53-0.51,0.72-0.78l1.2,0.34
		c-0.27,0.38-0.55,0.74-0.91,1.06c0.3,0.23,0.57,0.46,0.78,0.65l-0.84,0.84l1.1,0.28c-0.27,0.4-0.59,0.8-0.95,1.18
		c0.36,0.27,0.68,0.53,0.93,0.78l-0.82,0.78h3.12l0.04-0.61h-1.9v-1.18h1.99l0.04-0.59h-1.98v-1.18h2.03l0.02-0.59h-2.3v-1.31h4.35
		c-0.06,1.77-0.15,3.91-0.3,5.45h1.96v2.83h-2.09v-1.42h-12.5V2362.86z M806.6,2363.81h6.59v-0.63h-6.59V2363.81z M806.6,2365.52
		h6.59v-0.63h-6.59V2365.52z M806.6,2367.28h6.59v-0.67h-6.59V2367.28z M811.1,2360.03c-0.25-0.25-0.53-0.51-0.89-0.78
		c-0.38,0.29-0.76,0.55-1.14,0.78H811.1z"/>
	<path d="M800.86,2383.11c0.44-1.27,0.78-3.4,0.91-4.98l1.67,0.23c-0.06,1.65-0.4,3.91-0.84,5.36L800.86,2383.11z M806.58,2381.89
		c-0.17-0.65-0.51-1.6-0.87-2.53v12.77h-2.17v-17.74h2.17v3.57l1.03-0.44c0.53,1.18,1.18,2.7,1.44,3.63L806.58,2381.89z
		 M818.83,2382.27v1.94h-11.61v-1.94h2.64c0.13-0.61,0.27-1.27,0.4-1.98h-2.22v-1.9h2.53c0.08-0.48,0.15-0.95,0.23-1.41h-3.19v-1.9
		h10.71v1.9h-5.26c-0.08,0.46-0.15,0.93-0.23,1.41h2.47l0.36-0.09l1.63,0.09c-0.04,1.31-0.13,2.68-0.27,3.88H818.83z
		 M808.17,2385.31h9.5v6.76h-2.19v-0.63h-5.22v0.68h-2.09V2385.31z M810.26,2387.25v2.26h5.22v-2.26H810.26z M812.49,2380.3
		c-0.13,0.72-0.27,1.37-0.38,1.98h2.73c0.06-0.67,0.1-1.33,0.13-1.98H812.49z"/>
	<path d="M807.92,2413.43c1.46-0.55,2.28-1.5,2.28-2.6c-0.06,0-0.11,0-0.17,0c-0.91,0-1.75-0.59-1.75-1.65
		c0-1.01,0.82-1.65,1.8-1.65c1.29,0,2.01,1.03,2.01,2.75c0,2.22-1.31,3.91-3.59,4.67L807.92,2413.43z"/>
	<path d="M817.88,2417.58c-0.59,2-1.48,3.69-2.64,5.11c1.1,0.87,2.41,1.63,3.93,2.11c-0.46,0.44-1.1,1.31-1.41,1.9l-0.04-0.02v6.21
		h-2.17v-0.59h-3.57v0.65h-2.09v-6.17l-0.44,0.19c-0.15-0.3-0.42-0.72-0.7-1.08v0.55h-2.09v2.53l2.24-0.51l0.21,2
		c-2.66,0.67-5.55,1.33-7.7,1.82l-0.4-2.17l0.86-0.15v-6.38h1.84v6l0.95-0.19v-7.14h-2.66v-6.29h6.55v4.71
		c1.39-1.33,2.53-3.34,3.15-5.41l2.15,0.53c-0.15,0.42-0.3,0.85-0.47,1.27h2.66l0.4-0.08L817.88,2417.58z M803.99,2420.29h2.51
		v-2.41h-2.53L803.99,2420.29z M808.76,2425.04c1.31-0.57,2.56-1.39,3.63-2.38c-0.46-0.55-0.84-1.12-1.18-1.67
		c-0.36,0.47-0.74,0.91-1.12,1.31c-0.32-0.34-1.01-0.95-1.52-1.29v1.22h-1.9v2.22h2.09V2425.04z M816.19,2425.93
		c-0.88-0.51-1.65-1.08-2.38-1.73c-0.72,0.67-1.5,1.22-2.34,1.73H816.19z M815.56,2430.36v-2.53h-3.57v2.53H815.56z M812.49,2418.96
		l-0.15,0.29c0.38,0.65,0.86,1.31,1.39,1.96c0.55-0.7,1.01-1.44,1.39-2.24H812.49z"/>
	<path d="M816.91,2447.97h-2.16l1.86,0.53c-0.42,0.83-0.82,1.69-1.22,2.41h3.23v1.9h-11.8v-1.9h2.94c-0.11-0.7-0.4-1.63-0.76-2.38
		l1.94-0.55c0.42,0.78,0.8,1.82,0.89,2.55l-1.25,0.38h2.58c0.4-0.87,0.86-2.03,1.06-2.94h-5.74v-4.12c-0.32,0.25-0.67,0.49-0.99,0.7
		c-0.21-0.38-0.61-0.95-0.99-1.37c-0.1,0.3-0.17,0.57-0.25,0.82l-1.12-0.46c0,0.87-0.06,1.77-0.13,2.64l0.15-0.11
		c0.42,0.55,1.92,3,2.26,3.5l-1.58,1.54c-0.27-0.67-0.76-1.63-1.24-2.49c-0.36,1.63-0.99,3.21-2.03,4.6
		c-0.29-0.46-0.93-1.12-1.35-1.41c1.6-2.26,2.01-5.01,2.11-7.75l-1.44,0.42c-0.13-1.29-0.55-3.51-0.95-5.19l1.5-0.38
		c0.34,1.27,0.7,2.83,0.91,4.07v-0.59v-6.54h1.8v6.54v0.91c0.27-1.27,0.55-3.12,0.65-4.43l1.62,0.53l0.7-0.82
		c0.38,0.23,0.84,0.55,1.27,0.84c0.17-0.38,0.36-0.8,0.51-1.24h-2.22v-1.92h3.02l0.36-0.06l1.29,0.42
		c-0.29,1.46-0.72,2.77-1.27,3.91h3.27c-0.57-1.16-1.08-2.58-1.56-4.45l1.86-0.4c0.13,0.53,0.29,1.03,0.44,1.48
		c0.4-0.34,0.78-0.68,1.06-0.99l1.43,1.46c-0.63,0.42-1.25,0.84-1.82,1.18c0.11,0.29,0.27,0.53,0.4,0.78
		c0.51-0.36,1.03-0.8,1.37-1.14l1.45,1.52c-0.65,0.34-1.24,0.7-1.8,1.01c0.57,0.61,1.18,1.1,1.9,1.54
		c-0.53,0.42-1.14,1.16-1.39,1.75c-0.27-0.19-0.53-0.36-0.78-0.57V2447.97z M808.42,2441.02c-0.38-0.29-0.78-0.61-1.16-0.87
		c-0.21,0.86-0.42,1.73-0.61,2.55C807.3,2442.26,807.89,2441.69,808.42,2441.02z M810.44,2442.41v-0.74
		c-0.38,0.57-0.8,1.1-1.23,1.56h7.14c-0.51-0.51-0.99-1.08-1.43-1.75v0.93H810.44z M814.79,2444.97h-4.27v1.25h4.27V2444.97z"/>
	<path d="M804.83,2466.86c-0.57,2.07-1.29,4.2-1.96,5.96l-1.92-0.89c0.65-1.44,1.52-3.82,2.17-5.98L804.83,2466.86z M803.2,2462.44
		c-0.4-1.18-1.31-3.15-2.01-4.62l1.75-0.84c0.72,1.39,1.67,3.27,2.13,4.43L803.2,2462.44z M816.04,2471.59
		c0.4,0.09,0.8,0.13,1.18,0.13c0.36,0,1.48,0,1.94-0.02c-0.27,0.46-0.49,1.37-0.55,1.9h-1.5c-1.75,0-3.25-0.49-4.33-2.58
		c-0.25,1.08-0.66,2.03-1.27,2.79c-0.27-0.44-0.82-1.1-1.23-1.37c0.29-0.38,0.53-0.84,0.72-1.35l-1.31,1.29
		c-0.29-0.36-0.76-0.89-1.27-1.37c-0.51,1.03-1.35,2-2.62,2.85c-0.3-0.42-0.95-1.04-1.44-1.33c1.69-1.03,2.45-2.36,2.79-3.59h-2.01
		v-1.77h2.26c0.02-0.17,0.02-0.36,0.02-0.51v-1.31h-0.55c-0.27,0.68-0.55,1.29-0.84,1.8c-0.32-0.28-1.08-0.74-1.5-0.99
		c0.65-1.03,1.16-2.53,1.48-3.95l1.73,0.44c-0.08,0.29-0.15,0.59-0.25,0.89h3.48v1.8h-1.6v1.33c0,0.15,0,0.32,0,0.49h1.75v1.77
		h-1.96l-0.08,0.32c0.69,0.57,1.5,1.31,1.94,1.8c0.55-1.48,0.66-3.4,0.7-5.58h1.62c-0.02,0.89-0.06,1.77-0.11,2.56
		c0.23,0.91,0.51,1.58,0.86,2.09v-5.74h-2.72v-1.92h4.03c-0.84-0.7-2.13-1.56-3.12-2.17l1.25-1.27c0.32,0.19,0.69,0.4,1.06,0.63
		c0.36-0.44,0.7-0.89,1.03-1.37h-4.01v-1.82h5.32l0.42-0.13l1.37,0.97c-0.68,1.14-1.62,2.37-2.53,3.38c0.4,0.29,0.76,0.57,1.04,0.78
		l-0.89,1.01h1.06l0.29-0.06l1.23,0.25c-0.17,1.16-0.4,2.53-0.63,3.4l-1.5-0.3c0.06-0.38,0.13-0.85,0.19-1.37h-0.93v2.56h2.53v1.79
		h-2.53V2471.59z M807.6,2462.28c-1.86,0-2.28-0.72-2.28-2.47v-3.7h2v1.48h3.53v1.6h-3.53v0.65c0,0.55,0.06,0.74,0.46,0.74h1.75
		c0.4,0,1.01-0.04,1.31-0.13c0.06,0.53,0.1,1.23,0.17,1.71c-0.32,0.09-0.89,0.13-1.41,0.13H807.6z"/>
	<path d="M802.67,2480.22h-1.43v-1.9h3.63c-0.17-0.46-0.38-0.91-0.55-1.29l2.01-0.57c0.3,0.57,0.61,1.25,0.82,1.86h2.6v1.58
		c1.14-1.03,1.94-2.24,2.41-3.32l2.15,0.36c-0.13,0.3-0.29,0.57-0.44,0.87h3.31l0.4-0.06l1.37,0.46c-1.16,4.81-4.08,6.91-8.32,7.96
		c-0.23-0.51-0.68-1.29-1.06-1.69c0.91-0.17,1.73-0.42,2.51-0.76c-0.44-0.53-1.03-1.18-1.58-1.77c-0.19,0.15-0.38,0.3-0.57,0.44
		c-0.34-0.47-1.06-1.14-1.54-1.41c0.34-0.25,0.68-0.49,1.01-0.76h-4.65v2.68c0,0.59,0.08,0.78,0.55,0.78h2.43
		c0.44,0,1.14-0.04,1.52-0.13c0.04,0.55,0.1,1.37,0.19,1.86c-0.36,0.13-1.06,0.15-1.65,0.15h-2.47c-2.11,0-2.64-0.72-2.64-2.7
		V2480.22z M811.12,2492.07h7.31v1.86h-16.87v-1.86h7.26v-1.01h-6.23v-1.79h6.23v-1.01c-1.96,0.09-3.91,0.15-5.74,0.15
		c-0.04-0.55-0.29-1.33-0.48-1.8c4.83-0.09,10.39-0.44,13.93-1.06l0.93,1.84c-1.82,0.32-4.03,0.57-6.35,0.72v1.16h6.42v1.79h-6.42
		V2492.07z M813.57,2482.9c0.3-0.21,0.57-0.4,0.84-0.65c-0.61-0.57-1.5-1.25-2.32-1.84c-0.13,0.15-0.3,0.32-0.46,0.49
		C812.28,2481.55,813.04,2482.31,813.57,2482.9z M813.29,2479.52c0.72,0.51,1.52,1.06,2.17,1.58c0.34-0.47,0.63-0.99,0.85-1.58
		H813.29z"/>
	<path d="M812.09,2506.46c-0.72,0.36-1.46,0.68-2.22,1.01h7.05v7.2h-2.32v-0.49h-7.26v0.49h-2.2v-5.57
		c-1.03,0.3-2.09,0.57-3.13,0.82c-0.21-0.46-0.68-1.37-0.99-1.79c2.15-0.42,4.31-0.95,6.37-1.67h-5.81v-1.94h6.12v-1.08h-4.56v-1.84
		h4.56v-1.04h2.24v1.04h4.18v1.58c0.95-0.65,1.79-1.31,2.49-2.07l1.67,1.06c-0.84,0.84-1.79,1.63-2.83,2.36h3.1v1.94H812.09z
		 M804.98,2499.9h-3.44v-1.94h3.44v-1.03h2.24v1.03h2.41v1.94h-2.41v1.16h-2.24V2499.9z M814.6,2509.17h-7.26v0.93h7.26V2509.17z
		 M814.6,2512.46v-0.95h-7.26v0.95H814.6z M809.92,2504.52h1.98c0.63-0.34,1.25-0.7,1.84-1.08h-3.82V2504.52z M812.9,2499.9h-2.56
		v-1.94h2.56v-1.03h2.24v1.03h3.29v1.94h-3.29v1.16h-2.24V2499.9z"/>
	<path d="M817.88,2519.7c-0.59,2-1.48,3.69-2.64,5.11c1.1,0.87,2.41,1.63,3.93,2.11c-0.46,0.44-1.1,1.31-1.41,1.9l-0.04-0.02v6.21
		h-2.17v-0.59h-3.57v0.65h-2.09v-6.17l-0.44,0.19c-0.15-0.3-0.42-0.72-0.7-1.08v0.55h-2.09v2.53l2.24-0.51l0.21,2
		c-2.66,0.67-5.55,1.33-7.7,1.82l-0.4-2.17l0.86-0.15v-6.38h1.84v6l0.95-0.19v-7.14h-2.66v-6.29h6.55v4.71
		c1.39-1.33,2.53-3.34,3.15-5.41l2.15,0.53c-0.15,0.42-0.3,0.85-0.47,1.27h2.66l0.4-0.08L817.88,2519.7z M803.99,2522.42h2.51V2520
		h-2.53L803.99,2522.42z M808.76,2527.17c1.31-0.57,2.56-1.39,3.63-2.38c-0.46-0.55-0.84-1.12-1.18-1.67
		c-0.36,0.47-0.74,0.91-1.12,1.31c-0.32-0.34-1.01-0.95-1.52-1.29v1.22h-1.9v2.22h2.09V2527.17z M816.19,2528.06
		c-0.88-0.51-1.65-1.08-2.38-1.73c-0.72,0.67-1.5,1.22-2.34,1.73H816.19z M815.56,2532.49v-2.53h-3.57v2.53H815.56z M812.49,2521.09
		l-0.15,0.29c0.38,0.65,0.86,1.31,1.39,1.96c0.55-0.7,1.01-1.44,1.39-2.24H812.49z"/>
</g>
</svg>
