<svg id="圖層_1" data-name="圖層 1" xmlns="http://www.w3.org/2000/svg" viewBox="0 0 1620 3643.77"><defs><style>.cls-1{fill:#f9c90d;}</style></defs><rect class="cls-1" width="1620" height="3643.77"/><path d="M923.48,75.37a18.84,18.84,0,0,1-3.15,4.16c.51,1.46,1.1,2.34,1.67,2.34.4,0,.63-.92.72-3.16A5.48,5.48,0,0,0,924.58,80c-.36,3.33-1.06,4.17-2.79,4.17-1.39,0-2.45-1.14-3.27-3A19.56,19.56,0,0,1,915,83.48a10.18,10.18,0,0,0-1.5-1.82A19.67,19.67,0,0,0,917.74,79a36.61,36.61,0,0,1-1-5.09h-3.85v2.16l2.92-.53.17,2-3.09.63v3.25c0,1.23-.27,1.84-1,2.2a8.15,8.15,0,0,1-3.42.44,8.63,8.63,0,0,0-.8-2.28c1.07.06,2.17,0,2.51,0s.46-.1.46-.4V78.67c-1.22.25-2.4.5-3.4.69l-.55-2.28c1.08-.17,2.45-.38,3.95-.65V73.89h-3.59V71.74h3.59V69.58c-1,.17-2.07.3-3,.41a8.89,8.89,0,0,0-.65-1.9,48.74,48.74,0,0,0,7.54-1.59L916,68.42c-1,.28-2,.53-3.09.76v2.56h3.65c-.16-1.71-.21-3.48-.23-5.2h2.37a46.75,46.75,0,0,0,.19,5.2h5.17v2.15h-4.94c.15,1.14.34,2.24.55,3.21a15.66,15.66,0,0,0,1.81-2.59Zm-1.39-4.18a15.11,15.11,0,0,0-2.69-3.13l1.71-1.16a16.23,16.23,0,0,1,2.81,3Z"/><path d="M916.89,102.08c.49,0,1,.06,1.52.06,1.06,0,4.71,0,6.06-.06a7.33,7.33,0,0,0-.76,2.17h-5.42c-3.47,0-5.83-.5-7.42-2.7a8.66,8.66,0,0,1-2.66,3A9.63,9.63,0,0,0,906.5,103,8,8,0,0,0,910,97.24l2.26.34c-.13.61-.28,1.18-.44,1.73a4.18,4.18,0,0,0,2.74,2.37V96.86h-7.41v-2h16.76v2h-7.05v1.42h5.85v2h-5.85Zm5.24-8h-13.2V87.44h13.2Zm-2.3-5h-8.7v1h8.7Zm0,2.45h-8.7v1h8.7Z"/><path d="M924.43,115.63v2.11h-4.75a10.24,10.24,0,0,1-3.93,7.26,8.35,8.35,0,0,0-1.33-1.33h-1.84V123h-5.44v-6.19h1.77v4.23h.85V116h-3v-2.07h3v-2.6h-.6a14.89,14.89,0,0,1-1.07,2.32,11.21,11.21,0,0,0-1.76-1,15.4,15.4,0,0,0,1.82-5.34l2,.4a16.63,16.63,0,0,1-.38,1.62h4.43v2h-2.47v2.6h2.89V116h-2.89v5.13h.84v-4.21h1.84v6.34a8.66,8.66,0,0,0,3.1-5.47h-2.44v-2.11h2.66c0-.51,0-1,0-1.52V112.4h-2.49v-2.09h2.49v-3.1h2.11v3.1h3.5v5.32Zm-4.54-1.5c0,.51,0,1,0,1.5h1.46V112.4h-1.44Zm1.9,4.08c.89,1.85,2.11,4.28,2.64,5.76l-2,.84c-.48-1.49-1.62-4-2.49-5.93Z"/><path d="M906.5,144.62a6.84,6.84,0,0,0,1.29-3.36l1.52.46a7.35,7.35,0,0,1-1.35,3.66Zm.41-5.7c1,0,2.11,0,3.39-.09v-.91h-2.93v-1.71h2.93v-.84h-3v-7.16h8v7.16h-3.08v.84h3v1.71h-3v.83l3.34-.13,0,1.75c-3.08.19-6.33.36-8.63.45Zm2.11-5.07h1.6v-4.12H909v.8l.9-.27a12.13,12.13,0,0,1,.6,2.74l-1,.3a11.94,11.94,0,0,0-.5-2.64Zm1.81,7.35a19.8,19.8,0,0,1,.4,3.33l-1.47.17a16,16,0,0,0-.32-3.32Zm1.86-.17a17.8,17.8,0,0,1,.82,3.16l-1.39.28a15.86,15.86,0,0,0-.78-3.17Zm.93-11.3H912v3.13a19.65,19.65,0,0,0,.72-2.62l.91.33Zm0,4.12v-2.7c-.3.8-.61,1.62-.85,2.17L912,133v.81Zm.91,6.78a11.87,11.87,0,0,1,1.46,3l-1.42.59a13.24,13.24,0,0,0-1.39-3Zm6.2-7v2.93h3v8.72H921.6v-.67h-3.52v.74H916v-8.79h2.49v-8.91h2.21v3.89h3.66v2.09Zm.87,5h-3.52v4h3.52Z"/><path d="M856.89,81.66c.49,0,1,0,1.52,0,1.06,0,4.71,0,6.06,0a7.37,7.37,0,0,0-.76,2.16h-5.42c-3.47,0-5.83-.49-7.42-2.69a8.66,8.66,0,0,1-2.66,3,9.27,9.27,0,0,0-1.71-1.58A8.06,8.06,0,0,0,850,76.81l2.26.35c-.13.6-.28,1.17-.44,1.72a4.17,4.17,0,0,0,2.74,2.38V76.43h-7.41v-2h16.76v2h-7.05v1.43h5.85v2h-5.85Zm5.24-8.06h-13.2V67h13.2Zm-2.3-5h-8.7v1h8.7Zm0,2.45h-8.7v1h8.7Z"/><path d="M852.8,87.53a32,32,0,0,1-1.88,4V104.5h-2.16V94.92c-.4.51-.8,1-1.18,1.39A14.11,14.11,0,0,0,846.34,94a19.64,19.64,0,0,0,4.34-7.1Zm8.23,14.8c1.12,0,1.33-.48,1.46-2.6a7.12,7.12,0,0,0,2,.83c-.29,2.83-1,3.78-3.29,3.78h-4.31c-2.64,0-3.4-.68-3.4-3.32V95.7l-1.45.57-.85-2,2.3-.89V88.9h2.13v3.63l1.9-.74V86.87h2V91l2.54-1,.19-.13,1.69.51-.07.36a71.41,71.41,0,0,1-.76,8.64l-1.86-.53c.21-1.59.34-4.1.41-6.42l-2.14.88V100h-2v-6l-1.9.78V101c0,1.12.19,1.31,1.44,1.31Z"/><path d="M863.94,110.14s0,.76,0,1c-.25,8.49-.46,11.51-1.24,12.52a2.52,2.52,0,0,1-1.82,1,20.19,20.19,0,0,1-3,0,5.51,5.51,0,0,0-.74-2.21c1.21.12,2.33.12,2.83.12a1,1,0,0,0,.83-.32c.55-.61.8-3.46,1-10.17h-4.07a15.86,15.86,0,0,1-1.67,3,14.41,14.41,0,0,0-1.46-1.06V123h-5.07v1.39h-2.06V110.27h2.15a19.17,19.17,0,0,0,.55-3.06l2.47.35c-.32,1-.66,1.9-1,2.71h3v3.08a19.65,19.65,0,0,0,2.56-6.12l2.15.5a23.83,23.83,0,0,1-.74,2.41Zm-11.38,2.11h-3v3.08h3Zm0,8.76v-3.73h-3V121Zm6.3-1a40.77,40.77,0,0,0-2.64-4.39l1.77-1a46.08,46.08,0,0,1,2.79,4.21Z"/><path d="M864.26,130.51H861a10.67,10.67,0,0,1,1.31,1.2l-1.36,1.19h1.55v4.81h-6v1.12h6.95s0,.55,0,.82c-.19,2.52-.42,3.76-.91,4.25a2,2,0,0,1-1.45.67,19.84,19.84,0,0,1-2.41,0,4.6,4.6,0,0,0-.63-2,15,15,0,0,0,1.94.08.9.9,0,0,0,.65-.17,3.41,3.41,0,0,0,.45-1.75h-4.54v4.69h-2.22v-3.7a17.38,17.38,0,0,1-5.78,3.63,8.81,8.81,0,0,0-1.42-1.79,16.82,16.82,0,0,0,5.51-2.83h-4.09a41.89,41.89,0,0,0,.71-4.86h5.07v-1.09h-5.78V132.9h3.88a16,16,0,0,0-1.75-1.75l.72-.62h-1.12a15,15,0,0,1-1.94,2.45,13.63,13.63,0,0,0-1.52-1.52,10.82,10.82,0,0,0,2.76-4l2,.57a5.07,5.07,0,0,1-.34.76h4.18v1.73h-2.72a11.38,11.38,0,0,1,1.3,1.25l-1.22,1.12h8a15.44,15.44,0,0,0-1.85-1.69l.82-.7H858.1a9.37,9.37,0,0,1-1.48,1.84,10.56,10.56,0,0,0-1.69-1.31,8.55,8.55,0,0,0,2.38-3.57l2.05.51c-.1.27-.21.55-.32.82h5.22Zm-10,7.2h-3.1c0,.38-.09.76-.15,1.12h3.25Zm6-3h-3.78v1.09h3.78Z"/><path d="M864.3,155.53V158H846.82v-2.45Z"/><path d="M852.25,169.17a35.61,35.61,0,0,1-1.48,3.61v13.47h-2.15v-9.72a18,18,0,0,1-1.27,1.63,16.06,16.06,0,0,0-1.06-2.45,20.17,20.17,0,0,0,3.87-7.18Zm11.61.29V186h-2.15v-.93h-7.14v1.1h-2.05V169.46Zm-2.15,13.7V171.42h-7.14v11.74ZM859,175.39V177h1.82v5.09h-5.26V177h1.69v-1.63h-2.18v-1.64h2.18v-1.94H859v1.94h2.3v1.64Zm.13,3.19h-1.94v2h1.94Z"/><path d="M862.32,206.66H860v-.84h-7.13v.84H850.6v-5.89c-.93.32-1.86.57-2.81.8a8.25,8.25,0,0,0-1.16-2.09,26.82,26.82,0,0,0,6.61-2.23c-.82-.79-2-1.76-3-2.56a15.54,15.54,0,0,1-1.71,1,8.44,8.44,0,0,0-1.56-1.81,14.23,14.23,0,0,0,6.35-5l2.52.53c-.34.48-.68,1-1.06,1.43h5.55l.38-.12,1.55.93a16.07,16.07,0,0,1-6.09,6.56h6.13Zm-9.52-13.83c-.24.21-.47.4-.72.59a34,34,0,0,1,3.25,2.62,14.12,14.12,0,0,0,3.55-3.21Zm7.19,11V200.2h-7.13v3.59Z"/><path d="M863.82,221.63h-7.08v2.87c0,1.22-.29,1.82-1.22,2.17a10.75,10.75,0,0,1-3.69.37,8,8,0,0,0-1-2.29c1.18,0,2.6,0,3,0s.49-.07.49-.34v-2.81h-7v-2.15h7v-1a12.91,12.91,0,0,0,2.32-1.56h-6.12v-2.11h8.4l.51-.11,1.5,1.18a19.29,19.29,0,0,1-4.19,3.28v.32h7.08Zm-14.23-6.13h-2.22v-4.36h7.11a11.45,11.45,0,0,0-.74-1.25l2.25-.68a8.32,8.32,0,0,1,1.16,1.93h6.54v4.36h-2.34v-2.23H849.59Z"/><path d="M853.46,248.38c1.46-.55,2.28-1.5,2.28-2.6h-.17a1.64,1.64,0,0,1-1.75-1.65,1.69,1.69,0,0,1,1.81-1.66c1.29,0,2,1,2,2.76a4.79,4.79,0,0,1-3.59,4.67Z"/><path d="M861.56,272.85c-.06.8-.09,1.47-.15,2.08h2.13v2h-2.36a3.76,3.76,0,0,1-.49,1.56,2,2,0,0,1-1.58.89,12.81,12.81,0,0,1-2.53,0,4.21,4.21,0,0,0-.55-1.73,15.9,15.9,0,0,0,2,.08.63.63,0,0,0,.66-.31,1.7,1.7,0,0,0,.23-.53H848.7c.23-1.12.46-2.54.68-4h-2.62v-2h2.91c.15-1.14.28-2.32.4-3.36-.48.57-.93,1.12-1.41,1.59a17.23,17.23,0,0,0-2-1.31,16.92,16.92,0,0,0,4.37-6.19l2.24.65c-.17.38-.36.78-.55,1.17h11v2H851.51c-.32.51-.64,1-1,1.46h11.25s0,.72,0,1c0,1.1-.07,2.07-.11,3h2.73v2Zm-9.91-.07c-.12.76-.21,1.46-.33,2.15h4.16a12.57,12.57,0,0,0-2.26-1.41l.76-.74Zm.51-3.93c-.08.68-.17,1.36-.27,2.07h3.78a11.21,11.21,0,0,0-2.2-1.31l.78-.76Zm7.05,6.08c0-.61.09-1.3.13-2.15h-4a12.33,12.33,0,0,1,2.22,1.5l-.65.65Zm.2-4c0-.65.06-1.31.08-2.07h-3.86a11.82,11.82,0,0,1,2.17,1.42l-.65.65Z"/><path d="M864.3,289.56V292H846.82v-2.45Z"/><path d="M852.92,315.11h-6v-2.26h6Zm-.42-7.67h-5.22v-2.19h5.22Zm6.31,3c.8,3.63,2.45,6.46,5.7,7.68a8.11,8.11,0,0,0-1.5,2,9.47,9.47,0,0,1-5-5.39,10.4,10.4,0,0,1-5.55,5.58,9.33,9.33,0,0,0-1.71-1.86c5.09-2.33,5.63-6,5.63-8.49v-1.75h2.43v2.22Zm-3.33-2.71a17.76,17.76,0,0,1-2.07,3.95,15.53,15.53,0,0,0-2.26-1.31c1.58-1.77,2.7-4.81,3.25-7.87l2.51.42c-.19.88-.4,1.73-.65,2.57H862l.44-.14,1.65,1a30.23,30.23,0,0,1-2,5.51,17.3,17.3,0,0,0-1.93-.93,25.31,25.31,0,0,0,1.12-3.17Z"/><path d="M861.87,338.14c.43,0,.51-.34.58-2.7a7,7,0,0,0,2.13,1c-.23,3.12-.81,3.95-2.47,3.95h-1.76c-1.87,0-2.45-.66-2.45-2.89V335h-2.49c-.48,2.23-2.13,4.52-7,5.8a10.86,10.86,0,0,0-1.6-1.94c3.94-1,5.53-2.41,6.1-3.86h-4.65v-2.09h5v-2.09h2.4v2.09h4.69v4.52c0,.61.08.69.51.69Zm-12.16-9.65h-2.28v-3.88h6.93c-.13-.47-.26-.95-.4-1.35l2.38-.38c.19.54.42,1.16.59,1.73h6.91v3.71h-2.37v-1.68h-2.68v2.44c0,.49.07.7.57.7h2.3a7.42,7.42,0,0,0,1.65-.15c.06.61.11,1.37.19,1.9a7.57,7.57,0,0,1-1.75.15h-2.56c-2.15,0-2.66-.76-2.66-2.62v-2.42h-2c-.36,2.7-1.44,4.32-5.79,5.23A5.46,5.46,0,0,0,847.6,330c3.59-.59,4.33-1.6,4.61-3.39h-2.5Z"/><path d="M851.42,354.31a19.73,19.73,0,0,0-.78-1.88v8.68h-2v-6.56a16.27,16.27,0,0,1-1.33,3.14,11.41,11.41,0,0,0-1-2.28,18.21,18.21,0,0,0,2.32-6v-.68h-1.77v-2h1.77v-3.42h2v3.42H852v2h-1.39v.89c.42.61,1.42,2.19,1.84,2.89v-3.8h3.69v7H854.8v-.61h-1v1.1h-1.29v-3.34Zm12.93,4.23v2H851.49v-2Zm-9.48-9.91a31.19,31.19,0,0,0,1-2.95h-3.51v-1.95h11.45v1.95H858c-.13.44-.28.88-.43,1.29h1.93s0,.61,0,.84c0,1.22,0,2.24,0,3.17l1.23-1c.36.42.7.86,1.06,1.32.18-.63.33-1.28.46-2h-2.36V347.7h2.89l.33-.06,1.12.34a21.46,21.46,0,0,1-1.18,5.17,17.69,17.69,0,0,1,1.37,2.54l-1.45,1.18a17.47,17.47,0,0,0-.81-1.78,8.29,8.29,0,0,1-2,2.29,9,9,0,0,0-.93-1.08,2.44,2.44,0,0,1-.31,1,1.7,1.7,0,0,1-1.23.78,12.43,12.43,0,0,1-1.94.07,4.22,4.22,0,0,0-.49-1.76c.61,0,1.12.05,1.4.05a.55.55,0,0,0,.52-.28c.26-.42.32-2.28.36-7.54Zm-1.1,1.78v3.21h1v-3.21Zm5.63.69c0,2.07-.08,3.49-.16,4.46a7.33,7.33,0,0,0,1.69-2.32C860.44,352.5,859.93,351.76,859.4,351.1Z"/><path d="M863.18,368.35a38.57,38.57,0,0,1-10.15,9.8,9.25,9.25,0,0,0,4.77.86,53.26,53.26,0,0,0,6.65-.46,11.85,11.85,0,0,0-.65,2.41c-1.35.1-4.21.21-6.08.21-2.33,0-3.85-.24-5.14-1-.82-.48-1.45-1.12-1.87-1.12-.59,0-1.44,1.27-2.22,2.49l-1.63-2.13c1.37-1.46,2.87-2.47,3.91-2.47h.12a33.38,33.38,0,0,0,8.39-7.37H847.83V367.3h7.41c-.46-.81-1.16-1.86-1.71-2.65l2-1.09a33.35,33.35,0,0,1,2.13,3.08l-1.16.66H861l.44-.11Z"/><path d="M857.42,397.27a58.78,58.78,0,0,1,6.86,2.79L863.21,402a62.13,62.13,0,0,0-7.59-3.31l.85-1.42h-.68c-.92,2.33-2.95,3.83-8,4.67a5.63,5.63,0,0,0-1.12-2c3.82-.52,5.6-1.37,6.5-2.64h-5.67v-1.92h6.41c.05-.31.11-.65.15-1h-7v-2h7.29v-1h-5.62v-1.9h5.62v-1h-6.7v-2h3.61a11.57,11.57,0,0,0-1.07-1.67l2-.8a8.46,8.46,0,0,1,1.42,2.23l-.55.24h4.18a18.83,18.83,0,0,0,1.35-2.47l2.43.63c-.42.67-.86,1.29-1.27,1.84h3.64v2h-6.72v1h5.81v1.9h-5.81v1h7.56v2h-7.81c0,.34-.09.66-.15,1h7.41v1.92Z"/><path d="M863.94,407.57s0,.76,0,1c-.25,8.49-.46,11.51-1.24,12.52a2.56,2.56,0,0,1-1.82,1.05,21.89,21.89,0,0,1-3,0,5.52,5.52,0,0,0-.74-2.2c1.21.11,2.33.11,2.83.11a1,1,0,0,0,.83-.32c.55-.61.8-3.46,1-10.16h-4.07a16.17,16.17,0,0,1-1.67,3,14.33,14.33,0,0,0-1.46-1.07v8.88h-5.07v1.38h-2.06V407.7h2.15a19.37,19.37,0,0,0,.55-3.06l2.47.34c-.32.95-.66,1.9-1,2.72h3v3.08a19.75,19.75,0,0,0,2.56-6.12l2.15.49a23.24,23.24,0,0,1-.74,2.42Zm-11.38,2.1h-3v3.08h3Zm0,8.76v-3.72h-3v3.72Zm6.3-1a39.82,39.82,0,0,0-2.64-4.39l1.77-1a46.13,46.13,0,0,1,2.79,4.22Z"/><path d="M852.69,430h-6v-1.76H849c-.18-.72-.56-1.79-.84-2.62l1.8-.55a23.34,23.34,0,0,1,1,2.69l-1.37.48h3.12Zm4.64,1.7a28.06,28.06,0,0,1-1.16,6.93c1.33,1.5,3.07,1.8,5,1.8h3.46a6.86,6.86,0,0,0-.64,2H861c-2.2,0-4.12-.4-5.64-2a8,8,0,0,1-1.92,2.4,8,8,0,0,0-1.18-1.75v.7H849v.78h-1.71v-6.5h4.94v5a6.11,6.11,0,0,0,1.85-2.45,14.36,14.36,0,0,1-1.24-3.57l1.35-.51c.19.74.4,1.38.61,2a20.51,20.51,0,0,0,.57-3.13h-1.49v0h-1.23c.59-1.44,1.33-3.48,1.94-5.41h-1.71v-2h4.41c-.56,1.79-1.26,3.9-1.89,5.62h.44l.32,0Zm-5,.87h-4.88v-1.71h4.88Zm-4.88.87h4.88v1.69h-4.88Zm3.11,4.39H849V440h1.48Zm9.67-9.65c-.83.13-1.67.23-2.45.31a8.67,8.67,0,0,0-.53-1.71,25.8,25.8,0,0,0,5.93-1.37l1.21,1.73a18.61,18.61,0,0,1-2.31.68v3.34h2v2h-2v3.9h2.11v2.05H857v-2.05h.88v-7.37h1.52v7.37h.79Z"/><path d="M864.13,460.48v2.22H847.05v-2.22h7.33v-3.82h-5.15v-2.18h5.15v-3.35h-3.93a15.28,15.28,0,0,1-1.77,2.76,17,17,0,0,0-2-1.35,16.34,16.34,0,0,0,3.36-6.8l2.34.51c-.27.91-.57,1.8-.9,2.68h2.93v-3.42h2.38v3.42h6.4v2.2h-6.4v3.35h5.68v2.18h-5.68v3.82Z"/><path d="M853.46,484.53c1.46-.55,2.28-1.5,2.28-2.6h-.17a1.64,1.64,0,0,1-1.75-1.65,1.69,1.69,0,0,1,1.81-1.66c1.29,0,2,1,2,2.76a4.79,4.79,0,0,1-3.59,4.67Z"/><path d="M864.53,499.81c-.69,1.82-1.52,4-2.3,5.64a6.09,6.09,0,0,1,1.93,4.41c0,1.43-.3,2.36-1.06,2.85a2.77,2.77,0,0,1-1.33.51,8.89,8.89,0,0,1-1.65,0,5.52,5.52,0,0,0-.57-2.18,10,10,0,0,0,1.19,0,1.47,1.47,0,0,0,.76-.17c.37-.21.5-.66.5-1.29a5.47,5.47,0,0,0-2-3.89c.55-1.37,1.2-3.29,1.67-4.75H859.3v14.55h-2.22V499.28a23.94,23.94,0,0,1-2,4.05h1.4v2h-2.83c-.4.49-.8.93-1.21,1.39h3.41v8.56h-2.14v-.72h-3.06v1h-2v-5.75c-.33.21-.65.4-1,.57a11.81,11.81,0,0,0-1.31-1.88,17.78,17.78,0,0,0,4.54-3.14H846.8v-2h3.31v-1.56h-2.49v-1.94h2.49V498h2.09v1.84h1.95v1a17.79,17.79,0,0,0,.93-2.13l2,.55v-.36h5.47l.34-.07Zm-10.85,8.66h-3.06v1.22h3.06Zm0,4.26v-1.35h-3.06v1.35Zm-1.1-9.4c.36-.5.7-1,1-1.56H852.2v1.56Z"/><path d="M856.89,533.53c.49,0,1,.06,1.52.06,1.06,0,4.71,0,6.06-.06a7.43,7.43,0,0,0-.76,2.17h-5.42c-3.47,0-5.83-.49-7.42-2.7a8.66,8.66,0,0,1-2.66,3,9.23,9.23,0,0,0-1.71-1.57,8.08,8.08,0,0,0,3.53-5.76l2.26.34c-.13.61-.28,1.18-.44,1.73a4.18,4.18,0,0,0,2.74,2.37v-4.82h-7.41v-2h16.76v2h-7.05v1.42h5.85v2h-5.85Zm5.24-8h-13.2v-6.59h13.2Zm-2.3-5h-8.7v1h8.7Zm0,2.45h-8.7v1h8.7Z"/><path d="M852.16,539.31a38,38,0,0,1-1.43,3.73v13.35h-2.14V547c-.36.53-.73,1-1.07,1.44a19.65,19.65,0,0,0-1.1-2.45,21.19,21.19,0,0,0,3.65-7.32Zm12,11.88h-5.06v5.2h-2.26v-5.2h-5V549.1h5v-2.21h-4.24v-2.11h4.24v-6.13h2.26v6.13h4.3v2.11h-4.3v2.21h5.06Zm-9.6-6.65a33.19,33.19,0,0,0-2.47-4.09l1.77-.85a27.37,27.37,0,0,1,2.53,3.89Zm8.93-4.33c-.57,1.44-1.39,3.21-2,4.31a10.59,10.59,0,0,0-1.9-.88,27.15,27.15,0,0,0,1.83-4Z"/><path d="M856.24,568a22.83,22.83,0,0,1-1.38,5.07c.32.19.66.46,1.12.76a7.07,7.07,0,0,0,3.87.82,41.57,41.57,0,0,0,4.75-.31,9.53,9.53,0,0,0-.51,2.11c-1,.08-3,.15-4.28.15a7.4,7.4,0,0,1-4.12-1c-.68-.46-1.25-1-1.65-1s-1.1,1.22-1.6,2.28l-1.36-2a7.73,7.73,0,0,1,2-1.82,19.73,19.73,0,0,0,1.06-3.63h-1.5v0a2.93,2.93,0,0,1-.8,2.41,1.86,1.86,0,0,1-1,.38,5.41,5.41,0,0,1-1.15,0,3.91,3.91,0,0,0-.45-1.67,6,6,0,0,0,.82,0,.74.74,0,0,0,.51-.16c.25-.17.32-.66.32-1.23a5.86,5.86,0,0,0-1.31-3.61c.38-1.18.74-2.68,1-3.89H849.1v14.93h-1.79V559.83h4l.27-.06,1.27.71c-.47,1.57-1.06,3.53-1.6,5a6.63,6.63,0,0,1,1.35,3.38c.34-1,.71-2.33,1-3.59h-1.37v-1.8h3.16a8.56,8.56,0,0,0,1.48-1.73h-1.28v-1.45h2a11.19,11.19,0,0,0,.44-1.31l1.78.35q-.14.48-.3,1h4.69v1.45h-5.3a9.27,9.27,0,0,1-.44.82h5.17v1.23h-2v.89h2.43V566h-7v-1.24h2.62v-.89h-1.43v-.93a9.16,9.16,0,0,1-2.41,2.58c-.09-.17-.25-.45-.44-.74-.26,1-.55,2.09-.83,3.06h.51l.29-.06Zm-2.73-5.19c-.19-.85-.55-2.14-.8-3.15l1.71-.38c.26,1,.63,2.22.83,3Zm10.18,9.61c0,.82-.17,1.14-.7,1.39a6.48,6.48,0,0,1-2.34.23,7.45,7.45,0,0,0-.51-1.39c.55,0,1.19,0,1.36,0s.27-.08.27-.25v-1c-1.06.31-2,.57-3,.82l-.4-1.2a7.73,7.73,0,0,1-.76,2.89,7.44,7.44,0,0,0-1.56-1,8.22,8.22,0,0,0,.59-3.67v-2.66h7Zm-1.92-2.24v-2.28h-3.31v1.43c0,.4,0,.85,0,1.33.66-.08,1.42-.19,2.26-.32a20.2,20.2,0,0,0-2.05-1.3l.79-1a16.43,16.43,0,0,1,2.25,1.19l-.75,1.09Z"/><path d="M857.63,589c-.72.36-1.46.69-2.22,1h7v7.2h-2.31v-.49h-7.26v.49h-2.2v-5.57c-1,.31-2.09.57-3.14.82a13,13,0,0,0-1-1.78,44.54,44.54,0,0,0,6.37-1.68H847.1V587.1h6.12V586h-4.56v-1.84h4.56v-1h2.24v1h4.18v1.58a14.33,14.33,0,0,0,2.49-2.07l1.67,1.06A20.12,20.12,0,0,1,861,587.1h3.1V589Zm-7.11-6.55h-3.43v-1.94h3.43v-1h2.25v1h2.41v1.94h-2.41v1.16h-2.25Zm9.62,9.27h-7.26v.93h7.26Zm0,3.29v-.95h-7.26V595Zm-4.68-7.94h2c.63-.35,1.25-.71,1.84-1.09h-3.82Zm3-4.62h-2.57v-1.94h2.57v-1h2.24v1H864v1.94h-3.28v1.16h-2.24Z"/><path d="M850.07,603.93a16.12,16.12,0,0,1-2.22,2.11,13.75,13.75,0,0,0-1.3-1.83,12.36,12.36,0,0,0,3.94-4.5l2,.65a13.34,13.34,0,0,1-.89,1.58h12v2Zm-3.16,12.94a18.08,18.08,0,0,0,2.13-3.71l2.19.57a24.22,24.22,0,0,1-2.11,4Zm14.84-8.51v2.41H864v2H847.09v-2h2.6v-2.41h-2v-2h2v-1.71h2v1.71H853v-1.71h1.88v1.71h1.49v-1.71h1.88v1.71h1.42v-1.71h2.09v1.71h1.86v2Zm-10,2.41H853v-2.41H851.7Zm2.66,2.93a21.39,21.39,0,0,1,.48,3.55l-2.23.32a22.12,22.12,0,0,0-.36-3.65Zm.51-5.34v2.41h1.49v-2.41Zm3.37,5.18a18.92,18.92,0,0,1,1.12,3.52l-2.26.43a19.64,19.64,0,0,0-1-3.61Zm1.42-5.18h-1.42v2.41h1.42ZM862,613a28.32,28.32,0,0,1,2.22,3.74l-2.22,1a27.75,27.75,0,0,0-2.07-3.87Z"/><path d="M863.14,625.8A25.88,25.88,0,0,1,861.5,633a8.15,8.15,0,0,0,3,3.36,6.18,6.18,0,0,0-1.28,1.54,9,9,0,0,1-2.75-3,10.91,10.91,0,0,1-3.4,3.36,6.75,6.75,0,0,0-.86-1.36l-1.21,1a20.69,20.69,0,0,0-2.45-1.31,20.24,20.24,0,0,1-5.32,1.41,5.77,5.77,0,0,0-.82-1.45,23.07,23.07,0,0,0,4-.85,25.54,25.54,0,0,0-2.53-.88,8.76,8.76,0,0,0,.84-1.1l-1.71.1-.17-1.51c.83,0,1.82-.07,2.92-.13a11.77,11.77,0,0,0,.67-1.18h-2.79v-3.43h3.4V627h-2.89v-2h-1.45v-1.6h1.45v-1.92h2.89v-1.15h1.71v1.15h3.05v1.92h1.3V625h-1.3v2h-3.05v.54h3.47V629c1.26-2,1.88-5.26,2.22-8.53l1.91.25c-.14,1.06-.29,2.13-.5,3.15h4.5v2Zm-13.64,3.84h1.56v-.71H849.5ZM850,623v.61h1V623Zm1,2.66v-.69h-1v.69Zm-.52,8.51c.63.21,1.28.44,1.9.68a3.24,3.24,0,0,0,1.33-1.34l-2.88.15Zm5.17-.78a4.06,4.06,0,0,1-1.44,2.24c.68.31,1.29.61,1.82.88a8.45,8.45,0,0,0,3.38-3.63,28.72,28.72,0,0,1-1.12-3.78,9,9,0,0,1-.72,1.38,12.1,12.1,0,0,0-1.39-1.38v2h-3.8c-.19.37-.4.73-.61,1.11l2.23-.12v-.66h1.76v.59l.61,0,0,1.42ZM852.77,623v.61h1.1V623Zm1.1,2.66v-.69h-1.1v.69Zm-1.1,3.32v.71h1.52v-.71Zm6.68-3.13a31.87,31.87,0,0,0,1,4.56,25,25,0,0,0,.82-4.56Z"/><path d="M863.94,643.72s0,.76,0,1c-.25,8.49-.46,11.51-1.24,12.52a2.56,2.56,0,0,1-1.82,1,21.89,21.89,0,0,1-3,0,5.52,5.52,0,0,0-.74-2.2c1.21.11,2.33.11,2.83.11a1,1,0,0,0,.83-.32c.55-.61.8-3.46,1-10.16h-4.07a16.17,16.17,0,0,1-1.67,3,13,13,0,0,0-1.46-1.06v8.87h-5.07V658h-2.06V643.85h2.15a19.37,19.37,0,0,0,.55-3.06l2.47.34c-.32,1-.66,1.9-1,2.72h3v3.08a19.75,19.75,0,0,0,2.56-6.12l2.15.49a23.24,23.24,0,0,1-.74,2.42Zm-11.38,2.11h-3v3.07h3Zm0,8.75v-3.72h-3v3.72Zm6.3-1a40.77,40.77,0,0,0-2.64-4.39l1.77-1a46.13,46.13,0,0,1,2.79,4.22Z"/><path d="M857.42,674.27a58.78,58.78,0,0,1,6.86,2.79L863.21,679a62.13,62.13,0,0,0-7.59-3.31l.85-1.42h-.68c-.92,2.33-2.95,3.83-8,4.67a5.63,5.63,0,0,0-1.12-2c3.82-.52,5.6-1.37,6.5-2.64h-5.67v-1.92h6.41c.05-.31.11-.65.15-1h-7v-2h7.29v-1h-5.62v-1.9h5.62v-1h-6.7v-2h3.61a11.57,11.57,0,0,0-1.07-1.67l2-.8a8.46,8.46,0,0,1,1.42,2.23l-.55.24h4.18a18.83,18.83,0,0,0,1.35-2.47l2.43.63c-.42.67-.86,1.29-1.27,1.84h3.64v2h-6.72v1h5.81v1.9h-5.81v1h7.56v2h-7.81q-.06.51-.15,1h7.41v1.92Z"/><path d="M853.46,700.26c1.46-.55,2.28-1.5,2.28-2.6h-.17a1.65,1.65,0,0,1-1.75-1.66,1.69,1.69,0,0,1,1.81-1.65c1.29,0,2,1,2,2.75a4.79,4.79,0,0,1-3.59,4.68Z"/><path d="M852.8,714.28a32,32,0,0,1-1.88,4.05v12.92h-2.16v-9.58c-.4.52-.8,1-1.18,1.39a14.11,14.11,0,0,0-1.24-2.36,19.55,19.55,0,0,0,4.34-7.1Zm8.23,14.8c1.12,0,1.33-.47,1.46-2.6a7.12,7.12,0,0,0,2,.83c-.29,2.83-1,3.78-3.29,3.78h-4.31c-2.64,0-3.4-.68-3.4-3.32v-5.32L852,723l-.85-2,2.3-.9v-4.48h2.13v3.63l1.9-.74v-4.92h2v4.12l2.54-1,.19-.13,1.69.51-.07.36a71.76,71.76,0,0,1-.76,8.65l-1.86-.54c.21-1.59.34-4.1.41-6.42l-2.14.88v6.72h-2v-5.94l-1.9.78v6.15c0,1.12.19,1.31,1.44,1.31Z"/><path d="M863.94,736.89s0,.76,0,1c-.25,8.49-.46,11.51-1.24,12.52a2.52,2.52,0,0,1-1.82,1,20.19,20.19,0,0,1-3,0,5.42,5.42,0,0,0-.74-2.2c1.21.11,2.33.11,2.83.11a1,1,0,0,0,.83-.32c.55-.61.8-3.46,1-10.17h-4.07a16.28,16.28,0,0,1-1.67,3,13,13,0,0,0-1.46-1.07v8.87h-5.07v1.39h-2.06V737h2.15a19.05,19.05,0,0,0,.55-3l2.47.34c-.32,1-.66,1.9-1,2.71h3v3.08a19.59,19.59,0,0,0,2.56-6.11l2.15.49a23.07,23.07,0,0,1-.74,2.41ZM852.56,739h-3v3.08h3Zm0,8.76V744h-3v3.72Zm6.3-1a40.77,40.77,0,0,0-2.64-4.39l1.77-1a46.08,46.08,0,0,1,2.79,4.21Z"/><path d="M862.32,772.13H860v-.83h-7.13v.83H850.6v-5.88a28,28,0,0,1-2.81.79,8.6,8.6,0,0,0-1.16-2.09,26.39,26.39,0,0,0,6.61-2.22,37.3,37.3,0,0,0-3-2.56,15.54,15.54,0,0,1-1.71,1,8.2,8.2,0,0,0-1.56-1.81,14.29,14.29,0,0,0,6.35-5l2.52.53c-.34.47-.68.95-1.06,1.42h5.55l.38-.11,1.55.93a16,16,0,0,1-6.09,6.55h6.13Zm-9.52-13.82c-.24.2-.47.39-.72.58a35.61,35.61,0,0,1,3.25,2.63,14.31,14.31,0,0,0,3.55-3.21Zm7.19,11v-3.59h-7.13v3.59Z"/><path d="M863.82,787.11h-7.08V790c0,1.21-.29,1.82-1.22,2.16a10.72,10.72,0,0,1-3.69.38,8.14,8.14,0,0,0-1-2.3c1.18,0,2.6,0,3,0s.49-.07.49-.34v-2.81h-7V785h7v-1a12.35,12.35,0,0,0,2.32-1.55h-6.12v-2.11h8.4l.51-.12,1.5,1.18a19,19,0,0,1-4.19,3.29V785h7.08ZM849.59,781h-2.22v-4.35h7.11a10.57,10.57,0,0,0-.74-1.25l2.25-.69a8.17,8.17,0,0,1,1.16,1.94h6.54V781h-2.34v-2.22H849.59Z"/><path d="M858.18,801.38a49.58,49.58,0,0,1,6.33,5.15l-1.92,1.72a44,44,0,0,0-5.82-5.14V813H854.3v-9.27a22.63,22.63,0,0,1-6,4.67,13.46,13.46,0,0,0-1.55-2.05,19.93,19.93,0,0,0,8.18-7.47h-7.58v-2.32h16.47v2.32h-5.9a20.51,20.51,0,0,1-1.11,1.75v2Z"/><path d="M852.29,817.21c-.46,1.12-1,2.27-1.54,3.36v12.82h-2v-9.52a16.66,16.66,0,0,1-1,1.31,12.64,12.64,0,0,0-1.16-2.33,20.52,20.52,0,0,0,4-7.11l2.05.65-.26.72h4.77a11,11,0,0,0-.5-1l2.09-.57a14,14,0,0,1,.8,1.6h4.67V819H852.29Zm12,10.71h-2V829h-3v2.19c0,1-.21,1.56-1,1.86a10.65,10.65,0,0,1-3.27.28,9.32,9.32,0,0,0-.66-2c.89,0,2,0,2.28,0s.38-.06.38-.29V829h-3.25v-1.76h8.49v-1h-8.51v1.67h-1.94v-3.44h12.48Zm-10.88-4.2v-4h9.42v4Zm2-1.5h5.23v-1h-5.23Z"/><path d="M863.94,839s0,.76,0,1c-.25,8.49-.46,11.51-1.24,12.52a2.56,2.56,0,0,1-1.82,1.05,21.89,21.89,0,0,1-3,0,5.52,5.52,0,0,0-.74-2.2c1.21.11,2.33.11,2.83.11a1,1,0,0,0,.83-.32c.55-.61.8-3.46,1-10.16h-4.07a16.17,16.17,0,0,1-1.67,3,14.41,14.41,0,0,0-1.46-1.06v8.87h-5.07v1.38h-2.06V839.15h2.15a19.37,19.37,0,0,0,.55-3.06l2.47.34c-.32,1-.66,1.9-1,2.72h3v3.08a19.75,19.75,0,0,0,2.56-6.12l2.15.49a23.24,23.24,0,0,1-.74,2.42Zm-11.38,2.1h-3v3.08h3Zm0,8.76v-3.72h-3v3.72Zm6.3-1a40.77,40.77,0,0,0-2.64-4.39l1.77-1a46.13,46.13,0,0,1,2.79,4.22Z"/><path d="M861,869.66a9.83,9.83,0,0,1-2.7,2.13,44.83,44.83,0,0,0,6.08.72,9.38,9.38,0,0,0-1.12,1.79,34.19,34.19,0,0,1-7.64-1.37,38,38,0,0,1-7.88,1.44,10.46,10.46,0,0,0-1.06-1.8,42.16,42.16,0,0,0,6.25-.74,12,12,0,0,1-2.28-1.43,13.28,13.28,0,0,1-2.62,1.47,11.29,11.29,0,0,0-1.26-1.7,9.94,9.94,0,0,0,5-3.36l1.94.57a5.87,5.87,0,0,1-.46.65h10.22v1.63Zm-12.52-5a11.64,11.64,0,0,1-.59,3.25,7.28,7.28,0,0,0-1.14-.67,9.7,9.7,0,0,0,.42-2.81Zm3-.53a3.1,3.1,0,0,0-.09-.61c-3.17.38-3.69.51-4,.66a8.94,8.94,0,0,0-.49-1.46,2.63,2.63,0,0,0,1.18-.74,12.39,12.39,0,0,0,1-1.06,6.28,6.28,0,0,0-1.75.28,9.81,9.81,0,0,0-.53-1.44,1.63,1.63,0,0,0,.8-.59,12.91,12.91,0,0,0,1.61-2.68l1.54.49a16.24,16.24,0,0,1-1.74,2.7l1.13-.06c.31-.39.61-.81.88-1.23l1.44.65a24.61,24.61,0,0,1-3,3.49l1.62-.17q-.15-.45-.33-.87l1.2-.33a11.86,11.86,0,0,1,.82,2.55Zm-2.22,3.28a16.92,16.92,0,0,0-.3-2.77l1.25-.25a19.45,19.45,0,0,1,.38,2.72Zm2-.43a14.76,14.76,0,0,0-.54-2.43l1.16-.33a15.17,15.17,0,0,1,.61,2.38Zm7.14-7.64h-5.95v-1.22h2.24a8.64,8.64,0,0,0-.49-1.15l1.67-.58a8.92,8.92,0,0,1,.74,1.73h1.79Zm-5.93,10.37a12.72,12.72,0,0,0,3.14,1.43,9.21,9.21,0,0,0,2.66-1.43ZM858,861h-5.17V859.9H858Zm0,1.8h-5.17v-1.16H858ZM852.94,867v-3.48h5V867Zm1.33-1.16h2.28V864.7h-2.28Zm8.64-1.84a6.31,6.31,0,0,0-.11-.65c-3.14.4-3.67.5-4,.67-.1-.32-.33-1-.48-1.41a2.19,2.19,0,0,0,1.12-.74,9.55,9.55,0,0,0,.95-1,6.12,6.12,0,0,0-1.73.27,12.93,12.93,0,0,0-.49-1.44,1.46,1.46,0,0,0,.78-.57,11.55,11.55,0,0,0,1.59-2.62l1.52.49a16.3,16.3,0,0,1-1.74,2.66l1.08,0c.3-.42.61-.85.85-1.27l1.41.62a25.76,25.76,0,0,1-2.77,3.39l1.57-.16a9.44,9.44,0,0,0-.36-1.06l1.26-.32a14.6,14.6,0,0,1,.83,2.77Zm-2.83.59a16.13,16.13,0,0,1-.59,3,7.79,7.79,0,0,0-1.21-.66,14,14,0,0,0,.41-2.62Zm.68,2.64a11.81,11.81,0,0,0-.32-2.72l1.25-.24a13.28,13.28,0,0,1,.4,2.69Zm2.15-.15a21.36,21.36,0,0,0-.61-2.78l1.2-.26a17.87,17.87,0,0,1,.68,2.68Z"/><path d="M854.53,887.24a31.08,31.08,0,0,1,2.43,6l-2,.91a14.55,14.55,0,0,0-.63-2.18c-5.11.87-6,1.1-6.55,1.37a19,19,0,0,0-.78-2.17c.53-.17,1-.68,1.75-1.63a29.57,29.57,0,0,0,2.6-4c-2.68.24-3.28.38-3.7.57a19.53,19.53,0,0,0-.74-2.19c.43-.13.78-.55,1.25-1.23a26.79,26.79,0,0,0,2.83-5.78l2.26.93a33.08,33.08,0,0,1-3.21,5.76l2.43-.15c.31-.61.59-1.26.84-1.9l2.24,1a47.44,47.44,0,0,1-4.88,7.85l2.9-.44c-.28-.7-.57-1.37-.87-2Zm9.27-7.43c-.22,9-.41,12.18-1.16,13.18a2.46,2.46,0,0,1-1.78,1.13,16.51,16.51,0,0,1-3,0,5.15,5.15,0,0,0-.72-2.24c1.14.1,2.13.1,2.62.1a.85.85,0,0,0,.76-.35c.55-.64.76-3.57.93-10.79h-6.42v-2.16h8.72Z"/><path d="M853.46,916c1.46-.55,2.28-1.5,2.28-2.6h-.17a1.64,1.64,0,0,1-1.75-1.65,1.68,1.68,0,0,1,1.81-1.65c1.29,0,2,1,2,2.75a4.79,4.79,0,0,1-3.59,4.67Z"/><path d="M853,930.05a29.28,29.28,0,0,1-1.86,3.93v13H849v-9.63c-.44.55-.88,1.06-1.31,1.52a15.85,15.85,0,0,0-1.24-2.47,19.88,19.88,0,0,0,4.45-7.07Zm11.44,14.22v2.11H852.1v-2.11Zm-1.37-1.86h-9.67V930.48h9.67Zm-2.47-9.84h-4.86v2.78h4.86Zm0,4.87h-4.86v2.88h4.86Z"/><path d="M859.26,960.48a9,9,0,0,1-1,3.31,19,19,0,0,0,6.49,1.59,9.45,9.45,0,0,0-1.34,2,17.52,17.52,0,0,1-6.5-2,9.59,9.59,0,0,1-3.9,2,12.2,12.2,0,0,0-1.4-1.88,8.72,8.72,0,0,0,3.46-1.46,11.12,11.12,0,0,1-2.34-2.83l1.84-.57a8,8,0,0,0,1.77,2,6.14,6.14,0,0,0,.7-2.17h-4.23v-5.55h4.37v-1.32h-4.77v-1.75c-.34.72-.72,1.46-1.14,2.18v13.43h-2.15v-10.2a20,20,0,0,1-1.56,1.79,15,15,0,0,0-1.19-2.32,20.13,20.13,0,0,0,4.59-7.09l2.09.69-.51,1.21h4.64v-1.73h2.24v1.73h5v2.06h-5v1.32h4.52v5.55Zm-2.12-1.82v-1.88H854.8v1.88Zm2.24-1.88v1.88h2.35v-1.88Z"/><path d="M857.46,971.1c-.12.16-.25.31-.38.46a16.24,16.24,0,0,0,7.52,3.55,9.37,9.37,0,0,0-1.61,2.15,16.8,16.8,0,0,1-3.46-1.39v1.18H851.4v-1.23a22.78,22.78,0,0,1-3.63,1.53,10.1,10.1,0,0,0-1.31-2.18c3.61-.84,7.37-3,9.19-5.36Zm-3,13.89h-4.23v1.52h-2v-8.36h6.28Zm-4.23-4.88V983h2.13v-2.91Zm7.88-5.07a15.82,15.82,0,0,1-2.49-2.07,22,22,0,0,1-2.86,2.07Zm4.83,8.34c0,1-.15,1.55-.84,1.9a6.38,6.38,0,0,1-2.79.34,8.87,8.87,0,0,0-.57-2c.7,0,1.48,0,1.71,0s.32-.07.32-.28v-3.15h-2.62v7.73H856v-9.73h7Z"/><path d="M863.75,1002.81c0,1.07-.17,1.75-.86,2.13a5.34,5.34,0,0,1-2.77.46,7,7,0,0,0-.72-2.28v5.17h-2.21v-8.65l-.89,1.73c-.17-.21-.36-.44-.57-.68v7.52h-2.07v-1h-3.08v1h-2v-6.82c-.25.19-.5.34-.74.51a7.55,7.55,0,0,0-1.45-1.8,11.35,11.35,0,0,0,5.07-6.18l2,.67-.34.87a38.57,38.57,0,0,1,4.1,3.78v-4.63l-1.57,1.27a23.36,23.36,0,0,0-3-4.2l1.5-1.12a22.81,22.81,0,0,1,3,3.91v-2.83h6.56Zm-11.93-11.28a15.09,15.09,0,0,1-3.9,5.17,13.41,13.41,0,0,0-1.29-1.88,10.69,10.69,0,0,0,3.23-4Zm3.85,9.1c-.95-1-2.26-2.28-3.47-3.36a14.14,14.14,0,0,1-2.66,3.36Zm-2,4.58v-2.59h-3.08v2.59Zm5.74-2.13c.79,0,1.55,0,1.8,0s.34-.08.34-.32v-9H859.4Z"/><path d="M852.61,1015.77a24.14,24.14,0,0,1-1.44,2.3v10.68h-2.11v-8.13a15.87,15.87,0,0,1-1.48,1.4,13.78,13.78,0,0,0-1.18-2.1,15.91,15.91,0,0,0,4.24-4.89Zm-.32-4a23.24,23.24,0,0,1-4.54,4.64,16.4,16.4,0,0,0-1.18-1.65,16,16,0,0,0,3.73-3.76Zm7.33,14.59a8.54,8.54,0,0,0,1.45.1c.53,0,2.62,0,3.34,0a7,7,0,0,0-.63,2h-2.9c-2.59,0-4.6-.62-6-3a8.36,8.36,0,0,1-2,3.17,9.78,9.78,0,0,0-1.71-1.44c1.79-1.52,2.43-4.12,2.6-7.3l2.19.17a25.43,25.43,0,0,1-.33,2.66,5.5,5.5,0,0,0,1.89,2.8v-6.9h.68a13.28,13.28,0,0,0-1.22-.85c1.85-1.43,2.85-3.88,3.23-6.82l2.11.24a19.29,19.29,0,0,1-.72,3.18,24,24,0,0,1,2.94,3L863,1019a19.43,19.43,0,0,0-2.24-2.59,9.56,9.56,0,0,1-1.58,2.3h.4v2.68h3.67v1.9h-3.67Zm-2.26-9.1a15,15,0,0,0-1.52-1.34,10.72,10.72,0,0,1-2.3,3.26,11.1,11.1,0,0,0-1.59-1.54,11.23,11.23,0,0,0,3.19-6.64l2.15.32a20.76,20.76,0,0,1-.72,2.77,18.41,18.41,0,0,1,1.8,1.41Z"/><path d="M862.44,1042.58a28.47,28.47,0,0,0-2.45-2.2,7.83,7.83,0,0,1-1.28,1.63,11.53,11.53,0,0,0-1.48-1,16.6,16.6,0,0,0,7.26,5.3,10.75,10.75,0,0,0-1.67,2.07,18.23,18.23,0,0,1-6.16-4.8v5.52h-2.37v-5.41a18.2,18.2,0,0,1-6.1,4.69,13.22,13.22,0,0,0-1.6-1.93,16.91,16.91,0,0,0,7.7-6.12V1036h-6.92v-2.22h6.92v-2.34h2.37v2.34h7.16V1036h-7.16v4.26l.29.43a8.48,8.48,0,0,0,2.39-4.58l2.2.4a18,18,0,0,1-.62,2c1.08.83,2.39,1.84,3.09,2.48Zm-9.79-6.08a18.93,18.93,0,0,1-.68,2c.68.59,1.4,1.22,1.84,1.68l-1.52,1.57a16,16,0,0,0-1.27-1.33,10.26,10.26,0,0,1-2.19,2.61,14.29,14.29,0,0,0-1.74-1.49,9.17,9.17,0,0,0,3.36-5.51Z"/><path d="M850.16,1060.75a15.79,15.79,0,0,0-3.51-2.08l1.18-1.69a15.7,15.7,0,0,1,3.59,1.9Zm2.25,2.58c-1,2-2.09,4.16-3.2,6l-1.93-1.48a60.82,60.82,0,0,0,3.43-6Zm-1.18-7.64a14.4,14.4,0,0,0-3.48-2.13l1.24-1.67a14.18,14.18,0,0,1,3.57,2Zm12.23,5.45a11.18,11.18,0,0,1-3.09,4.94,16.08,16.08,0,0,0,4.25,1.41,8.74,8.74,0,0,0-1.48,2,15.2,15.2,0,0,1-4.75-2,18.46,18.46,0,0,1-5.55,2,7.45,7.45,0,0,0-1.12-2,16.69,16.69,0,0,0,4.79-1.46,13.1,13.1,0,0,1-2.28-2.93l1.46-.49h-2.56v-2h8.43l.4-.07Zm-6.76-5.64a11.44,11.44,0,0,1-2.93,5,13.45,13.45,0,0,0-1.95-1.43c1.93-1.52,2.92-4.14,3.3-7.27l2.34.26c-.08.48-.15.93-.25,1.39h6.19s0,.53,0,.84c-.19,3-.44,4.42-1,5a2.17,2.17,0,0,1-1.52.69c-.55,0-1.47,0-2.47,0a4.8,4.8,0,0,0-.67-2.09,19.6,19.6,0,0,0,2.09.12.94.94,0,0,0,.67-.19c.23-.23.4-.91.51-2.36Zm-.34,7.13a9.39,9.39,0,0,0,2,2.22,8.29,8.29,0,0,0,2-2.22Z"/><path d="M853.79,1076.65a11.74,11.74,0,0,1-.76,1.5h8.84v9.38c0,1.13-.21,1.73-1,2.07a8.21,8.21,0,0,1-3.36.38,9.5,9.5,0,0,0-.69-2.18c1,.06,2.07.06,2.39.06s.44-.12.44-.38v-1.14h-7.14a6.62,6.62,0,0,1-2.11,3.78,7.67,7.67,0,0,0-1.63-1.73c1.63-1.43,1.76-3.46,1.76-5.22v-1.54a15.48,15.48,0,0,1-2.35,2.07,13.16,13.16,0,0,0-1.48-1.75,14.52,14.52,0,0,0,4.56-5.3h-4.13v-2.13h5.09a19.94,19.94,0,0,0,.76-2.3l2.34.53c-.19.59-.4,1.18-.61,1.77H864v2.13Zm5.87,7.81v-1.24h-6.82c0,.4,0,.8,0,1.24Zm0-4.32h-6.82v1.2h6.82Z"/><path d="M863.39,1098.14a21,21,0,0,1-2.4,7.35,9.56,9.56,0,0,0,3.65,2.87,8.71,8.71,0,0,0-1.54,1.94,11,11,0,0,1-3.51-2.89,12.42,12.42,0,0,1-4.13,3.08,9.42,9.42,0,0,0-1.31-2.09,10.46,10.46,0,0,0,4.11-3,20.5,20.5,0,0,1-1.66-4.22,9.87,9.87,0,0,1-1,1.4c-.24-.3-.79-.91-1.25-1.36v.26H849.8v4.88l4.56-1.57a10.93,10.93,0,0,0,.25,2.13c-5.49,2.07-6.37,2.5-6.94,2.94a7.93,7.93,0,0,0-.85-2.34,1.17,1.17,0,0,0,.7-1.21v-7h4.62v-3.19h-4.81v-2.23h7v6.52a20,20,0,0,0,2.79-7.69l2.23.4a30,30,0,0,1-.71,3h5.55v2.09Zm-5.42.09a20.09,20.09,0,0,0,1.62,5,18.19,18.19,0,0,0,1.44-5.09h-3Z"/><path d="M861,1126.24a10,10,0,0,1-2.7,2.13,46.48,46.48,0,0,0,6.08.72,9.31,9.31,0,0,0-1.12,1.78,34.2,34.2,0,0,1-7.64-1.36,38.69,38.69,0,0,1-7.88,1.44,10.53,10.53,0,0,0-1.06-1.81,40.86,40.86,0,0,0,6.25-.74,12,12,0,0,1-2.28-1.42,13.24,13.24,0,0,1-2.62,1.46,11.22,11.22,0,0,0-1.26-1.69,9.94,9.94,0,0,0,5-3.36l1.94.57a5,5,0,0,1-.46.64h10.22v1.64Zm-12.52-5.06a11.57,11.57,0,0,1-.59,3.25,7.26,7.26,0,0,0-1.14-.66,9.76,9.76,0,0,0,.42-2.81Zm3-.53a3.1,3.1,0,0,0-.09-.61c-3.17.38-3.69.52-4,.67a8.94,8.94,0,0,0-.49-1.46,2.63,2.63,0,0,0,1.18-.74,13,13,0,0,0,1-1.07,6.06,6.06,0,0,0-1.75.29,9.91,9.91,0,0,0-.53-1.45,1.52,1.52,0,0,0,.8-.59,12.76,12.76,0,0,0,1.61-2.67l1.54.49a16.24,16.24,0,0,1-1.74,2.7l1.13-.06c.31-.4.61-.82.88-1.23l1.44.64a24.7,24.7,0,0,1-3,3.5l1.62-.17c-.1-.31-.21-.59-.33-.88l1.2-.32a11.86,11.86,0,0,1,.82,2.55Zm-2.22,3.29a16.92,16.92,0,0,0-.3-2.77l1.25-.25a19.05,19.05,0,0,1,.38,2.72Zm2-.44a15.22,15.22,0,0,0-.54-2.43l1.16-.32a15.35,15.35,0,0,1,.61,2.37Zm7.14-7.63h-5.95v-1.22h2.24a8.79,8.79,0,0,0-.49-1.16l1.67-.57a8.66,8.66,0,0,1,.74,1.73h1.79Zm-5.93,10.37a12.72,12.72,0,0,0,3.14,1.42,9.19,9.19,0,0,0,2.66-1.42Zm5.55-8.63h-5.17v-1.14H858Zm0,1.81h-5.17v-1.16H858Zm-5.09,4.18v-3.48h5v3.48Zm1.33-1.16h2.28v-1.16h-2.28Zm8.64-1.84a6.31,6.31,0,0,0-.11-.65c-3.14.4-3.67.49-4,.67-.1-.33-.33-1-.48-1.41a2.26,2.26,0,0,0,1.12-.74,9.55,9.55,0,0,0,.95-1,5.72,5.72,0,0,0-1.73.27,13.06,13.06,0,0,0-.49-1.45,1.41,1.41,0,0,0,.78-.57,11.09,11.09,0,0,0,1.59-2.62l1.52.49a16.3,16.3,0,0,1-1.74,2.66l1.08,0c.3-.42.61-.86.85-1.28l1.41.63a25.65,25.65,0,0,1-2.77,3.38l1.57-.15a9.44,9.44,0,0,0-.36-1.06l1.26-.33a14.68,14.68,0,0,1,.83,2.78Zm-2.83.58a16.07,16.07,0,0,1-.59,3,8.77,8.77,0,0,0-1.21-.67,14,14,0,0,0,.41-2.62Zm.68,2.65a11.68,11.68,0,0,0-.32-2.72l1.25-.25a13.47,13.47,0,0,1,.4,2.7Zm2.15-.16a20.89,20.89,0,0,0-.61-2.77l1.2-.27a18.18,18.18,0,0,1,.68,2.68Z"/><path d="M853.46,1152.13c1.46-.55,2.28-1.5,2.28-2.6h-.17a1.64,1.64,0,0,1-1.75-1.65,1.68,1.68,0,0,1,1.81-1.65c1.29,0,2,1,2,2.75a4.79,4.79,0,0,1-3.59,4.67Z"/><path d="M863.48,1174.42a18.61,18.61,0,0,1-3.15,4.16c.51,1.46,1.1,2.34,1.67,2.34.4,0,.63-.91.72-3.15a5.78,5.78,0,0,0,1.86,1.29c-.36,3.32-1.06,4.16-2.79,4.16-1.39,0-2.45-1.14-3.27-3a19.5,19.5,0,0,1-3.51,2.31,10.18,10.18,0,0,0-1.5-1.82,19.67,19.67,0,0,0,4.23-2.68,36.61,36.61,0,0,1-1-5.09h-3.85v2.17l2.92-.54.17,2.06-3.09.62v3.25c0,1.24-.27,1.84-1,2.21a8.18,8.18,0,0,1-3.42.43,8.63,8.63,0,0,0-.8-2.28c1.07.06,2.17,0,2.51,0s.46-.09.46-.4v-2.75l-3.4.68-.55-2.28c1.08-.17,2.45-.38,3.95-.64v-2.55h-3.59v-2.15h3.59v-2.16c-1,.17-2.07.3-3,.42a8.71,8.71,0,0,0-.65-1.9,47.53,47.53,0,0,0,7.54-1.6l1.52,1.92c-1,.28-2,.53-3.09.76v2.56h3.65c-.16-1.71-.21-3.47-.23-5.2h2.37a46.75,46.75,0,0,0,.19,5.2h5.17v2.15h-4.94c.15,1.14.34,2.24.55,3.21a16,16,0,0,0,1.81-2.58Zm-1.39-4.18a15.11,15.11,0,0,0-2.69-3.13l1.71-1.16a16.55,16.55,0,0,1,2.81,3Z"/><path d="M856.89,1201.13c.49,0,1,.06,1.52.06,1.06,0,4.71,0,6.06-.06a7.54,7.54,0,0,0-.76,2.17h-5.42c-3.47,0-5.83-.49-7.42-2.7a8.58,8.58,0,0,1-2.66,3,9.58,9.58,0,0,0-1.71-1.57,8.06,8.06,0,0,0,3.53-5.76l2.26.34c-.13.61-.28,1.18-.44,1.73a4.19,4.19,0,0,0,2.74,2.38v-4.83h-7.41v-2h16.76v2h-7.05v1.42h5.85v2h-5.85Zm5.24-8.05h-13.2v-6.59h13.2Zm-2.3-5h-8.7v1h8.7Zm0,2.46h-8.7v1h8.7Z"/><path d="M852.8,1207a31.24,31.24,0,0,1-1.88,4V1224h-2.16v-9.57c-.4.51-.8,1-1.18,1.39a13.73,13.73,0,0,0-1.24-2.36,19.64,19.64,0,0,0,4.34-7.1Zm8.23,14.8c1.12,0,1.33-.48,1.46-2.6a7.12,7.12,0,0,0,2,.83c-.29,2.83-1,3.78-3.29,3.78h-4.31c-2.64,0-3.4-.68-3.4-3.32v-5.32l-1.45.57-.85-2,2.3-.89v-4.48h2.13V1212l1.9-.74v-4.92h2v4.13l2.54-1,.19-.13,1.69.51-.07.36a71.41,71.41,0,0,1-.76,8.64l-1.86-.53c.21-1.59.34-4.1.41-6.42l-2.14.87v6.73h-2v-6l-1.9.78v6.16c0,1.12.19,1.31,1.44,1.31Z"/><path d="M863.94,1229.62s0,.76,0,1c-.25,8.5-.46,11.52-1.24,12.52a2.5,2.5,0,0,1-1.82,1,23.4,23.4,0,0,1-3,0,5.51,5.51,0,0,0-.74-2.21c1.21.12,2.33.12,2.83.12a1,1,0,0,0,.83-.33c.55-.6.8-3.45,1-10.16h-4.07a16.17,16.17,0,0,1-1.67,3,14.41,14.41,0,0,0-1.46-1.06v8.87h-5.07v1.39h-2.06v-14.12h2.15a19.17,19.17,0,0,0,.55-3.06l2.47.34c-.32,1-.66,1.9-1,2.72h3v3.08a19.75,19.75,0,0,0,2.56-6.12l2.15.5a23.83,23.83,0,0,1-.74,2.41Zm-11.38,2.11h-3v3.07h3Zm0,8.75v-3.72h-3v3.72Zm6.3-1a40.77,40.77,0,0,0-2.64-4.39l1.77-1a46.13,46.13,0,0,1,2.79,4.22Z"/><path d="M859.26,1257.91a8.86,8.86,0,0,1-1,3.3,19,19,0,0,0,6.49,1.6,9.15,9.15,0,0,0-1.34,2,17.52,17.52,0,0,1-6.5-2,9.71,9.71,0,0,1-3.9,2,12.2,12.2,0,0,0-1.4-1.88,8.87,8.87,0,0,0,3.46-1.46,11.12,11.12,0,0,1-2.34-2.83l1.84-.57a8,8,0,0,0,1.77,2,6,6,0,0,0,.7-2.16h-4.23v-5.55h4.37V1251h-4.77v-1.75c-.34.72-.72,1.47-1.14,2.19v13.43h-2.15v-10.2a21.34,21.34,0,0,1-1.56,1.78,14.91,14.91,0,0,0-1.19-2.31,20.13,20.13,0,0,0,4.59-7.09l2.09.68c-.17.4-.34.8-.51,1.22h4.64v-1.73h2.24V1249h5v2h-5v1.33h4.52v5.55Zm-2.12-1.83v-1.88H854.8v1.88Zm2.24-1.88v1.88h2.35v-1.88Z"/><path d="M857.46,1268.53l-.38.46a16.24,16.24,0,0,0,7.52,3.55,9.16,9.16,0,0,0-1.61,2.15,17.38,17.38,0,0,1-3.46-1.39v1.18H851.4v-1.24a22.84,22.84,0,0,1-3.63,1.54,9.86,9.86,0,0,0-1.31-2.18c3.61-.84,7.37-3,9.19-5.36Zm-3,13.89h-4.23v1.52h-2v-8.36h6.28Zm-4.23-4.88v2.9h2.13v-2.9Zm7.88-5.08a15.29,15.29,0,0,1-2.49-2.07,21.14,21.14,0,0,1-2.86,2.07Zm4.83,8.34c0,1-.15,1.56-.84,1.9a6.38,6.38,0,0,1-2.79.34,8.94,8.94,0,0,0-.57-2c.7,0,1.48,0,1.71,0s.32-.08.32-.28v-3.16h-2.62v7.73H856v-9.72h7Z"/><path d="M853.46,1306.58c1.46-.55,2.28-1.5,2.28-2.6h-.17a1.64,1.64,0,0,1-1.75-1.65,1.68,1.68,0,0,1,1.81-1.65c1.29,0,2,1,2,2.75a4.79,4.79,0,0,1-3.59,4.67Z"/><path d="M852.8,1320.61a31.24,31.24,0,0,1-1.88,4v12.92h-2.16V1328c-.4.51-.8,1-1.18,1.38a14,14,0,0,0-1.24-2.35,19.6,19.6,0,0,0,4.34-7.11Zm8.23,14.8c1.12,0,1.33-.48,1.46-2.61a6.86,6.86,0,0,0,2,.84c-.29,2.83-1,3.78-3.29,3.78h-4.31c-2.64,0-3.4-.68-3.4-3.32v-5.32l-1.45.57-.85-2,2.3-.89V1322h2.13v3.62l1.9-.74v-4.92h2v4.13l2.54-1,.19-.13,1.69.51-.07.36a71.41,71.41,0,0,1-.76,8.64l-1.86-.53c.21-1.6.34-4.1.41-6.42l-2.14.87v6.73h-2v-5.95l-1.9.78v6.16c0,1.12.19,1.31,1.44,1.31Z"/><path d="M849.71,1349.58a23.11,23.11,0,0,0-3.16-2.28l1.33-1.54a21.47,21.47,0,0,1,3.21,2.09Zm2.07,2.05c-.84,2-1.83,4.16-2.79,6l-2-1.39a52.91,52.91,0,0,0,3-6Zm-1.14-7.06a22,22,0,0,0-3.1-2.38l1.39-1.5a21.33,21.33,0,0,1,3.17,2.15Zm9.61,7.12a12.71,12.71,0,0,0,4.2,3.44,9.16,9.16,0,0,0-1.54,1.75,14.1,14.1,0,0,1-3.95-3.78V1358h-2.22v-4.87a12.14,12.14,0,0,1-4.32,3.8,9.08,9.08,0,0,0-1.5-1.78,10.74,10.74,0,0,0,4.43-3.5H852v-2h4.71v-1.88H859v1.88h4.86v2Zm-2.75-8.09c-.19,2.72-.92,4.22-4.89,5a5.36,5.36,0,0,0-1.08-1.75c3.34-.46,3.78-1.29,3.91-3.21Zm-3.18,1.44h-2.05v-3.87H863.8v3.76h-2.16v-1.84h-7.32Zm8.53,1.18a5.66,5.66,0,0,0,1.26-.13c0,.53.09,1.38.17,1.88a5.13,5.13,0,0,1-1.39.13H861c-2,0-2.45-.64-2.45-2.51v-2h2v2c0,.44.08.61.42.61Z"/><path d="M849.71,1370a21.52,21.52,0,0,0-3.16-2.28l1.33-1.54a20.71,20.71,0,0,1,3.21,2.09Zm2.07,2c-.84,2-1.83,4.16-2.79,6l-2-1.38a53.14,53.14,0,0,0,3-6Zm-1.14-7.07a22,22,0,0,0-3.1-2.37l1.39-1.5a22.11,22.11,0,0,1,3.17,2.14Zm9.61,7.13a12.81,12.81,0,0,0,4.2,3.43,9.16,9.16,0,0,0-1.54,1.75,14,14,0,0,1-3.95-3.78v4.94h-2.22v-4.86a12.34,12.34,0,0,1-4.32,3.8,9.44,9.44,0,0,0-1.5-1.79,10.64,10.64,0,0,0,4.43-3.49H852v-2h4.71v-1.88H859v1.88h4.86v2Zm-2.75-8.1c-.19,2.72-.92,4.22-4.89,5a5.47,5.47,0,0,0-1.08-1.75c3.34-.45,3.78-1.29,3.91-3.21Zm-3.18,1.45h-2.05v-3.88H863.8v3.76h-2.16v-1.84h-7.32Zm8.53,1.18a5.12,5.12,0,0,0,1.26-.14c0,.53.09,1.39.17,1.88a4.72,4.72,0,0,1-1.39.14H861c-2,0-2.45-.65-2.45-2.51v-2h2v2c0,.43.08.61.42.61Z"/><path d="M863.94,1384.07s0,.76,0,1c-.25,8.5-.46,11.52-1.24,12.52a2.5,2.5,0,0,1-1.82,1.05,23.4,23.4,0,0,1-3,0,5.51,5.51,0,0,0-.74-2.21c1.21.12,2.33.12,2.83.12a1,1,0,0,0,.83-.33c.55-.6.8-3.45,1-10.16h-4.07a16.17,16.17,0,0,1-1.67,3,14.41,14.41,0,0,0-1.46-1.06v8.87h-5.07v1.39h-2.06V1384.2h2.15a19.17,19.17,0,0,0,.55-3.06l2.47.34c-.32,1-.66,1.9-1,2.72h3v3.08a19.75,19.75,0,0,0,2.56-6.12l2.15.5a23.83,23.83,0,0,1-.74,2.41Zm-11.38,2.11h-3v3.07h3Zm0,8.75v-3.72h-3v3.72Zm6.3-1a40.77,40.77,0,0,0-2.64-4.39l1.77-1a46.13,46.13,0,0,1,2.79,4.22Z"/><path d="M851.83,1408.75c.67.72,2.29,2.68,2.66,3.15l-1.29,1.85a23.6,23.6,0,0,0-1.37-2.36v7.9h-2.16v-7.5a16.18,16.18,0,0,1-2.15,4.27,11.43,11.43,0,0,0-1.06-2.13,18.4,18.4,0,0,0,2.94-6.34H847v-2.13h2.72v-3.89h2.16v3.89h2.38v2.13h-2.38Zm11.95-6.16V1419H861.5v-1H857v1.08h-2.17v-16.55Zm-6.74,2.13v2.36h4.46v-2.36Zm0,4.39v2.41h4.46v-2.41Zm4.46,6.9v-2.44H857V1416Z"/><path d="M852.54,1422.68a30.33,30.33,0,0,1-1.41,3.36v13.77h-2v-10.22c-.46.65-.93,1.27-1.39,1.81a14.8,14.8,0,0,0-1.15-2.23,20.38,20.38,0,0,0,4-7.1Zm11.68,2.26v1.84H852v-1.84h5.43a16.8,16.8,0,0,0-1.18-2.26l1.92-.73a15.32,15.32,0,0,1,1.39,2.51l-1.09.48Zm-11.17,8.43H863.1v6.29h-2v-.53H855v.59h-1.92Zm9.8-3.82h-9.51v-1.76h9.51Zm-9.51,1h9.51v1.77h-9.51Zm1.63,4.64v2.14h6.14v-2.14Z"/><path d="M852.8,1443.16a32,32,0,0,1-1.88,4v12.91h-2.16v-9.57c-.4.51-.8,1-1.18,1.39a13.73,13.73,0,0,0-1.24-2.36,19.64,19.64,0,0,0,4.34-7.1ZM861,1458c1.12,0,1.33-.48,1.46-2.6a7.12,7.12,0,0,0,2,.83c-.29,2.83-1,3.78-3.29,3.78h-4.31c-2.64,0-3.4-.68-3.4-3.32v-5.32l-1.45.57-.85-2,2.3-.89v-4.48h2.13v3.63l1.9-.75v-4.92h2v4.13l2.54-1,.19-.13,1.69.51-.07.36a71.41,71.41,0,0,1-.76,8.64l-1.86-.53c.21-1.59.34-4.1.41-6.42l-2.14.87v6.73h-2v-6l-1.9.78v6.16c0,1.12.19,1.31,1.44,1.31Z"/><path d="M856.89,1478.14c.49,0,1,0,1.52,0,1.06,0,4.71,0,6.06,0a7.37,7.37,0,0,0-.76,2.16h-5.42c-3.47,0-5.83-.49-7.42-2.7a8.58,8.58,0,0,1-2.66,3,9.58,9.58,0,0,0-1.71-1.57,8.06,8.06,0,0,0,3.53-5.76l2.26.34c-.13.61-.28,1.18-.44,1.73a4.19,4.19,0,0,0,2.74,2.38v-4.83h-7.41v-2h16.76v2h-7.05v1.43h5.85v2h-5.85Zm5.24-8.06h-13.2v-6.59h13.2Zm-2.3-5h-8.7v1h8.7Zm0,2.45h-8.7v1h8.7Z"/><path d="M852,1492.14a23.79,23.79,0,0,1-1.49,4.94c.31.19.67.46,1.16.76,1.31.78,3.1.89,5.32.89a65.19,65.19,0,0,0,7.69-.49,8.44,8.44,0,0,0-.66,2.32c-1.56.09-4.92.22-7.14.22-2.53,0-4.12-.21-5.49-1-.8-.44-1.48-1.07-1.86-1.07s-1.13,1.29-1.6,2.38l-1.5-2.15a8.61,8.61,0,0,1,2-1.82,18.65,18.65,0,0,0,1.11-3.29h-2.4c.44-1.12.93-2.64,1.37-4.12h-1.71v-2h4.45c-.4,1.33-.86,2.85-1.32,4.18h.78l.35-.07Zm-3.2-5c-.21-.85-.72-2.22-1-3.26l2-.61c.36,1,.86,2.3,1.12,3.15Zm5.59,10.76h-2v-8.27h1.41v-5.81h8.19v5.81h1.38V1496c0,.89-.15,1.36-.74,1.67a5.51,5.51,0,0,1-2.35.3,6,6,0,0,0-.5-1.63H857v.59h-1.61v-4.79h5v4.09h.77c.21,0,.27-.06.27-.25v-4.62h-7Zm1.4-8.27h1.07v-3H860v-1.16h-4.2Zm2.89,3.93H857v1.33h1.71Zm1.31-5.51h-1.5v1.58H860Z"/><path d="M855.16,1513.55a34.31,34.31,0,0,1-3.53,4.66l7.69-.46c-.66-1-1.37-1.92-2-2.74l2.09-.91a31.74,31.74,0,0,1,4.21,6.12l-2.2,1.14a15.71,15.71,0,0,0-.8-1.58c-9.57.76-10.9.82-11.85,1.18-.13-.46-.51-1.59-.78-2.22a3.17,3.17,0,0,0,1.46-1.14,25.38,25.38,0,0,0,2.87-4H847v-2.28h7.39v-2.69H848.4v-2.29h5.94v-2.62h2.4v2.62h6.11v2.29h-6.11v2.69h7.48v2.28Z"/><path d="M853.87,1537.72a11.68,11.68,0,0,1-5.83,3.65,9.49,9.49,0,0,0-1.49-1.87A11.61,11.61,0,0,0,852,1537Zm2.81-1.1v5.24h-2.3v-5.24h-7.26v-2h7.26v-1.17h-4v-5.7H847.2v-1.9h3.13v-1.73h2.25v1.73h5.94v-1.73h2.32v1.73h3.08v1.9h-3.08v5.7h-4.16v1.17H864v2Zm-4.1-8.87v1h5.94v-1Zm0,3.83h5.94v-1.08h-5.94Zm6.57,5.34a37.6,37.6,0,0,1,5.09,3.08l-1.44,1.61a32.61,32.61,0,0,0-5-3.28Z"/><path d="M852.25,1545.23a37.61,37.61,0,0,1-1.48,3.61v13.47h-2.15v-9.73a16.73,16.73,0,0,1-1.27,1.63,16.06,16.06,0,0,0-1.06-2.45,20.08,20.08,0,0,0,3.87-7.18Zm11.61.28v16.59h-2.15v-.93h-7.14v1.1h-2.05v-16.76Zm-2.15,13.7v-11.74h-7.14v11.74Zm-2.73-7.77v1.63h1.82v5.09h-5.26v-5.09h1.69v-1.63h-2.18v-1.63h2.18v-1.94H859v1.94h2.3v1.63Zm.13,3.19h-1.94v2h1.94Z"/><path d="M856.66,1565c0,.8-.06,1.82-.13,3,.26,2.57,1.42,9.73,8.05,12.65a6,6,0,0,0-1.65,2,14.68,14.68,0,0,1-7.43-9,15.42,15.42,0,0,1-7,9.1,7.33,7.33,0,0,0-1.88-1.84c7.71-4.12,7.35-12.63,7.43-15.84Z"/><path d="M863.94,1588.32s0,.76,0,1c-.25,8.5-.46,11.52-1.24,12.52a2.5,2.5,0,0,1-1.82,1.05,23.4,23.4,0,0,1-3,0,5.51,5.51,0,0,0-.74-2.21c1.21.12,2.33.12,2.83.12a1,1,0,0,0,.83-.33c.55-.6.8-3.45,1-10.16h-4.07a16.17,16.17,0,0,1-1.67,3,14.41,14.41,0,0,0-1.46-1.06v8.87h-5.07v1.39h-2.06v-14.12h2.15a19.17,19.17,0,0,0,.55-3.06l2.47.34c-.32,1-.66,1.9-1,2.72h3v3.08a19.75,19.75,0,0,0,2.56-6.12l2.15.5a23.83,23.83,0,0,1-.74,2.41Zm-11.38,2.11h-3v3.07h3Zm0,8.75v-3.72h-3v3.72Zm6.3-1a40.77,40.77,0,0,0-2.64-4.39l1.77-1a46.13,46.13,0,0,1,2.79,4.22Z"/><path d="M859.26,1616.61a8.86,8.86,0,0,1-1,3.3,19,19,0,0,0,6.49,1.6,9.15,9.15,0,0,0-1.34,2,17.33,17.33,0,0,1-6.5-2,9.71,9.71,0,0,1-3.9,2,12.2,12.2,0,0,0-1.4-1.88,8.87,8.87,0,0,0,3.46-1.46,11.12,11.12,0,0,1-2.34-2.83l1.84-.57a8,8,0,0,0,1.77,2,6,6,0,0,0,.7-2.16h-4.23v-5.55h4.37v-1.33h-4.77V1608c-.34.73-.72,1.47-1.14,2.19v13.43h-2.15v-10.2a21.34,21.34,0,0,1-1.56,1.78,14.91,14.91,0,0,0-1.19-2.31,20.13,20.13,0,0,0,4.59-7.09l2.09.68c-.17.4-.34.8-.51,1.22h4.64V1606h2.24v1.73h5v2h-5v1.33h4.52v5.55Zm-2.12-1.83v-1.88H854.8v1.88Zm2.24-1.88v1.88h2.35v-1.88Z"/><path d="M857.46,1627.23l-.38.46a16.24,16.24,0,0,0,7.52,3.55,9.16,9.16,0,0,0-1.61,2.15,17.38,17.38,0,0,1-3.46-1.39v1.18H851.4v-1.24a22.84,22.84,0,0,1-3.63,1.54,9.86,9.86,0,0,0-1.31-2.18c3.61-.84,7.37-3,9.19-5.36Zm-3,13.89h-4.23v1.52h-2v-8.36h6.28Zm-4.23-4.88v2.9h2.13v-2.9Zm7.88-5.08a15.29,15.29,0,0,1-2.49-2.07,21.14,21.14,0,0,1-2.86,2.07Zm4.83,8.34c0,1-.15,1.56-.84,1.9a6.38,6.38,0,0,1-2.79.34,8.94,8.94,0,0,0-.57-2c.7,0,1.48,0,1.71,0s.32-.08.32-.28v-3.16h-2.62V1644H856v-9.72h7Z"/><path d="M853.46,1665.29c1.46-.56,2.28-1.51,2.28-2.61h-.17a1.64,1.64,0,0,1-1.75-1.65,1.68,1.68,0,0,1,1.81-1.65c1.29,0,2,1,2,2.75a4.81,4.81,0,0,1-3.59,4.68Z"/><path d="M852.73,1679.31a28.49,28.49,0,0,1-1.81,3.89v13.07h-2.16v-9.7a19,19,0,0,1-1.28,1.54,13.88,13.88,0,0,0-1.21-2.36,20,20,0,0,0,4.31-7.11Zm6.72,4.75v9.73c0,1.08-.19,1.71-.87,2.09a6,6,0,0,1-2.79.45,8,8,0,0,0-.78-2.28c.8,0,1.59,0,1.86,0s.34-.08.34-.32v-9.69H855a15.63,15.63,0,0,1-1.79,2.9,18.28,18.28,0,0,0-1.82-1.48,16.87,16.87,0,0,0,3.23-6.84l2.2.5c-.25,1-.55,1.9-.89,2.83h6.53l.36-.08,1.6.31c-.23,1.54-.55,3.3-.82,4.4l-1.92-.32c.1-.59.21-1.39.31-2.22Zm-3.15,3.42a19.58,19.58,0,0,1-2.58,6.34,13.84,13.84,0,0,0-1.94-1.21,13.84,13.84,0,0,0,2.32-5.59Zm5.85-.65a23.63,23.63,0,0,1,2.07,6.2l-2.16.74a24.08,24.08,0,0,0-1.92-6.25Z"/><path d="M856.89,1714.29c.49,0,1,0,1.52,0,1.06,0,4.71,0,6.06,0a7.37,7.37,0,0,0-.76,2.16h-5.42c-3.47,0-5.83-.49-7.42-2.7a8.58,8.58,0,0,1-2.66,3,9.58,9.58,0,0,0-1.71-1.57,8.06,8.06,0,0,0,3.53-5.76l2.26.34c-.13.61-.28,1.18-.44,1.73a4.19,4.19,0,0,0,2.74,2.38v-4.83h-7.41v-2h16.76v2h-7.05v1.43h5.85v2h-5.85Zm5.24-8.06h-13.2v-6.59h13.2Zm-2.3-5h-8.7v1h8.7Zm0,2.45h-8.7v1h8.7Z"/><path d="M852.8,1720.16a32,32,0,0,1-1.88,4v12.91h-2.16v-9.57c-.4.51-.8,1-1.18,1.39a13.73,13.73,0,0,0-1.24-2.36,19.64,19.64,0,0,0,4.34-7.1ZM861,1735c1.12,0,1.33-.48,1.46-2.6a7.12,7.12,0,0,0,2,.83c-.29,2.83-1,3.78-3.29,3.78h-4.31c-2.64,0-3.4-.68-3.4-3.32v-5.32l-1.45.57-.85-2,2.3-.89v-4.48h2.13v3.63l1.9-.75v-4.92h2v4.13l2.54-1,.19-.13,1.69.51-.07.36a71.41,71.41,0,0,1-.76,8.64l-1.86-.53c.21-1.59.34-4.1.41-6.42l-2.14.87v6.73h-2v-6l-1.9.78v6.16c0,1.12.19,1.31,1.44,1.31Z"/><path d="M849.27,1752.36v1.56h-2v-12.41h5.45v10.85Zm0-8.76v6.67h1.44v-6.67Zm2.56,12.6a10.33,10.33,0,0,0,1.35-4.28l1.68.48a11.22,11.22,0,0,1-1.41,4.58Zm12.32-6.82s0,.55,0,.82c-.17,4.27-.4,6-.88,6.61a1.74,1.74,0,0,1-1.23.68,11.25,11.25,0,0,1-2,.08,4.68,4.68,0,0,0-.53-1.94,10.88,10.88,0,0,0,1.43.08.65.65,0,0,0,.57-.23c.24-.31.41-1.41.55-4.22h-8.25v-10.68h9.84v2H860v1.08h3.06v1.77H860v1.1h3.06v1.75H860v1.14Zm-7.41,2.68a15,15,0,0,1,.43,3.87l-1.55.25a15.81,15.81,0,0,0-.35-3.88Zm-.82-9.52v1.08H858v-1.08Zm2.05,2.85h-2.05v1.1H858Zm-2.05,4H858v-1.14h-2.05Zm2.79,2.39a13.66,13.66,0,0,1,.95,3.29l-1.44.46a13.59,13.59,0,0,0-.86-3.37Zm1.73,2.78a11,11,0,0,0-1-2.66l1.2-.42a11.21,11.21,0,0,1,1.12,2.58Z"/><path d="M853.46,1778.88c1.46-.55,2.28-1.5,2.28-2.6h-.17a1.64,1.64,0,0,1-1.75-1.65,1.68,1.68,0,0,1,1.81-1.65c1.29,0,2,1,2,2.75a4.81,4.81,0,0,1-3.59,4.68Z"/><path d="M863.48,1801.17a18.61,18.61,0,0,1-3.15,4.16c.51,1.47,1.1,2.34,1.67,2.34.4,0,.63-.91.72-3.15a5.78,5.78,0,0,0,1.86,1.29c-.36,3.32-1.06,4.16-2.79,4.16-1.39,0-2.45-1.14-3.27-3a20.11,20.11,0,0,1-3.51,2.32,9.89,9.89,0,0,0-1.5-1.83,18.92,18.92,0,0,0,4.23-2.68,36.61,36.61,0,0,1-1-5.09h-3.85v2.17l2.92-.53.17,2.05-3.09.62v3.25c0,1.24-.27,1.85-1,2.21a8.18,8.18,0,0,1-3.42.43,8.76,8.76,0,0,0-.8-2.28c1.07.06,2.17,0,2.51,0s.46-.09.46-.4v-2.75l-3.4.68-.55-2.28c1.08-.17,2.45-.38,3.95-.64v-2.55h-3.59v-2.15h3.59v-2.16c-1,.17-2.07.3-3,.42a8.71,8.71,0,0,0-.65-1.9,47.53,47.53,0,0,0,7.54-1.6l1.52,1.92c-1,.29-2,.53-3.09.76v2.56h3.65c-.16-1.7-.21-3.47-.23-5.2h2.37a46.66,46.66,0,0,0,.19,5.2h5.17v2.15h-4.94c.15,1.14.34,2.24.55,3.21a15.59,15.59,0,0,0,1.81-2.58Zm-1.39-4.18a15.11,15.11,0,0,0-2.69-3.13l1.71-1.16a16.88,16.88,0,0,1,2.81,3Z"/><path d="M858.18,1818.73a49.58,49.58,0,0,1,6.33,5.15l-1.92,1.73a44,44,0,0,0-5.82-5.15v9.84H854.3V1821a22.63,22.63,0,0,1-6,4.67,13.46,13.46,0,0,0-1.55-2,19.86,19.86,0,0,0,8.18-7.47h-7.58v-2.31h16.47v2.31h-5.9a20.51,20.51,0,0,1-1.11,1.75v2Z"/><path d="M856.89,1848.31c.49,0,1,.06,1.52.06,1.06,0,4.71,0,6.06-.06a7.33,7.33,0,0,0-.76,2.17h-5.42c-3.47,0-5.83-.5-7.42-2.7a8.66,8.66,0,0,1-2.66,3,9.63,9.63,0,0,0-1.71-1.58,8,8,0,0,0,3.53-5.75l2.26.34c-.13.61-.28,1.18-.44,1.73a4.18,4.18,0,0,0,2.74,2.37v-4.82h-7.41v-2h16.76v2h-7.05v1.42h5.85v2h-5.85Zm5.24-8h-13.2v-6.59h13.2Zm-2.3-5h-8.7v1h8.7Zm0,2.45h-8.7v1h8.7Z"/><path d="M853.46,1872.06c1.46-.55,2.28-1.5,2.28-2.6h-.17a1.64,1.64,0,0,1-1.75-1.65,1.69,1.69,0,0,1,1.81-1.66c1.29,0,2,1,2,2.76a4.79,4.79,0,0,1-3.59,4.67Z"/><path d="M863.48,1894.35a18.84,18.84,0,0,1-3.15,4.16c.51,1.46,1.1,2.34,1.67,2.34.4,0,.63-.92.72-3.16a5.62,5.62,0,0,0,1.86,1.29c-.36,3.33-1.06,4.16-2.79,4.16-1.39,0-2.45-1.14-3.27-3a20.11,20.11,0,0,1-3.51,2.32,10.18,10.18,0,0,0-1.5-1.82,19.67,19.67,0,0,0,4.23-2.68,36.61,36.61,0,0,1-1-5.09h-3.85V1895l2.92-.53.17,2-3.09.63v3.25c0,1.23-.27,1.84-1,2.2a8.15,8.15,0,0,1-3.42.44,8.63,8.63,0,0,0-.8-2.28c1.07.06,2.17,0,2.51,0s.46-.1.46-.4v-2.76c-1.22.25-2.4.5-3.4.69l-.55-2.28c1.08-.17,2.45-.38,3.95-.65v-2.54h-3.59v-2.15h3.59v-2.17c-1,.18-2.07.31-3,.42a8.89,8.89,0,0,0-.65-1.9,48.74,48.74,0,0,0,7.54-1.59l1.52,1.92c-1,.28-2,.53-3.09.76v2.56h3.65c-.16-1.71-.21-3.48-.23-5.21h2.37a46.85,46.85,0,0,0,.19,5.21h5.17v2.15h-4.94c.15,1.14.34,2.24.55,3.21a15.66,15.66,0,0,0,1.81-2.59Zm-1.39-4.18a14.85,14.85,0,0,0-2.69-3.13l1.71-1.16a16.23,16.23,0,0,1,2.81,3Z"/><path d="M856.89,1921.06c.49,0,1,.06,1.52.06,1.06,0,4.71,0,6.06-.06a7.43,7.43,0,0,0-.76,2.17h-5.42c-3.47,0-5.83-.5-7.42-2.7a8.66,8.66,0,0,1-2.66,3,9.63,9.63,0,0,0-1.71-1.58,8,8,0,0,0,3.53-5.75l2.26.34c-.13.61-.28,1.18-.44,1.73a4.18,4.18,0,0,0,2.74,2.37v-4.82h-7.41v-2h16.76v2h-7.05v1.42h5.85v2h-5.85Zm5.24-8h-13.2v-6.59h13.2Zm-2.3-5h-8.7v1h8.7Zm0,2.45h-8.7v1h8.7Z"/><path d="M853.46,1944.81c1.46-.55,2.28-1.5,2.28-2.6h-.17a1.64,1.64,0,0,1-1.75-1.65,1.69,1.69,0,0,1,1.81-1.66c1.29,0,2,1,2,2.76a4.79,4.79,0,0,1-3.59,4.67Z"/><path d="M864.13,1961.65h-2.19V1973c0,1.37-.32,2-1.21,2.41a12.85,12.85,0,0,1-4.3.42,10.12,10.12,0,0,0-.93-2.39c1.35.07,3,0,3.46,0s.61-.13.61-.53v-11.28H847v-2.28h17.12ZM851,1971.13v1.44h-2.2v-8.79h8v7.35Zm0-5.21v3h3.61v-3Z"/><path d="M856.89,1993.81c.49,0,1,.06,1.52.06,1.06,0,4.71,0,6.06-.06a7.43,7.43,0,0,0-.76,2.17h-5.42c-3.47,0-5.83-.5-7.42-2.7a8.66,8.66,0,0,1-2.66,3,9.63,9.63,0,0,0-1.71-1.58A8,8,0,0,0,850,1989l2.26.34c-.13.61-.28,1.18-.44,1.73a4.18,4.18,0,0,0,2.74,2.37v-4.82h-7.41v-2h16.76v2h-7.05V1990h5.85v2h-5.85Zm5.24-8h-13.2v-6.59h13.2Zm-2.3-5h-8.7v1h8.7Zm0,2.45h-8.7v1h8.7Z"/><path d="M852.8,1999.69a32.53,32.53,0,0,1-1.88,4v12.92h-2.16v-9.57c-.4.51-.8,1-1.18,1.38a14,14,0,0,0-1.24-2.35,19.6,19.6,0,0,0,4.34-7.11Zm8.23,14.79c1.12,0,1.33-.47,1.46-2.6a7.46,7.46,0,0,0,2,.84c-.29,2.83-1,3.78-3.29,3.78h-4.31c-2.64,0-3.4-.69-3.4-3.33v-5.32l-1.45.57-.85-2,2.3-.89v-4.49h2.13v3.63l1.9-.74V1999h2v4.12l2.54-1,.19-.14,1.69.52-.07.36a71.77,71.77,0,0,1-.76,8.64l-1.86-.53c.21-1.6.34-4.11.41-6.42l-2.14.87v6.73h-2v-6l-1.9.78v6.15c0,1.12.19,1.31,1.44,1.31Z"/><path d="M858.18,2025.51a49.56,49.56,0,0,1,6.33,5.14l-1.92,1.73a44.73,44.73,0,0,0-5.82-5.15v9.85H854.3v-9.28a22.47,22.47,0,0,1-6,4.68,13.46,13.46,0,0,0-1.55-2,19.93,19.93,0,0,0,8.18-7.47h-7.58v-2.32h16.47V2023h-5.9a20.51,20.51,0,0,1-1.11,1.75v2Z"/><path d="M856.89,2055.09c.49,0,1,0,1.52,0,1.06,0,4.71,0,6.06,0a7.37,7.37,0,0,0-.76,2.16h-5.42c-3.47,0-5.83-.49-7.42-2.69a8.66,8.66,0,0,1-2.66,3,9.27,9.27,0,0,0-1.71-1.58,8.06,8.06,0,0,0,3.53-5.76l2.26.35c-.13.6-.28,1.17-.44,1.72a4.17,4.17,0,0,0,2.74,2.38v-4.83h-7.41v-2h16.76v2h-7.05v1.43h5.85v2h-5.85Zm5.24-8.06h-13.2v-6.59h13.2Zm-2.3-5h-8.7v1h8.7Zm0,2.45h-8.7v1h8.7Z"/><path d="M853.89,2068.33a20.7,20.7,0,0,1-1.37,1.86h2.56v-1.55h2.19v1.55h5.24v4.51c0,1-.19,1.52-.89,1.84a7.82,7.82,0,0,1-2.91.32,7.11,7.11,0,0,0-.68-1.94c.76,0,1.63,0,1.88,0s.34-.07.34-.28v-2.51h-3V2078h-2.19v-5.79h-2.69V2077h-2.25v-4.46A12,12,0,0,1,848,2074a13.23,13.23,0,0,0-1.5-1.7,14.18,14.18,0,0,0,4.65-3.93H847.1v-2h5.38a11.51,11.51,0,0,0,.65-1.39c-1.39.38-2.78.66-4.09.93a15.83,15.83,0,0,0-1.54-1.88c1.83-.27,3.75-.61,5.55-1.06-1.48-.48-2.94-.92-4.27-1.26l1.57-1.31c1.75.42,3.84,1,5.87,1.62a18.37,18.37,0,0,0,4.09-1.89l1.88,1.3a23.29,23.29,0,0,1-3,1.55c1.4.5,2.68,1,3.68,1.47l-1.72,1.56a47.89,47.89,0,0,0-4.83-2c-.51.17-1,.34-1.6.49l1.05.29c-.21.53-.46,1-.72,1.54h9v2Z"/><path d="M848.21,2084.35h-1.43v-1.9h3.63c-.17-.46-.38-.91-.55-1.29l2-.57a12.82,12.82,0,0,1,.82,1.86h2.6V2084a9.91,9.91,0,0,0,2.41-3.33l2.15.36c-.13.31-.28.57-.44.88h3.31l.4-.06,1.37.46c-1.16,4.8-4.09,6.91-8.32,7.95a7.22,7.22,0,0,0-1.07-1.69,11,11,0,0,0,2.51-.76c-.44-.53-1-1.17-1.58-1.76-.19.15-.38.3-.57.43a6,6,0,0,0-1.54-1.4c.35-.25.69-.49,1-.76h-4.65V2087c0,.59.07.78.55.78h2.43a7.41,7.41,0,0,0,1.52-.14,18.2,18.2,0,0,0,.19,1.87,6.06,6.06,0,0,1-1.65.15h-2.47c-2.11,0-2.64-.72-2.64-2.7Zm8.45,11.85H864v1.87H847.1v-1.87h7.26v-1h-6.23v-1.79h6.23v-1c-2,.1-3.91.16-5.74.16a6.69,6.69,0,0,0-.47-1.81,103.36,103.36,0,0,0,13.92-1.06l.94,1.84a60.6,60.6,0,0,1-6.35.72v1.16h6.42v1.79h-6.42Zm2.45-9.17a7.53,7.53,0,0,0,.84-.65,25.42,25.42,0,0,0-2.32-1.84c-.13.15-.3.32-.46.49C857.82,2085.68,858.58,2086.44,859.11,2087Zm-.28-3.38c.72.51,1.52,1.06,2.16,1.57a7,7,0,0,0,.86-1.57Z"/><path d="M852.16,2101.73a37.8,37.8,0,0,1-1.52,3.84v13.22h-2.07v-9.5a16.23,16.23,0,0,1-1.16,1.56,15.33,15.33,0,0,0-1.1-2.45,20.66,20.66,0,0,0,3.76-7.29Zm11.36,4.73a23.9,23.9,0,0,1-1.71,7.51,8.16,8.16,0,0,0,2.7,3,9,9,0,0,0-1.35,1.79,9.22,9.22,0,0,1-2.47-2.8,10.14,10.14,0,0,1-2.85,2.8,12.48,12.48,0,0,0-1.35-1.52,8.57,8.57,0,0,0,.76-.52h-3.63v1.35h-1.94v-8.41h1.9v-3.1H851.4v-2h2.18v-3.19h2.13v3.19h2v2h-2v3.1h1.44c-.17-.25-.34-.48-.45-.63,1.31-1.88,2-4.86,2.43-7.92l2,.34c-.17,1.05-.36,2.13-.59,3.14h3.88v1.89Zm-7.94,5.1h-2v3.24h2Zm2,4.92a9.06,9.06,0,0,0,2.17-2.57,21.58,21.58,0,0,1-1.12-4,7.85,7.85,0,0,1-.67,1,5.17,5.17,0,0,0-.38-.67Zm2.47-10c0,.19-.11.37-.17.56a26.82,26.82,0,0,0,.89,4.4,25.33,25.33,0,0,0,.88-5Z"/><path d="M863.29,2131v8.25h-2.55v-1h-13V2131h2.55v5h4v-6H848.7v-6.9h2.39v4.71h3.14v-6.31h2.51v6.31H860v-4.71h2.51v6.9h-5.77v6h4v-5Z"/><path d="M856.38,2145.59v3l.38-.44a42.85,42.85,0,0,1,6.47,3.84l-1.67,2.07a37.6,37.6,0,0,0-5.18-3.46v9h-2.44v-14h-6.85v-2.28H864v2.28Z"/><path d="M864.3,2169.81v2.45H846.82v-2.45Z"/><path d="M852.25,2183.45a35.61,35.61,0,0,1-1.48,3.61v13.47h-2.15v-9.72a18,18,0,0,1-1.27,1.63,16.06,16.06,0,0,0-1.06-2.45,20.17,20.17,0,0,0,3.87-7.18Zm11.61.29v16.58h-2.15v-.93h-7.14v1.1h-2.05v-16.75Zm-2.15,13.7V2185.7h-7.14v11.74Zm-2.73-7.77v1.63h1.82v5.09h-5.26v-5.09h1.69v-1.63h-2.18V2188h2.18v-1.94H859V2188h2.3v1.64Zm.13,3.19h-1.94v2h1.94Z"/><path d="M852.8,2203.94a31.87,31.87,0,0,1-1.88,4v12.92h-2.16v-9.57c-.4.51-.8,1-1.18,1.38a14,14,0,0,0-1.24-2.35,19.6,19.6,0,0,0,4.34-7.11Zm8.23,14.8c1.12,0,1.33-.48,1.46-2.61a7.15,7.15,0,0,0,2,.84c-.29,2.83-1,3.78-3.29,3.78h-4.31c-2.64,0-3.4-.68-3.4-3.33v-5.31l-1.45.56-.85-2,2.3-.89v-4.49h2.13v3.63l1.9-.74v-4.92h2v4.12l2.54-1,.19-.14,1.69.52-.07.36a71.77,71.77,0,0,1-.76,8.64l-1.86-.53c.21-1.6.34-4.1.41-6.42l-2.14.87v6.73h-2v-6l-1.9.78v6.15c0,1.12.19,1.32,1.44,1.32Z"/><path d="M849.27,2236.14v1.56h-2v-12.41h5.45v10.85Zm0-8.76v6.67h1.44v-6.67Zm2.56,12.6a10.42,10.42,0,0,0,1.35-4.28l1.68.48a11.17,11.17,0,0,1-1.41,4.57Zm12.32-6.82s0,.55,0,.81c-.17,4.28-.4,6-.88,6.61a1.75,1.75,0,0,1-1.23.69,12.53,12.53,0,0,1-2,.07,4.68,4.68,0,0,0-.53-1.93,12.42,12.42,0,0,0,1.43.07.65.65,0,0,0,.57-.23c.24-.3.41-1.4.55-4.21h-8.25v-10.68h9.84v2H860v1.08h3.06v1.77H860v1.1h3.06V2232H860v1.14Zm-7.41,2.67a15.16,15.16,0,0,1,.43,3.88l-1.55.25a15.77,15.77,0,0,0-.35-3.88Zm-.82-9.51v1.08H858v-1.08Zm2.05,2.85h-2.05v1.1H858Zm-2.05,4H858V2232h-2.05Zm2.79,2.39a13.41,13.41,0,0,1,.95,3.29l-1.44.45a13.52,13.52,0,0,0-.86-3.36Zm1.73,2.77a11.14,11.14,0,0,0-1-2.66l1.2-.41a11,11,0,0,1,1.12,2.58Z"/><path d="M853.46,2262.66c1.46-.55,2.28-1.5,2.28-2.6h-.17a1.64,1.64,0,0,1-1.75-1.65,1.69,1.69,0,0,1,1.81-1.66c1.29,0,2,1,2,2.76a4.79,4.79,0,0,1-3.59,4.67Z"/><path d="M855.69,2276.9s0,.85,0,1.14c0,9.82,0,13.22-.59,14.17a2,2,0,0,1-1.42,1.1,9.44,9.44,0,0,1-2.28.11,6.34,6.34,0,0,0-.68-2.41c.7.06,1.33.06,1.69.06a.62.62,0,0,0,.58-.4,9.81,9.81,0,0,0,.35-3.23H851a14,14,0,0,1-2.6,6.25,11.53,11.53,0,0,0-1.84-1.67,10.07,10.07,0,0,0,2.16-4.58h-1.77v-2h2.13c.1-.72.15-1.44.21-2.22h-2.11v-2h2.21c0-.74,0-1.5,0-2.28h-2.47v-2Zm-2.34,8.54c0-.66,0-1.38,0-2.22h-1.88c0,.78-.13,1.5-.21,2.22Zm-1.7-6.49q0,1.17-.06,2.28h1.8l0-2.28Zm12.8-1.16c-.74,1.78-1.63,3.91-2.47,5.58a5.77,5.77,0,0,1,2.15,4.39,3.1,3.1,0,0,1-1.12,2.78,3.63,3.63,0,0,1-1.39.47,13.17,13.17,0,0,1-1.81,0,5.23,5.23,0,0,0-.62-2.13,8.5,8.5,0,0,0,1.38,0,2.26,2.26,0,0,0,.88-.17c.4-.21.53-.63.53-1.26,0-1.06-.51-2.39-2.22-3.87.62-1.37,1.31-3.25,1.82-4.69H859v14.7h-2.15v-16.83h5.64l.32-.08Z"/><path d="M856.89,2311.66c.49,0,1,.06,1.52.06,1.06,0,4.71,0,6.06-.06a7.43,7.43,0,0,0-.76,2.17h-5.42c-3.47,0-5.83-.5-7.42-2.7a8.66,8.66,0,0,1-2.66,3,9.23,9.23,0,0,0-1.71-1.57,8.08,8.08,0,0,0,3.53-5.76l2.26.34c-.13.61-.28,1.18-.44,1.73a4.18,4.18,0,0,0,2.74,2.37v-4.82h-7.41v-2h16.76v2h-7.05v1.42h5.85v2h-5.85Zm5.24-8h-13.2V2297h13.2Zm-2.3-5h-8.7v1h8.7Zm0,2.45h-8.7v1h8.7Z"/><path d="M852.8,2317.54a32.53,32.53,0,0,1-1.88,4v12.92h-2.16v-9.57c-.4.51-.8,1-1.18,1.38a14,14,0,0,0-1.24-2.35,19.6,19.6,0,0,0,4.34-7.11Zm8.23,14.79c1.12,0,1.33-.47,1.46-2.6a7.15,7.15,0,0,0,2,.84c-.29,2.83-1,3.78-3.29,3.78h-4.31c-2.64,0-3.4-.68-3.4-3.33v-5.31l-1.45.56-.85-2,2.3-.89v-4.49h2.13v3.63l1.9-.74v-4.92h2V2321l2.54-1,.19-.14,1.69.52-.07.36a71.77,71.77,0,0,1-.76,8.64l-1.86-.53c.21-1.6.34-4.11.41-6.42l-2.14.87V2330h-2v-5.95l-1.9.78V2331c0,1.12.19,1.31,1.44,1.31Z"/><path d="M863.94,2340.15s0,.76,0,1c-.25,8.49-.46,11.51-1.24,12.52a2.56,2.56,0,0,1-1.82,1,21.89,21.89,0,0,1-3,0,5.52,5.52,0,0,0-.74-2.2c1.21.11,2.33.11,2.83.11a1,1,0,0,0,.83-.32c.55-.61.8-3.46,1-10.16h-4.07a16.17,16.17,0,0,1-1.67,3,14.41,14.41,0,0,0-1.46-1.06V2353h-5.07v1.38h-2.06v-14.11h2.15a19.37,19.37,0,0,0,.55-3.06l2.47.34c-.32,1-.66,1.9-1,2.72h3v3.08a19.75,19.75,0,0,0,2.56-6.12l2.15.49a23.24,23.24,0,0,1-.74,2.42Zm-11.38,2.1h-3v3.08h3Zm0,8.76v-3.72h-3V2351Zm6.3-1a40.77,40.77,0,0,0-2.64-4.39l1.77-1a46.13,46.13,0,0,1,2.79,4.22Z"/><path d="M859.26,2368.44a9,9,0,0,1-1,3.3,19,19,0,0,0,6.49,1.6,9.15,9.15,0,0,0-1.34,2,17.52,17.52,0,0,1-6.5-2,9.71,9.71,0,0,1-3.9,2,11.74,11.74,0,0,0-1.4-1.88,8.87,8.87,0,0,0,3.46-1.46,11,11,0,0,1-2.34-2.84l1.84-.56a8,8,0,0,0,1.77,1.95,6.09,6.09,0,0,0,.7-2.16h-4.23v-5.55h4.37v-1.33h-4.77v-1.75c-.34.72-.72,1.46-1.14,2.19v13.43h-2.15v-10.2a21.34,21.34,0,0,1-1.56,1.78,15,15,0,0,0-1.19-2.32,20.09,20.09,0,0,0,4.59-7.08l2.09.68c-.17.4-.34.8-.51,1.22h4.64v-1.73h2.24v1.73h5v2h-5v1.33h4.52v5.55Zm-2.12-1.83v-1.88H854.8v1.88Zm2.24-1.88v1.88h2.35v-1.88Z"/><path d="M857.46,2379.06l-.38.45a16.15,16.15,0,0,0,7.52,3.56,9.31,9.31,0,0,0-1.61,2.14,16.77,16.77,0,0,1-3.46-1.38V2385H851.4v-1.23a22.84,22.84,0,0,1-3.63,1.54,9.92,9.92,0,0,0-1.31-2.19c3.61-.83,7.37-3,9.19-5.35Zm-3,13.89h-4.23v1.51h-2v-8.35h6.28Zm-4.23-4.89V2391h2.13v-2.91Zm7.88-5.07a15.82,15.82,0,0,1-2.49-2.07,22,22,0,0,1-2.86,2.07Zm4.83,8.34c0,1-.15,1.56-.84,1.9a6.38,6.38,0,0,1-2.79.34,8.8,8.8,0,0,0-.57-2c.7,0,1.48,0,1.71,0s.32-.08.32-.29v-3.15h-2.62v7.73H856v-9.73h7Z"/><path d="M853.46,2417.11c1.46-.55,2.28-1.5,2.28-2.6h-.17a1.64,1.64,0,0,1-1.75-1.65,1.69,1.69,0,0,1,1.81-1.66c1.29,0,2,1,2,2.76a4.79,4.79,0,0,1-3.59,4.67Z"/><path d="M855.69,2431.35s0,.85,0,1.14c0,9.82,0,13.22-.59,14.17a2,2,0,0,1-1.42,1.1,9.44,9.44,0,0,1-2.28.11,6.39,6.39,0,0,0-.68-2.41c.7.06,1.33.06,1.69.06a.62.62,0,0,0,.58-.4,9.81,9.81,0,0,0,.35-3.23H851a14,14,0,0,1-2.6,6.25,11.53,11.53,0,0,0-1.84-1.67,10.07,10.07,0,0,0,2.16-4.58h-1.77v-2h2.13c.1-.73.15-1.45.21-2.23h-2.11v-2h2.21c0-.74,0-1.5,0-2.28h-2.47v-2.05Zm-2.34,8.55c0-.67,0-1.39,0-2.23h-1.88c0,.78-.13,1.5-.21,2.23Zm-1.7-6.5q0,1.17-.06,2.28h1.8l0-2.28Zm12.8-1.16c-.74,1.79-1.63,3.91-2.47,5.58a5.78,5.78,0,0,1,2.15,4.39A3.1,3.1,0,0,1,863,2445a3.46,3.46,0,0,1-1.39.47,13.17,13.17,0,0,1-1.81,0,5.23,5.23,0,0,0-.62-2.13,8.5,8.5,0,0,0,1.38,0,2.26,2.26,0,0,0,.88-.17c.4-.21.53-.63.53-1.25,0-1.07-.51-2.4-2.22-3.88.62-1.37,1.31-3.25,1.82-4.69H859v14.7h-2.15v-16.83h5.64l.32-.08Z"/><path d="M856.89,2466.11c.49,0,1,.06,1.52.06,1.06,0,4.71,0,6.06-.06a7.54,7.54,0,0,0-.76,2.17h-5.42c-3.47,0-5.83-.49-7.42-2.7a8.58,8.58,0,0,1-2.66,3,9.23,9.23,0,0,0-1.71-1.57,8.06,8.06,0,0,0,3.53-5.76l2.26.34c-.13.61-.28,1.18-.44,1.73a4.18,4.18,0,0,0,2.74,2.37v-4.82h-7.41v-2h16.76v2h-7.05v1.42h5.85v2h-5.85Zm5.24-8.05h-13.2v-6.59h13.2Zm-2.3-5h-8.7v1h8.7Zm0,2.46h-8.7v1h8.7Z"/><path d="M863.48,2480.25a18.61,18.61,0,0,1-3.15,4.16c.51,1.46,1.1,2.34,1.67,2.34.4,0,.63-.91.72-3.16a5.66,5.66,0,0,0,1.86,1.3c-.36,3.32-1.06,4.16-2.79,4.16-1.39,0-2.45-1.14-3.27-3a19,19,0,0,1-3.51,2.32,10.18,10.18,0,0,0-1.5-1.82,19.67,19.67,0,0,0,4.23-2.68,36.61,36.61,0,0,1-1-5.09h-3.85v2.16l2.92-.53.17,2.06-3.09.62v3.25c0,1.23-.27,1.84-1,2.2a8.15,8.15,0,0,1-3.42.44,8.63,8.63,0,0,0-.8-2.28c1.07.06,2.17,0,2.51,0s.46-.09.46-.4v-2.75c-1.22.24-2.4.49-3.4.68l-.55-2.28c1.08-.17,2.45-.38,3.95-.65v-2.54h-3.59v-2.15h3.59v-2.16c-1,.17-2.07.3-3,.42A8.79,8.79,0,0,0,847,2473a47.6,47.6,0,0,0,7.54-1.59l1.52,1.92c-1,.28-2,.53-3.09.76v2.56h3.65c-.16-1.71-.21-3.47-.23-5.2h2.37a46.75,46.75,0,0,0,.19,5.2h5.17v2.15h-4.94c.15,1.14.34,2.24.55,3.21a16,16,0,0,0,1.81-2.58Zm-1.39-4.18a15.11,15.11,0,0,0-2.69-3.13l1.71-1.16a16.55,16.55,0,0,1,2.81,3Z"/><path d="M853.46,2510.29c1.46-.55,2.28-1.5,2.28-2.6h-.17a1.65,1.65,0,0,1-1.75-1.66,1.69,1.69,0,0,1,1.81-1.65c1.29,0,2,1,2,2.75a4.79,4.79,0,0,1-3.59,4.68Z"/><path d="M863.48,2532.58a18.84,18.84,0,0,1-3.15,4.16c.51,1.46,1.1,2.33,1.67,2.33.4,0,.63-.91.72-3.15a5.78,5.78,0,0,0,1.86,1.29c-.36,3.33-1.06,4.16-2.79,4.16-1.39,0-2.45-1.14-3.27-3a20.11,20.11,0,0,1-3.51,2.32,10.59,10.59,0,0,0-1.5-1.83,19.24,19.24,0,0,0,4.23-2.67,36.77,36.77,0,0,1-1-5.1h-3.85v2.17l2.92-.53.17,2.05-3.09.63v3.25c0,1.23-.27,1.84-1,2.2a8.32,8.32,0,0,1-3.42.44,8.51,8.51,0,0,0-.8-2.28c1.07.05,2.17,0,2.51,0s.46-.1.46-.4v-2.76c-1.22.25-2.4.5-3.4.69l-.55-2.28c1.08-.17,2.45-.38,3.95-.65v-2.55h-3.59V2529h3.59v-2.17c-1,.17-2.07.31-3,.42a8.71,8.71,0,0,0-.65-1.9,47.53,47.53,0,0,0,7.54-1.6l1.52,1.92c-1,.29-2,.54-3.09.76V2529h3.65c-.16-1.71-.21-3.48-.23-5.21h2.37a46.85,46.85,0,0,0,.19,5.21h5.17v2.14h-4.94c.15,1.14.34,2.25.55,3.21a15.59,15.59,0,0,0,1.81-2.58Zm-1.39-4.18a14.89,14.89,0,0,0-2.69-3.14l1.71-1.16a16.88,16.88,0,0,1,2.81,3Z"/><path d="M855.05,2559.65c0,.93-.18,1.41-.8,1.71a6.66,6.66,0,0,1-2.62.32,6.26,6.26,0,0,0-.69-1.76c.69,0,1.43,0,1.65,0s.33-.07.33-.32v-1.94c-.95.69-1.9,1.33-2.76,1.88l-.47-1.33a8.43,8.43,0,0,1-1.35,3.58,8.68,8.68,0,0,0-1.58-1.52c1-1.49,1.09-3.58,1.09-5.23v-4.27h7.2ZM854,2545.4a39.23,39.23,0,0,1,2.26,4.37l-2,.8c-.12-.34-.29-.74-.48-1.2-4.8.48-5.58.59-6.13.82-.12-.44-.48-1.46-.71-2a2.3,2.3,0,0,0,1-.76,16,16,0,0,0,2.24-3.38l2.28.64a20.75,20.75,0,0,1-2.34,3.15l2.78-.2c-.29-.56-.55-1.09-.8-1.54Zm-4,9.69a21.36,21.36,0,0,1-.14,2.43c.86-.38,2-.95,3.12-1.56v-.62l-.91.89c-.48-.49-1.35-1.23-2.07-1.82Zm0-2.39v1.35l.95-.82c.64.45,1.46,1.12,2,1.61v-2.14Zm9.38-.33c-2.28,0-2.89-.83-2.89-2.94V2544h2.24v2.25h4.68v1.93h-4.68v1.26c0,.7.12,1,.73,1h2.77a9.4,9.4,0,0,0,1.75-.16c0,.59.13,1.41.21,1.92a7.31,7.31,0,0,1-1.92.17Zm2.39,7.26c.65,0,.78-.32.88-2.07a6.29,6.29,0,0,0,1.95.82c-.22,2.49-.81,3.23-2.62,3.23h-2.7c-2.24,0-2.79-.67-2.79-2.74v-6h2.24v1.9h4.81v2h-4.81v2.07c0,.67.14.76.88.76Z"/><path d="M852.16,2565.09a38.58,38.58,0,0,1-1.52,3.83v13.23h-2.07v-9.5a19.18,19.18,0,0,1-1.16,1.56,15,15,0,0,0-1.1-2.46,20.66,20.66,0,0,0,3.76-7.29Zm11.36,4.73a23.9,23.9,0,0,1-1.71,7.5,8.08,8.08,0,0,0,2.7,3,9,9,0,0,0-1.35,1.79,9.31,9.31,0,0,1-2.47-2.79,10.24,10.24,0,0,1-2.85,2.79,12.48,12.48,0,0,0-1.35-1.52,8.41,8.41,0,0,0,.76-.51h-3.63v1.35h-1.94V2573h1.9v-3.1H851.4v-2h2.18v-3.19h2.13v3.19h2v2h-2v3.1h1.44c-.17-.25-.34-.48-.45-.63,1.31-1.88,2-4.86,2.43-7.92l2,.34c-.17,1-.36,2.13-.59,3.14h3.88v1.9Zm-7.94,5.09h-2v3.25h2Zm2,4.92a8.93,8.93,0,0,0,2.17-2.57,21.48,21.48,0,0,1-1.12-4,7.73,7.73,0,0,1-.67,1,4.56,4.56,0,0,0-.38-.66Zm2.47-10c0,.19-.11.36-.17.55a27.15,27.15,0,0,0,.89,4.41,25.6,25.6,0,0,0,.88-5Z"/><path d="M853.3,2598.81c1.19-.21,2.43-.42,3.63-.61l.11,1.94c-3.32.65-6.92,1.29-9.5,1.75l-.49-2.09c1.14-.15,2.56-.38,4.1-.63v-2.58h-3.46v-2h3.46v-1.69h2.15v1.69h3.42v2H853.3ZM847.24,2586h9.88v1.94h-2.68a21.17,21.17,0,0,1,2.64,4l-1.71,1.12c-.12-.28-.27-.61-.44-1-5.24.44-6.06.53-6.61.76-.13-.45-.49-1.46-.72-2.05a1.87,1.87,0,0,0,.87-.8,15.28,15.28,0,0,0,1.18-2.12h-2.41Zm6.65,4.42c-.36-.55-.74-1.08-1.1-1.55l1.59-.93H852.1a21.26,21.26,0,0,1-1.65,2.67Zm6.06,7.7h-2.09v-11.48H860Zm3.74-13v14.7c0,1.2-.23,1.77-1,2.13a8.33,8.33,0,0,1-3.29.42,8.8,8.8,0,0,0-.76-2.17c1,0,2,0,2.36,0s.44-.12.44-.44v-14.68Z"/><path d="M853.35,2606.09a26.51,26.51,0,0,1-1.88,3.87v13h-2.24v-9.73a19.15,19.15,0,0,1-1.61,1.8,16.63,16.63,0,0,0-1.31-2.39,19.57,19.57,0,0,0,4.8-7.29Zm6.26,9.38v4.73h4.48v2.17H852.92v-2.17h4.39v-4.73h-4.9v-2.18h4.9v-4.14h-3.88V2607h10.35v2.13h-4.17v4.14h4.9v2.18Z"/><path d="M852.9,2626.36a31.28,31.28,0,0,1-1.56,3.48v13.54h-2.26v-9.93a18.6,18.6,0,0,1-1.33,1.59,15.45,15.45,0,0,0-1.21-2.35,19.52,19.52,0,0,0,4.23-7Zm11.53,3.14h-1.14v11.26c0,1.31-.28,1.92-1.1,2.28a11.07,11.07,0,0,1-3.86.42,8.08,8.08,0,0,0-.76-2.32c1.24.06,2.57.06,2.95.06s.49-.12.49-.48V2629.5h-8.28v-2.17h11.7Zm-9.37,8.92v1.24H853v-8.11h6.32v6.87Zm0-4.92v3h2.11v-3Z"/><path d="M863.94,2649.05s0,.76,0,1c-.25,8.49-.46,11.51-1.24,12.52a2.56,2.56,0,0,1-1.82,1,21.89,21.89,0,0,1-3,0,5.52,5.52,0,0,0-.74-2.2c1.21.11,2.33.11,2.83.11a1,1,0,0,0,.83-.32c.55-.61.8-3.46,1-10.16h-4.07a16.17,16.17,0,0,1-1.67,3,14.41,14.41,0,0,0-1.46-1.06v8.87h-5.07v1.38h-2.06v-14.11h2.15a19.37,19.37,0,0,0,.55-3.06l2.47.34c-.32.95-.66,1.9-1,2.72h3v3.08a19.75,19.75,0,0,0,2.56-6.12l2.15.49a23.24,23.24,0,0,1-.74,2.42Zm-11.38,2.11h-3v3.07h3Zm0,8.75v-3.72h-3v3.72Zm6.3-1a40.77,40.77,0,0,0-2.64-4.39l1.77-1a46.13,46.13,0,0,1,2.79,4.22Z"/><path d="M864.32,2679h-2v3.3H860v-.77h-3.42v.58c0,1.13-.26,1.58-1,1.9a9.89,9.89,0,0,1-3.37.33,6.78,6.78,0,0,0-.74-1.79c.91,0,2,0,2.34,0s.47-.13.47-.48v-.58h-5.77v-1.64h5.77V2679H846.8v-1.73h7.52v-.82H848.7v-1.52h5.62v-.83h-5.14v-3.76h5.14v-.78h-7.08v-1.79h7.08v-1.23h2.3v1.23h7.26v1.79h-7.26v.78H862v3.76h-5.4v.83h5.72v2.34h2Zm-10-6.33v-.91h-3v.91Zm2.3-.91v.91h3.08v-.91Zm0,5.51H860v-.82h-3.42ZM860,2679h-3.42v.89H860Z"/><path d="M853.46,2705.59c1.46-.55,2.28-1.5,2.28-2.6h-.17a1.65,1.65,0,0,1-1.75-1.66,1.69,1.69,0,0,1,1.81-1.65c1.29,0,2,1,2,2.76a4.79,4.79,0,0,1-3.59,4.67Z"/><path d="M858,2730.31a17.89,17.89,0,0,0,6.48,3.91,9.79,9.79,0,0,0-1.62,2,19.36,19.36,0,0,1-6.15-4.35v4.76h-2.36V2732a19.4,19.4,0,0,1-6.11,4.16,11.35,11.35,0,0,0-1.56-1.9,18.51,18.51,0,0,0,6.48-4h-4.47v-6.08h5.66v-1.5h-6.89v-2.09h6.89v-1.75h2.36v1.75h7v2.09h-7v1.5h5.87v6.08Zm-7.1-2h3.45v-2.12h-3.45Zm5.81-2.12v2.12h3.53v-2.12Z"/><path d="M848.93,2752a21.92,21.92,0,0,1-.82,4.64,9,9,0,0,0-1.63-.57,16.89,16.89,0,0,0,.76-4.33Zm3.4-1.31c0-.17-.06-.34-.1-.53-3.83.61-4.48.8-4.9,1a14.37,14.37,0,0,0-.64-1.82c.47-.12.89-.57,1.46-1.28a15.43,15.43,0,0,0,1.25-1.71,7.57,7.57,0,0,0-2.22.42,17.18,17.18,0,0,0-.63-1.8,2.2,2.2,0,0,0,1.05-1,20.25,20.25,0,0,0,2.24-4.62l1.86.74a27.62,27.62,0,0,1-2.56,4.64l1.38-.09a27.2,27.2,0,0,0,1.39-2.68l1.69,1.06a32.25,32.25,0,0,1-4,5.91l2.19-.29a12.19,12.19,0,0,0-.61-1.57l1.46-.55a14.85,14.85,0,0,1,1.27,3.57Zm-1.43.92a32.07,32.07,0,0,1,.52,3.95l-1.64.41a35.64,35.64,0,0,0-.41-4Zm2-.56a27.49,27.49,0,0,1,1.1,3.58l-1.52.57a28.14,28.14,0,0,0-1-3.67Zm11.55,1.54h-2.18V2755c0,.91-.16,1.37-.8,1.63a6.73,6.73,0,0,1-2.64.29,7.12,7.12,0,0,0-.61-1.73c.68,0,1.44,0,1.67,0s.3-.08.3-.27v-2.32h-3.28a9.31,9.31,0,0,1,1.63,2l-1.65,1.14a10.24,10.24,0,0,0-1.84-2.45l1.12-.73h-2.43v-1.76h6.45v-.82h.94c-.14-.3-.29-.63-.42-.86.34,0,.66,0,.81,0s.19-.05.19-.21v-.3H860v1.22h-2.06v-1.22H856.3v1.41h-1.94v-6.61h3.57v-.76h-4.06v-1.68h4.06v-1.76H860v1.76h2a11.82,11.82,0,0,0-1.44-.83l1.1-1.12a9,9,0,0,1,2.15,1.21l-.71.74h1.26v1.68H860v.76h3.66v5.56c0,.74-.13,1-.61,1.14a2.77,2.77,0,0,1-.79.15v.52h2.2ZM856.3,2745v.62h1.63V2745Zm1.63,2.46v-.62H856.3v.62ZM860,2745v.62h1.7V2745Zm1.7,2.46v-.62H860v.62Z"/><path d="M850.07,2763.71a16.12,16.12,0,0,1-2.22,2.11,13.67,13.67,0,0,0-1.3-1.82,12.52,12.52,0,0,0,3.94-4.5l2,.64a12.59,12.59,0,0,1-.89,1.58h12v2Zm-3.16,12.94A18,18,0,0,0,849,2773l2.19.56a24.22,24.22,0,0,1-2.11,4Zm14.84-8.51v2.41H864v2H847.09v-2h2.6v-2.41h-2v-2h2v-1.7h2v1.7H853v-1.7h1.88v1.7h1.49v-1.7h1.88v1.7h1.42v-1.7h2.09v1.7h1.86v2Zm-10,2.41H853v-2.41H851.7Zm2.66,2.93a21.68,21.68,0,0,1,.48,3.55l-2.23.32a21.9,21.9,0,0,0-.36-3.64Zm.51-5.34v2.41h1.49v-2.41Zm3.37,5.19a18.84,18.84,0,0,1,1.12,3.51l-2.26.44a19.23,19.23,0,0,0-1-3.61Zm1.42-5.19h-1.42v2.41h1.42Zm2.38,4.65a27.76,27.76,0,0,1,2.22,3.75l-2.22,1a28.32,28.32,0,0,0-2.07-3.87Z"/><path d="M850.3,2789.15a17.23,17.23,0,0,0-3.56-2.05l1.2-1.69a17.42,17.42,0,0,1,3.61,1.86Zm-2.89,7a52.85,52.85,0,0,0,3.59-6l1.67,1.52c-1,2-2.22,4.14-3.34,6Zm4-12a17.61,17.61,0,0,0-3.54-2.11l1.24-1.67a17.9,17.9,0,0,1,3.61,1.92Zm10.83,13.77a8.94,8.94,0,0,0-.67-1.67c-6.32.76-7.29.91-7.92,1.23a19.6,19.6,0,0,0-.8-2.26c.44-.13.8-.53,1.24-1.21a28.85,28.85,0,0,0,2-4.07h-3.57v-2.13H857v-2.68h-3.74V2783H857v-2.83h2.3V2783h3.88v2.14h-3.88v2.68h4.58v2.13h-5.17a35.72,35.72,0,0,1-2.64,4.88l4.46-.45a18.88,18.88,0,0,0-1.27-2l1.84-.91a21.48,21.48,0,0,1,3.14,5.39Z"/><path d="M855.67,2803.92s0,.76,0,1c-.28,8-.57,11-1.23,11.89a2,2,0,0,1-1.46,1,11.62,11.62,0,0,1-2.17.1,6,6,0,0,0-.65-2.34c.67.05,1.28.07,1.62.07a.71.71,0,0,0,.67-.36c.41-.55.7-2.9.93-9.19h-1.87c-.22,4.79-.93,9.15-3.19,12.18a6,6,0,0,0-1.78-1.62c2-2.58,2.58-6.38,2.73-10.56H847v-2.21h2.28c0-1.08,0-2.2,0-3.3h2.28c0,1.1,0,2.22,0,3.3Zm8-1.18v15h-2.36v-1.17h-2.54v1.31h-2.26v-15.18Zm-2.36,11.68v-9.52h-2.54v9.52Z"/><path d="M863.18,2825.56a38.57,38.57,0,0,1-10.15,9.8,9.26,9.26,0,0,0,4.77.85,55.26,55.26,0,0,0,6.65-.45,11.51,11.51,0,0,0-.65,2.41c-1.35.1-4.21.21-6.08.21-2.33,0-3.85-.25-5.14-1.05-.82-.47-1.45-1.12-1.87-1.12-.59,0-1.44,1.28-2.22,2.49l-1.63-2.12c1.37-1.47,2.87-2.47,3.91-2.47h.12a33.41,33.41,0,0,0,8.39-7.38H847.83v-2.22h7.41c-.46-.81-1.16-1.86-1.71-2.66l2-1.08a33.35,33.35,0,0,1,2.13,3.08l-1.16.66H861l.44-.11Z"/><path d="M854.49,2848.53s0,.62,0,.89c-.12,5.7-.25,7.85-.74,8.51a1.79,1.79,0,0,1-1.24.82,12.11,12.11,0,0,1-1.92.07,5.37,5.37,0,0,0-.57-2c.55,0,1,.06,1.31.06a.59.59,0,0,0,.53-.29c.25-.38.38-1.88.46-6H850.6c-.25,3.55-.84,6.48-2.47,8.55a6.55,6.55,0,0,0-1.63-1.69c1.86-2.44,2-6.18,2-11h-1.48v-2.09h3.34a12.86,12.86,0,0,0-1.21-2.28l2-.76a11.48,11.48,0,0,1,1.44,2.54l-1.21.5H855v2.09h-4.26c0,.72,0,1.38,0,2.07Zm6.39-6.61c-.14.45-.29.89-.46,1.33a12.09,12.09,0,0,0,4.29,4.67,8.88,8.88,0,0,0-1.61,1.79,14,14,0,0,1-3.67-4.3,12.77,12.77,0,0,1-3.83,4.43,7.87,7.87,0,0,0-1.56-1.79,11.57,11.57,0,0,0,4.75-6.72Zm-3.54,11.79a37.14,37.14,0,0,1,5.48,3.37l-1.58,1.93a32.52,32.52,0,0,0-5.32-3.63Zm3.08-.78a24.21,24.21,0,0,0-3.23-2.75l1.45-1.46a23.63,23.63,0,0,1,3.34,2.6Z"/><path d="M863.48,2870.85a18.61,18.61,0,0,1-3.15,4.16c.51,1.47,1.1,2.34,1.67,2.34.4,0,.63-.91.72-3.15a5.78,5.78,0,0,0,1.86,1.29c-.36,3.32-1.06,4.16-2.79,4.16-1.39,0-2.45-1.14-3.27-3A19.5,19.5,0,0,1,855,2879a10.18,10.18,0,0,0-1.5-1.82,19.29,19.29,0,0,0,4.23-2.68,36.61,36.61,0,0,1-1-5.09h-3.85v2.17l2.92-.54.17,2.06-3.09.62v3.25c0,1.24-.27,1.84-1,2.21a8.18,8.18,0,0,1-3.42.43,8.76,8.76,0,0,0-.8-2.28c1.07.06,2.17,0,2.51,0s.46-.09.46-.4v-2.75c-1.22.25-2.4.49-3.4.68l-.55-2.28c1.08-.17,2.45-.38,3.95-.64v-2.55h-3.59v-2.15h3.59v-2.16c-1,.17-2.07.3-3,.42a8.71,8.71,0,0,0-.65-1.9,47.53,47.53,0,0,0,7.54-1.6l1.52,1.92c-1,.28-2,.53-3.09.76v2.56h3.65c-.16-1.71-.21-3.47-.23-5.2h2.37a46.66,46.66,0,0,0,.19,5.2h5.17v2.15h-4.94c.15,1.14.34,2.24.55,3.21a16,16,0,0,0,1.81-2.58Zm-1.39-4.18a15.11,15.11,0,0,0-2.69-3.13l1.71-1.16a16.55,16.55,0,0,1,2.81,3Z"/><path d="M864.2,2889.11a20.7,20.7,0,0,1-3.17,3.78v4.33c0,1.31-.25,2-1.1,2.36a10.12,10.12,0,0,1-3.86.42,8.79,8.79,0,0,0-.8-2.38c1.16.06,2.53,0,2.89,0s.53-.13.53-.48v-2.31a33.23,33.23,0,0,1-10.37,5,17.43,17.43,0,0,0-1.52-2.07,32.26,32.26,0,0,0,8.53-3.42c-2.83.23-5.57.42-7.64.59l-.22-2c.72,0,1.5-.1,2.37-.13v-8.74h3.93a15.28,15.28,0,0,0,.61-1.85l2.77.29c-.26.55-.57,1.06-.87,1.56H861v5.35c.34-.45.66-.91,1-1.38Zm-12.1-3.1v1.11h6.59V2886Zm6.59,2.72H852.1v1.12h6.59Zm-6.59,3.93,6.23-.43.36-.31v-.43H852.1Z"/><path d="M853.46,2921.31c1.46-.55,2.28-1.5,2.28-2.6h-.17a1.64,1.64,0,0,1-1.75-1.65,1.68,1.68,0,0,1,1.81-1.65c1.29,0,2,1,2,2.75a4.79,4.79,0,0,1-3.59,4.67Z"/><path d="M863.48,2943.6a18.61,18.61,0,0,1-3.15,4.16c.51,1.47,1.1,2.34,1.67,2.34.4,0,.63-.91.72-3.15a5.78,5.78,0,0,0,1.86,1.29c-.36,3.32-1.06,4.16-2.79,4.16-1.39,0-2.45-1.14-3.27-3a19.5,19.5,0,0,1-3.51,2.31,10.18,10.18,0,0,0-1.5-1.82,19.29,19.29,0,0,0,4.23-2.68,36.61,36.61,0,0,1-1-5.09h-3.85v2.17l2.92-.54.17,2.06-3.09.62v3.25c0,1.24-.27,1.84-1,2.21a8.18,8.18,0,0,1-3.42.43,8.76,8.76,0,0,0-.8-2.28c1.07.06,2.17,0,2.51,0s.46-.09.46-.4v-2.75c-1.22.25-2.4.49-3.4.68l-.55-2.28c1.08-.17,2.45-.38,3.95-.64v-2.55h-3.59V2940h3.59v-2.16c-1,.17-2.07.3-3,.42a8.71,8.71,0,0,0-.65-1.9,47.53,47.53,0,0,0,7.54-1.6l1.52,1.92c-1,.28-2,.53-3.09.76V2940h3.65c-.16-1.71-.21-3.47-.23-5.2h2.37a46.66,46.66,0,0,0,.19,5.2h5.17v2.15h-4.94c.15,1.14.34,2.24.55,3.21a16,16,0,0,0,1.81-2.58Zm-1.39-4.18a15.11,15.11,0,0,0-2.69-3.13l1.71-1.16a16.55,16.55,0,0,1,2.81,3Z"/><path d="M858.18,2961.16a49.58,49.58,0,0,1,6.33,5.15l-1.92,1.73a43.3,43.3,0,0,0-5.82-5.15v9.84H854.3v-9.27a22.63,22.63,0,0,1-6,4.67,13.46,13.46,0,0,0-1.55-2.05,19.93,19.93,0,0,0,8.18-7.47h-7.58v-2.31h16.47v2.31h-5.9a20.51,20.51,0,0,1-1.11,1.75v2Z"/><path d="M857.15,2976l-.28.36a18.27,18.27,0,0,0,7.88,3.42,7.85,7.85,0,0,0-1.42,1.73l-1.18-.34v4.9H849v-4.79c-.4.13-.8.27-1.18.36a12.34,12.34,0,0,0-1.22-1.75c3.5-.81,6.88-2.39,8.61-4.59Zm4.32,4.92a20.05,20.05,0,0,1-2.59-1.16v.49h-6.67v-.38a25.06,25.06,0,0,1-2.29,1.05ZM850,2986.69h11.17v6.43h-2.32v-.46h-6.63v.51H850Zm2.15-2a7.52,7.52,0,0,0-.65-2l1.46-.41h-2.14v2.39Zm.07,3.48v.76h6.63v-.76Zm6.63,3v-.76h-6.63v.76Zm-4.31-8.87h-1.48a8.4,8.4,0,0,1,.76,2l-1.22.38h1.94Zm2.74-3.52c-.57-.4-1.12-.82-1.6-1.23-.49.41-1,.83-1.61,1.23Zm-.91,3.52v2.39h1.76l-1.14-.32a14.53,14.53,0,0,0,.74-2.07Zm3.76,0h-2l1.48.36c-.38.76-.74,1.5-1,2h1.54Z"/><path d="M855.16,3005.73a34.31,34.31,0,0,1-3.53,4.66l7.69-.46c-.66-1-1.37-1.92-2-2.73l2.09-.92a31.74,31.74,0,0,1,4.21,6.12l-2.2,1.14a16.84,16.84,0,0,0-.8-1.58c-9.57.76-10.9.82-11.85,1.18-.13-.45-.51-1.59-.78-2.22a3.17,3.17,0,0,0,1.46-1.14,25.38,25.38,0,0,0,2.87-4.05H847v-2.28h7.39v-2.69H848.4v-2.28h5.94v-2.63h2.4v2.63h6.11v2.28h-6.11v2.69h7.48v2.28Z"/><path d="M855.69,3017.25s0,.85,0,1.14c0,9.82,0,13.22-.59,14.17a2,2,0,0,1-1.42,1.1,9.91,9.91,0,0,1-2.28.12,6.39,6.39,0,0,0-.68-2.42c.7.06,1.33.06,1.69.06a.61.61,0,0,0,.58-.4,9.76,9.76,0,0,0,.35-3.23H851a14,14,0,0,1-2.6,6.25,11.53,11.53,0,0,0-1.84-1.67,10.07,10.07,0,0,0,2.16-4.58h-1.77v-2h2.13c.1-.72.15-1.45.21-2.23h-2.11v-2h2.21c0-.74,0-1.5,0-2.28h-2.47v-2.05Zm-2.34,8.55c0-.67,0-1.39,0-2.23h-1.88c0,.78-.13,1.51-.21,2.23Zm-1.7-6.5q0,1.17-.06,2.28h1.8l0-2.28Zm12.8-1.16c-.74,1.79-1.63,3.91-2.47,5.59a5.75,5.75,0,0,1,2.15,4.38,3.09,3.09,0,0,1-1.12,2.78,3.46,3.46,0,0,1-1.39.47,13.17,13.17,0,0,1-1.81,0,5.23,5.23,0,0,0-.62-2.13,8.5,8.5,0,0,0,1.38,0,2.26,2.26,0,0,0,.88-.17c.4-.21.53-.63.53-1.25,0-1.07-.51-2.4-2.22-3.88.62-1.37,1.31-3.25,1.82-4.69H859V3034h-2.15v-16.83h5.64l.32-.07Z"/><path d="M852.35,3048.48c-.23-.55-.63-1.4-1.05-2.22v8.19h-2v-7.11a15.74,15.74,0,0,1-1.73,3.74,11.16,11.16,0,0,0-1-2,18.94,18.94,0,0,0,2.54-6.36H847v-2.09h2.28v-3.92h2v3.92h1.9v2.09h-1.9v.83c.52.7,1.88,2.79,2.21,3.31Zm5.17.78a7.83,7.83,0,0,1-3.94,4.9,8.23,8.23,0,0,0-1.16-1.44,6.05,6.05,0,0,0,2.64-2.38H853v-1.52h3l.32-.05Zm6.78-.91c-.93.68-1.94,1.39-2.8,1.92a8.68,8.68,0,0,0,3.16,2.05,8.44,8.44,0,0,0-1.33,1.65,9.34,9.34,0,0,1-3.5-3v1.48c0,1-.17,1.45-.81,1.75a6.22,6.22,0,0,1-2.63.33,5.94,5.94,0,0,0-.57-1.85c.67,0,1.39,0,1.6,0s.3,0,.3-.26v-4.2h-3.11v-1.54h4.56c-.88-.36-1.84-.72-2.68-1l.55-.61h-3.88v-1.65h4.53v-.74h-3.31v-1.54h3.31v-.7h-4v-1.6h2a13.1,13.1,0,0,0-.85-1.5l1.65-.61a11.16,11.16,0,0,1,1.16,1.9l-.5.21h3.06l-.38-.13a18.27,18.27,0,0,0,1-2l2,.57c-.41.57-.79,1.09-1.14,1.54H864v1.6h-4.18v.7h3.73v1.54h-3.73v.74h4.5v1.65h-4.73a16.86,16.86,0,0,1,2.38,1l-1.2,1.35a10.61,10.61,0,0,0-1-.5v.95a7,7,0,0,0,.69,1.18,19.63,19.63,0,0,0,2.12-2Z"/><path d="M864.18,3067.62h-7.37v4.57c0,1.28-.28,1.9-1.18,2.26a11.14,11.14,0,0,1-4,.4,8.91,8.91,0,0,0-1-2.33c1.33.07,2.81.07,3.21.05s.55-.11.55-.43v-4.52h-7.53v-2.27h7.53v-2.64a23.63,23.63,0,0,0,3.66-2.24h-9.31v-2.24h11.84l.53-.11,1.71,1.31a28.32,28.32,0,0,1-6.08,4.48v1.44h7.37Z"/><path d="M853.46,3096.19c1.46-.55,2.28-1.5,2.28-2.6h-.17a1.65,1.65,0,0,1-1.75-1.66,1.69,1.69,0,0,1,1.81-1.65c1.29,0,2,1,2,2.76a4.79,4.79,0,0,1-3.59,4.67Z"/><path d="M863.71,3110.1v17.12H861.5v-.86h-12v.86h-2.09V3110.1Zm-2.21,14.42v-12.39h-12v12.39Zm-5.07-7.16c0,.28-.07.55-.13.81a27.66,27.66,0,0,1,4.5,4.33l-1.58,1.39a29.76,29.76,0,0,0-3.53-3.76,7.35,7.35,0,0,1-4.06,4,6.85,6.85,0,0,0-1.35-1.81,6.05,6.05,0,0,0,4-5h-3.8v-2h4c0-.78.07-1.59.09-2.49h2.21c0,.88-.06,1.7-.12,2.49h4v2Z"/><path d="M863.9,3141c-.32,3.69-.65,5.28-1.24,5.89a2,2,0,0,1-1.42.71,17.53,17.53,0,0,1-2.26,0,5,5,0,0,0-.61-2,14.11,14.11,0,0,0,1.84.1.82.82,0,0,0,.63-.21c.3-.31.55-1.26.78-3.42h-11.3c-.31.23-.63.43-1,.64l1.73.55a7.94,7.94,0,0,1-2.23,4.3l-1.76-1.12a6.93,6.93,0,0,0,2-3.59c-.46.28-.93.53-1.41.77a13.16,13.16,0,0,0-1.18-2,17.28,17.28,0,0,0,7.28-6.52h-6.1v-2h3.19a16.38,16.38,0,0,0-1.19-2.42l1.95-.76a13.44,13.44,0,0,1,1.47,2.78l-.95.4H855a21.87,21.87,0,0,0,1.31-3.25l2.26.63c-.32.89-.68,1.76-1.08,2.62h3.72c-.19,1.14-.47,2.43-.72,3.47h2.17c-.21,1.14-.46,2.47-.69,3.5h2Zm-10.34,2.26a13,13,0,0,1,.52,3.5l-2,.25a12.79,12.79,0,0,0-.38-3.52Zm.48-4.65a18.64,18.64,0,0,1-1.43,1.54h7.26c.12-.46.23-1,.34-1.54Zm2.34,4.31a16.28,16.28,0,0,1,.91,3.08l-1.81.46a16.24,16.24,0,0,0-.87-3.16Zm0-7.77c-.28.52-.59,1-.91,1.5h2.91c.11-.45.23-1,.32-1.5Zm2.11,10.32a10.45,10.45,0,0,0-1.12-2.57l1.56-.53a10,10,0,0,1,1.23,2.51Z"/><path d="M853.22,3164.4h-3.85v1.67h-2.09v-14.59h5.94Zm-3.85-10.9v3.34h1.74v-3.34Zm1.74,8.89v-3.57h-1.74v3.57Zm8.95-8.06v1.81h3.76v2h-1.38v1.49h1.82v2h-1.82v4.14c0,1.09-.21,1.66-1,2a8.47,8.47,0,0,1-3.18.38,7.82,7.82,0,0,0-.7-2.13c.91,0,2,0,2.24,0s.4-.08.4-.34v-4.09h-6.65v-2h6.65v-1.49h-6.06v-2h3.67v-1.81h-4.28v-2h4.28v-2h2.22v2h4.27v2Zm-3.86,7.47a23.35,23.35,0,0,1,2.28,3l-2,1.16a27.08,27.08,0,0,0-2.19-3.2Z"/><path d="M849.82,3178.33v10.16h-2.24v-17h7.28v6.86Zm0-5.23v1h2.93v-1Zm2.93,3.61v-1.08h-2.93v1.08Zm10.86,9.1c0,1.22-.24,1.88-1,2.24a8.22,8.22,0,0,1-3.48.44,9.19,9.19,0,0,0-.49-1.77h-4.72v1h-2v-8.22h7.32v6.74c.74,0,1.44,0,1.69,0s.45-.11.45-.42v-7.42h-5.16v-6.9h7.44Zm-9.69-4.67v1.14h3.14v-1.14Zm3.14,3.93v-1.18h-3.14v1.18Zm1.25-12v1h3v-1Zm3,3.65v-1.12h-3v1.12Z"/><path d="M858.64,3203.83a10.79,10.79,0,0,0,.22,1.5c-2.58.7-3.64,1-4.18,1.23.71.06,1.51.08,2.32.08a62.57,62.57,0,0,0,7.68-.5,8.78,8.78,0,0,0-.65,2.32c-1.58.1-4.92.23-7.14.23-2.51,0-4.12-.21-5.49-1-.78-.43-1.46-1.06-1.86-1.06s-1.11,1.29-1.58,2.37l-1.5-2.14a7.79,7.79,0,0,1,2-1.85,21.58,21.58,0,0,0,1-3.26h-2.34c.46-1.14,1-2.65,1.43-4.13h-1.75v-2h4.5c-.4,1.35-.89,2.87-1.35,4.18h.69l.34-.08,1,.34a27.51,27.51,0,0,1-.74,3,18.89,18.89,0,0,0,4.54-1.34h-2.83v-3.5h9.76v3.5h-.4l1.07.68a18.81,18.81,0,0,1-1.69,1.1c.79.48,1.54.93,2,1.27l-1.1,1.39c-1.05-.84-3.21-2.18-4.75-3.13l1-1.18,1.37.82c.46-.31.93-.65,1.31-1h-3.09a11.28,11.28,0,0,1-2.28,1.51v1.2Zm-9.81-8.78c-.21-.86-.72-2.22-1-3.25l2-.61c.36,1,.86,2.3,1.12,3.14Zm5.46,9a17.46,17.46,0,0,1-2,.57,8.6,8.6,0,0,0-1.12-1.48,15,15,0,0,1-.67,1.82c.33.21.69.48,1.16.76a6.72,6.72,0,0,0,2.45.76,4.1,4.1,0,0,0-.55-1.17,1,1,0,0,0,.69-1.11Zm9.86-6.42H851.42v-1.56h12.73Zm-.88-2.15h-10.9v-3.81h10.9Zm-7.84-2.56h-1.16v1.31h1.16Zm-.42,7.54h5.43v-1H855Zm3.34-7.54h-1.21v1.31h1.21Zm2.91,0H860v1.31h1.22Z"/><path d="M850.16,3220.53a15.41,15.41,0,0,0-3.51-2.07l1.18-1.7a15.33,15.33,0,0,1,3.59,1.91Zm2.25,2.58c-1,2-2.09,4.16-3.2,6l-1.93-1.48a60.82,60.82,0,0,0,3.43-6Zm-1.18-7.64a14.08,14.08,0,0,0-3.48-2.12l1.24-1.68a14.5,14.5,0,0,1,3.57,2Zm12.23,5.46a11.24,11.24,0,0,1-3.09,4.94,16.45,16.45,0,0,0,4.25,1.4,9,9,0,0,0-1.48,2,15,15,0,0,1-4.75-2,18.19,18.19,0,0,1-5.55,2,7.45,7.45,0,0,0-1.12-2,16.69,16.69,0,0,0,4.79-1.46,13.1,13.1,0,0,1-2.28-2.93l1.46-.49h-2.56v-2h8.43l.4-.07Zm-6.76-5.65a11.44,11.44,0,0,1-2.93,5,13.45,13.45,0,0,0-1.95-1.43c1.93-1.52,2.92-4.14,3.3-7.27l2.34.26c-.08.48-.15.93-.25,1.39h6.19s0,.53,0,.84c-.19,3.06-.44,4.42-1,5a2.17,2.17,0,0,1-1.52.69c-.55.05-1.47.05-2.47,0a4.8,4.8,0,0,0-.67-2.09,19.6,19.6,0,0,0,2.09.12.94.94,0,0,0,.67-.19c.23-.23.4-.91.51-2.36Zm-.34,7.13a9.39,9.39,0,0,0,2,2.22,8.29,8.29,0,0,0,2-2.22Z"/><path d="M853.79,3236.43a11.74,11.74,0,0,1-.76,1.5h8.84v9.39c0,1.12-.21,1.72-1,2.07a8.39,8.39,0,0,1-3.36.38,9.42,9.42,0,0,0-.69-2.19c1,.06,2.07.06,2.39.06s.44-.11.44-.38v-1.14h-7.14a6.62,6.62,0,0,1-2.11,3.78,7.88,7.88,0,0,0-1.63-1.73c1.63-1.42,1.76-3.46,1.76-5.22v-1.54a15.48,15.48,0,0,1-2.35,2.07,13.83,13.83,0,0,0-1.48-1.75,14.52,14.52,0,0,0,4.56-5.3h-4.13v-2.13h5.09a19.94,19.94,0,0,0,.76-2.3l2.34.54c-.19.58-.4,1.17-.61,1.76H864v2.13Zm5.87,7.81V3243h-6.82c0,.4,0,.8,0,1.24Zm0-4.31h-6.82v1.19h6.82Z"/><path d="M853.3,3266.41c1.19-.21,2.43-.42,3.63-.61l.11,1.94c-3.32.65-6.92,1.29-9.5,1.75l-.49-2.09c1.14-.15,2.56-.38,4.1-.63v-2.58h-3.46v-2h3.46v-1.69h2.15v1.69h3.42v2H853.3Zm-6.06-12.84h9.88v1.94h-2.68a21.17,21.17,0,0,1,2.64,4l-1.71,1.12c-.12-.28-.27-.6-.44-1-5.24.44-6.06.54-6.61.76-.13-.45-.49-1.46-.72-2.05a1.82,1.82,0,0,0,.87-.8,14.68,14.68,0,0,0,1.18-2.12h-2.41Zm6.65,4.43c-.36-.56-.74-1.09-1.1-1.56l1.59-.93H852.1a22.13,22.13,0,0,1-1.65,2.68Zm6.06,7.69h-2.09v-11.48H860Zm3.74-13v14.7c0,1.2-.23,1.77-1,2.13a8.33,8.33,0,0,1-3.29.42,8.8,8.8,0,0,0-.76-2.17c1,0,2,0,2.36,0s.44-.11.44-.44v-14.68Z"/><path d="M853.46,3291.49c1.46-.55,2.28-1.5,2.28-2.6h-.17a1.64,1.64,0,0,1-1.75-1.65,1.69,1.69,0,0,1,1.81-1.66c1.29,0,2,1,2,2.76a4.79,4.79,0,0,1-3.59,4.67Z"/><path d="M855.69,3305.72s0,.86,0,1.14c0,9.82,0,13.22-.59,14.18a2,2,0,0,1-1.42,1.1,9.44,9.44,0,0,1-2.28.11,6.34,6.34,0,0,0-.68-2.41c.7.06,1.33.06,1.69.06a.62.62,0,0,0,.58-.4,9.87,9.87,0,0,0,.35-3.23H851a14.08,14.08,0,0,1-2.6,6.25,11.53,11.53,0,0,0-1.84-1.67,10.07,10.07,0,0,0,2.16-4.58h-1.77v-2h2.13c.1-.72.15-1.44.21-2.22h-2.11v-2h2.21c0-.74,0-1.5,0-2.27h-2.47v-2.06Zm-2.34,8.55c0-.66,0-1.38,0-2.22h-1.88c0,.78-.13,1.5-.21,2.22Zm-1.7-6.49c0,.77,0,1.53-.06,2.27h1.8l0-2.27Zm12.8-1.16c-.74,1.78-1.63,3.91-2.47,5.58a5.77,5.77,0,0,1,2.15,4.39,3.07,3.07,0,0,1-1.12,2.77,3.47,3.47,0,0,1-1.39.48,13.17,13.17,0,0,1-1.81,0,5.23,5.23,0,0,0-.62-2.13,8.5,8.5,0,0,0,1.38,0,2.26,2.26,0,0,0,.88-.17c.4-.21.53-.63.53-1.26,0-1.06-.51-2.39-2.22-3.87.62-1.37,1.31-3.25,1.82-4.7H859v14.71h-2.15v-16.83h5.64l.32-.08Z"/><path d="M852.35,3337c-.23-.55-.63-1.41-1.05-2.22v8.18h-2v-7.1a15.74,15.74,0,0,1-1.73,3.74,10.84,10.84,0,0,0-1-2,19.09,19.09,0,0,0,2.54-6.37H847v-2.09h2.28v-3.91h2v3.91h1.9v2.09h-1.9v.84c.52.7,1.88,2.79,2.21,3.3Zm5.17.78a7.85,7.85,0,0,1-3.94,4.9,8.23,8.23,0,0,0-1.16-1.44,6.05,6.05,0,0,0,2.64-2.38H853v-1.52h3l.32-.06Zm6.78-.91c-.93.68-1.94,1.38-2.8,1.91a8.57,8.57,0,0,0,3.16,2.06,8.44,8.44,0,0,0-1.33,1.65,9.43,9.43,0,0,1-3.5-3v1.48c0,1-.17,1.44-.81,1.75a6.41,6.41,0,0,1-2.63.32,5.8,5.8,0,0,0-.57-1.84c.67,0,1.39,0,1.6,0s.3-.06.3-.27v-4.2h-3.11v-1.53h4.56a24.94,24.94,0,0,0-2.68-1l.55-.61h-3.88v-1.65h4.53v-.74h-3.31v-1.54h3.31v-.71h-4v-1.59h2a11.6,11.6,0,0,0-.85-1.5l1.65-.61a11.16,11.16,0,0,1,1.16,1.9l-.5.21h3.06l-.38-.14a17.29,17.29,0,0,0,1-2l2,.57c-.41.57-.79,1.08-1.14,1.54H864v1.59h-4.18v.71h3.73v1.54h-3.73v.74h4.5v1.65h-4.73a14.82,14.82,0,0,1,2.38,1l-1.2,1.34a10.8,10.8,0,0,0-1-.49v.95a7,7,0,0,0,.69,1.18,19.63,19.63,0,0,0,2.12-2Z"/><path d="M858.18,3351.76a49.58,49.58,0,0,1,6.33,5.15l-1.92,1.73a44,44,0,0,0-5.82-5.15v9.84H854.3v-9.27a22.63,22.63,0,0,1-6,4.67,13.46,13.46,0,0,0-1.55-2.05,19.86,19.86,0,0,0,8.18-7.47h-7.58v-2.31h16.47v2.31h-5.9a20.51,20.51,0,0,1-1.11,1.75v2Z"/><path d="M857.42,3379.1a62.51,62.51,0,0,1,6.86,2.79l-1.07,1.94a63.72,63.72,0,0,0-7.59-3.31l.85-1.42h-.68c-.92,2.34-2.95,3.84-8,4.67a5.8,5.8,0,0,0-1.12-2c3.82-.51,5.6-1.37,6.5-2.64h-5.67v-1.92h6.41c.05-.3.11-.64.15-1h-7v-2h7.29v-1h-5.62v-1.9h5.62v-1h-6.7v-2h3.61a11,11,0,0,0-1.07-1.67l2-.8a8.27,8.27,0,0,1,1.42,2.22l-.55.25h4.18a18.83,18.83,0,0,0,1.35-2.47l2.43.62c-.42.67-.86,1.3-1.27,1.85h3.64v2h-6.72v1h5.81v1.9h-5.81v1h7.56v2h-7.81c0,.35-.09.67-.15,1h7.41v1.92Z"/><path d="M853.46,3405.09c1.46-.55,2.28-1.5,2.28-2.6h-.17a1.64,1.64,0,0,1-1.75-1.65,1.69,1.69,0,0,1,1.81-1.66c1.29,0,2,1,2,2.76a4.79,4.79,0,0,1-3.59,4.67Z"/><path d="M857.42,3431.43a58.78,58.78,0,0,1,6.86,2.79l-1.07,1.94a62.13,62.13,0,0,0-7.59-3.31l.85-1.42h-.68c-.92,2.33-2.95,3.83-8,4.67a5.63,5.63,0,0,0-1.12-2c3.82-.52,5.6-1.37,6.5-2.64h-5.67v-1.92h6.41c.05-.31.11-.65.15-1h-7v-2h7.29v-1h-5.62v-1.89h5.62v-1h-6.7v-2h3.61a11,11,0,0,0-1.07-1.67l2-.8a8.46,8.46,0,0,1,1.42,2.23l-.55.24h4.18a18.83,18.83,0,0,0,1.35-2.47l2.43.63c-.42.66-.86,1.29-1.27,1.84h3.64v2h-6.72v1h5.81v1.89h-5.81v1h7.56v2h-7.81c0,.34-.09.66-.15,1h7.41v1.92Z"/><path d="M856.89,3454.09c.49,0,1,.06,1.52.06,1.06,0,4.71,0,6.06-.06a7.33,7.33,0,0,0-.76,2.17h-5.42c-3.47,0-5.83-.5-7.42-2.7a8.66,8.66,0,0,1-2.66,3,9.63,9.63,0,0,0-1.71-1.58,8,8,0,0,0,3.53-5.75l2.26.34c-.13.61-.28,1.18-.44,1.73a4.18,4.18,0,0,0,2.74,2.37v-4.82h-7.41v-2h16.76v2h-7.05v1.42h5.85v2h-5.85Zm5.24-8.05h-13.2v-6.59h13.2Zm-2.3-5h-8.7v1h8.7Zm0,2.45h-8.7v1h8.7Z"/><path d="M852.59,3467.28c.76.76,2.47,2.75,2.89,3.27l-1.29,1.88c-.36-.65-1-1.6-1.6-2.49v7h-2.27v-6.76a17.1,17.1,0,0,1-2.66,4.54,9.91,9.91,0,0,0-1.14-2.13,17,17,0,0,0,3.24-5.64h-2.83v-2.09h3.39v-2.47c-.94.15-1.85.28-2.72.4A7.74,7.74,0,0,0,847,3461a34.13,34.13,0,0,0,7-1.63l1.47,1.76a23.57,23.57,0,0,1-2.84.8v2.91h2.76V3467h-2.76Zm10.85-6.27v14.91h-2.33v-1.36h-3v1.5h-2.23v-15Zm-2.33,11.38v-9.21h-3v9.21Z"/><path d="M853.22,3493.73h-3.85v1.67h-2.09v-14.59h5.94Zm-3.85-10.91v3.35h1.74v-3.35Zm1.74,8.89v-3.57h-1.74v3.57Zm8.95-8.05v1.8h3.76v2h-1.38v1.48h1.82v2h-1.82V3495c0,1.08-.21,1.65-1,2a8.27,8.27,0,0,1-3.18.38,7.76,7.76,0,0,0-.7-2.12c.91,0,2,0,2.24,0s.4-.07.4-.34v-4.08h-6.65v-2h6.65v-1.48h-6.06v-2h3.67v-1.8h-4.28v-2h4.28v-2h2.22v2h4.27v2Zm-3.86,7.46a24.78,24.78,0,0,1,2.28,3l-2,1.16a27.88,27.88,0,0,0-2.19-3.19Z"/><path d="M849.82,3507.65v10.17h-2.24v-17h7.28v6.85Zm0-5.22v1h2.93v-1Zm2.93,3.61V3505h-2.93V3506Zm10.86,9.1c0,1.22-.24,1.88-1,2.24a8.22,8.22,0,0,1-3.48.44,9,9,0,0,0-.49-1.77h-4.72v1h-2v-8.23h7.32v6.75c.74,0,1.44,0,1.69,0s.45-.12.45-.42v-7.43h-5.16v-6.89h7.44Zm-9.69-4.67v1.14h3.14v-1.14Zm3.14,3.93v-1.18h-3.14v1.18Zm1.25-12v1h3v-1Zm3,3.65V3505h-3v1.12Z"/><path d="M853.79,3524.91a12.43,12.43,0,0,1-.76,1.5h8.84v9.38c0,1.12-.21,1.73-1,2.07a8.39,8.39,0,0,1-3.36.38,9.5,9.5,0,0,0-.69-2.18c1,.06,2.07.06,2.39.06s.44-.12.44-.38v-1.15h-7.14a6.61,6.61,0,0,1-2.11,3.79,7.67,7.67,0,0,0-1.63-1.73c1.63-1.43,1.76-3.46,1.76-5.23v-1.54a15,15,0,0,1-2.35,2.07,13.07,13.07,0,0,0-1.48-1.74,14.6,14.6,0,0,0,4.56-5.3h-4.13v-2.13h5.09a19.94,19.94,0,0,0,.76-2.3l2.34.53c-.19.59-.4,1.18-.61,1.77H864v2.13Zm5.87,7.8v-1.23h-6.82c0,.4,0,.8,0,1.23Zm0-4.31h-6.82v1.2h6.82Z"/><path d="M854.72,3550.65a17.37,17.37,0,0,1,.8,2.09l-.76.27h.29v1.82c0,1.5-.38,2.91-2.78,3.74a4.79,4.79,0,0,0-1-1.25,3.09,3.09,0,0,0,1.85-1.12H851v-2.87h1.37v1.61h1.14V3553h.83c0-.14-.07-.31-.11-.48a15.66,15.66,0,0,0-3.36.55v0a13,13,0,0,0-.38-1.25,2.56,2.56,0,0,0,1-.51,8.74,8.74,0,0,0,.82-.71,4.8,4.8,0,0,0-1.35.23v0a9.12,9.12,0,0,0-.45-1.29,1.08,1.08,0,0,0,.62-.34,5.28,5.28,0,0,0,1.12-1.35h-2.5v10.85h-2.17v-17h7.33v6.17H853l.71.38a11,11,0,0,1-1.31,1.41l1,0c.25-.29.48-.59.71-.88l1.1.76a18.49,18.49,0,0,1-2.47,2.21l1.18-.12a5.33,5.33,0,0,0-.23-.6Zm-5-7.48v.89h3v-.89Zm0,3.13h3v-.87h-3Zm13.88,9.76c0,1.09-.15,1.71-.79,2.09a5.61,5.61,0,0,1-2.8.42,8,8,0,0,0-.47-1.84h-.91v-.53H857.5v2.22h-1.58V3553h0c-.1-.31-.27-.86-.4-1.18a2,2,0,0,0,1-.51c.15-.12.43-.37.79-.71a4.5,4.5,0,0,0-1.35.23,7.66,7.66,0,0,0-.45-1.29,1.45,1.45,0,0,0,.63-.34,7.18,7.18,0,0,0,1.12-1.39h-1.16v-6.17h7.46Zm-3.53.33a8.48,8.48,0,0,0,1,0c.24,0,.32-.1.32-.34v-8.23H858l.74.4a10.53,10.53,0,0,1-1.27,1.39l.93,0c.28-.31.55-.61.78-.91l1.08.77a22.8,22.8,0,0,1-2.45,2.27l1.16-.12c-.1-.21-.17-.42-.27-.61l1.07-.34a19.93,19.93,0,0,1,.89,2.09l-1.12.44c-.06-.17-.13-.4-.19-.63a29,29,0,0,0-3.1.48h1.26v1.93h1.14v-1.61h1.44Zm-1.79-13.22v.89h3.14v-.89Zm0,3.13h3.14v-.87h-3.14Z"/><path d="M863.94,3564.28s0,.76,0,1c-.25,8.49-.46,11.51-1.24,12.52a2.56,2.56,0,0,1-1.82,1,21.89,21.89,0,0,1-3,0,5.52,5.52,0,0,0-.74-2.2c1.21.11,2.33.11,2.83.11a1,1,0,0,0,.83-.32c.55-.61.8-3.46,1-10.16h-4.07a16.17,16.17,0,0,1-1.67,3,14.33,14.33,0,0,0-1.46-1.07v8.88h-5.07v1.38h-2.06v-14.11h2.15a19.37,19.37,0,0,0,.55-3.06l2.47.34c-.32.95-.66,1.9-1,2.72h3v3.08a19.75,19.75,0,0,0,2.56-6.12l2.15.49a23.24,23.24,0,0,1-.74,2.42Zm-11.38,2.1h-3v3.08h3Zm0,8.76v-3.72h-3v3.72Zm6.3-1a39.82,39.82,0,0,0-2.64-4.39l1.77-1a46.13,46.13,0,0,1,2.79,4.22Z"/></svg>