<svg id="圖層_1" data-name="圖層 1" xmlns="http://www.w3.org/2000/svg" viewBox="0 0 1620 3156.23"><defs><style>.cls-1{fill:#f9c90d;}</style></defs><rect class="cls-1" width="1620" height="3156.23"/><path d="M847.94,75.37a19.15,19.15,0,0,1-3.15,4.16c.51,1.46,1.1,2.34,1.67,2.34.4,0,.62-.92.72-3.16A5.48,5.48,0,0,0,849,80c-.36,3.33-1.06,4.17-2.79,4.17-1.39,0-2.45-1.14-3.27-3a19.56,19.56,0,0,1-3.51,2.32,10.18,10.18,0,0,0-1.5-1.82A19.67,19.67,0,0,0,842.2,79a35.2,35.2,0,0,1-1-5.09h-3.85v2.16l2.92-.53.17,2-3.09.63v3.25c0,1.23-.27,1.84-1,2.2a8.15,8.15,0,0,1-3.42.44,8.63,8.63,0,0,0-.8-2.28c1.07.06,2.17,0,2.51,0s.46-.1.46-.4V78.67c-1.22.25-2.4.5-3.4.69l-.55-2.28c1.08-.17,2.45-.38,4-.65V73.89h-3.59V71.74h3.59V69.58c-1,.17-2.07.3-3,.41a8.89,8.89,0,0,0-.65-1.9A48.74,48.74,0,0,0,839,66.5l1.52,1.92c-1,.28-2,.53-3.09.76v2.56H841c-.15-1.71-.2-3.48-.22-5.2h2.37a46.75,46.75,0,0,0,.19,5.2h5.17v2.15h-4.94c.15,1.14.34,2.24.55,3.21a15.6,15.6,0,0,0,1.8-2.59Zm-1.39-4.18a15.11,15.11,0,0,0-2.69-3.13l1.7-1.16a16,16,0,0,1,2.82,3Z"/><path d="M841.35,102.08c.49,0,1,.06,1.52.06,1.06,0,4.71,0,6.06-.06a7.33,7.33,0,0,0-.76,2.17h-5.42c-3.47,0-5.83-.5-7.42-2.7a8.66,8.66,0,0,1-2.66,3A9.63,9.63,0,0,0,831,103a8,8,0,0,0,3.53-5.75l2.26.34c-.13.61-.29,1.18-.44,1.73a4.18,4.18,0,0,0,2.74,2.37V96.86h-7.41v-2H848.4v2h-7v1.42h5.85v2h-5.85Zm5.24-8h-13.2V87.44h13.2Zm-2.3-5h-8.7v1h8.7Zm0,2.45h-8.7v1h8.7Z"/><path d="M837.26,108a34,34,0,0,1-1.88,4v12.92h-2.16v-9.57c-.4.51-.8,1-1.18,1.38a14,14,0,0,0-1.24-2.35,19.6,19.6,0,0,0,4.34-7.11Zm8.23,14.79c1.12,0,1.33-.47,1.46-2.6a7.32,7.32,0,0,0,2,.84c-.29,2.83-1,3.78-3.29,3.78h-4.31c-2.64,0-3.4-.69-3.4-3.33v-5.32l-1.45.57-.85-2,2.3-.89v-4.49h2.12V113l1.9-.74v-4.92h2v4.12l2.54-1,.19-.14,1.69.52-.07.36a71.77,71.77,0,0,1-.76,8.64l-1.86-.53c.2-1.6.34-4.11.41-6.42l-2.14.87v6.73h-2v-5.95l-1.9.78v6.15c0,1.12.19,1.31,1.45,1.31Z"/><path d="M848.05,137.75a11.54,11.54,0,0,1-2.33,4.38,10.47,10.47,0,0,0,3.24,1.33,7.52,7.52,0,0,0-1.32,1.75,10.3,10.3,0,0,1-3.42-1.67,12.37,12.37,0,0,1-3.33,1.82,8.56,8.56,0,0,0-1.12-1.67v1.69h-2.11v-1.63c-2.2.25-4.41.46-6.12.65l-.17-1.94,1.66-.14v-5.75h-1.49v-1.79h16.87v1.79h-8.64v7a9.79,9.79,0,0,0,2.87-1.44,11.64,11.64,0,0,1-1.82-2.91l.68-.19h-1.14v-1.73h5.93l.36-.08Zm-12.12-3.56h-2.16v-5.94h12.48v5.94H844v-4.38h-8Zm-.89,2.38v.78h2.62v-.78Zm0,3.1h2.62v-.76H835Zm0,2.46c.84-.07,1.75-.15,2.62-.24v-.67H835Zm8.23-10.33h-6.75v-1.31h6.75Zm-6.73,2v-1.31h6.73v1.31Zm6.25,5.19a7.22,7.22,0,0,0,1.29,1.78,7,7,0,0,0,1.24-1.78Z"/><path d="M831.09,163.45a25.91,25.91,0,0,0,1.88-4.73l2,.82a48.33,48.33,0,0,1-1.73,4.84Zm7.79-6.63h-6v-6.63h6v-2.11h2.26v2.11h6.13v6.63h-6.13v1.43h-.42a27.75,27.75,0,0,1,2,2.14L841,161.78A28.63,28.63,0,0,0,838.5,159l1.14-.79h-.76Zm0-2v-2.62h-3.82v2.62Zm3.08,8.41c.83,0,1-.3,1.08-2.31a6.36,6.36,0,0,0,2.13.89c-.29,2.83-.93,3.55-3,3.55h-3.22c-2.56,0-3.21-.68-3.21-2.79v-3.72h2.38v3.68c0,.63.15.7,1.12.7Zm-.82-11v2.62H845v-2.62Zm4.84,6.34c.93,1.35,2.26,3.21,2.89,4.37l-2.11,1.18a41.74,41.74,0,0,0-2.73-4.56Z"/><path d="M848.7,173.83v1.61h-3.44l-.15,1.48H834.19l.19-1.48h-3v-1.61h3.21l.19-1.45h10.76l-.14,1.45Zm-5.05,9.8c1.67.46,3.34,1,4.46,1.31l-1.54,1.39c-1.37-.51-3.59-1.27-5.77-1.84l.78-.86H838.1l1.14.84a24.07,24.07,0,0,1-6.46,1.88,11.08,11.08,0,0,0-1.2-1.54,25.8,25.8,0,0,0,5-1.18h-2.72v-6.15h12.39v6.15ZM834,173.33h-2V170h6.94a8.61,8.61,0,0,0-.55-1.14l2-.55a9.71,9.71,0,0,1,.88,1.69h6.93v3.3H846v-1.55H834Zm2.09,5.84H844v-.55h-7.9Zm0,1.67H844v-.59h-7.9Zm0,1.67H844v-.61h-7.9Zm.3-6.71h2.51l.07-.6h-2.5Zm.29-2.28-.08.56h2.49l.06-.56Zm6.51,2.28.06-.6h-2.43l-.08.6Zm.19-2.28H841l0,.56h2.39Z"/><path d="M848.4,191.84s0,.76,0,1c-.25,8.49-.46,11.51-1.24,12.51a2.5,2.5,0,0,1-1.82,1.05,21.8,21.8,0,0,1-3,0,5.22,5.22,0,0,0-.74-2.21c1.22.12,2.34.12,2.83.12a1,1,0,0,0,.84-.32c.55-.61.8-3.46,1-10.17H842.2a15.86,15.86,0,0,1-1.67,3,14.41,14.41,0,0,0-1.46-1.06v8.87H834v1.39h-2.06V192h2.15a19.17,19.17,0,0,0,.55-3.06l2.47.35c-.32,1-.66,1.9-1,2.71h3v3.08a19.55,19.55,0,0,0,2.56-6.12l2.15.5a23.83,23.83,0,0,1-.74,2.41ZM837,194h-3V197h3Zm0,8.76V199h-3v3.73Zm6.3-1a40.77,40.77,0,0,0-2.64-4.39l1.77-1a46.08,46.08,0,0,1,2.79,4.21Z"/><path d="M838.57,209.76a23,23,0,0,1,1.2,2.37l-1.69.76a18.31,18.31,0,0,0-1.06-2.37,26,26,0,0,1-1.49,3.34V227h-2.14v-9.65c-.4.54-.8,1.05-1.18,1.49a14.11,14.11,0,0,0-1.24-2.36,20,20,0,0,0,4.09-7.1l2.13.64-.1.27Zm4.13,13.43c-.76,1.44-2.38,2.85-5.44,3.91a8.78,8.78,0,0,0-1.36-1.56,8.94,8.94,0,0,0,4.36-2.35h-3.89v-1.75h4.79a4.46,4.46,0,0,0,.09-.8h-3.93V219h3.95v-.78h-4.43v-1.69h2.53c-.15-.49-.34-1-.53-1.52l1.22-.32h-3.37v-1.79H840v-3.55h1.86v3.55h1.16v-3.55h1.88v3.55h3.47v1.79H845.3l1.23.32c-.28.53-.53,1.06-.78,1.52h2.36v1.69H843.4V219h4.18v1.65H843.4c0,.27-.06.53-.1.8h5.36v1.75Zm-2.07-8.51a10.87,10.87,0,0,1,.7,1.84h2.51c.22-.55.49-1.25.66-1.84Zm3.23,8.53a35.72,35.72,0,0,1,5.07,2.54l-1.52,1.43a31.51,31.51,0,0,0-5-2.7Zm4.31-12.86c-.52.91-1,1.8-1.43,2.41l-1.44-.61a18,18,0,0,0,1.06-2.47Z"/><path d="M841.12,229.78c0,.8-.06,1.83-.13,3,.26,2.56,1.42,9.72,8,12.65a6,6,0,0,0-1.65,2,14.71,14.71,0,0,1-7.43-9,15.48,15.48,0,0,1-7,9.1,7.18,7.18,0,0,0-1.88-1.84c7.71-4.13,7.35-12.64,7.43-15.85Z"/><path d="M777.07,78.1c-.05-.24-.11-.56-.21-.89-3.93.65-4.61.82-5.05,1a20.18,20.18,0,0,0-.7-2,3.54,3.54,0,0,0,1.52-1.19c.23-.27.7-.84,1.25-1.62a7.67,7.67,0,0,0-2.22.42,17.86,17.86,0,0,0-.69-1.94c.4-.09.73-.46,1.13-1a23.45,23.45,0,0,0,2.37-4.69l2,.86a29,29,0,0,1-2.69,4.58l1.35-.1c.43-.74.87-1.54,1.25-2.3l1.84,1.16a31.38,31.38,0,0,1-3.82,5.34l1.94-.27c-.15-.47-.32-.93-.49-1.35l1.65-.6a26.89,26.89,0,0,1,1.33,3.85Zm-3.34,1.05a18.86,18.86,0,0,1-.85,4.67,9,9,0,0,0-1.81-.64,16.51,16.51,0,0,0,.78-4.33Zm2.18-.4a37.1,37.1,0,0,1,.55,4.29l-1.84.38a43.12,43.12,0,0,0-.45-4.33Zm2.06-.66a28.6,28.6,0,0,1,1,3.61l-1.73.6a27.84,27.84,0,0,0-.95-3.68Zm8.22,3.72a3.83,3.83,0,0,0,.53,0,.5.5,0,0,0,.31-.38,9.69,9.69,0,0,0,.13-1.44,5.5,5.5,0,0,0,1.84.93,5.34,5.34,0,0,1-.34,1.9,1.4,1.4,0,0,1-.91.76,5.33,5.33,0,0,1-1.37.19h-1.63a2.67,2.67,0,0,1-1.6-.46c-.45-.36-.68-.74-.68-2.43V79.05h-3.42V72h2V77h1.46V70.71h-3.82V68.62h3.82V66.38h2.07v2.24h4.27v2.09h-4.27V77H786V72h2v7.69h-2v-.67h-1.5V80.9c0,.42,0,.72.17.81a1.25,1.25,0,0,0,.53.1Z"/><path d="M784.6,97.69H789V99.8H784.6v4.73h-2.27V99.8h-4.06v-.28l-1.39,1.4a28.61,28.61,0,0,0-1.12-3.17v6.76h-2V97.16a17.24,17.24,0,0,1-1.9,5.47,16.12,16.12,0,0,0-.9-2.24A14.38,14.38,0,0,0,772.55,96l1.26.48V95.19h-2.47V93.08h2.47V86.79h2v5a31,31,0,0,0,1-3.91l1.82.47c-.47,1.39-1,3-1.4,4L775.76,92v1.1H778v2.11h-2.26v1.33l.76-.52c.31.48,1.37,2.55,1.75,3.29v-1.6h4.06v-1h1.32a8.49,8.49,0,0,0-.95-1,8.44,8.44,0,0,0,2.6-4.64l2,.38a14.81,14.81,0,0,1-.72,2.13A22.26,22.26,0,0,1,789,95.83l-1.25,1.54a17,17,0,0,0-2.05-2.13,7.07,7.07,0,0,1-1.08,1.47ZM772,92.38a31.94,31.94,0,0,0-.78-4.11l1.56-.36a34.12,34.12,0,0,1,.87,4Zm10.31-1a18.19,18.19,0,0,1-.49,1.79,13.49,13.49,0,0,1,1.54,1.35l-1.14,1.54a12.39,12.39,0,0,0-1.1-1.14,9.07,9.07,0,0,1-1.81,2.58,7.92,7.92,0,0,0-1.59-1.29,9.34,9.34,0,0,0,2.6-5.19Zm6-.47h-9.52V88.88h3.72c-.13-.55-.32-1.2-.49-1.71l2.13-.38c.24.65.57,1.52.72,2.09h3.44Z"/><path d="M788.4,110.14s0,.76,0,1c-.25,8.49-.46,11.51-1.24,12.52a2.52,2.52,0,0,1-1.82,1,20.3,20.3,0,0,1-3,0,5.22,5.22,0,0,0-.74-2.21c1.22.12,2.34.12,2.83.12a1,1,0,0,0,.84-.32c.55-.61.8-3.46,1-10.17H782.2a15.86,15.86,0,0,1-1.67,3,14.41,14.41,0,0,0-1.46-1.06V123H774v1.39h-2.06V110.27h2.15a19.17,19.17,0,0,0,.55-3.06l2.47.35c-.32,1-.66,1.9-1,2.71h3v3.08a19.65,19.65,0,0,0,2.56-6.12l2.15.5a23.83,23.83,0,0,1-.74,2.41ZM777,112.25h-3v3.08h3Zm0,8.76v-3.73h-3V121Zm6.3-1a40.77,40.77,0,0,0-2.64-4.39l1.77-1a46.08,46.08,0,0,1,2.79,4.21Z"/><path d="M787,130.09v15.25h-2.41v-.93h-9v1h-2.3V130.09h4.87a20.42,20.42,0,0,0,.51-2.49l2.74.31c-.29.76-.59,1.5-.9,2.18Zm-11.44,2.17v2h9v-2Zm0,4v2h9v-2Zm9,6v-2h-9v2Z"/><path d="M781.75,155.49c1.25,3.71,3.55,6.69,7.1,8.13a9.3,9.3,0,0,0-1.67,2.13c-3.44-1.61-5.64-4.39-7.12-8.05a13.1,13.1,0,0,1-7.11,8.07,6.78,6.78,0,0,0-1.69-1.92,11.39,11.39,0,0,0,6.9-8.36h-6.54v-2.33h6.92c.19-1.79.17-3.52.19-5.08h2.47c0,1.56,0,3.31-.23,5.08h7.46v2.33Z"/><path d="M777.92,187.11c1.46-.55,2.28-1.5,2.28-2.61H780a1.64,1.64,0,0,1-1.75-1.65,1.68,1.68,0,0,1,1.8-1.65c1.3,0,2,1,2,2.75a4.79,4.79,0,0,1-3.59,4.68Z"/><path d="M777.19,201.13a30.47,30.47,0,0,1-1.81,3.9V218.1h-2.16v-9.71a19,19,0,0,1-1.28,1.54,14.64,14.64,0,0,0-1.21-2.36,20,20,0,0,0,4.31-7.1Zm6.72,4.75v9.73c0,1.08-.19,1.71-.87,2.09a6,6,0,0,1-2.79.45,8,8,0,0,0-.78-2.28c.79,0,1.59,0,1.86,0s.34-.07.34-.32v-9.69h-2.2a16.65,16.65,0,0,1-1.79,2.91,17,17,0,0,0-1.82-1.49,16.89,16.89,0,0,0,3.23-6.83l2.2.49c-.25,1-.55,1.9-.89,2.83h6.53l.36-.08,1.6.31c-.23,1.54-.55,3.3-.82,4.41l-1.92-.33c.1-.59.21-1.38.31-2.22Zm-3.15,3.42a19.27,19.27,0,0,1-2.59,6.34,13.17,13.17,0,0,0-1.93-1.21,13.69,13.69,0,0,0,2.31-5.59Zm5.85-.65a23.63,23.63,0,0,1,2.07,6.2l-2.17.74a23.66,23.66,0,0,0-1.91-6.25Z"/><path d="M782.64,227A48.76,48.76,0,0,1,789,232.1l-1.91,1.73a44,44,0,0,0-5.82-5.15v9.84h-2.47v-9.27a22.43,22.43,0,0,1-6,4.67,14,14,0,0,0-1.55-2,19.91,19.91,0,0,0,8.18-7.46h-7.58v-2.32h16.47v2.32h-5.91a18.05,18.05,0,0,1-1.1,1.74v2Z"/><path d="M776.9,250.87c0,.27-.07.53-.13.78,1,1,3,3.34,3.57,4l-1.52,1.9c-.63-1-1.71-2.41-2.64-3.57a10.21,10.21,0,0,1-3.59,5,8.19,8.19,0,0,0-1.62-1.71,8.87,8.87,0,0,0,3.65-6.35h-3.36v-2.13h3.51v-3H774a12.9,12.9,0,0,1-1.29,2.55A12.56,12.56,0,0,0,770.9,247a14.24,14.24,0,0,0,2.13-5.72l2.16.44c-.13.66-.28,1.31-.47,1.95h5v2.09h-2.68v3h3.12v2.13Zm11-8v15.28h-2.3v-1.09h-2.75v1.37h-2.19V242.87Zm-2.3,12.07V245h-2.75v9.94Z"/><path d="M776.48,270.54a24.41,24.41,0,0,1-1.48,4.94c.29.19.65.45,1.16.76,1.29.78,3.08.89,5.3.89a65.23,65.23,0,0,0,7.7-.49,8,8,0,0,0-.67,2.31c-1.56.1-4.92.23-7.14.23-2.51,0-4.13-.21-5.49-1-.8-.43-1.47-1.06-1.86-1.06s-1.11,1.29-1.58,2.37l-1.5-2.14a8.28,8.28,0,0,1,2-1.83,20.33,20.33,0,0,0,1.09-3.28h-2.4c.44-1.12.95-2.64,1.39-4.12h-1.71v-2h4.43c-.4,1.33-.84,2.85-1.3,4.18h.76l.35-.07Zm-3.21-5c-.19-.85-.7-2.24-1-3.27l2-.61c.36,1,.84,2.3,1.1,3.16Zm7.55,1.14c0-.3.13-.61.19-.93h-4.56v-1.84H779a13.16,13.16,0,0,0-.89-1.5l1.79-.71a15.51,15.51,0,0,1,1.21,1.9l-.66.31h2.85a16,16,0,0,0,1.19-2.26l2.19.6-1.14,1.66h3v1.84h-5.13c-.15.34-.31.63-.46.93h4.12v9.18h-9.19V266.7Zm4,1.6H780v1h4.84Zm0,2.46H780v1h4.84Zm0,2.47H780v1h4.84Z"/><path d="M787.94,291.09a18.92,18.92,0,0,1-3.15,4.16c.51,1.47,1.1,2.34,1.67,2.34.4,0,.62-.91.72-3.15a5.78,5.78,0,0,0,1.86,1.29c-.36,3.32-1.06,4.16-2.79,4.16-1.39,0-2.45-1.14-3.27-3a20.11,20.11,0,0,1-3.51,2.32,10.23,10.23,0,0,0-1.5-1.83,18.92,18.92,0,0,0,4.23-2.68,35.2,35.2,0,0,1-1-5.09h-3.85v2.17l2.92-.53.17,2.05-3.09.63v3.24c0,1.24-.27,1.85-1,2.21a8.18,8.18,0,0,1-3.42.43,8.57,8.57,0,0,0-.8-2.27c1.07,0,2.17,0,2.51,0s.46-.09.46-.39V294.4l-3.4.68-.55-2.28c1.08-.17,2.45-.38,4-.64v-2.55h-3.59v-2.14h3.59V285.3c-1,.17-2.07.3-3,.42a8.71,8.71,0,0,0-.65-1.9,47.53,47.53,0,0,0,7.54-1.6l1.52,1.92c-1,.29-2,.53-3.09.76v2.57H781c-.15-1.71-.2-3.48-.22-5.21h2.37a46.94,46.94,0,0,0,.19,5.21h5.17v2.14h-4.94c.15,1.14.34,2.24.55,3.21a15.52,15.52,0,0,0,1.8-2.58Zm-1.39-4.17a14.89,14.89,0,0,0-2.69-3.14l1.7-1.16a16.6,16.6,0,0,1,2.82,3Z"/><path d="M788.6,311.84c-2.67,5.78-8.91,7.77-16.14,8.46a9.1,9.1,0,0,0-.92-2.19,31.16,31.16,0,0,0,8.23-1.5,25.61,25.61,0,0,0-2-1.77,20.5,20.5,0,0,1-2.45,1.05,7.15,7.15,0,0,0-1.38-1.75,16.07,16.07,0,0,0,8-4.92l2.45.57c-.38.44-.74.86-1.16,1.27h3.4l.42-.11Zm-2.5-7c-2.45,4.37-7.85,6.73-13.32,7.75a8.26,8.26,0,0,0-1-2,26.12,26.12,0,0,0,5.61-1.45,24.5,24.5,0,0,0-1.86-1.71c-.55.31-1.12.59-1.73.86a7.2,7.2,0,0,0-1.54-1.62,16.29,16.29,0,0,0,6.59-4.23l2.43.57q-.48.51-1,1h4l.4-.09Zm-8.32,1.2-.56.38a15,15,0,0,1,2.15,1.84,12.93,12.93,0,0,0,3.14-2.22Zm3.05,7-1.1.74a18.54,18.54,0,0,1,2.23,1.88,10.22,10.22,0,0,0,3.19-2.62Z"/><path d="M788.81,324c-.38,1.08-.79,2.14-1.23,3.22a4,4,0,0,1,1.25,2.53,1.9,1.9,0,0,1-.74,1.73,2.26,2.26,0,0,1-.93.34,6.11,6.11,0,0,1-1.22,0,3.59,3.59,0,0,0-.49-1.59c.36,0,.68,0,.89,0a1,1,0,0,0,.44-.09.76.76,0,0,0,.27-.69c0-.47-.34-1.08-1.22-2,.29-.88.51-1.71.72-2.47h-1.27v7.83h-1.82v-1.16l-1.2.61c-.1-.23-.25-.5-.42-.8-3.84.83-4.44,1-4.82,1.21a4.87,4.87,0,0,0-.67-1.48,1.17,1.17,0,0,0,.74-1.2v-1.61a9.52,9.52,0,0,1-5,4.94,7.31,7.31,0,0,0-.9-1.39,8.25,8.25,0,0,0,3.57-2.6,12.09,12.09,0,0,0-2.79.46,11.91,11.91,0,0,0-.43-1.33,2.2,2.2,0,0,0,1.17-.67,12.22,12.22,0,0,0,1.18-1.06,6.53,6.53,0,0,0-1.92.32,11.72,11.72,0,0,0-.47-1.31,1.68,1.68,0,0,0,.8-.51,12.29,12.29,0,0,0,1.74-2.42l1.22.8a15.41,15.41,0,0,1-1.63,2l1.38-.08a12.77,12.77,0,0,0,.84-1l1.08.89a24.92,24.92,0,0,1-2.85,2.87l1.45-.11c.11-.27.22-.56.32-.86l1.25.25V324h1.83a6.08,6.08,0,0,0-.35-.87l1.75-.4a4.15,4.15,0,0,1,.5,1.27h2v5h-1.08a12.81,12.81,0,0,1,1.71,2.22v-7.75h3.72l.25-.07Zm-1.4,14.72c0,1-.19,1.42-.9,1.69a8,8,0,0,1-2.86.28,6.74,6.74,0,0,0-.54-1.42h-4.54v.63h-1.82v-4.35h6.52V339c.7,0,1.4,0,1.61,0s.34-.07.34-.3v-3.76H775.15v5.75H773v-7.33h5.38c.15-.36.3-.74.38-1l2.31.31c-.15.24-.28.47-.43.7h6.78Zm-6.08-1.81h-2.76v1h2.76Zm-.23-11.68h-2.17v.65h2.17Zm-2.17,2.58h2.17V327h-2.17Zm2,2.42c-.19-.23-.36-.44-.55-.65l1.18-.59h-2.59v1.62Z"/><path d="M773.48,353.45c-.47.48-1,.93-1.42,1.33a15.11,15.11,0,0,0-1.09-2.33,16.75,16.75,0,0,0,4.37-4.89l2,.8a23.82,23.82,0,0,1-1.52,2.34v10.43h-2.34Zm3.52-9.23a19,19,0,0,1-4.64,4.81,15.07,15.07,0,0,0-1.16-1.92,13.12,13.12,0,0,0,3.65-3.71Zm11.78,14.19v2.15h-12v-2.15h5v-3.87H778v-2.15h3.78V349h-4.43V346.9h4.84a13.91,13.91,0,0,0-1.33-2.91l2.09-.7a14,14,0,0,1,1.48,2.94l-1.82.67h5.68V349h-4.16v3.35h3.59v2.15h-3.59v3.87Z"/><path d="M781.61,373.08a10.74,10.74,0,0,0,7.47,6.21,8.08,8.08,0,0,0-1.56,2.11,12.14,12.14,0,0,1-7.46-6.46c-1,2.53-3.2,4.92-7.47,6.52a8.79,8.79,0,0,0-1.48-2c4.39-1.56,6.25-4,7-6.42h-6.37v-2.32h6.84c0-.51.06-1,.06-1.46v-1.92h-6.21v-2.32h15v2.32H781v2c0,.45,0,.93,0,1.42h7.23v2.32Z"/><path d="M783.72,395a9,9,0,0,1-1,3.3,18.94,18.94,0,0,0,6.49,1.6,9.15,9.15,0,0,0-1.34,2,17.46,17.46,0,0,1-6.5-2,9.91,9.91,0,0,1-3.9,2,11.89,11.89,0,0,0-1.4-1.88,8.87,8.87,0,0,0,3.46-1.46,10.61,10.61,0,0,1-2.34-2.84l1.84-.57a7.84,7.84,0,0,0,1.77,2,6.09,6.09,0,0,0,.7-2.16h-4.24v-5.55h4.37v-1.33h-4.76v-1.75c-.35.72-.73,1.46-1.14,2.19V402h-2.15V391.79a20,20,0,0,1-1.56,1.79,15,15,0,0,0-1.19-2.32,20.09,20.09,0,0,0,4.59-7.08l2.09.68c-.17.4-.34.8-.51,1.22h4.63v-1.73h2.25v1.73h5v2.05h-5v1.33h4.52V395Zm-2.13-1.83V391.3h-2.33v1.88Zm2.25-1.88v1.88h2.35V391.3Z"/><path d="M777.92,423.26c1.46-.55,2.28-1.5,2.28-2.61H780a1.64,1.64,0,0,1-1.75-1.65,1.68,1.68,0,0,1,1.8-1.65c1.3,0,2,1,2,2.75a4.79,4.79,0,0,1-3.59,4.68Z"/><path d="M787.94,445.55a19.4,19.4,0,0,1-3.15,4.16c.51,1.46,1.1,2.33,1.67,2.33.4,0,.62-.91.72-3.15a5.78,5.78,0,0,0,1.86,1.29c-.36,3.33-1.06,4.16-2.79,4.16-1.39,0-2.45-1.14-3.27-3a20.11,20.11,0,0,1-3.51,2.32,10.59,10.59,0,0,0-1.5-1.83,19.24,19.24,0,0,0,4.23-2.67,35.35,35.35,0,0,1-1-5.1h-3.85v2.17l2.92-.53.17,2.05-3.09.63v3.24c0,1.24-.27,1.85-1,2.21a8.32,8.32,0,0,1-3.42.44,8.51,8.51,0,0,0-.8-2.28c1.07.05,2.17,0,2.51,0s.46-.09.46-.39v-2.76l-3.4.69-.55-2.28c1.08-.18,2.45-.38,4-.65v-2.55h-3.59v-2.14h3.59v-2.17c-1,.17-2.07.31-3,.42a8.71,8.71,0,0,0-.65-1.9,47.53,47.53,0,0,0,7.54-1.6l1.52,1.92c-1,.29-2,.53-3.09.76v2.57H781c-.15-1.71-.2-3.48-.22-5.21h2.37a46.85,46.85,0,0,0,.19,5.21h5.17v2.14h-4.94c.15,1.14.34,2.25.55,3.21a15.52,15.52,0,0,0,1.8-2.58Zm-1.39-4.18a14.89,14.89,0,0,0-2.69-3.14l1.7-1.16a16.6,16.6,0,0,1,2.82,3Z"/><path d="M781.35,472.26c.49,0,1,.06,1.52.06,1.06,0,4.71,0,6.06-.06a7.37,7.37,0,0,0-.76,2.16h-5.42c-3.47,0-5.83-.49-7.42-2.69a8.66,8.66,0,0,1-2.66,3,9.27,9.27,0,0,0-1.71-1.58,8.06,8.06,0,0,0,3.53-5.76l2.26.35c-.13.6-.29,1.17-.44,1.73a4.18,4.18,0,0,0,2.74,2.37V467h-7.41v-2H788.4v2h-7v1.43h5.85v2h-5.85Zm5.24-8.06h-13.2v-6.59h13.2Zm-2.3-5h-8.7v1h8.7Zm0,2.45h-8.7v1h8.7Z"/><path d="M777.26,478.13a33.44,33.44,0,0,1-1.88,4.05V495.1h-2.16v-9.58c-.4.52-.8,1-1.18,1.39a14.11,14.11,0,0,0-1.24-2.36,19.55,19.55,0,0,0,4.34-7.1Zm8.23,14.8c1.12,0,1.33-.47,1.46-2.6a7,7,0,0,0,2,.83c-.29,2.83-1,3.78-3.29,3.78h-4.31c-2.64,0-3.4-.68-3.4-3.32V486.3l-1.45.57-.85-2,2.3-.9V479.5h2.12v3.63l1.9-.74v-4.92h2v4.12l2.54-1,.19-.13,1.69.51-.07.36a71.76,71.76,0,0,1-.76,8.65l-1.86-.54c.2-1.59.34-4.1.41-6.42l-2.14.88v6.72h-2v-5.94l-1.9.77v6.16c0,1.12.19,1.31,1.45,1.31Z"/><path d="M787,504.26a15.15,15.15,0,0,1-3.68,7.06,15.23,15.23,0,0,0,5.33,2.13,10.13,10.13,0,0,0-1.52,2.11,15.78,15.78,0,0,1-5.7-2.6,17.87,17.87,0,0,1-5.33,2.6,8.47,8.47,0,0,0-1.32-2.09,14.91,14.91,0,0,0,4.87-2.15,16.31,16.31,0,0,1-3.19-5.45h-.72c-.14,3.15-.71,7-2.55,9.65a9.81,9.81,0,0,0-1.92-1.33c2.09-2.87,2.22-7.1,2.22-10.11v-5.29h14.4V501H775.74v2.66H785l.43-.1Zm-8.15,1.61a12.53,12.53,0,0,0,2.6,3.93,11.41,11.41,0,0,0,2.55-3.93Z"/><path d="M781,521.45c-.18.59-.37,1.16-.52,1.71h7.22V536h-2.3v-1h-11v1h-2.18V523.16h5.85c.11-.55.23-1.14.3-1.71h-6.93v-2.13h17.09v2.13Zm-6.56,11.49h1.94v-7.69h-1.94Zm6.88-7.69h-2.91v1.31h2.91Zm0,3.08h-2.91v1.44h2.91Zm-2.91,4.61h2.91v-1.4h-2.91Zm7-7.69h-2v7.69h2Z"/><path d="M788.4,541.59s0,.76,0,1c-.25,8.49-.46,11.51-1.24,12.52a2.52,2.52,0,0,1-1.82,1,20.3,20.3,0,0,1-3,0,5.14,5.14,0,0,0-.74-2.2c1.22.11,2.34.11,2.83.11a1,1,0,0,0,.84-.32c.55-.61.8-3.46,1-10.17H782.2a15.86,15.86,0,0,1-1.67,3,14.41,14.41,0,0,0-1.46-1.06v8.87H774v1.39h-2.06V541.72h2.15a19.25,19.25,0,0,0,.55-3.05l2.47.34c-.32,1-.66,1.9-1,2.71h3v3.08a19.55,19.55,0,0,0,2.56-6.12l2.15.5a23.07,23.07,0,0,1-.74,2.41ZM777,543.7h-3v3.08h3Zm0,8.76v-3.73h-3v3.73Zm6.3-1a40.77,40.77,0,0,0-2.64-4.39l1.77-1a46.08,46.08,0,0,1,2.79,4.21Z"/><path d="M771.28,575.26a9.33,9.33,0,0,0,2.35-3.23l1.89.83a11.73,11.73,0,0,1-2.36,3.5Zm17-10.28H771.81v-1.75h4a7,7,0,0,0-.38-1l1.43-.29h-4.09v-1.75h6.16c-.1-.3-.21-.62-.33-.89l2.21-.4a8.78,8.78,0,0,1,.55,1.29h5.91v1.75h-3.9l1.52.27c-.23.38-.42.74-.61,1.06h4Zm-2,6.48h-5.81a14.47,14.47,0,0,1,2,1.25L781,574.1a13,13,0,0,0-3-1.88l.78-.76H774v-5.8h12.23Zm-4.41,3.36c.71,0,.82-.21.92-1.54a6.25,6.25,0,0,0,1.92.7c-.25,2.11-.86,2.64-2.63,2.64h-3.06c-2.39,0-3-.55-3-2.33v-2h2.21v2c0,.49.15.55,1,.55Zm2.17-7.75h-7.87v.82H784Zm0,2.15h-7.87V570H784Zm-6.42-7.32a8,8,0,0,1,.53,1.33h3.88c.19-.44.39-.93.53-1.33Zm8.6,10a14.12,14.12,0,0,1,2.32,3.36l-2,.87a14.56,14.56,0,0,0-2.19-3.44Z"/><path d="M771.24,595.06a12.9,12.9,0,0,0,2-4.41l2,.74a16.19,16.19,0,0,1-2,4.79Zm7.85-5.74h-6v-9h13.6v9h-7.18a14.87,14.87,0,0,1,3.52,2.41l-1.62,1.54a16,16,0,0,0-3.7-2.72Zm-3.82-5.45h3.57v-1.6h-3.57Zm0,3.49h3.57v-1.67h-3.57Zm6.7,7.51c.78,0,.94-.29,1-2.17a6.58,6.58,0,0,0,2,.84c-.25,2.69-.91,3.38-2.89,3.38H779c-2.51,0-3.13-.67-3.13-2.68v-3.12h2.28v3.1c0,.57.17.65,1.12.65Zm2.53-12.6H781v1.6h3.48Zm0,3.42H781v1.67h3.48Zm1.82,4.84a16.46,16.46,0,0,1,2.51,4.6l-2.2.93a16.81,16.81,0,0,0-2.32-4.69Z"/><path d="M777.92,618.56c1.46-.55,2.28-1.5,2.28-2.6H780a1.65,1.65,0,0,1-1.75-1.66,1.68,1.68,0,0,1,1.8-1.65c1.3,0,2,1,2,2.75a4.79,4.79,0,0,1-3.59,4.68Z"/><path d="M788.21,634.42V639h-2.27v-2.62H774.05V639h-2.16v-4.58h2.56a10.53,10.53,0,0,0-1.06-1.65l2.05-.83a9.2,9.2,0,0,1,1.39,2l-1,.45h3v-2.6h2.34v2.6h3l-1.06-.38a13,13,0,0,0,1.36-2.07l2.44.73c-.56.66-1.09,1.25-1.56,1.72ZM787.1,646.7c0,1-.21,1.59-1,1.93A8.34,8.34,0,0,1,783,649a7.94,7.94,0,0,0-.72-2.05c.85,0,1.86,0,2.13,0s.38-.07.38-.28v-1.84h-3.42v4.78H779v-4.78h-3.57v3.93h-2.3v-6H779v-1.14H775v-4.37h10.11v4.37h-3.7v1.14h5.73Zm-10-6.63h5.64v-1.18h-5.64Z"/><path d="M788.21,654.85v4.58h-2.27v-2.62H774.05v2.62h-2.16v-4.58h2.56a10.09,10.09,0,0,0-1.06-1.65l2.05-.84a9.44,9.44,0,0,1,1.39,2l-1,.46h3v-2.6h2.34v2.6h3l-1.06-.38a13,13,0,0,0,1.36-2.07l2.44.72c-.56.67-1.09,1.26-1.56,1.73Zm-1.11,12.27c0,1-.21,1.6-1,1.94a8.59,8.59,0,0,1-3.13.32,8.07,8.07,0,0,0-.72-2c.85,0,1.86,0,2.13,0s.38-.08.38-.29v-1.84h-3.42V670H779v-4.79h-3.57v3.93h-2.3v-5.94H779v-1.14H775v-4.37h10.11v4.37h-3.7v1.14h5.73Zm-10-6.63h5.64v-1.18h-5.64Z"/><path d="M778.25,677.1a11.74,11.74,0,0,1-.76,1.5h8.83V688c0,1.12-.2,1.73-1,2.07a8.24,8.24,0,0,1-3.37.38,9,9,0,0,0-.68-2.18c1,.06,2.07.06,2.39.06s.44-.12.44-.38v-1.14H777a6.62,6.62,0,0,1-2.11,3.78,7.67,7.67,0,0,0-1.63-1.73c1.63-1.43,1.76-3.46,1.76-5.23v-1.53a15.48,15.48,0,0,1-2.35,2.07,14,14,0,0,0-1.48-1.75,14.4,14.4,0,0,0,4.55-5.3H771.6V675h5.09a22.07,22.07,0,0,0,.76-2.3l2.34.53c-.19.59-.4,1.18-.61,1.77h9.27v2.13Zm5.87,7.81v-1.24H777.3c0,.4,0,.8,0,1.24Zm0-4.32H777.3v1.2h6.82Z"/><path d="M781.12,693.14c0,.79-.06,1.82-.13,3,.26,2.56,1.42,9.73,8,12.65a6,6,0,0,0-1.65,2,14.71,14.71,0,0,1-7.43-9,15.45,15.45,0,0,1-7,9.1,7.18,7.18,0,0,0-1.88-1.84c7.71-4.12,7.35-12.63,7.43-15.84Z"/><path d="M786.17,729.35c.61,0,.74-.19.82-1.48a6.43,6.43,0,0,0,1.86.68c-.23,2-.8,2.49-2.45,2.49h-2.79c-2.26,0-2.83-.5-2.83-2.19V728h-2.09c-.57,1.9-2.05,2.83-6.61,3.29a5.88,5.88,0,0,0-1-1.71c3.62-.21,4.8-.63,5.3-1.58h-2v-6.4h11V728H783v.83c0,.48.15.52.91.52Zm-12.46-6.92h-2V719.6h2.09l-.3-4.5,0,0a22.19,22.19,0,0,0,3.44-1.54l1.2,1a21.72,21.72,0,0,1-2.61,1.1l0,.46h2v1.18h-1.88l.06.59h1.88V719h-1.81l0,.61h2.64c-.23-.23-.53-.51-.74-.68a10.58,10.58,0,0,0,1.48-.82c-.32-.21-.64-.42-.95-.59l.86-.76a11.42,11.42,0,0,1,1,.61,5.29,5.29,0,0,0,.72-.82l.08,0a7,7,0,0,0-.82-.68,7.91,7.91,0,0,1-1.44.89,8.79,8.79,0,0,0-.93-.87,10.27,10.27,0,0,0,1.35-.73c-.29-.17-.57-.34-.84-.47l.86-.76c.3.15.6.34.93.53a4.36,4.36,0,0,0,.72-.78l1.2.35a5.74,5.74,0,0,1-.92,1.06,8.35,8.35,0,0,1,.78.65l-.83.83,1.1.29a10,10,0,0,1-1,1.17,10.26,10.26,0,0,1,.93.78l-.82.78h3.12l0-.61h-1.9v-1.17h2l0-.59h-2v-1.18h2l0-.59h-2.3v-1.31h4.35c-.06,1.77-.15,3.91-.31,5.45h2v2.83h-2.09V721h-12.5Zm2.89,1h6.59v-.63H776.6Zm0,1.71h6.59v-.63H776.6Zm0,1.77h6.59v-.67H776.6Zm4.5-7.26a8.11,8.11,0,0,0-.89-.78,12.85,12.85,0,0,1-1.14.78Z"/><path d="M777.4,739a20.32,20.32,0,0,1-1.66,2.4v10.31h-2.18v-7.88a18.28,18.28,0,0,1-1.71,1.54,16.6,16.6,0,0,0-1.08-2.34,17.07,17.07,0,0,0,4.65-4.88Zm-.33-4.12a20.1,20.1,0,0,1-5,4.77,12.87,12.87,0,0,0-1.13-1.92,13.51,13.51,0,0,0,4-3.72Zm11.55,11.91H786v2.7c0,1-.19,1.57-.93,1.9a7.56,7.56,0,0,1-2.94.32,7.91,7.91,0,0,0-.71-2c.8,0,1.69,0,1.94,0s.34-.09.34-.3v-2.64h-4a20.71,20.71,0,0,1,2.17,2.37l-1.69,1.2A16.22,16.22,0,0,0,778,747.7l1.41-.93h-2.66v-1.92h7v-1.08h-6.5v-1.84h11v1.84H786v1.08h2.58Zm-1-5.68h-9.41v-6.57h9.41Zm-2.28-5h-4.94V737h4.94Zm0,2.44h-4.94v1h4.94Z"/><path d="M787.94,763.4a19.15,19.15,0,0,1-3.15,4.16c.51,1.46,1.1,2.33,1.67,2.33.4,0,.62-.91.72-3.15A5.62,5.62,0,0,0,789,768c-.36,3.33-1.06,4.16-2.79,4.16-1.39,0-2.45-1.14-3.27-3a20.11,20.11,0,0,1-3.51,2.32,10.59,10.59,0,0,0-1.5-1.83A19.24,19.24,0,0,0,782.2,767a35.2,35.2,0,0,1-1-5.09h-3.85v2.16l2.92-.53.17,2.05-3.09.63v3.25c0,1.23-.27,1.84-1,2.2a8.32,8.32,0,0,1-3.42.44,8.51,8.51,0,0,0-.8-2.28c1.07,0,2.17,0,2.51,0s.46-.1.46-.4V766.7c-1.22.25-2.4.5-3.4.69l-.55-2.28c1.08-.17,2.45-.38,4-.65v-2.54h-3.59v-2.15h3.59V757.6c-1,.17-2.07.31-3,.42a8.71,8.71,0,0,0-.65-1.9,48.74,48.74,0,0,0,7.54-1.59l1.52,1.91c-1,.29-2,.54-3.09.76v2.57H781c-.15-1.71-.2-3.48-.22-5.21h2.37a46.85,46.85,0,0,0,.19,5.21h5.17v2.15h-4.94c.15,1.13.34,2.24.55,3.2a15.52,15.52,0,0,0,1.8-2.58Zm-1.39-4.18a15.14,15.14,0,0,0-2.69-3.14l1.7-1.16a16.6,16.6,0,0,1,2.82,3Z"/><path d="M777.68,785c-.7.19-1.4.4-2.13.59v4.58c0,1.06-.19,1.59-.78,2a5.12,5.12,0,0,1-2.58.42,7.66,7.66,0,0,0-.63-2.07,12.33,12.33,0,0,0,1.45,0c.23,0,.32-.08.32-.3v-4l-1.8.47-.56-2.16c.69-.13,1.49-.33,2.36-.51v-3.46h-2v-2.09h2v-3.57h2.22v3.57h1.75v2.09h-1.75v2.89l1.85-.48Zm7.77,5c1.06,0,1.26-.5,1.44-2.63a7.48,7.48,0,0,0,2.19.92c-.3,2.85-1.05,3.89-3.42,3.89h-4.12c-2.62,0-3.46-.7-3.46-3.53V775.71h10.09v10.6h-2.38v-1.2h-5.35v3.54c0,1.16.17,1.33,1.34,1.33Zm-5-12.05v5h1.61v-5Zm5.35,0h-1.63v5h1.63Z"/><path d="M780.11,804.28s0,.55,0,.82c-.19,4.58-.38,6.4-.91,7a2,2,0,0,1-1.42.7,13.37,13.37,0,0,1-2.3.06,4.7,4.7,0,0,0-.57-2,14.54,14.54,0,0,0,1.86.1.68.68,0,0,0,.63-.25c.28-.32.45-1.54.59-4.54h-2.11a10.77,10.77,0,0,1-3.35,6.74,5.91,5.91,0,0,0-1.5-1.65c2.49-2.05,2.87-5.47,3-8.62h-1.9v-6.61h7.81v6.61h-3.7l-.12,1.55Zm-5.92-3.57h3.57v-2.6h-3.57Zm9.38,7.53h-2.2v-10.7h2.2Zm4.5-12.62v14.63c0,1.33-.26,2-1,2.32a10.14,10.14,0,0,1-3.78.43,8.42,8.42,0,0,0-.78-2.33c1.23,0,2.45,0,2.85,0s.51-.12.51-.46V795.62Z"/><path d="M781.12,815.69c0,.79-.06,1.82-.13,3,.26,2.56,1.42,9.73,8,12.65a6,6,0,0,0-1.65,2,14.71,14.71,0,0,1-7.43-9,15.45,15.45,0,0,1-7,9.1,7.18,7.18,0,0,0-1.88-1.84c7.71-4.12,7.35-12.63,7.43-15.84Z"/><path d="M788.36,838.67V843h-2.24v-2.4H774V843h-2.13v-4.32h2.51a18.14,18.14,0,0,0-1.05-1.63l2-.8a12.7,12.7,0,0,1,1.5,2.28l-.35.15h2.36v-2.58h2.26v2.58h2.24l-.11,0a14.85,14.85,0,0,0,1.35-2.43l2.39.7c-.45.64-.91,1.25-1.33,1.76Zm-15.14,8h13.83v7.2h-2.26v-.43h-9.43v.45h-2.14Zm11.85-5.15v4.36H775V841.5Zm-9.71,6.79v1h3.54v-1Zm3.54,3.49v-1h-3.54v1Zm3.93-8.66h-5.7v1.12h5.7Zm2,5.17h-3.71v1h3.71Zm0,3.49v-1h-3.71v1Z"/><path d="M777.92,875.13c1.46-.55,2.28-1.5,2.28-2.6H780a1.64,1.64,0,0,1-1.75-1.65,1.68,1.68,0,0,1,1.8-1.66c1.3,0,2,1,2,2.76a4.79,4.79,0,0,1-3.59,4.67Z"/><path d="M780.15,889.37s0,.85,0,1.14c0,9.82,0,13.22-.59,14.17a2,2,0,0,1-1.42,1.1,9.44,9.44,0,0,1-2.28.11,6.41,6.41,0,0,0-.69-2.41c.71.06,1.33.06,1.69.06a.63.63,0,0,0,.59-.4,9.76,9.76,0,0,0,.35-3.23h-2.34a14,14,0,0,1-2.6,6.25,11.2,11.2,0,0,0-1.85-1.67,10,10,0,0,0,2.17-4.58h-1.77v-2h2.13c.1-.73.15-1.45.21-2.23h-2.11v-2h2.2c0-.74,0-1.5,0-2.28h-2.47v-2Zm-2.34,8.55c0-.67,0-1.39,0-2.23H776c-.05.78-.13,1.5-.21,2.23Zm-1.71-6.5c0,.78,0,1.54-.05,2.28h1.8l0-2.28Zm12.81-1.16c-.74,1.79-1.64,3.91-2.47,5.58a5.77,5.77,0,0,1,2.14,4.39,3.1,3.1,0,0,1-1.12,2.78,3.42,3.42,0,0,1-1.38.47,13.17,13.17,0,0,1-1.81,0,5.23,5.23,0,0,0-.62-2.13,8.5,8.5,0,0,0,1.38,0,2.26,2.26,0,0,0,.88-.17c.4-.21.53-.63.53-1.25,0-1.07-.51-2.4-2.22-3.88.62-1.37,1.31-3.25,1.82-4.69h-2.57v14.7h-2.14V889.31H787l.32-.08Z"/><path d="M781.35,924.13c.49,0,1,.06,1.52.06,1.06,0,4.71,0,6.06-.06a7.54,7.54,0,0,0-.76,2.17h-5.42c-3.47,0-5.83-.49-7.42-2.7a8.58,8.58,0,0,1-2.66,3,9.58,9.58,0,0,0-1.71-1.57,8.06,8.06,0,0,0,3.53-5.76l2.26.34c-.13.61-.29,1.18-.44,1.73a4.19,4.19,0,0,0,2.74,2.38v-4.83h-7.41v-2H788.4v2h-7v1.42h5.85v2h-5.85Zm5.24-8h-13.2v-6.59h13.2Zm-2.3-5h-8.7v1h8.7Zm0,2.46h-8.7v1h8.7Z"/><path d="M783.42,943.51a39.59,39.59,0,0,1,5.24,2L786.78,947a31.72,31.72,0,0,0-5.47-2.24l1.22-1.26H777l1.77,1.24A23,23,0,0,1,773,947a14.92,14.92,0,0,0-1.54-1.54,20.15,20.15,0,0,0,5.28-2h-5.19v-1.86h2.53v-8.36h4.54c.06-.26.12-.55.17-.85h-6.72v-1.88h7c0-.48.09-.93.11-1.33l2.38.23-.19,1.1H788v1.88h-7c-.08.3-.12.59-.18.85H786v8.36h2.45v1.86Zm-7.14-8.81v.82h7.44v-.82Zm7.44,2.09h-7.44v.72h7.44Zm-7.44,2v.74h7.44v-.74Zm0,2.88h7.44v-.87h-7.44Z"/><path d="M788.4,952.62s0,.76,0,1c-.25,8.49-.46,11.52-1.24,12.52a2.53,2.53,0,0,1-1.82,1.05,23.53,23.53,0,0,1-3,0,5.22,5.22,0,0,0-.74-2.21c1.22.12,2.34.12,2.83.12a1,1,0,0,0,.84-.33c.55-.61.8-3.45,1-10.16H782.2a16.17,16.17,0,0,1-1.67,3,14.41,14.41,0,0,0-1.46-1.06v8.87H774v1.39h-2.06V952.75h2.15a19.37,19.37,0,0,0,.55-3.06l2.47.34c-.32,1-.66,1.9-1,2.72h3v3.08a19.75,19.75,0,0,0,2.56-6.12l2.15.49a23.24,23.24,0,0,1-.74,2.42ZM777,954.73h-3v3.07h3Zm0,8.75v-3.72h-3v3.72Zm6.3-1a40.77,40.77,0,0,0-2.64-4.39l1.77-1a46.13,46.13,0,0,1,2.79,4.22Z"/><path d="M777.92,988.73c1.46-.55,2.28-1.5,2.28-2.6H780a1.64,1.64,0,0,1-1.75-1.65,1.68,1.68,0,0,1,1.8-1.65c1.3,0,2,1,2,2.75a4.79,4.79,0,0,1-3.59,4.67Z"/><path d="M787.94,1011a18.92,18.92,0,0,1-3.15,4.16c.51,1.47,1.1,2.34,1.67,2.34.4,0,.62-.91.72-3.15a5.78,5.78,0,0,0,1.86,1.29c-.36,3.32-1.06,4.16-2.79,4.16-1.39,0-2.45-1.14-3.27-3a19.5,19.5,0,0,1-3.51,2.31,10.18,10.18,0,0,0-1.5-1.82,19.29,19.29,0,0,0,4.23-2.68,35.2,35.2,0,0,1-1-5.09h-3.85v2.17l2.92-.54.17,2.06-3.09.62v3.25c0,1.24-.27,1.84-1,2.21a8.18,8.18,0,0,1-3.42.43,8.76,8.76,0,0,0-.8-2.28c1.07.06,2.17,0,2.51,0s.46-.09.46-.4v-2.75l-3.4.68-.55-2.28c1.08-.17,2.45-.38,4-.64v-2.55h-3.59v-2.15h3.59v-2.16c-1,.17-2.07.3-3,.42a8.71,8.71,0,0,0-.65-1.9,47.53,47.53,0,0,0,7.54-1.6l1.52,1.92c-1,.28-2,.53-3.09.76v2.56H781c-.15-1.71-.2-3.47-.22-5.2h2.37a46.66,46.66,0,0,0,.19,5.2h5.17v2.15h-4.94c.15,1.14.34,2.24.55,3.21a16,16,0,0,0,1.8-2.58Zm-1.39-4.18a15.11,15.11,0,0,0-2.69-3.13l1.7-1.16a16.28,16.28,0,0,1,2.82,3Z"/><path d="M783.42,1036.69a39.59,39.59,0,0,1,5.24,2l-1.88,1.52a30.88,30.88,0,0,0-5.47-2.25l1.22-1.25H777l1.77,1.24a23,23,0,0,1-5.74,2.28,14,14,0,0,0-1.54-1.54,20.51,20.51,0,0,0,5.28-2h-5.19v-1.86h2.53v-8.36h4.54c.06-.27.12-.55.17-.85h-6.72v-1.89h7c0-.47.09-.93.11-1.33l2.38.23-.19,1.1H788v1.89h-7c-.08.3-.12.58-.18.85H786v8.36h2.45v1.86Zm-7.14-8.81v.81h7.44v-.81Zm7.44,2.09h-7.44v.72h7.44Zm-7.44,2v.74h7.44v-.74Zm0,2.89h7.44V1034h-7.44Z"/><path d="M788.4,1045.79s0,.76,0,1c-.25,8.49-.46,11.51-1.24,12.52a2.52,2.52,0,0,1-1.82,1,20.3,20.3,0,0,1-3,0,5.14,5.14,0,0,0-.74-2.2c1.22.11,2.34.11,2.83.11a1,1,0,0,0,.84-.32c.55-.61.8-3.46,1-10.17H782.2a16.28,16.28,0,0,1-1.67,3,13,13,0,0,0-1.46-1.07v8.87H774V1060h-2.06v-14.11h2.15a19.37,19.37,0,0,0,.55-3.06l2.47.34c-.32,1-.66,1.9-1,2.72h3V1049a19.59,19.59,0,0,0,2.56-6.11l2.15.49a22.36,22.36,0,0,1-.74,2.41ZM777,1047.9h-3V1051h3Zm0,8.76v-3.72h-3v3.72Zm6.3-1a39.76,39.76,0,0,0-2.64-4.38l1.77-1a44.8,44.8,0,0,1,2.79,4.22Z"/><path d="M786.17,1079.1c.61,0,.74-.19.82-1.48a6.43,6.43,0,0,0,1.86.68c-.23,2-.8,2.49-2.45,2.49h-2.79c-2.26,0-2.83-.5-2.83-2.19v-.85h-2.09c-.57,1.9-2.05,2.83-6.61,3.29a5.88,5.88,0,0,0-1-1.71c3.62-.21,4.8-.63,5.3-1.58h-2v-6.4h11v6.4H783v.83c0,.48.15.52.91.52Zm-12.46-6.92h-2v-2.83h2.09l-.3-4.5,0,0a22.19,22.19,0,0,0,3.44-1.54l1.2,1a21.72,21.72,0,0,1-2.61,1.1l0,.46h2V1067h-1.88l.06.59h1.88v1.17h-1.81l0,.61h2.64c-.23-.23-.53-.51-.74-.68a9.65,9.65,0,0,0,1.48-.82c-.32-.21-.64-.42-.95-.59l.86-.76a11.42,11.42,0,0,1,1,.61,5.29,5.29,0,0,0,.72-.82l.08,0a8.21,8.21,0,0,0-.82-.68,7.91,7.91,0,0,1-1.44.89,8.79,8.79,0,0,0-.93-.87,11.55,11.55,0,0,0,1.35-.72,9.31,9.31,0,0,0-.84-.48l.86-.76c.3.15.6.34.93.53a4.36,4.36,0,0,0,.72-.78l1.2.35a5.74,5.74,0,0,1-.92,1.06c.31.23.57.46.78.65l-.83.83,1.1.29a8.54,8.54,0,0,1-1,1.17,10.26,10.26,0,0,1,.93.78l-.82.78h3.12l0-.61h-1.9v-1.17h2l0-.59h-2v-1.18h2l0-.59h-2.3v-1.31h4.35c-.06,1.77-.15,3.91-.31,5.45h2v2.83h-2.09v-1.42h-12.5Zm2.89,1h6.59v-.62H776.6Zm0,1.71h6.59v-.62H776.6Zm0,1.77h6.59v-.67H776.6Zm4.5-7.26a9.32,9.32,0,0,0-.89-.78,12.85,12.85,0,0,1-1.14.78Z"/><path d="M777.4,1088.73a20.32,20.32,0,0,1-1.66,2.4v10.31h-2.18v-7.88a18.28,18.28,0,0,1-1.71,1.54,16.6,16.6,0,0,0-1.08-2.34,17.07,17.07,0,0,0,4.65-4.88Zm-.33-4.12a20.1,20.1,0,0,1-5,4.77,13.4,13.4,0,0,0-1.13-1.92,13.51,13.51,0,0,0,4-3.72Zm11.55,11.91H786v2.7c0,1-.19,1.58-.93,1.9a7.56,7.56,0,0,1-2.94.32,7.91,7.91,0,0,0-.71-2c.8,0,1.69,0,1.94,0s.34-.1.34-.31v-2.64h-4a19.94,19.94,0,0,1,2.17,2.38l-1.69,1.19a16.22,16.22,0,0,0-2.19-2.64l1.41-.93h-2.66v-1.92h7v-1.08h-6.5v-1.84h11v1.84H786v1.08h2.58Zm-1-5.68h-9.41v-6.57h9.41Zm-2.28-5h-4.94v1h4.94Zm0,2.44h-4.94v1h4.94Z"/><path d="M777.19,1104.88a30.47,30.47,0,0,1-1.81,3.9v13.07h-2.16v-9.71a19,19,0,0,1-1.28,1.54,15.07,15.07,0,0,0-1.21-2.36,20,20,0,0,0,4.31-7.1Zm6.72,4.75v9.73c0,1.08-.19,1.71-.87,2.09a6,6,0,0,1-2.79.46,8,8,0,0,0-.78-2.29c.79,0,1.59,0,1.86,0s.34-.07.34-.32v-9.69h-2.2a16.65,16.65,0,0,1-1.79,2.91,15.84,15.84,0,0,0-1.82-1.48,17,17,0,0,0,3.23-6.84l2.2.49c-.25,1-.55,1.9-.89,2.83h6.53l.36-.07,1.6.3c-.23,1.54-.55,3.31-.82,4.41l-1.92-.32c.1-.59.21-1.39.31-2.23Zm-3.15,3.42a19.42,19.42,0,0,1-2.59,6.35,14.11,14.11,0,0,0-1.93-1.22,13.65,13.65,0,0,0,2.31-5.58Zm5.85-.64a23.46,23.46,0,0,1,2.07,6.19l-2.17.74a23.77,23.77,0,0,0-1.91-6.25Z"/><path d="M781.84,1132.81h-3.27v9.44h-2.09v-16.64c-.38,1.09-.81,2.21-1.31,3.29v13.39H773v-9.5a14.44,14.44,0,0,1-1.18,1.56,15.8,15.8,0,0,0-1.08-2.43,21.1,21.1,0,0,0,3.76-7.33l2.09.62-.12.36h5.34Zm-3.27-5.53v1.09h1.56v-1.09Zm1.56,3.82V1130h-1.56v1.12Zm8.21,8.57c0,1.25-.27,1.86-1,2.19a9.92,9.92,0,0,1-3.76.41,8.58,8.58,0,0,0-.72-2.18c1.16.07,2.47.06,2.85,0s.49-.12.49-.48v-6.84H782.7v-7.24h5.64Zm-3.86-12.39v1.09h1.69v-1.09Zm1.69,3.82V1130h-1.69v1.12Z"/><path d="M789,1147c-.68,1.82-1.52,4-2.29,5.64a6.09,6.09,0,0,1,1.93,4.41c0,1.42-.3,2.35-1.06,2.85a3,3,0,0,1-1.33.51,8.89,8.89,0,0,1-1.65,0,5.57,5.57,0,0,0-.57-2.19,8.37,8.37,0,0,0,1.19,0,1.58,1.58,0,0,0,.76-.17c.36-.21.5-.66.5-1.29a5.48,5.48,0,0,0-2-3.9c.55-1.36,1.2-3.28,1.67-4.74h-2.41v14.55h-2.22v-16.26a22.81,22.81,0,0,1-2,4h1.41v2h-2.83c-.4.49-.8.93-1.22,1.38h3.42v8.57h-2.14v-.72h-3.06v1H773v-5.76c-.33.21-.65.4-.95.57a12.79,12.79,0,0,0-1.31-1.88,17.74,17.74,0,0,0,4.54-3.13h-4v-2h3.31v-1.56h-2.49V1147h2.49v-1.85h2.09V1147h2v1a17,17,0,0,0,.93-2.12l2,.55V1146H787l.34-.08Zm-10.84,8.66h-3.06v1.22h3.06Zm0,4.26v-1.35h-3.06v1.35Zm-1.1-9.41c.36-.49.7-1,1-1.56h-1.42v1.56Z"/><path d="M781.35,1180.71c.49,0,1,.06,1.52.06,1.06,0,4.71,0,6.06-.06a7.33,7.33,0,0,0-.76,2.17h-5.42c-3.47,0-5.83-.5-7.42-2.7a8.66,8.66,0,0,1-2.66,3,9.27,9.27,0,0,0-1.71-1.58,8.06,8.06,0,0,0,3.53-5.75l2.26.34c-.13.61-.29,1.18-.44,1.73a4.18,4.18,0,0,0,2.74,2.37v-4.82h-7.41v-2H788.4v2h-7v1.42h5.85v2h-5.85Zm5.24-8h-13.2v-6.6h13.2Zm-2.3-5h-8.7v1h8.7Zm0,2.45h-8.7v1h8.7Z"/><path d="M777.92,1204.46c1.46-.55,2.28-1.5,2.28-2.6H780a1.65,1.65,0,0,1-1.75-1.66,1.68,1.68,0,0,1,1.8-1.65c1.3,0,2,1,2,2.76a4.79,4.79,0,0,1-3.59,4.67Z"/><path d="M782.64,1223.88A48.76,48.76,0,0,1,789,1229l-1.91,1.73a43.3,43.3,0,0,0-5.82-5.15v9.84h-2.47v-9.27a22.63,22.63,0,0,1-6,4.67,13.46,13.46,0,0,0-1.55-2,19.93,19.93,0,0,0,8.18-7.47h-7.58V1219h16.47v2.31h-5.91a18.18,18.18,0,0,1-1.1,1.75v2Z"/><path d="M776.48,1247A23.19,23.19,0,0,1,775,1252c.31.19.67.46,1.16.76,1.31.78,3.1.89,5.32.89a65.19,65.19,0,0,0,7.69-.49,8.44,8.44,0,0,0-.66,2.32c-1.56.09-4.92.22-7.14.22-2.53,0-4.13-.21-5.49-1-.8-.44-1.49-1.07-1.87-1.07s-1.12,1.29-1.59,2.38l-1.5-2.15a8.61,8.61,0,0,1,2-1.82,17.87,17.87,0,0,0,1.1-3.29h-2.39c.44-1.12.93-2.64,1.37-4.12h-1.71v-2h4.44c-.39,1.33-.85,2.85-1.31,4.18h.78l.34-.07Zm-3.19-5c-.21-.85-.72-2.22-1-3.26l2-.61c.36,1,.86,2.3,1.12,3.15Zm5.59,10.76h-2v-8.27h1.41v-5.81h8.18v5.81h1.39v6.35c0,.89-.15,1.37-.74,1.67a5.53,5.53,0,0,1-2.36.3,5.63,5.63,0,0,0-.49-1.63h-2.85v.59h-1.61V1247h4.95v4.09h.78c.21,0,.27-.06.27-.25v-4.62h-7Zm1.4-8.27h1.07v-3h3.13v-1.16h-4.2Zm2.89,3.93h-1.71v1.33h1.71Zm1.31-5.5H783v1.57h1.5Z"/><path d="M787.94,1267.6a19.15,19.15,0,0,1-3.15,4.16c.51,1.46,1.1,2.33,1.67,2.33.4,0,.62-.91.72-3.15a5.62,5.62,0,0,0,1.86,1.29c-.36,3.33-1.06,4.16-2.79,4.16-1.39,0-2.45-1.14-3.27-3a20.11,20.11,0,0,1-3.51,2.32,10.18,10.18,0,0,0-1.5-1.82,19.67,19.67,0,0,0,4.23-2.68,35.2,35.2,0,0,1-1-5.09h-3.85v2.16l2.92-.53.17,2-3.09.63v3.25c0,1.23-.27,1.84-1,2.2a8.15,8.15,0,0,1-3.42.44,8.63,8.63,0,0,0-.8-2.28c1.07,0,2.17,0,2.51,0s.46-.1.46-.4v-2.76c-1.22.25-2.4.5-3.4.69l-.55-2.28c1.08-.17,2.45-.38,4-.65v-2.54h-3.59V1264h3.59v-2.17c-1,.17-2.07.31-3,.42a8.71,8.71,0,0,0-.65-1.9,48.74,48.74,0,0,0,7.54-1.59l1.52,1.91c-1,.29-2,.54-3.09.76V1264H781c-.15-1.71-.2-3.48-.22-5.21h2.37a46.85,46.85,0,0,0,.19,5.21h5.17v2.15h-4.94c.15,1.14.34,2.24.55,3.21a16,16,0,0,0,1.8-2.59Zm-1.39-4.18a15.14,15.14,0,0,0-2.69-3.14l1.7-1.16a16.32,16.32,0,0,1,2.82,3Z"/><path d="M784.35,1294.46c1.71,0,2-.51,2.26-3a8.3,8.3,0,0,0,2.11.84c-.38,3.15-1.14,4.18-4.22,4.18h-5.93c-3.34,0-4.33-.76-4.33-3.69v-5.09l-2.66.83-.59-2,3.25-1v-5.15h2.22v4.44l2.91-.91V1279h2.26v4.12l3.52-1.08.6-.42,1.7.53-.08.34a66.88,66.88,0,0,1-.84,8.49l-1.86-.53c.23-1.54.38-4,.46-6.23l-3.5,1.12v7.11h-2.26v-6.41l-2.91.94v5.81c0,1.4.27,1.63,2.13,1.63Z"/><path d="M777.19,1300.18a30.77,30.77,0,0,1-1.83,3.92v13.05h-2.14v-9.71a18.1,18.1,0,0,1-1.3,1.52,14,14,0,0,0-1.19-2.34,20.15,20.15,0,0,0,4.31-7.12Zm11.68,15.07v1.63H776.64v-1.63h5v-.86h-3.85v-1.61h3.85V1312H777.3v-1.63h4.33v-.67h-4.12v-4.16h4.12v-.65h-2.56v-2.29H776.9V1301h2.17v-1.54h2.07V1301h3.15v-1.54h2.22V1301h2.21v1.62h-2.21v2.29h-2.65v.65h4.25v4.16h-4.25v.67h4.38V1312h-4.38v.78h4v1.61h-4v.86Zm-7.24-7V1307h-2v1.22Zm-.49-4.79h3.15v-.83h-3.15Zm2.72,3.57v1.22h2.07V1307Z"/><path d="M776,1332.94h-2.68v1.61h-1.61V1321H776Zm-2.68-10.18v8.39h1.12v-8.39Zm14.95,12.63c0,.89-.15,1.46-.68,1.8a4.13,4.13,0,0,1-2.28.4,6.78,6.78,0,0,0-.61-1.95c.63,0,1.23,0,1.44,0s.27-.09.27-.32v-4.12H785a12,12,0,0,1-2.06,6.42,6.52,6.52,0,0,0-1.5-1.08,6.91,6.91,0,0,0,1.12-2h-1.93v3.11h-2v-3.11H776.2v-1.85h2.41v-1.17h-1.77v-6.75h1.77v-1.16h-2v-1.84h2V1320h2v1.77h2.08v1.84h-2.08v1.16h1.86v6.75h-1.86v1.17h2.07v1.46a19.1,19.1,0,0,0,.6-5.43v-7.94h5Zm-9.74-8h2.16v-.91h-2.16Zm0,2.47h2.16v-.91h-2.16Zm6.55-7.2v2.45h1.33v-2.45Zm1.33,6.73V1327h-1.33v2.4Z"/><path d="M774.62,1343.71a14.24,14.24,0,0,1-2,2.64,21.87,21.87,0,0,0-1.6-1.59,12.59,12.59,0,0,0,2.89-4.64l2.11.61c-.12.34-.27.72-.44,1.08h4.2v1.9h-3.16c.69.57,1.47,1.24,1.9,1.69l-1.38,1.37a24.48,24.48,0,0,0-2.34-2.24l.89-.82Zm7.51,8.84a10.5,10.5,0,0,0,6.61,3.53,8.39,8.39,0,0,0-1.41,2,11,11,0,0,1-7.26-4.83c-1.1,2.11-3.21,3.78-7.42,4.81a5.94,5.94,0,0,0-1.2-1.88c3.59-.78,5.36-2.06,6.29-3.61h-6.21v-2h7a11.46,11.46,0,0,0,.28-1.69c-1.84.13-3.7.19-5.45.23a6.62,6.62,0,0,0-.49-1.92,82,82,0,0,0,12.14-1,21.81,21.81,0,0,0-1.75-1.72l.74-.69h-1.39a12.84,12.84,0,0,1-1.55,2.41,14.63,14.63,0,0,0-1.71-1.33,11.22,11.22,0,0,0,2.45-4.69l2,.51c-.12.38-.25.78-.4,1.18h5.22v1.92h-3.44c.57.51,1.16,1,1.51,1.43l-.84.79.19,0,1.23,1.88a51,51,0,0,1-5.92.87c-.1.67-.19,1.29-.33,1.9h7.58v2Z"/><path d="M779,1367.82s0,.63,0,.9c-.11,5.7-.24,7.84-.74,8.51a1.71,1.71,0,0,1-1.23.81,10.93,10.93,0,0,1-1.92.08,5.5,5.5,0,0,0-.57-2c.55,0,1,.05,1.31.05a.58.58,0,0,0,.53-.28c.25-.38.38-1.88.46-6h-1.71c-.25,3.55-.84,6.47-2.47,8.54a6.55,6.55,0,0,0-1.63-1.69c1.86-2.43,2-6.17,2-11h-1.48v-2.09h3.34a13,13,0,0,0-1.22-2.28l2-.76a12,12,0,0,1,1.44,2.55l-1.21.49h3.57v2.09h-4.26c0,.72,0,1.39,0,2.07Zm6.39-6.61c-.14.46-.29.89-.46,1.33a11.88,11.88,0,0,0,4.29,4.67,9.16,9.16,0,0,0-1.61,1.79,14,14,0,0,1-3.67-4.29,12.82,12.82,0,0,1-3.83,4.42,7.62,7.62,0,0,0-1.56-1.78,11.57,11.57,0,0,0,4.75-6.73ZM781.8,1373a36.49,36.49,0,0,1,5.47,3.36l-1.57,1.94a32.52,32.52,0,0,0-5.32-3.63Zm3.08-.78a22.82,22.82,0,0,0-3.23-2.75l1.44-1.47a23.21,23.21,0,0,1,3.35,2.61Z"/><path d="M780.57,1394.86l.15,2.22c-3.19.61-6.67,1.24-9.16,1.71l-.36-2.39,1.39-.21v-11.11h2.24v10.77l1.35-.23v-14.46h2.39v5.61h2.11v2.16h-2.11v6.29Zm5.58,1.39c.61,0,.73-.67.82-3.14a7.66,7.66,0,0,0,2.17,1c-.25,3.15-.84,4.35-2.76,4.35h-2.32c-2.09,0-2.69-.78-2.69-3.46v-13.85h2.39v5.61h4.29v2.16h-4.29v6.12c0,1,.08,1.2.68,1.2Z"/><path d="M777.92,1420.18c1.46-.55,2.28-1.5,2.28-2.6H780a1.64,1.64,0,0,1-1.75-1.65,1.68,1.68,0,0,1,1.8-1.65c1.3,0,2,1,2,2.75a4.81,4.81,0,0,1-3.59,4.68Z"/><path d="M787.94,1442.47a18.92,18.92,0,0,1-3.15,4.16c.51,1.47,1.1,2.34,1.67,2.34.4,0,.62-.91.72-3.15a5.78,5.78,0,0,0,1.86,1.29c-.36,3.32-1.06,4.16-2.79,4.16-1.39,0-2.45-1.14-3.27-3a19.5,19.5,0,0,1-3.51,2.31,10.18,10.18,0,0,0-1.5-1.82,18.92,18.92,0,0,0,4.23-2.68,35.2,35.2,0,0,1-1-5.09h-3.85v2.17l2.92-.53.17,2-3.09.62v3.25c0,1.24-.27,1.85-1,2.21a8.18,8.18,0,0,1-3.42.43,8.76,8.76,0,0,0-.8-2.28c1.07.06,2.17,0,2.51,0s.46-.09.46-.4v-2.75l-3.4.68-.55-2.28c1.08-.17,2.45-.38,4-.64V1441h-3.59v-2.15h3.59v-2.16c-1,.17-2.07.3-3,.42a8.71,8.71,0,0,0-.65-1.9,47.53,47.53,0,0,0,7.54-1.6l1.52,1.92c-1,.29-2,.53-3.09.76v2.56H781c-.15-1.7-.2-3.47-.22-5.2h2.37a46.66,46.66,0,0,0,.19,5.2h5.17V1441h-4.94c.15,1.14.34,2.24.55,3.21a15.52,15.52,0,0,0,1.8-2.58Zm-1.39-4.18a15.11,15.11,0,0,0-2.69-3.13l1.7-1.16a16.6,16.6,0,0,1,2.82,3Z"/><path d="M780.15,1454.84s0,.86,0,1.14c0,9.82,0,13.23-.59,14.18a2,2,0,0,1-1.42,1.1,9.44,9.44,0,0,1-2.28.11,6.36,6.36,0,0,0-.69-2.41c.71.06,1.33.06,1.69.06a.63.63,0,0,0,.59-.4,9.87,9.87,0,0,0,.35-3.23h-2.34a14.08,14.08,0,0,1-2.6,6.25A11.2,11.2,0,0,0,771,1470a10,10,0,0,0,2.17-4.58h-1.77v-2h2.13c.1-.72.15-1.44.21-2.22h-2.11v-2h2.2c0-.74,0-1.5,0-2.27h-2.47v-2.06Zm-2.34,8.55c0-.66,0-1.38,0-2.22H776c-.05.78-.13,1.5-.21,2.22Zm-1.71-6.49c0,.77,0,1.53-.05,2.27h1.8l0-2.27Zm12.81-1.16c-.74,1.78-1.64,3.91-2.47,5.58a5.75,5.75,0,0,1,2.14,4.39,3.07,3.07,0,0,1-1.12,2.77,3.42,3.42,0,0,1-1.38.48,13.17,13.17,0,0,1-1.81,0,5.23,5.23,0,0,0-.62-2.13,8.5,8.5,0,0,0,1.38,0,2.26,2.26,0,0,0,.88-.17c.4-.21.53-.63.53-1.26,0-1.06-.51-2.39-2.22-3.87.62-1.37,1.31-3.25,1.82-4.7h-2.57v14.71h-2.14v-16.83H787l.32-.08Z"/><path d="M771.09,1489.71A26.5,26.5,0,0,0,773,1485l2,.81a48.52,48.52,0,0,1-1.73,4.85Zm7.79-6.63h-6v-6.63h6v-2.11h2.26v2.11h6.13v6.63h-6.13v1.42h-.42a27.71,27.71,0,0,1,2,2.15L781,1488a27.44,27.44,0,0,0-2.45-2.73l1.14-.8h-.76Zm0-2v-2.62h-3.82v2.62Zm3.08,8.42c.83,0,1-.31,1.08-2.32a6.36,6.36,0,0,0,2.13.89c-.29,2.83-.93,3.56-3,3.56h-3.22c-2.56,0-3.21-.69-3.21-2.8v-3.72h2.38v3.69c0,.62.15.7,1.12.7Zm-.82-11v2.62H785v-2.62Zm4.84,6.35c.93,1.34,2.26,3.21,2.89,4.37l-2.11,1.17a42.71,42.71,0,0,0-2.73-4.56Z"/><path d="M788.7,1500.08v1.62h-3.44l-.15,1.48H774.19l.19-1.48h-3v-1.62h3.21l.19-1.44h10.76l-.14,1.44Zm-5.05,9.8c1.67.46,3.34.95,4.46,1.32l-1.54,1.38c-1.37-.51-3.59-1.27-5.77-1.84l.78-.86H778.1l1.14.84a23.36,23.36,0,0,1-6.46,1.88,11.08,11.08,0,0,0-1.2-1.54,25.09,25.09,0,0,0,5-1.18h-2.72v-6.15h12.39v6.15ZM774,1499.59h-2v-3.31h6.94a8.61,8.61,0,0,0-.55-1.14l2-.55a9.71,9.71,0,0,1,.88,1.69h6.93v3.31H786V1498H774Zm2.09,5.83H784v-.55h-7.9Zm0,1.67H784v-.59h-7.9Zm0,1.67H784v-.6h-7.9Zm.3-6.7h2.51l.07-.61h-2.5Zm.29-2.28-.08.55h2.49l.06-.55Zm6.51,2.28.06-.61h-2.43l-.08.61Zm.19-2.28H781l0,.55h2.39Z"/><path d="M788.4,1518.09s0,.76,0,1c-.25,8.49-.46,11.51-1.24,12.52a2.52,2.52,0,0,1-1.82,1,20.3,20.3,0,0,1-3,0,5.14,5.14,0,0,0-.74-2.2c1.22.11,2.34.11,2.83.11a1,1,0,0,0,.84-.32c.55-.61.8-3.46,1-10.16H782.2a16.17,16.17,0,0,1-1.67,3,13,13,0,0,0-1.46-1.07V1531H774v1.38h-2.06v-14.11h2.15a19.37,19.37,0,0,0,.55-3.06l2.47.34c-.32,1-.66,1.9-1,2.72h3v3.07a19.59,19.59,0,0,0,2.56-6.11l2.15.49a22.36,22.36,0,0,1-.74,2.41ZM777,1520.2h-3v3.08h3Zm0,8.76v-3.72h-3V1529Zm6.3-1a39.76,39.76,0,0,0-2.64-4.38l1.77-1a44.8,44.8,0,0,1,2.79,4.22Z"/><path d="M778.57,1536a23.12,23.12,0,0,1,1.2,2.38l-1.69.76a18.38,18.38,0,0,0-1.06-2.38,26.78,26.78,0,0,1-1.49,3.35v13.18h-2.14v-9.65c-.4.53-.8,1-1.18,1.48a14.51,14.51,0,0,0-1.24-2.36,19.82,19.82,0,0,0,4.09-7.1l2.13.65-.1.26Zm4.13,13.43c-.76,1.45-2.38,2.85-5.44,3.92a8.45,8.45,0,0,0-1.36-1.56,8.94,8.94,0,0,0,4.36-2.36h-3.89v-1.74h4.79a4.67,4.67,0,0,0,.09-.8h-3.93v-1.66h3.95v-.77h-4.43v-1.7h2.53c-.15-.49-.34-1-.53-1.52l1.22-.32h-3.37v-1.78H780v-3.56h1.86v3.56h1.16v-3.56h1.88v3.56h3.47v1.78H785.3l1.23.32c-.28.54-.53,1.07-.78,1.52h2.36v1.7H783.4v.77h4.18v1.66H783.4c0,.26-.06.53-.1.8h5.36v1.74Zm-2.07-8.51a10.87,10.87,0,0,1,.7,1.84h2.51c.22-.55.49-1.25.66-1.84Zm3.23,8.53a35.71,35.71,0,0,1,5.07,2.55l-1.52,1.42a32.34,32.34,0,0,0-5-2.7Zm4.31-12.86c-.52.91-1,1.81-1.43,2.41l-1.44-.6a18.55,18.55,0,0,0,1.06-2.47Z"/><path d="M781.12,1556c0,.8-.06,1.82-.13,3,.26,2.57,1.42,9.73,8,12.65a6,6,0,0,0-1.65,2,14.68,14.68,0,0,1-7.43-9,15.42,15.42,0,0,1-7,9.1,7.33,7.33,0,0,0-1.88-1.84c7.71-4.12,7.35-12.63,7.43-15.84Z"/><path d="M781.12,1591.7h7v2H772v-2h6.78v-2.3h-4.92v-2h4.92v-2.16h-4v-1.64a23,23,0,0,1-2.41,1.43,9.32,9.32,0,0,0-1.39-1.83,21.31,21.31,0,0,0,6.25-4.12H774.7V1577h6.5a17.2,17.2,0,0,0,7.9,6,10.63,10.63,0,0,0-1.52,2.07,19,19,0,0,1-2.4-1.35v1.56h-4.06v2.16h5v2h-5Zm3.42-8.42a24.48,24.48,0,0,1-4.56-4.16,25.85,25.85,0,0,1-4.67,4.16Z"/><path d="M788.66,1603.71a21,21,0,0,1-3.17,3.78v4.33c0,1.31-.25,2-1.1,2.35a10.15,10.15,0,0,1-3.86.42,8.73,8.73,0,0,0-.8-2.37c1.16.06,2.53,0,2.89,0s.53-.14.53-.48v-2.32a33,33,0,0,1-10.37,5,16.65,16.65,0,0,0-1.52-2.07,32.26,32.26,0,0,0,8.53-3.42c-2.83.23-5.57.42-7.64.59l-.23-2,2.38-.13v-8.74h3.93a14.62,14.62,0,0,0,.61-1.84l2.77.29a16.4,16.4,0,0,1-.87,1.55h4.75V1604c.34-.46.66-.91,1-1.39Zm-12.1-3.1v1.1h6.59v-1.1Zm6.59,2.72h-6.59v1.12h6.59Zm-6.59,3.93,6.23-.44.36-.3v-.44h-6.59Z"/><path d="M788.64,1631.83v2.28H771.37v-2.28h6.8v-14.31h2.44V1623h6.7v2.3h-6.7v6.58Z"/><path d="M780.83,1641.39v3l.38-.44a42.48,42.48,0,0,1,6.48,3.84l-1.67,2.07a37.17,37.17,0,0,0-5.19-3.46v9H778.4v-14h-6.86v-2.28h16.93v2.28Z"/><path d="M789,1660.14c-.68,1.82-1.52,4-2.29,5.64a6.09,6.09,0,0,1,1.93,4.41c0,1.42-.3,2.35-1.06,2.85a3,3,0,0,1-1.33.51,8.89,8.89,0,0,1-1.65,0,5.57,5.57,0,0,0-.57-2.19,8.37,8.37,0,0,0,1.19,0,1.47,1.47,0,0,0,.76-.17c.36-.21.5-.66.5-1.29a5.47,5.47,0,0,0-2-3.89c.55-1.37,1.2-3.29,1.67-4.75h-2.41v14.55h-2.22v-16.26a22.81,22.81,0,0,1-2,4h1.41v2h-2.83c-.4.49-.8.93-1.22,1.39h3.42v8.56h-2.14v-.72h-3.06v1H773v-5.76c-.33.21-.65.4-.95.57a12.79,12.79,0,0,0-1.31-1.88,17.49,17.49,0,0,0,4.54-3.13h-4v-2h3.31v-1.56h-2.49v-1.93h2.49v-1.85h2.09v1.85h2v1a17.79,17.79,0,0,0,.93-2.13l2,.55v-.36H787l.34-.08Zm-10.84,8.66h-3.06V1670h3.06Zm0,4.26v-1.35h-3.06v1.35Zm-1.1-9.41c.36-.49.7-1,1-1.56h-1.42v1.56Z"/><path d="M777.36,1683.51h-6.23v-1.77h2.69a12.46,12.46,0,0,0-1-2.51l1.59-.57a12.86,12.86,0,0,1,1.12,2.53l-1.35.55h3.16Zm-.5,11.76h-3.57v.8h-1.57v-6.5h5.14Zm-.11-9.2h-4.84v-1.71h4.84Zm-4.84.88h4.84v1.69h-4.84Zm1.38,4.35v2.24h2v-2.24Zm15.35,1.36a10.33,10.33,0,0,1-1.84,1,7.33,7.33,0,0,0,2.37,1,6.62,6.62,0,0,0-1.15,1.59,7.43,7.43,0,0,1-5-4.71h-.25a7.09,7.09,0,0,1-1.25,1v1.5l2.2-.36a11.06,11.06,0,0,0,.08,1.67c-3,.59-3.63.78-4,1a5.67,5.67,0,0,0-.93-1.27,2.38,2.38,0,0,0,.89-1.6,15.71,15.71,0,0,1-1.78.71,10,10,0,0,0-1-1.41,13.38,13.38,0,0,0,3.23-1.18h-2.85V1690H780v-.6h-1.85v-1.35H780v-.63H778v-1.35H780v-.83h-1.83v-3.33h4.52v3.33H782v.83h2v-.83h-.58v-3.33h4.59v3.33h-2v.83h2.33v1.35h-2.33v.63h2.11v1.35h-2.11v.6h2.75v1.54h-4a6.28,6.28,0,0,0,.8,1.14,16.85,16.85,0,0,0,1.84-1.1Zm0-11.26H777.55v-1.62H782a6.45,6.45,0,0,0-.42-1l1.88-.57a9.31,9.31,0,0,1,.75,1.52h4.36Zm-8.77,2.68H781v-1h-1.21Zm2.2,4h2v-.63h-2Zm0,2h2v-.6h-2Zm3-5.92h1.27v-1h-1.27Z"/><path d="M787.94,1708a19.15,19.15,0,0,1-3.15,4.16c.51,1.46,1.1,2.34,1.67,2.34.4,0,.62-.92.72-3.16a5.62,5.62,0,0,0,1.86,1.29c-.36,3.33-1.06,4.16-2.79,4.16-1.39,0-2.45-1.14-3.27-3a20.11,20.11,0,0,1-3.51,2.32,10.18,10.18,0,0,0-1.5-1.82,19.67,19.67,0,0,0,4.23-2.68,35.2,35.2,0,0,1-1-5.09h-3.85v2.16l2.92-.53.17,2-3.09.63v3.25c0,1.23-.27,1.84-1,2.2a8.15,8.15,0,0,1-3.42.44,8.63,8.63,0,0,0-.8-2.28c1.07.06,2.17,0,2.51,0s.46-.1.46-.4v-2.76c-1.22.25-2.4.5-3.4.69l-.55-2.28c1.08-.17,2.45-.38,4-.65v-2.54h-3.59v-2.15h3.59v-2.17c-1,.18-2.07.31-3,.42a8.89,8.89,0,0,0-.65-1.9,48.74,48.74,0,0,0,7.54-1.59l1.52,1.91c-1,.29-2,.54-3.09.76v2.57H781c-.15-1.71-.2-3.48-.22-5.21h2.37a46.85,46.85,0,0,0,.19,5.21h5.17v2.15h-4.94c.15,1.14.34,2.24.55,3.21a16,16,0,0,0,1.8-2.59Zm-1.39-4.18a15.14,15.14,0,0,0-2.69-3.14l1.7-1.15a16,16,0,0,1,2.82,3Z"/><path d="M788.07,1724a15.53,15.53,0,0,1-2.87,4.78c.46,3.58,1.14,6.12,1.73,6.12.27,0,.44-1,.5-3a4.62,4.62,0,0,0,1.67,1.24c-.32,3.13-.93,4-2.45,4s-2.72-2.74-3.35-6.5c-.36.29-.74.53-1.12.78a10.38,10.38,0,0,0-.78-.85h-2.24a26.87,26.87,0,0,1,1.47,2.62l-1.49.8a19.25,19.25,0,0,0-1.06-2.19v3.19c0,.5.08.55.55.55H780c.44,0,.53-.28.57-2a4.38,4.38,0,0,0,1.21.55c-.26-.65-.53-1.29-.77-1.86l1.48-.57c.6,1.29,1.35,3,1.71,4l-1.6.69a15.24,15.24,0,0,0-.53-1.56c-.21,1.75-.7,2.24-1.88,2.24h-1.84c-1.68,0-2.06-.49-2.06-2v-3.23h1.77l-.36-.64,1.18-.57h-3.65v-4.39h6.19v3.25a10.47,10.47,0,0,0,1.54-1.18c-.19-1.65-.3-3.42-.4-5.17h-7.81v.82H782v1.5h-7.28c0,3.38-.37,8.51-2,11.91a7.09,7.09,0,0,0-1.8-1.18c1.59-3.28,1.74-8,1.74-11.19v-3.65h9.83c0-.58,0-1.17,0-1.76h2.18v.61l1.2-.84c.61.44,1.46,1.06,1.9,1.46l-.7.53h1.52V1723h-3.86c0,1,.09,1.94.17,2.87a10.94,10.94,0,0,0,1.16-2.38Zm-14.21,11.91a35.41,35.41,0,0,0,.86-4.22l1.44.55c-.19,1.2-.49,3.08-.74,4.26Zm5.8-8.3h-2.59V1729h2.59Zm6.17-6.41c-.36-.32-.8-.66-1.18-1v1Z"/><path d="M777.76,1753.81c1.19-.21,2.43-.42,3.63-.61l.11,1.94c-3.33.64-6.92,1.29-9.5,1.74l-.49-2.09c1.14-.15,2.56-.37,4.1-.62v-2.59h-3.46v-1.95h3.46v-1.69h2.15v1.69h3.42v1.95h-3.42ZM771.7,1741h9.88v1.94H778.9a22,22,0,0,1,2.64,4l-1.71,1.12c-.12-.28-.27-.61-.44-1-5.24.44-6.06.53-6.61.76-.13-.46-.49-1.46-.72-2.05a1.87,1.87,0,0,0,.87-.8,15,15,0,0,0,1.18-2.13H771.7Zm6.65,4.43c-.36-.55-.75-1.08-1.11-1.56l1.6-.93h-2.28a23.47,23.47,0,0,1-1.65,2.68Zm6.06,7.69h-2.09v-11.47h2.09Zm3.74-13v14.71c0,1.19-.23,1.76-.95,2.12a8.14,8.14,0,0,1-3.29.42,8.59,8.59,0,0,0-.76-2.16c1,0,2,0,2.36,0s.43-.11.43-.43v-14.69Z"/><path d="M773.41,1773.11v1.39h-1.73v-12.67h4.77v11.28Zm0-9.27v7.26h1.27v-7.26Zm2.5,12.69a10.18,10.18,0,0,0,1.71-3.53l1.77.7a13.81,13.81,0,0,1-1.67,3.8Zm7.85-.7c.46,0,.55-.15.61-1.43a4.34,4.34,0,0,0,1.75.74c-.21,2-.76,2.51-2.15,2.51H781.9c-1.9,0-2.32-.57-2.32-2.32v-2.43h1.84a6.78,6.78,0,0,0-.7-.53l.72-.63h-4.56v-1.86h3.25v-1.46h-2.49v-4.3h2.51v-1.34h-3v-1.85h11.47v1.85h-3.19v1.34H788v4.3h-2.59v1.46h3.48v1.86h-6.08a10.75,10.75,0,0,1,1.88,1.69l-1.4,1.28a10.38,10.38,0,0,0-1.73-1.71v2.31c0,.46.07.52.64.52Zm-.38-5.95v-3h2.72v-1.18h-2.72v-2.9h-1.23v2.9h-2.66v1.18h2.66v3Zm3.36,2.85a13.72,13.72,0,0,1,2.24,3.67l-1.78.93a14.17,14.17,0,0,0-2.13-3.76Z"/><path d="M774.91,1787.65a50.12,50.12,0,0,1-1.39,7.88l-2.28-.91a36.5,36.5,0,0,0,1.46-7.39Zm3.57-1.54v8.81c0,.9.15,1,1.06,1h2.72c1,0,1.12-.61,1.25-3.57a7.28,7.28,0,0,0,2.13.95c-.26,3.61-.87,4.73-3.21,4.73h-3.15c-2.47,0-3.16-.76-3.16-3.16v-8.81Zm-.17-5.11a34.12,34.12,0,0,1,5.26,3.93l-1.67,1.77a32.77,32.77,0,0,0-5.13-4.16Zm8.28,5.62a35.53,35.53,0,0,1,2.45,7.07l-2.3,1a31.74,31.74,0,0,0-2.26-7.16Z"/><path d="M777.92,1819.74c1.46-.56,2.28-1.51,2.28-2.61H780a1.64,1.64,0,0,1-1.75-1.65,1.68,1.68,0,0,1,1.8-1.65c1.3,0,2,1,2,2.75a4.8,4.8,0,0,1-3.59,4.68Z"/><path d="M788.81,1849.89h-6v.83h-2v-10.08l-.36.49a10.89,10.89,0,0,0-1-.89V1842h-2.8v.77h2.83v1.6h-2.83c0,.23,0,.44,0,.67h3.4v1.69h-3.73l0,.13a32.41,32.41,0,0,1,3.23,2.05l-1.12,1.52a21.83,21.83,0,0,0-2.9-2,8,8,0,0,1-3,2.37,8.33,8.33,0,0,0-1.39-1.48,5.4,5.4,0,0,0,3-2.56H771.2V1845h3.37a5.29,5.29,0,0,0,0-.67h-2.79v-1.6h2.79V1842h-2.85v-3.84h2.93v-.55h-1.92v-1.94H771.3V1834h1.48v-1h2v1h1.89v-1h2.07v1H780v1.63h-1.29v1.94h-2.19v.55h3v.55A21,21,0,0,0,782,1833l2,.51a24.8,24.8,0,0,1-1,3h5.76v2h-2.09v1.76h1.88v1.9h-1.88v1.83h1.9v1.9h-1.9v1.88h2.18Zm-15.33-9.31h1.22v-1h-1.22Zm1.27-4.92v.61h1.89v-.61Zm3,3.89h-1.18v1h1.18Zm6.92-1h-1.79v1.76h1.79Zm0,3.66h-1.79v1.83h1.79Zm-1.79,5.61h1.79V1846h-1.79Zm2.47-11.4a13.27,13.27,0,0,0-1-2.57l1.94-.62a10.44,10.44,0,0,1,1.14,2.45Z"/><path d="M776.48,1862.32a24.6,24.6,0,0,1-1.48,4.94c.29.19.65.45,1.16.76,1.29.77,3.08.89,5.3.89a63.16,63.16,0,0,0,7.7-.5,8.13,8.13,0,0,0-.67,2.32c-1.56.1-4.92.23-7.14.23-2.51,0-4.13-.21-5.49-1-.8-.43-1.47-1.06-1.86-1.06s-1.11,1.29-1.58,2.37l-1.5-2.14a8.28,8.28,0,0,1,2-1.83A20.33,20.33,0,0,0,774,1864h-2.4c.44-1.12.95-2.64,1.39-4.13h-1.71v-2h4.43c-.4,1.33-.84,2.85-1.3,4.18h.76l.35-.08Zm-3.21-5c-.19-.86-.7-2.24-1-3.27l2-.61c.36,1,.84,2.3,1.1,3.16Zm7.55,1.14c0-.31.13-.61.19-.93h-4.56v-1.84H779a14.24,14.24,0,0,0-.89-1.51l1.79-.7a15.51,15.51,0,0,1,1.21,1.9l-.66.31h2.85a15.51,15.51,0,0,0,1.19-2.27l2.19.61-1.14,1.66h3v1.84h-5.13c-.15.34-.31.62-.46.93h4.12v9.17h-9.19v-9.17Zm4,1.59H780v1h4.84Zm0,2.47H780v1h4.84Zm0,2.47H780v1h4.84Z"/><path d="M787.94,1882.87a18.92,18.92,0,0,1-3.15,4.16c.51,1.47,1.1,2.34,1.67,2.34.4,0,.62-.91.72-3.15a5.78,5.78,0,0,0,1.86,1.29c-.36,3.32-1.06,4.16-2.79,4.16-1.39,0-2.45-1.14-3.27-3a20.11,20.11,0,0,1-3.51,2.32,9.89,9.89,0,0,0-1.5-1.83,18.92,18.92,0,0,0,4.23-2.68,35.2,35.2,0,0,1-1-5.09h-3.85v2.17l2.92-.53.17,2-3.09.63V1889c0,1.24-.27,1.85-1,2.21a8.18,8.18,0,0,1-3.42.43,8.76,8.76,0,0,0-.8-2.28c1.07.06,2.17,0,2.51,0s.46-.09.46-.4v-2.75c-1.22.25-2.4.49-3.4.68l-.55-2.28c1.08-.17,2.45-.38,4-.64v-2.55h-3.59v-2.14h3.59v-2.17c-1,.17-2.07.3-3,.42a8.71,8.71,0,0,0-.65-1.9A47.53,47.53,0,0,0,779,1874l1.52,1.92c-1,.29-2,.53-3.09.76v2.57H781c-.15-1.71-.2-3.48-.22-5.21h2.37a46.94,46.94,0,0,0,.19,5.21h5.17v2.14h-4.94c.15,1.14.34,2.24.55,3.21a15.52,15.52,0,0,0,1.8-2.58Zm-1.39-4.18a15.11,15.11,0,0,0-2.69-3.13l1.7-1.16a16.6,16.6,0,0,1,2.82,3Z"/><path d="M789,1896.29c-.68,1.82-1.52,4-2.29,5.64a6.09,6.09,0,0,1,1.93,4.41c0,1.42-.3,2.35-1.06,2.85a3,3,0,0,1-1.33.51,8.89,8.89,0,0,1-1.65,0,5.48,5.48,0,0,0-.57-2.18,10,10,0,0,0,1.19,0,1.47,1.47,0,0,0,.76-.17c.36-.21.5-.66.5-1.29a5.47,5.47,0,0,0-2-3.89c.55-1.37,1.2-3.29,1.67-4.75h-2.41V1912h-2.22v-16.26a22.81,22.81,0,0,1-2,4h1.41v2h-2.83c-.4.49-.8.93-1.22,1.39h3.42v8.56h-2.14V1911h-3.06v1H773v-5.76c-.33.21-.65.4-.95.57a12.79,12.79,0,0,0-1.31-1.88,17.49,17.49,0,0,0,4.54-3.13h-4v-2h3.31v-1.55h-2.49v-1.94h2.49v-1.85h2.09v1.85h2v1a17.79,17.79,0,0,0,.93-2.13l2,.55v-.36H787l.34-.08ZM778.14,1905h-3.06v1.22h3.06Zm0,4.26v-1.35h-3.06v1.35Zm-1.1-9.41c.36-.49.7-1,1-1.55h-1.42v1.55Z"/><path d="M784,1929.69c2,0,2.26-.5,2.54-3.25a8.32,8.32,0,0,0,2.28.87c-.43,3.58-1.27,4.62-4.73,4.62h-6.29c-3.66,0-4.78-.72-4.78-3.59v-8.85h2.33v2.58H784v-4H772.27v-2.24h14.07v9.41H784v-.9h-8.63v4c0,1.18.35,1.35,2.43,1.35Z"/><path d="M776.86,1946.92c0-.23-.09-.51-.15-.81-3.8.56-4.48.7-4.9.91-.11-.4-.46-1.41-.7-2,.47-.11.89-.53,1.48-1.23.23-.27.66-.82,1.2-1.58a6.94,6.94,0,0,0-2.13.42,19.63,19.63,0,0,0-.67-1.86,2.36,2.36,0,0,0,1.09-1,21.93,21.93,0,0,0,2.26-4.67l1.95.81a26.36,26.36,0,0,1-2.54,4.54l1.25-.09a26.26,26.26,0,0,0,1.28-2.47l1.86,1.14a34.14,34.14,0,0,1-3.88,5.66l2-.25c-.14-.51-.31-1-.46-1.48l1.62-.51a28.18,28.18,0,0,1,1.17,3.91Zm-3.17,1a22.23,22.23,0,0,1-.87,4.86,11.54,11.54,0,0,0-1.77-.64,16.86,16.86,0,0,0,.8-4.51Zm1.94-.32a36.61,36.61,0,0,1,.51,3.91l-1.73.34a34.68,34.68,0,0,0-.4-3.93Zm1.88-.59a25.36,25.36,0,0,1,.87,2.89l-1.59.57a22.07,22.07,0,0,0-.82-3Zm11.34,3.38v2.07H778v-2.07h4.29v-2.62h-3.42v-2h9.21v2h-3.51v2.62ZM782,1938.71c-.57,1-1.21,2.06-1.82,3a20.51,20.51,0,0,1,2,3l-1.81.7a19.25,19.25,0,0,0-2.24-3.7,27.93,27.93,0,0,0,2-3.44Zm6.63-.75H778.4v-2h10.24Zm-5.07,7.37a19.84,19.84,0,0,0-2.3-3.67,30.75,30.75,0,0,0,2-3.36l1.89.43c-.56,1-1.23,2-1.82,2.91a23.37,23.37,0,0,1,2,2.94Zm3.34.07a18.65,18.65,0,0,0-2.5-3.7,31.12,31.12,0,0,0,2.09-3.44l1.93.45c-.59,1-1.27,2.06-1.9,3a21.4,21.4,0,0,1,2.17,3Z"/><path d="M777.19,1970l3.64-.4,0,2c-3.27.42-6.8.8-9.31,1.06l-.28-2c1.06-.09,2.39-.21,3.82-.36v-1.43h-2.85v-1.82h2.85v-1.27h-3.21v-1.83h2.05a10.77,10.77,0,0,0-1.22-1.8l1-.53h-2.37v-1.86h2.58v-.9l-1,.69a9.37,9.37,0,0,0-1.56-2.28l1.37-.9a14.47,14.47,0,0,1,1.16,1.39v-2h1.77v4h.87v-4h1.81v2.2a10.72,10.72,0,0,0,1-1.48l1.77,1c-.76.82-1.56,1.63-2.17,2.18l-.62-.39v.55h2.47v1.86h-2.47l1.29.45c-.33.65-.69,1.3-1,1.88h1.67v1.83h-3.09v1.27H780v1.82h-2.85Zm-2.62-8.47a7.11,7.11,0,0,1,1.1,1.69l-1.12.64h2a15.29,15.29,0,0,0,1-2.33Zm14,1h-1.44v8.28c0,1.16-.23,1.73-.93,2.09a6.66,6.66,0,0,1-3.15.44,10.24,10.24,0,0,0-.76-2.15c1,0,1.92,0,2.22,0s.44-.1.44-.42v-8.28h-4.09v-2.11H785v-4.75h2.18v4.75h1.44Zm-6.13,6a15.21,15.21,0,0,0-1.37-4.29l1.86-.63a14.24,14.24,0,0,1,1.5,4.22Z"/><path d="M777.19,1976.74a29.73,29.73,0,0,1-1.81,3.89v13.07h-2.16V1984a17.42,17.42,0,0,1-1.28,1.54,15.07,15.07,0,0,0-1.21-2.36,19.86,19.86,0,0,0,4.31-7.1Zm6.72,4.74v9.73c0,1.08-.19,1.71-.87,2.09a6,6,0,0,1-2.79.46,7.8,7.8,0,0,0-.78-2.28c.79,0,1.59,0,1.86,0s.34-.08.34-.33v-9.69h-2.2a16.28,16.28,0,0,1-1.79,2.91,15.84,15.84,0,0,0-1.82-1.48,17,17,0,0,0,3.23-6.84l2.2.49c-.25,1-.55,1.9-.89,2.83h6.53l.36-.07,1.6.3c-.23,1.54-.55,3.31-.82,4.41l-1.92-.32c.1-.59.21-1.39.31-2.23Zm-3.15,3.42a19.33,19.33,0,0,1-2.59,6.35,14.11,14.11,0,0,0-1.93-1.22,13.65,13.65,0,0,0,2.31-5.58Zm5.85-.64a23.46,23.46,0,0,1,2.07,6.19l-2.17.74a23.77,23.77,0,0,0-1.91-6.25Z"/><path d="M788.07,2001a15.7,15.7,0,0,1-2.87,4.79c.46,3.57,1.14,6.11,1.73,6.11.27,0,.44-1,.5-3a4.62,4.62,0,0,0,1.67,1.24c-.32,3.13-.93,4-2.45,4s-2.72-2.74-3.35-6.5c-.36.29-.74.53-1.12.78a10.38,10.38,0,0,0-.78-.85h-2.24a26.87,26.87,0,0,1,1.47,2.62l-1.49.8a20.1,20.1,0,0,0-1.06-2.19v3.19c0,.5.08.55.55.55H780c.44,0,.53-.28.57-2a4.38,4.38,0,0,0,1.21.55c-.26-.64-.53-1.29-.77-1.86l1.48-.57c.6,1.29,1.35,3,1.71,4l-1.6.68a15.24,15.24,0,0,0-.53-1.56c-.21,1.75-.7,2.24-1.88,2.24h-1.84c-1.68,0-2.06-.49-2.06-2v-3.23h1.77l-.36-.64,1.18-.57h-3.65v-4.39h6.19v3.25a10.47,10.47,0,0,0,1.54-1.18c-.19-1.65-.3-3.42-.4-5.17h-7.81v.82H782v1.5h-7.28c0,3.38-.37,8.51-2,11.91a7.09,7.09,0,0,0-1.8-1.18c1.59-3.28,1.74-8,1.74-11.19v-3.64h9.83c0-.59,0-1.18,0-1.77h2.18v.61l1.2-.84c.61.44,1.46,1.06,1.9,1.46l-.7.54h1.52V2000h-3.86c0,1,.09,1.94.17,2.87a11.09,11.09,0,0,0,1.16-2.37Zm-14.21,11.91a35,35,0,0,0,.86-4.22l1.44.55c-.19,1.2-.49,3.08-.74,4.26Zm5.8-8.3h-2.59V2006h2.59Zm6.17-6.4c-.36-.33-.8-.67-1.18-1v1Z"/><path d="M777.76,2030.81c1.19-.21,2.43-.42,3.63-.61l.11,1.94c-3.33.64-6.92,1.29-9.5,1.74l-.49-2.09c1.14-.15,2.56-.37,4.1-.62v-2.59h-3.46v-1.95h3.46v-1.69h2.15v1.69h3.42v1.95h-3.42ZM771.7,2018h9.88v1.94H778.9a22,22,0,0,1,2.64,4l-1.71,1.12c-.12-.28-.27-.61-.44-1-5.24.44-6.06.53-6.61.76-.13-.46-.49-1.46-.72-2.05a1.87,1.87,0,0,0,.87-.8,15,15,0,0,0,1.18-2.13H771.7Zm6.65,4.43c-.36-.55-.75-1.08-1.11-1.56l1.6-.93h-2.28a23.47,23.47,0,0,1-1.65,2.68Zm6.06,7.69h-2.09v-11.47h2.09Zm3.74-13v14.71c0,1.19-.23,1.76-.95,2.12a8.14,8.14,0,0,1-3.29.42,8.59,8.59,0,0,0-.76-2.16c1,0,2,0,2.36,0s.43-.11.43-.43v-14.69Z"/><path d="M773.41,2050.11v1.39h-1.73v-12.67h4.77v11.28Zm0-9.27v7.26h1.27v-7.26Zm2.5,12.69a10.18,10.18,0,0,0,1.71-3.53l1.77.7a13.81,13.81,0,0,1-1.67,3.8Zm7.85-.7c.46,0,.55-.15.61-1.43a4.34,4.34,0,0,0,1.75.74c-.21,2-.76,2.51-2.15,2.51H781.9c-1.9,0-2.32-.57-2.32-2.32v-2.43h1.84a6.78,6.78,0,0,0-.7-.53l.72-.63h-4.56v-1.86h3.25v-1.46h-2.49v-4.3h2.51v-1.34h-3v-1.85h11.47v1.85h-3.19v1.34H788v4.3h-2.59v1.46h3.48v1.86h-6.08a10.75,10.75,0,0,1,1.88,1.69l-1.4,1.28a10.38,10.38,0,0,0-1.73-1.71v2.31c0,.46.07.52.64.52Zm-.38-5.95v-3h2.72v-1.18h-2.72v-2.9h-1.23v2.9h-2.66v1.18h2.66v3Zm3.36,2.85a13.72,13.72,0,0,1,2.24,3.67l-1.78.93a14.17,14.17,0,0,0-2.13-3.76Z"/><path d="M774.91,2064.65a50.12,50.12,0,0,1-1.39,7.88l-2.28-.91a36.22,36.22,0,0,0,1.46-7.39Zm3.57-1.54v8.81c0,.9.15,1,1.06,1h2.72c1,0,1.12-.61,1.25-3.57a7,7,0,0,0,2.13.95c-.26,3.61-.87,4.73-3.21,4.73h-3.15c-2.47,0-3.16-.76-3.16-3.16v-8.81Zm-.17-5.11a34.12,34.12,0,0,1,5.26,3.93l-1.67,1.77a32.77,32.77,0,0,0-5.13-4.16Zm8.28,5.62a35.53,35.53,0,0,1,2.45,7.07l-2.3.95a31.74,31.74,0,0,0-2.26-7.16Z"/><path d="M777.19,2078.86a29.73,29.73,0,0,1-1.81,3.89v13.08h-2.16v-9.71a19,19,0,0,1-1.28,1.54,14.64,14.64,0,0,0-1.21-2.36,20,20,0,0,0,4.31-7.1Zm6.72,4.75v9.73c0,1.08-.19,1.71-.87,2.09a6,6,0,0,1-2.79.45,8,8,0,0,0-.78-2.28c.79,0,1.59,0,1.86,0s.34-.08.34-.32v-9.69h-2.2a16.65,16.65,0,0,1-1.79,2.91,17,17,0,0,0-1.82-1.49,16.89,16.89,0,0,0,3.23-6.83l2.2.49c-.25,1-.55,1.9-.89,2.83h6.53l.36-.08,1.6.31c-.23,1.54-.55,3.3-.82,4.41l-1.92-.33c.1-.59.21-1.38.31-2.22Zm-3.15,3.42a19.36,19.36,0,0,1-2.59,6.34,13.17,13.17,0,0,0-1.93-1.21,13.69,13.69,0,0,0,2.31-5.59Zm5.85-.65a23.63,23.63,0,0,1,2.07,6.2l-2.17.74a23.66,23.66,0,0,0-1.91-6.25Z"/><path d="M783.09,2111.2a12.16,12.16,0,0,0,.23,1.5c-2.58.7-3.64,1-4.18,1.23.71.06,1.5.08,2.32.08a62.57,62.57,0,0,0,7.68-.5,8.78,8.78,0,0,0-.65,2.32c-1.58.1-4.92.23-7.14.23-2.51,0-4.13-.21-5.49-1-.78-.43-1.47-1.06-1.86-1.06s-1.11,1.29-1.58,2.37l-1.5-2.14a7.64,7.64,0,0,1,2.05-1.85,21.58,21.58,0,0,0,1-3.26H771.6c.46-1.14,1-2.64,1.43-4.13h-1.75v-2h4.5c-.4,1.35-.89,2.87-1.35,4.18h.69l.34-.08.95.35a28.65,28.65,0,0,1-.74,3,19.5,19.5,0,0,0,4.54-1.35h-2.83v-3.5h9.76v3.5h-.4l1.07.68c-.54.38-1.12.78-1.69,1.1.79.48,1.53.93,2,1.28l-1.1,1.38c-1-.83-3.21-2.18-4.75-3.13l1-1.18,1.37.82c.46-.31.93-.65,1.31-.95h-3.09a11.75,11.75,0,0,1-2.28,1.52v1.19Zm-9.8-8.78c-.21-.86-.72-2.22-1-3.25l2-.61c.36,1,.86,2.3,1.12,3.14Zm5.46,9a17.46,17.46,0,0,1-2,.57,8.6,8.6,0,0,0-1.12-1.48,15.11,15.11,0,0,1-.67,1.83c.33.2.69.47,1.16.76a7.05,7.05,0,0,0,2.45.76,4,4,0,0,0-.55-1.18,1,1,0,0,0,.69-1.1Zm9.85-6.42H775.88v-1.56H788.6Zm-.87-2.14h-10.9v-3.82h10.9Zm-7.85-2.57h-1.15v1.31h1.15Zm-.41,7.54h5.43v-1h-5.43Zm3.34-7.54h-1.22v1.31h1.22Zm2.91,0H784.5v1.31h1.22Z"/><path d="M779,2131.72a24.38,24.38,0,0,1-5.74,5,16.72,16.72,0,0,0-1.88-1.58,17.3,17.3,0,0,0,5.23-4.4Zm7.71-11.36v9.08H773.33v-9.08Zm-11.07,6.93h8.62v-4.77h-8.62Zm7.71,3.42a40.89,40.89,0,0,1,5.17,4.62l-2.13,1.33a34.12,34.12,0,0,0-5-4.79Z"/><path d="M779.5,2155.05c0,.93-.17,1.4-.79,1.71a6.72,6.72,0,0,1-2.63.32,6.1,6.1,0,0,0-.68-1.77c.68,0,1.43,0,1.65,0s.33-.07.33-.32v-1.94c-1,.69-1.9,1.33-2.76,1.88l-.47-1.33a8.38,8.38,0,0,1-1.35,3.57,9.41,9.41,0,0,0-1.58-1.52c1-1.48,1.08-3.57,1.08-5.22v-4.27h7.2Zm-1.06-14.25a39.23,39.23,0,0,1,2.26,4.37l-2,.8c-.12-.34-.29-.74-.48-1.2-4.81.48-5.58.59-6.13.82-.12-.44-.48-1.47-.71-2a2.16,2.16,0,0,0,1.05-.76,15.75,15.75,0,0,0,2.24-3.38l2.28.65a21.26,21.26,0,0,1-2.34,3.15l2.78-.21-.8-1.53Zm-4.05,9.69a21.23,21.23,0,0,1-.13,2.43c.86-.38,2-1,3.12-1.56v-.62l-.92.89a22.61,22.61,0,0,0-2.07-1.82Zm0-2.39v1.34l1-.81c.65.45,1.47,1.12,2,1.61v-2.14Zm9.39-.33c-2.28,0-2.89-.83-2.89-2.94v-5.4h2.24v2.24h4.68v1.94h-4.68v1.26c0,.7.12,1,.73,1h2.77a9.43,9.43,0,0,0,1.75-.15c0,.59.13,1.41.2,1.92a7.63,7.63,0,0,1-1.91.17Zm2.39,7.26c.65,0,.78-.32.88-2.07a6.29,6.29,0,0,0,2,.82c-.22,2.48-.81,3.22-2.62,3.22h-2.7c-2.24,0-2.79-.66-2.79-2.73v-6h2.24v1.9h4.81v2h-4.81v2.07c0,.66.14.76.88.76Z"/><path d="M788.13,2170.63a38,38,0,0,1-3.4,2.22,10.83,10.83,0,0,0,4.29,2.28,9.18,9.18,0,0,0-1.48,2c-3.93-1.35-6.29-4.11-7.71-8a19.48,19.48,0,0,1-2.45,2.11v3.23l4.1-1.12a12.6,12.6,0,0,0,.38,2c-5.43,1.62-6.29,1.88-6.86,2.22a7.22,7.22,0,0,0-.93-2,1.64,1.64,0,0,0,.95-1.5v-1.39a18.51,18.51,0,0,1-2.6,1.16A10.69,10.69,0,0,0,771,2172a19.79,19.79,0,0,0,6.06-3.12h-5.4V2167h7.2v-1.06h-5.45v-1.81h5.45v-1h-6.38v-1.92h6.38v-1.37h2.28v1.37h6.61v1.92H781.1v1H787v1.81H781.1V2167h7.26v1.92H782a10.22,10.22,0,0,0,1.47,2.58,23.55,23.55,0,0,0,2.81-2.22Z"/><path d="M778.37,2193.31l-6.9,2-.57-2.13c.76-.17,1.69-.42,2.72-.68v-3.82h-2.11v-2.07h2.11v-3.31h-2.28v-2.09H778v2.09H775.8v3.31h2v2.07h-2V2192l2.26-.63Zm8.43,2.65c.34,0,.42-.31.46-2.21a5.94,5.94,0,0,0,1.88.84c-.19,2.6-.69,3.3-2.09,3.3h-1.43c-1.75,0-2.13-.64-2.13-2.56v-3.73h-1.16c-.34,3.1-1.21,5.31-5.26,6.5a6.68,6.68,0,0,0-1.25-1.86c3.44-.86,4-2.41,4.29-4.64h-1.38V2181H788v10.63h-2.34v3.73c0,.55,0,.63.36.63Zm-6-12h5v-1.18h-5Zm0,2.88h5v-1.17h-5Zm0,2.89h5v-1.18h-5Z"/><path d="M779.41,2203.79l.66,0v2.11l-.65,0a16,16,0,0,1-1.81,7.51c.95.85,1.81,1.67,2.4,2.31l-1.69,1.71a24.81,24.81,0,0,0-2-2.12,13.48,13.48,0,0,1-3.68,3,7.61,7.61,0,0,0-1.6-1.71,11.66,11.66,0,0,0,3.59-3c-1-.95-2.12-1.9-3.06-2.73.38-1.26.76-2.89,1.09-4.62l-1.39.09-.23-2.24,2-.09c.17-1.14.3-2.28.38-3.33l2.41.14c-.11,1-.27,2-.44,3.07l1.83-.09V2203h2.22Zm-4.43,2.43c-.28,1.46-.6,2.9-.91,4.16.55.47,1.16,1,1.75,1.5a13.56,13.56,0,0,0,1.35-5.82Zm12.94-3.59v15h-2.24v-1.11h-3v1.41h-2.15v-15.27Zm-2.24,11.72v-9.6h-3v9.6Z"/><path d="M780.57,2234.81l.15,2.22c-3.19.61-6.67,1.24-9.16,1.71l-.36-2.39,1.39-.21V2225h2.24v10.77l1.35-.23v-14.46h2.39v5.61h2.11v2.16h-2.11v6.29Zm5.58,1.39c.61,0,.73-.67.82-3.14a7.66,7.66,0,0,0,2.17,1c-.25,3.15-.84,4.35-2.76,4.35h-2.32c-2.09,0-2.69-.78-2.69-3.46v-13.85h2.39v5.61h4.29v2.16h-4.29V2235c0,1,.08,1.2.68,1.2Z"/><path d="M777.92,2260.14c1.46-.55,2.28-1.5,2.28-2.61H780a1.64,1.64,0,0,1-1.75-1.65,1.68,1.68,0,0,1,1.8-1.65c1.3,0,2,1,2,2.75a4.79,4.79,0,0,1-3.59,4.68Z"/><path d="M787.94,2282.42a18.92,18.92,0,0,1-3.15,4.16c.51,1.47,1.1,2.34,1.67,2.34.4,0,.62-.91.72-3.15a5.78,5.78,0,0,0,1.86,1.29c-.36,3.32-1.06,4.16-2.79,4.16-1.39,0-2.45-1.14-3.27-3a20.11,20.11,0,0,1-3.51,2.32,10.23,10.23,0,0,0-1.5-1.83,18.92,18.92,0,0,0,4.23-2.68,35.2,35.2,0,0,1-1-5.09h-3.85v2.17l2.92-.53.17,2.05-3.09.63v3.24c0,1.24-.27,1.85-1,2.21a8.18,8.18,0,0,1-3.42.43,8.57,8.57,0,0,0-.8-2.27c1.07.05,2.17,0,2.51,0s.46-.09.46-.39v-2.76l-3.4.68-.55-2.28c1.08-.17,2.45-.38,4-.64v-2.55h-3.59v-2.14h3.59v-2.17c-1,.17-2.07.3-3,.42a8.71,8.71,0,0,0-.65-1.9,47.53,47.53,0,0,0,7.54-1.6l1.52,1.92c-1,.29-2,.53-3.09.76v2.57H781c-.15-1.71-.2-3.48-.22-5.21h2.37a46.94,46.94,0,0,0,.19,5.21h5.17v2.14h-4.94c.15,1.14.34,2.24.55,3.21a15.52,15.52,0,0,0,1.8-2.58Zm-1.39-4.17a14.89,14.89,0,0,0-2.69-3.14l1.7-1.16a16.6,16.6,0,0,1,2.82,3Z"/><path d="M788.05,2304a11.59,11.59,0,0,1-2.33,4.39,10.71,10.71,0,0,0,3.24,1.33,7.52,7.52,0,0,0-1.32,1.75,10.3,10.3,0,0,1-3.42-1.67,13,13,0,0,1-3.33,1.82,8.27,8.27,0,0,0-1.12-1.67v1.69h-2.11V2310c-2.2.25-4.41.46-6.12.65l-.17-1.94c.5,0,1-.07,1.66-.13v-5.76h-1.49V2301h16.87v1.78h-8.64v7a9.33,9.33,0,0,0,2.87-1.44,11.29,11.29,0,0,1-1.82-2.91l.68-.19h-1.14v-1.72h5.93l.36-.08Zm-12.12-3.55h-2.16v-6h12.48v6H784V2296h-8Zm-.89,2.37v.78h2.62v-.78Zm0,3.1h2.62v-.76H775Zm0,2.47c.84-.08,1.75-.15,2.62-.25v-.66H775Zm8.23-10.34h-6.75v-1.31h6.75Zm-6.73,2v-1.31h6.73V2300Zm6.25,5.18a7.28,7.28,0,0,0,1.29,1.79,7.08,7.08,0,0,0,1.24-1.79Z"/><path d="M788.68,2315.9v1.94H776v4.09c0,3-.4,7.4-2.89,10a6.94,6.94,0,0,0-1.59-1.52,9,9,0,0,0,2.13-4.75c-.71.44-1.41.85-2.09,1.25l-.65-2.09c.78-.32,1.84-.83,3-1.42,0-.5,0-1,0-1.48v-.78l-1.63.85a16.28,16.28,0,0,0-1.24-3.63l1.66-.83a17.9,17.9,0,0,1,1.21,2.92v-4.56h6.31a11.34,11.34,0,0,0-.7-1.25l2.18-.57a11.45,11.45,0,0,1,1.08,1.82Zm-.76,14.18c0,.93-.19,1.31-.82,1.59a6.78,6.78,0,0,1-2.6.29,6.12,6.12,0,0,0-.57-1.62c.63,0,1.35,0,1.56,0s.32-.08.32-.28V2329h-2.47v2.78h-2.07V2329h-2.43v3h-2.07v-9.75h4.14c-.76-.34-1.54-.67-2.26-.91l1.25-1.2c.76.27,1.64.63,2.47,1a15.15,15.15,0,0,0,1.56-1h-6.55v-1.56h8.53l.47-.11,1.27,1.16a30,30,0,0,1-3.51,2.3c.25.11.46.23.66.34h3.12Zm-9.08-6.22v1h2.43v-1Zm2.43,3.56v-1h-2.43v1Zm4.54-3.56h-2.47v1h2.47Zm0,3.56v-1h-2.47v1Z"/><path d="M770.86,2343.4a22.3,22.3,0,0,0,.93-5l1.69.23a25.24,25.24,0,0,1-.85,5.35Zm17.48,2.56c-.89.7-2,1.46-2.83,2a2.4,2.4,0,1,1,1.86,4.43c-3.12-1.54-4.83-4.43-5.85-8.23H780.3v5.27l2.89-.63a13.89,13.89,0,0,0,.1,2.11c-3.9,1-4.64,1.27-5.12,1.58a6.07,6.07,0,0,0-1-1.77,1.9,1.9,0,0,0,.89-1.65v-7.49l-1.58.7a17.41,17.41,0,0,0-.85-2.77v12.92H773.5v-17.76h2.17v3.62l1.19-.47a21.56,21.56,0,0,1,1.24,3.19v-5.57h9.1v8.72h-3.73a13.61,13.61,0,0,0,1,2.26,16.7,16.7,0,0,0,2.42-2.07Zm-8-8.57v1.48H785v-1.48Zm0,4.85H785v-1.54h-4.7Z"/><path d="M788.4,2358s0,.76,0,1c-.25,8.49-.46,11.51-1.24,12.52a2.52,2.52,0,0,1-1.82,1,20.3,20.3,0,0,1-3,0,5.22,5.22,0,0,0-.74-2.2c1.22.11,2.34.11,2.83.11a1,1,0,0,0,.84-.32c.55-.61.8-3.46,1-10.16H782.2a16.17,16.17,0,0,1-1.67,3,14.33,14.33,0,0,0-1.46-1.07v8.88H774v1.38h-2.06v-14.11h2.15a19.37,19.37,0,0,0,.55-3.06l2.47.34c-.32.95-.66,1.9-1,2.72h3v3.08a19.75,19.75,0,0,0,2.56-6.12l2.15.49A22.36,22.36,0,0,1,783,2358ZM777,2360.15h-3v3.08h3Zm0,8.76v-3.72h-3v3.72Zm6.3-1a39.82,39.82,0,0,0-2.64-4.39l1.77-1a46.13,46.13,0,0,1,2.79,4.22Z"/><path d="M781.12,2375.56c0,.8-.06,1.83-.13,3,.26,2.56,1.42,9.72,8,12.65a6,6,0,0,0-1.65,2,14.71,14.71,0,0,1-7.43-9,15.48,15.48,0,0,1-7,9.1,7.18,7.18,0,0,0-1.88-1.84c7.71-4.12,7.35-12.64,7.43-15.85Z"/><path d="M781.35,2411.26c.49,0,1,.06,1.52.06,1.06,0,4.71,0,6.06-.06a7.43,7.43,0,0,0-.76,2.17h-5.42c-3.47,0-5.83-.5-7.42-2.7a8.66,8.66,0,0,1-2.66,3,9.63,9.63,0,0,0-1.71-1.58,8,8,0,0,0,3.53-5.75l2.26.34c-.13.61-.29,1.18-.44,1.73a4.18,4.18,0,0,0,2.74,2.37V2406h-7.41v-2H788.4v2h-7v1.42h5.85v2h-5.85Zm5.24-8.05h-13.2v-6.59h13.2Zm-2.3-5h-8.7v1h8.7Zm0,2.45h-8.7v1h8.7Z"/><path d="M787.94,2425.4a18.92,18.92,0,0,1-3.15,4.16c.51,1.46,1.1,2.34,1.67,2.34.4,0,.62-.92.72-3.16A5.81,5.81,0,0,0,789,2430c-.36,3.32-1.06,4.16-2.79,4.16-1.39,0-2.45-1.14-3.27-3a19.56,19.56,0,0,1-3.51,2.32,10.18,10.18,0,0,0-1.5-1.82,19.67,19.67,0,0,0,4.23-2.68,35.2,35.2,0,0,1-1-5.09h-3.85v2.16l2.92-.53.17,2-3.09.63v3.25c0,1.23-.27,1.84-1,2.2a8.15,8.15,0,0,1-3.42.44,8.63,8.63,0,0,0-.8-2.28c1.07.06,2.17,0,2.51,0s.46-.1.46-.4v-2.75l-3.4.68-.55-2.28c1.08-.17,2.45-.38,4-.65v-2.54h-3.59v-2.15h3.59v-2.16c-1,.17-2.07.3-3,.41a8.89,8.89,0,0,0-.65-1.9,48.74,48.74,0,0,0,7.54-1.59l1.52,1.92c-1,.28-2,.53-3.09.76v2.56H781c-.15-1.71-.2-3.48-.22-5.2h2.37a46.75,46.75,0,0,0,.19,5.2h5.17v2.15h-4.94c.15,1.14.34,2.24.55,3.21a15.6,15.6,0,0,0,1.8-2.59Zm-1.39-4.18a15.11,15.11,0,0,0-2.69-3.13l1.7-1.16a16,16,0,0,1,2.82,3Z"/><path d="M787,2439.27v15.26h-2.41v-.94h-9v.95h-2.3v-15.27h4.87a20.42,20.42,0,0,0,.51-2.49l2.74.31c-.29.76-.59,1.5-.9,2.18Zm-11.44,2.17v1.95h9v-1.95Zm0,4v2h9v-2Zm9,6v-2h-9v2Z"/><path d="M784.1,2472.38c1.9,0,2.17-.47,2.41-3.21a8.34,8.34,0,0,0,2.3.86c-.41,3.63-1.25,4.62-4.65,4.62H778c-3.55,0-4.71-.69-4.71-3.4v-6.84h10.83v-3.77H773.06v-2.31h13.47v9.38h-2.41v-1.08h-8.47v4.58c0,1,.34,1.17,2.37,1.17Z"/><path d="M777.92,2496.29c1.46-.55,2.28-1.5,2.28-2.61H780a1.64,1.64,0,0,1-1.75-1.65,1.68,1.68,0,0,1,1.8-1.65c1.3,0,2,1,2,2.75a4.79,4.79,0,0,1-3.59,4.68Z"/><path d="M779.41,2512.69l.66,0v2.11l-.65,0a16,16,0,0,1-1.81,7.51c.95.85,1.81,1.67,2.4,2.32l-1.69,1.7a26.39,26.39,0,0,0-2-2.12,13.48,13.48,0,0,1-3.68,3,7.61,7.61,0,0,0-1.6-1.71,11.52,11.52,0,0,0,3.59-3c-1-.95-2.12-1.9-3.06-2.73.38-1.26.76-2.89,1.09-4.62l-1.39.1-.23-2.25,2-.09c.17-1.14.3-2.28.38-3.33l2.41.14c-.11,1-.27,2-.44,3.07l1.83-.09v-.89h2.22Zm-4.43,2.43c-.28,1.46-.6,2.9-.91,4.16l1.75,1.5a13.49,13.49,0,0,0,1.35-5.81Zm12.94-3.59v15h-2.24v-1.1h-3v1.4h-2.15v-15.27Zm-2.24,11.72v-9.59h-3v9.59Z"/><path d="M782.89,2542a18.48,18.48,0,0,0,6.15,3.19,9.24,9.24,0,0,0-1.52,1.92,19.17,19.17,0,0,1-6.29-4v4.67h-2.39v-4.58a18.32,18.32,0,0,1-6.33,4.07,11.19,11.19,0,0,0-1.54-1.89,16.87,16.87,0,0,0,6.22-3.34h-5.63v-2.07h7.28v-1.12h-5.43v-7.94h13.33v7.94h-5.51v1.12h7.26V2542Zm-7.11-8h3.06v-1.22h-3.06Zm3.06,3v-1.22h-3.06v1.22Zm5.41-4.18h-3V2534h3Zm0,3h-3v1.22h3Z"/><path d="M777.19,2551.16a30.47,30.47,0,0,1-1.81,3.9v13.07h-2.16v-9.71a19,19,0,0,1-1.28,1.54,14.64,14.64,0,0,0-1.21-2.36,20,20,0,0,0,4.31-7.1Zm6.72,4.75v9.73c0,1.08-.19,1.71-.87,2.09a6,6,0,0,1-2.79.45,8,8,0,0,0-.78-2.28c.79,0,1.59,0,1.86,0s.34-.07.34-.32v-9.69h-2.2a16.65,16.65,0,0,1-1.79,2.91,4.35,4.35,0,0,1,1.41-8.32l2.2.49c-.25,1-.55,1.9-.89,2.83h6.53l.36-.08,1.6.31c-.23,1.54-.55,3.3-.82,4.41l-1.92-.33c.1-.59.21-1.38.31-2.22Zm-3.15,3.42a19.27,19.27,0,0,1-2.59,6.34,13.17,13.17,0,0,0-1.93-1.21,13.69,13.69,0,0,0,2.31-5.59Zm5.85-.65a23.63,23.63,0,0,1,2.07,6.2l-2.17.74a23.66,23.66,0,0,0-1.91-6.25Z"/><path d="M779.5,2586.5c0,.93-.17,1.41-.79,1.71a6.72,6.72,0,0,1-2.63.32,5.94,5.94,0,0,0-.68-1.76c.68,0,1.43,0,1.65,0s.33-.07.33-.32v-1.94c-1,.69-1.9,1.33-2.76,1.88l-.47-1.33a8.43,8.43,0,0,1-1.35,3.58,8.68,8.68,0,0,0-1.58-1.52c1-1.49,1.08-3.58,1.08-5.23v-4.27h7.2Zm-1.06-14.25a39.23,39.23,0,0,1,2.26,4.37l-2,.8c-.12-.34-.29-.74-.48-1.2-4.81.48-5.58.59-6.13.82-.12-.44-.48-1.46-.71-2a2.3,2.3,0,0,0,1.05-.76,16,16,0,0,0,2.24-3.38l2.28.64a21.26,21.26,0,0,1-2.34,3.15l2.78-.2c-.29-.56-.56-1.09-.8-1.54Zm-4.05,9.69a21.23,21.23,0,0,1-.13,2.43c.86-.38,2-.95,3.12-1.56v-.62l-.92.89a26.11,26.11,0,0,0-2.07-1.82Zm0-2.39v1.35l1-.82c.65.45,1.47,1.12,2,1.61v-2.14Zm9.39-.33c-2.28,0-2.89-.83-2.89-2.94v-5.4h2.24v2.25h4.68v1.93h-4.68v1.26c0,.7.12,1,.73,1h2.77a9.4,9.4,0,0,0,1.75-.16c0,.59.13,1.41.2,1.92a7.19,7.19,0,0,1-1.91.17Zm2.39,7.26c.65,0,.78-.32.88-2.07a6.29,6.29,0,0,0,2,.82c-.22,2.49-.81,3.23-2.62,3.23h-2.7c-2.24,0-2.79-.67-2.79-2.74v-6h2.24v1.9h4.81v2h-4.81v2.07c0,.67.14.76.88.76Z"/><path d="M776.9,2600.9c0,.27-.07.53-.13.78,1,1,3,3.34,3.57,4l-1.52,1.9c-.63-1-1.71-2.41-2.64-3.57a10.21,10.21,0,0,1-3.59,5,8.19,8.19,0,0,0-1.62-1.71,8.87,8.87,0,0,0,3.65-6.35h-3.36v-2.13h3.51v-3H774a12.9,12.9,0,0,1-1.29,2.55,12.56,12.56,0,0,0-1.82-1.31,14.24,14.24,0,0,0,2.13-5.72l2.16.44c-.13.66-.28,1.31-.47,1.95h5v2.09h-2.68v3h3.12v2.13Zm11-8v15.28h-2.3v-1.08h-2.75v1.36h-2.19V2592.9Zm-2.3,12.07V2595h-2.75V2605Z"/><path d="M776.48,2620.57a24.41,24.41,0,0,1-1.48,4.94c.29.19.65.45,1.16.76,1.29.77,3.08.89,5.3.89a65.23,65.23,0,0,0,7.7-.49,8.07,8.07,0,0,0-.67,2.31c-1.56.1-4.92.23-7.14.23-2.51,0-4.13-.21-5.49-1-.8-.43-1.47-1.06-1.86-1.06s-1.11,1.29-1.58,2.37l-1.5-2.14a8.28,8.28,0,0,1,2-1.83,20.33,20.33,0,0,0,1.09-3.28h-2.4c.44-1.12.95-2.64,1.39-4.12h-1.71v-2h4.43c-.4,1.33-.84,2.85-1.3,4.18h.76l.35-.07Zm-3.21-5c-.19-.85-.7-2.24-1-3.27l2-.61c.36,1,.84,2.3,1.1,3.16Zm7.55,1.14c0-.3.13-.61.19-.93h-4.56V2614H779a13.16,13.16,0,0,0-.89-1.5l1.79-.71a15.51,15.51,0,0,1,1.21,1.9l-.66.31h2.85a16,16,0,0,0,1.19-2.26l2.19.6-1.14,1.66h3v1.84h-5.13c-.15.34-.31.63-.46.93h4.12v9.18h-9.19v-9.18Zm4,1.6H780v1h4.84Zm0,2.46H780v1h4.84Zm0,2.47H780v1h4.84Z"/><path d="M787.94,2641.12a19.21,19.21,0,0,1-3.15,4.17c.51,1.46,1.1,2.33,1.67,2.33.4,0,.62-.91.72-3.15a5.78,5.78,0,0,0,1.86,1.29c-.36,3.32-1.06,4.16-2.79,4.16-1.39,0-2.45-1.14-3.27-3a20.11,20.11,0,0,1-3.51,2.32,10.59,10.59,0,0,0-1.5-1.83,18.92,18.92,0,0,0,4.23-2.68,35.2,35.2,0,0,1-1-5.09h-3.85v2.17l2.92-.53.17,2-3.09.63v3.24c0,1.24-.27,1.85-1,2.21a8.18,8.18,0,0,1-3.42.43,8.57,8.57,0,0,0-.8-2.27c1.07,0,2.17,0,2.51,0s.46-.09.46-.39v-2.76c-1.22.25-2.4.49-3.4.68l-.55-2.28c1.08-.17,2.45-.37,4-.64v-2.55h-3.59v-2.14h3.59v-2.17c-1,.17-2.07.3-3,.42a8.71,8.71,0,0,0-.65-1.9,47.53,47.53,0,0,0,7.54-1.6l1.52,1.92c-1,.29-2,.53-3.09.76v2.57H781c-.15-1.71-.2-3.48-.22-5.21h2.37a46.85,46.85,0,0,0,.19,5.21h5.17v2.14h-4.94c.15,1.14.34,2.24.55,3.21a15.52,15.52,0,0,0,1.8-2.58Zm-1.39-4.17a14.89,14.89,0,0,0-2.69-3.14l1.7-1.16a16.6,16.6,0,0,1,2.82,3Z"/><path d="M788.4,2655.47s0,.76,0,1c-.25,8.49-.46,11.51-1.24,12.52a2.52,2.52,0,0,1-1.82,1,20.3,20.3,0,0,1-3,0,5.22,5.22,0,0,0-.74-2.21c1.22.12,2.34.12,2.83.12a1,1,0,0,0,.84-.32c.55-.61.8-3.46,1-10.17H782.2a15.86,15.86,0,0,1-1.67,3,14.41,14.41,0,0,0-1.46-1.06v8.87H774v1.39h-2.06V2655.6h2.15a19.17,19.17,0,0,0,.55-3.06l2.47.35c-.32,1-.66,1.9-1,2.71h3v3.08a19.55,19.55,0,0,0,2.56-6.12l2.15.5a23.07,23.07,0,0,1-.74,2.41ZM777,2657.58h-3v3.08h3Zm0,8.76v-3.73h-3v3.73Zm6.3-1a40.77,40.77,0,0,0-2.64-4.39l1.77-1a46.08,46.08,0,0,1,2.79,4.21Z"/><path d="M788.13,2673.6v17.1h-2.47v-1H774.24v1h-2.35v-17.1Zm-2.47,14v-11.66H774.24v11.66Zm-1.84-9.42v7.22h-7.75v-7.22Zm-2.28,2h-3.35v3.29h3.35Z"/><path d="M781.65,2698.66c-.13.19-.28.36-.42.55a31.34,31.34,0,0,0,7.91,3.36,11.16,11.16,0,0,0-1.56,2,26.08,26.08,0,0,1-3.74-1.66v1.05h-7.62v-.78a22.92,22.92,0,0,1-3.74,1.65,8.91,8.91,0,0,0-1.41-1.84c3.59-1.08,6.92-3,8.59-5.19l1.27.55a13.27,13.27,0,0,0-1.58-1.46l.17-.15h-3.07a13.46,13.46,0,0,1,1.69,1.71l-1.66,1.41a12.41,12.41,0,0,0-1.88-2.09l1.3-1h-1.2a15.85,15.85,0,0,1-2.13,2.6,13.67,13.67,0,0,0-1.48-1.94,11.15,11.15,0,0,0,2.89-4.14l2.2.67c-.11.28-.25.57-.38.85h4.08v1.58a8.92,8.92,0,0,0,1.77-3.08l2.3.59c-.11.31-.23.61-.36.91h5v2h-3.76a9.53,9.53,0,0,1,1.56,1.56l-1.62,1.39a12.13,12.13,0,0,0-1.86-2.06l1.09-.89h-1.49a9.22,9.22,0,0,1-1.34,1.73Zm-7.29,6.3h11.32v6.14h-2.26v-.51h-6.9v.57h-2.16Zm2.16,1.94v1.73h6.9v-1.73Zm5.85-4.82c-.89-.53-1.71-1.07-2.39-1.56a17.89,17.89,0,0,1-2,1.56Z"/><path d="M777.92,2732.44c1.46-.55,2.28-1.5,2.28-2.61H780a1.64,1.64,0,0,1-1.75-1.65,1.68,1.68,0,0,1,1.8-1.65c1.3,0,2,1,2,2.75a4.79,4.79,0,0,1-3.59,4.68Z"/><path d="M779.18,2755.45a16.75,16.75,0,0,1,.8,2.09l-.76.26h.28v1.83c0,1.5-.38,2.9-2.77,3.74a5,5,0,0,0-1-1.25,3,3,0,0,0,1.84-1.12h-2.14v-2.87h1.37v1.61H778v-1.94h.83c0-.13-.07-.3-.11-.47a15.48,15.48,0,0,0-3.36.55v0a12.18,12.18,0,0,0-.38-1.25,2.47,2.47,0,0,0,1-.52,9.59,9.59,0,0,0,.82-.7,4.42,4.42,0,0,0-1.35.23v0a8.71,8.71,0,0,0-.45-1.29,1.17,1.17,0,0,0,.62-.34,5.69,5.69,0,0,0,1.12-1.35h-2.5v10.84H772v-17h7.33v6.18h-1.92l.71.38a10.9,10.9,0,0,1-1.31,1.4l1,0c.25-.28.48-.58.71-.87l1.1.76a17.75,17.75,0,0,1-2.47,2.2l1.18-.11c-.06-.21-.16-.42-.23-.61Zm-5-7.49v.9h3v-.9Zm0,3.14h3v-.88h-3Zm13.88,9.76c0,1.08-.15,1.71-.8,2.09a5.57,5.57,0,0,1-2.79.42,8.59,8.59,0,0,0-.47-1.84h-.92V2761H782v2.22h-1.58v-5.42h0c-.1-.3-.27-.85-.4-1.18a1.83,1.83,0,0,0,1-.51,8.7,8.7,0,0,0,.8-.7,4.42,4.42,0,0,0-1.35.23,7.37,7.37,0,0,0-.45-1.29,1.39,1.39,0,0,0,.62-.35,6.62,6.62,0,0,0,1.13-1.38h-1.16v-6.18h7.46Zm-3.53.32a8.28,8.28,0,0,0,1,0c.25,0,.33-.09.33-.34v-8.22h-3.44l.74.4a10.45,10.45,0,0,1-1.27,1.38l.93,0a10.77,10.77,0,0,0,.78-.91l1.08.78a22.62,22.62,0,0,1-2.45,2.26l1.16-.11c-.1-.21-.17-.42-.27-.61l1.07-.34a18.28,18.28,0,0,1,.89,2.09L784,2758c-.06-.18-.13-.4-.19-.63-2,.25-2.72.38-3.1.47H782v1.94h1.13v-1.61h1.45ZM782.75,2748v.9h3.14v-.9Zm0,3.14h3.14v-.88h-3.14Z"/><path d="M779,2773.25s0,.63,0,.89c-.11,5.7-.24,7.85-.74,8.52a1.71,1.71,0,0,1-1.23.81,10.93,10.93,0,0,1-1.92.08,5.5,5.5,0,0,0-.57-2c.55,0,1,.05,1.31.05a.58.58,0,0,0,.53-.28c.25-.38.38-1.88.46-6h-1.71c-.25,3.56-.84,6.48-2.47,8.55a6.55,6.55,0,0,0-1.63-1.69c1.86-2.43,2-6.17,2-11h-1.48v-2.09h3.34a13,13,0,0,0-1.22-2.28l2-.76a11.71,11.71,0,0,1,1.44,2.55l-1.21.49h3.57v2.09h-4.26c0,.72,0,1.39,0,2.07Zm6.39-6.61c-.14.46-.29.89-.46,1.33a11.94,11.94,0,0,0,4.29,4.67,9.16,9.16,0,0,0-1.61,1.79,14,14,0,0,1-3.67-4.29,12.82,12.82,0,0,1-3.83,4.42,7.62,7.62,0,0,0-1.56-1.78,11.57,11.57,0,0,0,4.75-6.73Zm-3.54,11.8a35.69,35.69,0,0,1,5.47,3.36l-1.57,1.94a31.91,31.91,0,0,0-5.32-3.63Zm3.08-.78a23.51,23.51,0,0,0-3.23-2.76l1.44-1.46a23.91,23.91,0,0,1,3.35,2.6Z"/><path d="M787.94,2795.58a19.15,19.15,0,0,1-3.15,4.16c.51,1.46,1.1,2.33,1.67,2.33.4,0,.62-.91.72-3.15a5.78,5.78,0,0,0,1.86,1.29c-.36,3.33-1.06,4.16-2.79,4.16-1.39,0-2.45-1.14-3.27-3a20.11,20.11,0,0,1-3.51,2.32,10.59,10.59,0,0,0-1.5-1.83,19.24,19.24,0,0,0,4.23-2.67,35.35,35.35,0,0,1-1-5.1h-3.85v2.17l2.92-.53.17,2.05-3.09.63v3.25c0,1.23-.27,1.84-1,2.2a8.32,8.32,0,0,1-3.42.44,8.51,8.51,0,0,0-.8-2.28c1.07.05,2.17,0,2.51,0s.46-.1.46-.4v-2.76c-1.22.25-2.4.5-3.4.69l-.55-2.28c1.08-.17,2.45-.38,4-.65v-2.55h-3.59V2792h3.59v-2.17c-1,.17-2.07.31-3,.42a8.71,8.71,0,0,0-.65-1.9,47.53,47.53,0,0,0,7.54-1.6l1.52,1.92c-1,.29-2,.54-3.09.76V2792H781c-.15-1.71-.2-3.48-.22-5.21h2.37a46.85,46.85,0,0,0,.19,5.21h5.17v2.14h-4.94c.15,1.14.34,2.25.55,3.21a15.52,15.52,0,0,0,1.8-2.58Zm-1.39-4.18a14.89,14.89,0,0,0-2.69-3.14l1.7-1.16a16.6,16.6,0,0,1,2.82,3Z"/><path d="M778.25,2811.4a11.11,11.11,0,0,1-.76,1.5h8.83v9.39c0,1.12-.2,1.73-1,2.07a8.42,8.42,0,0,1-3.37.38,8.94,8.94,0,0,0-.68-2.19c1,.06,2.07.06,2.39.06s.44-.11.44-.38v-1.14H777a6.59,6.59,0,0,1-2.11,3.78,8.11,8.11,0,0,0-1.63-1.73c1.63-1.42,1.76-3.45,1.76-5.22v-1.54a15.48,15.48,0,0,1-2.35,2.07,14.71,14.71,0,0,0-1.48-1.75,14.4,14.4,0,0,0,4.55-5.3H771.6v-2.12h5.09a22.07,22.07,0,0,0,.76-2.3l2.34.53c-.19.59-.4,1.18-.61,1.77h9.27v2.12Zm5.87,7.81V2818H777.3c0,.4,0,.79,0,1.23Zm0-4.31H777.3v1.2h6.82Z"/><path d="M788.6,2836.75c-2.67,5.77-8.91,7.77-16.14,8.45a9.2,9.2,0,0,0-.92-2.18,31.57,31.57,0,0,0,8.23-1.5,25.61,25.61,0,0,0-2-1.77,19,19,0,0,1-2.45,1,7.1,7.1,0,0,0-1.38-1.74,16.14,16.14,0,0,0,8-4.92l2.45.57c-.38.43-.74.85-1.16,1.27h3.4l.42-.11Zm-2.5-7c-2.45,4.37-7.85,6.72-13.32,7.75a8.51,8.51,0,0,0-1-2,26.1,26.1,0,0,0,5.61-1.44,24.5,24.5,0,0,0-1.86-1.71c-.55.3-1.12.59-1.73.85a7,7,0,0,0-1.54-1.61,16.2,16.2,0,0,0,6.59-4.24l2.43.57c-.32.35-.66.69-1,1h4l.4-.09Zm-8.32,1.19c-.18.14-.36.25-.56.38a15,15,0,0,1,2.15,1.85,12.69,12.69,0,0,0,3.14-2.23Zm3.05,7-1.1.75a18.54,18.54,0,0,1,2.23,1.88,10.25,10.25,0,0,0,3.19-2.63Z"/><path d="M774.05,2856.53a12.84,12.84,0,0,0-3-1.83l1.23-1.65a11.3,11.3,0,0,1,3,1.65Zm-2.64,7.69a55.25,55.25,0,0,0,2.45-6.1l1.83,1.18c-.63,2-1.47,4.22-2.25,6.08Zm11.78-10.1v.91h5.17v8.62c0,.89-.15,1.31-.72,1.6a5.76,5.76,0,0,1-2.44.3,5.83,5.83,0,0,0-.49-1.65c.59,0,1.22,0,1.41,0s.26-.06.26-.25v-1.25a4.16,4.16,0,0,0-.63.64,4.27,4.27,0,0,1-.83-1.65,4,4,0,0,1-1.18,1.71,2.87,2.87,0,0,0-.55-.66v3h-2v-3a4.48,4.48,0,0,0-.53.57,5,5,0,0,1-.8-1.57,4,4,0,0,1-1.13,1.8,4.24,4.24,0,0,0-.61-.7v3h-1.92V2855h5v-.91h-2.67v-3H776V2850l-1.2,1.63a11.34,11.34,0,0,0-2.94-1.92l1.27-1.67a14.22,14.22,0,0,1,2.87,1.65v-.46h2.59v-1.34h2.1v1.34h3.25v-1.34h2.21v1.34h2.6v2h-2.6v3Zm-2.7,3.41a9.81,9.81,0,0,0,.72,4v-4.61h-3.07v5.24a4.81,4.81,0,0,0,1-2.77h.39l0-.46h-.86v-1.39Zm.15-5.3h3.25v-1.08h-3.25Zm2.55,4.68v5a4.36,4.36,0,0,0,.95-2.54h.4l0-.46h-.87v-1.39h1.88a8.8,8.8,0,0,0,.87,4.18v-4.8Z"/><path d="M771.28,2884.44a9.33,9.33,0,0,0,2.35-3.23l1.89.83a11.73,11.73,0,0,1-2.36,3.5Zm17-10.28H771.81v-1.75h4a7,7,0,0,0-.38-1l1.43-.29h-4.09v-1.74h6.16a9.41,9.41,0,0,0-.33-.9l2.21-.4a8.46,8.46,0,0,1,.55,1.3h5.91v1.74h-3.9l1.52.27c-.23.38-.42.74-.61,1.06h4Zm-2,6.48h-5.81a14.47,14.47,0,0,1,2,1.25l-1.38,1.39a13,13,0,0,0-3-1.88l.78-.76H774v-5.8h12.23Zm-4.41,3.36c.71,0,.82-.21.92-1.54a6.53,6.53,0,0,0,1.92.71c-.25,2.1-.86,2.64-2.63,2.64h-3.06c-2.39,0-3-.56-3-2.34v-2h2.21v2c0,.49.15.55,1,.55Zm2.17-7.75h-7.87v.82H784Zm0,2.15h-7.87v.81H784Zm-6.42-7.32a8,8,0,0,1,.53,1.33h3.88c.19-.43.39-.93.53-1.33Zm8.6,10a14.12,14.12,0,0,1,2.32,3.36l-2,.87a14.33,14.33,0,0,0-2.19-3.43Z"/><path d="M787.94,2897.7a18.92,18.92,0,0,1-3.15,4.16c.51,1.46,1.1,2.34,1.67,2.34.4,0,.62-.91.72-3.16a5.66,5.66,0,0,0,1.86,1.3c-.36,3.32-1.06,4.16-2.79,4.16-1.39,0-2.45-1.14-3.27-3a19.5,19.5,0,0,1-3.51,2.31A10.18,10.18,0,0,0,778,2904a19.67,19.67,0,0,0,4.23-2.68,35.2,35.2,0,0,1-1-5.09h-3.85v2.16l2.92-.53.17,2.06-3.09.62v3.25c0,1.23-.27,1.84-1,2.2a8.15,8.15,0,0,1-3.42.44,8.63,8.63,0,0,0-.8-2.28c1.07.06,2.17,0,2.51,0s.46-.09.46-.4V2901l-3.4.68-.55-2.28c1.08-.17,2.45-.38,4-.65v-2.54h-3.59v-2.15h3.59v-2.16c-1,.17-2.07.3-3,.42a8.79,8.79,0,0,0-.65-1.91,47.6,47.6,0,0,0,7.54-1.59l1.52,1.92c-1,.28-2,.53-3.09.76v2.56H781c-.15-1.71-.2-3.47-.22-5.2h2.37a46.75,46.75,0,0,0,.19,5.2h5.17v2.15h-4.94c.15,1.14.34,2.24.55,3.21a16,16,0,0,0,1.8-2.58Zm-1.39-4.18a15.11,15.11,0,0,0-2.69-3.13l1.7-1.16a16.28,16.28,0,0,1,2.82,3Z"/><path d="M787,2911.57v15.26h-2.41v-.93h-9v.95h-2.3v-15.28h4.87a20.42,20.42,0,0,0,.51-2.49l2.74.31c-.29.76-.59,1.5-.9,2.18Zm-11.44,2.17v2h9v-2Zm0,4v2h9v-2Zm9,6v-2h-9v2Z"/><path d="M784.1,2944.69c1.9,0,2.17-.48,2.41-3.21a8.64,8.64,0,0,0,2.3.85c-.41,3.63-1.25,4.62-4.65,4.62H778c-3.55,0-4.71-.69-4.71-3.4v-6.84h10.83V2933H773.06v-2.32h13.47V2940h-2.41v-1.08h-8.47v4.58c0,1,.34,1.18,2.37,1.18Z"/><path d="M780.15,2950.92s0,.86,0,1.14c0,9.82,0,13.22-.59,14.17a2,2,0,0,1-1.42,1.1,8.9,8.9,0,0,1-2.28.12,6.36,6.36,0,0,0-.69-2.41c.71.05,1.33.05,1.69.05a.61.61,0,0,0,.59-.4,9.76,9.76,0,0,0,.35-3.23h-2.34a14,14,0,0,1-2.6,6.25A11.66,11.66,0,0,0,771,2966a9.93,9.93,0,0,0,2.17-4.58h-1.77v-2h2.13c.1-.72.15-1.44.21-2.22h-2.11v-2h2.2c0-.74,0-1.5,0-2.28h-2.47v-2Zm-2.34,8.55c0-.67,0-1.39,0-2.22H776c-.05.78-.13,1.5-.21,2.22Zm-1.71-6.5c0,.78,0,1.54-.05,2.28h1.8l0-2.28Zm12.81-1.16c-.74,1.79-1.64,3.92-2.47,5.59a5.74,5.74,0,0,1,2.14,4.39,3.07,3.07,0,0,1-1.12,2.77,3.42,3.42,0,0,1-1.38.48,15.11,15.11,0,0,1-1.81,0,5.19,5.19,0,0,0-.62-2.12,9.59,9.59,0,0,0,1.38,0,2.09,2.09,0,0,0,.88-.17c.4-.21.53-.62.53-1.25,0-1.06-.51-2.39-2.22-3.88.62-1.36,1.31-3.24,1.82-4.69h-2.57v14.71h-2.14v-16.84H787l.32-.07Z"/><path d="M777.19,2971.14a29.73,29.73,0,0,1-1.81,3.89v13.07h-2.16v-9.71a17.42,17.42,0,0,1-1.28,1.54,14.55,14.55,0,0,0-1.21-2.35,20,20,0,0,0,4.31-7.11Zm6.72,4.75v9.72c0,1.09-.19,1.71-.87,2.09a6,6,0,0,1-2.79.46,7.9,7.9,0,0,0-.78-2.28c.79,0,1.59,0,1.86,0s.34-.08.34-.32v-9.69h-2.2a16.18,16.18,0,0,1-1.79,2.9,15.84,15.84,0,0,0-1.82-1.48,16.87,16.87,0,0,0,3.23-6.84l2.2.5c-.25,1-.55,1.9-.89,2.83h6.53l.36-.08,1.6.31c-.23,1.53-.55,3.3-.82,4.4l-1.92-.32c.1-.59.21-1.39.31-2.22Zm-3.15,3.42a19.36,19.36,0,0,1-2.59,6.34,13.17,13.17,0,0,0-1.93-1.21,13.69,13.69,0,0,0,2.31-5.59Zm5.85-.65a23.57,23.57,0,0,1,2.07,6.19l-2.17.74a23.77,23.77,0,0,0-1.91-6.25Z"/><path d="M783.57,3002.54a7.76,7.76,0,0,1-1.16,2.7,26.42,26.42,0,0,0,6.76,1.08,8.94,8.94,0,0,0-1.36,2.11,21.89,21.89,0,0,1-7-1.59,12.36,12.36,0,0,1-3.73,1.74,10.64,10.64,0,0,0-1.36-1.86,11,11,0,0,0,3.07-1,10.08,10.08,0,0,1-2.26-2.21l2-.68a7,7,0,0,0,1.94,1.6,4.58,4.58,0,0,0,.91-1.85h-4.14v-7.63h4.37v-1.14h-4.62v-1.69a37.3,37.3,0,0,1-1.56,3.53v12.92h-2.16v-9.41a14.87,14.87,0,0,1-1,1.22A16.61,16.61,0,0,0,771,2998a20.15,20.15,0,0,0,4-7.12l2.13.66-.09.25h11.53v2H783.8v1.14h4.29v7.63Zm-4.29-4.59h2.28v-1.39h-2.28Zm2.26,2.94c0-.25,0-.51,0-.74v-.67h-2.28v1.41Zm4.37-1.41H783.8v.69c0,.23,0,.47,0,.72h2.13Zm-2.11-2.92V2998h2.11v-1.39Z"/><path d="M776.39,3020.59a23,23,0,0,1-1.39,4.47c.31.19.67.45,1.16.76,1.31.78,3.1.89,5.32.89a65.19,65.19,0,0,0,7.69-.49,8.38,8.38,0,0,0-.66,2.31c-1.56.1-4.94.23-7.14.23-2.53,0-4.13-.21-5.51-1-.78-.43-1.47-1.06-1.86-1.06s-1.11,1.29-1.58,2.38l-1.5-2.15a8.39,8.39,0,0,1,2-1.82,17.39,17.39,0,0,0,1.09-3.29h-2.38c.44-1.12.93-2.64,1.37-4.12h-1.71v-2h4.44c-.39,1.33-.85,2.85-1.31,4.18h.78l.34-.07.86.3v-1h.42v-.49h2v.49h2.39v-.83h-3.68v-6.44h9.74v6.44h-4v.83h4.88v5.34c0,.89-.19,1.27-.8,1.52a7.56,7.56,0,0,1-2.64.25,5.89,5.89,0,0,0-.55-1.52c.63,0,1.37,0,1.58,0s.3-.07.3-.28v-3.67h-2.91v1.5l.88,0c-.1-.31-.21-.59-.31-.84l1.37-.3A16.72,16.72,0,0,1,786,3024l-1.44.36c0-.17-.06-.38-.1-.61l-5.11.5-.19-1.77,2.09-.11v-1.64h-2.39V3026h-2v-5.23h-.42Zm-3.1-5.47c-.21-.85-.72-2.22-1-3.25l2-.6c.36,1,.86,2.29,1.12,3.13Zm6.25-.82h1.67v-.94h-1.67Zm1.67,2.42v-1h-1.67v1Zm4-3.36h-1.92v.94h1.92Zm0,2.39h-1.92v1h1.92Z"/><path d="M777.76,3045.63c1.19-.21,2.43-.41,3.63-.6l.11,1.93c-3.33.65-6.92,1.3-9.5,1.75l-.49-2.09c1.14-.15,2.56-.38,4.1-.62v-2.59h-3.46v-1.95h3.46v-1.7h2.15v1.7h3.42v1.95h-3.42Zm-6.06-12.84h9.88v1.94H778.9a21.71,21.71,0,0,1,2.64,4.05l-1.71,1.12c-.12-.29-.27-.61-.44-1-5.24.43-6.06.53-6.61.76-.13-.46-.49-1.47-.72-2.05a1.87,1.87,0,0,0,.87-.8,15.59,15.59,0,0,0,1.18-2.13H771.7Zm6.65,4.43c-.36-.55-.75-1.08-1.11-1.56l1.6-.93h-2.28a23.47,23.47,0,0,1-1.65,2.68Zm6.06,7.69h-2.09v-11.47h2.09Zm3.74-13v14.7c0,1.2-.23,1.77-.95,2.13a8.33,8.33,0,0,1-3.29.42,8.8,8.8,0,0,0-.76-2.17c1,0,2,0,2.36,0s.43-.11.43-.44v-14.68Z"/><path d="M787.94,3061.1a18.92,18.92,0,0,1-3.15,4.16c.51,1.46,1.1,2.34,1.67,2.34.4,0,.62-.91.72-3.16a5.66,5.66,0,0,0,1.86,1.3c-.36,3.32-1.06,4.16-2.79,4.16-1.39,0-2.45-1.14-3.27-3a19,19,0,0,1-3.51,2.32,10.18,10.18,0,0,0-1.5-1.82,19.67,19.67,0,0,0,4.23-2.68,35.2,35.2,0,0,1-1-5.09h-3.85v2.16l2.92-.53.17,2.05-3.09.63v3.25c0,1.23-.27,1.84-1,2.2a8.15,8.15,0,0,1-3.42.44,8.63,8.63,0,0,0-.8-2.28c1.07.06,2.17,0,2.51,0s.46-.1.46-.4v-2.75c-1.22.24-2.4.49-3.4.68l-.55-2.28c1.08-.17,2.45-.38,4-.65v-2.54h-3.59v-2.15h3.59v-2.16c-1,.17-2.07.3-3,.41a8.89,8.89,0,0,0-.65-1.9,47.6,47.6,0,0,0,7.54-1.59l1.52,1.92c-1,.28-2,.53-3.09.76v2.56H781c-.15-1.71-.2-3.47-.22-5.2h2.37a46.75,46.75,0,0,0,.19,5.2h5.17v2.15h-4.94c.15,1.14.34,2.24.55,3.21a16,16,0,0,0,1.8-2.58Zm-1.39-4.18a15.11,15.11,0,0,0-2.69-3.13l1.7-1.16a16.28,16.28,0,0,1,2.82,3Z"/><path d="M787.81,3075.05a31.7,31.7,0,0,1-6.54,5.28v7.33c0,1.29-.3,1.9-1.23,2.24a12.56,12.56,0,0,1-4.13.38A8.06,8.06,0,0,0,775,3088c1.35.06,2.91,0,3.33,0s.57-.11.57-.43v-8.42a23.36,23.36,0,0,0,4.37-3.12h-11v-2.22h13.19l.49-.13Z"/></svg>