<svg id="圖層_1" data-name="圖層 1" xmlns="http://www.w3.org/2000/svg" viewBox="0 0 1620 3609.95"><defs><style>.cls-1{fill:#ffc331;}</style></defs><rect class="cls-1" width="1620" height="3609.95"/><path d="M878,75.37a18.88,18.88,0,0,1-3.16,4.16c.51,1.46,1.1,2.34,1.67,2.34.4,0,.63-.92.73-3.16A5.48,5.48,0,0,0,879.05,80c-.36,3.33-1.07,4.17-2.8,4.17-1.38,0-2.45-1.14-3.26-3a19.63,19.63,0,0,1-3.52,2.32,9.77,9.77,0,0,0-1.5-1.82A19.73,19.73,0,0,0,872.21,79a35.2,35.2,0,0,1-1-5.09h-3.86v2.16l2.93-.53.17,2-3.1.63v3.25c0,1.23-.26,1.84-1,2.2a8.15,8.15,0,0,1-3.42.44,9.41,9.41,0,0,0-.8-2.28c1.06.06,2.16,0,2.51,0s.45-.1.45-.4V78.67c-1.21.25-2.39.5-3.4.69l-.55-2.28c1.08-.17,2.45-.38,4-.65V73.89h-3.59V71.74h3.59V69.58c-1,.17-2.07.3-3,.41a8.86,8.86,0,0,0-.64-1.9A49,49,0,0,0,869,66.5l1.52,1.92c-1,.28-2,.53-3.1.76v2.56H871c-.15-1.71-.21-3.48-.23-5.2h2.38a44.46,44.46,0,0,0,.19,5.2h5.16v2.15h-4.94c.16,1.14.35,2.24.55,3.21A15.08,15.08,0,0,0,876,74.51Zm-1.39-4.18a15.18,15.18,0,0,0-2.7-3.13l1.71-1.16a15.9,15.9,0,0,1,2.81,3Z"/><path d="M871.35,102.08c.5,0,1,.06,1.52.06,1.07,0,4.71,0,6.06-.06a8,8,0,0,0-.76,2.17h-5.41c-3.48,0-5.83-.5-7.43-2.7a8.57,8.57,0,0,1-2.66,3A9.29,9.29,0,0,0,861,103a8,8,0,0,0,3.53-5.75l2.27.34c-.14.61-.29,1.18-.44,1.73a4.19,4.19,0,0,0,2.73,2.37V96.86h-7.41v-2H878.4v2h-7v1.42h5.85v2h-5.85Zm5.25-8H863.39V87.44H876.6Zm-2.3-5h-8.7v1h8.7Zm0,2.45h-8.7v1h8.7Z"/><path d="M867.27,108a34,34,0,0,1-1.88,4v12.92h-2.17v-9.57c-.4.51-.8,1-1.18,1.38a13.26,13.26,0,0,0-1.23-2.35,19.58,19.58,0,0,0,4.33-7.11Zm8.22,14.79c1.13,0,1.33-.47,1.47-2.6a7.26,7.26,0,0,0,2,.84c-.28,2.83-1,3.78-3.28,3.78h-4.32c-2.64,0-3.4-.69-3.4-3.33v-5.32l-1.44.57-.86-2,2.3-.89v-4.49h2.13V113l1.9-.74v-4.92h2v4.12l2.55-1,.19-.14,1.69.52-.08.36a69.79,69.79,0,0,1-.76,8.64l-1.86-.53c.21-1.6.34-4.11.42-6.42l-2.15.87v6.73h-2v-5.95l-1.9.78v6.15c0,1.12.19,1.31,1.44,1.31Z"/><path d="M878.06,137.75a11.56,11.56,0,0,1-2.34,4.38,10.42,10.42,0,0,0,3.25,1.33,7.85,7.85,0,0,0-1.33,1.75,10.49,10.49,0,0,1-3.42-1.67,12.47,12.47,0,0,1-3.32,1.82,8.56,8.56,0,0,0-1.12-1.67v1.69h-2.11v-1.63c-2.21.25-4.41.46-6.12.65l-.17-1.94,1.65-.14v-5.75h-1.48v-1.79h16.87v1.79h-8.64v7a9.74,9.74,0,0,0,2.86-1.44,11.64,11.64,0,0,1-1.82-2.91l.68-.19h-1.13v-1.73h5.92l.36-.08Zm-12.12-3.56h-2.17v-5.94h12.48v5.94H874v-4.38h-8Zm-.9,2.38v.78h2.63v-.78Zm0,3.1h2.63v-.76H865Zm0,2.46,2.63-.24v-.67H865Zm8.23-10.33h-6.74v-1.31h6.74Zm-6.72,2v-1.31h6.72v1.31ZM872.8,139a7.22,7.22,0,0,0,1.29,1.78,7,7,0,0,0,1.23-1.78Z"/><path d="M861.09,163.45a24.55,24.55,0,0,0,1.88-4.73l2,.82a51,51,0,0,1-1.73,4.84Zm7.79-6.63h-6v-6.63h6v-2.11h2.26v2.11h6.14v6.63h-6.14v1.43h-.41c.74.7,1.57,1.57,2,2.14L871,161.78A27.33,27.33,0,0,0,868.5,159l1.14-.79h-.76Zm0-2v-2.62h-3.82v2.62Zm3.08,8.41c.84,0,1-.3,1.08-2.31a6.53,6.53,0,0,0,2.13.89c-.28,2.83-.93,3.55-3,3.55h-3.21c-2.56,0-3.21-.68-3.21-2.79v-3.72h2.37v3.68c0,.63.16.7,1.12.7Zm-.82-11v2.62H875v-2.62Zm4.85,6.34c.93,1.35,2.26,3.21,2.89,4.37l-2.11,1.18a42,42,0,0,0-2.74-4.56Z"/><path d="M878.71,173.83v1.61h-3.44l-.16,1.48H864.19l.19-1.48h-3v-1.61h3.21l.19-1.45h10.75l-.13,1.45Zm-5.06,9.8c1.67.46,3.34,1,4.47,1.31l-1.54,1.39c-1.37-.51-3.59-1.27-5.78-1.84l.78-.86H868.1l1.14.84a23.88,23.88,0,0,1-6.45,1.88,11.08,11.08,0,0,0-1.2-1.54,25.52,25.52,0,0,0,5-1.18h-2.71v-6.15h12.38v6.15ZM864,173.33h-2V170h6.93a8.61,8.61,0,0,0-.55-1.14l2-.55a10.39,10.39,0,0,1,.87,1.69h6.94v3.3H876v-1.55H864Zm2.09,5.84H874v-.55h-7.91Zm0,1.67H874v-.59h-7.91Zm0,1.67H874v-.61h-7.91Zm.31-6.71h2.5l.08-.6h-2.51Zm.28-2.28-.07.56h2.48l.06-.56Zm6.52,2.28.05-.6h-2.43l-.07.6Zm.19-2.28H871l0,.56h2.39Z"/><path d="M878.4,191.84s0,.76,0,1c-.25,8.49-.45,11.51-1.23,12.51a2.52,2.52,0,0,1-1.83,1.05,21.68,21.68,0,0,1-3,0,5.36,5.36,0,0,0-.74-2.21c1.22.12,2.34.12,2.83.12a1,1,0,0,0,.84-.32c.55-.61.79-3.46,1-10.17h-4.06a17,17,0,0,1-1.67,3,14.67,14.67,0,0,0-1.47-1.06v8.87H864v1.39h-2V192h2.15a21.7,21.7,0,0,0,.55-3.06l2.47.35c-.33,1-.67,1.9-1,2.71h2.94v3.08a19.33,19.33,0,0,0,2.57-6.12l2.15.5a23.9,23.9,0,0,1-.75,2.41ZM867,194h-3V197h3Zm0,8.76V199h-3v3.73Zm6.31-1a40.77,40.77,0,0,0-2.64-4.39l1.77-1a48.27,48.27,0,0,1,2.79,4.21Z"/><path d="M868.58,209.76a23,23,0,0,1,1.2,2.37l-1.69.76a20,20,0,0,0-1.07-2.37,26,26,0,0,1-1.48,3.34V227h-2.15v-9.65c-.4.54-.79,1.05-1.18,1.49a13.34,13.34,0,0,0-1.23-2.36,20.13,20.13,0,0,0,4.08-7.1l2.13.64-.09.27Zm4.12,13.43c-.76,1.44-2.37,2.85-5.43,3.91a8.86,8.86,0,0,0-1.37-1.56,8.93,8.93,0,0,0,4.37-2.35h-3.89v-1.75h4.78a3.73,3.73,0,0,0,.1-.8h-3.93V219h3.95v-.78h-4.43v-1.69h2.53c-.16-.49-.34-1-.53-1.52l1.21-.32H866.7v-1.79H870v-3.55h1.86v3.55h1.16v-3.55h1.88v3.55h3.48v1.79H875.3l1.24.32c-.29.53-.53,1.06-.78,1.52h2.36v1.69H873.4V219h4.18v1.65H873.4c0,.27,0,.53-.09.8h5.36v1.75Zm-2.07-8.51a10.08,10.08,0,0,1,.7,1.84h2.51a18.26,18.26,0,0,0,.67-1.84Zm3.23,8.53a35.72,35.72,0,0,1,5.07,2.54l-1.52,1.43a30.93,30.93,0,0,0-5-2.7Zm4.31-12.86c-.51.91-1,1.8-1.42,2.41l-1.45-.61a18.05,18.05,0,0,0,1.07-2.47Z"/><path d="M871.12,229.78c0,.8,0,1.83-.13,3,.27,2.56,1.43,9.72,8.06,12.65a6,6,0,0,0-1.66,2,14.72,14.72,0,0,1-7.42-9,15.5,15.5,0,0,1-7,9.1,7,7,0,0,0-1.88-1.84c7.72-4.13,7.36-12.64,7.43-15.85Z"/><path d="M807.08,78.1c-.06-.24-.12-.56-.21-.89-3.93.65-4.62.82-5,1a20.48,20.48,0,0,0-.71-2,3.43,3.43,0,0,0,1.52-1.19c.23-.27.71-.84,1.26-1.62a7.89,7.89,0,0,0-2.23.42,15.76,15.76,0,0,0-.68-1.94c.4-.09.72-.46,1.12-1a23.34,23.34,0,0,0,2.38-4.69l2,.86a28.26,28.26,0,0,1-2.7,4.58l1.35-.1c.44-.74.87-1.54,1.25-2.3l1.85,1.16a32.52,32.52,0,0,1-3.82,5.34l1.94-.27c-.15-.47-.33-.93-.5-1.35l1.66-.6a26.89,26.89,0,0,1,1.33,3.85Zm-3.35,1.05a18.41,18.41,0,0,1-.85,4.67,8.94,8.94,0,0,0-1.8-.64,16.53,16.53,0,0,0,.77-4.33Zm2.19-.4a39.43,39.43,0,0,1,.55,4.29l-1.84.38a43.3,43.3,0,0,0-.46-4.33Zm2.05-.66a27.15,27.15,0,0,1,1,3.61l-1.73.6a29.49,29.49,0,0,0-.95-3.68Zm8.23,3.72a3.83,3.83,0,0,0,.53,0,.49.49,0,0,0,.3-.38,8.17,8.17,0,0,0,.14-1.44,5.32,5.32,0,0,0,1.84.93,5.34,5.34,0,0,1-.34,1.9,1.41,1.41,0,0,1-.92.76,5.25,5.25,0,0,1-1.36.19h-1.64a2.64,2.64,0,0,1-1.59-.46c-.46-.36-.69-.74-.69-2.43V79.05h-3.42V72h2V77h1.46V70.71h-3.82V68.62h3.82V66.38h2.07v2.24h4.28v2.09h-4.28V77H816V72h2v7.69h-2v-.67h-1.5V80.9c0,.42,0,.72.17.81a1.33,1.33,0,0,0,.54.1Z"/><path d="M814.6,97.69H819V99.8H814.6v4.73h-2.26V99.8h-4.06v-.28l-1.39,1.4a28.61,28.61,0,0,0-1.12-3.17v6.76h-2V97.16a17,17,0,0,1-1.9,5.47,16.07,16.07,0,0,0-.89-2.24A14.65,14.65,0,0,0,802.56,96l1.25.48V95.19h-2.47V93.08h2.47V86.79h2v5a31,31,0,0,0,1-3.91l1.82.47c-.47,1.39-1,3-1.41,4L805.77,92v1.1H808v2.11h-2.26v1.33l.76-.52c.3.48,1.36,2.55,1.75,3.29v-1.6h4.06v-1h1.31a7.09,7.09,0,0,0-.95-1,8.38,8.38,0,0,0,2.6-4.64l2,.38a16.15,16.15,0,0,1-.72,2.13A23.22,23.22,0,0,1,819,95.83l-1.25,1.54a17.14,17.14,0,0,0-2.06-2.13,7.07,7.07,0,0,1-1.08,1.47ZM802,92.38a30.2,30.2,0,0,0-.77-4.11l1.55-.36a36.39,36.39,0,0,1,.88,4Zm10.32-1c-.13.61-.31,1.2-.49,1.79a13.28,13.28,0,0,1,1.53,1.35l-1.14,1.54a10.19,10.19,0,0,0-1.1-1.14,9.05,9.05,0,0,1-1.8,2.58,8,8,0,0,0-1.6-1.29,9.35,9.35,0,0,0,2.61-5.19Zm6-.47h-9.51V88.88h3.72c-.13-.55-.32-1.2-.5-1.71l2.13-.38c.25.65.57,1.52.72,2.09h3.44Z"/><path d="M818.4,110.14s0,.76,0,1c-.25,8.49-.45,11.51-1.23,12.52a2.54,2.54,0,0,1-1.83,1,20.19,20.19,0,0,1-3,0,5.36,5.36,0,0,0-.74-2.21c1.22.12,2.34.12,2.83.12a1,1,0,0,0,.84-.32c.55-.61.79-3.46,1-10.17h-4.06a17,17,0,0,1-1.67,3,14.67,14.67,0,0,0-1.47-1.06V123H804v1.39h-2V110.27h2.15a21.7,21.7,0,0,0,.55-3.06l2.47.35c-.33,1-.67,1.9-1,2.71h2.94v3.08a19.43,19.43,0,0,0,2.57-6.12l2.15.5a23.9,23.9,0,0,1-.75,2.41ZM807,112.25h-3v3.08h3Zm0,8.76v-3.73h-3V121Zm6.31-1a40.77,40.77,0,0,0-2.64-4.39l1.77-1a48.27,48.27,0,0,1,2.79,4.21Z"/><path d="M817,130.09v15.25h-2.41v-.93h-9v1h-2.3V130.09h4.86a22.61,22.61,0,0,0,.52-2.49l2.73.31c-.28.76-.59,1.5-.89,2.18Zm-11.43,2.17v2h9v-2Zm0,4v2h9v-2Zm9,6v-2h-9v2Z"/><path d="M811.75,155.49c1.26,3.71,3.55,6.69,7.11,8.13a9,9,0,0,0-1.67,2.13,14.16,14.16,0,0,1-7.13-8.05,13.08,13.08,0,0,1-7.1,8.07,6.78,6.78,0,0,0-1.69-1.92,11.38,11.38,0,0,0,6.89-8.36h-6.53v-2.33h6.91c.19-1.79.17-3.52.19-5.08h2.47c0,1.56,0,3.31-.23,5.08h7.47v2.33Z"/><path d="M807.92,187.11c1.47-.55,2.28-1.5,2.28-2.61H810a1.63,1.63,0,0,1-1.74-1.65,1.67,1.67,0,0,1,1.8-1.65c1.29,0,2,1,2,2.75a4.79,4.79,0,0,1-3.59,4.68Z"/><path d="M807.19,201.13a29.1,29.1,0,0,1-1.8,3.9V218.1h-2.17v-9.71a19,19,0,0,1-1.27,1.54,14.71,14.71,0,0,0-1.22-2.36,19.9,19.9,0,0,0,4.31-7.1Zm6.73,4.75v9.73c0,1.08-.19,1.71-.88,2.09a6,6,0,0,1-2.79.45,7.71,7.71,0,0,0-.78-2.28c.8,0,1.6,0,1.86,0s.35-.07.35-.32v-9.69h-2.21a16.63,16.63,0,0,1-1.78,2.91,16.22,16.22,0,0,0-1.83-1.49,16.64,16.64,0,0,0,3.23-6.83l2.2.49a27.34,27.34,0,0,1-.89,2.83h6.54l.36-.08,1.59.31c-.22,1.54-.55,3.3-.81,4.41l-1.92-.33c.09-.59.21-1.38.3-2.22Zm-3.16,3.42a19.48,19.48,0,0,1-2.58,6.34,13.84,13.84,0,0,0-1.94-1.21,13.7,13.7,0,0,0,2.32-5.59Zm5.86-.65a24,24,0,0,1,2.07,6.2l-2.17.74a24.08,24.08,0,0,0-1.92-6.25Z"/><path d="M812.64,227A48.89,48.89,0,0,1,819,232.1l-1.92,1.73a43.86,43.86,0,0,0-5.81-5.15v9.84h-2.47v-9.27a22.59,22.59,0,0,1-6,4.67,14,14,0,0,0-1.56-2,19.94,19.94,0,0,0,8.19-7.46h-7.58v-2.32h16.47v2.32h-5.91a18.05,18.05,0,0,1-1.1,1.74v2Z"/><path d="M806.91,250.87c0,.27-.08.53-.13.78,1,1,3,3.34,3.57,4l-1.52,1.9c-.63-1-1.71-2.41-2.64-3.57a10.21,10.21,0,0,1-3.59,5,8.46,8.46,0,0,0-1.62-1.71,8.9,8.9,0,0,0,3.65-6.35h-3.36v-2.13h3.51v-3H804a13.46,13.46,0,0,1-1.29,2.55A12.13,12.13,0,0,0,800.9,247a14.09,14.09,0,0,0,2.13-5.72l2.17.44c-.14.66-.29,1.31-.48,1.95h5v2.09h-2.68v3h3.12v2.13Zm11-8v15.28h-2.3v-1.09h-2.76v1.37h-2.18V242.87Zm-2.3,12.07V245h-2.76v9.94Z"/><path d="M806.49,270.54a25.06,25.06,0,0,1-1.48,4.94c.28.19.64.45,1.16.76,1.29.78,3.07.89,5.3.89a65.19,65.19,0,0,0,7.69-.49,8,8,0,0,0-.66,2.31c-1.56.1-4.92.23-7.15.23-2.5,0-4.12-.21-5.49-1-.8-.43-1.46-1.06-1.86-1.06s-1.1,1.29-1.58,2.37l-1.5-2.14a8.31,8.31,0,0,1,2-1.83,19.41,19.41,0,0,0,1.08-3.28h-2.39c.43-1.12.95-2.64,1.38-4.12h-1.7v-2h4.42c-.4,1.33-.83,2.85-1.29,4.18h.76l.34-.07Zm-3.21-5c-.19-.85-.7-2.24-1-3.27l2-.61c.36,1,.83,2.3,1.1,3.16Zm7.54,1.14c.06-.3.13-.61.19-.93h-4.56v-1.84H809a14.81,14.81,0,0,0-.89-1.5l1.78-.71a14.54,14.54,0,0,1,1.22,1.9l-.67.31h2.85a16,16,0,0,0,1.2-2.26l2.18.6c-.4.59-.77,1.14-1.14,1.66h3v1.84h-5.13c-.15.34-.3.63-.45.93h4.12v9.18h-9.2V266.7Zm4,1.6H810v1h4.85Zm0,2.46H810v1h4.85Zm0,2.47H810v1h4.85Z"/><path d="M818,291.09a18.65,18.65,0,0,1-3.16,4.16c.51,1.47,1.1,2.34,1.67,2.34.4,0,.63-.91.73-3.15a5.78,5.78,0,0,0,1.86,1.29c-.36,3.32-1.07,4.16-2.8,4.16-1.38,0-2.45-1.14-3.26-3a20.18,20.18,0,0,1-3.52,2.32,9.81,9.81,0,0,0-1.5-1.83,19,19,0,0,0,4.24-2.68,35.2,35.2,0,0,1-1-5.09h-3.86v2.17l2.93-.53.17,2.05-3.1.63v3.24c0,1.24-.26,1.85-1,2.21a8.18,8.18,0,0,1-3.42.43,9.34,9.34,0,0,0-.8-2.27c1.06,0,2.16,0,2.51,0s.45-.09.45-.39V294.4c-1.21.25-2.39.49-3.4.68l-.55-2.28c1.08-.17,2.45-.38,4-.64v-2.55h-3.59v-2.14h3.59V285.3c-1,.17-2.07.3-3,.42a8.68,8.68,0,0,0-.64-1.9,47.77,47.77,0,0,0,7.54-1.6l1.52,1.92c-1,.29-2,.53-3.1.76v2.57H811c-.15-1.71-.21-3.48-.23-5.21h2.38a44.63,44.63,0,0,0,.19,5.21h5.16v2.14h-4.94c.16,1.14.35,2.24.55,3.21a15,15,0,0,0,1.81-2.58Zm-1.39-4.17a15,15,0,0,0-2.7-3.14l1.71-1.16a16.52,16.52,0,0,1,2.81,3Z"/><path d="M818.61,311.84c-2.68,5.78-8.91,7.77-16.15,8.46a9.48,9.48,0,0,0-.91-2.19,31.31,31.31,0,0,0,8.23-1.5c-.54-.55-1.3-1.2-2-1.77a22,22,0,0,1-2.45,1.05,7.19,7.19,0,0,0-1.39-1.75,16,16,0,0,0,8-4.92l2.45.57c-.38.44-.74.86-1.16,1.27h3.4l.42-.11Zm-2.51-7c-2.45,4.37-7.84,6.73-13.31,7.75a8.26,8.26,0,0,0-1-2,25.88,25.88,0,0,0,5.6-1.45,22.73,22.73,0,0,0-1.86-1.71c-.55.31-1.12.59-1.73.86a7,7,0,0,0-1.54-1.62,16.34,16.34,0,0,0,6.6-4.23l2.43.57c-.32.34-.67.68-1,1h4l.4-.09Zm-8.32,1.2c-.17.13-.36.25-.55.38a15,15,0,0,1,2.15,1.84,12.87,12.87,0,0,0,3.13-2.22Zm3.06,7-1.1.74a18.41,18.41,0,0,1,2.22,1.88,10.11,10.11,0,0,0,3.19-2.62Z"/><path d="M818.82,324c-.38,1.08-.8,2.14-1.24,3.22a4,4,0,0,1,1.26,2.53,1.9,1.9,0,0,1-.74,1.73,2.26,2.26,0,0,1-.93.34,6.12,6.12,0,0,1-1.22,0,3.87,3.87,0,0,0-.49-1.59c.36,0,.68,0,.89,0a1,1,0,0,0,.44-.09.76.76,0,0,0,.26-.69,3.4,3.4,0,0,0-1.21-2c.28-.88.51-1.71.72-2.47h-1.27v7.83h-1.83v-1.16l-1.2.61a6.82,6.82,0,0,0-.41-.8c-3.84.83-4.45,1-4.83,1.21a4.85,4.85,0,0,0-.66-1.48,1.17,1.17,0,0,0,.74-1.2v-1.61a9.54,9.54,0,0,1-5,4.94,7.25,7.25,0,0,0-.89-1.39,8.31,8.31,0,0,0,3.57-2.6,11.78,11.78,0,0,0-2.79.46c-.08-.29-.29-1-.44-1.33a2.25,2.25,0,0,0,1.18-.67,13.57,13.57,0,0,0,1.18-1.06,6.53,6.53,0,0,0-1.92.32c-.1-.3-.31-.95-.48-1.31a1.6,1.6,0,0,0,.8-.51,11.83,11.83,0,0,0,1.75-2.42l1.21.8a13.9,13.9,0,0,1-1.63,2l1.39-.08a12.59,12.59,0,0,0,.83-1l1.09.89a26.63,26.63,0,0,1-2.85,2.87l1.44-.11c.11-.27.23-.56.32-.86l1.26.25V324h1.82a6,6,0,0,0-.34-.87l1.75-.4a4.39,4.39,0,0,1,.49,1.27h2v5h-1.08a12.34,12.34,0,0,1,1.71,2.22v-7.75h3.73l.24-.07Zm-1.41,14.72c0,1-.19,1.42-.89,1.69a8.08,8.08,0,0,1-2.87.28,6.18,6.18,0,0,0-.53-1.42h-4.54v.63h-1.82v-4.35h6.51V339c.7,0,1.41,0,1.62,0s.34-.07.34-.3v-3.76H805.16v5.75H803v-7.33h5.38c.15-.36.3-.74.38-1l2.32.31-.44.7h6.78Zm-6.08-1.81h-2.75v1h2.75Zm-.22-11.68h-2.17v.65h2.17Zm-2.17,2.58h2.17V327h-2.17Zm2,2.42c-.19-.23-.36-.44-.55-.65l1.17-.59h-2.58v1.62Z"/><path d="M803.49,353.45c-.48.48-1,.93-1.43,1.33a16,16,0,0,0-1.08-2.33,16.89,16.89,0,0,0,4.37-4.89l2,.8a22.12,22.12,0,0,1-1.52,2.34v10.43h-2.33Zm3.51-9.23a18.94,18.94,0,0,1-4.63,4.81,16.32,16.32,0,0,0-1.16-1.92,13.12,13.12,0,0,0,3.65-3.71Zm11.78,14.19v2.15h-12v-2.15h5v-3.87H808v-2.15h3.78V349h-4.43V346.9h4.85a15,15,0,0,0-1.33-2.91l2.09-.7a14.47,14.47,0,0,1,1.48,2.94l-1.82.67h5.68V349h-4.16v3.35h3.59v2.15h-3.59v3.87Z"/><path d="M811.62,373.08a10.72,10.72,0,0,0,7.46,6.21,8,8,0,0,0-1.55,2.11,12.19,12.19,0,0,1-7.47-6.46c-1,2.53-3.19,4.92-7.46,6.52a8.83,8.83,0,0,0-1.49-2c4.39-1.56,6.25-4,7-6.42h-6.36v-2.32h6.84c0-.51,0-1,0-1.46v-1.92h-6.21v-2.32h15v2.32h-6.46v2c0,.45,0,.93,0,1.42h7.24v2.32Z"/><path d="M813.73,395a9,9,0,0,1-1.05,3.3,19.06,19.06,0,0,0,6.5,1.6,9.56,9.56,0,0,0-1.35,2,17.58,17.58,0,0,1-6.5-2,9.86,9.86,0,0,1-3.89,2,12,12,0,0,0-1.41-1.88,8.87,8.87,0,0,0,3.46-1.46,11,11,0,0,1-2.34-2.84l1.85-.57a7.61,7.61,0,0,0,1.76,2,6.32,6.32,0,0,0,.71-2.16h-4.24v-5.55h4.37v-1.33h-4.77v-1.75c-.34.72-.72,1.46-1.14,2.19V402h-2.15V391.79a20,20,0,0,1-1.55,1.79,15.08,15.08,0,0,0-1.2-2.32,20.11,20.11,0,0,0,4.6-7.08l2.09.68c-.17.4-.35.8-.52,1.22h4.64v-1.73h2.24v1.73h5v2.05h-5v1.33h4.52V395Zm-2.13-1.83V391.3h-2.34v1.88Zm2.24-1.88v1.88h2.36V391.3Z"/><path d="M807.92,423.26c1.47-.55,2.28-1.5,2.28-2.61H810a1.63,1.63,0,0,1-1.74-1.65,1.68,1.68,0,0,1,1.8-1.65c1.29,0,2,1,2,2.75a4.79,4.79,0,0,1-3.59,4.68Z"/><path d="M818,445.55a19.12,19.12,0,0,1-3.16,4.16c.51,1.46,1.1,2.33,1.67,2.33.4,0,.63-.91.73-3.15a5.78,5.78,0,0,0,1.86,1.29c-.36,3.33-1.07,4.16-2.8,4.16-1.38,0-2.45-1.14-3.26-3a20.18,20.18,0,0,1-3.52,2.32,10.15,10.15,0,0,0-1.5-1.83,19.3,19.3,0,0,0,4.24-2.67,35.35,35.35,0,0,1-1-5.1h-3.86v2.17l2.93-.53.17,2.05-3.1.63v3.24c0,1.24-.26,1.85-1,2.21a8.32,8.32,0,0,1-3.42.44,9.26,9.26,0,0,0-.8-2.28c1.06.05,2.16,0,2.51,0s.45-.09.45-.39v-2.76l-3.4.69-.55-2.28c1.08-.18,2.45-.38,4-.65v-2.55h-3.59v-2.14h3.59v-2.17c-1,.17-2.07.31-3,.42a8.68,8.68,0,0,0-.64-1.9,47.77,47.77,0,0,0,7.54-1.6l1.52,1.92c-1,.29-2,.53-3.1.76v2.57H811c-.15-1.71-.21-3.48-.23-5.21h2.38a44.55,44.55,0,0,0,.19,5.21h5.16v2.14h-4.94c.16,1.14.35,2.25.55,3.21a15,15,0,0,0,1.81-2.58Zm-1.39-4.18a15,15,0,0,0-2.7-3.14l1.71-1.16a16.52,16.52,0,0,1,2.81,3Z"/><path d="M811.35,472.26c.5,0,1,.06,1.52.06,1.07,0,4.71,0,6.06-.06a8,8,0,0,0-.76,2.16h-5.41c-3.48,0-5.83-.49-7.43-2.69a8.57,8.57,0,0,1-2.66,3,9,9,0,0,0-1.71-1.58,8,8,0,0,0,3.53-5.76l2.27.35c-.14.6-.29,1.17-.44,1.73a4.19,4.19,0,0,0,2.73,2.37V467h-7.41v-2H818.4v2h-7v1.43h5.85v2h-5.85Zm5.25-8.06H803.39v-6.59H816.6Zm-2.3-5h-8.7v1h8.7Zm0,2.45h-8.7v1h8.7Z"/><path d="M807.27,478.13a33.44,33.44,0,0,1-1.88,4.05V495.1h-2.17v-9.58c-.4.52-.8,1-1.18,1.39a13.34,13.34,0,0,0-1.23-2.36,19.53,19.53,0,0,0,4.33-7.1Zm8.22,14.8c1.13,0,1.33-.47,1.47-2.6a6.94,6.94,0,0,0,2,.83c-.28,2.83-1,3.78-3.28,3.78h-4.32c-2.64,0-3.4-.68-3.4-3.32V486.3l-1.44.57-.86-2,2.3-.9V479.5h2.13v3.63l1.9-.74v-4.92h2v4.12l2.55-1,.19-.13,1.69.51-.08.36a69.78,69.78,0,0,1-.76,8.65l-1.86-.54c.21-1.59.34-4.1.42-6.42l-2.15.88v6.72h-2v-5.94l-1.9.77v6.16c0,1.12.19,1.31,1.44,1.31Z"/><path d="M817,504.26a15.25,15.25,0,0,1-3.69,7.06,15.28,15.28,0,0,0,5.34,2.13,9.78,9.78,0,0,0-1.52,2.11,15.78,15.78,0,0,1-5.7-2.6,17.93,17.93,0,0,1-5.34,2.6,8.44,8.44,0,0,0-1.31-2.09,14.77,14.77,0,0,0,4.86-2.15,16.65,16.65,0,0,1-3.19-5.45h-.72c-.13,3.15-.7,7-2.55,9.65a9.46,9.46,0,0,0-1.91-1.33c2.09-2.87,2.22-7.1,2.22-10.11v-5.29h14.4V501H805.75v2.66H815l.44-.1Zm-8.15,1.61a12.36,12.36,0,0,0,2.6,3.93,11.53,11.53,0,0,0,2.54-3.93Z"/><path d="M811,521.45c-.17.59-.36,1.16-.51,1.71h7.22V536h-2.3v-1h-11v1h-2.19V523.16h5.85c.12-.55.23-1.14.31-1.71h-6.94v-2.13h17.1v2.13Zm-6.55,11.49h1.93v-7.69h-1.93Zm6.87-7.69h-2.9v1.31h2.9Zm0,3.08h-2.9v1.44h2.9Zm-2.9,4.61h2.9v-1.4h-2.9Zm7-7.69h-2v7.69h2Z"/><path d="M818.4,541.59s0,.76,0,1c-.25,8.49-.45,11.51-1.23,12.52a2.54,2.54,0,0,1-1.83,1,20.19,20.19,0,0,1-3,0,5.27,5.27,0,0,0-.74-2.2c1.22.11,2.34.11,2.83.11a1,1,0,0,0,.84-.32c.55-.61.79-3.46,1-10.17h-4.06a17,17,0,0,1-1.67,3,14.67,14.67,0,0,0-1.47-1.06v8.87H804v1.39h-2V541.72h2.15a21.83,21.83,0,0,0,.55-3.05l2.47.34c-.33,1-.67,1.9-1,2.71h2.94v3.08a19.33,19.33,0,0,0,2.57-6.12l2.15.5a23.13,23.13,0,0,1-.75,2.41ZM807,543.7h-3v3.08h3Zm0,8.76v-3.73h-3v3.73Zm6.31-1a40.77,40.77,0,0,0-2.64-4.39l1.77-1a48.27,48.27,0,0,1,2.79,4.21Z"/><path d="M801.29,575.26a9.46,9.46,0,0,0,2.35-3.23l1.88.83a11.73,11.73,0,0,1-2.36,3.5Zm17-10.28H801.82v-1.75h4a8.38,8.38,0,0,0-.38-1l1.42-.29h-4.08v-1.75h6.15c-.09-.3-.21-.62-.32-.89l2.2-.4a8.78,8.78,0,0,1,.55,1.29h5.91v1.75h-3.89l1.52.27c-.23.38-.42.74-.61,1.06h4Zm-2,6.48h-5.82a15.28,15.28,0,0,1,2,1.25L811,574.1a13,13,0,0,0-3-1.88l.78-.76H804v-5.8H816.2Zm-4.41,3.36c.7,0,.82-.21.91-1.54a6.35,6.35,0,0,0,1.92.7c-.25,2.11-.85,2.64-2.62,2.64h-3.06c-2.39,0-3-.55-3-2.33v-2h2.2v2c0,.49.15.55,1,.55Zm2.17-7.75h-7.87v.82H814Zm0,2.15h-7.87V570H814Zm-6.42-7.32a10.22,10.22,0,0,1,.53,1.33h3.87c.19-.44.4-.93.53-1.33Zm8.6,10a14.42,14.42,0,0,1,2.32,3.36l-2,.87a14.18,14.18,0,0,0-2.18-3.44Z"/><path d="M801.25,595.06a13.08,13.08,0,0,0,2-4.41l2,.74a16.17,16.17,0,0,1-2,4.79Zm7.84-5.74h-5.94v-9h13.6v9h-7.18a14.8,14.8,0,0,1,3.51,2.41l-1.61,1.54a15.85,15.85,0,0,0-3.71-2.72Zm-3.82-5.45h3.58v-1.6h-3.58Zm0,3.49h3.58v-1.67h-3.58Zm6.71,7.51c.78,0,.93-.29,1-2.17a6.58,6.58,0,0,0,2,.84c-.25,2.69-.92,3.38-2.89,3.38H809c-2.51,0-3.14-.67-3.14-2.68v-3.12h2.28v3.1c0,.57.17.65,1.12.65Zm2.53-12.6H811v1.6h3.48Zm0,3.42H811v1.67h3.48Zm1.82,4.84a16.72,16.72,0,0,1,2.51,4.6l-2.21.93a17,17,0,0,0-2.31-4.69Z"/><path d="M807.92,618.56c1.47-.55,2.28-1.5,2.28-2.6H810a1.64,1.64,0,0,1-1.74-1.66,1.68,1.68,0,0,1,1.8-1.65c1.29,0,2,1,2,2.75a4.79,4.79,0,0,1-3.59,4.68Z"/><path d="M818.21,634.42V639H816v-2.62H804.06V639h-2.17v-4.58h2.57a11.37,11.37,0,0,0-1.07-1.65l2.06-.83a9.13,9.13,0,0,1,1.38,2l-1,.45h3v-2.6h2.33v2.6h3l-1.06-.38a12.36,12.36,0,0,0,1.37-2.07l2.43.73c-.55.66-1.08,1.25-1.56,1.72Zm-1.1,12.28c0,1-.21,1.59-1,1.93A8.37,8.37,0,0,1,813,649a8,8,0,0,0-.73-2.05c.86,0,1.86,0,2.13,0s.38-.07.38-.28v-1.84h-3.42v4.78H809v-4.78h-3.58v3.93h-2.3v-6H809v-1.14H805v-4.37h10.11v4.37h-3.71v1.14h5.74Zm-10-6.63h5.65v-1.18h-5.65Z"/><path d="M818.21,654.85v4.58H816v-2.62H804.06v2.62h-2.17v-4.58h2.57a10.85,10.85,0,0,0-1.07-1.65l2.06-.84a9.37,9.37,0,0,1,1.38,2l-1,.46h3v-2.6h2.33v2.6h3l-1.06-.38a12.36,12.36,0,0,0,1.37-2.07l2.43.72a22,22,0,0,1-1.56,1.73Zm-1.1,12.27c0,1-.21,1.6-1,1.94a8.61,8.61,0,0,1-3.13.32,8.1,8.1,0,0,0-.73-2c.86,0,1.86,0,2.13,0s.38-.08.38-.29v-1.84h-3.42V670H809v-4.79h-3.58v3.93h-2.3v-5.94H809v-1.14H805v-4.37h10.11v4.37h-3.71v1.14h5.74Zm-10-6.63h5.65v-1.18h-5.65Z"/><path d="M808.26,677.1a13.2,13.2,0,0,1-.76,1.5h8.83V688c0,1.12-.21,1.73-1,2.07a8.19,8.19,0,0,1-3.36.38,9.5,9.5,0,0,0-.69-2.18c1,.06,2.08.06,2.4.06s.44-.12.44-.38v-1.14H807a6.66,6.66,0,0,1-2.1,3.78,7.71,7.71,0,0,0-1.64-1.73c1.64-1.43,1.77-3.46,1.77-5.23v-1.53a15.09,15.09,0,0,1-2.36,2.07,12.45,12.45,0,0,0-1.48-1.75,14.33,14.33,0,0,0,4.56-5.3h-4.12V675h5.09c.3-.78.55-1.54.76-2.3l2.33.53c-.18.59-.39,1.18-.6,1.77h9.27v2.13Zm5.87,7.81v-1.24h-6.82c0,.4,0,.8,0,1.24Zm0-4.32h-6.82v1.2h6.82Z"/><path d="M811.12,693.14c0,.79,0,1.82-.13,3,.27,2.56,1.43,9.73,8.06,12.65a6,6,0,0,0-1.66,2,14.72,14.72,0,0,1-7.42-9,15.47,15.47,0,0,1-7,9.1,7,7,0,0,0-1.88-1.84c7.72-4.12,7.36-12.63,7.43-15.84Z"/><path d="M816.18,729.35c.61,0,.74-.19.81-1.48a6.5,6.5,0,0,0,1.87.68c-.23,2-.8,2.49-2.45,2.49h-2.8c-2.26,0-2.83-.5-2.83-2.19V728h-2.09c-.57,1.9-2.05,2.83-6.61,3.29a5.65,5.65,0,0,0-1-1.71c3.63-.21,4.81-.63,5.3-1.58h-1.95v-6.4h11V728H813v.83c0,.48.15.52.91.52Zm-12.46-6.92h-2V719.6h2.09l-.3-4.5,0,0a22.63,22.63,0,0,0,3.44-1.54l1.19,1a22.28,22.28,0,0,1-2.6,1.1l0,.46h2v1.18h-1.89l.06.59h1.88V719h-1.8l0,.61h2.65c-.23-.23-.54-.51-.74-.68a11.18,11.18,0,0,0,1.48-.82c-.33-.21-.65-.42-1-.59l.85-.76a11.53,11.53,0,0,1,1,.61,5.87,5.87,0,0,0,.72-.82l.08,0a8,8,0,0,0-.82-.68,8,8,0,0,1-1.45.89,7.91,7.91,0,0,0-.93-.87,9.67,9.67,0,0,0,1.35-.73c-.28-.17-.57-.34-.83-.47l.85-.76c.31.15.61.34.93.53a4,4,0,0,0,.72-.78l1.2.35a5.68,5.68,0,0,1-.91,1.06,9.9,9.9,0,0,1,.78.65l-.84.83,1.1.29a8.27,8.27,0,0,1-1,1.17,8.08,8.08,0,0,1,.93.78l-.81.78h3.11l0-.61h-1.9v-1.17h2l0-.59h-2v-1.18h2l0-.59h-2.3v-1.31h4.35c0,1.77-.15,3.91-.3,5.45h2v2.83h-2.09V721h-12.5Zm2.88,1h6.6v-.63h-6.6Zm0,1.71h6.6v-.63h-6.6Zm0,1.77h6.6v-.67h-6.6Zm4.51-7.26a8.29,8.29,0,0,0-.9-.78,12.85,12.85,0,0,1-1.14.78Z"/><path d="M807.4,739a19.08,19.08,0,0,1-1.65,2.4v10.31h-2.19v-7.88a18.28,18.28,0,0,1-1.71,1.54,16.6,16.6,0,0,0-1.08-2.34,17.23,17.23,0,0,0,4.66-4.88Zm-.32-4.12a20.15,20.15,0,0,1-5,4.77,13.72,13.72,0,0,0-1.12-1.92,13.6,13.6,0,0,0,3.95-3.72Zm11.55,11.91H816v2.7c0,1-.19,1.57-.93,1.9a7.64,7.64,0,0,1-3,.32,8.28,8.28,0,0,0-.7-2c.8,0,1.69,0,1.93,0s.35-.09.35-.3v-2.64h-4a19.68,19.68,0,0,1,2.16,2.37l-1.69,1.2A16.12,16.12,0,0,0,808,747.7l1.4-.93h-2.65v-1.92h7v-1.08h-6.5v-1.84h11v1.84H816v1.08h2.58Zm-1-5.68h-9.4v-6.57h9.4Zm-2.28-5h-4.94V737h4.94Zm0,2.44h-4.94v1h4.94Z"/><path d="M818,763.4a18.88,18.88,0,0,1-3.16,4.16c.51,1.46,1.1,2.33,1.67,2.33.4,0,.63-.91.73-3.15a5.62,5.62,0,0,0,1.86,1.29c-.36,3.33-1.07,4.16-2.8,4.16-1.38,0-2.45-1.14-3.26-3a20.18,20.18,0,0,1-3.52,2.32,10.15,10.15,0,0,0-1.5-1.83,19.3,19.3,0,0,0,4.24-2.67,35.2,35.2,0,0,1-1-5.09h-3.86v2.16l2.93-.53.17,2.05-3.1.63v3.25c0,1.23-.26,1.84-1,2.2a8.32,8.32,0,0,1-3.42.44,9.26,9.26,0,0,0-.8-2.28c1.06,0,2.16,0,2.51,0s.45-.1.45-.4V766.7c-1.21.25-2.39.5-3.4.69l-.55-2.28c1.08-.17,2.45-.38,4-.65v-2.54h-3.59v-2.15h3.59V757.6c-1,.17-2.07.31-3,.42a8.68,8.68,0,0,0-.64-1.9,49,49,0,0,0,7.54-1.59l1.52,1.91c-1,.29-2,.54-3.1.76v2.57H811c-.15-1.71-.21-3.48-.23-5.21h2.38a44.55,44.55,0,0,0,.19,5.21h5.16v2.15h-4.94c.16,1.13.35,2.24.55,3.2a15,15,0,0,0,1.81-2.58Zm-1.39-4.18a15.21,15.21,0,0,0-2.7-3.14l1.71-1.16a16.52,16.52,0,0,1,2.81,3Z"/><path d="M807.69,785l-2.13.59v4.58c0,1.06-.19,1.59-.78,2a5.16,5.16,0,0,1-2.58.42,8.44,8.44,0,0,0-.63-2.07,12.16,12.16,0,0,0,1.44,0c.23,0,.33-.08.33-.3v-4l-1.81.47-.55-2.16c.68-.13,1.48-.33,2.36-.51v-3.46h-2v-2.09h2v-3.57h2.22v3.57h1.75v2.09h-1.75v2.89l1.84-.48Zm7.77,5c1.06,0,1.25-.5,1.44-2.63a7.42,7.42,0,0,0,2.18.92c-.3,2.85-1,3.89-3.41,3.89h-4.13c-2.62,0-3.45-.7-3.45-3.53V775.71h10.08v10.6H815.8v-1.2h-5.36v3.54c0,1.16.17,1.33,1.35,1.33Zm-5-12.05v5h1.61v-5Zm5.36,0h-1.64v5h1.64Z"/><path d="M810.12,804.28s0,.55,0,.82c-.19,4.58-.38,6.4-.91,7a2,2,0,0,1-1.43.7,13.29,13.29,0,0,1-2.3.06,4.42,4.42,0,0,0-.57-2,14.6,14.6,0,0,0,1.87.1.68.68,0,0,0,.62-.25c.29-.32.46-1.54.59-4.54h-2.11a10.75,10.75,0,0,1-3.34,6.74,5.91,5.91,0,0,0-1.5-1.65c2.49-2.05,2.87-5.47,3-8.62h-1.9v-6.61H810v6.61h-3.71c0,.51-.07,1-.11,1.55Zm-5.93-3.57h3.57v-2.6h-3.57Zm9.39,7.53h-2.21v-10.7h2.21Zm4.5-12.62v14.63c0,1.33-.27,2-1.05,2.32a10.14,10.14,0,0,1-3.78.43,7.81,7.81,0,0,0-.78-2.33c1.24,0,2.45,0,2.85,0s.52-.12.52-.46V795.62Z"/><path d="M811.12,815.69c0,.79,0,1.82-.13,3,.27,2.56,1.43,9.73,8.06,12.65a6,6,0,0,0-1.66,2,14.72,14.72,0,0,1-7.42-9,15.47,15.47,0,0,1-7,9.1,7,7,0,0,0-1.88-1.84c7.72-4.12,7.36-12.63,7.43-15.84Z"/><path d="M818.36,838.67V843h-2.24v-2.4H804V843h-2.12v-4.32h2.5a16.1,16.1,0,0,0-1-1.63l2-.8a12.18,12.18,0,0,1,1.5,2.28l-.34.15h2.36v-2.58h2.26v2.58h2.24l-.12,0a13.5,13.5,0,0,0,1.35-2.43l2.4.7c-.46.64-.92,1.25-1.33,1.76Zm-15.14,8h13.83v7.2h-2.26v-.43h-9.42v.45h-2.15Zm11.86-5.15v4.36H805V841.5Zm-9.71,6.79v1h3.53v-1Zm3.53,3.49v-1h-3.53v1Zm3.93-8.66h-5.7v1.12h5.7Zm2,5.17h-3.7v1h3.7Zm0,3.49v-1h-3.7v1Z"/><path d="M807.92,875.13c1.47-.55,2.28-1.5,2.28-2.6H810a1.63,1.63,0,0,1-1.74-1.65,1.68,1.68,0,0,1,1.8-1.66c1.29,0,2,1,2,2.76a4.79,4.79,0,0,1-3.59,4.67Z"/><path d="M810.16,889.37s0,.85,0,1.14c0,9.82,0,13.22-.59,14.17a2,2,0,0,1-1.43,1.1,9.37,9.37,0,0,1-2.28.11,6.39,6.39,0,0,0-.68-2.41c.7.06,1.33.06,1.69.06a.63.63,0,0,0,.59-.4,9.91,9.91,0,0,0,.34-3.23h-2.33a14.1,14.1,0,0,1-2.61,6.25,11.11,11.11,0,0,0-1.84-1.67,10,10,0,0,0,2.16-4.58H801.4v-2h2.13c.09-.73.15-1.45.2-2.23h-2.1v-2h2.2c0-.74,0-1.5,0-2.28H801.4v-2Zm-2.34,8.55c0-.67,0-1.39,0-2.23H806c-.06.78-.14,1.5-.21,2.23Zm-1.71-6.5q0,1.17-.06,2.28h1.81l0-2.28Zm12.8-1.16c-.74,1.79-1.63,3.91-2.47,5.58a5.78,5.78,0,0,1,2.15,4.39,3.1,3.1,0,0,1-1.12,2.78,3.41,3.41,0,0,1-1.39.47,13,13,0,0,1-1.8,0,5.41,5.41,0,0,0-.63-2.13,8.62,8.62,0,0,0,1.39,0,2.21,2.21,0,0,0,.87-.17c.4-.21.53-.63.53-1.25,0-1.07-.51-2.4-2.22-3.88.63-1.37,1.31-3.25,1.82-4.69h-2.56v14.7h-2.15V889.31H817l.32-.08Z"/><path d="M811.35,924.13c.5,0,1,.06,1.52.06,1.07,0,4.71,0,6.06-.06a8.19,8.19,0,0,0-.76,2.17h-5.41c-3.48,0-5.83-.49-7.43-2.7a8.48,8.48,0,0,1-2.66,3,9.25,9.25,0,0,0-1.71-1.57,8,8,0,0,0,3.53-5.76l2.27.34c-.14.61-.29,1.18-.44,1.73a4.2,4.2,0,0,0,2.73,2.38v-4.83h-7.41v-2H818.4v2h-7v1.42h5.85v2h-5.85Zm5.25-8H803.39v-6.59H816.6Zm-2.3-5h-8.7v1h8.7Zm0,2.46h-8.7v1h8.7Z"/><path d="M813.42,943.51a40.33,40.33,0,0,1,5.25,2L816.79,947a32.2,32.2,0,0,0-5.48-2.24l1.22-1.26H807l1.77,1.24A22.86,22.86,0,0,1,803,947a14,14,0,0,0-1.54-1.54,20.09,20.09,0,0,0,5.29-2h-5.19v-1.86h2.53v-8.36h4.54l.17-.85h-6.73v-1.88h7c0-.48.1-.93.12-1.33l2.37.23-.19,1.1H818v1.88h-7c-.07.3-.11.59-.17.85H816v8.36h2.45v1.86Zm-7.14-8.81v.82h7.45v-.82Zm7.45,2.09h-7.45v.72h7.45Zm-7.45,2v.74h7.45v-.74Zm0,2.88h7.45v-.87h-7.45Z"/><path d="M818.4,952.62s0,.76,0,1c-.25,8.49-.45,11.52-1.23,12.52a2.55,2.55,0,0,1-1.83,1.05,23.4,23.4,0,0,1-3,0,5.36,5.36,0,0,0-.74-2.21c1.22.12,2.34.12,2.83.12a1,1,0,0,0,.84-.33c.55-.61.79-3.45,1-10.16h-4.06a17.42,17.42,0,0,1-1.67,3,14.67,14.67,0,0,0-1.47-1.06v8.87H804v1.39h-2V952.75h2.15a22,22,0,0,0,.55-3.06l2.47.34c-.33,1-.67,1.9-1,2.72h2.94v3.08a19.53,19.53,0,0,0,2.57-6.12l2.15.49a23.3,23.3,0,0,1-.75,2.42ZM807,954.73h-3v3.07h3Zm0,8.75v-3.72h-3v3.72Zm6.31-1a40.77,40.77,0,0,0-2.64-4.39l1.77-1a48.32,48.32,0,0,1,2.79,4.22Z"/><path d="M807.92,988.73c1.47-.55,2.28-1.5,2.28-2.6H810a1.63,1.63,0,0,1-1.74-1.65,1.67,1.67,0,0,1,1.8-1.65c1.29,0,2,1,2,2.75a4.79,4.79,0,0,1-3.59,4.67Z"/><path d="M818,1011a18.65,18.65,0,0,1-3.16,4.16c.51,1.47,1.1,2.34,1.67,2.34.4,0,.63-.91.73-3.15a5.78,5.78,0,0,0,1.86,1.29c-.36,3.32-1.07,4.16-2.8,4.16-1.38,0-2.45-1.14-3.26-3a19.57,19.57,0,0,1-3.52,2.31,9.77,9.77,0,0,0-1.5-1.82,19.35,19.35,0,0,0,4.24-2.68,35.2,35.2,0,0,1-1-5.09h-3.86v2.17l2.93-.54.17,2.06-3.1.62v3.25c0,1.24-.26,1.84-1,2.21a8.18,8.18,0,0,1-3.42.43,9.56,9.56,0,0,0-.8-2.28c1.06.06,2.16,0,2.51,0s.45-.09.45-.4v-2.75c-1.21.25-2.39.49-3.4.68l-.55-2.28c1.08-.17,2.45-.38,4-.64v-2.55h-3.59v-2.15h3.59v-2.16c-1,.17-2.07.3-3,.42a8.68,8.68,0,0,0-.64-1.9,47.77,47.77,0,0,0,7.54-1.6l1.52,1.92c-1,.28-2,.53-3.1.76v2.56H811c-.15-1.71-.21-3.47-.23-5.2h2.38a44.38,44.38,0,0,0,.19,5.2h5.16v2.15h-4.94c.16,1.14.35,2.24.55,3.21a15.41,15.41,0,0,0,1.81-2.58Zm-1.39-4.18a15.18,15.18,0,0,0-2.7-3.13l1.71-1.16a16.21,16.21,0,0,1,2.81,3Z"/><path d="M813.42,1036.69a40.33,40.33,0,0,1,5.25,2l-1.88,1.52a31.34,31.34,0,0,0-5.48-2.25l1.22-1.25H807l1.77,1.24a22.86,22.86,0,0,1-5.74,2.28,13.17,13.17,0,0,0-1.54-1.54,20.45,20.45,0,0,0,5.29-2h-5.19v-1.86h2.53v-8.36h4.54c.05-.27.11-.55.17-.85h-6.73v-1.89h7c0-.47.1-.93.12-1.33l2.37.23-.19,1.1H818v1.89h-7c-.07.3-.11.58-.17.85H816v8.36h2.45v1.86Zm-7.14-8.81v.81h7.45v-.81Zm7.45,2.09h-7.45v.72h7.45Zm-7.45,2v.74h7.45v-.74Zm0,2.89h7.45V1034h-7.45Z"/><path d="M818.4,1045.79s0,.76,0,1c-.25,8.49-.45,11.51-1.23,12.52a2.54,2.54,0,0,1-1.83,1,20.19,20.19,0,0,1-3,0,5.27,5.27,0,0,0-.74-2.2c1.22.11,2.34.11,2.83.11a1,1,0,0,0,.84-.32c.55-.61.79-3.46,1-10.17h-4.06a17.53,17.53,0,0,1-1.67,3,13.18,13.18,0,0,0-1.47-1.07v8.87H804V1060h-2v-14.11h2.15a22,22,0,0,0,.55-3.06l2.47.34c-.33,1-.67,1.9-1,2.72h2.94V1049a19.37,19.37,0,0,0,2.57-6.11l2.15.49a22.41,22.41,0,0,1-.75,2.41ZM807,1047.9h-3V1051h3Zm0,8.76v-3.72h-3v3.72Zm6.31-1a39.76,39.76,0,0,0-2.64-4.38l1.77-1a46.86,46.86,0,0,1,2.79,4.22Z"/><path d="M816.18,1079.1c.61,0,.74-.19.81-1.48a6.5,6.5,0,0,0,1.87.68c-.23,2-.8,2.49-2.45,2.49h-2.8c-2.26,0-2.83-.5-2.83-2.19v-.85h-2.09c-.57,1.9-2.05,2.83-6.61,3.29a5.65,5.65,0,0,0-1-1.71c3.63-.21,4.81-.63,5.3-1.58h-1.95v-6.4h11v6.4H813v.83c0,.48.15.52.91.52Zm-12.46-6.92h-2v-2.83h2.09l-.3-4.5,0,0a22.63,22.63,0,0,0,3.44-1.54l1.19,1a22.28,22.28,0,0,1-2.6,1.1l0,.46h2V1067h-1.89l.06.59h1.88v1.17h-1.8l0,.61h2.65c-.23-.23-.54-.51-.74-.68a10.15,10.15,0,0,0,1.48-.82c-.33-.21-.65-.42-1-.59l.85-.76a11.53,11.53,0,0,1,1,.61,5.87,5.87,0,0,0,.72-.82l.08,0a9.54,9.54,0,0,0-.82-.68,8,8,0,0,1-1.45.89,7.91,7.91,0,0,0-.93-.87,10.8,10.8,0,0,0,1.35-.72,9.21,9.21,0,0,0-.83-.48l.85-.76c.31.15.61.34.93.53a4,4,0,0,0,.72-.78l1.2.35a5.68,5.68,0,0,1-.91,1.06c.3.23.57.46.78.65l-.84.83,1.1.29a7.27,7.27,0,0,1-1,1.17,8.08,8.08,0,0,1,.93.78l-.81.78h3.11l0-.61h-1.9v-1.17h2l0-.59h-2v-1.18h2l0-.59h-2.3v-1.31h4.35c0,1.77-.15,3.91-.3,5.45h2v2.83h-2.09v-1.42h-12.5Zm2.88,1h6.6v-.62h-6.6Zm0,1.71h6.6v-.62h-6.6Zm0,1.77h6.6v-.67h-6.6Zm4.51-7.26a9.55,9.55,0,0,0-.9-.78,12.85,12.85,0,0,1-1.14.78Z"/><path d="M807.4,1088.73a19.08,19.08,0,0,1-1.65,2.4v10.31h-2.19v-7.88a18.28,18.28,0,0,1-1.71,1.54,16.6,16.6,0,0,0-1.08-2.34,17.23,17.23,0,0,0,4.66-4.88Zm-.32-4.12a20.15,20.15,0,0,1-5,4.77,14.32,14.32,0,0,0-1.12-1.92,13.6,13.6,0,0,0,3.95-3.72Zm11.55,11.91H816v2.7c0,1-.19,1.58-.93,1.9a7.64,7.64,0,0,1-3,.32,8.28,8.28,0,0,0-.7-2c.8,0,1.69,0,1.93,0s.35-.1.35-.31v-2.64h-4a19,19,0,0,1,2.16,2.38l-1.69,1.19a16.12,16.12,0,0,0-2.18-2.64l1.4-.93h-2.65v-1.92h7v-1.08h-6.5v-1.84h11v1.84H816v1.08h2.58Zm-1-5.68h-9.4v-6.57h9.4Zm-2.28-5h-4.94v1h4.94Zm0,2.44h-4.94v1h4.94Z"/><path d="M807.19,1104.88a29.1,29.1,0,0,1-1.8,3.9v13.07h-2.17v-9.71a19,19,0,0,1-1.27,1.54,15.14,15.14,0,0,0-1.22-2.36,19.81,19.81,0,0,0,4.31-7.1Zm6.73,4.75v9.73c0,1.08-.19,1.71-.88,2.09a6,6,0,0,1-2.79.46,7.67,7.67,0,0,0-.78-2.29c.8,0,1.6,0,1.86,0s.35-.07.35-.32v-9.69h-2.21a16.63,16.63,0,0,1-1.78,2.91,15.14,15.14,0,0,0-1.83-1.48,16.74,16.74,0,0,0,3.23-6.84l2.2.49a27.34,27.34,0,0,1-.89,2.83h6.54l.36-.07,1.59.3c-.22,1.54-.55,3.31-.81,4.41l-1.92-.32c.09-.59.21-1.39.3-2.23Zm-3.16,3.42a19.64,19.64,0,0,1-2.58,6.35,14.88,14.88,0,0,0-1.94-1.22,13.65,13.65,0,0,0,2.32-5.58Zm5.86-.64a23.83,23.83,0,0,1,2.07,6.19l-2.17.74a24.2,24.2,0,0,0-1.92-6.25Z"/><path d="M811.85,1132.81h-3.27v9.44h-2.09v-16.64c-.38,1.09-.82,2.21-1.31,3.29v13.39H803v-9.5a14.44,14.44,0,0,1-1.18,1.56,15.8,15.8,0,0,0-1.08-2.43,20.77,20.77,0,0,0,3.76-7.33l2.09.62-.11.36h5.34Zm-3.27-5.53v1.09h1.56v-1.09Zm1.56,3.82V1130h-1.56v1.12Zm8.2,8.57c0,1.25-.26,1.86-1,2.19a10,10,0,0,1-3.76.41,8.23,8.23,0,0,0-.73-2.18c1.16.07,2.47.06,2.85,0s.5-.12.5-.48v-6.84H812.7v-7.24h5.64Zm-3.85-12.39v1.09h1.69v-1.09Zm1.69,3.82V1130h-1.69v1.12Z"/><path d="M819,1147c-.68,1.82-1.52,4-2.3,5.64a6.07,6.07,0,0,1,1.94,4.41c0,1.42-.31,2.35-1.07,2.85a2.94,2.94,0,0,1-1.33.51,8.88,8.88,0,0,1-1.65,0,5.57,5.57,0,0,0-.57-2.19,8.55,8.55,0,0,0,1.2,0,1.61,1.61,0,0,0,.76-.17c.36-.21.49-.66.49-1.29a5.46,5.46,0,0,0-2-3.9c.55-1.36,1.19-3.28,1.67-4.74h-2.41v14.55h-2.23v-16.26a22.78,22.78,0,0,1-2,4h1.41v2h-2.83c-.4.49-.8.93-1.22,1.38h3.42v8.57h-2.15v-.72h-3.06v1H803v-5.76c-.32.21-.64.4-.95.57a11.43,11.43,0,0,0-1.31-1.88,17.74,17.74,0,0,0,4.54-3.13h-4v-2h3.3v-1.56h-2.49V1147h2.49v-1.85h2.09V1147h2v1a18.58,18.58,0,0,0,.93-2.12l2,.55V1146H817l.35-.08Zm-10.85,8.66h-3.06v1.22h3.06Zm0,4.26v-1.35h-3.06v1.35Zm-1.1-9.41c.36-.49.7-1,1.05-1.56h-1.43v1.56Z"/><path d="M811.35,1180.71c.5,0,1,.06,1.52.06,1.07,0,4.71,0,6.06-.06a8,8,0,0,0-.76,2.17h-5.41c-3.48,0-5.83-.5-7.43-2.7a8.57,8.57,0,0,1-2.66,3,9,9,0,0,0-1.71-1.58,8,8,0,0,0,3.53-5.75l2.27.34c-.14.61-.29,1.18-.44,1.73a4.19,4.19,0,0,0,2.73,2.37v-4.82h-7.41v-2H818.4v2h-7v1.42h5.85v2h-5.85Zm5.25-8H803.39v-6.6H816.6Zm-2.3-5h-8.7v1h8.7Zm0,2.45h-8.7v1h8.7Z"/><path d="M807.92,1204.46c1.47-.55,2.28-1.5,2.28-2.6H810a1.64,1.64,0,0,1-1.74-1.66,1.68,1.68,0,0,1,1.8-1.65c1.29,0,2,1,2,2.76a4.79,4.79,0,0,1-3.59,4.67Z"/><path d="M812.64,1223.88A48.89,48.89,0,0,1,819,1229l-1.92,1.73a43.16,43.16,0,0,0-5.81-5.15v9.84h-2.47v-9.27a22.79,22.79,0,0,1-6,4.67,13.52,13.52,0,0,0-1.56-2,20,20,0,0,0,8.19-7.47h-7.58V1219h16.47v2.31h-5.91a18.18,18.18,0,0,1-1.1,1.75v2Z"/><path d="M806.49,1247A23.79,23.79,0,0,1,805,1252c.3.19.66.46,1.16.76,1.31.78,3.09.89,5.32.89a65.47,65.47,0,0,0,7.69-.49,7.8,7.8,0,0,0-.66,2.32c-1.56.09-4.93.22-7.15.22-2.52,0-4.12-.21-5.49-1-.8-.44-1.48-1.07-1.86-1.07s-1.12,1.29-1.6,2.38l-1.5-2.15a8.63,8.63,0,0,1,2-1.82,18.66,18.66,0,0,0,1.1-3.29h-2.39c.43-1.12.93-2.64,1.36-4.12h-1.7v-2h4.44c-.4,1.33-.85,2.85-1.31,4.18h.78l.34-.07Zm-3.19-5c-.21-.85-.72-2.22-1-3.26l2-.61c.36,1,.85,2.3,1.12,3.15Zm5.58,10.76h-2v-8.27h1.4v-5.81h8.19v5.81h1.39v6.35c0,.89-.16,1.37-.74,1.67a5.53,5.53,0,0,1-2.36.3,6.33,6.33,0,0,0-.49-1.63h-2.85v.59h-1.62V1247h5v4.09h.78c.21,0,.27-.06.27-.25v-4.62h-7Zm1.41-8.27h1.06v-3h3.14v-1.16h-4.2Zm2.89,3.93h-1.71v1.33h1.71Zm1.31-5.5H813v1.57h1.5Z"/><path d="M818,1267.6a18.88,18.88,0,0,1-3.16,4.16c.51,1.46,1.1,2.33,1.67,2.33.4,0,.63-.91.73-3.15a5.62,5.62,0,0,0,1.86,1.29c-.36,3.33-1.07,4.16-2.8,4.16-1.38,0-2.45-1.14-3.26-3a20.18,20.18,0,0,1-3.52,2.32,9.77,9.77,0,0,0-1.5-1.82,19.73,19.73,0,0,0,4.24-2.68,35.2,35.2,0,0,1-1-5.09h-3.86v2.16l2.93-.53.17,2-3.1.63v3.25c0,1.23-.26,1.84-1,2.2a8.15,8.15,0,0,1-3.42.44,9.41,9.41,0,0,0-.8-2.28c1.06,0,2.16,0,2.51,0s.45-.1.45-.4v-2.76c-1.21.25-2.39.5-3.4.69l-.55-2.28c1.08-.17,2.45-.38,4-.65v-2.54h-3.59V1264h3.59v-2.17c-1,.17-2.07.31-3,.42a8.68,8.68,0,0,0-.64-1.9,49,49,0,0,0,7.54-1.59l1.52,1.91c-1,.29-2,.54-3.1.76V1264H811c-.15-1.71-.21-3.48-.23-5.21h2.38a44.55,44.55,0,0,0,.19,5.21h5.16v2.15h-4.94c.16,1.14.35,2.24.55,3.21a15.48,15.48,0,0,0,1.81-2.59Zm-1.39-4.18a15.21,15.21,0,0,0-2.7-3.14l1.71-1.16a16.24,16.24,0,0,1,2.81,3Z"/><path d="M814.35,1294.46c1.71,0,2-.51,2.27-3a8.39,8.39,0,0,0,2.1.84c-.38,3.15-1.14,4.18-4.21,4.18h-5.93c-3.34,0-4.33-.76-4.33-3.69v-5.09l-2.66.83-.59-2,3.25-1v-5.15h2.22v4.44l2.91-.91V1279h2.26v4.12l3.51-1.08.61-.42,1.69.53-.07.34a68.76,68.76,0,0,1-.84,8.49l-1.86-.53c.22-1.54.38-4,.45-6.23l-3.49,1.12v7.11h-2.26v-6.41l-2.91.94v5.81c0,1.4.27,1.63,2.13,1.63Z"/><path d="M807.19,1300.18a30.69,30.69,0,0,1-1.82,3.92v13.05h-2.15v-9.71a18,18,0,0,1-1.29,1.52,14.82,14.82,0,0,0-1.2-2.34,20,20,0,0,0,4.31-7.12Zm11.69,15.07v1.63H806.64v-1.63h5v-.86h-3.86v-1.61h3.86V1312h-4.33v-1.63h4.33v-.67h-4.12v-4.16h4.12v-.65h-2.57v-2.29h-2.16V1301h2.16v-1.54h2.07V1301h3.16v-1.54h2.22V1301h2.2v1.62h-2.2v2.29h-2.66v.65h4.26v4.16h-4.26v.67h4.39V1312h-4.39v.78h4v1.61h-4v.86Zm-7.24-7V1307h-2v1.22Zm-.5-4.79h3.16v-.83h-3.16Zm2.72,3.57v1.22h2.07V1307Z"/><path d="M806,1332.94h-2.67v1.61h-1.62V1321H806Zm-2.67-10.18v8.39h1.12v-8.39Zm14.95,12.63c0,.89-.16,1.46-.69,1.8a4.11,4.11,0,0,1-2.28.4,6.48,6.48,0,0,0-.61-1.95c.63,0,1.24,0,1.45,0s.27-.09.27-.32v-4.12H815a11.91,11.91,0,0,1-2,6.42,6.74,6.74,0,0,0-1.5-1.08,7.4,7.4,0,0,0,1.12-2h-1.94v3.11h-2v-3.11h-2.41v-1.85h2.41v-1.17h-1.77v-6.75h1.77v-1.16h-2v-1.84h2V1320h2v1.77h2.09v1.84h-2.09v1.16h1.86v6.75h-1.86v1.17h2.07v1.46a19.11,19.11,0,0,0,.61-5.43v-7.94h5Zm-9.75-8h2.17v-.91h-2.17Zm0,2.47h2.17v-.91h-2.17Zm6.56-7.2v2.45h1.33v-2.45Zm1.33,6.73V1327H815.1v2.4Z"/><path d="M804.63,1343.71a13.83,13.83,0,0,1-2,2.64,21.67,21.67,0,0,0-1.59-1.59,12.57,12.57,0,0,0,2.88-4.64l2.11.61a9.44,9.44,0,0,1-.44,1.08h4.2v1.9h-3.15c.68.57,1.46,1.24,1.9,1.69l-1.39,1.37a24.27,24.27,0,0,0-2.33-2.24l.89-.82Zm7.5,8.84a10.55,10.55,0,0,0,6.61,3.53,8.35,8.35,0,0,0-1.4,2,11,11,0,0,1-7.26-4.83c-1.1,2.11-3.21,3.78-7.43,4.81a6.09,6.09,0,0,0-1.19-1.88c3.58-.78,5.35-2.06,6.28-3.61h-6.21v-2h7a11.46,11.46,0,0,0,.29-1.69c-1.84.13-3.71.19-5.45.23a6.63,6.63,0,0,0-.5-1.92,81.86,81.86,0,0,0,12.14-1,18.93,18.93,0,0,0-1.75-1.72l.75-.69h-1.39a13.38,13.38,0,0,1-1.56,2.41,14.63,14.63,0,0,0-1.71-1.33,11.11,11.11,0,0,0,2.45-4.69l2,.51c-.11.38-.24.78-.4,1.18h5.23v1.92h-3.44c.57.51,1.16,1,1.5,1.43l-.83.79.18,0,1.24,1.88a50.86,50.86,0,0,1-5.93.87c-.09.67-.19,1.29-.32,1.9h7.58v2Z"/><path d="M809,1367.82s0,.63,0,.9c-.11,5.7-.25,7.84-.74,8.51a1.71,1.71,0,0,1-1.24.81,10.88,10.88,0,0,1-1.92.08,5.3,5.3,0,0,0-.56-2c.55,0,1,.05,1.31.05a.59.59,0,0,0,.53-.28c.25-.38.38-1.88.46-6h-1.72c-.24,3.55-.83,6.47-2.46,8.54a6.75,6.75,0,0,0-1.64-1.69c1.86-2.43,2-6.17,2-11h-1.48v-2.09h3.35a13,13,0,0,0-1.22-2.28l2-.76a12,12,0,0,1,1.45,2.55l-1.22.49h3.57v2.09H805.2c0,.72,0,1.39,0,2.07Zm6.38-6.61c-.13.46-.28.89-.45,1.33a11.88,11.88,0,0,0,4.29,4.67,9.54,9.54,0,0,0-1.62,1.79,13.93,13.93,0,0,1-3.66-4.29,12.75,12.75,0,0,1-3.84,4.42,7.4,7.4,0,0,0-1.56-1.78,11.48,11.48,0,0,0,4.75-6.73Zm-3.53,11.8a37,37,0,0,1,5.47,3.36l-1.58,1.94a32.09,32.09,0,0,0-5.32-3.63Zm3.08-.78a23.4,23.4,0,0,0-3.23-2.75l1.44-1.47a23.65,23.65,0,0,1,3.34,2.61Z"/><path d="M810.57,1394.86l.16,2.22c-3.19.61-6.67,1.24-9.16,1.71l-.36-2.39,1.39-.21v-11.11h2.24v10.77l1.35-.23v-14.46h2.39v5.61h2.11v2.16h-2.11v6.29Zm5.59,1.39c.61,0,.72-.67.82-3.14a7.61,7.61,0,0,0,2.16,1c-.25,3.15-.83,4.35-2.75,4.35h-2.32c-2.09,0-2.7-.78-2.7-3.46v-13.85h2.4v5.61h4.29v2.16h-4.29v6.12c0,1,.07,1.2.68,1.2Z"/><path d="M807.92,1420.18c1.47-.55,2.28-1.5,2.28-2.6H810a1.63,1.63,0,0,1-1.74-1.65,1.67,1.67,0,0,1,1.8-1.65c1.29,0,2,1,2,2.75a4.81,4.81,0,0,1-3.59,4.68Z"/><path d="M818,1442.47a18.65,18.65,0,0,1-3.16,4.16c.51,1.47,1.1,2.34,1.67,2.34.4,0,.63-.91.73-3.15a5.78,5.78,0,0,0,1.86,1.29c-.36,3.32-1.07,4.16-2.8,4.16-1.38,0-2.45-1.14-3.26-3a19.57,19.57,0,0,1-3.52,2.31,9.77,9.77,0,0,0-1.5-1.82,19,19,0,0,0,4.24-2.68,35.2,35.2,0,0,1-1-5.09h-3.86v2.17l2.93-.53.17,2-3.1.62v3.25c0,1.24-.26,1.85-1,2.21a8.18,8.18,0,0,1-3.42.43,9.56,9.56,0,0,0-.8-2.28c1.06.06,2.16,0,2.51,0s.45-.09.45-.4v-2.75c-1.21.25-2.39.49-3.4.68l-.55-2.28c1.08-.17,2.45-.38,4-.64V1441h-3.59v-2.15h3.59v-2.16c-1,.17-2.07.3-3,.42a8.68,8.68,0,0,0-.64-1.9,47.77,47.77,0,0,0,7.54-1.6l1.52,1.92c-1,.29-2,.53-3.1.76v2.56H811c-.15-1.7-.21-3.47-.23-5.2h2.38a44.38,44.38,0,0,0,.19,5.2h5.16V1441h-4.94c.16,1.14.35,2.24.55,3.21a15,15,0,0,0,1.81-2.58Zm-1.39-4.18a15.18,15.18,0,0,0-2.7-3.13l1.71-1.16a16.52,16.52,0,0,1,2.81,3Z"/><path d="M810.16,1454.84s0,.86,0,1.14c0,9.82,0,13.23-.59,14.18a2,2,0,0,1-1.43,1.1,9.37,9.37,0,0,1-2.28.11,6.34,6.34,0,0,0-.68-2.41c.7.06,1.33.06,1.69.06a.63.63,0,0,0,.59-.4,10,10,0,0,0,.34-3.23h-2.33a14.2,14.2,0,0,1-2.61,6.25A11.11,11.11,0,0,0,801,1470a10,10,0,0,0,2.16-4.58H801.4v-2h2.13c.09-.72.15-1.44.2-2.22h-2.1v-2h2.2c0-.74,0-1.5,0-2.27H801.4v-2.06Zm-2.34,8.55c0-.66,0-1.38,0-2.22H806c-.06.78-.14,1.5-.21,2.22Zm-1.71-6.49c0,.77,0,1.53-.06,2.27h1.81l0-2.27Zm12.8-1.16c-.74,1.78-1.63,3.91-2.47,5.58a5.77,5.77,0,0,1,2.15,4.39,3.07,3.07,0,0,1-1.12,2.77,3.42,3.42,0,0,1-1.39.48,13,13,0,0,1-1.8,0,5.41,5.41,0,0,0-.63-2.13,8.62,8.62,0,0,0,1.39,0,2.21,2.21,0,0,0,.87-.17c.4-.21.53-.63.53-1.26,0-1.06-.51-2.39-2.22-3.87.63-1.37,1.31-3.25,1.82-4.7h-2.56v14.71h-2.15v-16.83H817l.32-.08Z"/><path d="M801.09,1489.71A25.08,25.08,0,0,0,803,1485l2,.81a51.16,51.16,0,0,1-1.73,4.85Zm7.79-6.63h-6v-6.63h6v-2.11h2.26v2.11h6.14v6.63h-6.14v1.42h-.41c.74.7,1.57,1.58,2,2.15L811,1488a26.24,26.24,0,0,0-2.45-2.73l1.14-.8h-.76Zm0-2v-2.62h-3.82v2.62Zm3.08,8.42c.84,0,1-.31,1.08-2.32a6.53,6.53,0,0,0,2.13.89c-.28,2.83-.93,3.56-3,3.56h-3.21c-2.56,0-3.21-.69-3.21-2.8v-3.72h2.37v3.69c0,.62.16.7,1.12.7Zm-.82-11v2.62H815v-2.62Zm4.85,6.35c.93,1.34,2.26,3.21,2.89,4.37l-2.11,1.17a42.92,42.92,0,0,0-2.74-4.56Z"/><path d="M818.71,1500.08v1.62h-3.44l-.16,1.48H804.19l.19-1.48h-3v-1.62h3.21l.19-1.44h10.75l-.13,1.44Zm-5.06,9.8c1.67.46,3.34.95,4.47,1.32l-1.54,1.38c-1.37-.51-3.59-1.27-5.78-1.84l.78-.86H808.1l1.14.84a23.19,23.19,0,0,1-6.45,1.88,11.08,11.08,0,0,0-1.2-1.54,24.83,24.83,0,0,0,5-1.18h-2.71v-6.15h12.38v6.15ZM804,1499.59h-2v-3.31h6.93a8.61,8.61,0,0,0-.55-1.14l2-.55a10.39,10.39,0,0,1,.87,1.69h6.94v3.31H816V1498H804Zm2.09,5.83H814v-.55h-7.91Zm0,1.67H814v-.59h-7.91Zm0,1.67H814v-.6h-7.91Zm.31-6.7h2.5l.08-.61h-2.51Zm.28-2.28-.07.55h2.48l.06-.55Zm6.52,2.28.05-.61h-2.43l-.07.61Zm.19-2.28H811l0,.55h2.39Z"/><path d="M818.4,1518.09s0,.76,0,1c-.25,8.49-.45,11.51-1.23,12.52a2.54,2.54,0,0,1-1.83,1,20.19,20.19,0,0,1-3,0,5.27,5.27,0,0,0-.74-2.2c1.22.11,2.34.11,2.83.11a1,1,0,0,0,.84-.32c.55-.61.79-3.46,1-10.16h-4.06a17.42,17.42,0,0,1-1.67,3,13.18,13.18,0,0,0-1.47-1.07V1531H804v1.38h-2v-14.11h2.15a22,22,0,0,0,.55-3.06l2.47.34c-.33,1-.67,1.9-1,2.72h2.94v3.07a19.37,19.37,0,0,0,2.57-6.11l2.15.49a22.41,22.41,0,0,1-.75,2.41ZM807,1520.2h-3v3.08h3Zm0,8.76v-3.72h-3V1529Zm6.31-1a39.76,39.76,0,0,0-2.64-4.38l1.77-1a46.86,46.86,0,0,1,2.79,4.22Z"/><path d="M808.58,1536a23.12,23.12,0,0,1,1.2,2.38l-1.69.76a20.07,20.07,0,0,0-1.07-2.38,26.7,26.7,0,0,1-1.48,3.35v13.18h-2.15v-9.65c-.4.53-.79,1-1.18,1.48a13.69,13.69,0,0,0-1.23-2.36,20,20,0,0,0,4.08-7.1l2.13.65-.09.26Zm4.12,13.43c-.76,1.45-2.37,2.85-5.43,3.92a8.52,8.52,0,0,0-1.37-1.56,8.93,8.93,0,0,0,4.37-2.36h-3.89v-1.74h4.78a3.89,3.89,0,0,0,.1-.8h-3.93v-1.66h3.95v-.77h-4.43v-1.7h2.53c-.16-.49-.34-1-.53-1.52l1.21-.32H806.7v-1.78H810v-3.56h1.86v3.56h1.16v-3.56h1.88v3.56h3.48v1.78H815.3l1.24.32c-.29.54-.53,1.07-.78,1.52h2.36v1.7H813.4v.77h4.18v1.66H813.4c0,.26,0,.53-.09.8h5.36v1.74Zm-2.07-8.51a10.08,10.08,0,0,1,.7,1.84h2.51a18.26,18.26,0,0,0,.67-1.84Zm3.23,8.53a35.71,35.71,0,0,1,5.07,2.55l-1.52,1.42a31.74,31.74,0,0,0-5-2.7Zm4.31-12.86c-.51.91-1,1.81-1.42,2.41l-1.45-.6a18.61,18.61,0,0,0,1.07-2.47Z"/><path d="M811.12,1556c0,.8,0,1.82-.13,3,.27,2.57,1.43,9.73,8.06,12.65a6,6,0,0,0-1.66,2,14.7,14.7,0,0,1-7.42-9,15.44,15.44,0,0,1-7,9.1,7.18,7.18,0,0,0-1.88-1.84c7.72-4.12,7.36-12.63,7.43-15.84Z"/><path d="M811.12,1591.7h7v2H802v-2h6.78v-2.3h-4.92v-2h4.92v-2.16h-4v-1.64a24.11,24.11,0,0,1-2.41,1.43,10.17,10.17,0,0,0-1.39-1.83,21.31,21.31,0,0,0,6.25-4.12H804.7V1577h6.5a17.25,17.25,0,0,0,7.9,6,11.52,11.52,0,0,0-1.52,2.07,19.65,19.65,0,0,1-2.39-1.35v1.56h-4.07v2.16h5v2h-5Zm3.42-8.42a25.13,25.13,0,0,1-4.56-4.16,25.85,25.85,0,0,1-4.67,4.16Z"/><path d="M818.67,1603.71a21.52,21.52,0,0,1-3.18,3.78v4.33c0,1.31-.24,2-1.1,2.35a10.06,10.06,0,0,1-3.85.42,9.47,9.47,0,0,0-.8-2.37c1.16.06,2.52,0,2.88,0s.54-.14.54-.48v-2.32a33.14,33.14,0,0,1-10.37,5,19,19,0,0,0-1.52-2.07,32.19,32.19,0,0,0,8.52-3.42c-2.83.23-5.56.42-7.63.59l-.23-2,2.37-.13v-8.74h3.94a18.78,18.78,0,0,0,.61-1.84l2.77.29a16.45,16.45,0,0,1-.88,1.55h4.75V1604a13.69,13.69,0,0,0,1-1.39Zm-12.1-3.1v1.1h6.59v-1.1Zm6.59,2.72h-6.59v1.12h6.59Zm-6.59,3.93,6.23-.44.36-.3v-.44h-6.59Z"/><path d="M818.65,1631.83v2.28H801.38v-2.28h6.8v-14.31h2.43V1623h6.71v2.3h-6.71v6.58Z"/><path d="M810.84,1641.39v3l.38-.44a43.48,43.48,0,0,1,6.48,3.84l-1.67,2.07a37.78,37.78,0,0,0-5.19-3.46v9h-2.43v-14h-6.86v-2.28h16.93v2.28Z"/><path d="M819,1660.14c-.68,1.82-1.52,4-2.3,5.64a6.07,6.07,0,0,1,1.94,4.41c0,1.42-.31,2.35-1.07,2.85a2.94,2.94,0,0,1-1.33.51,8.88,8.88,0,0,1-1.65,0,5.57,5.57,0,0,0-.57-2.19,8.55,8.55,0,0,0,1.2,0,1.5,1.5,0,0,0,.76-.17c.36-.21.49-.66.49-1.29a5.45,5.45,0,0,0-2-3.89c.55-1.37,1.19-3.29,1.67-4.75h-2.41v14.55h-2.23v-16.26a22.78,22.78,0,0,1-2,4h1.41v2h-2.83c-.4.49-.8.93-1.22,1.39h3.42v8.56h-2.15v-.72h-3.06v1H803v-5.76c-.32.21-.64.4-.95.57a11.43,11.43,0,0,0-1.31-1.88,17.49,17.49,0,0,0,4.54-3.13h-4v-2h3.3v-1.56h-2.49v-1.93h2.49v-1.85h2.09v1.85h2v1a19.55,19.55,0,0,0,.93-2.13l2,.55v-.36H817l.35-.08Zm-10.85,8.66h-3.06V1670h3.06Zm0,4.26v-1.35h-3.06v1.35Zm-1.1-9.41c.36-.49.7-1,1.05-1.56h-1.43v1.56Z"/><path d="M807.36,1683.51h-6.23v-1.77h2.7a12,12,0,0,0-1-2.51l1.6-.57a13.48,13.48,0,0,1,1.12,2.53l-1.35.55h3.15Zm-.49,11.76H803.3v.8h-1.58v-6.5h5.15Zm-.11-9.2h-4.85v-1.71h4.85Zm-4.85.88h4.85v1.69h-4.85Zm1.39,4.35v2.24h2v-2.24Zm15.35,1.36a10.42,10.42,0,0,1-1.85,1,7.48,7.48,0,0,0,2.38,1,6.66,6.66,0,0,0-1.16,1.59,7.42,7.42,0,0,1-5-4.71h-.25a7.17,7.17,0,0,1-1.26,1v1.5l2.21-.36a11.06,11.06,0,0,0,.08,1.67c-3,.59-3.63.78-4,1a5.38,5.38,0,0,0-.93-1.27,2.35,2.35,0,0,0,.9-1.6,15.14,15.14,0,0,1-1.79.71,9.24,9.24,0,0,0-1-1.41,13.23,13.23,0,0,0,3.23-1.18h-2.85V1690H810v-.6H808.2v-1.35H810v-.63H808v-1.35H810v-.83h-1.82v-3.33h4.52v3.33H812v.83h2v-.83h-.59v-3.33h4.6v3.33h-2v.83h2.34v1.35h-2.34v.63h2.11v1.35h-2.11v.6h2.76v1.54h-4a5.82,5.82,0,0,0,.8,1.14,17.87,17.87,0,0,0,1.84-1.1Zm0-11.26H807.55v-1.62H812a9.59,9.59,0,0,0-.42-1l1.88-.57a8.5,8.5,0,0,1,.74,1.52h4.37Zm-8.78,2.68h1.22v-1h-1.22Zm2.21,4h2v-.63h-2Zm0,2h2v-.6h-2Zm3-5.92h1.27v-1h-1.27Z"/><path d="M818,1708a18.88,18.88,0,0,1-3.16,4.16c.51,1.46,1.1,2.34,1.67,2.34.4,0,.63-.92.73-3.16a5.62,5.62,0,0,0,1.86,1.29c-.36,3.33-1.07,4.16-2.8,4.16-1.38,0-2.45-1.14-3.26-3a20.18,20.18,0,0,1-3.52,2.32,9.77,9.77,0,0,0-1.5-1.82,19.73,19.73,0,0,0,4.24-2.68,35.2,35.2,0,0,1-1-5.09h-3.86v2.16l2.93-.53.17,2-3.1.63v3.25c0,1.23-.26,1.84-1,2.2a8.15,8.15,0,0,1-3.42.44,9.41,9.41,0,0,0-.8-2.28c1.06.06,2.16,0,2.51,0s.45-.1.45-.4v-2.76c-1.21.25-2.39.5-3.4.69l-.55-2.28c1.08-.17,2.45-.38,4-.65v-2.54h-3.59v-2.15h3.59v-2.17c-1,.18-2.07.31-3,.42a8.86,8.86,0,0,0-.64-1.9,49,49,0,0,0,7.54-1.59l1.52,1.91c-1,.29-2,.54-3.1.76v2.57H811c-.15-1.71-.21-3.48-.23-5.21h2.38a44.55,44.55,0,0,0,.19,5.21h5.16v2.15h-4.94c.16,1.14.35,2.24.55,3.21a15.48,15.48,0,0,0,1.81-2.59Zm-1.39-4.18a15.21,15.21,0,0,0-2.7-3.14l1.71-1.15a15.9,15.9,0,0,1,2.81,3Z"/><path d="M818.08,1724a15.73,15.73,0,0,1-2.87,4.78c.46,3.58,1.14,6.12,1.73,6.12.26,0,.44-1,.49-3a4.7,4.7,0,0,0,1.67,1.24c-.32,3.13-.93,4-2.45,4s-2.71-2.74-3.34-6.5c-.36.29-.74.53-1.12.78-.17-.23-.48-.53-.78-.85h-2.24a24.66,24.66,0,0,1,1.46,2.62l-1.48.8a21.12,21.12,0,0,0-1.06-2.19v3.19c0,.5.07.55.55.55H810c.44,0,.54-.28.57-2a4.45,4.45,0,0,0,1.22.55c-.27-.65-.53-1.29-.78-1.86l1.48-.57c.61,1.29,1.35,3,1.71,4l-1.59.69c-.12-.42-.31-1-.54-1.56-.2,1.75-.7,2.24-1.88,2.24h-1.84c-1.67,0-2.05-.49-2.05-2v-3.23h1.77l-.36-.64,1.17-.57h-3.64v-4.39h6.19v3.25a11,11,0,0,0,1.54-1.18c-.19-1.65-.31-3.42-.4-5.17h-7.81v.82H812v1.5h-7.28c0,3.38-.38,8.51-2,11.91a7,7,0,0,0-1.81-1.18c1.6-3.28,1.75-8,1.75-11.19v-3.65h9.82c0-.58,0-1.17,0-1.76h2.19v.61l1.2-.84c.6.44,1.46,1.06,1.89,1.46l-.7.53h1.52V1723h-3.86c0,1,.1,1.94.18,2.87a11.38,11.38,0,0,0,1.15-2.38Zm-14.21,11.91a37.5,37.5,0,0,0,.85-4.22l1.45.55c-.19,1.2-.5,3.08-.74,4.26Zm5.79-8.3h-2.58V1729h2.58Zm6.18-6.41c-.37-.32-.8-.66-1.18-1v1Z"/><path d="M807.76,1753.81c1.2-.21,2.43-.42,3.63-.61l.11,1.94c-3.32.64-6.91,1.29-9.49,1.74l-.5-2.09c1.14-.15,2.57-.37,4.11-.62v-2.59h-3.46v-1.95h3.46v-1.69h2.14v1.69h3.42v1.95h-3.42ZM801.7,1741h9.88v1.94H808.9a21,21,0,0,1,2.64,4l-1.71,1.12c-.11-.28-.26-.61-.43-1-5.25.44-6.06.53-6.61.76-.14-.46-.5-1.46-.73-2.05a1.88,1.88,0,0,0,.88-.8,15,15,0,0,0,1.18-2.13H801.7Zm6.65,4.43c-.36-.55-.74-1.08-1.1-1.56l1.6-.93h-2.28a23.54,23.54,0,0,1-1.66,2.68Zm6.06,7.69h-2.09v-11.47h2.09Zm3.74-13v14.71c0,1.19-.22,1.76-.95,2.12a8.09,8.09,0,0,1-3.28.42,9.46,9.46,0,0,0-.76-2.16c1,0,2,0,2.35,0s.44-.11.44-.43v-14.69Z"/><path d="M803.41,1773.11v1.39h-1.73v-12.67h4.77v11.28Zm0-9.27v7.26h1.28v-7.26Zm2.51,12.69a10.36,10.36,0,0,0,1.71-3.53l1.77.7a13.84,13.84,0,0,1-1.68,3.8Zm7.85-.7c.45,0,.55-.15.6-1.43a4.4,4.4,0,0,0,1.75.74c-.21,2-.76,2.51-2.15,2.51H811.9c-1.9,0-2.31-.57-2.31-2.32v-2.43h1.84c-.23-.19-.48-.38-.7-.53l.72-.63h-4.56v-1.86h3.25v-1.46h-2.49v-4.3h2.51v-1.34h-3v-1.85h11.47v1.85H815.4v1.34H818v4.3H815.4v1.46h3.48v1.86H812.8a10.75,10.75,0,0,1,1.88,1.69l-1.41,1.28a10,10,0,0,0-1.73-1.71v2.31c0,.46.08.52.65.52Zm-.39-5.95v-3h2.72v-1.18h-2.72v-2.9h-1.23v2.9h-2.66v1.18h2.66v3Zm3.37,2.85a13.72,13.72,0,0,1,2.24,3.67l-1.79.93a14.11,14.11,0,0,0-2.12-3.76Z"/><path d="M804.91,1787.65a50.13,50.13,0,0,1-1.38,7.88l-2.28-.91a37.93,37.93,0,0,0,1.46-7.39Zm3.57-1.54v8.81c0,.9.16,1,1.07,1h2.71c1,0,1.12-.61,1.26-3.57a7.28,7.28,0,0,0,2.13.95c-.27,3.61-.88,4.73-3.21,4.73h-3.16c-2.47,0-3.15-.76-3.15-3.16v-8.81Zm-.17-5.11a34.23,34.23,0,0,1,5.27,3.93l-1.68,1.77a32.66,32.66,0,0,0-5.12-4.16Zm8.29,5.62a35.53,35.53,0,0,1,2.45,7.07l-2.3,1a32.79,32.79,0,0,0-2.26-7.16Z"/><path d="M807.92,1819.74c1.47-.56,2.28-1.51,2.28-2.61H810a1.63,1.63,0,0,1-1.74-1.65,1.67,1.67,0,0,1,1.8-1.65c1.29,0,2,1,2,2.75a4.8,4.8,0,0,1-3.59,4.68Z"/><path d="M818.82,1849.89h-6v.83h-2v-10.08c-.11.17-.25.34-.36.49a10.89,10.89,0,0,0-1-.89V1842H806.7v.77h2.83v1.6H806.7c0,.23,0,.44,0,.67h3.4v1.69h-3.72l0,.13a33.62,33.62,0,0,1,3.23,2.05l-1.12,1.52a22.7,22.7,0,0,0-2.91-2,7.84,7.84,0,0,1-3,2.37,7.91,7.91,0,0,0-1.38-1.48,5.44,5.44,0,0,0,3-2.56h-2.85V1845h3.36a4,4,0,0,0,.06-.67h-2.79v-1.6h2.79V1842h-2.85v-3.84h2.92v-.55h-1.91v-1.94H801.3V1834h1.49v-1h2v1h1.88v-1h2.07v1H810v1.63h-1.29v1.94h-2.18v.55h3v.55A20.35,20.35,0,0,0,812,1833l2,.51a24.75,24.75,0,0,1-1,3h5.75v2h-2.09v1.76h1.89v1.9h-1.89v1.83h1.9v1.9h-1.9v1.88h2.19Zm-15.33-9.31h1.21v-1h-1.21Zm1.27-4.92v.61h1.88v-.61Zm3,3.89h-1.18v1h1.18Zm6.91-1h-1.79v1.76h1.79Zm0,3.66h-1.79v1.83h1.79Zm-1.79,5.61h1.79V1846h-1.79Zm2.47-11.4a13.19,13.19,0,0,0-1-2.57l1.94-.62a10.86,10.86,0,0,1,1.14,2.45Z"/><path d="M806.49,1862.32a25.27,25.27,0,0,1-1.48,4.94c.28.19.64.45,1.16.76,1.29.77,3.07.89,5.3.89a63.12,63.12,0,0,0,7.69-.5,8.11,8.11,0,0,0-.66,2.32c-1.56.1-4.92.23-7.15.23-2.5,0-4.12-.21-5.49-1-.8-.43-1.46-1.06-1.86-1.06s-1.1,1.29-1.58,2.37l-1.5-2.14a8.31,8.31,0,0,1,2-1.83A19.41,19.41,0,0,0,804,1864h-2.39c.43-1.12.95-2.64,1.38-4.13h-1.7v-2h4.42c-.4,1.33-.83,2.85-1.29,4.18h.76l.34-.08Zm-3.21-5c-.19-.86-.7-2.24-1-3.27l2-.61c.36,1,.83,2.3,1.1,3.16Zm7.54,1.14c.06-.31.13-.61.19-.93h-4.56v-1.84H809a16.17,16.17,0,0,0-.89-1.51l1.78-.7a14.54,14.54,0,0,1,1.22,1.9l-.67.31h2.85a15.61,15.61,0,0,0,1.2-2.27l2.18.61c-.4.59-.77,1.14-1.14,1.66h3v1.84h-5.13c-.15.34-.3.62-.45.93h4.12v9.17h-9.2v-9.17Zm4,1.59H810v1h4.85Zm0,2.47H810v1h4.85Zm0,2.47H810v1h4.85Z"/><path d="M818,1882.87a18.65,18.65,0,0,1-3.16,4.16c.51,1.47,1.1,2.34,1.67,2.34.4,0,.63-.91.73-3.15a5.78,5.78,0,0,0,1.86,1.29c-.36,3.32-1.07,4.16-2.8,4.16-1.38,0-2.45-1.14-3.26-3a20.18,20.18,0,0,1-3.52,2.32,9.5,9.5,0,0,0-1.5-1.83,19,19,0,0,0,4.24-2.68,35.2,35.2,0,0,1-1-5.09h-3.86v2.17l2.93-.53.17,2-3.1.63V1889c0,1.24-.26,1.85-1,2.21a8.18,8.18,0,0,1-3.42.43,9.56,9.56,0,0,0-.8-2.28c1.06.06,2.16,0,2.51,0s.45-.09.45-.4v-2.75c-1.21.25-2.39.49-3.4.68l-.55-2.28c1.08-.17,2.45-.38,4-.64v-2.55h-3.59v-2.14h3.59v-2.17c-1,.17-2.07.3-3,.42a8.68,8.68,0,0,0-.64-1.9A47.77,47.77,0,0,0,809,1874l1.52,1.92c-1,.29-2,.53-3.1.76v2.57H811c-.15-1.71-.21-3.48-.23-5.21h2.38a44.63,44.63,0,0,0,.19,5.21h5.16v2.14h-4.94c.16,1.14.35,2.24.55,3.21A15,15,0,0,0,816,1882Zm-1.39-4.18a15.18,15.18,0,0,0-2.7-3.13l1.71-1.16a16.52,16.52,0,0,1,2.81,3Z"/><path d="M819,1896.29c-.68,1.82-1.52,4-2.3,5.64a6.07,6.07,0,0,1,1.94,4.41c0,1.42-.31,2.35-1.07,2.85a2.94,2.94,0,0,1-1.33.51,8.88,8.88,0,0,1-1.65,0,5.48,5.48,0,0,0-.57-2.18,10.17,10.17,0,0,0,1.2,0,1.5,1.5,0,0,0,.76-.17c.36-.21.49-.66.49-1.29a5.45,5.45,0,0,0-2-3.89c.55-1.37,1.19-3.29,1.67-4.75h-2.41V1912h-2.23v-16.26a22.78,22.78,0,0,1-2,4h1.41v2h-2.83c-.4.49-.8.93-1.22,1.39h3.42v8.56h-2.15V1911h-3.06v1H803v-5.76c-.32.21-.64.4-.95.57a11.43,11.43,0,0,0-1.31-1.88,17.49,17.49,0,0,0,4.54-3.13h-4v-2h3.3v-1.55h-2.49v-1.94h2.49v-1.85h2.09v1.85h2v1a19.55,19.55,0,0,0,.93-2.13l2,.55v-.36H817l.35-.08ZM808.14,1905h-3.06v1.22h3.06Zm0,4.26v-1.35h-3.06v1.35Zm-1.1-9.41c.36-.49.7-1,1.05-1.55h-1.43v1.55Z"/><path d="M814,1929.69c2,0,2.26-.5,2.55-3.25a8.2,8.2,0,0,0,2.28.87c-.44,3.58-1.28,4.62-4.73,4.62h-6.29c-3.67,0-4.79-.72-4.79-3.59v-8.85h2.34v2.58H814v-4H802.27v-2.24h14.08v9.41H814v-.9h-8.62v4c0,1.18.34,1.35,2.43,1.35Z"/><path d="M806.87,1946.92c0-.23-.09-.51-.15-.81-3.8.56-4.49.7-4.9.91-.12-.4-.46-1.41-.71-2,.48-.11.9-.53,1.49-1.23.22-.27.66-.82,1.19-1.58a7.12,7.12,0,0,0-2.13.42,17,17,0,0,0-.66-1.86,2.35,2.35,0,0,0,1.08-1,21.45,21.45,0,0,0,2.26-4.67l2,.81a26.4,26.4,0,0,1-2.55,4.54l1.26-.09a26.17,26.17,0,0,0,1.27-2.47l1.86,1.14a34.09,34.09,0,0,1-3.87,5.66l2-.25c-.13-.51-.3-1-.46-1.48l1.62-.51a28.33,28.33,0,0,1,1.18,3.91Zm-3.17,1a22.8,22.8,0,0,1-.88,4.86,11.81,11.81,0,0,0-1.76-.64,16.88,16.88,0,0,0,.79-4.51Zm1.93-.32a36.78,36.78,0,0,1,.52,3.91l-1.73.34a34.68,34.68,0,0,0-.4-3.93Zm1.89-.59a25.36,25.36,0,0,1,.87,2.89l-1.6.57a21.94,21.94,0,0,0-.81-3Zm11.34,3.38v2.07H808v-2.07h4.29v-2.62h-3.42v-2h9.22v2h-3.52v2.62ZM812,1938.71c-.57,1-1.22,2.06-1.83,3a20.51,20.51,0,0,1,2,3l-1.8.7a19.36,19.36,0,0,0-2.25-3.7,29.49,29.49,0,0,0,2-3.44Zm6.63-.75H808.41v-2h10.24Zm-5.07,7.37a20.39,20.39,0,0,0-2.3-3.67,30.53,30.53,0,0,0,2-3.36l1.9.43c-.57,1-1.23,2-1.82,2.91a24.3,24.3,0,0,1,2,2.94Zm3.34.07a19.21,19.21,0,0,0-2.51-3.7,29.65,29.65,0,0,0,2.09-3.44l1.94.45c-.59,1-1.27,2.06-1.9,3a22.26,22.26,0,0,1,2.17,3Z"/><path d="M807.19,1970l3.65-.4,0,2c-3.27.42-6.8.8-9.31,1.06l-.28-2c1.06-.09,2.39-.21,3.81-.36v-1.43h-2.85v-1.82h2.85v-1.27h-3.21v-1.83h2.05a10.71,10.71,0,0,0-1.21-1.8l1-.53h-2.38v-1.86h2.59v-.9l-1,.69a9.67,9.67,0,0,0-1.56-2.28l1.37-.9a16.1,16.1,0,0,1,1.16,1.39v-2h1.76v4h.88v-4h1.8v2.2a10.86,10.86,0,0,0,1-1.48l1.76,1c-.76.82-1.55,1.63-2.16,2.18l-.63-.39v.55h2.47v1.86h-2.47l1.29.45c-.32.65-.68,1.3-1,1.88h1.67v1.83h-3.1v1.27H810v1.82h-2.85Zm-2.62-8.47a6.81,6.81,0,0,1,1.1,1.69l-1.12.64h2a15.33,15.33,0,0,0,1-2.33Zm14,1h-1.44v8.28c0,1.16-.23,1.73-.94,2.09a6.63,6.63,0,0,1-3.15.44,9.71,9.71,0,0,0-.76-2.15c1,0,1.92,0,2.22,0s.44-.1.44-.42v-8.28H810.9v-2.11H815v-4.75h2.19v4.75h1.44Zm-6.14,6a15.16,15.16,0,0,0-1.36-4.29l1.86-.63a14.53,14.53,0,0,1,1.5,4.22Z"/><path d="M807.19,1976.74a28.42,28.42,0,0,1-1.8,3.89v13.07h-2.17V1984a17.39,17.39,0,0,1-1.27,1.54,15.14,15.14,0,0,0-1.22-2.36,19.72,19.72,0,0,0,4.31-7.1Zm6.73,4.74v9.73c0,1.08-.19,1.71-.88,2.09a6,6,0,0,1-2.79.46,7.52,7.52,0,0,0-.78-2.28c.8,0,1.6,0,1.86,0s.35-.08.35-.33v-9.69h-2.21a16.27,16.27,0,0,1-1.78,2.91,15.14,15.14,0,0,0-1.83-1.48,16.74,16.74,0,0,0,3.23-6.84l2.2.49a27.34,27.34,0,0,1-.89,2.83h6.54l.36-.07,1.59.3c-.22,1.54-.55,3.31-.81,4.41l-1.92-.32c.09-.59.21-1.39.3-2.23Zm-3.16,3.42a19.55,19.55,0,0,1-2.58,6.35,14.88,14.88,0,0,0-1.94-1.22,13.65,13.65,0,0,0,2.32-5.58Zm5.86-.64a23.83,23.83,0,0,1,2.07,6.19l-2.17.74a24.2,24.2,0,0,0-1.92-6.25Z"/><path d="M818.08,2001a15.9,15.9,0,0,1-2.87,4.79c.46,3.57,1.14,6.11,1.73,6.11.26,0,.44-1,.49-3a4.7,4.7,0,0,0,1.67,1.24c-.32,3.13-.93,4-2.45,4s-2.71-2.74-3.34-6.5c-.36.29-.74.53-1.12.78-.17-.23-.48-.53-.78-.85h-2.24a24.66,24.66,0,0,1,1.46,2.62l-1.48.8a22.14,22.14,0,0,0-1.06-2.19v3.19c0,.5.07.55.55.55H810c.44,0,.54-.28.57-2a4.45,4.45,0,0,0,1.22.55c-.27-.64-.53-1.29-.78-1.86l1.48-.57c.61,1.29,1.35,3,1.71,4l-1.59.68c-.12-.42-.31-1-.54-1.56-.2,1.75-.7,2.24-1.88,2.24h-1.84c-1.67,0-2.05-.49-2.05-2v-3.23h1.77l-.36-.64,1.17-.57h-3.64v-4.39h6.19v3.25a11,11,0,0,0,1.54-1.18c-.19-1.65-.31-3.42-.4-5.17h-7.81v.82H812v1.5h-7.28c0,3.38-.38,8.51-2,11.91a7,7,0,0,0-1.81-1.18c1.6-3.28,1.75-8,1.75-11.19v-3.64h9.82c0-.59,0-1.18,0-1.77h2.19v.61l1.2-.84c.6.44,1.46,1.06,1.89,1.46l-.7.54h1.52V2000h-3.86c0,1,.1,1.94.18,2.87a11.55,11.55,0,0,0,1.15-2.37Zm-14.21,11.91a37.06,37.06,0,0,0,.85-4.22l1.45.55c-.19,1.2-.5,3.08-.74,4.26Zm5.79-8.3h-2.58V2006h2.58Zm6.18-6.4c-.37-.33-.8-.67-1.18-1v1Z"/><path d="M807.76,2030.81c1.2-.21,2.43-.42,3.63-.61l.11,1.94c-3.32.64-6.91,1.29-9.49,1.74l-.5-2.09c1.14-.15,2.57-.37,4.11-.62v-2.59h-3.46v-1.95h3.46v-1.69h2.14v1.69h3.42v1.95h-3.42ZM801.7,2018h9.88v1.94H808.9a21,21,0,0,1,2.64,4l-1.71,1.12c-.11-.28-.26-.61-.43-1-5.25.44-6.06.53-6.61.76-.14-.46-.5-1.46-.73-2.05a1.88,1.88,0,0,0,.88-.8,15,15,0,0,0,1.18-2.13H801.7Zm6.65,4.43c-.36-.55-.74-1.08-1.1-1.56l1.6-.93h-2.28a23.54,23.54,0,0,1-1.66,2.68Zm6.06,7.69h-2.09v-11.47h2.09Zm3.74-13v14.71c0,1.19-.22,1.76-.95,2.12a8.09,8.09,0,0,1-3.28.42,9.46,9.46,0,0,0-.76-2.16c1,0,2,0,2.35,0s.44-.11.44-.43v-14.69Z"/><path d="M803.41,2050.11v1.39h-1.73v-12.67h4.77v11.28Zm0-9.27v7.26h1.28v-7.26Zm2.51,12.69a10.36,10.36,0,0,0,1.71-3.53l1.77.7a13.84,13.84,0,0,1-1.68,3.8Zm7.85-.7c.45,0,.55-.15.6-1.43a4.4,4.4,0,0,0,1.75.74c-.21,2-.76,2.51-2.15,2.51H811.9c-1.9,0-2.31-.57-2.31-2.32v-2.43h1.84c-.23-.19-.48-.38-.7-.53l.72-.63h-4.56v-1.86h3.25v-1.46h-2.49v-4.3h2.51v-1.34h-3v-1.85h11.47v1.85H815.4v1.34H818v4.3H815.4v1.46h3.48v1.86H812.8a10.75,10.75,0,0,1,1.88,1.69l-1.41,1.28a10,10,0,0,0-1.73-1.71v2.31c0,.46.08.52.65.52Zm-.39-5.95v-3h2.72v-1.18h-2.72v-2.9h-1.23v2.9h-2.66v1.18h2.66v3Zm3.37,2.85a13.72,13.72,0,0,1,2.24,3.67l-1.79.93a14.11,14.11,0,0,0-2.12-3.76Z"/><path d="M804.91,2064.65a50.13,50.13,0,0,1-1.38,7.88l-2.28-.91a37.63,37.63,0,0,0,1.46-7.39Zm3.57-1.54v8.81c0,.9.16,1,1.07,1h2.71c1,0,1.12-.61,1.26-3.57a7,7,0,0,0,2.13.95c-.27,3.61-.88,4.73-3.21,4.73h-3.16c-2.47,0-3.15-.76-3.15-3.16v-8.81Zm-.17-5.11a34.23,34.23,0,0,1,5.27,3.93l-1.68,1.77a32.66,32.66,0,0,0-5.12-4.16Zm8.29,5.62a35.53,35.53,0,0,1,2.45,7.07l-2.3.95a32.79,32.79,0,0,0-2.26-7.16Z"/><path d="M807.19,2078.86a28.42,28.42,0,0,1-1.8,3.89v13.08h-2.17v-9.71a19,19,0,0,1-1.27,1.54,14.71,14.71,0,0,0-1.22-2.36,19.9,19.9,0,0,0,4.31-7.1Zm6.73,4.75v9.73c0,1.08-.19,1.71-.88,2.09a6,6,0,0,1-2.79.45,7.71,7.71,0,0,0-.78-2.28c.8,0,1.6,0,1.86,0s.35-.08.35-.32v-9.69h-2.21a16.63,16.63,0,0,1-1.78,2.91,16.22,16.22,0,0,0-1.83-1.49,16.64,16.64,0,0,0,3.23-6.83l2.2.49a27.34,27.34,0,0,1-.89,2.83h6.54l.36-.08,1.59.31c-.22,1.54-.55,3.3-.81,4.41l-1.92-.33c.09-.59.21-1.38.3-2.22Zm-3.16,3.42a19.58,19.58,0,0,1-2.58,6.34,13.84,13.84,0,0,0-1.94-1.21,13.7,13.7,0,0,0,2.32-5.59Zm5.86-.65a24,24,0,0,1,2.07,6.2l-2.17.74a24.08,24.08,0,0,0-1.92-6.25Z"/><path d="M813.1,2111.2a10.52,10.52,0,0,0,.23,1.5c-2.59.7-3.65,1-4.18,1.23.7.06,1.5.08,2.32.08a62.53,62.53,0,0,0,7.67-.5,8.75,8.75,0,0,0-.64,2.32c-1.58.1-4.92.23-7.15.23-2.5,0-4.12-.21-5.49-1-.78-.43-1.46-1.06-1.86-1.06s-1.1,1.29-1.58,2.37l-1.5-2.14a8,8,0,0,1,2.05-1.85,19.5,19.5,0,0,0,1-3.26h-2.33c.45-1.14,1-2.64,1.42-4.13h-1.74v-2h4.5c-.4,1.35-.9,2.87-1.35,4.18h.68l.34-.08.95.35a26.4,26.4,0,0,1-.74,3,19.36,19.36,0,0,0,4.54-1.35h-2.83v-3.5h9.77v3.5h-.4l1.06.68a18.81,18.81,0,0,1-1.69,1.1c.8.48,1.54.93,2,1.28l-1.1,1.38c-1-.83-3.21-2.18-4.75-3.13l1-1.18,1.37.82c.45-.31.93-.65,1.31-.95h-3.1a11.45,11.45,0,0,1-2.28,1.52v1.19Zm-9.8-8.78c-.21-.86-.72-2.22-1-3.25l2-.61c.36,1,.85,2.3,1.12,3.14Zm5.45,9a16.87,16.87,0,0,1-2,.57,8.12,8.12,0,0,0-1.12-1.48,17,17,0,0,1-.66,1.83c.32.2.68.47,1.16.76a7.05,7.05,0,0,0,2.45.76,4.32,4.32,0,0,0-.55-1.18,1,1,0,0,0,.68-1.1Zm9.86-6.42H805.88v-1.56h12.73Zm-.87-2.14H806.83v-3.82h10.91Zm-7.85-2.57h-1.16v1.31h1.16Zm-.42,7.54h5.43v-1h-5.43Zm3.35-7.54H811.6v1.31h1.22Zm2.9,0h-1.21v1.31h1.21Z"/><path d="M809,2131.72a24.58,24.58,0,0,1-5.74,5,17.67,17.67,0,0,0-1.88-1.58,17.25,17.25,0,0,0,5.22-4.4Zm7.71-11.36v9.08H803.34v-9.08Zm-11.08,6.93h8.63v-4.77h-8.63Zm7.71,3.42a40.89,40.89,0,0,1,5.17,4.62l-2.12,1.33a34.12,34.12,0,0,0-5-4.79Z"/><path d="M809.51,2155.05c0,.93-.17,1.4-.8,1.71a6.66,6.66,0,0,1-2.62.32,6.4,6.4,0,0,0-.68-1.77c.68,0,1.42,0,1.65,0s.32-.07.32-.32v-1.94c-1,.69-1.9,1.33-2.75,1.88l-.48-1.33a8.26,8.26,0,0,1-1.35,3.57,9.36,9.36,0,0,0-1.57-1.52c1-1.48,1.08-3.57,1.08-5.22v-4.27h7.2Zm-1.06-14.25a43,43,0,0,1,2.26,4.37l-2,.8c-.11-.34-.28-.74-.47-1.2-4.81.48-5.59.59-6.14.82-.11-.44-.48-1.47-.7-2a2.14,2.14,0,0,0,1-.76,15.75,15.75,0,0,0,2.24-3.38l2.28.65a21.19,21.19,0,0,1-2.33,3.15l2.77-.21c-.29-.55-.55-1.08-.8-1.53Zm-4.05,9.69a23.78,23.78,0,0,1-.13,2.43c.85-.38,2-1,3.11-1.56v-.62l-.91.89a24,24,0,0,0-2.07-1.82Zm0-2.39v1.34l1-.81c.65.45,1.46,1.12,2,1.61v-2.14Zm9.39-.33c-2.29,0-2.89-.83-2.89-2.94v-5.4h2.24v2.24h4.67v1.94h-4.67v1.26c0,.7.11,1,.72,1h2.77a9.36,9.36,0,0,0,1.75-.15c0,.59.14,1.41.21,1.92a7.77,7.77,0,0,1-1.92.17Zm2.39,7.26c.64,0,.78-.32.87-2.07a6.45,6.45,0,0,0,2,.82c-.23,2.48-.82,3.22-2.62,3.22h-2.7c-2.24,0-2.79-.66-2.79-2.73v-6h2.24v1.9H818v2h-4.81v2.07c0,.66.13.76.87.76Z"/><path d="M818.13,2170.63a36.57,36.57,0,0,1-3.4,2.22,10.87,10.87,0,0,0,4.3,2.28,9.22,9.22,0,0,0-1.49,2c-3.93-1.35-6.28-4.11-7.71-8a18.8,18.8,0,0,1-2.45,2.11v3.23l4.11-1.12a10.71,10.71,0,0,0,.38,2c-5.44,1.62-6.29,1.88-6.86,2.22a7.22,7.22,0,0,0-.93-2,1.66,1.66,0,0,0,.95-1.5v-1.39a18.62,18.62,0,0,1-2.61,1.16A10.23,10.23,0,0,0,801,2172a19.57,19.57,0,0,0,6.06-3.12h-5.39V2167h7.2v-1.06h-5.46v-1.81h5.46v-1h-6.39v-1.92h6.39v-1.37h2.28v1.37h6.61v1.92h-6.61v1H817v1.81h-5.87V2167h7.25v1.92H812a10.2,10.2,0,0,0,1.46,2.58,22.77,22.77,0,0,0,2.81-2.22Z"/><path d="M808.37,2193.31c-2.39.71-4.94,1.45-6.9,2l-.57-2.13c.76-.17,1.7-.42,2.72-.68v-3.82h-2.11v-2.07h2.11v-3.31h-2.28v-2.09H808v2.09H805.8v3.31h2v2.07h-2V2192l2.27-.63Zm8.43,2.65c.35,0,.42-.31.46-2.21a6,6,0,0,0,1.88.84c-.19,2.6-.68,3.3-2.09,3.3h-1.42c-1.75,0-2.13-.64-2.13-2.56v-3.73h-1.16c-.34,3.1-1.22,5.31-5.26,6.5a6.72,6.72,0,0,0-1.26-1.86c3.44-.86,4-2.41,4.3-4.64h-1.39V2181H818v10.63h-2.33v3.73c0,.55,0,.63.36.63Zm-6-12h5v-1.18h-5Zm0,2.88h5v-1.17h-5Zm0,2.89h5v-1.18h-5Z"/><path d="M809.42,2203.79l.66,0,0,2.11-.64,0a16.1,16.1,0,0,1-1.81,7.51c.95.85,1.81,1.67,2.39,2.31l-1.69,1.71a23.06,23.06,0,0,0-2-2.12,13.54,13.54,0,0,1-3.69,3,7.79,7.79,0,0,0-1.59-1.71,11.78,11.78,0,0,0,3.59-3c-1.05-.95-2.13-1.9-3.06-2.73a45.17,45.17,0,0,0,1.08-4.62l-1.38.09-.23-2.24,2-.09c.17-1.14.31-2.28.38-3.33l2.41.14c-.11,1-.26,2-.43,3.07l1.82-.09V2203h2.23Zm-4.43,2.43c-.29,1.46-.61,2.9-.91,4.16.55.47,1.16,1,1.74,1.5a13.42,13.42,0,0,0,1.35-5.82Zm12.94-3.59v15h-2.25v-1.11h-3v1.41h-2.14v-15.27Zm-2.25,11.72v-9.6h-3v9.6Z"/><path d="M810.57,2234.81l.16,2.22c-3.19.61-6.67,1.24-9.16,1.71l-.36-2.39,1.39-.21V2225h2.24v10.77l1.35-.23v-14.46h2.39v5.61h2.11v2.16h-2.11v6.29Zm5.59,1.39c.61,0,.72-.67.82-3.14a7.61,7.61,0,0,0,2.16,1c-.25,3.15-.83,4.35-2.75,4.35h-2.32c-2.09,0-2.7-.78-2.7-3.46v-13.85h2.4v5.61h4.29v2.16h-4.29V2235c0,1,.07,1.2.68,1.2Z"/><path d="M807.92,2260.14c1.47-.55,2.28-1.5,2.28-2.61H810a1.63,1.63,0,0,1-1.74-1.65,1.68,1.68,0,0,1,1.8-1.65c1.29,0,2,1,2,2.75a4.79,4.79,0,0,1-3.59,4.68Z"/><path d="M818,2282.42a18.65,18.65,0,0,1-3.16,4.16c.51,1.47,1.1,2.34,1.67,2.34.4,0,.63-.91.73-3.15a5.78,5.78,0,0,0,1.86,1.29c-.36,3.32-1.07,4.16-2.8,4.16-1.38,0-2.45-1.14-3.26-3a20.18,20.18,0,0,1-3.52,2.32,9.81,9.81,0,0,0-1.5-1.83,19,19,0,0,0,4.24-2.68,35.2,35.2,0,0,1-1-5.09h-3.86v2.17l2.93-.53.17,2.05-3.1.63v3.24c0,1.24-.26,1.85-1,2.21a8.18,8.18,0,0,1-3.42.43,9.34,9.34,0,0,0-.8-2.27c1.06.05,2.16,0,2.51,0s.45-.09.45-.39v-2.76c-1.21.25-2.39.49-3.4.68l-.55-2.28c1.08-.17,2.45-.38,4-.64v-2.55h-3.59v-2.14h3.59v-2.17c-1,.17-2.07.3-3,.42a8.68,8.68,0,0,0-.64-1.9,47.77,47.77,0,0,0,7.54-1.6l1.52,1.92c-1,.29-2,.53-3.1.76v2.57H811c-.15-1.71-.21-3.48-.23-5.21h2.38a44.63,44.63,0,0,0,.19,5.21h5.16v2.14h-4.94c.16,1.14.35,2.24.55,3.21a15,15,0,0,0,1.81-2.58Zm-1.39-4.17a15,15,0,0,0-2.7-3.14l1.71-1.16a16.52,16.52,0,0,1,2.81,3Z"/><path d="M818.06,2304a11.6,11.6,0,0,1-2.34,4.39,10.67,10.67,0,0,0,3.25,1.33,7.85,7.85,0,0,0-1.33,1.75,10.49,10.49,0,0,1-3.42-1.67,13.05,13.05,0,0,1-3.32,1.82,8.27,8.27,0,0,0-1.12-1.67v1.69h-2.11V2310c-2.21.25-4.41.46-6.12.65l-.17-1.94c.49,0,1-.07,1.65-.13v-5.76h-1.48V2301h16.87v1.78h-8.64v7a9.28,9.28,0,0,0,2.86-1.44,11.29,11.29,0,0,1-1.82-2.91l.68-.19h-1.13v-1.72h5.92l.36-.08Zm-12.12-3.55h-2.17v-6h12.48v6H814V2296h-8Zm-.9,2.37v.78h2.63v-.78Zm0,3.1h2.63v-.76H805Zm0,2.47c.84-.08,1.75-.15,2.63-.25v-.66H805Zm8.23-10.34h-6.74v-1.31h6.74Zm-6.72,2v-1.31h6.72V2300Zm6.25,5.18a7.28,7.28,0,0,0,1.29,1.79,7,7,0,0,0,1.23-1.79Z"/><path d="M818.69,2315.9v1.94H806v4.09c0,3-.4,7.4-2.89,10a6.79,6.79,0,0,0-1.6-1.52,8.88,8.88,0,0,0,2.13-4.75c-.7.44-1.41.85-2.09,1.25l-.65-2.09c.78-.32,1.85-.83,3-1.42,0-.5,0-1,0-1.48v-.78l-1.64.85a16.73,16.73,0,0,0-1.23-3.63l1.65-.83a18,18,0,0,1,1.22,2.92v-4.56h6.31a9.94,9.94,0,0,0-.71-1.25l2.19-.57a13.18,13.18,0,0,1,1.08,1.82Zm-.76,14.18c0,.93-.19,1.31-.82,1.59a6.78,6.78,0,0,1-2.6.29,6.5,6.5,0,0,0-.57-1.62c.62,0,1.35,0,1.55,0s.33-.08.33-.28V2329h-2.47v2.78h-2.07V2329h-2.43v3h-2.07v-9.75h4.14a24.42,24.42,0,0,0-2.27-.91l1.26-1.2c.76.27,1.63.63,2.47,1a17.66,17.66,0,0,0,1.56-1h-6.56v-1.56h8.53l.48-.11,1.27,1.16a30.18,30.18,0,0,1-3.52,2.3c.25.11.46.23.67.34h3.12Zm-9.08-6.22v1h2.43v-1Zm2.43,3.56v-1h-2.43v1Zm4.54-3.56h-2.47v1h2.47Zm0,3.56v-1h-2.47v1Z"/><path d="M800.87,2343.4a23.5,23.5,0,0,0,.93-5l1.69.23a25.24,25.24,0,0,1-.86,5.35Zm17.47,2.56a34.48,34.48,0,0,1-2.83,2,8.4,8.4,0,0,0,3.38,2.45,8.3,8.3,0,0,0-1.51,2c-3.12-1.54-4.83-4.43-5.86-8.23h-1.21v5.27l2.89-.63a14,14,0,0,0,.09,2.11c-3.89,1-4.64,1.27-5.11,1.58a6.1,6.1,0,0,0-1-1.77,1.87,1.87,0,0,0,.89-1.65v-7.49l-1.57.7a18.69,18.69,0,0,0-.86-2.77v12.92h-2.16v-17.76h2.16v3.62l1.2-.47a21.48,21.48,0,0,1,1.23,3.19v-5.57h9.1v8.72h-3.72a13.61,13.61,0,0,0,1,2.26,16.6,16.6,0,0,0,2.41-2.07Zm-8-8.57v1.48H815v-1.48Zm0,4.85H815v-1.54h-4.69Z"/><path d="M818.4,2358s0,.76,0,1c-.25,8.49-.45,11.51-1.23,12.52a2.54,2.54,0,0,1-1.83,1,20.19,20.19,0,0,1-3,0,5.37,5.37,0,0,0-.74-2.2c1.22.11,2.34.11,2.83.11a1,1,0,0,0,.84-.32c.55-.61.79-3.46,1-10.16h-4.06a17.42,17.42,0,0,1-1.67,3,14.59,14.59,0,0,0-1.47-1.07v8.88H804v1.38h-2v-14.11h2.15a22,22,0,0,0,.55-3.06l2.47.34c-.33.95-.67,1.9-1,2.72h2.94v3.08a19.53,19.53,0,0,0,2.57-6.12l2.15.49A22.41,22.41,0,0,1,813,2358ZM807,2360.15h-3v3.08h3Zm0,8.76v-3.72h-3v3.72Zm6.31-1a39.82,39.82,0,0,0-2.64-4.39l1.77-1a48.32,48.32,0,0,1,2.79,4.22Z"/><path d="M811.12,2375.56c0,.8,0,1.83-.13,3,.27,2.56,1.43,9.72,8.06,12.65a6,6,0,0,0-1.66,2,14.72,14.72,0,0,1-7.42-9,15.5,15.5,0,0,1-7,9.1,7,7,0,0,0-1.88-1.84c7.72-4.12,7.36-12.64,7.43-15.85Z"/><path d="M811.35,2411.26c.5,0,1,.06,1.52.06,1.07,0,4.71,0,6.06-.06a8.06,8.06,0,0,0-.76,2.17h-5.41c-3.48,0-5.83-.5-7.43-2.7a8.57,8.57,0,0,1-2.66,3,9.29,9.29,0,0,0-1.71-1.58,8,8,0,0,0,3.53-5.75l2.27.34c-.14.61-.29,1.18-.44,1.73a4.19,4.19,0,0,0,2.73,2.37V2406h-7.41v-2H818.4v2h-7v1.42h5.85v2h-5.85Zm5.25-8.05H803.39v-6.59H816.6Zm-2.3-5h-8.7v1h8.7Zm0,2.45h-8.7v1h8.7Z"/><path d="M818,2425.4a18.65,18.65,0,0,1-3.16,4.16c.51,1.46,1.1,2.34,1.67,2.34.4,0,.63-.92.73-3.16a5.81,5.81,0,0,0,1.86,1.3c-.36,3.32-1.07,4.16-2.8,4.16-1.38,0-2.45-1.14-3.26-3a19.63,19.63,0,0,1-3.52,2.32,9.77,9.77,0,0,0-1.5-1.82,19.73,19.73,0,0,0,4.24-2.68,35.2,35.2,0,0,1-1-5.09h-3.86v2.16l2.93-.53.17,2-3.1.63v3.25c0,1.23-.26,1.84-1,2.2a8.15,8.15,0,0,1-3.42.44,9.41,9.41,0,0,0-.8-2.28c1.06.06,2.16,0,2.51,0s.45-.1.45-.4v-2.75c-1.21.24-2.39.49-3.4.68l-.55-2.28c1.08-.17,2.45-.38,4-.65v-2.54h-3.59v-2.15h3.59v-2.16c-1,.17-2.07.3-3,.41a8.86,8.86,0,0,0-.64-1.9,49,49,0,0,0,7.54-1.59l1.52,1.92c-1,.28-2,.53-3.1.76v2.56H811c-.15-1.71-.21-3.48-.23-5.2h2.38a44.46,44.46,0,0,0,.19,5.2h5.16v2.15h-4.94c.16,1.14.35,2.24.55,3.21a15.08,15.08,0,0,0,1.81-2.59Zm-1.39-4.18a15.18,15.18,0,0,0-2.7-3.13l1.71-1.16a15.9,15.9,0,0,1,2.81,3Z"/><path d="M817,2439.27v15.26h-2.41v-.94h-9v.95h-2.3v-15.27h4.86a22.61,22.61,0,0,0,.52-2.49l2.73.31c-.28.76-.59,1.5-.89,2.18Zm-11.43,2.17v1.95h9v-1.95Zm0,4v2h9v-2Zm9,6v-2h-9v2Z"/><path d="M814.11,2472.38c1.9,0,2.16-.47,2.41-3.21a8.22,8.22,0,0,0,2.3.86c-.42,3.63-1.26,4.62-4.66,4.62H808c-3.55,0-4.71-.69-4.71-3.4v-6.84h10.83v-3.77H803.07v-2.31h13.47v9.38h-2.41v-1.08h-8.48v4.58c0,1,.35,1.17,2.38,1.17Z"/><path d="M807.92,2496.29c1.47-.55,2.28-1.5,2.28-2.61H810a1.63,1.63,0,0,1-1.74-1.65,1.68,1.68,0,0,1,1.8-1.65c1.29,0,2,1,2,2.75a4.79,4.79,0,0,1-3.59,4.68Z"/><path d="M809.42,2512.69l.66,0,0,2.11-.64,0a16.1,16.1,0,0,1-1.81,7.51,32.13,32.13,0,0,1,2.39,2.32l-1.69,1.7a24.42,24.42,0,0,0-2-2.12,13.54,13.54,0,0,1-3.69,3,7.79,7.79,0,0,0-1.59-1.71,11.64,11.64,0,0,0,3.59-3c-1.05-.95-2.13-1.9-3.06-2.73a45.17,45.17,0,0,0,1.08-4.62l-1.38.1-.23-2.25,2-.09c.17-1.14.31-2.28.38-3.33l2.41.14c-.11,1-.26,2-.43,3.07l1.82-.09v-.89h2.23Zm-4.43,2.43c-.29,1.46-.61,2.9-.91,4.16.55.47,1.16,1,1.74,1.5a13.34,13.34,0,0,0,1.35-5.81Zm12.94-3.59v15h-2.25v-1.1h-3v1.4h-2.14v-15.27Zm-2.25,11.72v-9.59h-3v9.59Z"/><path d="M812.89,2542a18.43,18.43,0,0,0,6.16,3.19,8.92,8.92,0,0,0-1.52,1.92,19.06,19.06,0,0,1-6.29-4v4.67h-2.39v-4.58a18.32,18.32,0,0,1-6.33,4.07,11.7,11.7,0,0,0-1.54-1.89,16.83,16.83,0,0,0,6.21-3.34h-5.62v-2.07h7.28v-1.12h-5.44v-7.94h13.34v7.94h-5.51v1.12h7.26V2542Zm-7.1-8h3.06v-1.22h-3.06Zm3.06,3v-1.22h-3.06v1.22Zm5.41-4.18h-3V2534h3Zm0,3h-3v1.22h3Z"/><path d="M807.19,2551.16a29.1,29.1,0,0,1-1.8,3.9v13.07h-2.17v-9.71A19,19,0,0,1,802,2560a14.71,14.71,0,0,0-1.22-2.36,19.9,19.9,0,0,0,4.31-7.1Zm6.73,4.75v9.73c0,1.08-.19,1.71-.88,2.09a6,6,0,0,1-2.79.45,7.71,7.71,0,0,0-.78-2.28c.8,0,1.6,0,1.86,0s.35-.07.35-.32v-9.69h-2.21a16.63,16.63,0,0,1-1.78,2.91,16.22,16.22,0,0,0-1.83-1.49,16.64,16.64,0,0,0,3.23-6.83l2.2.49a27.34,27.34,0,0,1-.89,2.83h6.54l.36-.08,1.59.31c-.22,1.54-.55,3.3-.81,4.41l-1.92-.33c.09-.59.21-1.38.3-2.22Zm-3.16,3.42a19.48,19.48,0,0,1-2.58,6.34,13.84,13.84,0,0,0-1.94-1.21,13.7,13.7,0,0,0,2.32-5.59Zm5.86-.65a24,24,0,0,1,2.07,6.2l-2.17.74a24.08,24.08,0,0,0-1.92-6.25Z"/><path d="M809.51,2586.5c0,.93-.17,1.41-.8,1.71a6.66,6.66,0,0,1-2.62.32,6.23,6.23,0,0,0-.68-1.76c.68,0,1.42,0,1.65,0s.32-.07.32-.32v-1.94c-1,.69-1.9,1.33-2.75,1.88l-.48-1.33a8.3,8.3,0,0,1-1.35,3.58,8.64,8.64,0,0,0-1.57-1.52c1-1.49,1.08-3.58,1.08-5.23v-4.27h7.2Zm-1.06-14.25a43,43,0,0,1,2.26,4.37l-2,.8c-.11-.34-.28-.74-.47-1.2-4.81.48-5.59.59-6.14.82-.11-.44-.48-1.46-.7-2a2.28,2.28,0,0,0,1-.76,16,16,0,0,0,2.24-3.38l2.28.64a21.19,21.19,0,0,1-2.33,3.15l2.77-.2c-.29-.56-.55-1.09-.8-1.54Zm-4.05,9.69a23.78,23.78,0,0,1-.13,2.43c.85-.38,2-.95,3.11-1.56v-.62l-.91.89c-.47-.49-1.35-1.23-2.07-1.82Zm0-2.39v1.35l1-.82c.65.45,1.46,1.12,2,1.61v-2.14Zm9.39-.33c-2.29,0-2.89-.83-2.89-2.94v-5.4h2.24v2.25h4.67v1.93h-4.67v1.26c0,.7.11,1,.72,1h2.77a9.31,9.31,0,0,0,1.75-.16c0,.59.14,1.41.21,1.92a7.31,7.31,0,0,1-1.92.17Zm2.39,7.26c.64,0,.78-.32.87-2.07a6.45,6.45,0,0,0,2,.82c-.23,2.49-.82,3.23-2.62,3.23h-2.7c-2.24,0-2.79-.67-2.79-2.74v-6h2.24v1.9H818v2h-4.81v2.07c0,.67.13.76.87.76Z"/><path d="M806.91,2600.9c0,.27-.08.53-.13.78,1,1,3,3.34,3.57,4l-1.52,1.9c-.63-1-1.71-2.41-2.64-3.57a10.21,10.21,0,0,1-3.59,5,8.46,8.46,0,0,0-1.62-1.71,8.9,8.9,0,0,0,3.65-6.35h-3.36v-2.13h3.51v-3H804a13.46,13.46,0,0,1-1.29,2.55,12.13,12.13,0,0,0-1.83-1.31,14.09,14.09,0,0,0,2.13-5.72l2.17.44c-.14.66-.29,1.31-.48,1.95h5v2.09h-2.68v3h3.12v2.13Zm11-8v15.28h-2.3v-1.08h-2.76v1.36h-2.18V2592.9Zm-2.3,12.07V2595h-2.76V2605Z"/><path d="M806.49,2620.57a25.06,25.06,0,0,1-1.48,4.94c.28.19.64.45,1.16.76,1.29.77,3.07.89,5.3.89a65.19,65.19,0,0,0,7.69-.49,8,8,0,0,0-.66,2.31c-1.56.1-4.92.23-7.15.23-2.5,0-4.12-.21-5.49-1-.8-.43-1.46-1.06-1.86-1.06s-1.1,1.29-1.58,2.37l-1.5-2.14a8.31,8.31,0,0,1,2-1.83,19.41,19.41,0,0,0,1.08-3.28h-2.39c.43-1.12.95-2.64,1.38-4.12h-1.7v-2h4.42c-.4,1.33-.83,2.85-1.29,4.18h.76l.34-.07Zm-3.21-5c-.19-.85-.7-2.24-1-3.27l2-.61c.36,1,.83,2.3,1.1,3.16Zm7.54,1.14c.06-.3.13-.61.19-.93h-4.56V2614H809a14.81,14.81,0,0,0-.89-1.5l1.78-.71a14.54,14.54,0,0,1,1.22,1.9l-.67.31h2.85a16,16,0,0,0,1.2-2.26l2.18.6c-.4.59-.77,1.14-1.14,1.66h3v1.84h-5.13c-.15.34-.3.63-.45.93h4.12v9.18h-9.2v-9.18Zm4,1.6H810v1h4.85Zm0,2.46H810v1h4.85Zm0,2.47H810v1h4.85Z"/><path d="M818,2641.12a18.94,18.94,0,0,1-3.16,4.17c.51,1.46,1.1,2.33,1.67,2.33.4,0,.63-.91.73-3.15a5.78,5.78,0,0,0,1.86,1.29c-.36,3.32-1.07,4.16-2.8,4.16-1.38,0-2.45-1.14-3.26-3a20.18,20.18,0,0,1-3.52,2.32,10.15,10.15,0,0,0-1.5-1.83,19,19,0,0,0,4.24-2.68,35.2,35.2,0,0,1-1-5.09h-3.86v2.17l2.93-.53.17,2-3.1.63v3.24c0,1.24-.26,1.85-1,2.21a8.18,8.18,0,0,1-3.42.43,9.34,9.34,0,0,0-.8-2.27c1.06,0,2.16,0,2.51,0s.45-.09.45-.39v-2.76c-1.21.25-2.39.49-3.4.68l-.55-2.28c1.08-.17,2.45-.37,4-.64v-2.55h-3.59v-2.14h3.59v-2.17c-1,.17-2.07.3-3,.42a8.68,8.68,0,0,0-.64-1.9,47.77,47.77,0,0,0,7.54-1.6l1.52,1.92c-1,.29-2,.53-3.1.76v2.57H811c-.15-1.71-.21-3.48-.23-5.21h2.38a44.55,44.55,0,0,0,.19,5.21h5.16v2.14h-4.94c.16,1.14.35,2.24.55,3.21a15,15,0,0,0,1.81-2.58Zm-1.39-4.17a15,15,0,0,0-2.7-3.14l1.71-1.16a16.52,16.52,0,0,1,2.81,3Z"/><path d="M818.4,2655.47s0,.76,0,1c-.25,8.49-.45,11.51-1.23,12.52a2.54,2.54,0,0,1-1.83,1,20.19,20.19,0,0,1-3,0,5.36,5.36,0,0,0-.74-2.21c1.22.12,2.34.12,2.83.12a1,1,0,0,0,.84-.32c.55-.61.79-3.46,1-10.17h-4.06a17,17,0,0,1-1.67,3,14.67,14.67,0,0,0-1.47-1.06v8.87H804v1.39h-2V2655.6h2.15a21.7,21.7,0,0,0,.55-3.06l2.47.35c-.33,1-.67,1.9-1,2.71h2.94v3.08a19.33,19.33,0,0,0,2.57-6.12l2.15.5a23.13,23.13,0,0,1-.75,2.41ZM807,2657.58h-3v3.08h3Zm0,8.76v-3.73h-3v3.73Zm6.31-1a40.77,40.77,0,0,0-2.64-4.39l1.77-1a48.27,48.27,0,0,1,2.79,4.21Z"/><path d="M818.13,2673.6v17.1h-2.46v-1H804.25v1h-2.36v-17.1Zm-2.46,14v-11.66H804.25v11.66Zm-1.85-9.42v7.22h-7.75v-7.22Zm-2.28,2H808.2v3.29h3.34Z"/><path d="M811.66,2698.66c-.14.19-.29.36-.42.55a31.42,31.42,0,0,0,7.9,3.36,12.15,12.15,0,0,0-1.56,2,27.1,27.1,0,0,1-3.74-1.66v1.05h-7.62v-.78a22.92,22.92,0,0,1-3.74,1.65,8.86,8.86,0,0,0-1.4-1.84c3.59-1.08,6.91-3,8.58-5.19l1.28.55a14.08,14.08,0,0,0-1.58-1.46l.17-.15h-3.08a12.82,12.82,0,0,1,1.69,1.71l-1.65,1.41a12.86,12.86,0,0,0-1.88-2.09l1.29-1h-1.2a15.32,15.32,0,0,1-2.12,2.6,14.55,14.55,0,0,0-1.49-1.94,11.15,11.15,0,0,0,2.89-4.14l2.21.67c-.12.28-.25.57-.39.85h4.09v1.58a8.92,8.92,0,0,0,1.77-3.08l2.3.59c-.12.31-.23.61-.37.91h5v2h-3.76a10.4,10.4,0,0,1,1.56,1.56l-1.62,1.39a12.57,12.57,0,0,0-1.86-2.06l1.08-.89h-1.48a9.26,9.26,0,0,1-1.35,1.73Zm-7.3,6.3h11.32v6.14h-2.26v-.51h-6.89v.57h-2.17Zm2.17,1.94v1.73h6.89v-1.73Zm5.85-4.82c-.89-.53-1.71-1.07-2.4-1.56a17.77,17.77,0,0,1-2,1.56Z"/><path d="M807.92,2732.44c1.47-.55,2.28-1.5,2.28-2.61H810a1.63,1.63,0,0,1-1.74-1.65,1.68,1.68,0,0,1,1.8-1.65c1.29,0,2,1,2,2.75a4.79,4.79,0,0,1-3.59,4.68Z"/><path d="M809.19,2755.45a18.27,18.27,0,0,1,.79,2.09l-.76.26h.29v1.83c0,1.5-.38,2.9-2.77,3.74a5,5,0,0,0-1-1.25,3,3,0,0,0,1.84-1.12h-2.15v-2.87h1.37v1.61H808v-1.94h.84c0-.13-.08-.3-.12-.47a15.66,15.66,0,0,0-3.36.55v0a12.18,12.18,0,0,0-.38-1.25,2.43,2.43,0,0,0,1-.52c.15-.11.45-.36.82-.7a4.34,4.34,0,0,0-1.35.23v0a10.19,10.19,0,0,0-.46-1.29,1.16,1.16,0,0,0,.63-.34,5.69,5.69,0,0,0,1.12-1.35h-2.51v10.84H802v-17h7.33v6.18h-1.92l.7.38a10.24,10.24,0,0,1-1.31,1.4l1,0c.25-.28.47-.58.7-.87l1.1.76a17.19,17.19,0,0,1-2.47,2.2l1.18-.11a4,4,0,0,0-.23-.61Zm-5-7.49v.9h3v-.9Zm0,3.14h3v-.88h-3Zm13.89,9.76c0,1.08-.15,1.71-.8,2.09a5.59,5.59,0,0,1-2.79.42,8.66,8.66,0,0,0-.48-1.84h-.91V2761H812v2.22h-1.58v-5.42h0c-.09-.3-.26-.85-.4-1.18a1.82,1.82,0,0,0,1-.51,10.31,10.31,0,0,0,.8-.7,4.42,4.42,0,0,0-1.35.23,8.38,8.38,0,0,0-.46-1.29,1.42,1.42,0,0,0,.63-.35,7,7,0,0,0,1.12-1.38h-1.16v-6.18h7.47Zm-3.54.32a8.45,8.45,0,0,0,1,0c.25,0,.32-.09.32-.34v-8.22h-3.43l.74.4a9.88,9.88,0,0,1-1.28,1.38l.93,0a9.2,9.2,0,0,0,.78-.91l1.08.78a20.9,20.9,0,0,1-2.45,2.26l1.16-.11c-.09-.21-.17-.42-.26-.61l1.06-.34a18.28,18.28,0,0,1,.89,2.09L814,2758c0-.18-.13-.4-.19-.63-2,.25-2.71.38-3.09.47H812v1.94h1.14v-1.61h1.44ZM812.76,2748v.9h3.13v-.9Zm0,3.14h3.13v-.88h-3.13Z"/><path d="M809,2773.25s0,.63,0,.89c-.11,5.7-.25,7.85-.74,8.52a1.71,1.71,0,0,1-1.24.81,10.88,10.88,0,0,1-1.92.08,5.3,5.3,0,0,0-.56-2c.55,0,1,.05,1.31.05a.59.59,0,0,0,.53-.28c.25-.38.38-1.88.46-6h-1.72c-.24,3.56-.83,6.48-2.46,8.55a6.75,6.75,0,0,0-1.64-1.69c1.86-2.43,2-6.17,2-11h-1.48v-2.09h3.35a13,13,0,0,0-1.22-2.28l2-.76a11.79,11.79,0,0,1,1.45,2.55l-1.22.49h3.57v2.09H805.2c0,.72,0,1.39,0,2.07Zm6.38-6.61c-.13.46-.28.89-.45,1.33a11.94,11.94,0,0,0,4.29,4.67,9.54,9.54,0,0,0-1.62,1.79,13.93,13.93,0,0,1-3.66-4.29,12.75,12.75,0,0,1-3.84,4.42,7.4,7.4,0,0,0-1.56-1.78,11.48,11.48,0,0,0,4.75-6.73Zm-3.53,11.8a36.18,36.18,0,0,1,5.47,3.36l-1.58,1.94a31.49,31.49,0,0,0-5.32-3.63Zm3.08-.78a24.12,24.12,0,0,0-3.23-2.76l1.44-1.46a24.39,24.39,0,0,1,3.34,2.6Z"/><path d="M818,2795.58a18.88,18.88,0,0,1-3.16,4.16c.51,1.46,1.1,2.33,1.67,2.33.4,0,.63-.91.73-3.15a5.78,5.78,0,0,0,1.86,1.29c-.36,3.33-1.07,4.16-2.8,4.16-1.38,0-2.45-1.14-3.26-3a20.18,20.18,0,0,1-3.52,2.32,10.15,10.15,0,0,0-1.5-1.83,19.3,19.3,0,0,0,4.24-2.67,35.35,35.35,0,0,1-1-5.1h-3.86v2.17l2.93-.53.17,2.05-3.1.63v3.25c0,1.23-.26,1.84-1,2.2a8.32,8.32,0,0,1-3.42.44,9.26,9.26,0,0,0-.8-2.28c1.06.05,2.16,0,2.51,0s.45-.1.45-.4v-2.76c-1.21.25-2.39.5-3.4.69l-.55-2.28c1.08-.17,2.45-.38,4-.65v-2.55h-3.59V2792h3.59v-2.17c-1,.17-2.07.31-3,.42a8.68,8.68,0,0,0-.64-1.9,47.77,47.77,0,0,0,7.54-1.6l1.52,1.92c-1,.29-2,.54-3.1.76V2792H811c-.15-1.71-.21-3.48-.23-5.21h2.38a44.55,44.55,0,0,0,.19,5.21h5.16v2.14h-4.94c.16,1.14.35,2.25.55,3.21a15,15,0,0,0,1.81-2.58Zm-1.39-4.18a15,15,0,0,0-2.7-3.14l1.71-1.16a16.52,16.52,0,0,1,2.81,3Z"/><path d="M808.26,2811.4a12.42,12.42,0,0,1-.76,1.5h8.83v9.39c0,1.12-.21,1.73-1,2.07a8.36,8.36,0,0,1-3.36.38,9.42,9.42,0,0,0-.69-2.19c1,.06,2.08.06,2.4.06s.44-.11.44-.38v-1.14H807a6.63,6.63,0,0,1-2.1,3.78,8.16,8.16,0,0,0-1.64-1.73c1.64-1.42,1.77-3.45,1.77-5.22v-1.54a15.09,15.09,0,0,1-2.36,2.07,13,13,0,0,0-1.48-1.75,14.33,14.33,0,0,0,4.56-5.3h-4.12v-2.12h5.09c.3-.78.55-1.54.76-2.3l2.33.53c-.18.59-.39,1.18-.6,1.77h9.27v2.12Zm5.87,7.81V2818h-6.82c0,.4,0,.79,0,1.23Zm0-4.31h-6.82v1.2h6.82Z"/><path d="M818.61,2836.75c-2.68,5.77-8.91,7.77-16.15,8.45a9.59,9.59,0,0,0-.91-2.18,31.72,31.72,0,0,0,8.23-1.5c-.54-.55-1.3-1.2-2-1.77a20.26,20.26,0,0,1-2.45,1,7.15,7.15,0,0,0-1.39-1.74c3.92-1.22,6.54-3.08,8-4.92l2.45.57c-.38.43-.74.85-1.16,1.27h3.4l.42-.11Zm-2.51-7c-2.45,4.37-7.84,6.72-13.31,7.75a8.51,8.51,0,0,0-1-2,25.86,25.86,0,0,0,5.6-1.44,22.73,22.73,0,0,0-1.86-1.71c-.55.3-1.12.59-1.73.85a6.75,6.75,0,0,0-1.54-1.61,16.24,16.24,0,0,0,6.6-4.24l2.43.57c-.32.35-.67.69-1,1h4l.4-.09Zm-8.32,1.19c-.17.14-.36.25-.55.38a15,15,0,0,1,2.15,1.85,12.63,12.63,0,0,0,3.13-2.23Zm3.06,7-1.1.75a18.41,18.41,0,0,1,2.22,1.88,10.14,10.14,0,0,0,3.19-2.63Z"/><path d="M804.06,2856.53a12.93,12.93,0,0,0-3-1.83l1.24-1.65a11.61,11.61,0,0,1,3,1.65Zm-2.64,7.69a57.3,57.3,0,0,0,2.45-6.1l1.82,1.18c-.63,2-1.46,4.22-2.24,6.08Zm11.78-10.1v.91h5.16v8.62c0,.89-.15,1.31-.72,1.6a5.71,5.71,0,0,1-2.43.3,6.19,6.19,0,0,0-.5-1.65c.59,0,1.22,0,1.41,0s.27-.06.27-.25v-1.25a3.75,3.75,0,0,0-.63.64,4.28,4.28,0,0,1-.84-1.65,3.89,3.89,0,0,1-1.17,1.71,3.49,3.49,0,0,0-.55-.66v3h-2v-3a3.38,3.38,0,0,0-.53.57,5,5,0,0,1-.8-1.57,4.09,4.09,0,0,1-1.14,1.8,3.82,3.82,0,0,0-.61-.7v3h-1.92V2855h5v-.91h-2.68v-3H806V2850l-1.2,1.63a11.69,11.69,0,0,0-2.94-1.92l1.27-1.67a14.51,14.51,0,0,1,2.87,1.65v-.46h2.58v-1.34h2.11v1.34h3.25v-1.34h2.2v1.34h2.61v2H816.1v3Zm-2.7,3.41a9.64,9.64,0,0,0,.72,4v-4.61h-3.08v5.24a4.67,4.67,0,0,0,1-2.77h.4l0-.46h-.85v-1.39Zm.15-5.3h3.25v-1.08h-3.25Zm2.55,4.68v5a4.35,4.35,0,0,0,.94-2.54h.4l0-.46h-.88v-1.39h1.88a8.91,8.91,0,0,0,.88,4.18v-4.8Z"/><path d="M801.29,2884.44a9.46,9.46,0,0,0,2.35-3.23l1.88.83a11.73,11.73,0,0,1-2.36,3.5Zm17-10.28H801.82v-1.75h4a8.38,8.38,0,0,0-.38-1l1.42-.29h-4.08v-1.74h6.15a9.43,9.43,0,0,0-.32-.9l2.2-.4a8.46,8.46,0,0,1,.55,1.3h5.91v1.74h-3.89l1.52.27c-.23.38-.42.74-.61,1.06h4Zm-2,6.48h-5.82a15.28,15.28,0,0,1,2,1.25l-1.39,1.39a13,13,0,0,0-3-1.88l.78-.76H804v-5.8H816.2Zm-4.41,3.36c.7,0,.82-.21.91-1.54a6.64,6.64,0,0,0,1.92.71c-.25,2.1-.85,2.64-2.62,2.64h-3.06c-2.39,0-3-.56-3-2.34v-2h2.2v2c0,.49.15.55,1,.55Zm2.17-7.75h-7.87v.82H814Zm0,2.15h-7.87v.81H814Zm-6.42-7.32a10.22,10.22,0,0,1,.53,1.33h3.87c.19-.43.4-.93.53-1.33Zm8.6,10a14.42,14.42,0,0,1,2.32,3.36l-2,.87a14,14,0,0,0-2.18-3.43Z"/><path d="M818,2897.7a18.65,18.65,0,0,1-3.16,4.16c.51,1.46,1.1,2.34,1.67,2.34.4,0,.63-.91.73-3.16a5.66,5.66,0,0,0,1.86,1.3c-.36,3.32-1.07,4.16-2.8,4.16-1.38,0-2.45-1.14-3.26-3a19.57,19.57,0,0,1-3.52,2.31A9.77,9.77,0,0,0,808,2904a19.73,19.73,0,0,0,4.24-2.68,35.2,35.2,0,0,1-1-5.09h-3.86v2.16l2.93-.53.17,2.06-3.1.62v3.25c0,1.23-.26,1.84-1,2.2a8.15,8.15,0,0,1-3.42.44,9.41,9.41,0,0,0-.8-2.28c1.06.06,2.16,0,2.51,0s.45-.09.45-.4V2901c-1.21.24-2.39.49-3.4.68l-.55-2.28c1.08-.17,2.45-.38,4-.65v-2.54h-3.59v-2.15h3.59v-2.16c-1,.17-2.07.3-3,.42a8.76,8.76,0,0,0-.64-1.91,47.84,47.84,0,0,0,7.54-1.59l1.52,1.92c-1,.28-2,.53-3.1.76v2.56H811c-.15-1.71-.21-3.47-.23-5.2h2.38a44.46,44.46,0,0,0,.19,5.2h5.16v2.15h-4.94c.16,1.14.35,2.24.55,3.21a15.41,15.41,0,0,0,1.81-2.58Zm-1.39-4.18a15.18,15.18,0,0,0-2.7-3.13l1.71-1.16a16.21,16.21,0,0,1,2.81,3Z"/><path d="M817,2911.57v15.26h-2.41v-.93h-9v.95h-2.3v-15.28h4.86a22.61,22.61,0,0,0,.52-2.49l2.73.31c-.28.76-.59,1.5-.89,2.18Zm-11.43,2.17v2h9v-2Zm0,4v2h9v-2Zm9,6v-2h-9v2Z"/><path d="M814.11,2944.69c1.9,0,2.16-.48,2.41-3.21a8.52,8.52,0,0,0,2.3.85c-.42,3.63-1.26,4.62-4.66,4.62H808c-3.55,0-4.71-.69-4.71-3.4v-6.84h10.83V2933H803.07v-2.32h13.47V2940h-2.41v-1.08h-8.48v4.58c0,1,.35,1.18,2.38,1.18Z"/><path d="M810.16,2950.92s0,.86,0,1.14c0,9.82,0,13.22-.59,14.17a2,2,0,0,1-1.43,1.1,8.84,8.84,0,0,1-2.28.12,6.34,6.34,0,0,0-.68-2.41c.7.05,1.33.05,1.69.05a.61.61,0,0,0,.59-.4,9.91,9.91,0,0,0,.34-3.23h-2.33a14.1,14.1,0,0,1-2.61,6.25A11.57,11.57,0,0,0,801,2966a9.92,9.92,0,0,0,2.16-4.58H801.4v-2h2.13c.09-.72.15-1.44.2-2.22h-2.1v-2h2.2c0-.74,0-1.5,0-2.28H801.4v-2Zm-2.34,8.55c0-.67,0-1.39,0-2.22H806c-.06.78-.14,1.5-.21,2.22Zm-1.71-6.5q0,1.17-.06,2.28h1.81l0-2.28Zm12.8-1.16c-.74,1.79-1.63,3.92-2.47,5.59a5.76,5.76,0,0,1,2.15,4.39,3.07,3.07,0,0,1-1.12,2.77,3.42,3.42,0,0,1-1.39.48,14.94,14.94,0,0,1-1.8,0,5.37,5.37,0,0,0-.63-2.12,9.73,9.73,0,0,0,1.39,0,2,2,0,0,0,.87-.17c.4-.21.53-.62.53-1.25,0-1.06-.51-2.39-2.22-3.88.63-1.36,1.31-3.24,1.82-4.69h-2.56v14.71h-2.15v-16.84H817l.32-.07Z"/><path d="M807.19,2971.14a28.42,28.42,0,0,1-1.8,3.89v13.07h-2.17v-9.71a17.39,17.39,0,0,1-1.27,1.54,14.62,14.62,0,0,0-1.22-2.35,19.86,19.86,0,0,0,4.31-7.11Zm6.73,4.75v9.72c0,1.09-.19,1.71-.88,2.09a6,6,0,0,1-2.79.46,7.61,7.61,0,0,0-.78-2.28c.8,0,1.6,0,1.86,0s.35-.08.35-.32v-9.69h-2.21a16.17,16.17,0,0,1-1.78,2.9,15.14,15.14,0,0,0-1.83-1.48,16.62,16.62,0,0,0,3.23-6.84l2.2.5a27.34,27.34,0,0,1-.89,2.83h6.54l.36-.08,1.59.31c-.22,1.53-.55,3.3-.81,4.4l-1.92-.32c.09-.59.21-1.39.3-2.22Zm-3.16,3.42a19.58,19.58,0,0,1-2.58,6.34,13.84,13.84,0,0,0-1.94-1.21,13.7,13.7,0,0,0,2.32-5.59Zm5.86-.65a24,24,0,0,1,2.07,6.19l-2.17.74a24.2,24.2,0,0,0-1.92-6.25Z"/><path d="M813.58,3002.54a7.76,7.76,0,0,1-1.16,2.7,26.42,26.42,0,0,0,6.76,1.08,9.31,9.31,0,0,0-1.37,2.11,22,22,0,0,1-7-1.59,12.29,12.29,0,0,1-3.72,1.74,10.71,10.71,0,0,0-1.37-1.86,11,11,0,0,0,3.08-1,9.68,9.68,0,0,1-2.26-2.21l2-.68a7.16,7.16,0,0,0,1.94,1.6,4.46,4.46,0,0,0,.91-1.85h-4.14v-7.63h4.37v-1.14H807v-1.69a37.3,37.3,0,0,1-1.56,3.53v12.92h-2.17v-9.41a11.56,11.56,0,0,1-1,1.22A16.52,16.52,0,0,0,801,2998a20.47,20.47,0,0,0,4-7.12l2.12.66-.09.25h11.53v2H813.8v1.14h4.3v7.63Zm-4.3-4.59h2.28v-1.39h-2.28Zm2.26,2.94c0-.25,0-.51,0-.74v-.67h-2.28v1.41Zm4.37-1.41H813.8v.69c0,.23,0,.47,0,.72h2.12Zm-2.11-2.92V2998h2.11v-1.39Z"/><path d="M806.39,3020.59a22.94,22.94,0,0,1-1.38,4.47c.3.19.66.45,1.16.76,1.31.78,3.09.89,5.32.89a65.47,65.47,0,0,0,7.69-.49,7.74,7.74,0,0,0-.66,2.31c-1.56.1-4.94.23-7.15.23-2.52,0-4.12-.21-5.51-1-.78-.43-1.46-1.06-1.86-1.06s-1.1,1.29-1.58,2.38l-1.5-2.15a8.41,8.41,0,0,1,2-1.82,17.39,17.39,0,0,0,1.08-3.29h-2.37c.43-1.12.93-2.64,1.36-4.12h-1.7v-2h4.44c-.4,1.33-.85,2.85-1.31,4.18h.78l.34-.07.85.3v-1h.42v-.49h2v.49h2.39v-.83h-3.68v-6.44h9.74v6.44h-4v.83h4.88v5.34c0,.89-.18,1.27-.79,1.52a7.56,7.56,0,0,1-2.64.25,6.31,6.31,0,0,0-.56-1.52c.63,0,1.37,0,1.58,0s.31-.07.31-.28v-3.67h-2.91v1.5l.87,0c-.09-.31-.2-.59-.3-.84l1.37-.3A16.72,16.72,0,0,1,816,3024l-1.44.36c0-.17-.06-.38-.1-.61l-5.11.5-.19-1.77,2.09-.11v-1.64h-2.39V3026h-2v-5.23h-.42Zm-3.09-5.47c-.21-.85-.72-2.22-1-3.25l2-.6c.36,1,.85,2.29,1.12,3.13Zm6.25-.82h1.67v-.94h-1.67Zm1.67,2.42v-1h-1.67v1Zm3.95-3.36h-1.92v.94h1.92Zm0,2.39h-1.92v1h1.92Z"/><path d="M807.76,3045.63c1.2-.21,2.43-.41,3.63-.6l.11,1.93c-3.32.65-6.91,1.3-9.49,1.75l-.5-2.09c1.14-.15,2.57-.38,4.11-.62v-2.59h-3.46v-1.95h3.46v-1.7h2.14v1.7h3.42v1.95h-3.42Zm-6.06-12.84h9.88v1.94H808.9a20.74,20.74,0,0,1,2.64,4.05l-1.71,1.12c-.11-.29-.26-.61-.43-1-5.25.43-6.06.53-6.61.76-.14-.46-.5-1.47-.73-2.05a1.88,1.88,0,0,0,.88-.8,15.59,15.59,0,0,0,1.18-2.13H801.7Zm6.65,4.43c-.36-.55-.74-1.08-1.1-1.56l1.6-.93h-2.28a23.54,23.54,0,0,1-1.66,2.68Zm6.06,7.69h-2.09v-11.47h2.09Zm3.74-13v14.7c0,1.2-.22,1.77-.95,2.13a8.27,8.27,0,0,1-3.28.42,9.7,9.7,0,0,0-.76-2.17c1,0,2,0,2.35,0s.44-.11.44-.44v-14.68Z"/><path d="M818,3061.1a18.65,18.65,0,0,1-3.16,4.16c.51,1.46,1.1,2.34,1.67,2.34.4,0,.63-.91.73-3.16a5.66,5.66,0,0,0,1.86,1.3c-.36,3.32-1.07,4.16-2.8,4.16-1.38,0-2.45-1.14-3.26-3a19.1,19.1,0,0,1-3.52,2.32,9.77,9.77,0,0,0-1.5-1.82,19.73,19.73,0,0,0,4.24-2.68,35.2,35.2,0,0,1-1-5.09h-3.86v2.16l2.93-.53.17,2.05-3.1.63v3.25c0,1.23-.26,1.84-1,2.2a8.15,8.15,0,0,1-3.42.44,9.41,9.41,0,0,0-.8-2.28c1.06.06,2.16,0,2.51,0s.45-.1.45-.4v-2.75c-1.21.24-2.39.49-3.4.68l-.55-2.28c1.08-.17,2.45-.38,4-.65v-2.54h-3.59v-2.15h3.59v-2.16c-1,.17-2.07.3-3,.41a8.86,8.86,0,0,0-.64-1.9,47.84,47.84,0,0,0,7.54-1.59l1.52,1.92c-1,.28-2,.53-3.1.76v2.56H811c-.15-1.71-.21-3.47-.23-5.2h2.38a44.46,44.46,0,0,0,.19,5.2h5.16v2.15h-4.94c.16,1.14.35,2.24.55,3.21a15.41,15.41,0,0,0,1.81-2.58Zm-1.39-4.18a15.18,15.18,0,0,0-2.7-3.13l1.71-1.16a16.21,16.21,0,0,1,2.81,3Z"/><path d="M817.81,3075.05a31.9,31.9,0,0,1-6.53,5.28v7.33c0,1.29-.31,1.9-1.24,2.24a12.53,12.53,0,0,1-4.12.38A8.36,8.36,0,0,0,805,3088c1.35.06,2.9,0,3.32,0s.57-.11.57-.43v-8.42a23,23,0,0,0,4.37-3.12h-11v-2.22h13.18l.5-.13Z"/></svg>