<svg id="圖層_1" data-name="圖層 1" xmlns="http://www.w3.org/2000/svg" viewBox="0 0 1620 4097.49"><defs><style>.cls-1{fill:#ffc331;}</style></defs><rect class="cls-1" width="1620" height="4097.49"/><path d="M877.94,75.37a18.88,18.88,0,0,1-3.16,4.16c.52,1.46,1.11,2.34,1.68,2.34.39,0,.62-.92.72-3.16A5.48,5.48,0,0,0,879,80c-.36,3.33-1.06,4.17-2.79,4.17-1.39,0-2.45-1.14-3.27-3a19.28,19.28,0,0,1-3.52,2.32,9.77,9.77,0,0,0-1.5-1.82A19.49,19.49,0,0,0,872.2,79a35.2,35.2,0,0,1-1-5.09h-3.86v2.16l2.93-.53.17,2-3.1.63v3.25c0,1.23-.26,1.84-1,2.2a8.15,8.15,0,0,1-3.42.44,9.41,9.41,0,0,0-.8-2.28c1.07.06,2.17,0,2.51,0s.46-.1.46-.4V78.67c-1.22.25-2.4.5-3.4.69l-.56-2.28c1.09-.17,2.45-.38,4-.65V73.89h-3.6V71.74h3.6V69.58c-1,.17-2.08.3-3,.41a8.89,8.89,0,0,0-.65-1.9A49,49,0,0,0,869,66.5l1.52,1.92c-1,.28-2,.53-3.1.76v2.56H871c-.15-1.71-.21-3.48-.23-5.2h2.38a46.75,46.75,0,0,0,.19,5.2h5.17v2.15h-4.94c.15,1.14.34,2.24.55,3.21a15.6,15.6,0,0,0,1.8-2.59Zm-1.39-4.18a14.88,14.88,0,0,0-2.7-3.13l1.71-1.16a15.9,15.9,0,0,1,2.81,3Z"/><path d="M871.35,102.08c.49,0,1,.06,1.52.06,1.06,0,4.71,0,6.06-.06a7.64,7.64,0,0,0-.77,2.17h-5.41c-3.48,0-5.83-.5-7.43-2.7a8.47,8.47,0,0,1-2.66,3A9,9,0,0,0,861,103a8,8,0,0,0,3.54-5.75l2.26.34c-.13.61-.29,1.18-.44,1.73a4.18,4.18,0,0,0,2.74,2.37V96.86h-7.41v-2h16.75v2h-7v1.42h5.85v2h-5.85Zm5.24-8h-13.2V87.44h13.2Zm-2.3-5h-8.7v1h8.7Zm0,2.45h-8.7v1h8.7Z"/><path d="M878.89,115.63v2.11h-4.75a10.24,10.24,0,0,1-3.93,7.26,8.35,8.35,0,0,0-1.33-1.33H867V123H861.6v-6.19h1.77v4.23h.85V116h-3.06v-2.07h3.06v-2.6h-.61a14,14,0,0,1-1.06,2.32,10.88,10.88,0,0,0-1.77-1,15.4,15.4,0,0,0,1.83-5.34l2,.4c-.11.56-.23,1.09-.38,1.62h4.43v2H866.2v2.6h2.88V116H866.2v5.13H867v-4.21h1.85v6.34a8.6,8.6,0,0,0,3.09-5.47h-2.43v-2.11h2.66c0-.51,0-1,0-1.52V112.4h-2.49v-2.09h2.49v-3.1h2.11v3.1h3.49v5.32Zm-4.54-1.5c0,.51,0,1,0,1.5h1.46V112.4h-1.44Zm1.9,4.08c.89,1.85,2.11,4.28,2.64,5.76l-2,.84a62.67,62.67,0,0,0-2.49-5.93Z"/><path d="M861,144.62a6.75,6.75,0,0,0,1.3-3.36l1.52.46a7.45,7.45,0,0,1-1.35,3.66Zm.42-5.7c1,0,2.11,0,3.38-.09v-.91h-2.92v-1.71h2.92v-.84h-3v-7.16h8v7.16h-3.08v.84h3v1.71h-3v.83l3.34-.13,0,1.75c-3.07.19-6.32.36-8.62.45Zm2.11-5.07h1.6v-4.12h-1.6v.8l.89-.27A12.18,12.18,0,0,1,865,133l-1,.3a11.34,11.34,0,0,0-.49-2.64Zm1.81,7.35a20.81,20.81,0,0,1,.39,3.33l-1.46.17a16,16,0,0,0-.32-3.32Zm1.86-.17a16.91,16.91,0,0,1,.81,3.16l-1.38.28a16.58,16.58,0,0,0-.78-3.17Zm.93-11.3h-1.64v3.13a19.71,19.71,0,0,0,.73-2.62l.91.33Zm0,4.12v-2.7c-.31.8-.61,1.62-.86,2.17l-.78-.28v.81Zm.91,6.78a11.87,11.87,0,0,1,1.46,3l-1.42.59a13.24,13.24,0,0,0-1.39-3Zm6.19-7v2.93h3v8.72h-2.16v-.67h-3.52v.74h-2v-8.79H873v-8.91h2.2v3.89h3.67v2.09Zm.88,5h-3.52v4h3.52Z"/><path d="M811.35,81.66c.49,0,1,0,1.52,0,1.06,0,4.71,0,6.06,0a7.68,7.68,0,0,0-.77,2.16h-5.41c-3.48,0-5.83-.49-7.43-2.69a8.47,8.47,0,0,1-2.66,3A8.67,8.67,0,0,0,801,82.57a8,8,0,0,0,3.54-5.76l2.26.35c-.13.6-.29,1.17-.44,1.72a4.17,4.17,0,0,0,2.74,2.38V76.43h-7.41v-2h16.75v2h-7v1.43h5.85v2h-5.85Zm5.24-8.06h-13.2V67h13.2Zm-2.3-5h-8.7v1h8.7Zm0,2.45h-8.7v1h8.7Z"/><path d="M807.26,87.53a33.44,33.44,0,0,1-1.88,4V104.5h-2.17V94.92c-.39.51-.79,1-1.17,1.39A14.11,14.11,0,0,0,800.8,94a19.62,19.62,0,0,0,4.33-7.1Zm8.23,14.8c1.12,0,1.33-.48,1.46-2.6a7.06,7.06,0,0,0,2,.83c-.28,2.83-1,3.78-3.28,3.78h-4.31c-2.65,0-3.4-.68-3.4-3.32V95.7l-1.45.57-.85-2,2.3-.89V88.9h2.12v3.63l1.9-.74V86.87h2V91l2.55-1,.19-.13,1.69.51-.07.36a73.49,73.49,0,0,1-.76,8.64l-1.87-.53c.21-1.59.35-4.1.42-6.42l-2.15.88V100h-2v-6l-1.9.78V101c0,1.12.19,1.31,1.45,1.31Z"/><path d="M818.39,110.14s0,.76,0,1c-.24,8.49-.45,11.51-1.23,12.52a2.52,2.52,0,0,1-1.82,1,20.36,20.36,0,0,1-3,0,5.36,5.36,0,0,0-.74-2.21c1.22.12,2.34.12,2.83.12a1,1,0,0,0,.84-.32c.55-.61.8-3.46,1-10.17H812.2a15.86,15.86,0,0,1-1.67,3,15.64,15.64,0,0,0-1.46-1.06V123H804v1.39h-2V110.27h2.15a20.35,20.35,0,0,0,.55-3.06l2.47.35c-.32,1-.67,1.9-1,2.71h3v3.08a19.65,19.65,0,0,0,2.56-6.12l2.15.5a23.83,23.83,0,0,1-.74,2.41ZM807,112.25h-3v3.08h3Zm0,8.76v-3.73h-3V121Zm6.31-1a40.77,40.77,0,0,0-2.64-4.39l1.77-1a46.08,46.08,0,0,1,2.79,4.21Z"/><path d="M818.72,130.51h-3.29a11.46,11.46,0,0,1,1.31,1.2l-1.37,1.19h1.56v4.81h-6v1.12h7s0,.55-.06.82c-.19,2.52-.41,3.76-.91,4.25a2,2,0,0,1-1.44.67,19.88,19.88,0,0,1-2.41,0,4.6,4.6,0,0,0-.63-2,15,15,0,0,0,1.94.08.87.87,0,0,0,.64-.17,3.48,3.48,0,0,0,.46-1.75h-4.54v4.69h-2.22v-3.7a17.38,17.38,0,0,1-5.78,3.63,8.81,8.81,0,0,0-1.42-1.79,16.77,16.77,0,0,0,5.5-2.83h-4.08a39.92,39.92,0,0,0,.7-4.86h5.08v-1.09h-5.78V132.9h3.88a16,16,0,0,0-1.75-1.75l.72-.62h-1.12A15,15,0,0,1,802.7,133a13.63,13.63,0,0,0-1.52-1.52,10.94,10.94,0,0,0,2.76-4l2,.57a6.33,6.33,0,0,1-.34.76h4.18v1.73h-2.72a10.42,10.42,0,0,1,1.29,1.25l-1.21,1.12h8a14.59,14.59,0,0,0-1.84-1.69l.82-.7h-1.56a9.75,9.75,0,0,1-1.48,1.84,11,11,0,0,0-1.69-1.31,8.53,8.53,0,0,0,2.37-3.57l2.06.51c-.1.27-.21.55-.33.82h5.23Zm-10,7.2h-3.1c-.06.38-.1.76-.15,1.12h3.25Zm6-3h-3.78v1.09h3.78Z"/><path d="M818.75,155.53V158H801.28v-2.45Z"/><path d="M806.71,169.17a35.61,35.61,0,0,1-1.48,3.61v13.47h-2.15v-9.72a20,20,0,0,1-1.27,1.63,15.2,15.2,0,0,0-1.07-2.45,20,20,0,0,0,3.88-7.18Zm11.61.29V186h-2.15v-.93H809v1.1h-2V169.46Zm-2.15,13.7V171.42H809v11.74Zm-2.73-7.77V177h1.82v5.09H810V177h1.69v-1.63H809.5v-1.64h2.19v-1.94h1.75v1.94h2.29v1.64Zm.13,3.19h-1.94v2h1.94Z"/><path d="M816.78,206.66h-2.34v-.84h-7.12v.84h-2.26v-5.89c-.93.32-1.86.57-2.81.8a8.57,8.57,0,0,0-1.16-2.09,27,27,0,0,0,6.61-2.23c-.82-.79-2-1.76-3-2.56a17.64,17.64,0,0,1-1.71,1,8.73,8.73,0,0,0-1.56-1.81,14.25,14.25,0,0,0,6.34-5l2.53.53c-.34.48-.68,1-1.06,1.43h5.54l.38-.12,1.56.93a16.1,16.1,0,0,1-6.1,6.56h6.14Zm-9.52-13.83c-.25.21-.47.4-.72.59a34,34,0,0,1,3.25,2.62,14.29,14.29,0,0,0,3.55-3.21Zm7.18,11V200.2h-7.12v3.59Z"/><path d="M818.28,221.63h-7.09v2.87c0,1.22-.28,1.82-1.21,2.17a10.75,10.75,0,0,1-3.69.37,8,8,0,0,0-1-2.29c1.18,0,2.61,0,3,0s.49-.07.49-.34v-2.81h-7v-2.15h7v-1a12.91,12.91,0,0,0,2.32-1.56H805v-2.11h8.4l.51-.11,1.5,1.18a19.12,19.12,0,0,1-4.2,3.28v.32h7.09Zm-14.23-6.13h-2.22v-4.36h7.1a10,10,0,0,0-.74-1.25l2.26-.68a8.68,8.68,0,0,1,1.16,1.93h6.54v4.36h-2.34v-2.23H804.05Z"/><path d="M807.92,248.38c1.46-.55,2.28-1.5,2.28-2.6H810a1.64,1.64,0,0,1-1.75-1.65,1.68,1.68,0,0,1,1.8-1.66c1.29,0,2,1,2,2.76a4.79,4.79,0,0,1-3.59,4.67Z"/><path d="M816,272.85c-.06.8-.1,1.47-.15,2.08H818v2h-2.35a3.73,3.73,0,0,1-.5,1.56,2,2,0,0,1-1.57.89,12.81,12.81,0,0,1-2.53,0,4.36,4.36,0,0,0-.55-1.73,15.9,15.9,0,0,0,2,.08.63.63,0,0,0,.66-.31,1.7,1.7,0,0,0,.23-.53H803.16c.23-1.12.45-2.54.68-4h-2.62v-2h2.91c.15-1.14.28-2.32.4-3.36-.48.57-.94,1.12-1.41,1.59a18.1,18.1,0,0,0-2-1.31,17,17,0,0,0,4.37-6.19l2.24.65c-.17.38-.36.78-.55,1.17h11v2H806c-.32.51-.65,1-1,1.46h11.25s0,.72,0,1c0,1.1-.08,2.07-.12,3h2.74v2Zm-9.92-.07c-.11.76-.21,1.46-.32,2.15h4.16a12.93,12.93,0,0,0-2.26-1.41l.76-.74Zm.52-3.93c-.08.68-.18,1.36-.27,2.07h3.78a11.51,11.51,0,0,0-2.2-1.31l.77-.76Zm7,6.08c0-.61.1-1.3.14-2.15h-4a12.45,12.45,0,0,1,2.23,1.5l-.65.65Zm.21-4c0-.65.06-1.31.08-2.07h-3.86a12.18,12.18,0,0,1,2.17,1.42l-.65.65Z"/><path d="M818.75,289.56V292H801.28v-2.45Z"/><path d="M807.37,315.11h-6v-2.26h6Zm-.41-7.67h-5.23v-2.19H807Zm6.3,3c.8,3.63,2.45,6.46,5.7,7.68a8.64,8.64,0,0,0-1.5,2,9.46,9.46,0,0,1-5-5.39,10.43,10.43,0,0,1-5.55,5.58,9.33,9.33,0,0,0-1.71-1.86c5.09-2.33,5.62-6,5.62-8.49v-1.75h2.43v2.22Zm-3.32-2.71a17.76,17.76,0,0,1-2.07,3.95,16.08,16.08,0,0,0-2.26-1.31c1.57-1.77,2.7-4.81,3.25-7.87l2.5.42c-.19.88-.39,1.73-.64,2.57h5.72l.43-.14,1.66,1a31.8,31.8,0,0,1-2,5.51,18.38,18.38,0,0,0-1.94-.93,23.8,23.8,0,0,0,1.12-3.17Z"/><path d="M816.32,338.14c.44,0,.52-.34.59-2.7a7,7,0,0,0,2.13,1c-.23,3.12-.82,3.95-2.47,3.95H814.8c-1.86,0-2.45-.66-2.45-2.89V335h-2.49c-.47,2.23-2.12,4.52-7,5.8a11.3,11.3,0,0,0-1.6-1.94c3.93-1,5.53-2.41,6.1-3.86h-4.66v-2.09h5v-2.09H810v2.09h4.7v4.52c0,.61.07.69.51.69Zm-12.16-9.65h-2.28v-3.88h6.94c-.13-.47-.27-.95-.4-1.35l2.37-.38c.19.54.42,1.16.59,1.73h6.92v3.71h-2.38v-1.68h-2.68v2.44c0,.49.08.7.58.7h2.29a7.46,7.46,0,0,0,1.66-.15c.05.61.11,1.37.19,1.9a7.63,7.63,0,0,1-1.75.15h-2.57c-2.14,0-2.66-.76-2.66-2.62v-2.42h-2c-.36,2.7-1.45,4.32-5.8,5.23a5.44,5.44,0,0,0-1.17-1.84c3.59-.59,4.33-1.6,4.61-3.39h-2.51Z"/><path d="M805.87,354.31a19.37,19.37,0,0,0-.77-1.88v8.68h-2v-6.56a16.92,16.92,0,0,1-1.33,3.14,12,12,0,0,0-1-2.28,18.44,18.44,0,0,0,2.32-6v-.68h-1.77v-2h1.77v-3.42h2v3.42h1.38v2H805.1v.89c.41.61,1.42,2.19,1.84,2.89v-3.8h3.68v7h-1.36v-.61h-1v1.1h-1.29v-3.34Zm12.94,4.23v2H806v-2Zm-9.48-9.91c.34-.82.7-1.9,1-2.95h-3.52v-1.95H818.3v1.95h-5.89c-.13.44-.29.88-.44,1.29h1.94s0,.61,0,.84c0,1.22,0,2.24,0,3.17l1.24-1c.36.42.7.86,1.06,1.32.17-.63.32-1.28.46-2h-2.36V347.7h2.89l.32-.06,1.12.34a21,21,0,0,1-1.17,5.17,17.53,17.53,0,0,1,1.36,2.54l-1.44,1.18a15.74,15.74,0,0,0-.82-1.78,8.26,8.26,0,0,1-2,2.29,8.37,8.37,0,0,0-.94-1.08,2.47,2.47,0,0,1-.3,1,1.7,1.7,0,0,1-1.23.78,12.43,12.43,0,0,1-1.94.07,4.09,4.09,0,0,0-.5-1.76c.61,0,1.13.05,1.41.05a.53.53,0,0,0,.51-.28c.27-.42.33-2.28.36-7.54Zm-1.1,1.78v3.21h1v-3.21Zm5.62.69c0,2.07-.07,3.49-.15,4.46a7.33,7.33,0,0,0,1.69-2.32C814.9,352.5,814.38,351.76,813.85,351.1Z"/><path d="M817.63,368.35a38.38,38.38,0,0,1-10.14,9.8,9.23,9.23,0,0,0,4.77.86,53.26,53.26,0,0,0,6.65-.46,11.85,11.85,0,0,0-.65,2.41c-1.35.1-4.22.21-6.08.21-2.34,0-3.85-.24-5.15-1-.81-.48-1.44-1.12-1.86-1.12-.59,0-1.44,1.27-2.22,2.49l-1.64-2.13c1.37-1.46,2.87-2.47,3.92-2.47h.11a33.25,33.25,0,0,0,8.4-7.37H802.28V367.3h7.41c-.45-.81-1.16-1.86-1.71-2.65l2-1.09a31.28,31.28,0,0,1,2.12,3.08l-1.16.66h4.47l.44-.11Z"/><path d="M811.88,397.27a58.78,58.78,0,0,1,6.86,2.79L817.67,402a62.33,62.33,0,0,0-7.6-3.31l.86-1.42h-.69c-.91,2.33-2.94,3.83-8,4.67a5.79,5.79,0,0,0-1.12-2c3.81-.52,5.6-1.37,6.49-2.64h-5.66v-1.92h6.4c.06-.31.12-.65.16-1h-7v-2h7.3v-1h-5.62v-1.9h5.62v-1h-6.71v-2h3.61a10.72,10.72,0,0,0-1.06-1.67l2-.8a8.52,8.52,0,0,1,1.43,2.23l-.55.24h4.18a18.83,18.83,0,0,0,1.35-2.47l2.43.63c-.42.67-.86,1.29-1.28,1.84h3.65v2h-6.72v1H817v1.9h-5.81v1h7.56v2h-7.81c0,.34-.1.66-.15,1h7.41v1.92Z"/><path d="M818.39,407.57s0,.76,0,1c-.24,8.49-.45,11.51-1.23,12.52a2.56,2.56,0,0,1-1.82,1.05,22.07,22.07,0,0,1-3,0,5.37,5.37,0,0,0-.74-2.2c1.22.11,2.34.11,2.83.11a1,1,0,0,0,.84-.32c.55-.61.8-3.46,1-10.16H812.2a16.17,16.17,0,0,1-1.67,3,15.55,15.55,0,0,0-1.46-1.07v8.88H804v1.38h-2V407.7h2.15a20.58,20.58,0,0,0,.55-3.06l2.47.34c-.32.95-.67,1.9-1,2.72h3v3.08a19.75,19.75,0,0,0,2.56-6.12l2.15.49a23.24,23.24,0,0,1-.74,2.42ZM807,409.67h-3v3.08h3Zm0,8.76v-3.72h-3v3.72Zm6.31-1a39.82,39.82,0,0,0-2.64-4.39l1.77-1a46.13,46.13,0,0,1,2.79,4.22Z"/><path d="M807.15,430h-6v-1.76h2.32c-.17-.72-.55-1.79-.83-2.62l1.8-.55a25.37,25.37,0,0,1,1,2.69l-1.37.48h3.12Zm4.63,1.7a27.16,27.16,0,0,1-1.16,6.93c1.33,1.5,3.08,1.8,5,1.8H819a6.87,6.87,0,0,0-.65,2h-2.92c-2.21,0-4.12-.4-5.64-2a8.2,8.2,0,0,1-1.92,2.4,8,8,0,0,0-1.18-1.75v.7H803.5v.78h-1.71v-6.5h4.94v5a6,6,0,0,0,1.84-2.45,14.8,14.8,0,0,1-1.23-3.57l1.35-.51c.19.74.39,1.38.6,2a18.33,18.33,0,0,0,.57-3.13h-1.48v0h-1.23c.59-1.44,1.33-3.48,1.93-5.41h-1.71v-2h4.41c-.55,1.79-1.25,3.9-1.88,5.62h.44l.32,0Zm-5,.87h-4.88v-1.71h4.88Zm-4.88.87h4.88v1.69h-4.88Zm3.11,4.39H803.5V440H805Zm9.67-9.65c-.83.13-1.67.23-2.45.31a9.4,9.4,0,0,0-.53-1.71,25.92,25.92,0,0,0,5.93-1.37l1.21,1.73a18.28,18.28,0,0,1-2.32.68v3.34h2v2h-2v3.9h2.11v2.05h-7.14v-2.05h.87v-7.37h1.52v7.37h.8Z"/><path d="M818.58,460.48v2.22H801.5v-2.22h7.34v-3.82h-5.15v-2.18h5.15v-3.35h-3.93a15.84,15.84,0,0,1-1.77,2.76,17.88,17.88,0,0,0-2-1.35,16.46,16.46,0,0,0,3.36-6.8l2.33.51c-.26.91-.56,1.8-.89,2.68h2.93v-3.42h2.37v3.42h6.4v2.2h-6.4v3.35h5.68v2.18h-5.68v3.82Z"/><path d="M807.92,484.53c1.46-.55,2.28-1.5,2.28-2.6H810a1.64,1.64,0,0,1-1.75-1.65,1.68,1.68,0,0,1,1.8-1.66c1.29,0,2,1,2,2.76a4.79,4.79,0,0,1-3.59,4.67Z"/><path d="M819,499.81c-.68,1.82-1.52,4-2.3,5.64a6.07,6.07,0,0,1,1.94,4.41c0,1.43-.3,2.36-1.06,2.85a2.77,2.77,0,0,1-1.33.51,8.91,8.91,0,0,1-1.65,0,5.37,5.37,0,0,0-.58-2.18,10.17,10.17,0,0,0,1.2,0,1.47,1.47,0,0,0,.76-.17c.36-.21.5-.66.5-1.29a5.47,5.47,0,0,0-2-3.89c.55-1.37,1.2-3.29,1.67-4.75h-2.41v14.55h-2.22V499.28a23.26,23.26,0,0,1-2,4.05h1.41v2h-2.83c-.4.49-.8.93-1.22,1.39h3.42v8.56h-2.15v-.72h-3v1H803v-5.75c-.32.21-.64.4-.94.57a11.27,11.27,0,0,0-1.32-1.88,17.78,17.78,0,0,0,4.54-3.14h-4v-2h3.3v-1.56h-2.48v-1.94h2.48V498h2.09v1.84h2v1a17.79,17.79,0,0,0,.93-2.13l2,.55v-.36H817l.34-.07Zm-10.85,8.66h-3v1.22h3Zm0,4.26v-1.35h-3v1.35Zm-1.1-9.4c.36-.5.71-1,1.05-1.56h-1.43v1.56Z"/><path d="M811.35,533.53c.49,0,1,.06,1.52.06,1.06,0,4.71,0,6.06-.06a7.75,7.75,0,0,0-.77,2.17h-5.41c-3.48,0-5.83-.49-7.43-2.7a8.47,8.47,0,0,1-2.66,3,8.63,8.63,0,0,0-1.71-1.57,8.06,8.06,0,0,0,3.54-5.76l2.26.34c-.13.61-.29,1.18-.44,1.73a4.18,4.18,0,0,0,2.74,2.37v-4.82h-7.41v-2h16.75v2h-7v1.42h5.85v2h-5.85Zm5.24-8h-13.2v-6.59h13.2Zm-2.3-5h-8.7v1h8.7Zm0,2.45h-8.7v1h8.7Z"/><path d="M806.62,539.31a38,38,0,0,1-1.43,3.73v13.35H803V547c-.36.53-.72,1-1.06,1.44a19.65,19.65,0,0,0-1.1-2.45,21.19,21.19,0,0,0,3.65-7.32Zm12,11.88h-5.05v5.2h-2.26v-5.2h-5V549.1h5v-2.21h-4.24v-2.11h4.24v-6.13h2.26v6.13h4.29v2.11h-4.29v2.21h5.05ZM809,544.54a34.48,34.48,0,0,0-2.47-4.09l1.77-.85a26.39,26.39,0,0,1,2.52,3.89Zm8.93-4.33c-.57,1.44-1.39,3.21-2,4.31a11.27,11.27,0,0,0-1.9-.88,26.15,26.15,0,0,0,1.82-4Z"/><path d="M810.7,568a22.83,22.83,0,0,1-1.39,5.07c.33.19.67.46,1.12.76a7.1,7.1,0,0,0,3.88.82,41.57,41.57,0,0,0,4.75-.31,9.57,9.57,0,0,0-.52,2.11c-1,.08-3,.15-4.27.15a7.4,7.4,0,0,1-4.12-1c-.69-.46-1.26-1-1.65-1s-1.11,1.22-1.6,2.28l-1.37-2a7.91,7.91,0,0,1,2-1.82,20.54,20.54,0,0,0,1.06-3.63h-1.5v0a2.93,2.93,0,0,1-.8,2.41,1.93,1.93,0,0,1-1,.38,5.29,5.29,0,0,1-1.14,0,4.06,4.06,0,0,0-.45-1.67,5.87,5.87,0,0,0,.81,0,.79.79,0,0,0,.52-.16c.24-.17.32-.66.32-1.23a5.92,5.92,0,0,0-1.31-3.61c.38-1.18.74-2.68,1-3.89h-1.57v14.93h-1.79V559.83h4l.26-.06,1.28.71c-.48,1.57-1.07,3.53-1.6,5a6.81,6.81,0,0,1,1.35,3.38c.34-1,.7-2.33,1-3.59h-1.37v-1.8h3.15a8.25,8.25,0,0,0,1.48-1.73h-1.27v-1.45h2a9.56,9.56,0,0,0,.43-1.31l1.79.35c-.1.32-.19.64-.31,1h4.7v1.45h-5.3c-.14.28-.29.55-.44.82h5.17v1.23h-2v.89h2.43V566h-7v-1.24h2.63v-.89h-1.43v-.93a9.16,9.16,0,0,1-2.41,2.58c-.1-.17-.25-.45-.44-.74-.27,1-.55,2.09-.84,3.06h.52l.28-.06ZM808,562.85c-.19-.85-.55-2.14-.79-3.15l1.71-.38c.26,1,.62,2.22.83,3Zm10.19,9.61c0,.82-.17,1.14-.71,1.39a6.39,6.39,0,0,1-2.33.23,7.49,7.49,0,0,0-.52-1.39c.55,0,1.2,0,1.37,0s.27-.08.27-.25v-1c-1.07.31-2.05.57-3,.82l-.39-1.2a8.13,8.13,0,0,1-.76,2.89,7.71,7.71,0,0,0-1.56-1,8.22,8.22,0,0,0,.59-3.67v-2.66h7Zm-1.92-2.24v-2.28h-3.31v1.43c0,.4,0,.85,0,1.33.67-.08,1.43-.19,2.26-.32a19.14,19.14,0,0,0-2-1.3l.8-1a15.7,15.7,0,0,1,2.24,1.19l-.74,1.09Z"/><path d="M812.09,589c-.73.36-1.47.69-2.23,1h7v7.2h-2.32v-.49h-7.25v.49h-2.21v-5.57c-1,.31-2.09.57-3.13.82a14.12,14.12,0,0,0-1-1.78,44.41,44.41,0,0,0,6.36-1.68h-5.81V587.1h6.12V586h-4.56v-1.84h4.56v-1h2.24v1h4.18v1.58a14.33,14.33,0,0,0,2.49-2.07l1.67,1.06a21.33,21.33,0,0,1-2.83,2.36h3.1V589ZM805,582.48h-3.44v-1.94H805v-1h2.24v1h2.42v1.94h-2.42v1.16H805Zm9.61,9.27h-7.25v.93h7.25Zm0,3.29v-.95h-7.25V595Zm-4.67-7.94h2c.62-.35,1.25-.71,1.84-1.09h-3.82Zm3-4.62h-2.56v-1.94h2.56v-1h2.24v1h3.29v1.94h-3.29v1.16H812.9Z"/><path d="M804.53,603.93A16.76,16.76,0,0,1,802.3,606a12.79,12.79,0,0,0-1.29-1.83,12.24,12.24,0,0,0,3.93-4.5l2,.65a14.92,14.92,0,0,1-.89,1.58h12v2Zm-3.16,12.94a18.08,18.08,0,0,0,2.13-3.71l2.18.57a24.2,24.2,0,0,1-2.1,4Zm14.84-8.51v2.41h2.28v2h-17v-2h2.61v-2.41h-2v-2h2v-1.71h2v1.71h1.29v-1.71h1.88v1.71h1.48v-1.71h1.88v1.71h1.43v-1.71h2.09v1.71h1.86v2Zm-10.05,2.41h1.29v-2.41h-1.29Zm2.66,2.93a21.31,21.31,0,0,1,.47,3.55l-2.22.32a22.12,22.12,0,0,0-.36-3.65Zm.51-5.34v2.41h1.48v-2.41Zm3.36,5.18a19,19,0,0,1,1.13,3.52l-2.27.43a19.54,19.54,0,0,0-1-3.61Zm1.43-5.18h-1.43v2.41h1.43Zm2.37,4.65a27.39,27.39,0,0,1,2.23,3.74l-2.23,1a26.73,26.73,0,0,0-2.07-3.87Z"/><path d="M817.6,625.8A25.88,25.88,0,0,1,816,633a8.13,8.13,0,0,0,3,3.36,6.37,6.37,0,0,0-1.27,1.54,9,9,0,0,1-2.75-3,10.91,10.91,0,0,1-3.4,3.36,7.78,7.78,0,0,0-.86-1.36l-1.22,1a19.92,19.92,0,0,0-2.45-1.31A20,20,0,0,1,801.7,638a6.46,6.46,0,0,0-.82-1.45,23.07,23.07,0,0,0,4-.85,25.54,25.54,0,0,0-2.53-.88,8.76,8.76,0,0,0,.84-1.1l-1.71.1-.18-1.51c.84,0,1.83-.07,2.93-.13a11.77,11.77,0,0,0,.67-1.18h-2.8v-3.43h3.4V627h-2.88v-2h-1.45v-1.6h1.45v-1.92h2.88v-1.15h1.71v1.15h3.06v1.92h1.29V625h-1.29v2h-3.06v.54h3.48V629c1.25-2,1.88-5.26,2.22-8.53l1.9.25c-.13,1.06-.28,2.13-.49,3.15h4.5v2ZM804,629.64h1.56v-.71H804Zm.54-6.69v.61h1V623Zm1,2.66v-.69h-1v.69Zm-.51,8.51c.63.21,1.27.44,1.9.68a3.31,3.31,0,0,0,1.33-1.34l-2.89.15Zm5.17-.78a4,4,0,0,1-1.45,2.24c.69.31,1.3.61,1.83.88a8.45,8.45,0,0,0,3.38-3.63,26,26,0,0,1-1.12-3.78,9.94,9.94,0,0,1-.72,1.38,12.1,12.1,0,0,0-1.39-1.38v2h-3.8c-.19.37-.4.73-.61,1.11l2.22-.12v-.66h1.77v.59l.61,0,0,1.42ZM807.22,623v.61h1.11V623Zm1.11,2.66v-.69h-1.11v.69Zm-1.11,3.32v.71h1.52v-.71Zm6.69-3.13a31.87,31.87,0,0,0,1,4.56,25.85,25.85,0,0,0,.82-4.56Z"/><path d="M818.39,643.72s0,.76,0,1c-.24,8.49-.45,11.51-1.23,12.52a2.56,2.56,0,0,1-1.82,1,22.07,22.07,0,0,1-3,0,5.37,5.37,0,0,0-.74-2.2c1.22.11,2.34.11,2.83.11a1,1,0,0,0,.84-.32c.55-.61.8-3.46,1-10.16H812.2a16.17,16.17,0,0,1-1.67,3,14,14,0,0,0-1.46-1.06v8.87H804V658h-2V643.85h2.15a20.58,20.58,0,0,0,.55-3.06l2.47.34c-.32,1-.67,1.9-1,2.72h3v3.08a19.75,19.75,0,0,0,2.56-6.12l2.15.49a23.24,23.24,0,0,1-.74,2.42ZM807,645.83h-3v3.07h3Zm0,8.75v-3.72h-3v3.72Zm6.31-1a40.77,40.77,0,0,0-2.64-4.39l1.77-1a46.13,46.13,0,0,1,2.79,4.22Z"/><path d="M811.88,674.27a58.78,58.78,0,0,1,6.86,2.79L817.67,679a62.33,62.33,0,0,0-7.6-3.31l.86-1.42h-.69c-.91,2.33-2.94,3.83-8,4.67a5.79,5.79,0,0,0-1.12-2c3.81-.52,5.6-1.37,6.49-2.64h-5.66v-1.92h6.4c.06-.31.12-.65.16-1h-7v-2h7.3v-1h-5.62v-1.9h5.62v-1h-6.71v-2h3.61a10.72,10.72,0,0,0-1.06-1.67l2-.8a8.52,8.52,0,0,1,1.43,2.23l-.55.24h4.18a18.83,18.83,0,0,0,1.35-2.47l2.43.63c-.42.67-.86,1.29-1.28,1.84h3.65v2h-6.72v1H817v1.9h-5.81v1h7.56v2h-7.81c0,.34-.1.67-.15,1h7.41v1.92Z"/><path d="M807.92,700.26c1.46-.55,2.28-1.5,2.28-2.6H810a1.64,1.64,0,0,1-1.75-1.66,1.68,1.68,0,0,1,1.8-1.65c1.29,0,2,1,2,2.75a4.79,4.79,0,0,1-3.59,4.68Z"/><path d="M807.26,714.28a33.44,33.44,0,0,1-1.88,4.05v12.92h-2.17v-9.58c-.39.52-.79,1-1.17,1.39a14.11,14.11,0,0,0-1.24-2.36,19.53,19.53,0,0,0,4.33-7.1Zm8.23,14.8c1.12,0,1.33-.47,1.46-2.6a7.06,7.06,0,0,0,2,.83c-.28,2.83-1,3.78-3.28,3.78h-4.31c-2.65,0-3.4-.68-3.4-3.32v-5.32l-1.45.57-.85-2,2.3-.9v-4.48h2.12v3.63l1.9-.74v-4.92h2v4.12l2.55-1,.19-.13,1.69.51-.07.36a73.86,73.86,0,0,1-.76,8.65l-1.87-.54c.21-1.59.35-4.1.42-6.42l-2.15.88v6.72h-2v-5.94l-1.9.78v6.15c0,1.12.19,1.31,1.45,1.31Z"/><path d="M818.39,736.89s0,.76,0,1c-.24,8.49-.45,11.51-1.23,12.52a2.52,2.52,0,0,1-1.82,1,20.36,20.36,0,0,1-3,0,5.27,5.27,0,0,0-.74-2.2c1.22.11,2.34.11,2.83.11a1,1,0,0,0,.84-.32c.55-.61.8-3.46,1-10.17H812.2a16.28,16.28,0,0,1-1.67,3,14,14,0,0,0-1.46-1.07v8.87H804v1.39h-2V737h2.15a20.23,20.23,0,0,0,.55-3l2.47.34c-.32,1-.67,1.9-1,2.71h3v3.08a19.59,19.59,0,0,0,2.56-6.11l2.15.49a23.07,23.07,0,0,1-.74,2.41ZM807,739h-3v3.08h3Zm0,8.76V744h-3v3.72Zm6.31-1a40.77,40.77,0,0,0-2.64-4.39l1.77-1a46.08,46.08,0,0,1,2.79,4.21Z"/><path d="M816.78,772.13h-2.34v-.83h-7.12v.83h-2.26v-5.88a28,28,0,0,1-2.81.79,9,9,0,0,0-1.16-2.09,26.52,26.52,0,0,0,6.61-2.22,37.3,37.3,0,0,0-3-2.56,17.64,17.64,0,0,1-1.71,1,8.48,8.48,0,0,0-1.56-1.81,14.32,14.32,0,0,0,6.34-5l2.53.53c-.34.47-.68.95-1.06,1.42h5.54l.38-.11,1.56.93a16,16,0,0,1-6.1,6.55h6.14Zm-9.52-13.82c-.25.2-.47.39-.72.58a35.61,35.61,0,0,1,3.25,2.63,14.49,14.49,0,0,0,3.55-3.21Zm7.18,11v-3.59h-7.12v3.59Z"/><path d="M818.28,787.11h-7.09V790c0,1.21-.28,1.82-1.21,2.16a10.72,10.72,0,0,1-3.69.38,8.17,8.17,0,0,0-1-2.3c1.18,0,2.61,0,3,0s.49-.07.49-.34v-2.81h-7V785h7v-1a12.35,12.35,0,0,0,2.32-1.55H805v-2.11h8.4l.51-.12,1.5,1.18a18.86,18.86,0,0,1-4.2,3.29V785h7.09ZM804.05,781h-2.22v-4.35h7.1a9.36,9.36,0,0,0-.74-1.25l2.26-.69a8.52,8.52,0,0,1,1.16,1.94h6.54V781h-2.34v-2.22H804.05Z"/><path d="M812.64,801.38a48.76,48.76,0,0,1,6.32,5.15L817,808.25a43.85,43.85,0,0,0-5.81-5.14V813h-2.47v-9.27a22.79,22.79,0,0,1-6,4.67,12.9,12.9,0,0,0-1.56-2.05,20,20,0,0,0,8.19-7.47h-7.58v-2.32h16.47v2.32h-5.91a18.18,18.18,0,0,1-1.1,1.75v2Z"/><path d="M806.75,817.21c-.46,1.12-1,2.27-1.54,3.36v12.82h-2.05v-9.52a16.69,16.69,0,0,1-1,1.31,12.64,12.64,0,0,0-1.16-2.33,20.38,20.38,0,0,0,4-7.11l2,.65-.26.72h4.76a11,11,0,0,0-.49-1l2.09-.57a14,14,0,0,1,.8,1.6h4.67V819H806.75Zm12,10.71h-2V829h-3v2.19c0,1-.21,1.56-1,1.86a10.65,10.65,0,0,1-3.27.28,9.92,9.92,0,0,0-.66-2c.89,0,2,0,2.28,0s.38-.06.38-.29V829h-3.25v-1.76h8.49v-1h-8.51v1.67h-1.94v-3.44h12.48Zm-10.88-4.2v-4h9.42v4Zm2-1.5h5.22v-1h-5.22Z"/><path d="M818.39,839s0,.76,0,1c-.24,8.49-.45,11.51-1.23,12.52a2.56,2.56,0,0,1-1.82,1.05,22.07,22.07,0,0,1-3,0,5.37,5.37,0,0,0-.74-2.2c1.22.11,2.34.11,2.83.11a1,1,0,0,0,.84-.32c.55-.61.8-3.46,1-10.16H812.2a16.17,16.17,0,0,1-1.67,3,15.64,15.64,0,0,0-1.46-1.06v8.87H804v1.38h-2V839.15h2.15a20.58,20.58,0,0,0,.55-3.06l2.47.34c-.32,1-.67,1.9-1,2.72h3v3.08a19.75,19.75,0,0,0,2.56-6.12l2.15.49A23.24,23.24,0,0,1,813,839ZM807,841.12h-3v3.08h3Zm0,8.76v-3.72h-3v3.72Zm6.31-1a40.77,40.77,0,0,0-2.64-4.39l1.77-1a46.13,46.13,0,0,1,2.79,4.22Z"/><path d="M815.47,869.66a9.83,9.83,0,0,1-2.7,2.13,44.64,44.64,0,0,0,6.08.72,9.38,9.38,0,0,0-1.12,1.79,34.08,34.08,0,0,1-7.64-1.37,38,38,0,0,1-7.88,1.44,9.91,9.91,0,0,0-1.07-1.8,42,42,0,0,0,6.25-.74,12.69,12.69,0,0,1-2.28-1.43,13,13,0,0,1-2.62,1.47,11.2,11.2,0,0,0-1.25-1.7,9.94,9.94,0,0,0,5-3.36l1.93.57a4.71,4.71,0,0,1-.45.65H817.9v1.63Zm-12.52-5a12.41,12.41,0,0,1-.59,3.25,8.34,8.34,0,0,0-1.14-.67,10.06,10.06,0,0,0,.42-2.81Zm3-.53a6,6,0,0,0-.09-.61c-3.18.38-3.69.51-4,.66a10.14,10.14,0,0,0-.5-1.46,2.53,2.53,0,0,0,1.18-.74,12.08,12.08,0,0,0,1-1.06,6.18,6.18,0,0,0-1.75.28,9.81,9.81,0,0,0-.53-1.44,1.68,1.68,0,0,0,.8-.59,13.37,13.37,0,0,0,1.61-2.68l1.54.49a15.66,15.66,0,0,1-1.75,2.7l1.14-.06c.31-.39.61-.81.88-1.23l1.44.65a25.26,25.26,0,0,1-3,3.49l1.61-.17a8.18,8.18,0,0,0-.32-.87l1.2-.33a11.26,11.26,0,0,1,.81,2.55Zm-2.22,3.28a16.92,16.92,0,0,0-.3-2.77l1.25-.25a19.45,19.45,0,0,1,.38,2.72Zm2-.43a14.67,14.67,0,0,0-.53-2.43l1.16-.33a16.36,16.36,0,0,1,.61,2.38Zm7.15-7.64h-6v-1.22h2.24a8.64,8.64,0,0,0-.49-1.15l1.67-.58a9.58,9.58,0,0,1,.74,1.73h1.79Zm-5.93,10.37a12.64,12.64,0,0,0,3.13,1.43,9,9,0,0,0,2.66-1.43Zm5.55-8.62h-5.17V859.9h5.17Zm0,1.8h-5.17v-1.16h5.17Zm-5.1,4.18v-3.48h5V867Zm1.33-1.16H811V864.7h-2.28Zm8.65-1.84a4.53,4.53,0,0,0-.12-.65c-3.13.4-3.66.5-4,.67-.09-.32-.32-1-.47-1.41a2.19,2.19,0,0,0,1.12-.74,9.55,9.55,0,0,0,1-1,6.12,6.12,0,0,0-1.73.27c-.08-.34-.34-1-.49-1.44a1.5,1.5,0,0,0,.78-.57,11.55,11.55,0,0,0,1.59-2.62l1.52.49a15.7,15.7,0,0,1-1.75,2.66l1.09,0c.3-.42.6-.85.85-1.27l1.41.62a25,25,0,0,1-2.78,3.39l1.58-.16c-.1-.36-.23-.72-.36-1.06l1.25-.32a15.46,15.46,0,0,1,.84,2.77Zm-2.83.59a17,17,0,0,1-.59,3,8.39,8.39,0,0,0-1.22-.66,13.93,13.93,0,0,0,.42-2.62Zm.68,2.64a11.81,11.81,0,0,0-.32-2.72l1.25-.24a13.28,13.28,0,0,1,.4,2.69Zm2.15-.15a23.15,23.15,0,0,0-.61-2.78l1.2-.26a17.87,17.87,0,0,1,.68,2.68Z"/><path d="M809,887.24a31.08,31.08,0,0,1,2.43,6l-2,.91a15.84,15.84,0,0,0-.63-2.18c-5.11.87-6,1.1-6.55,1.37a21.1,21.1,0,0,0-.78-2.17c.53-.17,1-.68,1.75-1.63a29.57,29.57,0,0,0,2.6-4c-2.68.24-3.29.38-3.7.57a17.86,17.86,0,0,0-.75-2.19c.44-.13.78-.55,1.26-1.23a27.27,27.27,0,0,0,2.83-5.78l2.26.93a33.75,33.75,0,0,1-3.21,5.76l2.43-.15c.3-.61.59-1.26.84-1.9l2.24,1a48.12,48.12,0,0,1-4.88,7.85L808,890c-.28-.7-.57-1.37-.87-2Zm9.27-7.43c-.23,9-.42,12.18-1.16,13.18a2.46,2.46,0,0,1-1.78,1.13,16.55,16.55,0,0,1-3,0,5.29,5.29,0,0,0-.72-2.24c1.14.1,2.13.1,2.62.1a.86.86,0,0,0,.76-.35c.55-.64.76-3.57.93-10.79h-6.42v-2.16h8.72Z"/><path d="M807.92,916c1.46-.55,2.28-1.5,2.28-2.6H810a1.64,1.64,0,0,1-1.75-1.65,1.67,1.67,0,0,1,1.8-1.65c1.29,0,2,1,2,2.75a4.79,4.79,0,0,1-3.59,4.67Z"/><path d="M807.49,930.05a29.28,29.28,0,0,1-1.86,3.93v13H803.4v-9.63c-.43.55-.87,1.06-1.31,1.52a15.77,15.77,0,0,0-1.23-2.47,19.73,19.73,0,0,0,4.44-7.07Zm11.44,14.22v2.11H806.56v-2.11Zm-1.37-1.86h-9.67V930.48h9.67Zm-2.47-9.84h-4.87v2.78h4.87Zm0,4.87h-4.87v2.88h4.87Z"/><path d="M813.72,960.48a9,9,0,0,1-1.05,3.31,19.06,19.06,0,0,0,6.5,1.59,9.89,9.89,0,0,0-1.35,2,17.46,17.46,0,0,1-6.49-2,9.73,9.73,0,0,1-3.9,2,12.88,12.88,0,0,0-1.4-1.88,8.61,8.61,0,0,0,3.45-1.46,10.88,10.88,0,0,1-2.33-2.83l1.84-.57a7.82,7.82,0,0,0,1.77,2,6.14,6.14,0,0,0,.7-2.17h-4.24v-5.55h4.37v-1.32h-4.77v-1.75c-.34.72-.72,1.46-1.14,2.18v13.43h-2.14v-10.2a21.76,21.76,0,0,1-1.56,1.79,15.08,15.08,0,0,0-1.2-2.32,20.15,20.15,0,0,0,4.6-7.09l2.09.69-.51,1.21h4.63v-1.73h2.24v1.73h5v2.06h-5v1.32h4.53v5.55Zm-2.13-1.82v-1.88h-2.33v1.88Zm2.24-1.88v1.88h2.36v-1.88Z"/><path d="M811.91,971.1a5.32,5.32,0,0,1-.37.46,16.14,16.14,0,0,0,7.52,3.55,9.41,9.41,0,0,0-1.62,2.15,16.94,16.94,0,0,1-3.45-1.39v1.18h-8.13v-1.23a23.17,23.17,0,0,1-3.63,1.53,10.1,10.1,0,0,0-1.31-2.18c3.61-.84,7.37-3,9.19-5.36ZM809,985h-4.23v1.52h-2.06v-8.36H809Zm-4.23-4.88V983h2.12v-2.91ZM812.6,975a15.82,15.82,0,0,1-2.49-2.07,21.49,21.49,0,0,1-2.87,2.07Zm4.82,8.34c0,1-.15,1.55-.83,1.9a6.41,6.41,0,0,1-2.79.34,9.41,9.41,0,0,0-.57-2c.7,0,1.48,0,1.71,0s.32-.07.32-.28v-3.15h-2.62v7.73h-2.23v-9.73h7Z"/><path d="M818.2,1002.81c0,1.07-.17,1.75-.85,2.13a5.36,5.36,0,0,1-2.77.46,6.82,6.82,0,0,0-.73-2.28v5.17h-2.2v-8.65l-.89,1.73c-.17-.21-.36-.44-.57-.68v7.52h-2.07v-1H805v1h-2v-6.82c-.24.19-.49.34-.74.51a7.26,7.26,0,0,0-1.44-1.8,11.35,11.35,0,0,0,5.07-6.18l2,.67c-.12.28-.23.59-.34.87a38.57,38.57,0,0,1,4.1,3.78v-4.63l-1.58,1.27a22.78,22.78,0,0,0-3-4.2l1.5-1.12a23.86,23.86,0,0,1,3,3.91v-2.83h6.55Zm-11.93-11.28a14.94,14.94,0,0,1-3.89,5.17,13.41,13.41,0,0,0-1.29-1.88,10.78,10.78,0,0,0,3.23-4Zm3.86,9.1c-1-1-2.26-2.28-3.48-3.36a13.66,13.66,0,0,1-2.66,3.36Zm-2,4.58v-2.59H805v2.59Zm5.73-2.13c.8,0,1.56,0,1.81,0s.34-.08.34-.32v-9h-2.15Z"/><path d="M807.07,1015.77a26.34,26.34,0,0,1-1.44,2.3v10.68h-2.11v-8.13A17.22,17.22,0,0,1,802,1022a13.78,13.78,0,0,0-1.18-2.1,16,16,0,0,0,4.24-4.89Zm-.32-4a23.52,23.52,0,0,1-4.54,4.64,18.16,18.16,0,0,0-1.18-1.65,16,16,0,0,0,3.72-3.76Zm7.33,14.59a8.5,8.5,0,0,0,1.44.1c.54,0,2.63,0,3.35,0a6.67,6.67,0,0,0-.63,2h-2.91c-2.58,0-4.59-.62-6-3a8.36,8.36,0,0,1-2,3.17,10.17,10.17,0,0,0-1.71-1.44c1.78-1.52,2.43-4.12,2.6-7.3l2.18.17a25.51,25.51,0,0,1-.32,2.66,5.49,5.49,0,0,0,1.88,2.8v-6.9h.69a14.81,14.81,0,0,0-1.22-.85c1.84-1.43,2.85-3.88,3.23-6.82l2.11.24a19.29,19.29,0,0,1-.72,3.18,24.69,24.69,0,0,1,2.94,3l-1.5,1.5a19.43,19.43,0,0,0-2.24-2.59,9.85,9.85,0,0,1-1.58,2.3h.4v2.68h3.67v1.9h-3.67Zm-2.26-9.1a15,15,0,0,0-1.52-1.34,11.07,11.07,0,0,1-2.3,3.26,11.1,11.1,0,0,0-1.59-1.54c1.69-1.46,2.71-3.91,3.19-6.64l2.14.32a19.34,19.34,0,0,1-.72,2.77,17.53,17.53,0,0,1,1.81,1.41Z"/><path d="M816.89,1042.58a25.72,25.72,0,0,0-2.45-2.2,8.14,8.14,0,0,1-1.27,1.63,11.53,11.53,0,0,0-1.48-1,16.56,16.56,0,0,0,7.25,5.3,10.75,10.75,0,0,0-1.67,2.07,18.2,18.2,0,0,1-6.15-4.8v5.52h-2.38v-5.41a18.11,18.11,0,0,1-6.1,4.69,13.81,13.81,0,0,0-1.59-1.93,16.83,16.83,0,0,0,7.69-6.12V1036h-6.91v-2.22h6.91v-2.34h2.38v2.34h7.16V1036h-7.16v4.26c.09.15.19.28.28.43a8.42,8.42,0,0,0,2.4-4.58l2.2.4a16.16,16.16,0,0,1-.63,2c1.09.83,2.4,1.84,3.1,2.48Zm-9.78-6.08a17,17,0,0,1-.69,2c.69.59,1.41,1.22,1.85,1.68l-1.52,1.57a17.88,17.88,0,0,0-1.27-1.33,10.26,10.26,0,0,1-2.19,2.61,13.68,13.68,0,0,0-1.75-1.49,9.23,9.23,0,0,0,3.37-5.51Z"/><path d="M804.62,1060.75a15.79,15.79,0,0,0-3.51-2.08l1.17-1.69a15.29,15.29,0,0,1,3.59,1.9Zm2.24,2.58c-1,2-2.09,4.16-3.19,6l-1.94-1.48a58.73,58.73,0,0,0,3.44-6Zm-1.18-7.64a14.32,14.32,0,0,0-3.47-2.13l1.23-1.67a13.84,13.84,0,0,1,3.57,2Zm12.24,5.45a11.2,11.2,0,0,1-3.1,4.94,16.28,16.28,0,0,0,4.26,1.41,8.46,8.46,0,0,0-1.48,2,15.1,15.1,0,0,1-4.75-2,18.46,18.46,0,0,1-5.55,2,7.45,7.45,0,0,0-1.12-2,16.69,16.69,0,0,0,4.79-1.46,12.54,12.54,0,0,1-2.28-2.93l1.46-.49h-2.57v-2H816l.4-.07Zm-6.76-5.64a11.44,11.44,0,0,1-2.93,5,13.56,13.56,0,0,0-2-1.43c1.94-1.52,2.93-4.14,3.31-7.27l2.33.26c-.07.48-.15.93-.24,1.39h6.19s0,.53-.06.84c-.19,3-.43,4.42-.95,5a2.13,2.13,0,0,1-1.52.69c-.55,0-1.46,0-2.46,0a4.8,4.8,0,0,0-.67-2.09,19.6,19.6,0,0,0,2.09.12.93.93,0,0,0,.66-.19c.23-.23.4-.91.52-2.36Zm-.35,7.13a9.65,9.65,0,0,0,2,2.22,8.25,8.25,0,0,0,1.95-2.22Z"/><path d="M808.25,1076.65a13.2,13.2,0,0,1-.76,1.5h8.83v9.38c0,1.13-.21,1.73-1,2.07a8.19,8.19,0,0,1-3.36.38,9.46,9.46,0,0,0-.68-2.18c1,.06,2.07.06,2.39.06s.44-.12.44-.38v-1.14H807a6.73,6.73,0,0,1-2.11,3.78,7.71,7.71,0,0,0-1.64-1.73c1.64-1.43,1.77-3.46,1.77-5.22v-1.54a15.09,15.09,0,0,1-2.36,2.07,12.45,12.45,0,0,0-1.48-1.75,14.33,14.33,0,0,0,4.56-5.3H801.6v-2.13h5.09c.3-.78.55-1.54.76-2.3l2.34.53c-.19.59-.4,1.18-.61,1.77h9.27v2.13Zm5.87,7.81v-1.24H807.3c0,.4,0,.8,0,1.24Zm0-4.32H807.3v1.2h6.82Z"/><path d="M817.84,1098.14a20.78,20.78,0,0,1-2.39,7.35,9.48,9.48,0,0,0,3.65,2.87,8.44,8.44,0,0,0-1.54,1.94,11.14,11.14,0,0,1-3.52-2.89,12.28,12.28,0,0,1-4.12,3.08,9.42,9.42,0,0,0-1.31-2.09,10.35,10.35,0,0,0,4.1-3,21.07,21.07,0,0,1-1.65-4.22,10.77,10.77,0,0,1-1,1.4c-.25-.3-.8-.91-1.25-1.36v.26h-4.58v4.88l4.56-1.57a10.93,10.93,0,0,0,.25,2.13c-5.49,2.07-6.37,2.5-6.94,2.94a7.93,7.93,0,0,0-.85-2.34,1.17,1.17,0,0,0,.7-1.21v-7h4.62v-3.19h-4.81v-2.23h7.05v6.52a20,20,0,0,0,2.79-7.69l2.22.4a30,30,0,0,1-.7,3h5.55v2.09Zm-5.41.09a20.5,20.5,0,0,0,1.61,5,17.85,17.85,0,0,0,1.45-5.09h-3Z"/><path d="M815.47,1126.24a10,10,0,0,1-2.7,2.13,46.27,46.27,0,0,0,6.08.72,9.31,9.31,0,0,0-1.12,1.78,34.1,34.1,0,0,1-7.64-1.36,38.69,38.69,0,0,1-7.88,1.44,10,10,0,0,0-1.07-1.81,40.71,40.71,0,0,0,6.25-.74,12.64,12.64,0,0,1-2.28-1.42,13,13,0,0,1-2.62,1.46,11.13,11.13,0,0,0-1.25-1.69,9.94,9.94,0,0,0,5-3.36l1.93.57a4.09,4.09,0,0,1-.45.64H817.9v1.64ZM803,1121.18a12.33,12.33,0,0,1-.59,3.25,8.31,8.31,0,0,0-1.14-.66,10.11,10.11,0,0,0,.42-2.81Zm3-.53a6,6,0,0,0-.09-.61c-3.18.38-3.69.52-4,.67a10.14,10.14,0,0,0-.5-1.46,2.53,2.53,0,0,0,1.18-.74,12.63,12.63,0,0,0,1-1.07,6,6,0,0,0-1.75.29,9.91,9.91,0,0,0-.53-1.45,1.55,1.55,0,0,0,.8-.59,13.22,13.22,0,0,0,1.61-2.67l1.54.49a15.66,15.66,0,0,1-1.75,2.7l1.14-.06c.31-.4.61-.82.88-1.23l1.44.64a25.36,25.36,0,0,1-3,3.5l1.61-.17a8.35,8.35,0,0,0-.32-.88l1.2-.32a11.26,11.26,0,0,1,.81,2.55Zm-2.22,3.29a16.92,16.92,0,0,0-.3-2.77l1.25-.25a19.05,19.05,0,0,1,.38,2.72Zm2-.44a15.12,15.12,0,0,0-.53-2.43l1.16-.32a16.58,16.58,0,0,1,.61,2.37Zm7.15-7.63h-6v-1.22h2.24a8.79,8.79,0,0,0-.49-1.16l1.67-.57a9.29,9.29,0,0,1,.74,1.73h1.79Zm-5.93,10.37a12.64,12.64,0,0,0,3.13,1.42,8.94,8.94,0,0,0,2.66-1.42Zm5.55-8.63h-5.17v-1.14h5.17Zm0,1.81h-5.17v-1.16h5.17Zm-5.1,4.18v-3.48h5v3.48Zm1.33-1.16H811v-1.16h-2.28Zm8.65-1.84a4.53,4.53,0,0,0-.12-.65c-3.13.4-3.66.49-4,.67-.09-.33-.32-1-.47-1.41a2.26,2.26,0,0,0,1.12-.74,9.55,9.55,0,0,0,1-1,5.72,5.72,0,0,0-1.73.27c-.08-.35-.34-1-.49-1.45a1.45,1.45,0,0,0,.78-.57,11.09,11.09,0,0,0,1.59-2.62l1.52.49a15.7,15.7,0,0,1-1.75,2.66l1.09,0c.3-.42.6-.86.85-1.28l1.41.63a24.93,24.93,0,0,1-2.78,3.38l1.58-.15c-.1-.36-.23-.72-.36-1.06l1.25-.33a15.55,15.55,0,0,1,.84,2.78Zm-2.83.58a16.94,16.94,0,0,1-.59,3,9.52,9.52,0,0,0-1.22-.67,13.93,13.93,0,0,0,.42-2.62Zm.68,2.65a11.68,11.68,0,0,0-.32-2.72l1.25-.25a13.47,13.47,0,0,1,.4,2.7Zm2.15-.16a22.61,22.61,0,0,0-.61-2.77l1.2-.27a18.18,18.18,0,0,1,.68,2.68Z"/><path d="M807.92,1152.13c1.46-.55,2.28-1.5,2.28-2.6H810a1.64,1.64,0,0,1-1.75-1.65,1.67,1.67,0,0,1,1.8-1.65c1.29,0,2,1,2,2.75a4.79,4.79,0,0,1-3.59,4.67Z"/><path d="M817.94,1174.42a18.65,18.65,0,0,1-3.16,4.16c.52,1.46,1.11,2.34,1.68,2.34.39,0,.62-.91.72-3.15a5.78,5.78,0,0,0,1.86,1.29c-.36,3.32-1.06,4.16-2.79,4.16-1.39,0-2.45-1.14-3.27-3a19.22,19.22,0,0,1-3.52,2.31,9.77,9.77,0,0,0-1.5-1.82,19.49,19.49,0,0,0,4.24-2.68,35.2,35.2,0,0,1-1-5.09h-3.86v2.17l2.93-.54.17,2.06-3.1.62v3.25c0,1.24-.26,1.84-1,2.21a8.18,8.18,0,0,1-3.42.43,9.41,9.41,0,0,0-.8-2.28c1.07.06,2.17,0,2.51,0s.46-.09.46-.4v-2.75l-3.4.68-.56-2.28c1.09-.17,2.45-.38,4-.64v-2.55h-3.6v-2.15h3.6v-2.16c-1,.17-2.08.3-3,.42a8.71,8.71,0,0,0-.65-1.9,47.77,47.77,0,0,0,7.54-1.6l1.52,1.92c-1,.28-2,.53-3.1.76v2.56H811c-.15-1.71-.21-3.47-.23-5.2h2.38a46.75,46.75,0,0,0,.19,5.2h5.17v2.15h-4.94c.15,1.14.34,2.24.55,3.21a16,16,0,0,0,1.8-2.58Zm-1.39-4.18a14.88,14.88,0,0,0-2.7-3.13l1.71-1.16a16.21,16.21,0,0,1,2.81,3Z"/><path d="M811.35,1201.13c.49,0,1,.06,1.52.06,1.06,0,4.71,0,6.06-.06a7.86,7.86,0,0,0-.77,2.17h-5.41c-3.48,0-5.83-.49-7.43-2.7a8.39,8.39,0,0,1-2.66,3,8.94,8.94,0,0,0-1.71-1.57,8,8,0,0,0,3.54-5.76l2.26.34c-.13.61-.29,1.18-.44,1.73a4.19,4.19,0,0,0,2.74,2.38v-4.83h-7.41v-2h16.75v2h-7v1.42h5.85v2h-5.85Zm5.24-8.05h-13.2v-6.59h13.2Zm-2.3-5h-8.7v1h8.7Zm0,2.46h-8.7v1h8.7Z"/><path d="M807.26,1207a32.63,32.63,0,0,1-1.88,4V1224h-2.17v-9.57c-.39.51-.79,1-1.17,1.39a13.73,13.73,0,0,0-1.24-2.36,19.62,19.62,0,0,0,4.33-7.1Zm8.23,14.8c1.12,0,1.33-.48,1.46-2.6a7.06,7.06,0,0,0,2,.83c-.28,2.83-1,3.78-3.28,3.78h-4.31c-2.65,0-3.4-.68-3.4-3.32v-5.32l-1.45.57-.85-2,2.3-.89v-4.48h2.12V1212l1.9-.74v-4.92h2v4.13l2.55-1,.19-.13,1.69.51-.07.36a73.49,73.49,0,0,1-.76,8.64l-1.87-.53c.21-1.59.35-4.1.42-6.42l-2.15.87v6.73h-2v-6l-1.9.78v6.16c0,1.12.19,1.31,1.45,1.31Z"/><path d="M818.39,1229.62s0,.76,0,1c-.24,8.5-.45,11.52-1.23,12.52a2.5,2.5,0,0,1-1.82,1,23.6,23.6,0,0,1-3,0,5.36,5.36,0,0,0-.74-2.21c1.22.12,2.34.12,2.83.12a1,1,0,0,0,.84-.33c.55-.6.8-3.45,1-10.16H812.2a16.17,16.17,0,0,1-1.67,3,15.64,15.64,0,0,0-1.46-1.06v8.87H804v1.39h-2v-14.12h2.15a20.35,20.35,0,0,0,.55-3.06l2.47.34c-.32,1-.67,1.9-1,2.72h3v3.08a19.75,19.75,0,0,0,2.56-6.12l2.15.5a23.83,23.83,0,0,1-.74,2.41ZM807,1231.73h-3v3.07h3Zm0,8.75v-3.72h-3v3.72Zm6.31-1a40.77,40.77,0,0,0-2.64-4.39l1.77-1a46.13,46.13,0,0,1,2.79,4.22Z"/><path d="M813.72,1257.91a8.87,8.87,0,0,1-1.05,3.3,19.06,19.06,0,0,0,6.5,1.6,9.56,9.56,0,0,0-1.35,2,17.46,17.46,0,0,1-6.49-2,9.85,9.85,0,0,1-3.9,2A12.88,12.88,0,0,0,806,1263a8.75,8.75,0,0,0,3.45-1.46,10.88,10.88,0,0,1-2.33-2.83l1.84-.57a7.78,7.78,0,0,0,1.77,2,6,6,0,0,0,.7-2.16h-4.24v-5.55h4.37V1251h-4.77v-1.75c-.34.72-.72,1.47-1.14,2.19v13.43h-2.14v-10.2a23.34,23.34,0,0,1-1.56,1.78,15,15,0,0,0-1.2-2.31,20.15,20.15,0,0,0,4.6-7.09l2.09.68c-.17.4-.34.8-.51,1.22h4.63v-1.73h2.24V1249h5v2h-5v1.33h4.53v5.55Zm-2.13-1.83v-1.88h-2.33v1.88Zm2.24-1.88v1.88h2.36v-1.88Z"/><path d="M811.91,1268.53c-.11.15-.24.3-.37.46a16.14,16.14,0,0,0,7.52,3.55,9.2,9.2,0,0,0-1.62,2.15,17.54,17.54,0,0,1-3.45-1.39v1.18h-8.13v-1.24a23.23,23.23,0,0,1-3.63,1.54,9.86,9.86,0,0,0-1.31-2.18c3.61-.84,7.37-3,9.19-5.36Zm-3,13.89h-4.23v1.52h-2.06v-8.36H809Zm-4.23-4.88v2.9h2.12v-2.9Zm7.88-5.08a15.29,15.29,0,0,1-2.49-2.07,20.63,20.63,0,0,1-2.87,2.07Zm4.82,8.34c0,1-.15,1.56-.83,1.9a6.41,6.41,0,0,1-2.79.34,9.48,9.48,0,0,0-.57-2c.7,0,1.48,0,1.71,0s.32-.08.32-.28v-3.16h-2.62v7.73h-2.23v-9.72h7Z"/><path d="M807.92,1306.58c1.46-.55,2.28-1.5,2.28-2.6H810a1.64,1.64,0,0,1-1.75-1.65,1.67,1.67,0,0,1,1.8-1.65c1.29,0,2,1,2,2.75a4.79,4.79,0,0,1-3.59,4.67Z"/><path d="M807.26,1320.61a32.63,32.63,0,0,1-1.88,4v12.92h-2.17V1328c-.39.51-.79,1-1.17,1.38a14,14,0,0,0-1.24-2.35,19.58,19.58,0,0,0,4.33-7.11Zm8.23,14.8c1.12,0,1.33-.48,1.46-2.61a6.81,6.81,0,0,0,2,.84c-.28,2.83-1,3.78-3.28,3.78h-4.31c-2.65,0-3.4-.68-3.4-3.32v-5.32l-1.45.57-.85-2,2.3-.89V1322h2.12v3.62l1.9-.74v-4.92h2v4.13l2.55-1,.19-.13,1.69.51-.07.36a73.49,73.49,0,0,1-.76,8.64l-1.87-.53c.21-1.6.35-4.1.42-6.42l-2.15.87v6.73h-2v-5.95l-1.9.78v6.16c0,1.12.19,1.31,1.45,1.31Z"/><path d="M804.16,1349.58a22.37,22.37,0,0,0-3.15-2.28l1.33-1.54a21.47,21.47,0,0,1,3.21,2.09Zm2.08,2.05c-.84,2-1.83,4.16-2.8,6l-2-1.39a54.63,54.63,0,0,0,3-6Zm-1.14-7.06a22.57,22.57,0,0,0-3.1-2.38l1.39-1.5a21.33,21.33,0,0,1,3.17,2.15Zm9.61,7.12a12.71,12.71,0,0,0,4.2,3.44,8.83,8.83,0,0,0-1.54,1.75,14,14,0,0,1-4-3.78V1358h-2.23v-4.87a12.2,12.2,0,0,1-4.31,3.8,9.44,9.44,0,0,0-1.5-1.78,10.8,10.8,0,0,0,4.43-3.5h-3.33v-2h4.71v-1.88h2.23v1.88h4.86v2ZM812,1343.6c-.19,2.72-.91,4.22-4.88,5a5.36,5.36,0,0,0-1.08-1.75c3.34-.46,3.78-1.29,3.91-3.21Zm-3.17,1.44h-2v-3.87h11.53v3.76h-2.17v-1.84h-7.31Zm8.53,1.18a5.51,5.51,0,0,0,1.25-.13c0,.53.1,1.38.18,1.88a5.13,5.13,0,0,1-1.39.13h-1.86c-2,0-2.45-.64-2.45-2.51v-2h2v2c0,.44.08.61.42.61Z"/><path d="M804.16,1370a20.88,20.88,0,0,0-3.15-2.28l1.33-1.54a20.71,20.71,0,0,1,3.21,2.09Zm2.08,2c-.84,2-1.83,4.16-2.8,6l-2-1.38a54.87,54.87,0,0,0,3-6ZM805.1,1365a22.56,22.56,0,0,0-3.1-2.37l1.39-1.5a22.11,22.11,0,0,1,3.17,2.14Zm9.61,7.13a12.81,12.81,0,0,0,4.2,3.43,8.83,8.83,0,0,0-1.54,1.75,13.83,13.83,0,0,1-4-3.78v4.94h-2.23v-4.86a12.4,12.4,0,0,1-4.31,3.8,9.83,9.83,0,0,0-1.5-1.79,10.7,10.7,0,0,0,4.43-3.49h-3.33v-2h4.71v-1.88h2.23v1.88h4.86v2ZM812,1364c-.19,2.72-.91,4.22-4.88,5a5.47,5.47,0,0,0-1.08-1.75c3.34-.45,3.78-1.29,3.91-3.21Zm-3.17,1.45h-2v-3.88h11.53v3.76h-2.17v-1.84h-7.31Zm8.53,1.18a5,5,0,0,0,1.25-.14c0,.53.1,1.39.18,1.88a4.72,4.72,0,0,1-1.39.14h-1.86c-2,0-2.45-.65-2.45-2.51v-2h2v2c0,.43.08.61.42.61Z"/><path d="M818.39,1384.07s0,.76,0,1c-.24,8.5-.45,11.52-1.23,12.52a2.5,2.5,0,0,1-1.82,1.05,23.6,23.6,0,0,1-3,0,5.36,5.36,0,0,0-.74-2.21c1.22.12,2.34.12,2.83.12a1,1,0,0,0,.84-.33c.55-.6.8-3.45,1-10.16H812.2a16.17,16.17,0,0,1-1.67,3,15.64,15.64,0,0,0-1.46-1.06v8.87H804v1.39h-2V1384.2h2.15a20.35,20.35,0,0,0,.55-3.06l2.47.34c-.32,1-.67,1.9-1,2.72h3v3.08a19.75,19.75,0,0,0,2.56-6.12l2.15.5a23.83,23.83,0,0,1-.74,2.41ZM807,1386.18h-3v3.07h3Zm0,8.75v-3.72h-3v3.72Zm6.31-1a40.77,40.77,0,0,0-2.64-4.39l1.77-1a46.13,46.13,0,0,1,2.79,4.22Z"/><path d="M806.29,1408.75c.67.72,2.28,2.68,2.66,3.15l-1.29,1.85c-.29-.61-.84-1.51-1.37-2.36v7.9h-2.16v-7.5a16.18,16.18,0,0,1-2.15,4.27,11.43,11.43,0,0,0-1.06-2.13,18.58,18.58,0,0,0,2.94-6.34h-2.45v-2.13h2.72v-3.89h2.16v3.89h2.38v2.13h-2.38Zm12-6.16V1419H816v-1H811.5v1.08h-2.17v-16.55Zm-6.74,2.13v2.36H816v-2.36Zm0,4.39v2.41H816v-2.41ZM816,1416v-2.44H811.5V1416Z"/><path d="M807,1422.68a28.45,28.45,0,0,1-1.4,3.36v13.77h-2.05v-10.22c-.46.65-.93,1.27-1.39,1.81a14.89,14.89,0,0,0-1.16-2.23,20.24,20.24,0,0,0,4-7.1Zm11.69,2.26v1.84H806.46v-1.84h5.44a16.8,16.8,0,0,0-1.18-2.26l1.92-.73a14.5,14.5,0,0,1,1.38,2.51l-1.08.48Zm-11.17,8.43h10v6.29h-2v-.53h-6.13v.59h-1.92Zm9.8-3.82h-9.52v-1.76h9.52Zm-9.52,1h9.52v1.77h-9.52Zm1.64,4.64v2.14h6.13v-2.14Z"/><path d="M807.26,1443.16a33.44,33.44,0,0,1-1.88,4v12.91h-2.17v-9.57c-.39.51-.79,1-1.17,1.39a13.73,13.73,0,0,0-1.24-2.36,19.62,19.62,0,0,0,4.33-7.1Zm8.23,14.8c1.12,0,1.33-.48,1.46-2.6a7.06,7.06,0,0,0,2,.83c-.28,2.83-1,3.78-3.28,3.78h-4.31c-2.65,0-3.4-.68-3.4-3.32v-5.32l-1.45.57-.85-2,2.3-.89v-4.48h2.12v3.63l1.9-.75v-4.92h2v4.13l2.55-1,.19-.13,1.69.51-.07.36a73.49,73.49,0,0,1-.76,8.64l-1.87-.53c.21-1.59.35-4.1.42-6.42l-2.15.87v6.73h-2v-6l-1.9.78v6.16c0,1.12.19,1.31,1.45,1.31Z"/><path d="M811.35,1478.14c.49,0,1,0,1.52,0,1.06,0,4.71,0,6.06,0a7.68,7.68,0,0,0-.77,2.16h-5.41c-3.48,0-5.83-.49-7.43-2.7a8.39,8.39,0,0,1-2.66,3,8.94,8.94,0,0,0-1.71-1.57,8,8,0,0,0,3.54-5.76l2.26.34c-.13.61-.29,1.18-.44,1.73a4.19,4.19,0,0,0,2.74,2.38v-4.83h-7.41v-2h16.75v2h-7v1.43h5.85v2h-5.85Zm5.24-8.06h-13.2v-6.59h13.2Zm-2.3-5h-8.7v1h8.7Zm0,2.45h-8.7v1h8.7Z"/><path d="M806.48,1492.14a23.19,23.19,0,0,1-1.48,4.94c.3.19.66.46,1.16.76,1.31.78,3.1.89,5.32.89a65.47,65.47,0,0,0,7.69-.49,8.44,8.44,0,0,0-.66,2.32c-1.56.09-4.92.22-7.15.22-2.52,0-4.12-.21-5.49-1-.79-.44-1.48-1.07-1.86-1.07s-1.12,1.29-1.59,2.38l-1.5-2.15a8.41,8.41,0,0,1,2-1.82,17.87,17.87,0,0,0,1.1-3.29h-2.39c.44-1.12.93-2.64,1.37-4.12h-1.71v-2h4.44c-.4,1.33-.85,2.85-1.31,4.18h.78l.34-.07Zm-3.19-5c-.21-.85-.72-2.22-1-3.26l2-.61c.36,1,.86,2.3,1.12,3.15Zm5.59,10.76h-2v-8.27h1.41v-5.81h8.18v5.81h1.39V1496c0,.89-.15,1.36-.74,1.67a5.53,5.53,0,0,1-2.36.3,5.63,5.63,0,0,0-.49-1.63h-2.85v.59h-1.62v-4.79h5v4.09h.78c.21,0,.27-.06.27-.25v-4.62h-7Zm1.4-8.27h1.07v-3h3.13v-1.16h-4.2Zm2.89,3.93h-1.71v1.33h1.71Zm1.31-5.51H813v1.58h1.5Z"/><path d="M809.62,1513.55a34.36,34.36,0,0,1-3.54,4.66l7.7-.46c-.67-1-1.37-1.92-2-2.74l2.09-.91a31.38,31.38,0,0,1,4.22,6.12l-2.2,1.14c-.21-.48-.48-1-.8-1.58-9.57.76-10.9.82-11.85,1.18-.14-.46-.52-1.59-.78-2.22a3.17,3.17,0,0,0,1.46-1.14,26.06,26.06,0,0,0,2.87-4h-5.34v-2.28h7.39v-2.69h-5.95v-2.29h5.95v-2.62h2.39v2.62h6.12v2.29h-6.12v2.69h7.49v2.28Z"/><path d="M808.33,1537.72a11.76,11.76,0,0,1-5.84,3.65,9.44,9.44,0,0,0-1.48-1.87,11.52,11.52,0,0,0,5.47-2.46Zm2.81-1.1v5.24h-2.3v-5.24h-7.26v-2h7.26v-1.17h-4.05v-5.7h-3.13v-1.9h3.13v-1.73H807v1.73h6v-1.73h2.32v1.73h3.07v1.9H815.3v5.7h-4.16v1.17h7.29v2Zm-4.11-8.87v1h6v-1Zm0,3.83h6v-1.08h-6Zm6.58,5.34a37.6,37.6,0,0,1,5.09,3.08l-1.45,1.61a32,32,0,0,0-5-3.28Z"/><path d="M806.71,1545.23a37.61,37.61,0,0,1-1.48,3.61v13.47h-2.15v-9.73a18.43,18.43,0,0,1-1.27,1.63,15.2,15.2,0,0,0-1.07-2.45,19.94,19.94,0,0,0,3.88-7.18Zm11.61.28v16.59h-2.15v-.93H809v1.1h-2v-16.76Zm-2.15,13.7v-11.74H809v11.74Zm-2.73-7.77v1.63h1.82v5.09H810v-5.09h1.69v-1.63H809.5v-1.63h2.19v-1.94h1.75v1.94h2.29v1.63Zm.13,3.19h-1.94v2h1.94Z"/><path d="M811.12,1565c0,.8-.06,1.82-.14,3,.27,2.57,1.43,9.73,8.06,12.65a6,6,0,0,0-1.65,2,14.68,14.68,0,0,1-7.43-9,15.46,15.46,0,0,1-7,9.1,7.33,7.33,0,0,0-1.88-1.84c7.71-4.12,7.35-12.63,7.42-15.84Z"/><path d="M818.39,1588.32s0,.76,0,1c-.24,8.5-.45,11.52-1.23,12.52a2.5,2.5,0,0,1-1.82,1.05,23.6,23.6,0,0,1-3,0,5.36,5.36,0,0,0-.74-2.21c1.22.12,2.34.12,2.83.12a1,1,0,0,0,.84-.33c.55-.6.8-3.45,1-10.16H812.2a16.17,16.17,0,0,1-1.67,3,15.64,15.64,0,0,0-1.46-1.06v8.87H804v1.39h-2v-14.12h2.15a20.35,20.35,0,0,0,.55-3.06l2.47.34c-.32,1-.67,1.9-1,2.72h3v3.08a19.75,19.75,0,0,0,2.56-6.12l2.15.5a23.83,23.83,0,0,1-.74,2.41ZM807,1590.43h-3v3.07h3Zm0,8.75v-3.72h-3v3.72Zm6.31-1a40.77,40.77,0,0,0-2.64-4.39l1.77-1a46.13,46.13,0,0,1,2.79,4.22Z"/><path d="M813.72,1616.61a8.87,8.87,0,0,1-1.05,3.3,19.06,19.06,0,0,0,6.5,1.6,9.56,9.56,0,0,0-1.35,2,17.28,17.28,0,0,1-6.49-2,9.85,9.85,0,0,1-3.9,2,12.88,12.88,0,0,0-1.4-1.88,8.75,8.75,0,0,0,3.45-1.46,10.88,10.88,0,0,1-2.33-2.83l1.84-.57a7.78,7.78,0,0,0,1.77,2,6,6,0,0,0,.7-2.16h-4.24v-5.55h4.37v-1.33h-4.77V1608c-.34.73-.72,1.47-1.14,2.19v13.43h-2.14v-10.2a23.34,23.34,0,0,1-1.56,1.78,15,15,0,0,0-1.2-2.31,20.15,20.15,0,0,0,4.6-7.09l2.09.68c-.17.4-.34.8-.51,1.22h4.63V1606h2.24v1.73h5v2h-5v1.33h4.53v5.55Zm-2.13-1.83v-1.88h-2.33v1.88Zm2.24-1.88v1.88h2.36v-1.88Z"/><path d="M811.91,1627.23c-.11.15-.24.3-.37.46a16.14,16.14,0,0,0,7.52,3.55,9.2,9.2,0,0,0-1.62,2.15A17.54,17.54,0,0,1,814,1632v1.18h-8.13v-1.24a23.23,23.23,0,0,1-3.63,1.54,9.86,9.86,0,0,0-1.31-2.18c3.61-.84,7.37-3,9.19-5.36Zm-3,13.89h-4.23v1.52h-2.06v-8.36H809Zm-4.23-4.88v2.9h2.12v-2.9Zm7.88-5.08a15.29,15.29,0,0,1-2.49-2.07,20.63,20.63,0,0,1-2.87,2.07Zm4.82,8.34c0,1-.15,1.56-.83,1.9a6.41,6.41,0,0,1-2.79.34,9.48,9.48,0,0,0-.57-2c.7,0,1.48,0,1.71,0s.32-.08.32-.28v-3.16h-2.62V1644h-2.23v-9.72h7Z"/><path d="M807.92,1665.29c1.46-.56,2.28-1.51,2.28-2.61H810a1.64,1.64,0,0,1-1.75-1.65,1.67,1.67,0,0,1,1.8-1.65c1.29,0,2,1,2,2.75a4.81,4.81,0,0,1-3.59,4.68Z"/><path d="M807.18,1679.31a28.42,28.42,0,0,1-1.8,3.89v13.07h-2.17v-9.7a17.09,17.09,0,0,1-1.27,1.54,14.64,14.64,0,0,0-1.21-2.36,20,20,0,0,0,4.31-7.11Zm6.73,4.75v9.73c0,1.08-.19,1.71-.87,2.09a6,6,0,0,1-2.8.45,7.43,7.43,0,0,0-.78-2.28c.8,0,1.6,0,1.87,0s.34-.08.34-.32v-9.69h-2.21a15.61,15.61,0,0,1-1.78,2.9,18.28,18.28,0,0,0-1.82-1.48,16.74,16.74,0,0,0,3.22-6.84l2.21.5c-.25,1-.55,1.9-.89,2.83h6.53l.36-.08,1.6.31c-.23,1.54-.55,3.3-.82,4.4l-1.92-.32c.1-.59.21-1.39.31-2.22Zm-3.15,3.42a19.36,19.36,0,0,1-2.59,6.34,13.17,13.17,0,0,0-1.93-1.21,13.69,13.69,0,0,0,2.31-5.59Zm5.85-.65a23.63,23.63,0,0,1,2.07,6.2l-2.17.74a23.71,23.71,0,0,0-1.92-6.25Z"/><path d="M811.35,1714.29c.49,0,1,0,1.52,0,1.06,0,4.71,0,6.06,0a7.68,7.68,0,0,0-.77,2.16h-5.41c-3.48,0-5.83-.49-7.43-2.7a8.39,8.39,0,0,1-2.66,3,8.94,8.94,0,0,0-1.71-1.57,8,8,0,0,0,3.54-5.76l2.26.34c-.13.61-.29,1.18-.44,1.73a4.19,4.19,0,0,0,2.74,2.38v-4.83h-7.41v-2h16.75v2h-7v1.43h5.85v2h-5.85Zm5.24-8.06h-13.2v-6.59h13.2Zm-2.3-5h-8.7v1h8.7Zm0,2.45h-8.7v1h8.7Z"/><path d="M807.26,1720.16a33.44,33.44,0,0,1-1.88,4v12.91h-2.17v-9.57c-.39.51-.79,1-1.17,1.39a13.73,13.73,0,0,0-1.24-2.36,19.62,19.62,0,0,0,4.33-7.1Zm8.23,14.8c1.12,0,1.33-.48,1.46-2.6a7.06,7.06,0,0,0,2,.83c-.28,2.83-1,3.78-3.28,3.78h-4.31c-2.65,0-3.4-.68-3.4-3.32v-5.32l-1.45.57-.85-2,2.3-.89v-4.48h2.12v3.63l1.9-.75v-4.92h2v4.13l2.55-1,.19-.13,1.69.51-.07.36a73.49,73.49,0,0,1-.76,8.64l-1.87-.53c.21-1.59.35-4.1.42-6.42l-2.15.87v6.73h-2v-6l-1.9.78v6.16c0,1.12.19,1.31,1.45,1.31Z"/><path d="M803.73,1752.36v1.56h-2v-12.41h5.45v10.85Zm0-8.76v6.67h1.44v-6.67Zm2.56,12.6a10.48,10.48,0,0,0,1.35-4.28l1.67.48a11.37,11.37,0,0,1-1.4,4.58Zm12.31-6.82s0,.55,0,.82c-.17,4.27-.4,6-.87,6.61a1.74,1.74,0,0,1-1.23.68,11.25,11.25,0,0,1-2,.08,4.68,4.68,0,0,0-.53-1.94,10.82,10.82,0,0,0,1.42.08.63.63,0,0,0,.57-.23c.25-.31.42-1.41.55-4.22h-8.24v-10.68h9.84v2H814.5v1.08h3.06v1.77H814.5v1.1h3.06v1.75H814.5v1.14Zm-7.41,2.68a14.64,14.64,0,0,1,.44,3.87l-1.56.25a15.3,15.3,0,0,0-.34-3.88Zm-.81-9.52v1.08h2v-1.08Zm2,2.85h-2v1.1h2Zm-2,4h2v-1.14h-2Zm2.79,2.39a14.64,14.64,0,0,1,1,3.29l-1.45.46a13.12,13.12,0,0,0-.85-3.37Zm1.73,2.78a11,11,0,0,0-1-2.66l1.2-.42a11.21,11.21,0,0,1,1.12,2.58Z"/><path d="M807.92,1778.88c1.46-.55,2.28-1.5,2.28-2.6H810a1.64,1.64,0,0,1-1.75-1.65,1.67,1.67,0,0,1,1.8-1.65c1.29,0,2,1,2,2.75a4.81,4.81,0,0,1-3.59,4.68Z"/><path d="M817.94,1801.17a18.65,18.65,0,0,1-3.16,4.16c.52,1.47,1.11,2.34,1.68,2.34.39,0,.62-.91.72-3.15a5.78,5.78,0,0,0,1.86,1.29c-.36,3.32-1.06,4.16-2.79,4.16-1.39,0-2.45-1.14-3.27-3a19.81,19.81,0,0,1-3.52,2.32,9.5,9.5,0,0,0-1.5-1.83,18.76,18.76,0,0,0,4.24-2.68,35.2,35.2,0,0,1-1-5.09h-3.86v2.17l2.93-.53.17,2.05-3.1.62v3.25c0,1.24-.26,1.85-1,2.21a8.18,8.18,0,0,1-3.42.43,9.56,9.56,0,0,0-.8-2.28c1.07.06,2.17,0,2.51,0s.46-.09.46-.4v-2.75l-3.4.68-.56-2.28c1.09-.17,2.45-.38,4-.64v-2.55h-3.6v-2.15h3.6v-2.16c-1,.17-2.08.3-3,.42a8.71,8.71,0,0,0-.65-1.9,47.77,47.77,0,0,0,7.54-1.6l1.52,1.92c-1,.29-2,.53-3.1.76v2.56H811c-.15-1.7-.21-3.47-.23-5.2h2.38a46.66,46.66,0,0,0,.19,5.2h5.17v2.15h-4.94c.15,1.14.34,2.24.55,3.21a15.52,15.52,0,0,0,1.8-2.58Zm-1.39-4.18a14.88,14.88,0,0,0-2.7-3.13l1.71-1.16a16.52,16.52,0,0,1,2.81,3Z"/><path d="M812.64,1818.73a48.76,48.76,0,0,1,6.32,5.15l-1.92,1.73a43.86,43.86,0,0,0-5.81-5.15v9.84h-2.47V1821a22.79,22.79,0,0,1-6,4.67,12.9,12.9,0,0,0-1.56-2,19.89,19.89,0,0,0,8.19-7.47h-7.58v-2.31h16.47v2.31h-5.91a18.18,18.18,0,0,1-1.1,1.75v2Z"/><path d="M811.35,1848.31c.49,0,1,.06,1.52.06,1.06,0,4.71,0,6.06-.06a7.64,7.64,0,0,0-.77,2.17h-5.41c-3.48,0-5.83-.5-7.43-2.7a8.47,8.47,0,0,1-2.66,3,9,9,0,0,0-1.71-1.58,8,8,0,0,0,3.54-5.75l2.26.34c-.13.61-.29,1.18-.44,1.73a4.18,4.18,0,0,0,2.74,2.37v-4.82h-7.41v-2h16.75v2h-7v1.42h5.85v2h-5.85Zm5.24-8h-13.2v-6.59h13.2Zm-2.3-5h-8.7v1h8.7Zm0,2.45h-8.7v1h8.7Z"/><path d="M807.92,1872.06c1.46-.55,2.28-1.5,2.28-2.6H810a1.64,1.64,0,0,1-1.75-1.65,1.68,1.68,0,0,1,1.8-1.66c1.29,0,2,1,2,2.76a4.79,4.79,0,0,1-3.59,4.67Z"/><path d="M817.94,1894.35a18.88,18.88,0,0,1-3.16,4.16c.52,1.46,1.11,2.34,1.68,2.34.39,0,.62-.92.72-3.16A5.62,5.62,0,0,0,819,1899c-.36,3.33-1.06,4.16-2.79,4.16-1.39,0-2.45-1.14-3.27-3a19.81,19.81,0,0,1-3.52,2.32,9.77,9.77,0,0,0-1.5-1.82,19.49,19.49,0,0,0,4.24-2.68,35.2,35.2,0,0,1-1-5.09h-3.86V1895l2.93-.53.17,2-3.1.63v3.25c0,1.23-.26,1.84-1,2.2a8.15,8.15,0,0,1-3.42.44,9.41,9.41,0,0,0-.8-2.28c1.07.06,2.17,0,2.51,0s.46-.1.46-.4v-2.76c-1.22.25-2.4.5-3.4.69l-.56-2.28c1.09-.17,2.45-.38,4-.65v-2.54h-3.6v-2.15h3.6v-2.17c-1,.18-2.08.31-3,.42a8.89,8.89,0,0,0-.65-1.9,49,49,0,0,0,7.54-1.59l1.52,1.92c-1,.28-2,.53-3.1.76v2.56H811c-.15-1.71-.21-3.48-.23-5.21h2.38a46.85,46.85,0,0,0,.19,5.21h5.17v2.15h-4.94c.15,1.14.34,2.24.55,3.21a15.6,15.6,0,0,0,1.8-2.59Zm-1.39-4.18a14.64,14.64,0,0,0-2.7-3.13l1.71-1.16a15.9,15.9,0,0,1,2.81,3Z"/><path d="M811.35,1921.06c.49,0,1,.06,1.52.06,1.06,0,4.71,0,6.06-.06a7.75,7.75,0,0,0-.77,2.17h-5.41c-3.48,0-5.83-.5-7.43-2.7a8.47,8.47,0,0,1-2.66,3A9,9,0,0,0,801,1922a8,8,0,0,0,3.54-5.75l2.26.34c-.13.61-.29,1.18-.44,1.73a4.18,4.18,0,0,0,2.74,2.37v-4.82h-7.41v-2h16.75v2h-7v1.42h5.85v2h-5.85Zm5.24-8h-13.2v-6.59h13.2Zm-2.3-5h-8.7v1h8.7Zm0,2.45h-8.7v1h8.7Z"/><path d="M807.92,1944.81c1.46-.55,2.28-1.5,2.28-2.6H810a1.64,1.64,0,0,1-1.75-1.65,1.68,1.68,0,0,1,1.8-1.66c1.29,0,2,1,2,2.76a4.79,4.79,0,0,1-3.59,4.67Z"/><path d="M818.58,1961.65H816.4V1973c0,1.37-.32,2-1.22,2.41a12.79,12.79,0,0,1-4.29.42,10.12,10.12,0,0,0-.93-2.39c1.35.07,3,0,3.46,0s.6-.13.6-.53v-11.28H801.47v-2.28h17.11Zm-13.16,9.48v1.44h-2.21v-8.79h8.06v7.35Zm0-5.21v3H809v-3Z"/><path d="M811.35,1993.81c.49,0,1,.06,1.52.06,1.06,0,4.71,0,6.06-.06a7.75,7.75,0,0,0-.77,2.17h-5.41c-3.48,0-5.83-.5-7.43-2.7a8.47,8.47,0,0,1-2.66,3,9,9,0,0,0-1.71-1.58,8,8,0,0,0,3.54-5.75l2.26.34c-.13.61-.29,1.18-.44,1.73a4.18,4.18,0,0,0,2.74,2.37v-4.82h-7.41v-2h16.75v2h-7V1990h5.85v2h-5.85Zm5.24-8h-13.2v-6.59h13.2Zm-2.3-5h-8.7v1h8.7Zm0,2.45h-8.7v1h8.7Z"/><path d="M807.26,1999.69a34,34,0,0,1-1.88,4v12.92h-2.17v-9.57c-.39.51-.79,1-1.17,1.38a14,14,0,0,0-1.24-2.35,19.58,19.58,0,0,0,4.33-7.11Zm8.23,14.79c1.12,0,1.33-.47,1.46-2.6a7.39,7.39,0,0,0,2,.84c-.28,2.83-1,3.78-3.28,3.78h-4.31c-2.65,0-3.4-.69-3.4-3.33v-5.32l-1.45.57-.85-2,2.3-.89v-4.49h2.12v3.63l1.9-.74V1999h2v4.12l2.55-1,.19-.14,1.69.52-.07.36a73.87,73.87,0,0,1-.76,8.64l-1.87-.53c.21-1.6.35-4.11.42-6.42l-2.15.87v6.73h-2v-6l-1.9.78v6.15c0,1.12.19,1.31,1.45,1.31Z"/><path d="M812.64,2025.51a48.73,48.73,0,0,1,6.32,5.14l-1.92,1.73a44.58,44.58,0,0,0-5.81-5.15v9.85h-2.47v-9.28a22.62,22.62,0,0,1-6,4.68,12.9,12.9,0,0,0-1.56-2,20,20,0,0,0,8.19-7.47h-7.58v-2.32h16.47V2023h-5.91a18.18,18.18,0,0,1-1.1,1.75v2Z"/><path d="M811.35,2055.09c.49,0,1,0,1.52,0,1.06,0,4.71,0,6.06,0a7.68,7.68,0,0,0-.77,2.16h-5.41c-3.48,0-5.83-.49-7.43-2.69a8.47,8.47,0,0,1-2.66,3A8.67,8.67,0,0,0,801,2056a8,8,0,0,0,3.54-5.76l2.26.35c-.13.6-.29,1.17-.44,1.72a4.17,4.17,0,0,0,2.74,2.38v-4.83h-7.41v-2h16.75v2h-7v1.43h5.85v2h-5.85Zm5.24-8.06h-13.2v-6.59h13.2Zm-2.3-5h-8.7v1h8.7Zm0,2.45h-8.7v1h8.7Z"/><path d="M808.34,2068.33a18.83,18.83,0,0,1-1.36,1.86h2.56v-1.55h2.19v1.55H817v4.51c0,1-.19,1.52-.89,1.84a7.88,7.88,0,0,1-2.91.32,7.46,7.46,0,0,0-.68-1.94c.75,0,1.63,0,1.88,0s.34-.07.34-.28v-2.51h-3V2078h-2.19v-5.79h-2.7V2077H804.6v-4.46a12,12,0,0,1-2.11,1.43,11.87,11.87,0,0,0-1.5-1.7,14.22,14.22,0,0,0,4.66-3.93h-4.09v-2h5.38a13.15,13.15,0,0,0,.64-1.39c-1.38.38-2.77.66-4.08.93A15.83,15.83,0,0,0,802,2064c1.82-.27,3.74-.61,5.55-1.06-1.48-.48-3-.92-4.28-1.26l1.58-1.31c1.75.42,3.84,1,5.87,1.62a18.07,18.07,0,0,0,4.08-1.89l1.89,1.3a24,24,0,0,1-3,1.55c1.4.5,2.68,1,3.68,1.47l-1.73,1.56a46.64,46.64,0,0,0-4.82-2c-.52.17-1,.34-1.6.49l1.05.29a16.56,16.56,0,0,1-.73,1.54h9v2Z"/><path d="M802.66,2084.35h-1.42v-1.9h3.63c-.17-.46-.38-.91-.55-1.29l2-.57a14,14,0,0,1,.82,1.86h2.6V2084a9.91,9.91,0,0,0,2.41-3.33l2.15.36c-.13.31-.29.57-.44.88h3.31l.4-.06,1.36.46c-1.15,4.8-4.08,6.91-8.32,7.95a6.87,6.87,0,0,0-1.06-1.69,11,11,0,0,0,2.51-.76c-.44-.53-1-1.17-1.58-1.76-.19.15-.38.3-.57.43a6,6,0,0,0-1.54-1.4c.34-.25.69-.49,1-.76h-4.66V2087c0,.59.08.78.56.78h2.43a7.47,7.47,0,0,0,1.52-.14,15.78,15.78,0,0,0,.19,1.87,6.14,6.14,0,0,1-1.66.15H805.3c-2.1,0-2.64-.72-2.64-2.7Zm8.46,11.85h7.31v1.87H801.56v-1.87h7.26v-1h-6.23v-1.79h6.23v-1c-2,.1-3.91.16-5.74.16a7.08,7.08,0,0,0-.47-1.81,103.36,103.36,0,0,0,13.92-1.06l.93,1.84a60.08,60.08,0,0,1-6.34.72v1.16h6.42v1.79h-6.42Zm2.45-9.17a6.61,6.61,0,0,0,.83-.65,25.21,25.21,0,0,0-2.31-1.84c-.14.15-.31.32-.46.49C812.28,2085.68,813,2086.44,813.57,2087Zm-.29-3.38c.72.51,1.52,1.06,2.17,1.57a6.56,6.56,0,0,0,.85-1.57Z"/><path d="M806.62,2101.73a40.29,40.29,0,0,1-1.52,3.84v13.22H803v-9.5a16.22,16.22,0,0,1-1.15,1.56,15.42,15.42,0,0,0-1.11-2.45,20.67,20.67,0,0,0,3.77-7.29Zm11.36,4.73a23.9,23.9,0,0,1-1.71,7.51,8.13,8.13,0,0,0,2.69,3,9.44,9.44,0,0,0-1.35,1.79,9.5,9.5,0,0,1-2.47-2.8,10.14,10.14,0,0,1-2.85,2.8,11.59,11.59,0,0,0-1.34-1.52c.24-.15.51-.33.76-.52h-3.63v1.35h-1.94v-8.41H808v-3.1h-2.18v-2H808v-3.19h2.13v3.19h2v2h-2v3.1h1.44c-.17-.25-.34-.48-.45-.63,1.31-1.88,2-4.86,2.43-7.92l2,.34c-.17,1.05-.36,2.13-.59,3.14h3.88v1.89Zm-8,5.1h-1.95v3.24H810Zm2,4.92a9.23,9.23,0,0,0,2.17-2.57,20.84,20.84,0,0,1-1.12-4,7.85,7.85,0,0,1-.67,1,6.72,6.72,0,0,0-.38-.67Zm2.47-10-.17.56a25.81,25.81,0,0,0,.89,4.4,26.09,26.09,0,0,0,.88-5Z"/><path d="M817.75,2131v8.25H815.2v-1H802.15V2131h2.55v5h4v-6h-5.53v-6.9h2.39v4.71h3.14v-6.31h2.5v6.31h3.27v-4.71H817v6.9h-5.78v6h4v-5Z"/><path d="M810.83,2145.59v3l.38-.44a43,43,0,0,1,6.48,3.84L816,2154a37.17,37.17,0,0,0-5.19-3.46v9H808.4v-14h-6.86v-2.28h16.93v2.28Z"/><path d="M818.75,2169.81v2.45H801.28v-2.45Z"/><path d="M806.71,2183.45a35.61,35.61,0,0,1-1.48,3.61v13.47h-2.15v-9.72a20,20,0,0,1-1.27,1.63,15.2,15.2,0,0,0-1.07-2.45,20,20,0,0,0,3.88-7.18Zm11.61.29v16.58h-2.15v-.93H809v1.1h-2v-16.75Zm-2.15,13.7V2185.7H809v11.74Zm-2.73-7.77v1.63h1.82v5.09H810v-5.09h1.69v-1.63H809.5V2188h2.19v-1.94h1.75V2188h2.29v1.64Zm.13,3.19h-1.94v2h1.94Z"/><path d="M807.26,2203.94a33.32,33.32,0,0,1-1.88,4v12.92h-2.17v-9.57c-.39.51-.79,1-1.17,1.38a14,14,0,0,0-1.24-2.35,19.58,19.58,0,0,0,4.33-7.11Zm8.23,14.8c1.12,0,1.33-.48,1.46-2.61a7.09,7.09,0,0,0,2,.84c-.28,2.83-1,3.78-3.28,3.78h-4.31c-2.65,0-3.4-.68-3.4-3.33v-5.31l-1.45.56-.85-2,2.3-.89v-4.49h2.12v3.63l1.9-.74v-4.92h2v4.12l2.55-1,.19-.14,1.69.52-.07.36a73.87,73.87,0,0,1-.76,8.64l-1.87-.53c.21-1.6.35-4.1.42-6.42l-2.15.87v6.73h-2v-6l-1.9.78v6.15c0,1.12.19,1.32,1.45,1.32Z"/><path d="M803.73,2236.14v1.56h-2v-12.41h5.45v10.85Zm0-8.76v6.67h1.44v-6.67Zm2.56,12.6a10.58,10.58,0,0,0,1.35-4.28l1.67.48a11.32,11.32,0,0,1-1.4,4.57Zm12.31-6.82s0,.55,0,.81c-.17,4.28-.4,6-.87,6.61a1.75,1.75,0,0,1-1.23.69,12.53,12.53,0,0,1-2,.07,4.68,4.68,0,0,0-.53-1.93,12.36,12.36,0,0,0,1.42.07.63.63,0,0,0,.57-.23c.25-.3.42-1.4.55-4.21h-8.24v-10.68h9.84v2H814.5v1.08h3.06v1.77H814.5v1.1h3.06V2232H814.5v1.14Zm-7.41,2.67a14.76,14.76,0,0,1,.44,3.88l-1.56.25a15.26,15.26,0,0,0-.34-3.88Zm-.81-9.51v1.08h2v-1.08Zm2,2.85h-2v1.1h2Zm-2,4h2V2232h-2Zm2.79,2.39a14.35,14.35,0,0,1,1,3.29l-1.45.45a13.05,13.05,0,0,0-.85-3.36Zm1.73,2.77a11.14,11.14,0,0,0-1-2.66l1.2-.41a11,11,0,0,1,1.12,2.58Z"/><path d="M807.92,2262.66c1.46-.55,2.28-1.5,2.28-2.6H810a1.64,1.64,0,0,1-1.75-1.65,1.68,1.68,0,0,1,1.8-1.66c1.29,0,2,1,2,2.76a4.79,4.79,0,0,1-3.59,4.67Z"/><path d="M810.15,2276.9s0,.85,0,1.14c0,9.82,0,13.22-.59,14.17a2,2,0,0,1-1.42,1.1,9.44,9.44,0,0,1-2.28.11,6.36,6.36,0,0,0-.69-2.41c.71.06,1.33.06,1.69.06a.63.63,0,0,0,.59-.4,9.66,9.66,0,0,0,.34-3.23h-2.33a14.1,14.1,0,0,1-2.61,6.25A11.11,11.11,0,0,0,801,2292a10,10,0,0,0,2.17-4.58h-1.77v-2h2.13c.09-.72.15-1.44.21-2.22h-2.11v-2h2.2c0-.74,0-1.5,0-2.28h-2.47v-2Zm-2.34,8.54c0-.66,0-1.38,0-2.22H806c-.06.78-.13,1.5-.21,2.22ZM806.1,2279q0,1.17-.06,2.28h1.81l0-2.28Zm12.81-1.16c-.75,1.78-1.64,3.91-2.47,5.58a5.79,5.79,0,0,1,2.14,4.39,3.1,3.1,0,0,1-1.12,2.78,3.58,3.58,0,0,1-1.38.47,13.17,13.17,0,0,1-1.81,0,5.41,5.41,0,0,0-.63-2.13,8.62,8.62,0,0,0,1.39,0,2.21,2.21,0,0,0,.87-.17c.4-.21.54-.63.54-1.26,0-1.06-.52-2.39-2.23-3.87.63-1.37,1.31-3.25,1.83-4.69h-2.57v14.7h-2.14v-16.83H817l.32-.08Z"/><path d="M811.35,2311.66c.49,0,1,.06,1.52.06,1.06,0,4.71,0,6.06-.06a7.75,7.75,0,0,0-.77,2.17h-5.41c-3.48,0-5.83-.5-7.43-2.7a8.47,8.47,0,0,1-2.66,3,8.63,8.63,0,0,0-1.71-1.57,8.06,8.06,0,0,0,3.54-5.76l2.26.34c-.13.61-.29,1.18-.44,1.73a4.18,4.18,0,0,0,2.74,2.37v-4.82h-7.41v-2h16.75v2h-7v1.42h5.85v2h-5.85Zm5.24-8h-13.2V2297h13.2Zm-2.3-5h-8.7v1h8.7Zm0,2.45h-8.7v1h8.7Z"/><path d="M807.26,2317.54a34,34,0,0,1-1.88,4v12.92h-2.17v-9.57c-.39.51-.79,1-1.17,1.38a14,14,0,0,0-1.24-2.35,19.58,19.58,0,0,0,4.33-7.11Zm8.23,14.79c1.12,0,1.33-.47,1.46-2.6a7.09,7.09,0,0,0,2,.84c-.28,2.83-1,3.78-3.28,3.78h-4.31c-2.65,0-3.4-.68-3.4-3.33v-5.31l-1.45.56-.85-2,2.3-.89v-4.49h2.12v3.63l1.9-.74v-4.92h2V2321l2.55-1,.19-.14,1.69.52-.07.36a73.87,73.87,0,0,1-.76,8.64l-1.87-.53c.21-1.6.35-4.11.42-6.42l-2.15.87V2330h-2v-5.95l-1.9.78V2331c0,1.12.19,1.31,1.45,1.31Z"/><path d="M818.39,2340.15s0,.76,0,1c-.24,8.49-.45,11.51-1.23,12.52a2.56,2.56,0,0,1-1.82,1,22.07,22.07,0,0,1-3,0,5.37,5.37,0,0,0-.74-2.2c1.22.11,2.34.11,2.83.11a1,1,0,0,0,.84-.32c.55-.61.8-3.46,1-10.16H812.2a16.17,16.17,0,0,1-1.67,3,15.64,15.64,0,0,0-1.46-1.06V2353H804v1.38h-2v-14.11h2.15a20.58,20.58,0,0,0,.55-3.06l2.47.34c-.32,1-.67,1.9-1,2.72h3v3.08a19.75,19.75,0,0,0,2.56-6.12l2.15.49a23.24,23.24,0,0,1-.74,2.42Zm-11.38,2.1h-3v3.08h3Zm0,8.76v-3.72h-3V2351Zm6.31-1a40.77,40.77,0,0,0-2.64-4.39l1.77-1a46.13,46.13,0,0,1,2.79,4.22Z"/><path d="M813.72,2368.44a9,9,0,0,1-1.05,3.3,19.06,19.06,0,0,0,6.5,1.6,9.56,9.56,0,0,0-1.35,2,17.46,17.46,0,0,1-6.49-2,9.85,9.85,0,0,1-3.9,2,12.37,12.37,0,0,0-1.4-1.88,8.75,8.75,0,0,0,3.45-1.46,10.77,10.77,0,0,1-2.33-2.84l1.84-.56a7.78,7.78,0,0,0,1.77,1.95,6.09,6.09,0,0,0,.7-2.16h-4.24v-5.55h4.37v-1.33h-4.77v-1.75c-.34.72-.72,1.46-1.14,2.19v13.43h-2.14v-10.2A23.34,23.34,0,0,1,802,2367a15.08,15.08,0,0,0-1.2-2.32,20.11,20.11,0,0,0,4.6-7.08l2.09.68c-.17.4-.34.8-.51,1.22h4.63v-1.73h2.24v1.73h5v2h-5v1.33h4.53v5.55Zm-2.13-1.83v-1.88h-2.33v1.88Zm2.24-1.88v1.88h2.36v-1.88Z"/><path d="M811.91,2379.06c-.11.15-.24.3-.37.45a16.05,16.05,0,0,0,7.52,3.56,9.36,9.36,0,0,0-1.62,2.14,16.91,16.91,0,0,1-3.45-1.38V2385h-8.13v-1.23a23.23,23.23,0,0,1-3.63,1.54,9.92,9.92,0,0,0-1.31-2.19c3.61-.83,7.37-3,9.19-5.35ZM809,2393h-4.23v1.51h-2.06v-8.35H809Zm-4.23-4.89V2391h2.12v-2.91Zm7.88-5.07a15.82,15.82,0,0,1-2.49-2.07,21.49,21.49,0,0,1-2.87,2.07Zm4.82,8.34c0,1-.15,1.56-.83,1.9a6.41,6.41,0,0,1-2.79.34,9.32,9.32,0,0,0-.57-2c.7,0,1.48,0,1.71,0s.32-.08.32-.29v-3.15h-2.62v7.73h-2.23v-9.73h7Z"/><path d="M807.92,2417.11c1.46-.55,2.28-1.5,2.28-2.6H810a1.64,1.64,0,0,1-1.75-1.65,1.68,1.68,0,0,1,1.8-1.66c1.29,0,2,1,2,2.76a4.79,4.79,0,0,1-3.59,4.67Z"/><path d="M810.15,2431.35s0,.85,0,1.14c0,9.82,0,13.22-.59,14.17a2,2,0,0,1-1.42,1.1,9.44,9.44,0,0,1-2.28.11,6.41,6.41,0,0,0-.69-2.41c.71.06,1.33.06,1.69.06a.63.63,0,0,0,.59-.4,9.66,9.66,0,0,0,.34-3.23h-2.33a14.1,14.1,0,0,1-2.61,6.25,11.11,11.11,0,0,0-1.84-1.67,10,10,0,0,0,2.17-4.58h-1.77v-2h2.13c.09-.73.15-1.45.21-2.23h-2.11v-2h2.2c0-.74,0-1.5,0-2.28h-2.47v-2.05Zm-2.34,8.55c0-.67,0-1.39,0-2.23H806c-.06.78-.13,1.5-.21,2.23Zm-1.71-6.5q0,1.17-.06,2.28h1.81l0-2.28Zm12.81-1.16c-.75,1.79-1.64,3.91-2.47,5.58a5.8,5.8,0,0,1,2.14,4.39,3.1,3.1,0,0,1-1.12,2.78,3.42,3.42,0,0,1-1.38.47,13.17,13.17,0,0,1-1.81,0,5.41,5.41,0,0,0-.63-2.13,8.62,8.62,0,0,0,1.39,0,2.21,2.21,0,0,0,.87-.17c.4-.21.54-.63.54-1.25,0-1.07-.52-2.4-2.23-3.88.63-1.37,1.31-3.25,1.83-4.69h-2.57v14.7h-2.14v-16.83H817l.32-.08Z"/><path d="M811.35,2466.11c.49,0,1,.06,1.52.06,1.06,0,4.71,0,6.06-.06a7.86,7.86,0,0,0-.77,2.17h-5.41c-3.48,0-5.83-.49-7.43-2.7a8.39,8.39,0,0,1-2.66,3A8.63,8.63,0,0,0,801,2467a8,8,0,0,0,3.54-5.76l2.26.34c-.13.61-.29,1.18-.44,1.73a4.18,4.18,0,0,0,2.74,2.37v-4.82h-7.41v-2h16.75v2h-7v1.42h5.85v2h-5.85Zm5.24-8.05h-13.2v-6.59h13.2Zm-2.3-5h-8.7v1h8.7Zm0,2.46h-8.7v1h8.7Z"/><path d="M817.94,2480.25a18.65,18.65,0,0,1-3.16,4.16c.52,1.46,1.11,2.34,1.68,2.34.39,0,.62-.91.72-3.16a5.66,5.66,0,0,0,1.86,1.3c-.36,3.32-1.06,4.16-2.79,4.16-1.39,0-2.45-1.14-3.27-3a18.77,18.77,0,0,1-3.52,2.32,9.77,9.77,0,0,0-1.5-1.82,19.49,19.49,0,0,0,4.24-2.68,35.2,35.2,0,0,1-1-5.09h-3.86v2.16l2.93-.53.17,2.06-3.1.62v3.25c0,1.23-.26,1.84-1,2.2a8.15,8.15,0,0,1-3.42.44,9.41,9.41,0,0,0-.8-2.28c1.07.06,2.17,0,2.51,0s.46-.09.46-.4v-2.75c-1.22.24-2.4.49-3.4.68l-.56-2.28c1.09-.17,2.45-.38,4-.65v-2.54h-3.6v-2.15h3.6v-2.16c-1,.17-2.08.3-3,.42a8.79,8.79,0,0,0-.65-1.91,47.84,47.84,0,0,0,7.54-1.59l1.52,1.92c-1,.28-2,.53-3.1.76v2.56H811c-.15-1.71-.21-3.47-.23-5.2h2.38a46.75,46.75,0,0,0,.19,5.2h5.17v2.15h-4.94c.15,1.14.34,2.24.55,3.21a16,16,0,0,0,1.8-2.58Zm-1.39-4.18a14.88,14.88,0,0,0-2.7-3.13l1.71-1.16a16.21,16.21,0,0,1,2.81,3Z"/><path d="M807.92,2510.29c1.46-.55,2.28-1.5,2.28-2.6H810a1.64,1.64,0,0,1-1.75-1.66,1.68,1.68,0,0,1,1.8-1.65c1.29,0,2,1,2,2.75a4.79,4.79,0,0,1-3.59,4.68Z"/><path d="M817.94,2532.58a18.88,18.88,0,0,1-3.16,4.16c.52,1.46,1.11,2.33,1.68,2.33.39,0,.62-.91.72-3.15a5.78,5.78,0,0,0,1.86,1.29c-.36,3.33-1.06,4.16-2.79,4.16-1.39,0-2.45-1.14-3.27-3a19.81,19.81,0,0,1-3.52,2.32,10.15,10.15,0,0,0-1.5-1.83,19.07,19.07,0,0,0,4.24-2.67,35.35,35.35,0,0,1-1-5.1h-3.86v2.17l2.93-.53.17,2.05-3.1.63v3.25c0,1.23-.26,1.84-1,2.2a8.32,8.32,0,0,1-3.42.44,9.26,9.26,0,0,0-.8-2.28c1.07.05,2.17,0,2.51,0s.46-.1.46-.4v-2.76c-1.22.25-2.4.5-3.4.69l-.56-2.28c1.09-.17,2.45-.38,4-.65v-2.55h-3.6V2529h3.6v-2.17c-1,.17-2.08.31-3,.42a8.71,8.71,0,0,0-.65-1.9,47.77,47.77,0,0,0,7.54-1.6l1.52,1.92c-1,.29-2,.54-3.1.76V2529H811c-.15-1.71-.21-3.48-.23-5.21h2.38a46.85,46.85,0,0,0,.19,5.21h5.17v2.14h-4.94c.15,1.14.34,2.25.55,3.21a15.52,15.52,0,0,0,1.8-2.58Zm-1.39-4.18a14.67,14.67,0,0,0-2.7-3.14l1.71-1.16a16.52,16.52,0,0,1,2.81,3Z"/><path d="M809.5,2559.65c0,.93-.17,1.41-.8,1.71a6.64,6.64,0,0,1-2.62.32,6.23,6.23,0,0,0-.68-1.76c.68,0,1.42,0,1.65,0s.32-.07.32-.32v-1.94c-1,.69-1.89,1.33-2.75,1.88l-.47-1.33a8.43,8.43,0,0,1-1.35,3.58,9,9,0,0,0-1.58-1.52c1-1.49,1.08-3.58,1.08-5.23v-4.27h7.2Zm-1.06-14.25a41,41,0,0,1,2.26,4.37l-2,.8c-.11-.34-.28-.74-.47-1.2-4.81.48-5.59.59-6.14.82-.11-.44-.47-1.46-.7-2a2.24,2.24,0,0,0,1-.76,16.36,16.36,0,0,0,2.25-3.38l2.28.64a20.75,20.75,0,0,1-2.34,3.15l2.77-.2c-.28-.56-.55-1.09-.79-1.54Zm-4.05,9.69a23.78,23.78,0,0,1-.13,2.43c.85-.38,2-.95,3.11-1.56v-.62l-.91.89c-.47-.49-1.35-1.23-2.07-1.82Zm0-2.39v1.35l1-.82c.65.45,1.46,1.12,2,1.61v-2.14Zm9.39-.33c-2.28,0-2.89-.83-2.89-2.94V2544h2.24v2.25h4.67v1.93h-4.67v1.26c0,.7.11,1,.72,1h2.78a9.2,9.2,0,0,0,1.74-.16c0,.59.14,1.41.21,1.92a7.27,7.27,0,0,1-1.92.17Zm2.39,7.26c.65,0,.78-.32.87-2.07a6.45,6.45,0,0,0,2,.82c-.23,2.49-.82,3.23-2.62,3.23h-2.7c-2.24,0-2.79-.67-2.79-2.74v-6h2.24v1.9h4.81v2h-4.81v2.07c0,.67.13.76.87.76Z"/><path d="M806.62,2565.09a41.18,41.18,0,0,1-1.52,3.83v13.23H803v-9.5a19.17,19.17,0,0,1-1.15,1.56,15.11,15.11,0,0,0-1.11-2.46,20.67,20.67,0,0,0,3.77-7.29Zm11.36,4.73a23.9,23.9,0,0,1-1.71,7.5,8.05,8.05,0,0,0,2.69,3,9.44,9.44,0,0,0-1.35,1.79,9.59,9.59,0,0,1-2.47-2.79,10.24,10.24,0,0,1-2.85,2.79,11.59,11.59,0,0,0-1.34-1.52c.24-.15.51-.32.76-.51h-3.63v1.35h-1.94V2573H808v-3.1h-2.18v-2H808v-3.19h2.13v3.19h2v2h-2v3.1h1.44c-.17-.25-.34-.48-.45-.63,1.31-1.88,2-4.86,2.43-7.92l2,.34c-.17,1-.36,2.13-.59,3.14h3.88v1.9Zm-8,5.09h-1.95v3.25H810Zm2,4.92a9.09,9.09,0,0,0,2.17-2.57,20.75,20.75,0,0,1-1.12-4,7.73,7.73,0,0,1-.67,1,5.76,5.76,0,0,0-.38-.66Zm2.47-10-.17.55a26.12,26.12,0,0,0,.89,4.41,26.38,26.38,0,0,0,.88-5Z"/><path d="M807.75,2598.81l3.63-.61.12,1.94c-3.33.65-6.92,1.29-9.5,1.75l-.5-2.09c1.14-.15,2.57-.38,4.11-.63v-2.58h-3.46v-2h3.46v-1.69h2.14v1.69h3.42v2h-3.42Zm-6-12.84h9.87v1.94h-2.68a21.25,21.25,0,0,1,2.65,4l-1.71,1.12c-.12-.28-.27-.61-.44-1-5.24.44-6.06.53-6.61.76-.14-.45-.5-1.46-.72-2.05a1.92,1.92,0,0,0,.87-.8,15.28,15.28,0,0,0,1.18-2.12H801.7Zm6.64,4.42c-.36-.55-.74-1.08-1.1-1.55l1.6-.93h-2.28a23.88,23.88,0,0,1-1.65,2.67Zm6.06,7.7h-2.09v-11.48h2.09Zm3.75-13v14.7c0,1.2-.23,1.77-.95,2.13a8.36,8.36,0,0,1-3.29.42,9.23,9.23,0,0,0-.76-2.17c1,0,2,0,2.36,0s.43-.12.43-.44v-14.68Z"/><path d="M807.81,2606.09a26.51,26.51,0,0,1-1.88,3.87v13h-2.24v-9.73a19.15,19.15,0,0,1-1.61,1.8,16.72,16.72,0,0,0-1.32-2.39,19.59,19.59,0,0,0,4.81-7.29Zm6.25,9.38v4.73h4.48v2.17H807.37v-2.17h4.39v-4.73h-4.9v-2.18h4.9v-4.14h-3.87V2607h10.35v2.13h-4.18v4.14H819v2.18Z"/><path d="M807.36,2626.36a31.28,31.28,0,0,1-1.56,3.48v13.54h-2.26v-9.93a20.65,20.65,0,0,1-1.33,1.59,14.68,14.68,0,0,0-1.22-2.35,19.54,19.54,0,0,0,4.24-7Zm11.53,3.14h-1.14v11.26c0,1.31-.29,1.92-1.1,2.28a11.07,11.07,0,0,1-3.86.42,8.75,8.75,0,0,0-.76-2.32c1.23.06,2.56.06,2.94.06s.5-.12.5-.48V2629.5h-8.29v-2.17h11.71Zm-9.37,8.92v1.24h-2.11v-8.11h6.33v6.87Zm0-4.92v3h2.11v-3Z"/><path d="M818.39,2649.05s0,.76,0,1c-.24,8.49-.45,11.51-1.23,12.52a2.56,2.56,0,0,1-1.82,1,22.07,22.07,0,0,1-3,0,5.37,5.37,0,0,0-.74-2.2c1.22.11,2.34.11,2.83.11a1,1,0,0,0,.84-.32c.55-.61.8-3.46,1-10.16H812.2a16.17,16.17,0,0,1-1.67,3,15.64,15.64,0,0,0-1.46-1.06v8.87H804v1.38h-2v-14.11h2.15a20.58,20.58,0,0,0,.55-3.06l2.47.34c-.32.95-.67,1.9-1,2.72h3v3.08a19.75,19.75,0,0,0,2.56-6.12l2.15.49a23.24,23.24,0,0,1-.74,2.42ZM807,2651.16h-3v3.07h3Zm0,8.75v-3.72h-3v3.72Zm6.31-1a40.77,40.77,0,0,0-2.64-4.39l1.77-1a46.13,46.13,0,0,1,2.79,4.22Z"/><path d="M818.77,2679h-2v3.3h-2.3v-.77h-3.42v.58c0,1.13-.27,1.58-1,1.9a9.79,9.79,0,0,1-3.36.33,7.13,7.13,0,0,0-.74-1.79c.91,0,2,0,2.34,0s.47-.13.47-.48v-.58H803v-1.64h5.77V2679h-7.52v-1.73h7.52v-.82h-5.62v-1.52h5.62v-.83h-5.15v-3.76h5.15v-.78H801.7v-1.79h7.08v-1.23h2.3v1.23h7.26v1.79h-7.26v.78h5.39v3.76h-5.39v.83h5.72v2.34h2Zm-10-6.33v-.91h-3v.91Zm2.3-.91v.91h3.08v-.91Zm0,5.51h3.42v-.82h-3.42Zm3.42,1.73h-3.42v.89h3.42Z"/><path d="M807.92,2705.59c1.46-.55,2.28-1.5,2.28-2.6H810a1.64,1.64,0,0,1-1.75-1.66,1.68,1.68,0,0,1,1.8-1.65c1.29,0,2,1,2,2.76a4.79,4.79,0,0,1-3.59,4.67Z"/><path d="M812.45,2730.31a17.89,17.89,0,0,0,6.48,3.91,9.47,9.47,0,0,0-1.62,2,19.25,19.25,0,0,1-6.15-4.35v4.76H808.8V2732a19.32,19.32,0,0,1-6.12,4.16,10.45,10.45,0,0,0-1.56-1.9,18.33,18.33,0,0,0,6.48-4h-4.46v-6.08h5.66v-1.5h-6.9v-2.09h6.9v-1.75h2.36v1.75h7v2.09h-7v1.5H817v6.08Zm-7.11-2h3.46v-2.12h-3.46Zm5.82-2.12v2.12h3.53v-2.12Z"/><path d="M803.39,2752a22.58,22.58,0,0,1-.82,4.64,8.82,8.82,0,0,0-1.64-.57,16.45,16.45,0,0,0,.77-4.33Zm3.4-1.31c0-.17-.06-.34-.1-.53-3.84.61-4.48.8-4.9,1a13.1,13.1,0,0,0-.65-1.82c.48-.12.9-.57,1.47-1.28a16.89,16.89,0,0,0,1.25-1.71,7.48,7.48,0,0,0-2.22.42c-.1-.38-.42-1.29-.63-1.8a2.24,2.24,0,0,0,1-1,21.15,21.15,0,0,0,2.24-4.62l1.86.74a27.66,27.66,0,0,1-2.57,4.64l1.39-.09a27.2,27.2,0,0,0,1.39-2.68l1.69,1.06a32.76,32.76,0,0,1-4,5.91l2.18-.29a13.83,13.83,0,0,0-.6-1.57l1.46-.55a14.85,14.85,0,0,1,1.27,3.57Zm-1.43.92a30.15,30.15,0,0,1,.51,3.95l-1.63.41a35.78,35.78,0,0,0-.42-4Zm2-.56a29.12,29.12,0,0,1,1.1,3.58l-1.52.57a26.76,26.76,0,0,0-1-3.67Zm11.55,1.54H816.7V2755c0,.91-.15,1.37-.8,1.63a6.7,6.7,0,0,1-2.64.29,7.1,7.1,0,0,0-.6-1.73c.68,0,1.44,0,1.67,0s.3-.08.3-.27v-2.32h-3.28a9.62,9.62,0,0,1,1.63,2l-1.65,1.14a10.58,10.58,0,0,0-1.85-2.45l1.12-.73h-2.43v-1.76h6.46v-.82h.93a7.68,7.68,0,0,0-.42-.86c.35,0,.67,0,.82,0s.19-.05.19-.21v-.3h-1.71v1.22h-2.05v-1.22h-1.63v1.41h-1.94v-6.61h3.57v-.76h-4.06v-1.68h4.06v-1.76h2.05v1.76h2a11.92,11.92,0,0,0-1.45-.83l1.11-1.12a8.78,8.78,0,0,1,2.14,1.21l-.7.74h1.25v1.68h-4.31v.76h3.67v5.56c0,.74-.13,1-.61,1.14a2.85,2.85,0,0,1-.8.15v.52h2.21Zm-8.13-7.61v.62h1.63V2745Zm1.63,2.46v-.62h-1.63v.62Zm2.05-2.46v.62h1.71V2745Zm1.71,2.46v-.62h-1.71v.62Z"/><path d="M804.53,2763.71a16.76,16.76,0,0,1-2.23,2.11A12.72,12.72,0,0,0,801,2764a12.4,12.4,0,0,0,3.93-4.5l2,.64a14,14,0,0,1-.89,1.58h12v2Zm-3.16,12.94a18,18,0,0,0,2.13-3.7l2.18.56a24.2,24.2,0,0,1-2.1,4Zm14.84-8.51v2.41h2.28v2h-17v-2h2.61v-2.41h-2v-2h2v-1.7h2v1.7h1.29v-1.7h1.88v1.7h1.48v-1.7h1.88v1.7h1.43v-1.7h2.09v1.7h1.86v2Zm-10.05,2.41h1.29v-2.41h-1.29Zm2.66,2.93a21.58,21.58,0,0,1,.47,3.55l-2.22.32a21.9,21.9,0,0,0-.36-3.64Zm.51-5.34v2.41h1.48v-2.41Zm3.36,5.19a18.92,18.92,0,0,1,1.13,3.51l-2.27.44a19.13,19.13,0,0,0-1-3.61Zm1.43-5.19h-1.43v2.41h1.43Zm2.37,4.65a26.87,26.87,0,0,1,2.23,3.75l-2.23,1a27.26,27.26,0,0,0-2.07-3.87Z"/><path d="M804.75,2789.15a17.13,17.13,0,0,0-3.55-2.05l1.2-1.69a17.42,17.42,0,0,1,3.61,1.86Zm-2.88,7a52.85,52.85,0,0,0,3.59-6l1.67,1.52c-1,2-2.22,4.14-3.35,6Zm4-12a17.61,17.61,0,0,0-3.54-2.11l1.24-1.67a18.18,18.18,0,0,1,3.61,1.92Zm10.82,13.77a8.84,8.84,0,0,0-.66-1.67c-6.33.76-7.3.91-7.92,1.23-.14-.49-.52-1.61-.8-2.26.44-.13.8-.53,1.23-1.21a27.49,27.49,0,0,0,2-4.07H807v-2.13h4.5v-2.68h-3.74V2783h3.74v-2.83h2.3V2783h3.87v2.14h-3.87v2.68h4.58v2.13h-5.17a35.72,35.72,0,0,1-2.64,4.88l4.46-.45a20.68,20.68,0,0,0-1.27-2l1.84-.91a21.79,21.79,0,0,1,3.14,5.39Z"/><path d="M810.13,2803.92s0,.76,0,1c-.28,8-.57,11-1.23,11.89a2,2,0,0,1-1.47,1,11.56,11.56,0,0,1-2.16.1,6.17,6.17,0,0,0-.65-2.34c.67.05,1.28.07,1.62.07a.7.7,0,0,0,.66-.36c.42-.55.71-2.9.93-9.19h-1.86c-.23,4.79-.93,9.15-3.19,12.18a5.91,5.91,0,0,0-1.79-1.62c2-2.58,2.59-6.38,2.74-10.56h-2.22v-2.21h2.28c0-1.08,0-2.2,0-3.3H806c0,1.1,0,2.22,0,3.3Zm8-1.18v15h-2.36v-1.17h-2.55v1.31H811v-15.18Zm-2.36,11.68v-9.52h-2.55v9.52Z"/><path d="M817.63,2825.56a38.38,38.38,0,0,1-10.14,9.8,9.24,9.24,0,0,0,4.77.85,55.26,55.26,0,0,0,6.65-.45,11.51,11.51,0,0,0-.65,2.41c-1.35.1-4.22.21-6.08.21-2.34,0-3.85-.25-5.15-1.05-.81-.47-1.44-1.12-1.86-1.12-.59,0-1.44,1.28-2.22,2.49l-1.64-2.12c1.37-1.47,2.87-2.47,3.92-2.47h.11a33.29,33.29,0,0,0,8.4-7.38H802.28v-2.22h7.41c-.45-.81-1.16-1.86-1.71-2.66l2-1.08a31.28,31.28,0,0,1,2.12,3.08l-1.16.66h4.47l.44-.11Z"/><path d="M809,2848.53s0,.62,0,.89c-.11,5.7-.24,7.85-.74,8.51a1.75,1.75,0,0,1-1.23.82,12.16,12.16,0,0,1-1.92.07,5.55,5.55,0,0,0-.57-2c.55,0,1,.06,1.31.06a.59.59,0,0,0,.53-.29c.25-.38.38-1.88.46-6h-1.71c-.25,3.55-.84,6.48-2.47,8.55a6.58,6.58,0,0,0-1.64-1.69c1.87-2.44,2-6.18,2-11H801.5v-2.09h3.35a12.3,12.3,0,0,0-1.22-2.28l2-.76a11.9,11.9,0,0,1,1.44,2.54l-1.22.5h3.58v2.09h-4.26c0,.72,0,1.38,0,2.07Zm6.38-6.61c-.13.45-.28.89-.45,1.33a12,12,0,0,0,4.29,4.67,8.88,8.88,0,0,0-1.61,1.79,14,14,0,0,1-3.67-4.3,12.69,12.69,0,0,1-3.84,4.43,7.58,7.58,0,0,0-1.55-1.79,11.52,11.52,0,0,0,4.74-6.72Zm-3.53,11.79a36.5,36.5,0,0,1,5.47,3.37L815.7,2859a33,33,0,0,0-5.32-3.63Zm3.08-.78a24.87,24.87,0,0,0-3.23-2.75l1.44-1.46a23.19,23.19,0,0,1,3.35,2.6Z"/><path d="M817.94,2870.85a18.65,18.65,0,0,1-3.16,4.16c.52,1.47,1.11,2.34,1.68,2.34.39,0,.62-.91.72-3.15a5.78,5.78,0,0,0,1.86,1.29c-.36,3.32-1.06,4.16-2.79,4.16-1.39,0-2.45-1.14-3.27-3a19.22,19.22,0,0,1-3.52,2.31,9.77,9.77,0,0,0-1.5-1.82,19.12,19.12,0,0,0,4.24-2.68,35.2,35.2,0,0,1-1-5.09h-3.86v2.17l2.93-.54.17,2.06-3.1.62v3.25c0,1.24-.26,1.84-1,2.21a8.18,8.18,0,0,1-3.42.43,9.56,9.56,0,0,0-.8-2.28c1.07.06,2.17,0,2.51,0s.46-.09.46-.4v-2.75c-1.22.25-2.4.49-3.4.68l-.56-2.28c1.09-.17,2.45-.38,4-.64v-2.55h-3.6v-2.15h3.6v-2.16c-1,.17-2.08.3-3,.42a8.71,8.71,0,0,0-.65-1.9A47.77,47.77,0,0,0,809,2862l1.52,1.92c-1,.28-2,.53-3.1.76v2.56H811c-.15-1.71-.21-3.47-.23-5.2h2.38a46.66,46.66,0,0,0,.19,5.2h5.17v2.15h-4.94c.15,1.14.34,2.24.55,3.21a16,16,0,0,0,1.8-2.58Zm-1.39-4.18a14.88,14.88,0,0,0-2.7-3.13l1.71-1.16a16.21,16.21,0,0,1,2.81,3Z"/><path d="M818.66,2889.11a21.11,21.11,0,0,1-3.17,3.78v4.33c0,1.31-.25,2-1.11,2.36a10.06,10.06,0,0,1-3.85.42,9.54,9.54,0,0,0-.8-2.38c1.16.06,2.53,0,2.89,0s.53-.13.53-.48v-2.31a33.23,33.23,0,0,1-10.37,5,18.61,18.61,0,0,0-1.52-2.07,32.39,32.39,0,0,0,8.53-3.42c-2.83.23-5.57.42-7.64.59l-.23-2c.72,0,1.5-.1,2.38-.13v-8.74h3.93a17.26,17.26,0,0,0,.61-1.85l2.77.29c-.26.55-.57,1.06-.87,1.56h4.75v5.35c.34-.45.66-.91,1-1.38Zm-12.1-3.1v1.11h6.59V2886Zm6.59,2.72h-6.59v1.12h6.59Zm-6.59,3.93,6.23-.43.36-.31v-.43h-6.59Z"/><path d="M807.92,2921.31c1.46-.55,2.28-1.5,2.28-2.6H810a1.64,1.64,0,0,1-1.75-1.65,1.67,1.67,0,0,1,1.8-1.65c1.29,0,2,1,2,2.75a4.79,4.79,0,0,1-3.59,4.67Z"/><path d="M817.94,2943.6a18.65,18.65,0,0,1-3.16,4.16c.52,1.47,1.11,2.34,1.68,2.34.39,0,.62-.91.72-3.15a5.78,5.78,0,0,0,1.86,1.29c-.36,3.32-1.06,4.16-2.79,4.16-1.39,0-2.45-1.14-3.27-3a19.22,19.22,0,0,1-3.52,2.31,9.77,9.77,0,0,0-1.5-1.82,19.12,19.12,0,0,0,4.24-2.68,35.2,35.2,0,0,1-1-5.09h-3.86v2.17l2.93-.54.17,2.06-3.1.62v3.25c0,1.24-.26,1.84-1,2.21a8.18,8.18,0,0,1-3.42.43,9.56,9.56,0,0,0-.8-2.28c1.07.06,2.17,0,2.51,0s.46-.09.46-.4v-2.75c-1.22.25-2.4.49-3.4.68l-.56-2.28c1.09-.17,2.45-.38,4-.64v-2.55h-3.6V2940h3.6v-2.16c-1,.17-2.08.3-3,.42a8.71,8.71,0,0,0-.65-1.9,47.77,47.77,0,0,0,7.54-1.6l1.52,1.92c-1,.28-2,.53-3.1.76V2940H811c-.15-1.71-.21-3.47-.23-5.2h2.38a46.66,46.66,0,0,0,.19,5.2h5.17v2.15h-4.94c.15,1.14.34,2.24.55,3.21a16,16,0,0,0,1.8-2.58Zm-1.39-4.18a14.88,14.88,0,0,0-2.7-3.13l1.71-1.16a16.21,16.21,0,0,1,2.81,3Z"/><path d="M812.64,2961.16a48.76,48.76,0,0,1,6.32,5.15L817,2968a43.16,43.16,0,0,0-5.81-5.15v9.84h-2.47v-9.27a22.79,22.79,0,0,1-6,4.67,12.9,12.9,0,0,0-1.56-2.05,20,20,0,0,0,8.19-7.47h-7.58v-2.31h16.47v2.31h-5.91a18.18,18.18,0,0,1-1.1,1.75v2Z"/><path d="M811.61,2976l-.28.36a18.22,18.22,0,0,0,7.88,3.42,7.85,7.85,0,0,0-1.42,1.73l-1.18-.34v4.9H803.4v-4.79c-.39.13-.79.27-1.17.36a12.34,12.34,0,0,0-1.22-1.75c3.5-.81,6.88-2.39,8.61-4.59Zm4.31,4.92a20.55,20.55,0,0,1-2.58-1.16v.49h-6.67v-.38a24.07,24.07,0,0,1-2.3,1.05Zm-11.45,5.77h11.17v6.43h-2.32v-.46h-6.63v.51h-2.22Zm2.15-2a7.9,7.9,0,0,0-.65-2l1.46-.41h-2.14v2.39Zm.07,3.48v.76h6.63v-.76Zm6.63,3v-.76h-6.63v.76Zm-4.31-8.87h-1.48a8.85,8.85,0,0,1,.76,2l-1.22.38H809Zm2.73-3.52a19.49,19.49,0,0,1-1.59-1.23c-.5.41-1,.83-1.62,1.23Zm-.91,3.52v2.39h1.77l-1.14-.32a14.53,14.53,0,0,0,.74-2.07Zm3.76,0h-2l1.48.36c-.38.76-.74,1.5-1,2h1.53Z"/><path d="M809.62,3005.73a34.36,34.36,0,0,1-3.54,4.66l7.7-.46c-.67-1-1.37-1.92-2-2.73l2.09-.92a31.38,31.38,0,0,1,4.22,6.12l-2.2,1.14c-.21-.47-.48-1-.8-1.58-9.57.76-10.9.82-11.85,1.18-.14-.45-.52-1.59-.78-2.22a3.17,3.17,0,0,0,1.46-1.14,26.06,26.06,0,0,0,2.87-4.05h-5.34v-2.28h7.39v-2.69h-5.95v-2.28h5.95v-2.63h2.39v2.63h6.12v2.28h-6.12v2.69h7.49v2.28Z"/><path d="M810.15,3017.25s0,.85,0,1.14c0,9.82,0,13.22-.59,14.17a2,2,0,0,1-1.42,1.1,9.91,9.91,0,0,1-2.28.12,6.41,6.41,0,0,0-.69-2.42c.71.06,1.33.06,1.69.06a.61.61,0,0,0,.59-.4,9.61,9.61,0,0,0,.34-3.23h-2.33a14.1,14.1,0,0,1-2.61,6.25,11.11,11.11,0,0,0-1.84-1.67,10,10,0,0,0,2.17-4.58h-1.77v-2h2.13c.09-.72.15-1.45.21-2.23h-2.11v-2h2.2c0-.74,0-1.5,0-2.28h-2.47v-2.05Zm-2.34,8.55c0-.67,0-1.39,0-2.23H806c-.06.78-.13,1.51-.21,2.23Zm-1.71-6.5q0,1.17-.06,2.28h1.81l0-2.28Zm12.81-1.16c-.75,1.79-1.64,3.91-2.47,5.59a5.77,5.77,0,0,1,2.14,4.38,3.09,3.09,0,0,1-1.12,2.78,3.42,3.42,0,0,1-1.38.47,13.17,13.17,0,0,1-1.81,0,5.41,5.41,0,0,0-.63-2.13,8.62,8.62,0,0,0,1.39,0,2.21,2.21,0,0,0,.87-.17c.4-.21.54-.63.54-1.25,0-1.07-.52-2.4-2.23-3.88.63-1.37,1.31-3.25,1.83-4.69h-2.57V3034h-2.14v-16.83H817l.32-.07Z"/><path d="M806.8,3048.48c-.22-.55-.62-1.4-1-2.22v8.19h-2v-7.11a16.14,16.14,0,0,1-1.73,3.74,11.19,11.19,0,0,0-1-2,19,19,0,0,0,2.55-6.36h-2.11v-2.09h2.28v-3.92h2v3.92h1.9v2.09h-1.9v.83c.51.7,1.88,2.79,2.2,3.31Zm5.17.78a7.78,7.78,0,0,1-3.93,4.9,9.27,9.27,0,0,0-1.16-1.44,6.11,6.11,0,0,0,2.64-2.38h-2.07v-1.52h3l.33-.05Zm6.78-.91c-.93.68-1.93,1.39-2.79,1.92a8.68,8.68,0,0,0,3.16,2.05,8.44,8.44,0,0,0-1.33,1.65,9.34,9.34,0,0,1-3.5-3v1.48c0,1-.17,1.45-.82,1.75a6.15,6.15,0,0,1-2.62.33,6.22,6.22,0,0,0-.57-1.85c.67,0,1.39,0,1.6,0s.3,0,.3-.26v-4.2h-3.11v-1.54h4.55c-.87-.36-1.84-.72-2.67-1l.55-.61h-3.88v-1.65h4.52v-.74h-3.3v-1.54h3.3v-.7h-4v-1.6h2a11.83,11.83,0,0,0-.86-1.5l1.66-.61a11.06,11.06,0,0,1,1.15,1.9l-.49.21h3.06l-.38-.13a18.27,18.27,0,0,0,1-2l2,.57-1.14,1.54h2.34v1.6h-4.18v.7H818v1.54h-3.72v.74h4.5v1.65h-4.73a17.39,17.39,0,0,1,2.38,1l-1.2,1.35c-.27-.15-.59-.33-1-.5v.95a7.68,7.68,0,0,0,.68,1.18,19.79,19.79,0,0,0,2.13-2Z"/><path d="M818.64,3067.62h-7.37v4.57c0,1.28-.29,1.9-1.18,2.26a11.14,11.14,0,0,1-4,.4,8.94,8.94,0,0,0-1-2.33c1.33.07,2.81.07,3.21.05s.55-.11.55-.43v-4.52h-7.52v-2.27h7.52v-2.64a23.26,23.26,0,0,0,3.67-2.24h-9.31v-2.24h11.84l.53-.11,1.71,1.31a28.82,28.82,0,0,1-6.08,4.48v1.44h7.37Z"/><path d="M807.92,3096.19c1.46-.55,2.28-1.5,2.28-2.6H810a1.64,1.64,0,0,1-1.75-1.66,1.68,1.68,0,0,1,1.8-1.65c1.29,0,2,1,2,2.76a4.79,4.79,0,0,1-3.59,4.67Z"/><path d="M818.16,3110.1v17.12H816v-.86H804v.86H801.9V3110.1Zm-2.2,14.42v-12.39H804v12.39Zm-5.07-7.16c0,.28-.08.55-.13.81a27.66,27.66,0,0,1,4.5,4.33l-1.58,1.39a30.52,30.52,0,0,0-3.53-3.76,7.34,7.34,0,0,1-4.07,4,6.44,6.44,0,0,0-1.35-1.81,6,6,0,0,0,4-5h-3.8v-2h4c.06-.78.08-1.59.1-2.49h2.2c0,.88-.05,1.7-.11,2.49h4v2Z"/><path d="M818.36,3141c-.33,3.69-.65,5.28-1.24,5.89a2,2,0,0,1-1.42.71,17.53,17.53,0,0,1-2.26,0,5,5,0,0,0-.61-2,14.11,14.11,0,0,0,1.84.1.82.82,0,0,0,.63-.21c.3-.31.55-1.26.78-3.42H804.77a10.18,10.18,0,0,1-1,.64l1.73.55a7.92,7.92,0,0,1-2.22,4.3l-1.77-1.12a6.86,6.86,0,0,0,2.05-3.59c-.45.28-.93.53-1.4.77a14.06,14.06,0,0,0-1.18-2,17.28,17.28,0,0,0,7.28-6.52h-6.1v-2h3.19a15.53,15.53,0,0,0-1.2-2.42l2-.76a12.9,12.9,0,0,1,1.46,2.78l-1,.4h2.76a21.87,21.87,0,0,0,1.31-3.25l2.26.63c-.32.89-.69,1.76-1.08,2.62h3.72c-.19,1.14-.48,2.43-.72,3.47h2.16c-.21,1.14-.45,2.47-.68,3.5h2ZM808,3143.23a13.34,13.34,0,0,1,.51,3.5l-1.95.25a13.61,13.61,0,0,0-.38-3.52Zm.48-4.65a20.54,20.54,0,0,1-1.43,1.54h7.26c.11-.46.23-1,.34-1.54Zm2.33,4.31a14.93,14.93,0,0,1,.91,3.08l-1.8.46a16.24,16.24,0,0,0-.87-3.16Zm0-7.77c-.28.52-.59,1-.91,1.5h2.91c.11-.45.22-1,.32-1.5Zm2.11,10.32a10.85,10.85,0,0,0-1.12-2.57l1.56-.53a10,10,0,0,1,1.23,2.51Z"/><path d="M807.68,3164.4h-3.86v1.67h-2.09v-14.59h5.95Zm-3.86-10.9v3.34h1.75v-3.34Zm1.75,8.89v-3.57h-1.75v3.57Zm8.95-8.06v1.81h3.76v2h-1.39v1.49h1.83v2h-1.83v4.14c0,1.09-.21,1.66-1,2a8.38,8.38,0,0,1-3.17.38,8.57,8.57,0,0,0-.7-2.13c.91,0,2,0,2.24,0s.4-.08.4-.34v-4.09H808v-2h6.65v-1.49h-6.06v-2h3.66v-1.81H808v-2h4.27v-2h2.23v2h4.27v2Zm-3.86,7.47a23.35,23.35,0,0,1,2.28,3l-2,1.16a27.08,27.08,0,0,0-2.19-3.2Z"/><path d="M804.28,3178.33v10.16H802v-17h7.27v6.86Zm0-5.23v1h2.92v-1Zm2.92,3.61v-1.08h-2.92v1.08Zm10.87,9.1c0,1.22-.25,1.88-1,2.24a8.17,8.17,0,0,1-3.47.44,8.6,8.6,0,0,0-.5-1.77h-4.71v1h-2v-8.22h7.31v6.74c.74,0,1.45,0,1.69,0s.46-.11.46-.42v-7.42h-5.17v-6.9h7.45Zm-9.69-4.67v1.14h3.14v-1.14Zm3.14,3.93v-1.18h-3.14v1.18Zm1.25-12v1h3v-1Zm3,3.65v-1.12h-3v1.12Z"/><path d="M813.09,3203.83a12.47,12.47,0,0,0,.23,1.5c-2.58.7-3.65,1-4.18,1.23.7.06,1.5.08,2.32.08a62.53,62.53,0,0,0,7.67-.5,9.14,9.14,0,0,0-.64,2.32c-1.58.1-4.92.23-7.14.23-2.51,0-4.13-.21-5.49-1-.78-.43-1.47-1.06-1.87-1.06s-1.1,1.29-1.57,2.37l-1.5-2.14A7.64,7.64,0,0,1,803,3205a21.58,21.58,0,0,0,1-3.26H801.6c.46-1.14,1-2.65,1.42-4.13h-1.74v-2h4.5c-.4,1.35-.89,2.87-1.35,4.18h.68l.35-.08.95.34a25.46,25.46,0,0,1-.75,3,19,19,0,0,0,4.55-1.34h-2.84v-3.5h9.77v3.5h-.4l1.06.68a18.81,18.81,0,0,1-1.69,1.1c.8.48,1.54.93,2,1.27l-1.11,1.39c-1-.84-3.21-2.18-4.75-3.13l1-1.18,1.37.82c.45-.31.93-.65,1.31-1h-3.1a10.75,10.75,0,0,1-2.28,1.51v1.2Zm-9.8-8.78c-.21-.86-.72-2.22-1-3.25l2-.61c.36,1,.86,2.3,1.12,3.14Zm5.45,9a16.71,16.71,0,0,1-2,.57,8.67,8.67,0,0,0-1.13-1.48A13.43,13.43,0,0,1,805,3205c.32.21.68.48,1.16.76a6.66,6.66,0,0,0,2.45.76,4.1,4.1,0,0,0-.55-1.17,1,1,0,0,0,.68-1.11Zm9.86-6.42H805.87v-1.56H818.6Zm-.87-2.15H806.82v-3.81h10.91Zm-7.85-2.56h-1.16v1.31h1.16Zm-.42,7.54h5.44v-1h-5.44Zm3.35-7.54h-1.22v1.31h1.22Zm2.9,0H814.5v1.31h1.21Z"/><path d="M804.62,3220.53a15.41,15.41,0,0,0-3.51-2.07l1.17-1.7a14.94,14.94,0,0,1,3.59,1.91Zm2.24,2.58c-1,2-2.09,4.16-3.19,6l-1.94-1.48a58.73,58.73,0,0,0,3.44-6Zm-1.18-7.64a14,14,0,0,0-3.47-2.12l1.23-1.68a14.14,14.14,0,0,1,3.57,2Zm12.24,5.46a11.25,11.25,0,0,1-3.1,4.94,16.65,16.65,0,0,0,4.26,1.4,8.66,8.66,0,0,0-1.48,2,14.88,14.88,0,0,1-4.75-2,18.19,18.19,0,0,1-5.55,2,7.45,7.45,0,0,0-1.12-2,16.69,16.69,0,0,0,4.79-1.46,12.54,12.54,0,0,1-2.28-2.93l1.46-.49h-2.57v-2H816l.4-.07Zm-6.76-5.65a11.44,11.44,0,0,1-2.93,5,13.56,13.56,0,0,0-2-1.43c1.94-1.52,2.93-4.14,3.31-7.27l2.33.26c-.07.48-.15.93-.24,1.39h6.19s0,.53-.06.84c-.19,3.06-.43,4.42-.95,5a2.13,2.13,0,0,1-1.52.69c-.55.05-1.46.05-2.46,0a4.8,4.8,0,0,0-.67-2.09,19.6,19.6,0,0,0,2.09.12.93.93,0,0,0,.66-.19c.23-.23.4-.91.52-2.36Zm-.35,7.13a9.65,9.65,0,0,0,2,2.22,8.25,8.25,0,0,0,1.95-2.22Z"/><path d="M808.25,3236.43a13.2,13.2,0,0,1-.76,1.5h8.83v9.39c0,1.12-.21,1.72-1,2.07a8.36,8.36,0,0,1-3.36.38,9.39,9.39,0,0,0-.68-2.19c1,.06,2.07.06,2.39.06s.44-.11.44-.38v-1.14H807a6.73,6.73,0,0,1-2.11,3.78,7.93,7.93,0,0,0-1.64-1.73c1.64-1.42,1.77-3.46,1.77-5.22v-1.54a15.09,15.09,0,0,1-2.36,2.07,13,13,0,0,0-1.48-1.75,14.33,14.33,0,0,0,4.56-5.3H801.6v-2.13h5.09c.3-.78.55-1.54.76-2.3l2.34.54c-.19.58-.4,1.17-.61,1.76h9.27v2.13Zm5.87,7.81V3243H807.3c0,.4,0,.8,0,1.24Zm0-4.31H807.3v1.19h6.82Z"/><path d="M807.75,3266.41l3.63-.61.12,1.94c-3.33.65-6.92,1.29-9.5,1.75l-.5-2.09c1.14-.15,2.57-.38,4.11-.63v-2.58h-3.46v-2h3.46v-1.69h2.14v1.69h3.42v2h-3.42Zm-6-12.84h9.87v1.94h-2.68a21.25,21.25,0,0,1,2.65,4l-1.71,1.12c-.12-.28-.27-.6-.44-1-5.24.44-6.06.54-6.61.76-.14-.45-.5-1.46-.72-2.05a1.86,1.86,0,0,0,.87-.8,14.68,14.68,0,0,0,1.18-2.12H801.7Zm6.64,4.43c-.36-.56-.74-1.09-1.1-1.56l1.6-.93h-2.28a25,25,0,0,1-1.65,2.68Zm6.06,7.69h-2.09v-11.48h2.09Zm3.75-13v14.7c0,1.2-.23,1.77-.95,2.13a8.36,8.36,0,0,1-3.29.42,9.23,9.23,0,0,0-.76-2.17c1,0,2,0,2.36,0s.43-.11.43-.44v-14.68Z"/><path d="M807.92,3291.49c1.46-.55,2.28-1.5,2.28-2.6H810a1.64,1.64,0,0,1-1.75-1.65,1.68,1.68,0,0,1,1.8-1.66c1.29,0,2,1,2,2.76a4.79,4.79,0,0,1-3.59,4.67Z"/><path d="M810.15,3305.72s0,.86,0,1.14c0,9.82,0,13.22-.59,14.18a2,2,0,0,1-1.42,1.1,9.44,9.44,0,0,1-2.28.11,6.36,6.36,0,0,0-.69-2.41c.71.06,1.33.06,1.69.06a.63.63,0,0,0,.59-.4,9.71,9.71,0,0,0,.34-3.23h-2.33a14.2,14.2,0,0,1-2.61,6.25,11.11,11.11,0,0,0-1.84-1.67,10,10,0,0,0,2.17-4.58h-1.77v-2h2.13c.09-.72.15-1.44.21-2.22h-2.11v-2h2.2c0-.74,0-1.5,0-2.27h-2.47v-2.06Zm-2.34,8.55c0-.66,0-1.38,0-2.22H806c-.06.78-.13,1.5-.21,2.22Zm-1.71-6.49c0,.77,0,1.53-.06,2.27h1.81l0-2.27Zm12.81-1.16c-.75,1.78-1.64,3.91-2.47,5.58a5.79,5.79,0,0,1,2.14,4.39,3.07,3.07,0,0,1-1.12,2.77,3.42,3.42,0,0,1-1.38.48,13.17,13.17,0,0,1-1.81,0,5.41,5.41,0,0,0-.63-2.13,8.62,8.62,0,0,0,1.39,0,2.21,2.21,0,0,0,.87-.17c.4-.21.54-.63.54-1.26,0-1.06-.52-2.39-2.23-3.87.63-1.37,1.31-3.25,1.83-4.7h-2.57v14.71h-2.14v-16.83H817l.32-.08Z"/><path d="M806.8,3337c-.22-.55-.62-1.41-1-2.22v8.18h-2v-7.1a16.14,16.14,0,0,1-1.73,3.74,10.86,10.86,0,0,0-1-2,19.09,19.09,0,0,0,2.55-6.37h-2.11v-2.09h2.28v-3.91h2v3.91h1.9v2.09h-1.9v.84c.51.7,1.88,2.79,2.2,3.3Zm5.17.78a7.81,7.81,0,0,1-3.93,4.9,9.27,9.27,0,0,0-1.16-1.44,6.11,6.11,0,0,0,2.64-2.38h-2.07v-1.52h3l.33-.06Zm6.78-.91c-.93.68-1.93,1.38-2.79,1.91a8.57,8.57,0,0,0,3.16,2.06,8.44,8.44,0,0,0-1.33,1.65,9.43,9.43,0,0,1-3.5-3v1.48c0,1-.17,1.44-.82,1.75a6.33,6.33,0,0,1-2.62.32,6.07,6.07,0,0,0-.57-1.84c.67,0,1.39,0,1.6,0s.3-.06.3-.27v-4.2h-3.11v-1.53h4.55a24.79,24.79,0,0,0-2.67-1l.55-.61h-3.88v-1.65h4.52v-.74h-3.3v-1.54h3.3v-.71h-4v-1.59h2a10.59,10.59,0,0,0-.86-1.5l1.66-.61a11.06,11.06,0,0,1,1.15,1.9l-.49.21h3.06l-.38-.14a17.29,17.29,0,0,0,1-2l2,.57-1.14,1.54h2.34v1.59h-4.18v.71H818v1.54h-3.72v.74h4.5v1.65h-4.73a15.22,15.22,0,0,1,2.38,1l-1.2,1.34c-.27-.15-.59-.32-1-.49v.95a7.68,7.68,0,0,0,.68,1.18,19.79,19.79,0,0,0,2.13-2Z"/><path d="M812.64,3351.76a48.76,48.76,0,0,1,6.32,5.15l-1.92,1.73a43.86,43.86,0,0,0-5.81-5.15v9.84h-2.47v-9.27a22.79,22.79,0,0,1-6,4.67,12.9,12.9,0,0,0-1.56-2.05,19.89,19.89,0,0,0,8.19-7.47h-7.58v-2.31h16.47v2.31h-5.91a18.18,18.18,0,0,1-1.1,1.75v2Z"/><path d="M811.88,3379.1a62.51,62.51,0,0,1,6.86,2.79l-1.07,1.94a63.92,63.92,0,0,0-7.6-3.31l.86-1.42h-.69c-.91,2.34-2.94,3.84-8,4.67a6,6,0,0,0-1.12-2c3.81-.51,5.6-1.37,6.49-2.64h-5.66v-1.92h6.4c.06-.3.12-.64.16-1h-7v-2h7.3v-1h-5.62v-1.9h5.62v-1h-6.71v-2h3.61a10.27,10.27,0,0,0-1.06-1.67l2-.8a8.32,8.32,0,0,1,1.43,2.22l-.55.25h4.18a18.83,18.83,0,0,0,1.35-2.47l2.43.62c-.42.67-.86,1.3-1.28,1.85h3.65v2h-6.72v1H817v1.9h-5.81v1h7.56v2h-7.81c0,.35-.1.67-.15,1h7.41v1.92Z"/><path d="M807.92,3405.09c1.46-.55,2.28-1.5,2.28-2.6H810a1.64,1.64,0,0,1-1.75-1.65,1.68,1.68,0,0,1,1.8-1.66c1.29,0,2,1,2,2.76a4.79,4.79,0,0,1-3.59,4.67Z"/><path d="M811.88,3431.43a58.78,58.78,0,0,1,6.86,2.79l-1.07,1.94a62.33,62.33,0,0,0-7.6-3.31l.86-1.42h-.69c-.91,2.33-2.94,3.83-8,4.67a5.79,5.79,0,0,0-1.12-2c3.81-.52,5.6-1.37,6.49-2.64h-5.66v-1.92h6.4c.06-.31.12-.65.16-1h-7v-2h7.3v-1h-5.62v-1.89h5.62v-1h-6.71v-2h3.61a10.27,10.27,0,0,0-1.06-1.67l2-.8a8.52,8.52,0,0,1,1.43,2.23l-.55.24h4.18a18.83,18.83,0,0,0,1.35-2.47l2.43.63c-.42.66-.86,1.29-1.28,1.84h3.65v2h-6.72v1H817v1.89h-5.81v1h7.56v2h-7.81c0,.34-.1.66-.15,1h7.41v1.92Z"/><path d="M811.35,3454.09c.49,0,1,.06,1.52.06,1.06,0,4.71,0,6.06-.06a7.64,7.64,0,0,0-.77,2.17h-5.41c-3.48,0-5.83-.5-7.43-2.7a8.47,8.47,0,0,1-2.66,3A9,9,0,0,0,801,3455a8,8,0,0,0,3.54-5.75l2.26.34c-.13.61-.29,1.18-.44,1.73a4.18,4.18,0,0,0,2.74,2.37v-4.82h-7.41v-2h16.75v2h-7v1.42h5.85v2h-5.85Zm5.24-8.05h-13.2v-6.59h13.2Zm-2.3-5h-8.7v1h8.7Zm0,2.45h-8.7v1h8.7Z"/><path d="M807.05,3467.28c.76.76,2.47,2.75,2.89,3.27l-1.29,1.88c-.36-.65-1-1.6-1.6-2.49v7h-2.28v-6.76a16.84,16.84,0,0,1-2.66,4.54,9.91,9.91,0,0,0-1.14-2.13,17,17,0,0,0,3.25-5.64h-2.83v-2.09h3.38v-2.47c-.93.15-1.84.28-2.71.4a7.74,7.74,0,0,0-.61-1.77,34.13,34.13,0,0,0,7-1.63l1.46,1.76a22.88,22.88,0,0,1-2.83.8v2.91h2.76V3467h-2.76ZM817.9,3461v14.91h-2.34v-1.36h-3v1.5H810.3v-15Zm-2.34,11.38v-9.21h-3v9.21Z"/><path d="M807.68,3493.73h-3.86v1.67h-2.09v-14.59h5.95Zm-3.86-10.91v3.35h1.75v-3.35Zm1.75,8.89v-3.57h-1.75v3.57Zm8.95-8.05v1.8h3.76v2h-1.39v1.48h1.83v2h-1.83V3495c0,1.08-.21,1.65-1,2a8.18,8.18,0,0,1-3.17.38,8.5,8.5,0,0,0-.7-2.12c.91,0,2,0,2.24,0s.4-.07.4-.34v-4.08H808v-2h6.65v-1.48h-6.06v-2h3.66v-1.8H808v-2h4.27v-2h2.23v2h4.27v2Zm-3.86,7.46a24.78,24.78,0,0,1,2.28,3l-2,1.16a27.88,27.88,0,0,0-2.19-3.19Z"/><path d="M804.28,3507.65v10.17H802v-17h7.27v6.85Zm0-5.22v1h2.92v-1Zm2.92,3.61V3505h-2.92V3506Zm10.87,9.1c0,1.22-.25,1.88-1,2.24a8.17,8.17,0,0,1-3.47.44,8.43,8.43,0,0,0-.5-1.77h-4.71v1h-2v-8.23h7.31v6.75c.74,0,1.45,0,1.69,0s.46-.12.46-.42v-7.43h-5.17v-6.89h7.45Zm-9.69-4.67v1.14h3.14v-1.14Zm3.14,3.93v-1.18h-3.14v1.18Zm1.25-12v1h3v-1Zm3,3.65V3505h-3v1.12Z"/><path d="M808.25,3524.91a14.09,14.09,0,0,1-.76,1.5h8.83v9.38c0,1.12-.21,1.73-1,2.07a8.36,8.36,0,0,1-3.36.38,9.46,9.46,0,0,0-.68-2.18c1,.06,2.07.06,2.39.06s.44-.12.44-.38v-1.15H807a6.73,6.73,0,0,1-2.11,3.79,7.71,7.71,0,0,0-1.64-1.73c1.64-1.43,1.77-3.46,1.77-5.23v-1.54a14.59,14.59,0,0,1-2.36,2.07,12.37,12.37,0,0,0-1.48-1.74,14.41,14.41,0,0,0,4.56-5.3H801.6v-2.13h5.09c.3-.78.55-1.54.76-2.3l2.34.53c-.19.59-.4,1.18-.61,1.77h9.27v2.13Zm5.87,7.8v-1.23H807.3c0,.4,0,.8,0,1.23Zm0-4.31H807.3v1.2h6.82Z"/><path d="M809.18,3550.65a19.24,19.24,0,0,1,.8,2.09l-.76.27h.28v1.82c0,1.5-.38,2.91-2.77,3.74a5,5,0,0,0-1-1.25,3,3,0,0,0,1.84-1.12h-2.14v-2.87h1.36v1.61H808V3553h.84a4.91,4.91,0,0,1-.11-.48,15.88,15.88,0,0,0-3.37.55v0a9,9,0,0,0-.38-1.25,2.52,2.52,0,0,0,1-.51,10.28,10.28,0,0,0,.82-.71,4.8,4.8,0,0,0-1.35.23v0a10.77,10.77,0,0,0-.46-1.29,1.1,1.1,0,0,0,.63-.34,5.28,5.28,0,0,0,1.12-1.35h-2.51v10.85H802v-17h7.33v6.17h-1.92l.7.38a10.32,10.32,0,0,1-1.31,1.41l1,0c.25-.29.48-.59.7-.88l1.11.76a18.49,18.49,0,0,1-2.47,2.21l1.18-.12c-.06-.21-.16-.41-.23-.6Zm-5-7.48v.89h3v-.89Zm0,3.13h3v-.87h-3Zm13.89,9.76c0,1.09-.15,1.71-.8,2.09a5.57,5.57,0,0,1-2.79.42,8.66,8.66,0,0,0-.48-1.84h-.91v-.53H812v2.22h-1.57V3553h0c-.09-.31-.26-.86-.39-1.18a2,2,0,0,0,1-.51c.15-.12.44-.37.8-.71a4.42,4.42,0,0,0-1.35.23,7.66,7.66,0,0,0-.45-1.29,1.42,1.42,0,0,0,.62-.34,7.18,7.18,0,0,0,1.12-1.39H810.6v-6.17h7.47Zm-3.53.33a8.31,8.31,0,0,0,1,0c.25,0,.33-.1.33-.34v-8.23h-3.44l.74.4a10,10,0,0,1-1.28,1.39l.94,0c.28-.31.55-.61.77-.91l1.09.77a23.78,23.78,0,0,1-2.45,2.27l1.16-.12c-.1-.21-.18-.42-.27-.61l1.06-.34a18.24,18.24,0,0,1,.9,2.09l-1.12.44a5.35,5.35,0,0,1-.19-.63,29,29,0,0,0-3.1.48H812v1.93h1.14v-1.61h1.45Zm-1.79-13.22v.89h3.14v-.89Zm0,3.13h3.14v-.87h-3.14Z"/><path d="M818.39,3564.28s0,.76,0,1c-.24,8.49-.45,11.51-1.23,12.52a2.56,2.56,0,0,1-1.82,1,22.07,22.07,0,0,1-3,0,5.37,5.37,0,0,0-.74-2.2c1.22.11,2.34.11,2.83.11a1,1,0,0,0,.84-.32c.55-.61.8-3.46,1-10.16H812.2a16.17,16.17,0,0,1-1.67,3,15.55,15.55,0,0,0-1.46-1.07v8.88H804v1.38h-2v-14.11h2.15a20.58,20.58,0,0,0,.55-3.06l2.47.34c-.32.95-.67,1.9-1,2.72h3v3.08a19.75,19.75,0,0,0,2.56-6.12l2.15.49a23.24,23.24,0,0,1-.74,2.42Zm-11.38,2.1h-3v3.08h3Zm0,8.76v-3.72h-3v3.72Zm6.31-1a39.82,39.82,0,0,0-2.64-4.39l1.77-1a46.13,46.13,0,0,1,2.79,4.22Z"/></svg>