<svg id="圖層_1" data-name="圖層 1" xmlns="http://www.w3.org/2000/svg" viewBox="0 0 1620 3214.46"><defs><style>.cls-1{fill:#ffc331;}</style></defs><rect class="cls-1" width="1620" height="3214.46"/><path d="M817.94,75.37a19.15,19.15,0,0,1-3.15,4.16c.51,1.46,1.1,2.34,1.67,2.34.4,0,.62-.92.72-3.16A5.48,5.48,0,0,0,819,80c-.36,3.33-1.06,4.17-2.79,4.17-1.39,0-2.45-1.14-3.27-3a19.56,19.56,0,0,1-3.51,2.32,10.18,10.18,0,0,0-1.5-1.82A19.67,19.67,0,0,0,812.2,79a35.2,35.2,0,0,1-1-5.09h-3.85v2.16l2.92-.53.17,2-3.09.63v3.25c0,1.23-.27,1.84-1,2.2a8.15,8.15,0,0,1-3.42.44,8.63,8.63,0,0,0-.8-2.28c1.07.06,2.17,0,2.51,0s.46-.1.46-.4V78.67c-1.22.25-2.4.5-3.4.69l-.56-2.28c1.09-.17,2.46-.38,4-.65V73.89h-3.59V71.74h3.59V69.58c-1,.17-2.07.3-3,.41a8.89,8.89,0,0,0-.65-1.9A48.74,48.74,0,0,0,809,66.5l1.52,1.92c-1,.28-2,.53-3.09.76v2.56H811c-.15-1.71-.21-3.48-.22-5.2h2.37a46.75,46.75,0,0,0,.19,5.2h5.17v2.15h-4.94c.15,1.14.34,2.24.55,3.21a15.6,15.6,0,0,0,1.8-2.59Zm-1.39-4.18a15.11,15.11,0,0,0-2.69-3.13l1.7-1.16a16.31,16.31,0,0,1,2.82,3Z"/><path d="M811.35,102.08c.49,0,1,.06,1.52.06,1.06,0,4.71,0,6.06-.06a7.33,7.33,0,0,0-.76,2.17h-5.42c-3.47,0-5.83-.5-7.43-2.7a8.54,8.54,0,0,1-2.65,3A9.63,9.63,0,0,0,801,103a8,8,0,0,0,3.53-5.75l2.26.34c-.13.61-.28,1.18-.44,1.73a4.18,4.18,0,0,0,2.74,2.37V96.86h-7.41v-2h16.75v2h-7v1.42h5.85v2h-5.85Zm5.24-8h-13.2V87.44h13.2Zm-2.3-5h-8.7v1h8.7Zm0,2.45h-8.7v1h8.7Z"/><path d="M806.5,107.86a34.77,34.77,0,0,1-1.42,3.82v13.26H803v-9.33c-.34.51-.68,1-1,1.39a15.33,15.33,0,0,0-1.12-2.43,20.77,20.77,0,0,0,3.57-7.32Zm6,1.92c-.82,3.76-2.7,6.31-5.25,7.73a7.26,7.26,0,0,0-1.16-1.48,7.35,7.35,0,0,0,2.66-2.24,11.72,11.72,0,0,0-1.12-1.1,12.75,12.75,0,0,1-1,1.12,5,5,0,0,0-1.4-1.16,12.3,12.3,0,0,0,3-5.23l1.86.29c-.13.36-.26.76-.42,1.16h1.37l.32-.08,1.22.42,0,.06h2.7v-1.79h1.9v1.79h1.18V111h-1.18v2.35h1.63v1.75h-1.63v2h-1.9v-2H812c.3-1.08.63-2.66.89-4.1h-.43ZM811,120.7a20.48,20.48,0,0,1-3.42,4,20.38,20.38,0,0,0-1.67-1.5,13.37,13.37,0,0,0,3-3.17Zm2.56-1V125h-2.18V119.7h-5.09v-1.94h5.09v-1.92h2.18v1.92h5.25v1.94ZM809,110.5l-.34.7c.38.31.8.67,1.12,1a10.25,10.25,0,0,0,.67-1.69Zm6.63,9.42a26.53,26.53,0,0,1,3.25,3.5l-1.69,1.35a24.47,24.47,0,0,0-3.17-3.71Zm-.3-8.94h-.66c-.16.77-.33,1.61-.5,2.35h1.16Z"/><path d="M815.91,143c.64,0,.74-.34.81-2.57a7.47,7.47,0,0,0,2.09.88c-.23,3-.83,3.82-2.69,3.82h-2.44c-2.22,0-2.77-.69-2.77-2.82v-3.47h-2.17c-.39,3.19-1.4,5.37-6.36,6.55a7.28,7.28,0,0,0-1.33-2.11c4.24-.8,5-2.22,5.26-4.44h-2.54v-6h5v-1.52h-7v-2.06h7v-1.61h2.3v1.61h7.22v2.06h-7.22v1.52h5.32v6h-3.17v3.45c0,.63.11.71.8.71Zm-10-6.16h8.11V134.8H806Z"/><path d="M813.93,159.22v4.52c0,.93-.15,1.4-.78,1.71a5.68,5.68,0,0,1-2.45.32,7.26,7.26,0,0,0-.57-1.88c.59,0,1.2,0,1.41,0s.26-.08.26-.27v-4.24a14.72,14.72,0,0,0-3.28.52,18,18,0,0,0-.65-1.9,4.75,4.75,0,0,0,1.9-.93,21.77,21.77,0,0,0,1.88-1.39,10.31,10.31,0,0,0-3.06.48,19.36,19.36,0,0,0-.62-1.87,3.09,3.09,0,0,0,1.21-.6,17.43,17.43,0,0,0,2.68-2.34c-1.18.42-2.41.78-3.57,1.08a8,8,0,0,0-.65-1.5,28.75,28.75,0,0,1-2.12,3.46v1.9l1.91-.76.42,1.82c-.78.34-1.56.69-2.33,1v5.3c0,.86-.16,1.31-.71,1.61a4.62,4.62,0,0,1-2.28.35,5.79,5.79,0,0,0-.62-1.73c.6,0,1.21,0,1.42,0s.27-.08.27-.29V159.2l-2.09.85-.46-2.11c.72-.22,1.6-.55,2.55-.91V154.2a19.77,19.77,0,0,0,1.71-3.12h-3.54v-1.87h4.6l.42-.14,1.35,1c-.14.25-.27.51-.42.8a20.57,20.57,0,0,0,6.44-2.78l1.61,1.47a17,17,0,0,1-3.11,1.55l1.5.75a24.56,24.56,0,0,1-2.55,2.2l2.13-.13c.49-.48,1-1,1.41-1.47l1.61,1.28a35.61,35.61,0,0,1-4.77,3.95l3.65-.31c-.3-.55-.63-1.08-.89-1.55l1.57-.8a42.09,42.09,0,0,1,2.38,4.14l-1.71.93c-.13-.3-.28-.68-.49-1.1Zm-2.58,1.5a18.51,18.51,0,0,1-2.72,4.37,10.8,10.8,0,0,0-1.9-.93,12.4,12.4,0,0,0,2.64-4Zm4.82-.84a29.34,29.34,0,0,1,2.57,4.1l-1.81.94a27.11,27.11,0,0,0-2.49-4.24Z"/><path d="M806.39,177.84A23.06,23.06,0,0,1,805,182.3c.31.19.67.46,1.16.76,1.31.78,3.1.89,5.32.89a65.33,65.33,0,0,0,7.69-.49,8.44,8.44,0,0,0-.66,2.32c-1.56.09-4.94.22-7.14.22-2.53,0-4.13-.2-5.51-1-.78-.44-1.47-1.07-1.87-1.07s-1.1,1.3-1.57,2.38l-1.5-2.15a8.61,8.61,0,0,1,2-1.82,16.49,16.49,0,0,0,1.08-3.29h-2.37c.44-1.12.93-2.64,1.37-4.12h-1.71v-2h4.44c-.4,1.33-.85,2.85-1.31,4.18h.78l.34-.08.86.3v-1h.42v-.5h2v.5h2.4v-.84h-3.69v-6.44h9.74v6.44h-4v.84h4.88v5.33c0,.9-.19,1.28-.8,1.52a7.56,7.56,0,0,1-2.64.25,6.17,6.17,0,0,0-.55-1.52c.63,0,1.37,0,1.58,0s.3-.08.3-.29V178h-2.91v1.5l.88,0c-.1-.3-.21-.59-.31-.84l1.37-.3a16.72,16.72,0,0,1,.91,2.94l-1.44.37c0-.18-.06-.38-.1-.61-1.86.19-3.66.34-5.11.49l-.18-1.77,2.09-.11V178h-2.4v5.22h-2V178h-.42Zm-3.1-5.47c-.21-.86-.72-2.23-1-3.25l2-.61c.36,1,.86,2.3,1.12,3.13Zm6.25-.82h1.68v-1h-1.68Zm1.68,2.41v-1h-1.68v1Zm3.95-3.36h-1.92v1h1.92Zm0,2.39h-1.92v1h1.92Z"/><path d="M807.76,202.88c1.19-.21,2.43-.42,3.62-.61l.12,1.94c-3.33.64-6.92,1.29-9.5,1.75l-.49-2.09c1.14-.16,2.56-.38,4.1-.63v-2.59h-3.46v-2h3.46V197h2.15v1.69h3.42v2h-3.42ZM801.7,190h9.87V192H808.9a22,22,0,0,1,2.64,4.05l-1.71,1.12c-.12-.28-.27-.61-.44-.95-5.24.44-6.06.53-6.61.76-.13-.46-.49-1.46-.72-2a1.87,1.87,0,0,0,.87-.8,15,15,0,0,0,1.18-2.13H801.7Zm6.65,4.42c-.37-.55-.75-1.08-1.11-1.56l1.6-.93h-2.28a23.47,23.47,0,0,1-1.65,2.68Zm6.06,7.7h-2.09V190.68h2.09Zm3.74-13v14.71c0,1.19-.23,1.76-.95,2.13a8.36,8.36,0,0,1-3.29.41,8.73,8.73,0,0,0-.76-2.16c1,0,2,0,2.36,0s.43-.12.43-.44V189.12Z"/><path d="M807.59,221c0-.25-.1-.53-.16-.86-4.29.7-5,.91-5.51,1.14a15.4,15.4,0,0,0-.74-2.11,3.64,3.64,0,0,0,1.66-1.21,16.43,16.43,0,0,0,1.36-1.5,9,9,0,0,0-2.35.43,15.19,15.19,0,0,0-.72-2.07,2.42,2.42,0,0,0,1.21-1,20.9,20.9,0,0,0,2.62-4.54l2.15.92a27.38,27.38,0,0,1-2.94,4.42l1.48-.11a24.16,24.16,0,0,0,1.52-2.43l1.94,1.31a35.9,35.9,0,0,1-4.2,5.26l2.05-.29c-.15-.49-.31-1-.48-1.42l1.81-.48a24.31,24.31,0,0,1,1.21,3.94Zm-3.25,1.25a24,24,0,0,1-1.24,4.58,11.59,11.59,0,0,0-2-.68,16.06,16.06,0,0,0,1.2-4.32Zm2.18-.57a33.48,33.48,0,0,1,.65,3.91l-1.92.56a30.47,30.47,0,0,0-.53-4Zm2.13-.7a20.58,20.58,0,0,1,.93,2.54l-1.77.71a21,21,0,0,0-.87-2.66ZM818.87,224v2.21H808.65V224h4.07V212.93h-3.41v-2.22h9.24v2.22h-3.48V224Z"/><path d="M816.91,242.08h-2.16l1.86.53c-.42.83-.82,1.69-1.22,2.41h3.23v1.9H806.83V245h2.94a9.36,9.36,0,0,0-.76-2.38l1.94-.55a8.37,8.37,0,0,1,.89,2.55l-1.25.38h2.58a16.18,16.18,0,0,0,1.06-2.94H808.5V238c-.33.25-.67.5-1,.71a8.32,8.32,0,0,0-1-1.37l-.24.81-1.13-.45c0,.87,0,1.77-.13,2.64l.15-.12c.42.56,1.92,3,2.26,3.5l-1.57,1.54a24.87,24.87,0,0,0-1.24-2.49,11.85,11.85,0,0,1-2,4.6,6,6,0,0,0-1.35-1.41c1.6-2.26,2-5,2.11-7.75l-1.44.42a52.13,52.13,0,0,0-.95-5.19l1.5-.38c.34,1.28.7,2.83.91,4.07V230h1.8v7.45a38.27,38.27,0,0,0,.65-4.42l1.61.53.71-.82c.38.23.83.55,1.27.84.17-.38.36-.8.51-1.24H807.7v-1.92h3l.36-.05,1.29.41a15.82,15.82,0,0,1-1.27,3.92h3.27a23.24,23.24,0,0,1-1.56-4.45l1.86-.4c.13.53.29,1,.44,1.48a13.3,13.3,0,0,0,1.06-1l1.43,1.46c-.63.42-1.26.83-1.83,1.18.12.28.27.53.4.78a10.59,10.59,0,0,0,1.37-1.14L819,234.1c-.64.34-1.23.7-1.8,1a8.55,8.55,0,0,0,1.9,1.54,5.18,5.18,0,0,0-1.39,1.75c-.26-.19-.53-.36-.78-.57Zm-8.49-7c-.38-.28-.78-.61-1.16-.87-.21.85-.42,1.73-.61,2.54A7.73,7.73,0,0,0,808.42,235.12Zm2,1.39v-.74a12.32,12.32,0,0,1-1.24,1.56h7.14a11.9,11.9,0,0,1-1.42-1.75v.93Zm4.35,2.56h-4.28v1.26h4.28Z"/><path d="M807.92,268.81c1.46-.55,2.28-1.5,2.28-2.61H810a1.64,1.64,0,0,1-1.75-1.65,1.68,1.68,0,0,1,1.8-1.65c1.3,0,2,1,2,2.75a4.79,4.79,0,0,1-3.59,4.68Z"/><path d="M818.45,284.71v2.17H808.29a22.34,22.34,0,0,1-2.22,3.74v9.19h-2.3V293.2a14.12,14.12,0,0,1-1.67,1.33,15.54,15.54,0,0,0-1.13-2.18,14.48,14.48,0,0,0,4.74-5.47h-4.13v-2.17h5.13c.33-.89.61-1.76.84-2.64l2.37.57q-.31,1-.72,2.07Zm-4.56,12.56h4.5v2.09H807v-2.09h4.59v-4.33h-3.85v-2.09h3.85v-3.16h2.28v3.16h3.76v2.09h-3.76Z"/><path d="M807.39,307.57a18.93,18.93,0,0,1-1.53,2.28v10.43h-2.21v-7.87c-.57.57-1.12,1.09-1.67,1.54a15.81,15.81,0,0,0-1.1-2.34,17.2,17.2,0,0,0,4.52-4.88Zm-.34-4.14a19.92,19.92,0,0,1-4.84,4.77,14.48,14.48,0,0,0-1.14-1.9,13.35,13.35,0,0,0,3.82-3.73Zm11.25,10.35a33.56,33.56,0,0,1-2.89,2,8.46,8.46,0,0,0,3.5,2.46,7.34,7.34,0,0,0-1.5,2c-3.23-1.52-5-4.39-6-8.22h-1.19v5.33l2.64-.59a14.53,14.53,0,0,0,.11,2.07c-3.72.94-4.42,1.22-4.88,1.51a6.1,6.1,0,0,0-1-1.77,1.87,1.87,0,0,0,.89-1.65V303.28h9.2V312h-3.84a14.14,14.14,0,0,0,1,2.27,21.31,21.31,0,0,0,2.53-2.09Zm-8.11-8.57v1.48H815v-1.48Zm0,4.85H815v-1.54h-4.78Z"/><path d="M818,335a29,29,0,0,1-3.35,2.09,12.71,12.71,0,0,0,4.33,1.56,8.45,8.45,0,0,0-1.42,2,11.31,11.31,0,0,1-8.4-6.67h-2.71v4l4.16-.83a12.76,12.76,0,0,0-.19,2,50.39,50.39,0,0,0-6.1,1.49l-.12.09a9.77,9.77,0,0,0-1-2.24,1.69,1.69,0,0,0,1-1.46V334h-2.77v-2h3.15v-8.39h12v1.84h-9.67v1h9.14v1.75h-9.14v1h9.14V331h-9.14v1h11.66v2h-2.05Zm-6.46-1a8.39,8.39,0,0,0,1.54,1.92,26.59,26.59,0,0,0,2.79-1.92Z"/><path d="M818.39,346.29s0,.76,0,1c-.25,8.49-.46,11.51-1.24,12.52a2.52,2.52,0,0,1-1.82,1,20.3,20.3,0,0,1-3,0,5.22,5.22,0,0,0-.74-2.21c1.22.12,2.34.12,2.83.12a1,1,0,0,0,.84-.32c.55-.61.8-3.46,1-10.17H812.2a15.86,15.86,0,0,1-1.67,3,14.41,14.41,0,0,0-1.46-1.06v8.87H804v1.39h-2V346.42h2.15a20.46,20.46,0,0,0,.55-3.05l2.47.34c-.32,1-.66,1.9-1,2.71h3v3.08a19.55,19.55,0,0,0,2.56-6.12l2.15.5a23.07,23.07,0,0,1-.74,2.41ZM807,348.4h-3v3.08h3Zm0,8.76v-3.73h-3v3.73Zm6.3-1a40.77,40.77,0,0,0-2.64-4.39l1.77-1a46.08,46.08,0,0,1,2.79,4.21Z"/><path d="M817.88,366.13a14.57,14.57,0,0,1-2.64,5.11,12.32,12.32,0,0,0,3.93,2.11,8.65,8.65,0,0,0-1.4,1.9l0,0v6.21h-2.17v-.59H812v.65H809.9v-6.18l-.43.19a7.34,7.34,0,0,0-.71-1.08V375h-2.09v2.53l2.25-.52.21,2c-2.66.66-5.55,1.33-7.7,1.82l-.4-2.16.86-.16v-6.38h1.84v6l.95-.19v-7.14H802v-6.29h6.55v4.72a12.93,12.93,0,0,0,3.16-5.42l2.14.53c-.15.42-.3.86-.47,1.27h2.66l.4-.07ZM804,368.84h2.51v-2.41H804Zm4.77,4.75a12.92,12.92,0,0,0,3.63-2.37,15.39,15.39,0,0,1-1.17-1.67c-.37.47-.75.91-1.13,1.31a10.23,10.23,0,0,0-1.52-1.29v1.21h-1.9V373h2.09Zm7.43.9a15.51,15.51,0,0,1-2.37-1.73,15.89,15.89,0,0,1-2.34,1.73Zm-.63,4.42v-2.52H812v2.52Zm-3.07-11.4-.16.29a17.76,17.76,0,0,0,1.39,2,12.18,12.18,0,0,0,1.39-2.25Z"/><path d="M818.64,398.75V401H801.37v-2.28h6.8V384.44h2.44v5.44h6.7v2.29h-6.7v6.58Z"/><path d="M807.92,423.26c1.46-.55,2.28-1.5,2.28-2.61H810a1.64,1.64,0,0,1-1.75-1.65,1.68,1.68,0,0,1,1.8-1.65c1.3,0,2,1,2,2.75a4.79,4.79,0,0,1-3.59,4.68Z"/><path d="M818.36,447.62c-.33,3.68-.65,5.28-1.24,5.89a2,2,0,0,1-1.42.7,17.21,17.21,0,0,1-2.26,0,5,5,0,0,0-.61-2,14.11,14.11,0,0,0,1.84.1.82.82,0,0,0,.63-.21c.3-.31.55-1.25.78-3.42H804.77a8.57,8.57,0,0,1-1,.64l1.73.56a7.93,7.93,0,0,1-2.22,4.29l-1.76-1.12a7,7,0,0,0,2.05-3.59c-.46.28-.93.53-1.41.78a14.17,14.17,0,0,0-1.18-2,17.32,17.32,0,0,0,7.28-6.51h-6.1v-2h3.19a15.82,15.82,0,0,0-1.19-2.41l1.95-.76a12.62,12.62,0,0,1,1.46,2.77l-1,.4h2.76a21.44,21.44,0,0,0,1.31-3.25l2.26.63c-.32.89-.68,1.76-1.08,2.62h3.72c-.19,1.14-.47,2.43-.72,3.48h2.16c-.2,1.14-.45,2.47-.68,3.49h2ZM808,449.88a13.25,13.25,0,0,1,.52,3.49l-2,.25a13.65,13.65,0,0,0-.38-3.52Zm.48-4.66a17.16,17.16,0,0,1-1.43,1.54h7.26c.11-.45.23-1,.34-1.54Zm2.33,4.32a15.55,15.55,0,0,1,.92,3.07l-1.81.46a16,16,0,0,0-.87-3.15Zm0-7.77c-.28.51-.59,1-.91,1.5h2.91c.11-.46.22-1,.32-1.5ZM813,452.08a10.79,10.79,0,0,0-1.12-2.56l1.56-.54a10,10,0,0,1,1.23,2.51Z"/><path d="M807.53,457.71a34.31,34.31,0,0,1-1.65,3.62v13.34h-2.23v-9.8a19.82,19.82,0,0,1-1.42,1.71,15.42,15.42,0,0,0-1.22-2.34,19.86,19.86,0,0,0,4.37-7.22Zm11.19,7.75h-4.67v9.25h-2.36v-9.25h-4.88v-2.23h4.88v-6h2.36v6h4.67Z"/><path d="M804.6,480.75V484c0,3.1-.26,8-1.67,11.06a8.62,8.62,0,0,0-1.8-1.33c1.23-2.83,1.33-6.9,1.33-9.73V478.8h7.12c-.1-.4-.21-.82-.3-1.14l2.28-.42a13.54,13.54,0,0,1,.51,1.56h6.48v1.95Zm2.15,4.35a3.9,3.9,0,0,1-1,2.95,5.13,5.13,0,0,0-1.08-.88,2.57,2.57,0,0,0,.84-2.12v-.74h1.23Zm8.66,5.23c1,1.12,2.36,2.71,3.08,3.68l-1.73.92c-.19-.29-.44-.63-.7-1-8.95.64-10,.66-10.7.89a16.07,16.07,0,0,0-.53-1.8,7.54,7.54,0,0,0,2.26-.84,20,20,0,0,0,2.15-1.08,13,13,0,0,0-3.21.36,15.06,15.06,0,0,0-.51-1.67,3.64,3.64,0,0,0,1.23-.48,17.12,17.12,0,0,0,3.19-2.13c-.42-.17-.51-.55-.51-1.21v-1.6h1.2V486c0,.28,0,.38.2.38a2.14,2.14,0,0,0,.61-.06c0,.19,0,.38,0,.59a2.38,2.38,0,0,0,.76-1.92v-.72h1.23v.78a3.55,3.55,0,0,1-1,2.79,4.2,4.2,0,0,0-1-.82l0,.19a2.12,2.12,0,0,1-.67.08h-.36l1.16.74a23.22,23.22,0,0,1-3,1.88l2.83-.13A24,24,0,0,0,814,488l1.67,1.12a39.19,39.19,0,0,1-6.12,3.63l5.34-.36c-.38-.44-.76-.89-1.08-1.29Zm-8.15-2.64v-4h-2.07V482h2.07v-.88H809V482h2.3v1.69H809v4Zm6.77,0v-4h-2.28V482H814v-.88h1.69V482h2.69v1.69h-2.69v4Zm4-1.11a3.71,3.71,0,0,0,.74-.07c0,.28,0,.64.07.95a3.35,3.35,0,0,1-.78.07h-.66c-1,0-1.16-.43-1.16-1.38v-1.9h1.27v1.92c0,.3,0,.41.25.41Z"/><path d="M816.44,513.24h2.2V515H801.35v-1.75h2.25v-2.89a4.21,4.21,0,0,1-.88.74l-1.52-1.33a4.92,4.92,0,0,0,2-2.54l1.75.68a9.09,9.09,0,0,1-.78,1.64h2.72a8,8,0,0,0-.38-2l1.92-.3a8.25,8.25,0,0,1,.47,1.92l-1.89.34h4.23a8.25,8.25,0,0,0-.78-1.88l1.71-.44H801.6V505.6h7.11v-.72h-5.36v-1.52h5.36v-.72h-7.24V501h7.24v-.73h-5.27v-1.51h5.27v-1H811v1h5.7V501h1.88v1.61h-1.88v2.24H811v.72h7.48v1.62h-1.95a15.81,15.81,0,0,1,2.35,2.72l-1.77.85a10.66,10.66,0,0,0-.62-.93Zm-10.73,0h1.44v-2h-1.44Zm3.49-2v2h1.5v-2ZM811,501h3.47v-.73H811Zm0,2.33h3.47v-.72H811Zm1.42,3.86a7.72,7.72,0,0,1,.9,1.9l-1.45.42h4.37a23.74,23.74,0,0,0-1.57-1.81l1.31-.51Zm1.85,4h-1.47v2h1.47Z"/><path d="M809.33,533.32c-2.66.65-5.56,1.33-7.73,1.83l-.51-2.11c1.29-.23,3-.57,4.84-.95l-.45-.11a27.29,27.29,0,0,0,.66-3.88l2.21.48c-.33,1.1-.65,2.27-1,3.21l1.75-.37Zm-.28-12.13h-7.64v-2.08h7.64Zm-.42,6.64h-6.71v-5.32h6.71Zm-5.85,4.28a13,13,0,0,0-.63-3.38l1.81-.46a13.07,13.07,0,0,1,.74,3.33Zm3.84-7.83h-2.8v1.79h2.8Zm7,9.2a14,14,0,0,1-4.22,2.52,12,12,0,0,0-1.48-1.44,11.55,11.55,0,0,0,3.86-2.26Zm-1.14-11.31c.08-.42.13-.85.19-1.27H809.5V519h9.16v1.9h-3.55c-.14.44-.27.87-.4,1.27h3.53v10H810v-10Zm3.63,1.67H812V525h4.07Zm0,2.74H812v1.2h4.07Zm0,2.77H812v1.22h4.07Zm0,3.1a30.38,30.38,0,0,1,3.17,2.36l-1.8,1.19a25.28,25.28,0,0,0-3.08-2.49Z"/><path d="M811.61,539.22l-.28.36a18.27,18.27,0,0,0,7.88,3.42,7.62,7.62,0,0,0-1.42,1.73c-.38-.1-.78-.23-1.18-.35v4.91h-13.2V544.5c-.4.13-.8.26-1.18.36a12.34,12.34,0,0,0-1.22-1.75c3.5-.82,6.88-2.39,8.61-4.6Zm4.32,4.92a21.51,21.51,0,0,1-2.59-1.16v.49h-6.67v-.38a25.06,25.06,0,0,1-2.29,1Zm-11.46,5.77h11.17v6.42h-2.32v-.45h-6.63v.51h-2.22Zm2.15-2a7.52,7.52,0,0,0-.65-2l1.46-.42h-2.14v2.4Zm.07,3.47v.76h6.63v-.76Zm6.63,3v-.76h-6.63v.76ZM809,545.52h-1.48a9.1,9.1,0,0,1,.76,2l-1.22.38H809Zm2.74-3.51a19.26,19.26,0,0,1-1.6-1.24c-.49.42-1,.84-1.61,1.24Zm-.92,3.51v2.4h1.77l-1.14-.33a14.11,14.11,0,0,0,.74-2.07Zm3.77,0h-2l1.48.36c-.38.76-.74,1.51-1,2h1.54Z"/><path d="M816.69,571.08h2.16v1.65h-2.16v2.15c0,1-.16,1.44-.88,1.73a9,9,0,0,1-2.94.28,7.11,7.11,0,0,0-.55-1.77l-.76.48a9,9,0,0,0-1.64-2.32l.93-.55h-1.78v1.1h-2.93v3h-2v-3h-3.06v-2h3.06v-1.14h-2.43v-6.86h2.43v-1h-2.8v-2h2.8v-1.8h2v1.8h2.7v2h-2.7v1h2.53v6.86h-2.53v1.14h2.93v-.78h5.56v-.74h2.06Zm-13.36-4.52h1.08v-1.12h-1.08Zm0,2.6h1.08V568h-1.08Zm3.71-3.72h-1.16v1.12H807Zm0,2.6h-1.16v1.12H807Zm2,.66c1,0,2.35,0,3.8-.05v-.84h-3.31v-5.09h3.31V562h-3.63v-1.66h3.63v-1.25h1.92v1.25h3.81V562h-3.81v.7h3.47v5.09h-.79A12.65,12.65,0,0,1,819,570l-1.58.77c-.1-.19-.21-.41-.36-.66-2.85.09-5.78.17-7.87.21Zm2.26-4h1.54v-.75h-1.54Zm1.54,1.91v-.76h-1.54v.76Zm1.78,6.14h-2.85a8.08,8.08,0,0,1,1.39,1.84l-.78.5c.76,0,1.64,0,1.88,0s.36-.08.36-.29Zm.14-8.8v.75h1.61v-.75Zm1.61,1.9h-1.61v.76h1.61Zm-1.61,2.78,1.21,0c-.15-.19-.3-.36-.45-.53l.53-.25h-1.29Z"/><path d="M803.62,586.91a9.26,9.26,0,0,1-1,2.54,6.23,6.23,0,0,0-1.16-.64,6.44,6.44,0,0,0,.78-2.19Zm2.94-.57a5.17,5.17,0,0,0-.21-.57c-3.25.32-3.76.41-4.08.57a7.07,7.07,0,0,0-.46-1.39,2.47,2.47,0,0,0,1.08-.63,7.47,7.47,0,0,0,1-.85,8.1,8.1,0,0,0-1.69.24,7.86,7.86,0,0,0-.51-1.38,1.42,1.42,0,0,0,.74-.46,8.2,8.2,0,0,0,1.58-2.11l1.52.46a14.94,14.94,0,0,1-1.64,2.11l1.11-.06c.22-.28.45-.57.66-.87l1.44.57a20.71,20.71,0,0,1-2.79,2.88l1.62-.13c-.14-.25-.25-.49-.38-.68l1.15-.36a12.53,12.53,0,0,1,1.11,2.24Zm11.09,7.2a5.45,5.45,0,0,1-.17.89,3.47,3.47,0,0,1-1.23,2.37,4.44,4.44,0,0,1-2.2.38c-.86,0-2.61,0-4.22-.09a2.88,2.88,0,0,0-.52-1.43c1.62.14,3.52.16,4.2.16a2.56,2.56,0,0,0,1-.12,1.57,1.57,0,0,0,.59-.82H802.91a31,31,0,0,0,1.16-3.42h10.37v-.64h-11.3v-1.33h13.39v3.32H805.76l-.23.73Zm-13.33-4.35a11.73,11.73,0,0,0-.5-2.34l1.24-.25a10.55,10.55,0,0,1,.57,2.26Zm2-.56a8.43,8.43,0,0,0-.66-2l1.08-.34a7.87,7.87,0,0,1,.76,1.92Zm6.54-6.45h-5.64V581h2.22a6.46,6.46,0,0,0-.46-1l1.37-.42A8.29,8.29,0,0,1,811,581h1.83Zm-5.09,3.76h4.61v2.9h-4.61Zm4.54-2.21h-4.5v-1h4.5Zm-4.5.59h4.5v1h-4.5Zm1.29,3.5H811V587h-1.92Zm5.6-.93a8.61,8.61,0,0,1-.85,2.37,5.91,5.91,0,0,0-1.2-.63,5.39,5.39,0,0,0,.7-2Zm2.94-.53a4.84,4.84,0,0,0-.15-.57c-3.4.34-3.93.45-4.25.6a10.83,10.83,0,0,0-.46-1.4,2.53,2.53,0,0,0,1.14-.63,10.93,10.93,0,0,0,1-.85,7.35,7.35,0,0,0-1.77.24,12.85,12.85,0,0,0-.45-1.31,1.82,1.82,0,0,0,.74-.45,10.43,10.43,0,0,0,1.61-2.21l1.39.5a14.22,14.22,0,0,1-1.6,2.09l1.2-.06c.28-.32.53-.65.78-.95l1.39.57a24,24,0,0,1-2.81,2.94l1.67-.13c-.12-.23-.25-.44-.36-.65l1.13-.39a9.41,9.41,0,0,1,1.07,2.2Zm-2.24,2.71a9.51,9.51,0,0,0-.43-2.26l1.23-.27a11.39,11.39,0,0,1,.52,2.23Zm2.55-2.79a12.63,12.63,0,0,1,.82,2.11l-1.2.38a10.43,10.43,0,0,0-.72-2.15Z"/><path d="M807.92,618.56c1.46-.55,2.28-1.5,2.28-2.6H810a1.65,1.65,0,0,1-1.75-1.66,1.68,1.68,0,0,1,1.8-1.65c1.3,0,2,1,2,2.75a4.79,4.79,0,0,1-3.59,4.68Z"/><path d="M818.66,647v2.19H805.17V647H811v-4.73h-3.71v-1.16a19.3,19.3,0,0,1-4.86,7.51,14.82,14.82,0,0,0-1.48-1.81c2.66-2.3,4.25-5.87,5.24-9.61h-4.48V635h5c.23-1.06.41-2.12.56-3.15l2.35.29c-.17,1-.34,1.91-.55,2.86h9.37v2.19h-9.88c-.27,1-.53,2-.88,2.91H818v2.16h-4.69V647Z"/><path d="M811,665.62a5.15,5.15,0,0,1-3.21,2,18,18,0,0,0,3.62.26,69.28,69.28,0,0,0,7.72-.47,8,8,0,0,0-.63,2.16c-1.58.08-5,.21-7.18.21-2.53,0-4.12-.21-5.49-1-.8-.45-1.44-1.06-1.84-1.06s-1.09,1.23-1.6,2.34l-1.39-2a8.58,8.58,0,0,1,1.71-1.67,19.88,19.88,0,0,0,1.16-3.59h-2.3a42.74,42.74,0,0,0,1.5-4.14h-1.8v-2h4.63c-.43,1.33-.94,2.87-1.4,4.18H805l.31-.06.93.31a23.56,23.56,0,0,1-1.45,5c.35.2.75.53,1.35.85a4.79,4.79,0,0,0,1.22.53,5.33,5.33,0,0,0-.89-1.23c2.22-.46,3-1.18,3.34-2.28h-3.4v-1.24h4.94L811,662l1.84-.39c.19.32.42.77.61,1.17h5V664h-6.73c0,.15-.08.3-.11.45h5.17a3.43,3.43,0,0,1-.08.61c-.17,1.12-.4,1.73-.8,2a2,2,0,0,1-1.23.38,15.16,15.16,0,0,1-2.07,0,3.4,3.4,0,0,0-.39-1.22,14.08,14.08,0,0,0,1.62.08.68.68,0,0,0,.53-.14.92.92,0,0,0,.29-.51Zm-7.39-9.44c-.25-.87-.84-2.24-1.22-3.29l1.88-.53c.4,1,1,2.3,1.27,3.14Zm4.63,4.92h-2v-1.94h5a2.73,2.73,0,0,0-.19-.55h-3.57v-5.28h3.12a10.67,10.67,0,0,0,.47-1.06l2.34.15a10.27,10.27,0,0,1-.69.91h4.47v5.28h-3.84l.25.55h4.82V661h-2v-.74h-1.29v.64c0,.29,0,.46.43.46h1.13a5.69,5.69,0,0,0,1.36-.14,6.78,6.78,0,0,0,.14,1.09,8,8,0,0,1-1.41.09h-2.11c-1.21,0-1.37-.64-1.37-1.52v-.62h-1.21c-.59,1.38-1.81,2-4.7,2.39a3.48,3.48,0,0,0-.83-1.1c2.13-.21,3-.59,3.48-1.29h-1.81Zm1.37-6.31H815v-.55H809.6Zm0,1.45H815v-.55H809.6Zm0,1.46H815v-.59H809.6Z"/><path d="M811.35,688c.49,0,1,.06,1.52.06,1.06,0,4.71,0,6.06-.06a7.54,7.54,0,0,0-.76,2.17h-5.42c-3.47,0-5.83-.49-7.43-2.7a8.45,8.45,0,0,1-2.65,3A9.23,9.23,0,0,0,801,688.9a8.06,8.06,0,0,0,3.53-5.76l2.26.34c-.13.61-.28,1.18-.44,1.73a4.15,4.15,0,0,0,2.74,2.37v-4.82h-7.41v-2h16.75v2h-7v1.42h5.85v2h-5.85Zm5.24-8.05h-13.2v-6.59h13.2Zm-2.3-5h-8.7v1h8.7Zm0,2.45h-8.7v1h8.7Z"/><path d="M814,707.71c1.8.58,3.7,1.23,4.92,1.73l-2,1.42a56.67,56.67,0,0,0-5.52-2.15l1.14-1h-5.29l1.39,1a26.18,26.18,0,0,1-5.94,2.22,14.12,14.12,0,0,0-1.56-1.52,25,25,0,0,0,5-1.67h-2.6v-6.27h13.11v6.27Zm4.71-6.86H801.39V699h17.29Zm-13-4.86h-3.27v-1.7h3.27v-1.17h2.2v1.17h4.35v-1.17h2.32v1.17h3.25V696h-3.25v2.33h-8.87Zm.06,7.88h3.11V703h-3.11Zm0,2.32h3.11v-.92h-3.11Zm2.14-10.2v.85h4.35V696Zm6.5,7h-3.29v.91h3.29Zm0,2.31h-3.29v.92h3.29Z"/><path d="M814.37,728.89c1.82,0,2.11-.42,2.35-2.77a8.32,8.32,0,0,0,2.13.8c-.4,3.11-1.18,4-4.37,4H808c-3.53,0-4.61-.68-4.61-3.4v-6.91c-.38.3-.76.57-1.12.83A11.73,11.73,0,0,0,801,719.3a16.64,16.64,0,0,0,5.81-5.89l2.06.78-.48.81h4.37l.44-.11,1.44,1.08a22.75,22.75,0,0,1-2.34,2.83H817V726h-2.22v-.65h-9.2v2.24c0,1.16.33,1.35,2.4,1.35ZM807,717c-.51.62-1,1.21-1.6,1.78h4.26a14.48,14.48,0,0,0,1.59-1.78Zm-1.43,6.13h3.54v-2.26h-3.54Zm9.2-2.26h-3.46v2.26h3.46Z"/><path d="M807.92,752.58c1.46-.55,2.28-1.5,2.28-2.6H810a1.64,1.64,0,0,1-1.75-1.65,1.68,1.68,0,0,1,1.8-1.65c1.3,0,2,1,2,2.75a4.79,4.79,0,0,1-3.59,4.67Z"/><path d="M808.65,771.32a23.84,23.84,0,0,1-1.39,3h9.84v9.17h-2.39v-.95h-7.05v1H805.4v-6.44a14.79,14.79,0,0,1-2.94,2.81,12.79,12.79,0,0,0-1.5-1.8,15.37,15.37,0,0,0,5.24-6.88h-4.58V769.1H807a30,30,0,0,0,.82-3.23l2.37.43c-.23.93-.48,1.87-.76,2.8h9v2.22Zm-1,5.22v3.86h7.05v-3.86Z"/><path d="M811,799.65a5.1,5.1,0,0,1-3.21,2,17.22,17.22,0,0,0,3.62.27,66.94,66.94,0,0,0,7.72-.48,8,8,0,0,0-.63,2.17c-1.58.07-5,.21-7.18.21-2.53,0-4.12-.21-5.49-1-.8-.46-1.44-1.06-1.84-1.06s-1.09,1.23-1.6,2.33l-1.39-2a8.31,8.31,0,0,1,1.71-1.67,19.74,19.74,0,0,0,1.16-3.6h-2.3a41.79,41.79,0,0,0,1.5-4.14h-1.8v-2h4.63c-.43,1.33-.94,2.87-1.4,4.18H805l.31-.06.93.3a23.39,23.39,0,0,1-1.45,5c.35.21.75.53,1.35.86a5.62,5.62,0,0,0,1.22.53,5.4,5.4,0,0,0-.89-1.24c2.22-.45,3-1.17,3.34-2.28h-3.4v-1.23h4.94c-.11-.27-.23-.53-.34-.78l1.84-.4c.19.32.42.78.61,1.18h5V798h-6.73c0,.16-.08.31-.11.46h5.17a3.43,3.43,0,0,1-.08.61c-.17,1.12-.4,1.73-.8,2a1.92,1.92,0,0,1-1.23.38,12.47,12.47,0,0,1-2.07,0,3.36,3.36,0,0,0-.39-1.21,16.07,16.07,0,0,0,1.62.07.72.72,0,0,0,.53-.13,1,1,0,0,0,.29-.51Zm-7.39-9.44c-.25-.88-.84-2.25-1.22-3.29l1.88-.53c.4,1,1,2.3,1.27,3.13Zm4.63,4.92h-2v-1.94h5a2.73,2.73,0,0,0-.19-.55h-3.57v-5.28h3.12a9.8,9.8,0,0,0,.47-1.07l2.34.15a9.18,9.18,0,0,1-.69.92h4.47v5.28h-3.84l.25.55h4.82V795h-2v-.74h-1.29v.65c0,.28,0,.45.43.45h1.13a6.28,6.28,0,0,0,1.36-.13,6.51,6.51,0,0,0,.14,1.08,7,7,0,0,1-1.41.1h-2.11c-1.21,0-1.37-.65-1.37-1.52v-.63h-1.21c-.59,1.39-1.81,2-4.7,2.4a3.51,3.51,0,0,0-.83-1.11c2.13-.21,3-.59,3.48-1.29h-1.81Zm1.37-6.31H815v-.55H809.6Zm0,1.44H815v-.55H809.6Zm0,1.47H815v-.59H809.6Z"/><path d="M811.35,822c.49,0,1,.06,1.52.06,1.06,0,4.71,0,6.06-.06a7.33,7.33,0,0,0-.76,2.17h-5.42c-3.47,0-5.83-.5-7.43-2.7a8.54,8.54,0,0,1-2.65,3,9.27,9.27,0,0,0-1.71-1.58,8.06,8.06,0,0,0,3.53-5.75l2.26.34c-.13.61-.28,1.18-.44,1.73a4.18,4.18,0,0,0,2.74,2.37v-4.82h-7.41v-2h16.75v2h-7v1.42h5.85v2h-5.85Zm5.24-8h-13.2v-6.6h13.2Zm-2.3-5h-8.7v1h8.7Zm0,2.45h-8.7v1h8.7Z"/><path d="M817.16,829.9v14.93h-2.39v-1.2h-9.6v1.22h-2.29v-15h4.76a18.87,18.87,0,0,0,.78-2.83l3,.38c-.36.85-.73,1.69-1.11,2.45Zm-12,2.3v3.38h9.6V832.2Zm9.6,9.13v-3.51h-9.6v3.51Z"/><path d="M814.37,862.92c1.82,0,2.11-.42,2.35-2.78a7.64,7.64,0,0,0,2.13.8c-.4,3.12-1.18,4-4.37,4H808c-3.53,0-4.61-.69-4.61-3.4v-6.92c-.38.31-.76.57-1.12.84a12.14,12.14,0,0,0-1.22-2.17,16.56,16.56,0,0,0,5.81-5.89l2.06.78c-.16.27-.33.55-.48.82h4.37l.44-.11,1.44,1.08a22.75,22.75,0,0,1-2.34,2.83H817V860h-2.22v-.64h-9.2v2.24c0,1.16.33,1.35,2.4,1.35ZM807,851a22.69,22.69,0,0,1-1.6,1.79h4.26a13.88,13.88,0,0,0,1.59-1.79Zm-1.43,6.14h3.54v-2.26h-3.54Zm9.2-2.26h-3.46v2.26h3.46Z"/><path d="M807.92,886.61c1.46-.55,2.28-1.5,2.28-2.6H810a1.65,1.65,0,0,1-1.75-1.66,1.68,1.68,0,0,1,1.8-1.65c1.3,0,2,1,2,2.76a4.79,4.79,0,0,1-3.59,4.67Z"/><path d="M817.94,908.9a19.15,19.15,0,0,1-3.15,4.16c.51,1.46,1.1,2.33,1.67,2.33.4,0,.62-.91.72-3.15a5.62,5.62,0,0,0,1.86,1.29c-.36,3.33-1.06,4.16-2.79,4.16-1.39,0-2.45-1.14-3.27-3a20.11,20.11,0,0,1-3.51,2.32,10.18,10.18,0,0,0-1.5-1.82,19.67,19.67,0,0,0,4.23-2.68,35.2,35.2,0,0,1-1-5.09h-3.85v2.16l2.92-.53.17,2.05-3.09.63V915c0,1.23-.27,1.84-1,2.2a8.15,8.15,0,0,1-3.42.44,8.51,8.51,0,0,0-.8-2.28c1.07,0,2.17,0,2.51,0s.46-.1.46-.4V912.2c-1.22.25-2.4.5-3.4.69l-.56-2.28c1.09-.17,2.46-.38,4-.65v-2.54h-3.59v-2.15h3.59V903.1c-1,.17-2.07.31-3,.42a8.71,8.71,0,0,0-.65-1.9A48.74,48.74,0,0,0,809,900l1.52,1.91c-1,.29-2,.54-3.09.76v2.57H811c-.15-1.71-.21-3.48-.22-5.21h2.37a46.85,46.85,0,0,0,.19,5.21h5.17v2.15h-4.94c.15,1.14.34,2.24.55,3.21a16,16,0,0,0,1.8-2.59Zm-1.39-4.18a15.14,15.14,0,0,0-2.69-3.14l1.7-1.16a16.67,16.67,0,0,1,2.82,3Z"/><path d="M811.84,928.56h-3.27V938h-2.09V921.36c-.38,1.09-.81,2.21-1.31,3.29V938H803v-9.5a14.44,14.44,0,0,1-1.18,1.56,15.8,15.8,0,0,0-1.08-2.43,21.1,21.1,0,0,0,3.76-7.33l2.09.62-.12.36h5.34ZM808.57,923v1.09h1.56V923Zm1.56,3.82v-1.12h-1.56v1.12Zm8.21,8.57c0,1.25-.27,1.86-1,2.19a9.92,9.92,0,0,1-3.76.41,8.58,8.58,0,0,0-.72-2.18c1.16.07,2.47.06,2.85,0s.49-.12.49-.48v-6.84H812.7v-7.24h5.64ZM814.48,923v1.09h1.69V923Zm1.69,3.82v-1.12h-1.69v1.12Z"/><path d="M811.1,955.84a16.52,16.52,0,0,0,3,.23c.85,0,3.7,0,4.81,0a7.26,7.26,0,0,0-.8,2.19H814c-3.78,0-6.77-.67-8.76-3.52a9.5,9.5,0,0,1-2.6,3.77A9.05,9.05,0,0,0,801,957c2.12-1.69,3-4.88,3.28-7.54l2.34.27a23.25,23.25,0,0,1-.53,2.5,5.93,5.93,0,0,0,2.73,2.85v-6.4H801.6v-2.11h7.18v-1.84h-5.51V942.7h5.51v-1.94h2.32v1.94H817v2.07H811.1v1.84h7.33v2.11H811.1V951h6.06v2H811.1Z"/><path d="M818.39,964.09s0,.76,0,1c-.25,8.49-.46,11.51-1.24,12.52a2.52,2.52,0,0,1-1.82,1,20.3,20.3,0,0,1-3,0,5.14,5.14,0,0,0-.74-2.2c1.22.11,2.34.11,2.83.11a1,1,0,0,0,.84-.32c.55-.61.8-3.46,1-10.17H812.2a16.28,16.28,0,0,1-1.67,3,13,13,0,0,0-1.46-1.07V977H804v1.39h-2V964.23h2.15a20.58,20.58,0,0,0,.55-3.06l2.47.34c-.32,1-.66,1.9-1,2.72h3v3.07a19.59,19.59,0,0,0,2.56-6.11l2.15.49a23.07,23.07,0,0,1-.74,2.41ZM807,966.2h-3v3.08h3Zm0,8.76v-3.72h-3V975Zm6.3-1a40.77,40.77,0,0,0-2.64-4.39l1.77-1a44.8,44.8,0,0,1,2.79,4.22Z"/><path d="M811.35,996.88c.49,0,1,.06,1.52.06,1.06,0,4.71,0,6.06-.06a7.54,7.54,0,0,0-.76,2.17h-5.42c-3.47,0-5.83-.49-7.43-2.7a8.45,8.45,0,0,1-2.65,3A9.58,9.58,0,0,0,801,997.8a8.06,8.06,0,0,0,3.53-5.76l2.26.34c-.13.61-.28,1.18-.44,1.73a4.19,4.19,0,0,0,2.74,2.38v-4.83h-7.41v-2h16.75v2h-7v1.42h5.85v2h-5.85Zm5.24-8h-13.2v-6.59h13.2Zm-2.3-5h-8.7v1h8.7Zm0,2.46h-8.7v1h8.7Z"/><path d="M813.65,1002.3a11.69,11.69,0,0,0,5.45,6.84,13.1,13.1,0,0,0-1.6,2.09,12.47,12.47,0,0,1-1.44-1.1c-.21,5.6-.44,7.79-1.1,8.57a2.3,2.3,0,0,1-1.73.91,20.87,20.87,0,0,1-2.87.06,5.42,5.42,0,0,0-.74-2.28c1,.07,2,.09,2.51.09a.87.87,0,0,0,.75-.26c.39-.42.59-2.11.77-6.06H809.9c-.47,3.64-1.71,6.89-6.63,8.73a7.68,7.68,0,0,0-1.5-2.09c4.3-1.38,5.28-3.89,5.66-6.64h-3.21v-1.26a15.22,15.22,0,0,1-1.42,1.37,14.64,14.64,0,0,0-1.9-1.67,13.39,13.39,0,0,0,4.71-6.94l2.37.57a19.4,19.4,0,0,1-3,5.72h9.84a16,16,0,0,1-2.87-4.54h-3v-2.11Z"/><path d="M813.72,1031.16a13.62,13.62,0,0,0,5.21,2.57,9.65,9.65,0,0,0-1.5,1.94,14,14,0,0,1-3.21-1.54v6h-2.36v-6.69h1.43a11.19,11.19,0,0,1-2.23-2.28h-1.95a12.84,12.84,0,0,1-2.28,2.26h1.61v1.31c0,1.81-.55,4.2-4.33,5.59a8.18,8.18,0,0,0-1.56-1.82c3.17-1,3.55-2.65,3.55-3.86V1034a15,15,0,0,1-3.45,1.76,10.4,10.4,0,0,0-1.49-1.86,14.13,14.13,0,0,0,5.13-2.7h-3v-8.07h13.55v8.07Zm-8.19-4.88h3.33v-1.37h-3.33Zm0,3.06h3.33V1028h-3.33Zm8.93-4.43h-3.32v1.37h3.32Zm0,3.06h-3.32v1.37h3.32Z"/><path d="M807.92,1061.48c1.46-.55,2.28-1.5,2.28-2.6H810a1.64,1.64,0,0,1-1.75-1.65,1.68,1.68,0,0,1,1.8-1.65c1.3,0,2,1,2,2.75a4.79,4.79,0,0,1-3.59,4.67Z"/><path d="M807.49,1079c-.7,5.08-2,9.18-4.73,11.93a11.37,11.37,0,0,0-1.82-1.86c2.45-2.22,3.61-5.73,4.18-10.07h-3.5v-2.18h3.74c.06-.68.12-1.37.16-2.09l2.39.15c-.06.67-.1,1.29-.17,1.94h10.52V1079Zm6.14.8c-.06,1.79-.14,3.42-.34,4.9a11,11,0,0,0,5.39,6,7.88,7.88,0,0,0-1.46,1.77,12,12,0,0,1-4.69-4.79,8.61,8.61,0,0,1-5.42,5,6.36,6.36,0,0,0-1.33-1.85c5.3-1.88,5.4-5.52,5.53-11Zm-5.4,6.63a49.08,49.08,0,0,0-1-4.82l1.88-.57a45.17,45.17,0,0,1,1.15,4.69Zm6.06-1a30.18,30.18,0,0,0,1.31-4.27l1.9.89c-.45,1.5-1,3.14-1.46,4.24Z"/><path d="M814.37,1110.54c1.82,0,2.11-.42,2.35-2.77a8.32,8.32,0,0,0,2.13.8c-.4,3.11-1.18,4-4.37,4H808c-3.53,0-4.61-.68-4.61-3.4v-6.91c-.38.3-.76.57-1.12.84A11.49,11.49,0,0,0,801,1101a16.56,16.56,0,0,0,5.81-5.89l2.06.78c-.16.27-.33.55-.48.82h4.37l.44-.12,1.44,1.08a22.82,22.82,0,0,1-2.34,2.84H817v7.14h-2.22V1107h-9.2v2.24c0,1.16.33,1.35,2.4,1.35ZM807,1098.67a22.69,22.69,0,0,1-1.6,1.79h4.26a14.58,14.58,0,0,0,1.59-1.79Zm-1.43,6.14h3.54v-2.26h-3.54Zm9.2-2.26h-3.46v2.26h3.46Z"/><path d="M818.39,1118.54s0,.76,0,1c-.25,8.49-.46,11.51-1.24,12.52a2.52,2.52,0,0,1-1.82,1,20.3,20.3,0,0,1-3,0,5.14,5.14,0,0,0-.74-2.2c1.22.11,2.34.11,2.83.11a1,1,0,0,0,.84-.32c.55-.61.8-3.46,1-10.16H812.2a16.17,16.17,0,0,1-1.67,3,14.33,14.33,0,0,0-1.46-1.07v8.88H804v1.38h-2v-14.11h2.15a20.58,20.58,0,0,0,.55-3.06l2.47.34c-.32,1-.66,1.9-1,2.72h3v3.07a19.59,19.59,0,0,0,2.56-6.11l2.15.49a22.36,22.36,0,0,1-.74,2.41ZM807,1120.65h-3v3.08h3Zm0,8.76v-3.72h-3v3.72Zm6.3-1a40.71,40.71,0,0,0-2.64-4.38l1.77-1a44.8,44.8,0,0,1,2.79,4.22Z"/><path d="M818.76,1143.51V1146H801.28v-2.45Z"/><path d="M801,1173.45a6.88,6.88,0,0,0,1.29-3.36l1.52.45a7.39,7.39,0,0,1-1.35,3.67Zm.41-5.7,3.38-.09v-.91h-2.92V1165h2.92v-.84h-3V1157h8v7.16h-3.08v.84h3v1.71h-3v.83l3.34-.13,0,1.75c-3.07.19-6.32.36-8.62.45Zm2.11-5.07h1.6v-4.12h-1.6v.8l.9-.27a12,12,0,0,1,.6,2.74l-1,.3a11.94,11.94,0,0,0-.5-2.64Zm1.81,7.35a19.68,19.68,0,0,1,.4,3.33l-1.47.17a16.05,16.05,0,0,0-.32-3.33Zm1.86-.17A17.93,17.93,0,0,1,808,1173l-1.39.29a16.23,16.23,0,0,0-.78-3.17Zm.93-11.3h-1.63v3.13a19.65,19.65,0,0,0,.72-2.62l.91.32Zm0,4.12V1160c-.3.8-.61,1.62-.86,2.17l-.77-.29v.82Zm.91,6.78a11.7,11.7,0,0,1,1.46,3L809,1173a13.24,13.24,0,0,0-1.39-3Zm6.19-7v2.93h3v8.72h-2.16v-.67h-3.52v.74h-2v-8.79H813v-8.91h2.2v3.89h3.67v2.09Zm.88,5h-3.52v4h3.52Z"/><path d="M807.92,1195.51c1.46-.55,2.28-1.5,2.28-2.6H810a1.65,1.65,0,0,1-1.75-1.66,1.68,1.68,0,0,1,1.8-1.65c1.3,0,2,1,2,2.76a4.79,4.79,0,0,1-3.59,4.67Z"/><path d="M817.94,1217.8a19.15,19.15,0,0,1-3.15,4.16c.51,1.46,1.1,2.33,1.67,2.33.4,0,.62-.91.72-3.15a5.62,5.62,0,0,0,1.86,1.29c-.36,3.33-1.06,4.16-2.79,4.16-1.39,0-2.45-1.14-3.27-3a20.11,20.11,0,0,1-3.51,2.32,10.18,10.18,0,0,0-1.5-1.82,19.67,19.67,0,0,0,4.23-2.68,35.2,35.2,0,0,1-1-5.09h-3.85v2.16l2.92-.53.17,2-3.09.63v3.25c0,1.23-.27,1.84-1,2.2a8.15,8.15,0,0,1-3.42.44,8.63,8.63,0,0,0-.8-2.28c1.07,0,2.17,0,2.51,0s.46-.1.46-.4v-2.76c-1.22.25-2.4.5-3.4.69l-.56-2.28c1.09-.17,2.46-.38,4-.65v-2.54h-3.59v-2.15h3.59V1212c-1,.17-2.07.31-3,.42a8.89,8.89,0,0,0-.65-1.9,48.74,48.74,0,0,0,7.54-1.59l1.52,1.91c-1,.29-2,.54-3.09.76v2.57H811c-.15-1.71-.21-3.48-.22-5.21h2.37a46.85,46.85,0,0,0,.19,5.21h5.17v2.15h-4.94c.15,1.14.34,2.24.55,3.21a16,16,0,0,0,1.8-2.59Zm-1.39-4.18a15.14,15.14,0,0,0-2.69-3.14l1.7-1.15a16.31,16.31,0,0,1,2.82,3Z"/><path d="M811.84,1237.46h-3.27v9.45h-2.09v-16.65c-.38,1.09-.81,2.21-1.31,3.29v13.39H803v-9.5a14.44,14.44,0,0,1-1.18,1.56,15.8,15.8,0,0,0-1.08-2.43,21.1,21.1,0,0,0,3.76-7.33l2.09.63-.12.36h5.34Zm-3.27-5.52V1233h1.56v-1.08Zm1.56,3.81v-1.12h-1.56v1.12Zm8.21,8.57c0,1.26-.27,1.86-1,2.19a9.92,9.92,0,0,1-3.76.41,8.58,8.58,0,0,0-.72-2.18c1.16.08,2.47.06,2.85,0s.49-.12.49-.48v-6.84H812.7v-7.23h5.64Zm-3.86-12.38V1233h1.69v-1.08Zm1.69,3.81v-1.12h-1.69v1.12Z"/><path d="M803.39,1262.39a20.91,20.91,0,0,1-.84,4.62,10.06,10.06,0,0,0-1.63-.55,16.52,16.52,0,0,0,.76-4.34Zm-1.73-5.32a.12.12,0,0,0,0,.08,16.53,16.53,0,0,0-.63-1.81c.36-.09.69-.45,1-1a21.2,21.2,0,0,0,2.24-4.64l1.88.76a28.54,28.54,0,0,1-2.53,4.58l1.39-.1a28.08,28.08,0,0,0,1.35-2.62l1.71,1.07a33.39,33.39,0,0,1-4,5.91l2.2-.29c-.19-.53-.41-1.08-.64-1.58l1.5-.55a15.51,15.51,0,0,1,1.29,3.56l-1.6.64a3.94,3.94,0,0,0-.09-.51c-3.87.61-4.52.8-5,1a14.33,14.33,0,0,0-.63-1.83c.48-.11.88-.57,1.47-1.27a20.66,20.66,0,0,0,1.29-1.75,7.75,7.75,0,0,0-2.26.42Zm3.7,4.92a32.07,32.07,0,0,1,.52,4l-1.64.42a39.88,39.88,0,0,0-.42-4Zm2-.55a31.84,31.84,0,0,1,1.1,3.55l-1.54.57a27.66,27.66,0,0,0-1-3.64Zm11.07-10.9v16.32h-2.16v-.9H811v1h-2v-16.47Zm-7.43,2.28v4.59h1.52v-4.59Zm0,11h1.52v-4.37H811Zm5.27-11H814.6v4.59h1.69Zm0,11v-4.37H814.6v4.37Z"/><path d="M804.91,1277a50.25,50.25,0,0,1-1.39,7.89l-2.28-.92a36.22,36.22,0,0,0,1.46-7.39Zm3.57-1.54v8.82c0,.89.15,1,1.06,1h2.72c1,0,1.12-.61,1.25-3.57a6.89,6.89,0,0,0,2.13,1c-.26,3.61-.87,4.73-3.21,4.73h-3.15c-2.47,0-3.16-.76-3.16-3.15v-8.82Zm-.17-5.11a35.46,35.46,0,0,1,5.26,3.93l-1.67,1.77a33.35,33.35,0,0,0-5.13-4.16Zm8.28,5.63a35.67,35.67,0,0,1,2.45,7.06l-2.3,1a31.9,31.9,0,0,0-2.26-7.16Z"/><path d="M818.39,1293.42s0,.76,0,1c-.25,8.5-.46,11.52-1.24,12.52a2.5,2.5,0,0,1-1.82,1,23.53,23.53,0,0,1-3,0,5.22,5.22,0,0,0-.74-2.21c1.22.12,2.34.12,2.83.12a1,1,0,0,0,.84-.33c.55-.6.8-3.45,1-10.16H812.2a15.86,15.86,0,0,1-1.67,3,14.41,14.41,0,0,0-1.46-1.06v8.87H804v1.39h-2v-14.12h2.15a20.35,20.35,0,0,0,.55-3.06l2.47.34c-.32,1-.66,1.91-1,2.72h3v3.08a19.65,19.65,0,0,0,2.56-6.12l2.15.5a23.83,23.83,0,0,1-.74,2.41ZM807,1295.53h-3v3.08h3Zm0,8.76v-3.73h-3v3.73Zm6.3-1a40.77,40.77,0,0,0-2.64-4.39l1.77-1a46.13,46.13,0,0,1,2.79,4.22Z"/><path d="M817.18,1323.86c-.29-.23-.59-.48-.95-.75v5.44H814v-.44h-8v.49h-2.13v-5.37c-.51.23-1,.44-1.5.63a10.76,10.76,0,0,0-1.44-1.79,19.72,19.72,0,0,0,5.07-2.24H801.6V1318h3.08a7.32,7.32,0,0,0-.57-1.23l.78-.15a5.58,5.58,0,0,0-.46-1.5,82.71,82.71,0,0,0,9.86-.73l1.16,1.52c-.48.08-1,.16-1.56.21l2.13.54c-.32.47-.63.93-.89,1.34h3.3v1.83H814.6c1.69,1,3.3,2,4.38,2.83ZM803.92,1316h-2.09v-3.76h6.8c-.11-.29-.25-.57-.38-.84l2.32-.64a12.77,12.77,0,0,1,.74,1.48h6.84V1316h-2.21v-1.86h-12Zm5,7.37H806v.91h2.87Zm-2.87,3.19h2.87v-.93H806Zm2.87-10c-.91,0-1.79.08-2.66.1a6.66,6.66,0,0,1,.61,1.36h2Zm0,3.36a16.51,16.51,0,0,1-2.45,1.92h2.45Zm5.13,3.46h-3v.91h3Zm0,3.19v-.93h-3v.93Zm-1-8.55c.28-.6.61-1.31.82-1.86-.9.1-1.87.19-2.84.27V1318Zm1.35,3.82c-1-.68-2.17-1.36-3.29-2H811v2Z"/><path d="M807.47,1343.52c-.32-.47-.85-1.18-1.39-1.82v7.37h-2.22v-7a14.6,14.6,0,0,1-2.16,1.67,10.82,10.82,0,0,0-.86-2.3,13.39,13.39,0,0,0,4.88-4.92h-4.33v-2h3.23a12.83,12.83,0,0,0-1.39-2.06l1.73-1.06a11.09,11.09,0,0,1,1.69,2.39l-1.06.73h1.35l.4-.1,1.2.87a20.07,20.07,0,0,1-2.19,4c.76.66,2.15,2,2.51,2.39Zm9.31,3.52c.32,0,.38-.25.44-2.15a5.44,5.44,0,0,0,1.84.83c-.19,2.59-.72,3.27-2,3.27h-1.26c-1.67,0-2-.64-2-2.52v-3.73H812.7c-.27,3.1-1,5.19-4.66,6.37a5.71,5.71,0,0,0-1.12-1.66c3-.87,3.55-2.37,3.76-4.71h-1.25V1332.1h8.41v10.64h-2v3.73c0,.51,0,.57.3.57Zm-5.3-11.92h4.2v-1.23h-4.2Zm0,2.89h4.2v-1.21h-4.2Zm0,2.93h4.2v-1.24h-4.2Z"/><path d="M816.44,1367.19h2.2v1.75H801.35v-1.75h2.25v-2.88a4.92,4.92,0,0,1-.88.74l-1.52-1.33a5,5,0,0,0,2-2.55l1.75.69a8.7,8.7,0,0,1-.78,1.63h2.72a8.12,8.12,0,0,0-.38-2l1.92-.3a8.25,8.25,0,0,1,.47,1.92l-1.89.34h4.23a8.25,8.25,0,0,0-.78-1.88l1.71-.44H801.6v-1.61h7.11v-.72h-5.36v-1.52h5.36v-.73h-7.24V1355h7.24v-.72h-5.27v-1.52h5.27v-1H811v1h5.7V1355h1.88v1.61h-1.88v2.25H811v.72h7.48v1.61h-1.95a16.19,16.19,0,0,1,2.35,2.72l-1.77.85c-.15-.26-.37-.58-.62-.93Zm-10.73,0h1.44v-2h-1.44Zm3.49-2v2h1.5v-2ZM811,1355h3.47v-.72H811Zm0,2.34h3.47v-.73H811Zm1.42,3.85a7.72,7.72,0,0,1,.9,1.9l-1.45.42h4.37a23.54,23.54,0,0,0-1.57-1.8l1.31-.52Zm1.85,4h-1.47v2h1.47Z"/><path d="M809.33,1387.28c-2.66.64-5.56,1.33-7.73,1.82l-.51-2.11c1.29-.23,3-.57,4.84-1l-.45-.11a27.29,27.29,0,0,0,.66-3.88l2.21.48c-.33,1.1-.65,2.28-1,3.21l1.75-.36Zm-.28-12.14h-7.64v-2.07h7.64Zm-.42,6.65h-6.71v-5.32h6.71Zm-5.85,4.27a13,13,0,0,0-.63-3.38l1.81-.46a13.26,13.26,0,0,1,.74,3.33Zm3.84-7.83h-2.8V1380h2.8Zm7,9.2a14,14,0,0,1-4.22,2.53,12,12,0,0,0-1.48-1.45,11.55,11.55,0,0,0,3.86-2.26Zm-1.14-11.3c.08-.42.13-.86.19-1.28H809.5V1373h9.16v1.9h-3.55c-.14.44-.27.88-.4,1.28h3.53v10H810v-10Zm3.63,1.67H812V1379h4.07Zm0,2.73H812v1.2h4.07Zm0,2.78H812v1.21h4.07Zm0,3.09a31.87,31.87,0,0,1,3.17,2.36l-1.8,1.2a23.52,23.52,0,0,0-3.08-2.49Z"/><path d="M807.92,1411.24c1.46-.56,2.28-1.51,2.28-2.61H810a1.64,1.64,0,0,1-1.75-1.65,1.68,1.68,0,0,1,1.8-1.65c1.3,0,2,1,2,2.75a4.8,4.8,0,0,1-3.59,4.68Z"/><path d="M816.44,1439.94h2.2v1.75H801.35v-1.75h2.25v-2.88a4.92,4.92,0,0,1-.88.74l-1.52-1.33a5,5,0,0,0,2-2.55l1.75.69a8.7,8.7,0,0,1-.78,1.63h2.72a8.12,8.12,0,0,0-.38-2l1.92-.3a8.25,8.25,0,0,1,.47,1.92l-1.89.34h4.23a8.25,8.25,0,0,0-.78-1.88l1.71-.44H801.6v-1.61h7.11v-.72h-5.36v-1.52h5.36v-.73h-7.24v-1.61h7.24V1427h-5.27v-1.52h5.27v-1H811v1h5.7v2.24h1.88v1.61h-1.88v2.25H811v.72h7.48v1.61h-1.95a16.19,16.19,0,0,1,2.35,2.72l-1.77.85c-.15-.26-.37-.58-.62-.93Zm-10.73,0h1.44v-2h-1.44Zm3.49-2v2h1.5v-2Zm1.75-10.22h3.47V1427H811Zm0,2.34h3.47v-.73H811Zm1.42,3.85a7.72,7.72,0,0,1,.9,1.9l-1.45.42h4.37a23.54,23.54,0,0,0-1.57-1.8l1.31-.52Zm1.85,4h-1.47v2h1.47Z"/><path d="M809.33,1460c-2.66.64-5.56,1.33-7.73,1.82l-.51-2.11c1.29-.22,3-.57,4.84-1l-.45-.11a27,27,0,0,0,.66-3.88l2.21.48c-.33,1.1-.65,2.28-1,3.21l1.75-.36Zm-.28-12.14h-7.64v-2.07h7.64Zm-.42,6.65h-6.71v-5.32h6.71Zm-5.85,4.27a13.1,13.1,0,0,0-.63-3.38L804,1455a13.26,13.26,0,0,1,.74,3.33Zm3.84-7.82h-2.8v1.78h2.8Zm7,9.19a14,14,0,0,1-4.22,2.53,12,12,0,0,0-1.48-1.45,11.55,11.55,0,0,0,3.86-2.26Zm-1.14-11.3c.08-.42.13-.86.19-1.28H809.5v-1.9h9.16v1.9h-3.55c-.14.44-.27.88-.4,1.28h3.53v10H810v-10Zm3.63,1.67H812v1.2h4.07Zm0,2.73H812v1.2h4.07Zm0,2.78H812v1.21h4.07Zm0,3.09a31.87,31.87,0,0,1,3.17,2.36l-1.8,1.2a23.52,23.52,0,0,0-3.08-2.49Z"/><path d="M818.45,1468v2.17H808.29a22.34,22.34,0,0,1-2.22,3.74v9.19h-2.3v-6.61a15.22,15.22,0,0,1-1.67,1.33,15.54,15.54,0,0,0-1.13-2.18,14.48,14.48,0,0,0,4.74-5.47h-4.13V1468h5.13q.49-1.34.84-2.64l2.37.57q-.31,1-.72,2.07Zm-4.56,12.56h4.5v2.09H807v-2.09h4.59v-4.33h-3.85v-2.09h3.85V1471h2.28v3.16h3.76v2.09h-3.76Z"/><path d="M817.94,1494.8a19.15,19.15,0,0,1-3.15,4.16c.51,1.46,1.1,2.34,1.67,2.34.4,0,.62-.92.72-3.16a5.62,5.62,0,0,0,1.86,1.29c-.36,3.33-1.06,4.16-2.79,4.16-1.39,0-2.45-1.13-3.27-3a20.11,20.11,0,0,1-3.51,2.32,10.18,10.18,0,0,0-1.5-1.82,19.67,19.67,0,0,0,4.23-2.68,35.2,35.2,0,0,1-1-5.09h-3.85v2.16l2.92-.53.17,2-3.09.63v3.25c0,1.23-.27,1.84-1,2.2a8.15,8.15,0,0,1-3.42.44,8.63,8.63,0,0,0-.8-2.28c1.07.06,2.17,0,2.51,0s.46-.1.46-.4v-2.76c-1.22.25-2.4.5-3.4.69l-.56-2.28c1.09-.17,2.46-.38,4-.65v-2.54h-3.59v-2.15h3.59V1489c-1,.18-2.07.31-3,.42a8.89,8.89,0,0,0-.65-1.9,48.74,48.74,0,0,0,7.54-1.59l1.52,1.92c-1,.28-2,.53-3.09.76v2.56H811c-.15-1.71-.21-3.48-.22-5.21h2.37a46.85,46.85,0,0,0,.19,5.21h5.17v2.15h-4.94c.15,1.14.34,2.24.55,3.21a15.6,15.6,0,0,0,1.8-2.59Zm-1.39-4.18a15.11,15.11,0,0,0-2.69-3.13l1.7-1.16a16.31,16.31,0,0,1,2.82,3Z"/><path d="M811.84,1514.46h-3.27v9.45h-2.09v-16.65c-.38,1.09-.81,2.21-1.31,3.29v13.39H803v-9.5a14.44,14.44,0,0,1-1.18,1.56,15.8,15.8,0,0,0-1.08-2.43,21.1,21.1,0,0,0,3.76-7.33l2.09.63-.12.36h5.34Zm-3.27-5.52V1510h1.56v-1.08Zm1.56,3.81v-1.12h-1.56v1.12Zm8.21,8.57c0,1.26-.27,1.86-1,2.19a9.92,9.92,0,0,1-3.76.41,8.58,8.58,0,0,0-.72-2.18c1.16.08,2.47.06,2.85,0s.49-.12.49-.48v-6.84H812.7v-7.23h5.64Zm-3.86-12.38V1510h1.69v-1.08Zm1.69,3.81v-1.12h-1.69v1.12Z"/><path d="M809.94,1542.15c0,1-.19,1.5-.83,1.82a6,6,0,0,1-2.64.36,7.84,7.84,0,0,0-.73-1.92c.71,0,1.47,0,1.71,0s.31-.08.31-.3v-1.69h-3.35a9.33,9.33,0,0,1-1.4,4,8.84,8.84,0,0,0-1.69-1.28c1.17-1.71,1.29-4.1,1.29-6v-4.35h7.33Zm8.64-12.69v2H801.39v-2h4.05a11.77,11.77,0,0,0-1.43-2.09l2.15-.75a11.07,11.07,0,0,1,1.77,2.47l-1,.37h5.28a22,22,0,0,0,1.56-2.87l2.45.72c-.45.74-1,1.48-1.44,2.15Zm-10.82,9.32v-1.23h-3.12c0,.4,0,.8-.06,1.23Zm-3.12-4.21v1.31h3.12v-1.31Zm9,6.17h-2.08V1533h2.08Zm1.71-8.28h2.22v9.44c0,1.12-.21,1.67-1,2a7.48,7.48,0,0,1-3.12.38,7.83,7.83,0,0,0-.81-2.13c1,0,2,0,2.28,0s.4-.07.4-.34Z"/><path d="M806.48,1555.94a23,23,0,0,1-1.5,4.94c.31.19.67.46,1.18.76,1.29.78,3.08.89,5.3.89a64.62,64.62,0,0,0,7.68-.49,8.78,8.78,0,0,0-.65,2.32c-1.58.09-4.92.22-7.14.22-2.53,0-4.13-.2-5.49-1-.8-.44-1.47-1.07-1.87-1.07s-1.1,1.3-1.57,2.38l-1.5-2.15a7.72,7.72,0,0,1,2-1.8,20.4,20.4,0,0,0,1.08-3.31H801.6c.44-1.12.95-2.64,1.37-4.12h-1.71v-2h4.45c-.4,1.33-.86,2.85-1.3,4.17h.76l.35-.07Zm-3.21-5c-.21-.86-.7-2.25-1-3.27l2-.61c.36,1,.84,2.3,1.1,3.15Zm4.35,3a13.59,13.59,0,0,1-1,1,14.72,14.72,0,0,0-1.21-2.07,14.21,14.21,0,0,0,3.65-5.75l2,.57c-.29.81-.65,1.61-1,2.41h2.83a17.86,17.86,0,0,0-.89-2l2.13-.61a14.18,14.18,0,0,1,1.21,2.66h3v1.9h-3.83v1.08h3.06v1.83h-3.06v1.17h3v1.83h-3v1.19h4v1.9h-8.79v.8h-2.19Zm4.79-1.92h-2.6v1.08h2.6Zm0,2.91h-2.6v1.17h2.6Zm0,3h-2.6v1.19h2.6Z"/><path d="M817.63,1572.05a38.26,38.26,0,0,1-10.14,9.81,9.24,9.24,0,0,0,4.77.85,53.26,53.26,0,0,0,6.65-.46,11.77,11.77,0,0,0-.65,2.42c-1.35.09-4.21.21-6.08.21-2.33,0-3.85-.25-5.14-1.05-.82-.47-1.45-1.12-1.87-1.12-.59,0-1.44,1.27-2.22,2.49l-1.63-2.13c1.36-1.46,2.87-2.47,3.91-2.47h.11a33.06,33.06,0,0,0,8.4-7.37H802.29V1571h7.4c-.45-.82-1.15-1.86-1.71-2.66l2-1.08a32.46,32.46,0,0,1,2.12,3.07L811,1571h4.46l.44-.12Z"/><path d="M810.83,1591.59v3l.39-.44a42.85,42.85,0,0,1,6.47,3.84L816,1600a37.17,37.17,0,0,0-5.19-3.46v9H808.4v-14h-6.85v-2.28h16.92v2.28Z"/><path d="M815.26,1619.25a9.25,9.25,0,0,1-2.09,3.23c2,.66,3.72,1.33,5.07,1.88l-1.61,1.82c-1.43-.66-3.34-1.42-5.49-2.18a21.13,21.13,0,0,1-8.09,2,6.68,6.68,0,0,0-.93-2,22.55,22.55,0,0,0,6.11-1c-1.4-.46-2.89-.89-4.39-1.27a25.74,25.74,0,0,0,1.77-2.51h-4.12v-2h5.32c.34-.63.62-1.26.87-1.85l2.3.48c-.19.46-.42.89-.67,1.37h4.28c.09-.35.19-.73.27-1.09l.41.08-1.78-.87a22.67,22.67,0,0,0,2.54-4.24l2.19,1a36.56,36.56,0,0,1-2.8,4.16l1.68.32c-.06.23-.1.44-.16.65h2.59v2Zm2-8.85a92.94,92.94,0,0,1-14.63,1.31,7.77,7.77,0,0,0-.51-1.92,98.27,98.27,0,0,0,14-1.31Zm-12.88,5.83a14.25,14.25,0,0,0-1.68-3.52l1.94-.72a14.75,14.75,0,0,1,1.79,3.4Zm3.79,3c-.3.51-.6,1-.91,1.44,1.18.32,2.36.67,3.5,1a7.59,7.59,0,0,0,2-2.47Zm1.05-3.73a10.94,10.94,0,0,0-1.12-3.34l2-.57a11.28,11.28,0,0,1,1.26,3.29Z"/><path d="M818.58,1638.61s0,.53,0,.76c-.1,4.22-.19,5.89-.61,6.4a1.52,1.52,0,0,1-1.08.67,10.25,10.25,0,0,1-1.6.07,4.46,4.46,0,0,0-.48-1.8,10,10,0,0,0,1.09,0,.5.5,0,0,0,.45-.22c.19-.29.27-1.35.35-4.22h-.9a9.37,9.37,0,0,1-2.73,6.15,5.4,5.4,0,0,0-1.22-1.42,1.59,1.59,0,0,1-.27.74,1.34,1.34,0,0,1-1,.65,9.48,9.48,0,0,1-1.52.07,4.49,4.49,0,0,0-.46-1.75c.46,0,.78.06,1,.06a.45.45,0,0,0,.44-.23c.19-.28.28-1.36.36-4.27h-.86c-.3,2.66-1,4.71-2.62,6.25a6.2,6.2,0,0,0-1.21-1.41,7.28,7.28,0,0,0,2-4.84h-1.4v-1.71h1.54c0-.55,0-1.14,0-1.75h.56a7.73,7.73,0,0,0-1.09-1.48v.19h-1.92v10.92h-2.14v-10.92h-2.09v-2h2.09v-4.73h2.14v4.73h1.92v1.78a5.49,5.49,0,0,0,3.57-2.86H808v-1.79h3.33c.09-.57.15-1.2.19-1.86h2.12a15.09,15.09,0,0,1-.21,1.86H818l-.06.76c-.21,2.73-.46,3.95-1,4.48a1.86,1.86,0,0,1-1.35.59,14,14,0,0,1-2.15,0,4.42,4.42,0,0,0-.57-1.88c.74.07,1.45.07,1.77.07a.71.71,0,0,0,.59-.17c.21-.21.38-.79.51-2.1H813a7.16,7.16,0,0,1-4.6,4.42h1.29c0,.61,0,1.2-.05,1.75h2.52s0,.51,0,.74a42.86,42.86,0,0,1-.3,5.64,6.82,6.82,0,0,0,2-4.67h-1.29v-1.71H814c0-.57,0-1.18,0-1.82h2c0,.62,0,1.23-.08,1.82Z"/><path d="M807.92,1667.81c1.46-.55,2.28-1.5,2.28-2.6H810a1.64,1.64,0,0,1-1.75-1.65,1.68,1.68,0,0,1,1.8-1.66c1.3,0,2,1,2,2.76a4.79,4.79,0,0,1-3.59,4.67Z"/><path d="M817.92,1683.51v4.42h-2.37v-2.26H804.28v2.26H802v-4.42h7.11a16.6,16.6,0,0,0-.82-2l2.2-.64a12.14,12.14,0,0,1,1.12,2.6Zm-4.26,12.67c1.47,0,1.7-.42,1.92-2.87a8.11,8.11,0,0,0,2.26.93c-.37,3.23-1.12,4.18-4.06,4.18h-5.11c-3.25,0-4.2-.74-4.2-3.34v-7.85h2.37v3.69a38.51,38.51,0,0,0,7.21-2.61l1.8,1.81a51.71,51.71,0,0,1-9,2.85V1695c0,1,.27,1.14,1.92,1.14Z"/><path d="M804.55,1710.68a41,41,0,0,0-3.56-2.06l1.24-1.67c1,.52,2.73,1.33,3.57,1.85Zm2.37,2.37c-1,2-2.2,4.14-3.34,6l-1.92-1.52a51.32,51.32,0,0,0,3.59-6Zm-1.4-7.43a39.57,39.57,0,0,0-3.4-2.22l1.32-1.6c1,.58,2.64,1.47,3.44,2Zm12.42,11.19c0,1.1-.19,1.67-.91,2a7.65,7.65,0,0,1-3.16.39,7.44,7.44,0,0,0-.68-2.13c.87.05,1.86.05,2.17,0s.37-.1.37-.35v-2.6c-1.89.51-3.87,1-5.45,1.41l-.66-1.86c1.58-.31,3.87-.82,6.11-1.35v-3.52h-6.11v3.8c0,2.13-.15,5-1.2,6.73a9.43,9.43,0,0,0-1.8-1.24c.87-1.54.93-3.7.93-5.49v-5.85h4.1v-5.3h2.28v5.3h4Zm-9.2-10.37a12.88,12.88,0,0,0-1.7-3.51l1.89-.84a13.08,13.08,0,0,1,1.87,3.42Zm2.06,3.1a18.46,18.46,0,0,1,4.25,1.52l-1,1.53a19.3,19.3,0,0,0-4.2-1.69Zm7.84-6.8a32.55,32.55,0,0,1-1.9,3.57l-2-.73a23,23,0,0,0,1.65-3.62Z"/><path d="M811.94,1732.53c1.33,2.56,3.66,4.29,7.2,5a8.23,8.23,0,0,0-1.52,2.15,11,11,0,0,1-7.55-5.91c-1.06,2.41-3.23,4.56-7.52,5.87a8.83,8.83,0,0,0-1.44-2c4-1.17,5.91-3.05,6.82-5.14h-6.46v-2.28h7.1a14.72,14.72,0,0,0,.15-2.28v-.72h-3.64a14.7,14.7,0,0,1-1.54,2.46,16.06,16.06,0,0,0-2.2-1.21,14.8,14.8,0,0,0,3.07-6.35l2.4.52c-.21.78-.46,1.54-.73,2.28h2.64v-3h2.38v3h5.83v2.3H811.1v.72a19.55,19.55,0,0,1-.11,2.28h7.56v2.28Z"/><path d="M817.81,1744.9a31.7,31.7,0,0,1-6.54,5.28v7.33c0,1.29-.3,1.9-1.23,2.24a12.84,12.84,0,0,1-4.13.38,8.06,8.06,0,0,0-.91-2.28c1.35.06,2.91,0,3.33,0s.57-.11.57-.44V1749a23.83,23.83,0,0,0,4.37-3.12h-11v-2.22h13.19l.49-.13Z"/><path d="M807.92,1781.41c1.46-.55,2.28-1.5,2.28-2.6H810a1.64,1.64,0,0,1-1.75-1.65,1.68,1.68,0,0,1,1.8-1.66c1.3,0,2,1,2,2.76a4.79,4.79,0,0,1-3.59,4.67Z"/><path d="M817.33,1798.44a9.17,9.17,0,0,1-1.56,3.09A9.54,9.54,0,0,0,819,1803a7.41,7.41,0,0,0-1.24,1.75,9.82,9.82,0,0,1-3.29-1.85,11.23,11.23,0,0,1-3.36,1.81,7.35,7.35,0,0,0-1.25-1.62,9,9,0,0,0,3.25-1.54,12.62,12.62,0,0,1-1.12-1.65,7.67,7.67,0,0,1-.82.87,16.3,16.3,0,0,0-1.16-1.29v1.94h-1.8a13.34,13.34,0,0,1,1.76,1.18l-.93,1.25a12.44,12.44,0,0,0-2-1.48v1.94h-2v-1.5a10.42,10.42,0,0,1-2.58,1.88,6.89,6.89,0,0,0-1.27-1.43,9.91,9.91,0,0,0,3.06-1.84H802v-3.61h3v-.64h-3.45v-1.58H805v-.91h2v.91h3.28v1.58H807v.64h3v1.12a9.3,9.3,0,0,0,2.36-4.22l2,.48c-.15.49-.32,1-.49,1.44h4.74v1.81Zm-6.27,11.68h7.6V1812H801.35v-1.86h2.82v-2.87h2.16v2.87h2.51v-3.57h-6.35v-1.82h15v1.82h-6.42v1H816v1.65h-4.9Zm-7.35-10H805v-1h-1.27Zm3.25-1v1h1.16v-1Zm.51,2.28H807v.63Zm5.62-3a8.06,8.06,0,0,0,1.24,1.8,6.72,6.72,0,0,0,.89-1.8Z"/><path d="M806.62,1815.77a39.39,39.39,0,0,1-1.45,3.74v13.33H803v-9.38c-.35.51-.71,1-1,1.42a18.23,18.23,0,0,0-1.1-2.43,21.5,21.5,0,0,0,3.65-7.31Zm1.44,13.88h-1.9v-11.79h1.9v1.33a9.5,9.5,0,0,0,3.23-4.09l2,.55c-.17.38-.34.78-.55,1.16h5.85v1.71h-.91a10.56,10.56,0,0,1-2.35,2.87,13.11,13.11,0,0,0,3.72,1.2,8.53,8.53,0,0,0-1.29,1.82,13.72,13.72,0,0,1-4.18-1.77,18.93,18.93,0,0,1-4.24,1.81,8.82,8.82,0,0,0-1.23-1.84,17.34,17.34,0,0,0,3.8-1.33,8.93,8.93,0,0,1-1.29-1.51,13,13,0,0,1-1.33,1.18,10.59,10.59,0,0,0-1.24-1.54Zm3.76-1.25a12.2,12.2,0,0,1-2.68,3.53,10.94,10.94,0,0,0-1.69-1.1,9.1,9.1,0,0,0,2.43-3Zm2.64-1.06v5.45h-2.09v-5.45h-3.51v-2h3.51v-1.62h2.09v1.62h3.86v2Zm-2.58-8.82a9.1,9.1,0,0,0,1.67,1.75,7.88,7.88,0,0,0,1.71-1.75Zm4.86,9.25a13.58,13.58,0,0,1,2.24,3.08l-1.74,1a14.37,14.37,0,0,0-2.15-3.23Z"/><path d="M818.39,1838.47s0,.76,0,1c-.25,8.49-.46,11.51-1.24,12.52a2.52,2.52,0,0,1-1.82,1,20.3,20.3,0,0,1-3,0,5.22,5.22,0,0,0-.74-2.21c1.22.12,2.34.12,2.83.12a1,1,0,0,0,.84-.32c.55-.61.8-3.46,1-10.17H812.2a15.86,15.86,0,0,1-1.67,3,14.41,14.41,0,0,0-1.46-1.06v8.87H804v1.39h-2V1838.6h2.15a20.35,20.35,0,0,0,.55-3.06l2.47.35c-.32.95-.66,1.9-1,2.71h3v3.08a19.55,19.55,0,0,0,2.56-6.12l2.15.5a23.07,23.07,0,0,1-.74,2.41ZM807,1840.58h-3v3.08h3Zm0,8.76v-3.73h-3v3.73Zm6.3-1a40.77,40.77,0,0,0-2.64-4.39l1.77-1a46.08,46.08,0,0,1,2.79,4.21Z"/><path d="M817.88,1858.31a14.57,14.57,0,0,1-2.64,5.11,12.32,12.32,0,0,0,3.93,2.11,8.83,8.83,0,0,0-1.4,1.89h0v6.21h-2.17V1873H812v.65H809.9v-6.18l-.43.19a7.34,7.34,0,0,0-.71-1.08v.55h-2.09v2.53l2.25-.52.21,2c-2.66.66-5.55,1.33-7.7,1.82l-.4-2.16.86-.16v-6.38h1.84v6l.95-.19V1863H802v-6.29h6.55v4.71a12.89,12.89,0,0,0,3.16-5.41l2.14.53c-.15.42-.3.86-.47,1.27h2.66l.4-.07ZM804,1861h2.51v-2.41H804Zm4.77,4.75a12.92,12.92,0,0,0,3.63-2.37,15.39,15.39,0,0,1-1.17-1.67c-.37.47-.75.91-1.13,1.31a10.23,10.23,0,0,0-1.52-1.29V1863h-1.9v2.22h2.09Zm7.43.9a15.51,15.51,0,0,1-2.37-1.73,15.89,15.89,0,0,1-2.34,1.73Zm-.63,4.42v-2.52H812v2.52Zm-3.07-11.4-.16.29a16.78,16.78,0,0,0,1.39,2,11.79,11.79,0,0,0,1.39-2.24Z"/><path d="M811.35,1891.69c.49,0,1,0,1.52,0,1.06,0,4.71,0,6.06,0a7.37,7.37,0,0,0-.76,2.16h-5.42c-3.47,0-5.83-.49-7.43-2.69a8.54,8.54,0,0,1-2.65,3,9.27,9.27,0,0,0-1.71-1.58,8.06,8.06,0,0,0,3.53-5.76l2.26.35c-.13.6-.28,1.17-.44,1.72a4.17,4.17,0,0,0,2.74,2.38v-4.83h-7.41v-2h16.75v2h-7v1.43h5.85v1.95h-5.85Zm5.24-8.06h-13.2V1877h13.2Zm-2.3-5h-8.7v1h8.7Zm0,2.45h-8.7v1h8.7Z"/><path d="M805.72,1907.54v4.61c0,1.06-.17,1.6-.77,1.94a5.24,5.24,0,0,1-2.65.42,7.75,7.75,0,0,0-.62-2c.64,0,1.31,0,1.54,0s.3-.07.3-.32v-4l-1.77.46-.59-2.15c.69-.13,1.49-.32,2.36-.53v-3.38h-2.11v-2.09h2.11v-3.59h2.2v3.59h1.79v2.09h-1.79v2.85l1.64-.4.26,2Zm13.26,4.1v2.13H807.19v-2.13h6.4a67,67,0,0,0,1.5-8.89l2.38.34c-.46,2.87-1.18,6.17-1.83,8.55Zm-.41-9.5H808V1900h4.24a19.36,19.36,0,0,0-.86-2.92l2.17-.54c.36.92.74,2.11.95,2.89l-2,.57h6Zm-8.17,9c-.16-2-.63-5.3-1.14-7.85l2-.44a72.67,72.67,0,0,1,1.31,7.7Z"/><path d="M818,1929.29a30.47,30.47,0,0,1-3.35,2.09,13.14,13.14,0,0,0,4.33,1.56,8.2,8.2,0,0,0-1.42,2,11.29,11.29,0,0,1-8.4-6.67h-2.71v4l4.16-.84a12.77,12.77,0,0,0-.19,2,52,52,0,0,0-6.1,1.48l-.12.09a9.77,9.77,0,0,0-1-2.24,1.68,1.68,0,0,0,1-1.46v-3.08h-2.77v-2h3.15v-8.4h12v1.84h-9.67v1h9.14v1.75h-9.14v1h9.14v1.75h-9.14v1h11.66v2h-2.05Zm-6.46-1a8.39,8.39,0,0,0,1.54,1.92,25.16,25.16,0,0,0,2.79-1.92Z"/><path d="M818.39,1940.6s0,.76,0,1c-.25,8.49-.46,11.51-1.24,12.52a2.56,2.56,0,0,1-1.82,1,22,22,0,0,1-3,0,5.22,5.22,0,0,0-.74-2.2c1.22.11,2.34.11,2.83.11a1,1,0,0,0,.84-.32c.55-.61.8-3.46,1-10.16H812.2a16.17,16.17,0,0,1-1.67,3,14.33,14.33,0,0,0-1.46-1.07v8.88H804v1.38h-2v-14.11h2.15a20.58,20.58,0,0,0,.55-3.06l2.47.34c-.32,1-.66,1.9-1,2.72h3v3.08a19.75,19.75,0,0,0,2.56-6.12l2.15.49a23.24,23.24,0,0,1-.74,2.42ZM807,1942.7h-3v3.08h3Zm0,8.76v-3.72h-3v3.72Zm6.3-1a39.82,39.82,0,0,0-2.64-4.39l1.77-1a46.13,46.13,0,0,1,2.79,4.22Z"/><path d="M807.59,1969.7c0-.24-.1-.53-.16-.85-4.29.7-5,.91-5.51,1.14a15.4,15.4,0,0,0-.74-2.11,3.68,3.68,0,0,0,1.66-1.22,15.14,15.14,0,0,0,1.36-1.5,8.77,8.77,0,0,0-2.35.44,14.74,14.74,0,0,0-.72-2.07,2.54,2.54,0,0,0,1.21-1A20.9,20.9,0,0,0,805,1958l2.15.91a27,27,0,0,1-2.94,4.43l1.48-.12a23.09,23.09,0,0,0,1.52-2.43l1.94,1.31a35.38,35.38,0,0,1-4.2,5.26l2.05-.28c-.15-.49-.31-1-.48-1.43l1.81-.47a23.92,23.92,0,0,1,1.21,3.93Zm-3.25,1.26a23.93,23.93,0,0,1-1.24,4.57,12.54,12.54,0,0,0-2-.68,15.88,15.88,0,0,0,1.2-4.31Zm2.18-.57a33.48,33.48,0,0,1,.65,3.91l-1.92.55a30.93,30.93,0,0,0-.53-4Zm2.13-.71a20.11,20.11,0,0,1,.93,2.55l-1.77.7a22.08,22.08,0,0,0-.87-2.66Zm10.22,3.1v2.2H808.65v-2.2h4.07v-11.09h-3.41v-2.23h9.24v2.23h-3.48v11.09Z"/><path d="M816.91,1990.83h-2.16l1.86.53c-.42.84-.82,1.69-1.22,2.41h3.23v1.9H806.83v-1.9h2.94a9.17,9.17,0,0,0-.76-2.37l1.94-.55a8.32,8.32,0,0,1,.89,2.54l-1.25.38h2.58a16.18,16.18,0,0,0,1.06-2.94H808.5v-4.12c-.33.24-.67.49-1,.7a8.32,8.32,0,0,0-1-1.37c-.09.31-.17.57-.24.82l-1.13-.46c0,.88,0,1.77-.13,2.64l.15-.11c.42.55,1.92,3,2.26,3.5l-1.57,1.53a24.81,24.81,0,0,0-1.24-2.48,11.75,11.75,0,0,1-2,4.59,6,6,0,0,0-1.35-1.4,14,14,0,0,0,2.11-7.75l-1.44.41a52,52,0,0,0-.95-5.18l1.5-.38c.34,1.27.7,2.83.91,4.06v-7.12h1.8v7.45a38.76,38.76,0,0,0,.65-4.43l1.61.53.71-.81c.38.22.83.55,1.27.83.17-.38.36-.8.51-1.23H807.7v-1.92h3l.36-.06,1.29.42a15.88,15.88,0,0,1-1.27,3.91h3.27a23.12,23.12,0,0,1-1.56-4.44l1.86-.4c.13.53.29,1,.44,1.48a11.67,11.67,0,0,0,1.06-1l1.43,1.46c-.63.42-1.26.84-1.83,1.18.12.29.27.53.4.78a10.59,10.59,0,0,0,1.37-1.14l1.44,1.52c-.64.34-1.23.7-1.8,1a8.84,8.84,0,0,0,1.9,1.54,5.15,5.15,0,0,0-1.39,1.74c-.26-.19-.53-.36-.78-.57Zm-8.49-6.95c-.38-.29-.78-.61-1.16-.88-.21.86-.42,1.73-.61,2.55A8.19,8.19,0,0,0,808.42,1983.88Zm2,1.38v-.74a12.32,12.32,0,0,1-1.24,1.56h7.14a10.93,10.93,0,0,1-1.42-1.75v.93Zm4.35,2.57h-4.28v1.25h4.28Z"/><path d="M807.92,2017.56c1.46-.55,2.28-1.5,2.28-2.6H810a1.64,1.64,0,0,1-1.75-1.65,1.68,1.68,0,0,1,1.8-1.66c1.3,0,2,1,2,2.76a4.79,4.79,0,0,1-3.59,4.67Z"/><path d="M817.94,2039.85a18.92,18.92,0,0,1-3.15,4.16c.51,1.46,1.1,2.34,1.67,2.34.4,0,.62-.91.72-3.16a5.66,5.66,0,0,0,1.86,1.3c-.36,3.32-1.06,4.16-2.79,4.16-1.39,0-2.45-1.14-3.27-3a19,19,0,0,1-3.51,2.32,10.18,10.18,0,0,0-1.5-1.82,19.67,19.67,0,0,0,4.23-2.68,35.2,35.2,0,0,1-1-5.09h-3.85v2.16l2.92-.53.17,2-3.09.63v3.25c0,1.23-.27,1.84-1,2.2a8.15,8.15,0,0,1-3.42.44,8.63,8.63,0,0,0-.8-2.28c1.07.06,2.17,0,2.51,0s.46-.1.46-.4v-2.75c-1.22.24-2.4.49-3.4.68l-.56-2.28c1.09-.17,2.46-.38,4-.65v-2.54h-3.59v-2.15h3.59v-2.16c-1,.17-2.07.3-3,.41a8.89,8.89,0,0,0-.65-1.9A47.6,47.6,0,0,0,809,2031l1.52,1.92c-1,.28-2,.53-3.09.76v2.56H811c-.15-1.71-.21-3.47-.22-5.2h2.37a46.75,46.75,0,0,0,.19,5.2h5.17v2.15h-4.94c.15,1.14.34,2.24.55,3.21a16,16,0,0,0,1.8-2.58Zm-1.39-4.18a15.11,15.11,0,0,0-2.69-3.13l1.7-1.16a16.63,16.63,0,0,1,2.82,3Z"/><path d="M811.84,2059.52h-3.27V2069h-2.09v-16.64c-.38,1.08-.81,2.2-1.31,3.28V2069H803v-9.5a14.28,14.28,0,0,1-1.18,1.55,15.8,15.8,0,0,0-1.08-2.43,21,21,0,0,0,3.76-7.33l2.09.63-.12.36h5.34Zm-3.27-5.53v1.08h1.56V2054Zm1.56,3.82v-1.13h-1.56v1.13Zm8.21,8.56c0,1.26-.27,1.87-1,2.19a9.88,9.88,0,0,1-3.76.42,8.53,8.53,0,0,0-.72-2.19c1.16.08,2.47.06,2.85,0s.49-.11.49-.48v-6.83H812.7v-7.24h5.64ZM814.48,2054v1.08h1.69V2054Zm1.69,3.82v-1.13h-1.69v1.13Z"/><path d="M808.06,2079.85a13.76,13.76,0,0,1-5.2,8.43,9.82,9.82,0,0,0-1.83-1.69,10.34,10.34,0,0,0,4.16-5.17h-3.68v-2.13h4.63l.4-.09Zm10.3-1.3a46.33,46.33,0,0,1-4.62,3.69,11.73,11.73,0,0,0,5.28,4.1,8.41,8.41,0,0,0-1.57,2,13,13,0,0,1-6.14-5.87v4.35c0,1.23-.25,1.84-1.07,2.22a9.23,9.23,0,0,1-3.53.38,8.6,8.6,0,0,0-.76-2.26c.95.06,2.13.06,2.47,0s.46-.12.46-.42v-9.06h-4.75v-2.17h7a40.2,40.2,0,0,0-5.57-1.92l1.12-1.84a34.3,34.3,0,0,1,7,2.32l-1.21,2.11c-.33-.19-.74-.4-1.2-.61v1.58a19.92,19.92,0,0,0,1.35,3.34,24.76,24.76,0,0,0,3.63-3.5Z"/><path d="M806.48,2101a23,23,0,0,1-1.5,4.94c.31.19.67.46,1.18.76,1.29.78,3.08.89,5.3.89a62.58,62.58,0,0,0,7.68-.49,8.78,8.78,0,0,0-.65,2.32c-1.58.09-4.92.23-7.14.23-2.53,0-4.13-.21-5.49-1-.8-.44-1.47-1.06-1.87-1.06s-1.11,1.29-1.57,2.37l-1.5-2.15a8.21,8.21,0,0,1,2-1.8,18.62,18.62,0,0,0,1.1-3.31H801.6c.44-1.12.95-2.64,1.37-4.12h-1.71v-2h4.45c-.4,1.35-.86,2.85-1.3,4.18h.76l.35-.08Zm-3.21-5c-.21-.88-.7-2.25-1-3.29l2-.59c.36,1,.84,2.28,1.1,3.13Zm10,6.47,1.52.71a13.72,13.72,0,0,0,1.31-1h-3.29a9.73,9.73,0,0,1-1.76,1.39v1.57l2.58-.59a7.43,7.43,0,0,0,.06,1.52c-3.54.93-4.13,1.16-4.49,1.41a4.59,4.59,0,0,0-.59-1.48,1,1,0,0,0,.65-1.05v-.45a16.29,16.29,0,0,1-2.2.81,10.66,10.66,0,0,0-1.2-1.61,16.29,16.29,0,0,0,4.2-1.52h-2.45V2098H817v3.92l1.31.83c-.67.48-1.39.91-2.05,1.29a19.26,19.26,0,0,1,2.22,1.37l-1.25,1.31a30.64,30.64,0,0,0-5.21-3.06Zm5.18-5.24H806.26v-1.61h4.84v-.84h-3.88v-1.58h3.88v-1.08h2.19v1.08h4v1.58h-4v.84h5.12Zm-3.57,2.22h-5.2v1.2h5.2Z"/><path d="M808.08,2122.61l-2.22.61v4.52c0,1.11-.21,1.66-.86,2a6,6,0,0,1-2.87.42,7.48,7.48,0,0,0-.64-2h1.78c.27,0,.36-.09.36-.36v-3.93l-2,.5-.59-2.15c.74-.15,1.65-.36,2.6-.59v-3.32h-2.35v-2.09h2.35v-3.59h2.23v3.59h2v2.09h-2V2121l1.95-.48Zm9.76-2.07a18.76,18.76,0,0,1-3.42,5.08c.52,1.06,1.14,1.69,1.88,1.8.44,0,.69-.87.82-2.91a7.61,7.61,0,0,0,1.88,1.32c-.49,3.51-1.52,4.4-2.58,4.31a4.79,4.79,0,0,1-3.78-2.81,15.52,15.52,0,0,1-3.55,2.33,8.7,8.7,0,0,0-1.83-1.74,15.52,15.52,0,0,0,4.49-2.78,32.05,32.05,0,0,1-1.07-5.64l-2.35.25-.23-2.17,2.39-.23c-.11-1.46-.19-3-.25-4.71h2.32c0,1.58.1,3.08.19,4.5l5.7-.55.21,2.11-5.72.57a30.26,30.26,0,0,0,.69,3.95,16.36,16.36,0,0,0,2.35-3.8Zm-2.12-3.8a27.4,27.4,0,0,0-2.43-2.88l1.7-1.12a31.07,31.07,0,0,1,2.55,2.73Z"/><path d="M812.64,2139.11a49.56,49.56,0,0,1,6.33,5.14l-1.92,1.73a44,44,0,0,0-5.82-5.14v9.84h-2.47v-9.27a22.63,22.63,0,0,1-6,4.67,12.9,12.9,0,0,0-1.56-2,19.9,19.9,0,0,0,8.19-7.47h-7.58v-2.32h16.47v2.32h-5.91a18.18,18.18,0,0,1-1.1,1.75v2Z"/><path d="M807.76,2167.36c1.19-.21,2.43-.42,3.62-.61l.12,1.94c-3.33.64-6.92,1.29-9.5,1.75l-.49-2.09c1.14-.16,2.56-.38,4.1-.63v-2.58h-3.46v-2h3.46v-1.69h2.15v1.69h3.42v2h-3.42Zm-6.06-12.84h9.87v1.93H808.9a22,22,0,0,1,2.64,4.05l-1.71,1.12c-.12-.28-.27-.61-.44-.95-5.24.44-6.06.53-6.61.76-.13-.45-.49-1.46-.72-2a1.87,1.87,0,0,0,.87-.8,15,15,0,0,0,1.18-2.13H801.7Zm6.65,4.42c-.37-.55-.75-1.08-1.11-1.56l1.6-.93h-2.28a21.84,21.84,0,0,1-1.65,2.68Zm6.06,7.7h-2.09v-11.48h2.09Zm3.74-13v14.71c0,1.19-.23,1.77-.95,2.13a8.36,8.36,0,0,1-3.29.41,8.87,8.87,0,0,0-.76-2.16c1,0,2,0,2.36,0s.43-.12.43-.44V2153.6Z"/><path d="M817.92,2176.23v4.43h-2.37v-2.26H804.28v2.26H802v-4.43h7.11a16.46,16.46,0,0,0-.82-1.95l2.2-.65a12.36,12.36,0,0,1,1.12,2.6Zm-4.26,12.67c1.47,0,1.7-.41,1.92-2.86a8.42,8.42,0,0,0,2.26.93c-.37,3.23-1.12,4.18-4.06,4.18h-5.11c-3.25,0-4.2-.74-4.2-3.35V2180h2.37v3.68a38.55,38.55,0,0,0,7.21-2.6l1.8,1.8a51.71,51.71,0,0,1-9,2.85v2.07c0,1,.27,1.14,1.92,1.14Z"/><path d="M807.92,2212.86c1.46-.55,2.28-1.5,2.28-2.6H810a1.64,1.64,0,0,1-1.75-1.65,1.68,1.68,0,0,1,1.8-1.65c1.3,0,2,1,2,2.75a4.79,4.79,0,0,1-3.59,4.67Z"/><path d="M818,2238.19a30.47,30.47,0,0,1-3.35,2.09,12.92,12.92,0,0,0,4.33,1.56,8.2,8.2,0,0,0-1.42,2,11.29,11.29,0,0,1-8.4-6.67h-2.71v4l4.16-.83a12.55,12.55,0,0,0-.19,2,52,52,0,0,0-6.1,1.48l-.12.1a9.84,9.84,0,0,0-1-2.25,1.66,1.66,0,0,0,1-1.46v-3.08h-2.77v-2h3.15v-8.4h12v1.85h-9.67v1h9.14v1.75h-9.14v1h9.14v1.74h-9.14v1h11.66v2h-2.05Zm-6.46-1a8.18,8.18,0,0,0,1.54,1.92,25.16,25.16,0,0,0,2.79-1.92Z"/><path d="M817.88,2248.91a14.57,14.57,0,0,1-2.64,5.11,12.32,12.32,0,0,0,3.93,2.11,8.65,8.65,0,0,0-1.4,1.9l0,0v6.21h-2.17v-.59H812v.65H809.9v-6.18l-.43.19a7.34,7.34,0,0,0-.71-1.08v.55h-2.09v2.53l2.25-.52.21,2c-2.66.66-5.55,1.33-7.7,1.82l-.4-2.16.86-.15v-6.39h1.84v6l.95-.19v-7.15H802v-6.29h6.55V2252a12.93,12.93,0,0,0,3.16-5.42l2.14.53c-.15.42-.3.86-.47,1.28h2.66l.4-.08ZM804,2251.62h2.51v-2.41H804Zm4.77,4.75a12.92,12.92,0,0,0,3.63-2.37,15.39,15.39,0,0,1-1.17-1.67c-.37.47-.75.91-1.13,1.31a10.23,10.23,0,0,0-1.52-1.29v1.21h-1.9v2.23h2.09Zm7.43.9a15.51,15.51,0,0,1-2.37-1.73,15.89,15.89,0,0,1-2.34,1.73Zm-.63,4.42v-2.52H812v2.52Zm-3.07-11.4-.16.29a16.86,16.86,0,0,0,1.39,2,12.18,12.18,0,0,0,1.39-2.25Z"/><path d="M808.35,2268.5c-.52,1.59-1.16,3.49-1.72,5a6,6,0,0,1,1.45,4,2.88,2.88,0,0,1-.87,2.48,2.27,2.27,0,0,1-1.09.42,6.47,6.47,0,0,1-1.27,0,4.36,4.36,0,0,0-.49-1.94,6.44,6.44,0,0,0,.85,0,.91.91,0,0,0,.55-.15,1.45,1.45,0,0,0,.34-1.14,5.34,5.34,0,0,0-1.38-3.48c.38-1.14.8-2.68,1.12-3.93h-1.79v14.95h-2.11v-17h4.62l.32-.1Zm10.52,13.58v2.09H807v-2.09h1.9V2268h8.51v14.13ZM811,2270v2.56h4.13V2270Zm4.13,4.59H811v2.66h4.13Zm-4.13,7.45h4.13v-2.75H811Z"/><path d="M807.13,2297.41c-.61.19-1.22.38-1.82.55v4.81c0,1.05-.18,1.62-.75,2a4.91,4.91,0,0,1-2.64.41,8.57,8.57,0,0,0-.55-2.08c.67,0,1.33,0,1.56,0s.32-.07.32-.32v-4.2c-.62.19-1.25.36-1.8.51l-.49-2.16c.64-.13,1.44-.34,2.29-.55v-3.29h-2V2291h2v-3.57h2.06V2291H807v2.07h-1.73v2.74l1.53-.44Zm11.47-7v3.46h-1.74v3.29h-7.81v-3.29h-1.71v-3.46H809a11.67,11.67,0,0,0-1-2.16l1.8-.65A9.89,9.89,0,0,1,811,2290l-1.1.41h1.9v-2.94h2.14v2.94h1.79l-.91-.32a19.11,19.11,0,0,0,1.08-2.52l2.15.64c-.5.8-1,1.6-1.39,2.2Zm-10.71,7.49H818v7.29h-2.15v-.6h-5.93v.6h-2.05Zm8.62-5.76h-7.18v.93h7.18Zm-6.57,7.39v.95h1.9v-.95Zm1.9,3.42V2302h-1.9v.93Zm2.95-8.38H811v1.09h3.8Zm1.08,5h-2.09v.95h2.09Zm0,3.42V2302h-2.09v.93Z"/><path d="M817.94,2316.85a18.92,18.92,0,0,1-3.15,4.16c.51,1.46,1.1,2.34,1.67,2.34.4,0,.62-.91.72-3.16a5.66,5.66,0,0,0,1.86,1.3c-.36,3.32-1.06,4.16-2.79,4.16-1.39,0-2.45-1.14-3.27-3a19,19,0,0,1-3.51,2.32,10.18,10.18,0,0,0-1.5-1.82,19.67,19.67,0,0,0,4.23-2.68,35.2,35.2,0,0,1-1-5.09h-3.85v2.16l2.92-.53.17,2.05-3.09.63v3.25c0,1.23-.27,1.84-1,2.2a8.15,8.15,0,0,1-3.42.44,8.63,8.63,0,0,0-.8-2.28c1.07.06,2.17,0,2.51,0s.46-.1.46-.4v-2.75c-1.22.24-2.4.49-3.4.68l-.56-2.28c1.09-.17,2.46-.38,4-.65v-2.54h-3.59v-2.15h3.59v-2.16c-1,.17-2.07.3-3,.41a8.89,8.89,0,0,0-.65-1.9A47.6,47.6,0,0,0,809,2308l1.52,1.92c-1,.28-2,.53-3.09.76v2.56H811c-.15-1.71-.21-3.47-.22-5.2h2.37a46.75,46.75,0,0,0,.19,5.2h5.17v2.15h-4.94c.15,1.14.34,2.24.55,3.21a16,16,0,0,0,1.8-2.58Zm-1.39-4.18a15.11,15.11,0,0,0-2.69-3.13l1.7-1.16a16.63,16.63,0,0,1,2.82,3Z"/><path d="M811.84,2336.52h-3.27V2346h-2.09v-16.64c-.38,1.08-.81,2.2-1.31,3.28V2346H803v-9.5a15.5,15.5,0,0,1-1.18,1.56,15.47,15.47,0,0,0-1.08-2.44,21,21,0,0,0,3.76-7.33l2.09.63-.12.36h5.34Zm-3.27-5.53v1.08h1.56V2331Zm1.56,3.82v-1.12h-1.56v1.12Zm8.21,8.56c0,1.26-.27,1.87-1,2.19a9.88,9.88,0,0,1-3.76.42,8.53,8.53,0,0,0-.72-2.19c1.16.08,2.47.06,2.85,0s.49-.11.49-.47v-6.84H812.7v-7.24h5.64ZM814.48,2331v1.08h1.69V2331Zm1.69,3.82v-1.12h-1.69v1.12Z"/><path d="M807.92,2367.31c1.46-.55,2.28-1.5,2.28-2.6H810a1.64,1.64,0,0,1-1.75-1.65,1.68,1.68,0,0,1,1.8-1.65c1.3,0,2,1,2,2.75a4.79,4.79,0,0,1-3.59,4.67Z"/><path d="M807.26,2381.34a33.32,33.32,0,0,1-1.88,4v12.92h-2.16v-9.57c-.4.51-.8,1-1.18,1.38a14,14,0,0,0-1.24-2.35,19.44,19.44,0,0,0,4.33-7.11Zm8.23,14.8c1.12,0,1.33-.48,1.46-2.61a6.86,6.86,0,0,0,2,.84c-.29,2.83-1,3.78-3.29,3.78h-4.31c-2.64,0-3.4-.68-3.4-3.32v-5.32l-1.45.57-.85-2,2.3-.89v-4.48h2.12v3.62l1.9-.74v-4.92h2v4.12l2.54-1,.19-.14,1.69.52-.07.36a71.59,71.59,0,0,1-.76,8.64l-1.87-.53c.21-1.6.35-4.1.42-6.42l-2.14.87v6.73h-2v-6l-1.9.78v6.16c0,1.12.19,1.31,1.45,1.31Z"/><path d="M818.45,2403.64v2.17H808.29a22.34,22.34,0,0,1-2.22,3.74v9.2h-2.3v-6.62a14.12,14.12,0,0,1-1.67,1.33,15.54,15.54,0,0,0-1.13-2.18,14.48,14.48,0,0,0,4.74-5.47h-4.13v-2.17h5.13c.33-.89.61-1.76.84-2.64l2.37.57c-.21.71-.45,1.39-.72,2.07Zm-4.56,12.56h4.5v2.09H807v-2.09h4.59v-4.33h-3.85v-2.09h3.85v-3.15h2.28v3.15h3.76v2.09h-3.76Z"/><path d="M811.63,2431.14a8.44,8.44,0,0,1-.47.89h7.22l-.06.76c-.19,3.65-.44,5.15-.91,5.68a1.72,1.72,0,0,1-1.16.66,12.22,12.22,0,0,1-1.83.06,4.51,4.51,0,0,0-.49-1.86,11.64,11.64,0,0,0,1.22.08.57.57,0,0,0,.53-.23c.23-.27.4-1.18.55-3.4h-.46a13.5,13.5,0,0,1-3.74,5.35,14,14,0,0,0-1.39-1.25,10.23,10.23,0,0,0,3.18-4.1h-1a13.9,13.9,0,0,1-4.64,5,13.12,13.12,0,0,0-1.23-1.4,10.84,10.84,0,0,0,3.83-3.57h-.91a10.88,10.88,0,0,1-2.12,1.92,11.72,11.72,0,0,0-1.17-1.2,3,3,0,0,1-1,.34,7.65,7.65,0,0,1-1.22,0,4.87,4.87,0,0,0-.49-1.92c.34,0,.61,0,.83,0a1.08,1.08,0,0,0,.54-.17c.21-.15.28-.53.28-1.07a5.1,5.1,0,0,0-1.31-3.32c.38-1.2.78-2.85,1.08-4.14h-1.48v14.91h-2v-16.93H806l.32-.09,1.48.85c-.49,1.62-1.12,3.69-1.65,5.17a5.85,5.85,0,0,1,1.39,3.82,4.39,4.39,0,0,1-.29,1.73,9.14,9.14,0,0,0,2.28-2.6h-2v-1.77h11.3v1.77Zm5.91-2.51h-8.49v-6.5h8.49Zm-2.16-4.9h-4.32v.91h4.32Zm0,2.39h-4.32v.93h4.32Z"/><path d="M818.43,2442.82v1.39h-7.35v.63h5.81v1.31H803.16v-1.31h5.64v-.63h-7.18v-1.39h7.18v-1h2.28v1Zm-7.35,14.88h7.24v1.52H801.75v-1.52h7v-.61h-5.2v-1.33h5.2v-.55c-3.25.07-3.82.13-4.24.26-.07-.3-.3-1-.45-1.4a5,5,0,0,0,1-.25,9.6,9.6,0,0,0,1.29-.55H803.8V2453h-2v-2.83h16.38V2453h-2.13v-1.43H803.84v.55H816v1.2h-1.35a17.86,17.86,0,0,1,2.11,1.46l-1.23,1h1.12v1.33h-5.57Zm5.22-11v2.87H803.84v-2.87Zm-2.22,1.1h-8.17v.66h8.17Zm-5.24,5.47c-.44.27-.86.51-1.27.72l5.2-.07-1-.57.09-.08Zm2.24,2.49h4.26c-.23-.21-.54-.46-.86-.7l-3.4.09Z"/><path d="M808.08,2472.37l-2.22.6v4.53c0,1.1-.21,1.65-.86,2a6,6,0,0,1-2.87.42,7.48,7.48,0,0,0-.64-2c.76,0,1.54,0,1.78,0s.36-.1.36-.36v-3.94l-2,.5-.59-2.15c.74-.15,1.65-.36,2.6-.59V2468h-2.35v-2.09h2.35v-3.59h2.23v3.59h2V2468h-2v2.77l1.95-.48Zm9.76-2.08a18.76,18.76,0,0,1-3.42,5.08c.52,1.06,1.14,1.69,1.88,1.8.44,0,.69-.87.82-2.9a7.83,7.83,0,0,0,1.88,1.31c-.49,3.51-1.52,4.4-2.58,4.31a4.79,4.79,0,0,1-3.78-2.81,15.52,15.52,0,0,1-3.55,2.33,8.7,8.7,0,0,0-1.83-1.74,15.52,15.52,0,0,0,4.49-2.78,32.05,32.05,0,0,1-1.07-5.64l-2.35.25-.23-2.17,2.39-.23c-.11-1.46-.19-3-.25-4.71h2.32c0,1.58.1,3.08.19,4.5l5.7-.55.21,2.11-5.72.57a30.26,30.26,0,0,0,.69,3.95,16.15,16.15,0,0,0,2.35-3.8Zm-2.12-3.79a26.46,26.46,0,0,0-2.43-2.89l1.7-1.12a31.07,31.07,0,0,1,2.55,2.73Z"/><path d="M812.09,2492.24c-.72.36-1.46.68-2.22,1h7v7.2H814.6v-.5h-7.26v.5h-2.21v-5.57c-1,.3-2.08.57-3.13.82a13.07,13.07,0,0,0-1-1.79,46.24,46.24,0,0,0,6.37-1.67h-5.82v-1.94h6.12v-1.08h-4.56v-1.84h4.56v-1.05h2.24v1.05h4.18V2489a13.9,13.9,0,0,0,2.49-2.07l1.67,1.07a20.07,20.07,0,0,1-2.83,2.35h3.1v1.94Zm-7.11-6.55h-3.43v-1.94H805v-1h2.24v1h2.42v1.94h-2.42v1.15H805Zm9.62,9.27h-7.26v.93h7.26Zm0,3.28v-.95h-7.26v.95Zm-4.68-7.94h2c.63-.34,1.25-.7,1.84-1.08h-3.82Zm3-4.61h-2.56v-1.94h2.56v-1h2.25v1h3.28v1.94h-3.28v1.15H812.9Z"/><path d="M816.17,2519c.61,0,.74-.19.82-1.48a6.15,6.15,0,0,0,1.86.68c-.23,2-.8,2.49-2.45,2.49h-2.79c-2.26,0-2.83-.49-2.83-2.18v-.86h-2.09c-.57,1.9-2.06,2.83-6.61,3.29a6.15,6.15,0,0,0-1-1.71c3.62-.21,4.8-.63,5.3-1.58h-2v-6.4h11v6.4H813v.84c0,.47.15.51.91.51ZM803.71,2512h-2v-2.83h2.09l-.3-4.51h0a24.26,24.26,0,0,0,3.44-1.54l1.2.95a23.47,23.47,0,0,1-2.61,1.1l0,.45h2v1.18h-1.88l.06.59h1.88v1.18h-1.81l0,.61h2.64c-.23-.23-.53-.52-.74-.69a11.12,11.12,0,0,0,1.48-.81c-.32-.21-.64-.42-.95-.59l.86-.76c.34.17.66.38,1,.6a5.24,5.24,0,0,0,.72-.81l.08,0a8.16,8.16,0,0,0-.82-.69,8,8,0,0,1-1.44.9,8.83,8.83,0,0,0-.93-.88,10.22,10.22,0,0,0,1.35-.72c-.29-.17-.57-.34-.84-.47l.86-.76c.3.15.6.34.93.53a5.16,5.16,0,0,0,.72-.78l1.2.34a6.14,6.14,0,0,1-.92,1.06c.31.23.57.46.78.65l-.83.84,1.1.28a9.27,9.27,0,0,1-1,1.18,8.85,8.85,0,0,1,.93.78l-.82.78h3.12l0-.61h-1.9v-1.18h2l0-.59h-2v-1.18h2l0-.58h-2.3v-1.32h4.35c-.06,1.77-.15,3.92-.31,5.46h2V2512h-2.09v-1.43h-12.5Zm2.89.95h6.59v-.63H806.6Zm0,1.71h6.59v-.63H806.6Zm0,1.76h6.59v-.66H806.6Zm4.5-7.25a7.17,7.17,0,0,0-.89-.78c-.38.28-.76.55-1.14.78Z"/><path d="M800.86,2532.29a23.72,23.72,0,0,0,.91-5l1.67.23a23.47,23.47,0,0,1-.83,5.36Zm5.72-1.21a26.71,26.71,0,0,0-.87-2.53v12.77h-2.17v-17.75h2.17v3.57l1-.43a30.51,30.51,0,0,1,1.44,3.63Zm12.25.38v1.93H807.22v-1.93h2.65c.13-.61.26-1.28.39-2H808v-1.9h2.53c.07-.47.15-.95.23-1.41h-3.2v-1.89h10.72v1.89h-5.26c-.08.46-.16.94-.23,1.41h2.47l.36-.09,1.63.09c0,1.31-.13,2.68-.26,3.88Zm-10.66,3h9.5v6.76h-2.18v-.63h-5.23v.69h-2.09Zm2.09,1.93v2.26h5.23v-2.26Zm2.23-6.95c-.14.72-.27,1.37-.38,2h2.73c.06-.67.1-1.33.13-2Z"/><path d="M807.92,2562.61c1.46-.55,2.28-1.5,2.28-2.6H810a1.64,1.64,0,0,1-1.75-1.65,1.68,1.68,0,0,1,1.8-1.65c1.3,0,2,1,2,2.75a4.79,4.79,0,0,1-3.59,4.67Z"/><path d="M817.88,2578.23a14.4,14.4,0,0,1-2.64,5.11,11.94,11.94,0,0,0,3.93,2.11,8.89,8.89,0,0,0-1.4,1.9l0,0v6.22h-2.17V2593H812v.64H809.9v-6.17l-.43.19a7.34,7.34,0,0,0-.71-1.08v.55h-2.09v2.52l2.25-.51.21,2c-2.66.66-5.55,1.32-7.7,1.82l-.4-2.17.86-.15v-6.38h1.84v6l.95-.19v-7.14H802v-6.29h6.55v4.71a12.89,12.89,0,0,0,3.16-5.41l2.14.53c-.15.42-.3.85-.47,1.27h2.66l.4-.07ZM804,2581h2.51v-2.41H804Zm4.77,4.75a13.14,13.14,0,0,0,3.63-2.37,15.49,15.49,0,0,1-1.17-1.68,15,15,0,0,1-1.13,1.31,10.23,10.23,0,0,0-1.52-1.29v1.22h-1.9v2.22h2.09Zm7.43.89a14.28,14.28,0,0,1-2.37-1.73,14.58,14.58,0,0,1-2.34,1.73Zm-.63,4.43v-2.53H812V2591Zm-3.07-11.4-.16.29a16.78,16.78,0,0,0,1.39,2,11.79,11.79,0,0,0,1.39-2.24Z"/><path d="M816.91,2608.63h-2.16l1.86.54c-.42.83-.82,1.69-1.22,2.41h3.23v1.9H806.83v-1.9h2.94a9.12,9.12,0,0,0-.76-2.38l1.94-.55a8.37,8.37,0,0,1,.89,2.55l-1.25.38h2.58a16.55,16.55,0,0,0,1.06-2.95H808.5v-4.12c-.33.25-.67.49-1,.7a7.87,7.87,0,0,0-1-1.36l-.24.81-1.13-.45c0,.87,0,1.76-.13,2.64l.15-.12c.42.55,1.92,3,2.26,3.5l-1.57,1.54a23.85,23.85,0,0,0-1.24-2.49,11.85,11.85,0,0,1-2,4.6,5.86,5.86,0,0,0-1.35-1.41c1.6-2.26,2-5,2.11-7.75l-1.44.42A52.13,52.13,0,0,0,801,2600l1.5-.38c.34,1.27.7,2.83.91,4.07v-7.13h1.8V2604a38.44,38.44,0,0,0,.65-4.43l1.61.53.71-.81c.38.23.83.55,1.27.83.17-.38.36-.79.51-1.23H807.7v-1.92h3l.36-.06,1.29.42a16.1,16.1,0,0,1-1.27,3.92h3.27a23.24,23.24,0,0,1-1.56-4.45l1.86-.4c.13.53.29,1,.44,1.48a11.67,11.67,0,0,0,1.06-1l1.43,1.47c-.63.42-1.26.83-1.83,1.18.12.28.27.53.4.77a9.84,9.84,0,0,0,1.37-1.14l1.44,1.52c-.64.35-1.23.71-1.8,1a8.84,8.84,0,0,0,1.9,1.54,5.18,5.18,0,0,0-1.39,1.75c-.26-.19-.53-.36-.78-.57Zm-8.49-7c-.38-.29-.78-.61-1.16-.87-.21.85-.42,1.72-.61,2.54A8.19,8.19,0,0,0,808.42,2601.68Zm2,1.39v-.74a11.54,11.54,0,0,1-1.24,1.55h7.14a11.3,11.3,0,0,1-1.42-1.74v.93Zm4.35,2.56h-4.28v1.25h4.28Z"/><path d="M804.83,2627.52c-.57,2.07-1.29,4.2-2,6l-1.92-.89a57,57,0,0,0,2.16-6Zm-1.63-4.43a50.26,50.26,0,0,0-2-4.61l1.75-.84c.72,1.39,1.67,3.27,2.13,4.43Zm12.84,9.16a5.4,5.4,0,0,0,1.18.13c.36,0,1.48,0,1.93,0a6.2,6.2,0,0,0-.55,1.9h-1.5a4.36,4.36,0,0,1-4.33-2.58,6.75,6.75,0,0,1-1.27,2.79,1.46,1.46,0,0,1-.51-2.71l-1.31,1.29a13.49,13.49,0,0,0-1.28-1.37,7.49,7.49,0,0,1-2.62,2.85,5.57,5.57,0,0,0-1.44-1.33,6,6,0,0,0,2.79-3.59h-2v-1.77h2.26c0-.17,0-.36,0-.51V2626h-.55a14.63,14.63,0,0,1-.83,1.8,12.14,12.14,0,0,0-1.5-1,13.6,13.6,0,0,0,1.48-4l1.73.44c-.08.29-.15.59-.25.89H811V2626h-1.6v1.82h1.75v1.77h-2l-.07.32a20.79,20.79,0,0,1,1.94,1.81,17.83,17.83,0,0,0,.7-5.59h1.61c0,.89-.05,1.77-.11,2.57a6.79,6.79,0,0,0,.85,2.09v-5.74h-2.71v-1.92h4a30.2,30.2,0,0,0-3.12-2.17l1.25-1.27,1.07.63c.36-.44.7-.89,1-1.37h-4v-1.82h5.32l.42-.14,1.37,1a22.22,22.22,0,0,1-2.53,3.38l1.05.78-.9,1h1.07l.28-.06,1.24.25c-.17,1.16-.4,2.53-.63,3.4l-1.5-.3c.06-.38.13-.86.19-1.37H816v2.56h2.53v1.79H816Zm-8.44-9.31c-1.86,0-2.28-.72-2.28-2.47v-3.7h2v1.48h3.53v1.59h-3.53v.65c0,.55.06.74.46.74h1.74a5.81,5.81,0,0,0,1.31-.13c.06.53.1,1.23.18,1.71a6.26,6.26,0,0,1-1.41.13Z"/><path d="M802.67,2640.88h-1.43V2639h3.63c-.17-.46-.38-.92-.55-1.3l2-.56a13.45,13.45,0,0,1,.82,1.86h2.6v1.57a9.79,9.79,0,0,0,2.41-3.32l2.15.36c-.13.3-.28.57-.44.87h3.31l.4-.05,1.37.45c-1.16,4.81-4.09,6.92-8.32,8a7.22,7.22,0,0,0-1.07-1.69,11.47,11.47,0,0,0,2.51-.76c-.44-.53-1-1.18-1.58-1.76-.19.15-.38.3-.57.43a5.83,5.83,0,0,0-1.54-1.4c.34-.25.69-.5,1-.76h-4.65v2.67c0,.59.07.78.55.78h2.43a7.42,7.42,0,0,0,1.52-.13,17.72,17.72,0,0,0,.19,1.86,5.69,5.69,0,0,1-1.65.15h-2.47c-2.11,0-2.64-.72-2.64-2.69Zm8.45,11.85h7.31v1.86H801.56v-1.86h7.26v-1h-6.23v-1.78h6.23v-1c-2,.1-3.91.15-5.74.15a6.62,6.62,0,0,0-.47-1.8,103.23,103.23,0,0,0,13.92-1.07l.94,1.85a60.6,60.6,0,0,1-6.35.72v1.16h6.42v1.78h-6.42Zm2.45-9.18a6.43,6.43,0,0,0,.84-.64,26.88,26.88,0,0,0-2.32-1.84c-.13.15-.31.32-.46.49C812.28,2642.21,813,2643,813.57,2643.55Zm-.28-3.38c.72.52,1.51,1.07,2.16,1.58a6.63,6.63,0,0,0,.85-1.58Z"/><path d="M812.09,2667.12c-.72.36-1.46.68-2.22,1h7v7.2H814.6v-.49h-7.26v.49h-2.21v-5.56c-1,.3-2.08.57-3.13.81a13.58,13.58,0,0,0-1-1.78,46.24,46.24,0,0,0,6.37-1.67h-5.82v-1.94h6.12v-1.09h-4.56v-1.84h4.56v-1h2.24v1h4.18v1.58a14.33,14.33,0,0,0,2.49-2.07l1.67,1.06a19.46,19.46,0,0,1-2.83,2.36h3.1v1.94Zm-7.11-6.56h-3.43v-1.94H805v-1h2.24v1h2.42v1.94h-2.42v1.16H805Zm9.62,9.27h-7.26v.93h7.26Zm0,3.29v-.95h-7.26v.95Zm-4.68-7.94h2c.63-.34,1.25-.71,1.84-1.09h-3.82Zm3-4.62h-2.56v-1.94h2.56v-1h2.25v1h3.28v1.94h-3.28v1.16H812.9Z"/><path d="M817.88,2680.36a14.57,14.57,0,0,1-2.64,5.11,12.32,12.32,0,0,0,3.93,2.11,8.89,8.89,0,0,0-1.4,1.9l0,0v6.21h-2.17v-.59H812v.65H809.9v-6.18l-.43.19a7.34,7.34,0,0,0-.71-1.08v.55h-2.09v2.53l2.25-.51.21,2c-2.66.67-5.55,1.33-7.7,1.82l-.4-2.16.86-.15v-6.39h1.84v6l.95-.19V2685H802v-6.28h6.55v4.71a12.93,12.93,0,0,0,3.16-5.42l2.14.53c-.15.42-.3.86-.47,1.28h2.66l.4-.08ZM804,2683.08h2.51v-2.42H804Zm4.77,4.75a13.18,13.18,0,0,0,3.63-2.38,15.39,15.39,0,0,1-1.17-1.67c-.37.47-.75.91-1.13,1.31a10.23,10.23,0,0,0-1.52-1.29V2685h-1.9v2.23h2.09Zm7.43.89a14.87,14.87,0,0,1-2.37-1.73,15.21,15.21,0,0,1-2.34,1.73Zm-.63,4.42v-2.52H812v2.52Zm-3.07-11.39-.16.28a16.86,16.86,0,0,0,1.39,2,12.11,12.11,0,0,0,1.39-2.24Z"/></svg>