<svg id="圖層_1" data-name="圖層 1" xmlns="http://www.w3.org/2000/svg" viewBox="0 0 1620 4454.73"><defs><style>.cls-1{fill:#ffc331;}</style></defs><rect class="cls-1" width="1620" height="4454.73"/><path d="M877.94,75.37a18.88,18.88,0,0,1-3.16,4.16c.52,1.46,1.11,2.34,1.68,2.34.39,0,.62-.92.72-3.16A5.48,5.48,0,0,0,879,80c-.36,3.33-1.06,4.17-2.79,4.17-1.39,0-2.45-1.14-3.27-3a19.56,19.56,0,0,1-3.51,2.32A10.26,10.26,0,0,0,868,81.66,19.49,19.49,0,0,0,872.2,79a35.2,35.2,0,0,1-1-5.09h-3.85v2.16l2.92-.53.17,2-3.09.63v3.25c0,1.23-.27,1.84-1,2.2a8.15,8.15,0,0,1-3.42.44,8.63,8.63,0,0,0-.8-2.28c1.07.06,2.17,0,2.51,0s.46-.1.46-.4V78.67c-1.22.25-2.4.5-3.4.69l-.56-2.28c1.09-.17,2.46-.38,4-.65V73.89h-3.59V71.74h3.59V69.58c-1,.17-2.08.3-3,.41a8.89,8.89,0,0,0-.65-1.9A49,49,0,0,0,869,66.5l1.52,1.92c-1,.28-2,.53-3.09.76v2.56H871c-.15-1.71-.21-3.48-.22-5.2h2.37a46.75,46.75,0,0,0,.19,5.2h5.17v2.15h-4.94c.15,1.14.34,2.24.55,3.21a15.6,15.6,0,0,0,1.8-2.59Zm-1.39-4.18a14.88,14.88,0,0,0-2.7-3.13l1.71-1.16a15.9,15.9,0,0,1,2.81,3Z"/><path d="M871.35,102.08c.49,0,1,.06,1.52.06,1.06,0,4.71,0,6.06-.06a7.33,7.33,0,0,0-.76,2.17h-5.42c-3.48,0-5.83-.5-7.43-2.7a8.47,8.47,0,0,1-2.66,3A9,9,0,0,0,861,103a8,8,0,0,0,3.54-5.75l2.26.34c-.13.61-.29,1.18-.44,1.73a4.18,4.18,0,0,0,2.74,2.37V96.86h-7.41v-2h16.75v2h-7v1.42h5.85v2h-5.85Zm5.24-8h-13.2V87.44h13.2Zm-2.3-5h-8.7v1h8.7Zm0,2.45h-8.7v1h8.7Z"/><path d="M874.18,112a9.59,9.59,0,0,0,4.94,4.79,10.11,10.11,0,0,0-1.64,1.88,14.52,14.52,0,0,1-1.84-1.25v.09c-.23,4.14-.48,5.85-1,6.5a2.22,2.22,0,0,1-1.59.76,19.79,19.79,0,0,1-2.55,0,4.65,4.65,0,0,0-.68-2.09c.91.09,1.8.09,2.2.09a.89.89,0,0,0,.71-.23c.3-.3.51-1.4.66-3.91h-3.63c-.57,2.83-1.94,5-6.61,6.33a7.32,7.32,0,0,0-1.27-2c3.93-.89,5-2.45,5.41-4.37h-2.83v-1.08a14.54,14.54,0,0,1-1.67,1.19,13.83,13.83,0,0,0-1.81-1.67,10.65,10.65,0,0,0,4.72-4.52l2.28.67a13.54,13.54,0,0,1-2.49,3.38h9.34a13.7,13.7,0,0,1-2.07-2.62h-4.06v-2Zm-9.2-1.63h-3.44v-2H865v-1.13h2.24v1.13h2.42v2h-2.42v1.25H865Zm7.92,0h-2.56v-2h2.56v-1.13h2.24v1.13h3.29v2h-3.29v1.31H872.9Z"/><path d="M807.58,72.06a18.64,18.64,0,0,1-1.27,6.79,23.67,23.67,0,0,1,2.22,2.37l-1.31,1.84c-.47-.62-1.16-1.42-1.93-2.26A13,13,0,0,1,802.42,84,6.78,6.78,0,0,0,801,82.53a11.68,11.68,0,0,0,2.89-3.19c-.85-.89-1.75-1.73-2.51-2.47a41.54,41.54,0,0,0,.91-4.45l-1,.06-.21-2,1.5-.06c.19-1.35.32-2.7.4-3.89l2,.07c-.09,1.16-.24,2.45-.41,3.71l1.15-.06V69h1.9v1.11l.93-.06V72Zm-2.81,5.32a16,16,0,0,0,.9-5.18l-1.45.11c-.23,1.37-.49,2.68-.76,3.88Zm11,4.45c.9,0,1.07-.44,1.2-2.4a6.45,6.45,0,0,0,1.94.82c-.29,2.68-.93,3.63-2.95,3.63h-3.63c-2.35,0-3-.67-3-3.25V75.08l-1,.35-.56-2.11,1.52-.5V68.09h2.06v4l1.42-.47v-5h2V71l1.71-.57.4-.28,1.69.55-.08.34a62.75,62.75,0,0,1-.78,8.17l-1.82-.52c.19-1.5.32-3.83.38-6l-1.5.51v6.14h-2V73.89l-1.42.49v6.27c0,1,.15,1.18,1.17,1.18Z"/><path d="M808.25,91.2a14.09,14.09,0,0,1-.76,1.5h8.83v9.38c0,1.12-.21,1.73-1,2.07a8.45,8.45,0,0,1-3.37.38,9.46,9.46,0,0,0-.68-2.18c1,.06,2.07.06,2.39.06s.44-.12.44-.38v-1.14H807a6.68,6.68,0,0,1-2.11,3.78,7.71,7.71,0,0,0-1.64-1.73c1.64-1.43,1.77-3.46,1.77-5.23V96.17a15.15,15.15,0,0,1-2.36,2.08,12.45,12.45,0,0,0-1.48-1.75,14.41,14.41,0,0,0,4.56-5.3H801.6V89.07h5.09a22.07,22.07,0,0,0,.76-2.3l2.34.53c-.19.59-.4,1.18-.61,1.77h9.27V91.2Zm5.87,7.8V97.77H807.3c0,.4,0,.8,0,1.23Zm0-4.31H807.3v1.2h6.82Z"/><path d="M807.68,121.29h-3.86V123h-2.09V108.37h5.95Zm-3.86-10.9v3.34h1.75v-3.34Zm1.75,8.89v-3.57h-1.75v3.57Zm8.95-8.06V113h3.76v2h-1.39v1.49h1.83v2h-1.83v4.14c0,1.09-.21,1.66-1,2a8.38,8.38,0,0,1-3.17.38,8.18,8.18,0,0,0-.7-2.13c.91,0,2,0,2.24,0s.4-.08.4-.34v-4.09H808v-2h6.65V115h-6.06v-2h3.67v-1.81H808v-2h4.28v-2h2.22v2h4.27v2Zm-3.86,7.47a23.35,23.35,0,0,1,2.28,3l-2,1.16a26.23,26.23,0,0,0-2.19-3.19Z"/><path d="M806.58,128.3a39.67,39.67,0,0,1-1.47,4v13.12H803v-9.15c-.31.45-.61.87-.91,1.25a15.24,15.24,0,0,0-1.11-2.43,21.87,21.87,0,0,0,3.54-7.35ZM808,141.62h-2V131.46h2Zm6.54-1c-.56,1.73-2,3.5-5.46,4.77a9.5,9.5,0,0,0-1.5-1.65c2.81-.84,4-2,4.56-3.12h-3.57v-1.9h3.95V137h-1.4a11.18,11.18,0,0,1-1.22,1.75,10.62,10.62,0,0,0-1.75-1.12,10.23,10.23,0,0,0,2.17-3.9h-1.79V131.8h6.25c.08-.49.15-1,.23-1.5h-5.62v-1.86h6.08l.32-.1,1.6.19c-.12,1.09-.29,2.22-.48,3.27h1.82v1.88h-8.15l1.79.42c-.11.32-.23.64-.36,1h6.25V137h-3.46v1.8h4v1.9Zm1.12.14c1.06,1,2.64,2.33,3.45,3.19l-1.61,1.35c-.74-.86-2.26-2.32-3.38-3.37Z"/><path d="M816.17,163.87c.61,0,.74-.19.82-1.48a6.43,6.43,0,0,0,1.86.68c-.23,2-.8,2.49-2.45,2.49h-2.79c-2.26,0-2.83-.49-2.83-2.18v-.86h-2.09c-.57,1.9-2.06,2.83-6.61,3.29a6,6,0,0,0-1-1.71c3.62-.21,4.8-.63,5.3-1.58h-2v-6.4h11v6.4H813v.84c0,.47.15.51.91.51ZM803.71,157h-2v-2.84h2.09l-.3-4.5,0,0a22.63,22.63,0,0,0,3.44-1.54l1.2.95a23.51,23.51,0,0,1-2.61,1.11l0,.45h2v1.18h-1.88l0,.59h1.89v1.18h-1.81l0,.6h2.64c-.23-.22-.53-.51-.74-.68a10.15,10.15,0,0,0,1.48-.82c-.32-.2-.65-.41-.95-.58l.86-.76c.34.17.66.38,1,.6a5.24,5.24,0,0,0,.72-.81h.08a9.86,9.86,0,0,0-.82-.68,7.39,7.39,0,0,1-1.44.89,8.79,8.79,0,0,0-.93-.87,11.55,11.55,0,0,0,1.35-.72c-.29-.17-.57-.34-.84-.48l.86-.76c.3.16.6.35.93.54a5.16,5.16,0,0,0,.72-.78l1.19.34a5.68,5.68,0,0,1-.91,1.06c.31.23.57.46.78.65l-.83.83,1.1.29a9.27,9.27,0,0,1-1,1.18,7.78,7.78,0,0,1,.93.78l-.82.77h3.12l0-.6h-1.9v-1.18h2l0-.59h-2v-1.18h2V150H812.3v-1.31h4.35c-.06,1.77-.16,3.92-.31,5.45h2V157h-2.09v-1.43h-12.5Zm2.89.95h6.59v-.63H806.6Zm0,1.71h6.59V159H806.6Zm0,1.76h6.59v-.66H806.6Zm4.5-7.26a8.1,8.1,0,0,0-.89-.77,12.69,12.69,0,0,1-1.14.77Z"/><path d="M807.39,173.5a19.08,19.08,0,0,1-1.65,2.4v10.31h-2.18v-7.88a18.28,18.28,0,0,1-1.71,1.54,16.12,16.12,0,0,0-1.09-2.34,17,17,0,0,0,4.66-4.88Zm-.32-4.12a20,20,0,0,1-5,4.77,13.89,13.89,0,0,0-1.12-1.92,13.51,13.51,0,0,0,4-3.72Zm11.55,11.91H816V184c0,1-.19,1.58-.93,1.9a7.59,7.59,0,0,1-3,.32,7.63,7.63,0,0,0-.7-2c.8,0,1.69,0,1.94,0s.34-.1.34-.31v-2.64h-4a20.74,20.74,0,0,1,2.17,2.38l-1.69,1.2a15.85,15.85,0,0,0-2.19-2.65l1.41-.93h-2.66v-1.91h7v-1.09h-6.5v-1.84h11v1.84H816v1.09h2.58Zm-1-5.68h-9.41V169h9.41Zm-2.28-5h-4.94v.95h4.94Zm0,2.43h-4.94v1h4.94Z"/><path d="M807.58,194.61a18.64,18.64,0,0,1-1.27,6.79,23.67,23.67,0,0,1,2.22,2.37l-1.31,1.84c-.47-.62-1.16-1.42-1.93-2.26a13,13,0,0,1-2.87,3.16,6.78,6.78,0,0,0-1.45-1.43,11.68,11.68,0,0,0,2.89-3.19c-.85-.89-1.75-1.73-2.51-2.47a41.54,41.54,0,0,0,.91-4.45l-1,.06-.21-2,1.5-.06c.19-1.35.32-2.7.4-3.89l2,.07c-.09,1.16-.24,2.45-.41,3.71l1.15-.06v-1.2h1.9v1.11l.93-.06v1.92Zm-2.81,5.32a16,16,0,0,0,.9-5.18l-1.45.11c-.23,1.37-.49,2.68-.76,3.88Zm11,4.45c.9,0,1.07-.44,1.2-2.4a6.45,6.45,0,0,0,1.94.82c-.29,2.68-.93,3.63-2.95,3.63h-3.63c-2.35,0-3-.67-3-3.25v-5.55l-1,.35-.56-2.11,1.52-.5v-4.73h2.06v4l1.42-.47v-5h2v4.37l1.71-.57.4-.28,1.69.55-.08.34a62.75,62.75,0,0,1-.78,8.17l-1.82-.52c.19-1.5.32-3.83.38-6l-1.5.51v6.14h-2v-5.45l-1.42.49v6.27c0,1.05.15,1.18,1.17,1.18Z"/><path d="M811.35,224.63c.49,0,1,.06,1.52.06,1.06,0,4.71,0,6.06-.06a7.43,7.43,0,0,0-.76,2.17h-5.42c-3.48,0-5.83-.5-7.43-2.7a8.47,8.47,0,0,1-2.66,3,9,9,0,0,0-1.71-1.58,8,8,0,0,0,3.54-5.75l2.26.34c-.13.61-.29,1.18-.44,1.73a4.18,4.18,0,0,0,2.74,2.37v-4.82h-7.41v-2h16.75v2h-7v1.42h5.85v2h-5.85Zm5.24-8h-13.2V210h13.2Zm-2.3-5h-8.7v1h8.7Zm0,2.45h-8.7v1h8.7Z"/><path d="M815.6,236.39a15.91,15.91,0,0,1-2.94,6c2.24,1.06,4.25,2.13,5.73,3l-1.76,2.17c-1.5-1-3.56-2.15-5.87-3.33a19.71,19.71,0,0,1-8.13,3.21,8.64,8.64,0,0,0-1.35-2.2,19.79,19.79,0,0,0,6.93-2.26c-1.56-.74-3.17-1.46-4.77-2.09a45.9,45.9,0,0,0,2.17-4.47h-4V234h5c.53-1.46,1-2.94,1.37-4.33l2.43.34a41.46,41.46,0,0,1-1.18,4h4.46c.12-.59.23-1.19.33-1.86l2.43.57c-.08.44-.15.87-.23,1.29h2.34v2.43Zm-7.31,0c-.46,1.22-.95,2.38-1.41,3.39,1.14.49,2.3,1,3.4,1.48a11.81,11.81,0,0,0,2.72-4.87Z"/><path d="M818.58,265.18v2.22H801.51v-2.22h7.33v-3.82h-5.15v-2.18h5.15v-3.35h-3.93a15.84,15.84,0,0,1-1.77,2.76,17.88,17.88,0,0,0-2-1.35,16.46,16.46,0,0,0,3.36-6.8l2.33.51c-.26.91-.56,1.8-.89,2.68h2.93v-3.42h2.37v3.42h6.4v2.2h-6.4v3.35h5.68v2.18h-5.68v3.82Z"/><path d="M807.92,289.23c1.46-.55,2.28-1.5,2.28-2.6H810a1.64,1.64,0,0,1-1.75-1.65,1.68,1.68,0,0,1,1.8-1.66c1.29,0,2,1,2,2.76a4.79,4.79,0,0,1-3.59,4.67Z"/><path d="M807.58,308.21a18.64,18.64,0,0,1-1.27,6.79,23.67,23.67,0,0,1,2.22,2.37l-1.31,1.84c-.47-.62-1.16-1.42-1.93-2.26a13,13,0,0,1-2.87,3.16,7,7,0,0,0-1.45-1.43,11.68,11.68,0,0,0,2.89-3.19c-.85-.89-1.75-1.73-2.51-2.47a41.82,41.82,0,0,0,.91-4.44l-1,.05-.21-2,1.5-.06c.19-1.35.32-2.7.4-3.89l2,.07c-.09,1.16-.24,2.45-.41,3.71l1.15-.06v-1.2h1.9v1.11l.93-.06v1.92Zm-2.81,5.32a16,16,0,0,0,.9-5.18l-1.45.11c-.23,1.37-.49,2.68-.76,3.88Zm11,4.45c.9,0,1.07-.44,1.2-2.4a6.45,6.45,0,0,0,1.94.82c-.29,2.68-.93,3.63-2.95,3.63h-3.63c-2.35,0-3-.66-3-3.25v-5.55l-1,.35-.56-2.11,1.52-.5v-4.73h2.06v4l1.42-.47v-5h2v4.37l1.71-.57.4-.28,1.69.55-.08.34a62.58,62.58,0,0,1-.78,8.17l-1.82-.51c.19-1.51.32-3.84.38-6l-1.5.51v6.14h-2V310l-1.42.49v6.27c0,1.05.15,1.18,1.17,1.18Z"/><path d="M818.66,333.58v1.71H801.31v-1.71h4.36a8.2,8.2,0,0,0-.44-1l.8-.19h-1.94v-3.76h12v3.76H815a12.11,12.11,0,0,1-.76,1.18Zm-9.88-7.9H802v-1.62h6.82v-1.14h2.3v1.14h7v1.62h-7v.78h5.85V328H803.27v-1.55h5.51ZM803.71,336h12.78v4.68h-2.33v-.5h-8.23v.51h-2.22Zm2.22,1.5v1.16h8.23v-1.16Zm.31-6.48h7.58v-.95h-7.58Zm1.25,1.39a5.52,5.52,0,0,1,.53,1.18h3.91a9.92,9.92,0,0,0,.5-1.18Z"/><path d="M815.39,350.07c0,.67,0,1.43-.07,2.22.58,3,1.73,5.74,3.72,7a6.92,6.92,0,0,0-1.43,1.9,10.17,10.17,0,0,1-3.07-4.88,12,12,0,0,1-2.89,4.9,7.08,7.08,0,0,0-1.27-1.31v.36h-6v.82h-1.73v-5.87a8.91,8.91,0,0,1-.72.85,12.57,12.57,0,0,0-.95-1.56,12.59,12.59,0,0,0,2.42-3.72h-1.6v-3.61h3.93v3.61h-1.67l.93.32c-.13.31-.28.63-.43,1h1.7a8,8,0,0,0-.41-.83l1.23-.46h-.57V347.2h3.93v3.23a21.76,21.76,0,0,0,1.71-7.1l2.07.32c-.09.82-.22,1.61-.38,2.41h3.44l.31-.07,1.38.4a36.14,36.14,0,0,1-1.29,5.32l-1.63-.52c.23-.81.47-1.94.68-3.08H813.4a15.6,15.6,0,0,1-1.66,4.43,12.47,12.47,0,0,0-1.71-1.39,3.87,3.87,0,0,0,.21-.34h-2.88a6.85,6.85,0,0,1,.66,1.29h2.53v1.5H808v.73h2.17v1.4H808v.8h2.32v1.41H808v.85h2.4v.65c2.79-3,3.06-6.86,3.06-9.41v-1.17h1.95Zm-12-4.14h-2.31v-1.6h2.31v-1h1.92v3.51H803.4Zm-.32,3.76h1.27v-1.35h-1.27Zm3.08,3.91h-1.79v.73h1.79Zm0,2.13h-1.79v.8h1.79Zm-1.79,3.06h1.79v-.85h-1.79Zm4.49-11.91h-1.94v-3.51h1.94v.95H811v1.59h-2.18Zm-1.07,2.77h1.28v-1.29h-1.28Z"/><path d="M815.6,370.42a15.79,15.79,0,0,1-2.94,6c2.24,1.07,4.25,2.13,5.73,3l-1.76,2.16c-1.5-1-3.56-2.14-5.87-3.32a19.84,19.84,0,0,1-8.13,3.21,8.31,8.31,0,0,0-1.35-2.2,19.58,19.58,0,0,0,6.93-2.27c-1.56-.74-3.17-1.46-4.77-2.09a46.8,46.8,0,0,0,2.17-4.46h-4V368h5c.53-1.46,1-2.95,1.37-4.33l2.43.34c-.31,1.27-.71,2.66-1.18,4h4.46c.12-.59.23-1.2.33-1.86l2.43.57c-.08.43-.15.87-.23,1.29h2.34v2.43Zm-7.31,0c-.46,1.22-.95,2.37-1.41,3.38,1.14.5,2.3,1,3.4,1.48a11.77,11.77,0,0,0,2.72-4.86Z"/><path d="M818.58,399.2v2.23H801.51V399.2h7.33v-3.81h-5.15V393.2h5.15v-3.34h-3.93a16.12,16.12,0,0,1-1.77,2.75,19.33,19.33,0,0,0-2-1.35,16.33,16.33,0,0,0,3.36-6.8l2.33.52c-.26.91-.56,1.8-.89,2.67h2.93v-3.42h2.37v3.42h6.4v2.21h-6.4v3.34h5.68v2.19h-5.68v3.81Z"/><path d="M807.92,423.26c1.46-.55,2.28-1.5,2.28-2.61H810a1.63,1.63,0,0,1-1.75-1.65,1.68,1.68,0,0,1,1.8-1.65c1.29,0,2,1,2,2.75a4.79,4.79,0,0,1-3.59,4.68Z"/><path d="M807.58,442.24a18.59,18.59,0,0,1-1.27,6.78,23.64,23.64,0,0,1,2.22,2.38l-1.31,1.84c-.47-.63-1.16-1.43-1.93-2.26a12.93,12.93,0,0,1-2.87,3.15,7,7,0,0,0-1.45-1.42,11.68,11.68,0,0,0,2.89-3.19c-.85-.9-1.75-1.73-2.51-2.47a42.06,42.06,0,0,0,.91-4.45l-1,.06-.21-2,1.5-.05c.19-1.35.32-2.7.4-3.9l2,.08c-.09,1.16-.24,2.45-.41,3.7l1.15-.05v-1.2h1.9v1.1l.93-.05v1.91Zm-2.81,5.32a16.07,16.07,0,0,0,.9-5.19l-1.45.12c-.23,1.36-.49,2.68-.76,3.87Zm11,4.44c.9,0,1.07-.43,1.2-2.39a7,7,0,0,0,1.94.82c-.29,2.68-.93,3.63-2.95,3.63h-3.63c-2.35,0-3-.67-3-3.25v-5.55l-1,.34-.56-2.11,1.52-.49v-4.73h2.06v4l1.42-.48v-5h2v4.37l1.71-.57.4-.29,1.69.55-.08.35a62.42,62.42,0,0,1-.78,8.16l-1.82-.51c.19-1.5.32-3.84.38-6l-1.5.51v6.14h-2v-5.46l-1.42.5v6.27c0,1,.15,1.17,1.17,1.17Z"/><path d="M818.45,459.59v2.16H808.29a21.82,21.82,0,0,1-2.23,3.75v9.19h-2.29v-6.61a15.58,15.58,0,0,1-1.68,1.33,15.59,15.59,0,0,0-1.12-2.19,14.3,14.3,0,0,0,4.73-5.47h-4.12v-2.16h5.13c.32-.9.61-1.77.84-2.64l2.37.57c-.21.7-.45,1.38-.72,2.07Zm-4.56,12.55h4.5v2.09H807v-2.09h4.6v-4.33h-3.85v-2.09h3.85v-3.15h2.28v3.15h3.76v2.09h-3.76Z"/><path d="M804.05,486.07a12.71,12.71,0,0,0-3-1.82l1.23-1.65a11,11,0,0,1,3,1.65Zm-2.64,7.7a59.08,59.08,0,0,0,2.45-6.1l1.82,1.18c-.62,2-1.46,4.21-2.24,6.08Zm11.78-10.11v.91h5.17v8.63c0,.89-.16,1.31-.73,1.59a5.53,5.53,0,0,1-2.43.31,6.24,6.24,0,0,0-.49-1.66c.59,0,1.21,0,1.4,0s.27-.05.27-.24v-1.26a4.19,4.19,0,0,0-.63.65,4.41,4.41,0,0,1-.83-1.65,4.06,4.06,0,0,1-1.18,1.71,3.12,3.12,0,0,0-.55-.67v3h-2v-3a3.85,3.85,0,0,0-.53.57,5,5,0,0,1-.8-1.58,4.18,4.18,0,0,1-1.14,1.81,4.19,4.19,0,0,0-.6-.71v3h-1.92V484.57h5v-.91h-2.68v-3H806v-1.2l-1.2,1.63a12.06,12.06,0,0,0-2.94-1.92l1.27-1.67A13.78,13.78,0,0,1,806,479.2v-.46h2.58v-1.35h2.11v1.35h3.25v-1.35h2.21v1.35h2.6v2h-2.6v3Zm-2.7,3.42a9.84,9.84,0,0,0,.72,4v-4.62h-3.07v5.25a4.76,4.76,0,0,0,1-2.78h.4l0-.45h-.86v-1.39Zm.15-5.3h3.25V480.7h-3.25Zm2.55,4.67v5a4.41,4.41,0,0,0,.95-2.55h.4l0-.45h-.87v-1.39h1.88a8.8,8.8,0,0,0,.87,4.18v-4.81Z"/><path d="M816.44,512.67c0,1.37-.33,2-1.2,2.4a11.72,11.72,0,0,1-4.2.43,9.56,9.56,0,0,0-.95-2.37c1.33.07,2.93,0,3.35,0s.6-.15.6-.55v-2.75h-8.13a10.16,10.16,0,0,1-3.21,5.68,8.47,8.47,0,0,0-1.75-1.63c2.87-2.46,3.14-6.08,3.14-9v-6.25h12.35Zm-2.4-5v-2.31h-7.61c0,.72-.06,1.52-.14,2.31Zm-7.61-6.78v2.32H814v-2.32Z"/><path d="M818.39,521.17s0,.76,0,1c-.24,8.49-.45,11.51-1.23,12.52a2.56,2.56,0,0,1-1.82,1,22.07,22.07,0,0,1-3,0,5.22,5.22,0,0,0-.74-2.2c1.22.11,2.34.11,2.83.11a1,1,0,0,0,.84-.32c.55-.61.8-3.46,1-10.16H812.2a16.17,16.17,0,0,1-1.67,3,14,14,0,0,0-1.46-1.06V534H804v1.38h-2V521.3h2.15a20.58,20.58,0,0,0,.55-3.06l2.47.34c-.32.95-.67,1.9-1,2.72h3v3.08a19.75,19.75,0,0,0,2.56-6.12l2.15.49a23.24,23.24,0,0,1-.74,2.42ZM807,523.28h-3v3.07h3Zm0,8.75v-3.72h-3V532Zm6.31-1a39.82,39.82,0,0,0-2.64-4.39l1.77-1a46.13,46.13,0,0,1,2.79,4.22Z"/><path d="M815.51,547.73v8.68h-2.4V550h-7a11.8,11.8,0,0,1-2.9,6.5,8.31,8.31,0,0,0-1.71-1.79c2.35-2.58,2.62-6.1,2.62-9.31V539h2.28v4h6.17v-4.29h2.34v6.57h-8.51v.15c0,.78,0,1.54-.06,2.34Z"/><path d="M812.09,568.3a20,20,0,0,1-2.78,3.73,26.63,26.63,0,0,1,3,2.7l-1.59,1.44a35.72,35.72,0,0,0-2.87-2.77,24.68,24.68,0,0,1-5.28,3.47,11.11,11.11,0,0,0-1.35-1.94,17.64,17.64,0,0,0,8.78-7.4Zm-1.26-3.68a18.85,18.85,0,0,1-8,8.21,12.09,12.09,0,0,0-1.33-1.87,15.88,15.88,0,0,0,4.73-3.28c-2.89.21-3.5.32-3.9.49-.11-.44-.45-1.44-.68-2a2.76,2.76,0,0,0,1.16-.8,14.79,14.79,0,0,0,1.67-2h-3.12v-2.08h4.53a10.74,10.74,0,0,0-.86-1.86l2.13-.49a8.68,8.68,0,0,1,1.12,2.35H812v2.08h-4.9a23.7,23.7,0,0,1-2.26,2.54l3-.15a15.58,15.58,0,0,0,1-1.79Zm4.09,7.2h-2.13V561.14h2.13Zm3.44-12.52v14.89c0,1.26-.25,1.83-1,2.17a8.88,8.88,0,0,1-3.54.42,8.38,8.38,0,0,0-.72-2.17c1,.06,2.19,0,2.53,0s.47-.11.47-.46V559.3Z"/><path d="M817.63,584.08a38.38,38.38,0,0,1-10.14,9.8,9.24,9.24,0,0,0,4.77.85,55.26,55.26,0,0,0,6.65-.45,11.51,11.51,0,0,0-.65,2.41c-1.35.09-4.22.21-6.08.21-2.33,0-3.85-.25-5.15-1-.81-.47-1.44-1.12-1.86-1.12-.59,0-1.44,1.28-2.22,2.49l-1.64-2.13c1.37-1.46,2.87-2.47,3.92-2.47h.11a33.06,33.06,0,0,0,8.4-7.37H802.28V583h7.41c-.45-.82-1.16-1.86-1.71-2.66l2-1.08a31.28,31.28,0,0,1,2.12,3.08L811,583h4.47l.44-.11Z"/><path d="M804.28,607.52v10.16H802v-17h7.27v6.86Zm0-5.22v1h2.92v-1Zm2.92,3.61v-1.09h-2.92v1.09Zm10.87,9.1c0,1.21-.25,1.88-1,2.24a8.2,8.2,0,0,1-3.47.43,8.52,8.52,0,0,0-.5-1.76h-4.71v1h-2v-8.23h7.31v6.74c.75,0,1.45,0,1.7,0s.45-.11.45-.41v-7.43h-5.17v-6.9h7.45Zm-9.69-4.68v1.14h3.14v-1.14Zm3.14,3.93v-1.17h-3.14v1.17Zm1.25-12v1h3v-1Zm3,3.64v-1.12h-3v1.12Z"/><path d="M807.2,625.32a19.91,19.91,0,0,1-1.44,2.36v10.39H803.6V630.4A18.38,18.38,0,0,1,802,632a17.51,17.51,0,0,0-1.12-2.33,17.89,17.89,0,0,0,4.33-5.13Zm-.19-4.06a19.91,19.91,0,0,1-4.88,4.77,13.46,13.46,0,0,0-1.14-1.9,13.78,13.78,0,0,0,3.86-3.73Zm3-.74h2.22v9c0,3.44-.44,6.82-3.31,8.7a9.44,9.44,0,0,0-1.57-1.59,5.64,5.64,0,0,0,2.24-3.29c-.72.23-1.45.45-2.11.64l-.76-2.2c.85-.11,2-.32,3.23-.55,0-.57.06-1.16.06-1.73v-.15h-2.53v-2H810v-2h-2.66v-2H810Zm8.85,12.92h-3v4.65h-2.24V620.48h2.24v2.83h2.83v2h-2.83v2h2.66v2h-2.66v2h3Z"/><path d="M818.24,642v16.26H816v-.89h-6.75v1h-2.1v-12.4a24.38,24.38,0,0,1-1.56,2.34v10.24H803.4v-7.74c-.45.46-.91.9-1.34,1.26A16.6,16.6,0,0,0,801,649.7a16.76,16.76,0,0,0,4.33-4.82l1.85.74V642ZM807,641.68a20.56,20.56,0,0,1-4.7,4.79,10.78,10.78,0,0,0-1.14-1.92,13,13,0,0,0,3.67-3.7Zm9,13.49V644.08h-6.75v11.09Zm-1-9.17v7.16h-4.81V646Zm-1.77,1.82h-1.35v3.51h1.35Z"/><path d="M807.92,679.83c1.46-.55,2.28-1.5,2.28-2.6H810a1.64,1.64,0,0,1-1.75-1.65,1.68,1.68,0,0,1,1.8-1.66c1.29,0,2,1,2,2.76a4.79,4.79,0,0,1-3.59,4.67Z"/><path d="M811.74,700.54c1.26,3.71,3.56,6.69,7.11,8.14a9,9,0,0,0-1.67,2.12c-3.44-1.61-5.64-4.38-7.13-8a13,13,0,0,1-7.1,8.07,6.92,6.92,0,0,0-1.69-1.92,11.36,11.36,0,0,0,6.89-8.36h-6.53v-2.33h6.91a50.18,50.18,0,0,0,.19-5.07h2.47a50.38,50.38,0,0,1-.22,5.07h7.46v2.33Z"/><path d="M818.6,722.87c-2.68,5.77-8.91,7.77-16.14,8.45a10.11,10.11,0,0,0-.92-2.18,31.57,31.57,0,0,0,8.23-1.5,25.61,25.61,0,0,0-2-1.77,21.23,21.23,0,0,1-2.45,1,7,7,0,0,0-1.38-1.75c3.91-1.22,6.53-3.08,8-4.92l2.46.57c-.38.43-.75.85-1.16,1.27h3.4l.42-.11Zm-2.5-7c-2.46,4.37-7.85,6.72-13.32,7.75a8.51,8.51,0,0,0-1-2,26.1,26.1,0,0,0,5.61-1.44c-.52-.53-1.2-1.16-1.86-1.71-.55.31-1.13.59-1.73.86a7,7,0,0,0-1.54-1.62,16.2,16.2,0,0,0,6.59-4.24l2.43.57c-.32.35-.66.69-1,1h4l.4-.09Zm-8.33,1.2c-.17.13-.36.24-.55.38a14.41,14.41,0,0,1,2.15,1.84,12.68,12.68,0,0,0,3.13-2.22Zm3.06,7-1.1.75a18.41,18.41,0,0,1,2.22,1.88,10,10,0,0,0,3.19-2.63Z"/><path d="M817.6,739.4a25.88,25.88,0,0,1-1.64,7.16,8.13,8.13,0,0,0,3,3.36,6.37,6.37,0,0,0-1.27,1.54,9,9,0,0,1-2.75-3,10.91,10.91,0,0,1-3.4,3.36,7.78,7.78,0,0,0-.86-1.36l-1.21,1a20.9,20.9,0,0,0-2.46-1.31,20,20,0,0,1-5.31,1.41,6.46,6.46,0,0,0-.82-1.45,23.07,23.07,0,0,0,4-.85c-.86-.34-1.73-.65-2.53-.88a8.76,8.76,0,0,0,.84-1.1l-1.71.1-.18-1.5,2.93-.14a11.77,11.77,0,0,0,.67-1.18h-2.8v-3.43h3.4v-.54h-2.88v-2h-1.45V737h1.45v-1.92h2.88V734h1.71v1.15h3.06V737h1.29v1.6h-1.29v2h-3.06v.54h3.48v1.38c1.25-2,1.88-5.26,2.22-8.53l1.9.25c-.13,1.06-.28,2.13-.49,3.15h4.5v2ZM804,743.24h1.55v-.71H804Zm.53-6.69v.61h1v-.61Zm1,2.66v-.68h-1v.68Zm-.51,8.51c.63.21,1.27.44,1.9.68a3.31,3.31,0,0,0,1.33-1.34l-2.89.15Zm5.17-.78a4,4,0,0,1-1.45,2.24c.69.31,1.3.61,1.83.88a8.45,8.45,0,0,0,3.38-3.63,26,26,0,0,1-1.12-3.78,10.68,10.68,0,0,1-.72,1.39,11.4,11.4,0,0,0-1.39-1.39v2h-3.8c-.19.37-.4.73-.61,1.11l2.22-.12v-.66h1.77v.59l.61,0,0,1.42Zm-2.95-10.39v.61h1.11v-.61Zm1.11,2.66v-.68h-1.11v.68Zm-1.11,3.32v.71h1.52v-.71Zm6.69-3.13a31.87,31.87,0,0,0,1,4.56,25.85,25.85,0,0,0,.82-4.56Z"/><path d="M817.48,759.92a21.29,21.29,0,0,1-2.09,7,9,9,0,0,0,3.75,3.15,8.86,8.86,0,0,0-1.56,1.94A10.33,10.33,0,0,1,814,769a12.1,12.1,0,0,1-4,3.21,8.94,8.94,0,0,0-1.26-2,10,10,0,0,0,4.07-3.25,22.18,22.18,0,0,1-1.43-3.91,10.47,10.47,0,0,1-1,1.55,15.78,15.78,0,0,0-1.33-1.46c-.1,5.28-.19,7.33-.67,8a1.85,1.85,0,0,1-1.27.84,13.51,13.51,0,0,1-2,.07,5.74,5.74,0,0,0-.59-2c.61,0,1.16.06,1.46.06a.55.55,0,0,0,.53-.29c.25-.42.36-2,.44-6.46h-1.59c0,3-.44,6.16-2.8,8.76a7.88,7.88,0,0,0-1.65-1.48c2-2.36,2.32-5.07,2.32-7.52v-3.67H801.3v-2.09H805a18.43,18.43,0,0,0-.78-2.47l2-.48a23.47,23.47,0,0,1,.91,2.49l-1.56.46h4.14v2.09h-4.38v1.86h3.76s0,.65,0,.91v.15a18.57,18.57,0,0,0,2.71-7.9l2.3.36c-.17,1-.38,2.09-.64,3.08h5.51v2.09Zm-4.75.08a22.87,22.87,0,0,0,1.35,4.57,19.37,19.37,0,0,0,1.18-4.65h-2.49Z"/><path d="M810.83,778.48v3l.38-.44a42.16,42.16,0,0,1,6.48,3.84L816,786.94a37.17,37.17,0,0,0-5.19-3.46v9H808.4v-14h-6.86V776.2h16.93v2.28Z"/><path d="M818.39,798.17s0,.76,0,1c-.24,8.49-.45,11.52-1.23,12.52a2.53,2.53,0,0,1-1.82,1,22.07,22.07,0,0,1-3,0,5.22,5.22,0,0,0-.74-2.2c1.22.12,2.34.12,2.83.12a1,1,0,0,0,.84-.33c.55-.61.8-3.46,1-10.16H812.2a16.17,16.17,0,0,1-1.67,3,15.64,15.64,0,0,0-1.46-1.06V811H804v1.39h-2V798.3h2.15a20.58,20.58,0,0,0,.55-3.06l2.47.34c-.32.95-.67,1.9-1,2.72h3v3.08a19.75,19.75,0,0,0,2.56-6.12l2.15.49a23.24,23.24,0,0,1-.74,2.42ZM807,800.28h-3v3.07h3Zm0,8.75v-3.72h-3V809Zm6.31-1a40.77,40.77,0,0,0-2.64-4.39l1.77-1a46.13,46.13,0,0,1,2.79,4.22Z"/><path d="M804.05,824.35a13.06,13.06,0,0,0-3-1.83l1.23-1.65a11.3,11.3,0,0,1,3,1.65ZM801.41,832a57.3,57.3,0,0,0,2.45-6.1l1.82,1.18c-.62,2-1.46,4.22-2.24,6.08Zm11.78-10.1v.91h5.17v8.62c0,.9-.16,1.31-.73,1.6a5.71,5.71,0,0,1-2.43.3,6.17,6.17,0,0,0-.49-1.65c.59,0,1.21,0,1.4,0s.27-.06.27-.25v-1.25a4.16,4.16,0,0,0-.63.64,4.27,4.27,0,0,1-.83-1.65,4,4,0,0,1-1.18,1.71,2.87,2.87,0,0,0-.55-.66v3h-2v-3a3.85,3.85,0,0,0-.53.57,5,5,0,0,1-.8-1.57,4.09,4.09,0,0,1-1.14,1.8,4.15,4.15,0,0,0-.6-.7v3h-1.92V822.85h5v-.91h-2.68v-3H806v-1.19l-1.2,1.63a11.51,11.51,0,0,0-2.94-1.92l1.27-1.67a14.22,14.22,0,0,1,2.87,1.65V817h2.58v-1.34h2.11V817h3.25v-1.34h2.21V817h2.6v2h-2.6v3Zm-2.7,3.41a9.81,9.81,0,0,0,.72,4v-4.61h-3.07V830a4.73,4.73,0,0,0,1-2.77h.4l0-.46h-.86v-1.39Zm.15-5.3h3.25V819h-3.25Zm2.55,4.68v5a4.36,4.36,0,0,0,.95-2.54h.4l0-.46h-.87v-1.39h1.88a8.8,8.8,0,0,0,.87,4.18v-4.8Z"/><path d="M816.44,851c0,1.36-.33,2-1.2,2.39a11.45,11.45,0,0,1-4.2.44,9.62,9.62,0,0,0-.95-2.38c1.33.08,2.93.06,3.35.06s.6-.15.6-.55v-2.76h-8.13a10.16,10.16,0,0,1-3.21,5.68A8.75,8.75,0,0,0,801,852.2c2.87-2.45,3.14-6.08,3.14-9V837h12.35Zm-2.4-5v-2.32h-7.61c0,.72-.06,1.52-.14,2.32Zm-7.61-6.78v2.31H814v-2.31Z"/><path d="M819,858.51c-.68,1.82-1.52,4-2.3,5.64a6.07,6.07,0,0,1,1.94,4.41c0,1.42-.3,2.36-1.06,2.85a2.77,2.77,0,0,1-1.33.51,8.91,8.91,0,0,1-1.65,0,5.52,5.52,0,0,0-.57-2.18,10,10,0,0,0,1.19,0,1.47,1.47,0,0,0,.76-.17c.36-.2.5-.66.5-1.29a5.47,5.47,0,0,0-2-3.89c.55-1.37,1.2-3.29,1.67-4.75h-2.41v14.55h-2.22V858a23.26,23.26,0,0,1-2,4h1.41v2h-2.83c-.4.5-.8.93-1.22,1.39h3.42V874h-2.14v-.73h-3.06v1H803v-5.75c-.32.21-.64.39-.94.57a11.77,11.77,0,0,0-1.32-1.89A17.33,17.33,0,0,0,805.3,864h-4v-2h3.3v-1.56h-2.48v-1.94h2.48v-1.84h2.09v1.84h2v1a17.79,17.79,0,0,0,.93-2.13l2,.55v-.36H817l.34-.08Zm-10.84,8.66h-3.06v1.22h3.06Zm0,4.26v-1.35h-3.06v1.35ZM807,862c.36-.5.71-1,1.05-1.56h-1.43V862Z"/><path d="M811.35,892.23c.49,0,1,.06,1.52.06,1.06,0,4.71,0,6.06-.06a7.54,7.54,0,0,0-.76,2.17h-5.42c-3.48,0-5.83-.49-7.43-2.7a8.39,8.39,0,0,1-2.66,3,8.63,8.63,0,0,0-1.71-1.57,8,8,0,0,0,3.54-5.76l2.26.34c-.13.61-.29,1.18-.44,1.73a4.15,4.15,0,0,0,2.74,2.37V887h-7.41v-2h16.75v2h-7v1.42h5.85v2h-5.85Zm5.24-8.05h-13.2v-6.59h13.2Zm-2.3-5h-8.7v1h8.7Zm0,2.46h-8.7v1h8.7Z"/><path d="M807.58,903.07a18.63,18.63,0,0,1-1.27,6.78,23.67,23.67,0,0,1,2.22,2.37l-1.31,1.84c-.47-.62-1.16-1.42-1.93-2.26a13,13,0,0,1-2.87,3.16,7,7,0,0,0-1.45-1.43,11.68,11.68,0,0,0,2.89-3.19c-.85-.89-1.75-1.73-2.51-2.47a41.82,41.82,0,0,0,.91-4.44l-1,.05-.21-2,1.5-.06c.19-1.35.32-2.69.4-3.89l2,.08c-.09,1.15-.24,2.45-.41,3.7l1.15-.06V900h1.9v1.1l.93-.06V903Zm-2.81,5.31a16,16,0,0,0,.9-5.18l-1.45.11c-.23,1.37-.49,2.68-.76,3.88Zm11,4.45c.9,0,1.07-.44,1.2-2.39a6.69,6.69,0,0,0,1.94.81c-.29,2.68-.93,3.63-2.95,3.63h-3.63c-2.35,0-3-.66-3-3.25v-5.54l-1,.34-.56-2.11,1.52-.49v-4.74h2.06v4l1.42-.47v-5h2V902l1.71-.57.4-.28,1.69.55-.08.34a62.41,62.41,0,0,1-.78,8.17l-1.82-.51c.19-1.5.32-3.84.38-6l-1.5.52v6.13h-2v-5.45l-1.42.49v6.27c0,1.05.15,1.18,1.17,1.18Z"/><path d="M818.39,920.72s0,.76,0,1c-.24,8.49-.45,11.51-1.23,12.52a2.56,2.56,0,0,1-1.82,1,22.07,22.07,0,0,1-3,0,5.22,5.22,0,0,0-.74-2.2c1.22.11,2.34.11,2.83.11a1,1,0,0,0,.84-.32c.55-.61.8-3.46,1-10.16H812.2a16.17,16.17,0,0,1-1.67,3,15.64,15.64,0,0,0-1.46-1.06v8.87H804V935h-2V920.85h2.15a20.58,20.58,0,0,0,.55-3.06l2.47.34c-.32,1-.67,1.9-1,2.72h3v3.08a19.75,19.75,0,0,0,2.56-6.12l2.15.49a23.24,23.24,0,0,1-.74,2.42ZM807,922.83h-3v3.07h3Zm0,8.75v-3.72h-3v3.72Zm6.31-1a40.77,40.77,0,0,0-2.64-4.39l1.77-1a46.13,46.13,0,0,1,2.79,4.22Z"/><path d="M807.92,956.83c1.46-.55,2.28-1.5,2.28-2.6H810a1.64,1.64,0,0,1-1.75-1.65,1.68,1.68,0,0,1,1.8-1.66c1.29,0,2,1,2,2.76a4.79,4.79,0,0,1-3.59,4.67Z"/><path d="M807.49,970.9a30.49,30.49,0,0,1-1.86,3.93v13H803.4v-9.63c-.43.55-.87,1.06-1.31,1.52a14.94,14.94,0,0,0-1.23-2.47,19.73,19.73,0,0,0,4.44-7.07Zm11.44,14.22v2.11H806.56v-2.11Zm-1.37-1.86h-9.67V971.33h9.67Zm-2.47-9.84h-4.87v2.78h4.87Zm0,4.87h-4.87v2.88h4.87Z"/><path d="M811.74,998c1.26,3.7,3.56,6.69,7.11,8.13a9.09,9.09,0,0,0-1.67,2.13c-3.44-1.62-5.64-4.39-7.13-8.06a13,13,0,0,1-7.1,8.08,6.65,6.65,0,0,0-1.69-1.92,11.38,11.38,0,0,0,6.89-8.36h-6.53v-2.34h6.91a50,50,0,0,0,.19-5.07h2.47a50.14,50.14,0,0,1-.22,5.07h7.46V998Z"/><path d="M818.6,1020.29c-2.68,5.78-8.91,7.77-16.14,8.46a10,10,0,0,0-.92-2.19,31.16,31.16,0,0,0,8.23-1.5,25.59,25.59,0,0,0-2-1.76,19.6,19.6,0,0,1-2.45,1,7.15,7.15,0,0,0-1.38-1.75c3.91-1.21,6.53-3.07,8-4.92l2.46.57c-.38.44-.75.86-1.16,1.28h3.4l.42-.12Zm-2.5-7c-2.46,4.37-7.85,6.73-13.32,7.75a8.26,8.26,0,0,0-1-2,26.7,26.7,0,0,0,5.61-1.44,24.34,24.34,0,0,0-1.86-1.71c-.55.3-1.13.59-1.73.85a7.16,7.16,0,0,0-1.54-1.61,16.3,16.3,0,0,0,6.59-4.24l2.43.57c-.32.34-.66.68-1,1h4l.4-.1Zm-8.33,1.2c-.17.13-.36.25-.55.38a15,15,0,0,1,2.15,1.84,12.18,12.18,0,0,0,3.13-2.22Zm3.06,7-1.1.74a18.41,18.41,0,0,1,2.22,1.88,9.87,9.87,0,0,0,3.19-2.62Z"/><path d="M817.6,1036.83A26,26,0,0,1,816,1044a8.13,8.13,0,0,0,3,3.36,6,6,0,0,0-1.27,1.54,9.13,9.13,0,0,1-2.75-3,10.91,10.91,0,0,1-3.4,3.36,8.2,8.2,0,0,0-.86-1.37l-1.21,1a19.51,19.51,0,0,0-2.46-1.31,19.71,19.71,0,0,1-5.31,1.4,6.39,6.39,0,0,0-.82-1.44,23,23,0,0,0,4-.86c-.86-.34-1.73-.64-2.53-.87a9.56,9.56,0,0,0,.84-1.1l-1.71.09-.18-1.5,2.93-.13a11.77,11.77,0,0,0,.67-1.18h-2.8v-3.44h3.4v-.53h-2.88v-2h-1.45v-1.6h1.45v-1.92h2.88v-1.16h1.71v1.16h3.06v1.92h1.29v1.6h-1.29v2h-3.06v.53h3.48V1040c1.25-2,1.88-5.26,2.22-8.53l1.9.25c-.13,1.06-.28,2.12-.49,3.15h4.5v2ZM804,1040.66h1.55v-.7H804Zm.53-6.68v.6h1v-.6Zm1,2.65V1036h-1v.68Zm-.51,8.52c.63.2,1.27.43,1.9.68a3.32,3.32,0,0,0,1.33-1.35l-2.89.15Zm5.17-.78a4,4,0,0,1-1.45,2.24c.69.3,1.3.61,1.83.87a8.39,8.39,0,0,0,3.38-3.63,26,26,0,0,1-1.12-3.78,10.07,10.07,0,0,1-.72,1.39,13,13,0,0,0-1.39-1.39v2h-3.8c-.19.36-.4.72-.61,1.1l2.22-.11v-.67h1.77v.59l.61,0,0,1.43ZM807.22,1034v.6h1.11v-.6Zm1.11,2.65V1036h-1.11v.68Zm-1.11,3.33v.7h1.52v-.7Zm6.69-3.13a31.44,31.44,0,0,0,1,4.55,25.56,25.56,0,0,0,.82-4.55Z"/><path d="M819,1053.81c-.68,1.82-1.52,4-2.3,5.64a6.07,6.07,0,0,1,1.94,4.41c0,1.43-.3,2.36-1.06,2.85a2.77,2.77,0,0,1-1.33.51,8.91,8.91,0,0,1-1.65,0,5.52,5.52,0,0,0-.57-2.18,10.17,10.17,0,0,0,1.19,0,1.47,1.47,0,0,0,.76-.18c.36-.2.5-.66.5-1.29a5.47,5.47,0,0,0-2-3.89c.55-1.37,1.2-3.29,1.67-4.75h-2.41v14.55h-2.22v-16.26a23.26,23.26,0,0,1-2,4h1.41v2h-2.83c-.4.5-.8.93-1.22,1.39h3.42v8.57h-2.14v-.73h-3.06v1H803v-5.75c-.32.21-.64.4-.94.57a11.27,11.27,0,0,0-1.32-1.88,17.6,17.6,0,0,0,4.54-3.14h-4v-2h3.3v-1.56h-2.48v-1.94h2.48V1052h2.09v1.84h2v1a17.79,17.79,0,0,0,.93-2.13l2,.55v-.36H817l.34-.07Zm-10.84,8.66h-3.06v1.22h3.06Zm0,4.26v-1.35h-3.06v1.35Zm-1.11-9.4c.36-.5.71-1,1.05-1.56h-1.43v1.56Z"/><path d="M811.35,1087.53c.49,0,1,.06,1.52.06,1.06,0,4.71,0,6.06-.06a7.54,7.54,0,0,0-.76,2.17h-5.42c-3.48,0-5.83-.49-7.43-2.7a8.39,8.39,0,0,1-2.66,3,8.63,8.63,0,0,0-1.71-1.57,8,8,0,0,0,3.54-5.76l2.26.34c-.13.61-.29,1.18-.44,1.73a4.18,4.18,0,0,0,2.74,2.37v-4.82h-7.41v-2h16.75v2h-7v1.42h5.85v2h-5.85Zm5.24-8h-13.2v-6.59h13.2Zm-2.3-5h-8.7v1h8.7Zm0,2.46h-8.7v1h8.7Z"/><path d="M817.94,1101.67a18.65,18.65,0,0,1-3.16,4.16c.52,1.46,1.11,2.34,1.68,2.34.39,0,.62-.91.72-3.15a5.78,5.78,0,0,0,1.86,1.29c-.36,3.32-1.06,4.16-2.79,4.16-1.39,0-2.45-1.14-3.27-3a19.5,19.5,0,0,1-3.51,2.31A10.26,10.26,0,0,0,808,1108a19.49,19.49,0,0,0,4.24-2.68,35.2,35.2,0,0,1-1-5.09h-3.85v2.17l2.92-.54.17,2.06-3.09.62v3.25c0,1.24-.27,1.84-1,2.21a8.18,8.18,0,0,1-3.42.43,8.63,8.63,0,0,0-.8-2.28c1.07.06,2.17,0,2.51,0s.46-.09.46-.4V1105l-3.4.68-.56-2.28c1.09-.17,2.46-.38,4-.64v-2.55h-3.59V1098h3.59v-2.16c-1,.17-2.08.3-3,.42a8.71,8.71,0,0,0-.65-1.9,47.77,47.77,0,0,0,7.54-1.6l1.52,1.92c-1,.28-2,.53-3.09.76V1098H811c-.15-1.71-.21-3.47-.22-5.2h2.37a46.75,46.75,0,0,0,.19,5.2h5.17v2.15h-4.94c.15,1.14.34,2.24.55,3.21a16,16,0,0,0,1.8-2.58Zm-1.39-4.18a14.88,14.88,0,0,0-2.7-3.13l1.71-1.16a16.21,16.21,0,0,1,2.81,3Z"/><path d="M816.89,1124.28a25.72,25.72,0,0,0-2.45-2.2,8.14,8.14,0,0,1-1.27,1.63,11.53,11.53,0,0,0-1.48-1,16.62,16.62,0,0,0,7.25,5.3,10.75,10.75,0,0,0-1.67,2.07,18.2,18.2,0,0,1-6.15-4.8v5.52h-2.38v-5.41a18.11,18.11,0,0,1-6.1,4.69,13.81,13.81,0,0,0-1.59-1.93,16.83,16.83,0,0,0,7.69-6.12v-4.39h-6.91v-2.22h6.91v-2.34h2.38v2.34h7.16v2.22h-7.16v4.26c.09.15.19.28.28.43a8.42,8.42,0,0,0,2.4-4.58l2.2.4a16.16,16.16,0,0,1-.63,2c1.09.83,2.4,1.84,3.1,2.48Zm-9.78-6.08a18.93,18.93,0,0,1-.68,2c.68.59,1.4,1.22,1.84,1.68l-1.52,1.57a17.88,17.88,0,0,0-1.27-1.33,10.26,10.26,0,0,1-2.19,2.61,13.68,13.68,0,0,0-1.75-1.49,9.18,9.18,0,0,0,3.37-5.51Z"/><path d="M816,1139.58a30.59,30.59,0,0,1,2.92,2.37l-1.46,1.43a27.47,27.47,0,0,0-3.34-2.91,7.59,7.59,0,0,1-2.7,2.55h4.92v8.16H814v-.53h-8.22v.61h-2.21v-8c-.32.23-.68.46-1,.67a8.24,8.24,0,0,0-1.48-1.54,6.28,6.28,0,0,0,3-2.77h-2.66v-1.79h3.23a8.42,8.42,0,0,0,.09-1.08h-2.7V1135h2.7v-1.48h2.15V1135h2.28v1.71h-2.28a10.18,10.18,0,0,1-.08,1.08h2.59v1.79h-2.51c.83.62,1.8,1.33,2.35,1.76l-1.44,1.52c-.47-.47-1.33-1.17-2.13-1.8a8,8,0,0,1-1.84,2h6.59a6.88,6.88,0,0,0-1.18-1.22,5.34,5.34,0,0,0,2.91-2.22H810v-1.79h2.8a7.39,7.39,0,0,0,.07-1v-.06h-2.58V1135h2.58v-1.48h2.17V1135h2.85v1.71h-2.85v.09a8.35,8.35,0,0,1-.06,1h3.55v1.79Zm-2,5.32h-8.22V1146H814Zm0,3.87v-1.18h-8.22v1.18Z"/><path d="M807.58,1159.64a18.59,18.59,0,0,1-1.27,6.78,23.64,23.64,0,0,1,2.22,2.38l-1.31,1.84c-.47-.63-1.16-1.42-1.93-2.26a12.93,12.93,0,0,1-2.87,3.15,7,7,0,0,0-1.45-1.42,11.68,11.68,0,0,0,2.89-3.19c-.85-.9-1.75-1.73-2.51-2.47a42.06,42.06,0,0,0,.91-4.45l-1,.06-.21-2,1.5-.06c.19-1.35.32-2.7.4-3.9l2,.08c-.09,1.16-.24,2.45-.41,3.71l1.15-.06v-1.2h1.9v1.1l.93,0v1.91Zm-2.81,5.32a16,16,0,0,0,.9-5.19l-1.45.12c-.23,1.37-.49,2.68-.76,3.87Zm11,4.45c.9,0,1.07-.44,1.2-2.4a6.71,6.71,0,0,0,1.94.82c-.29,2.68-.93,3.63-2.95,3.63h-3.63c-2.35,0-3-.67-3-3.25v-5.55l-1,.34-.56-2.11,1.52-.49v-4.73h2.06v4l1.42-.48v-5h2v4.37l1.71-.57.4-.29,1.69.55-.08.35a62.42,62.42,0,0,1-.78,8.16l-1.82-.51c.19-1.5.32-3.84.38-6l-1.5.51v6.14h-2v-5.46l-1.42.5v6.27c0,1,.15,1.18,1.17,1.18Z"/><path d="M811.67,1174.88l-.31.3a24.45,24.45,0,0,0,7.6,2.7,8.28,8.28,0,0,0-1.27,1.67,26.42,26.42,0,0,1-3.3-1v.49h-8.67v-.53a31,31,0,0,1-3.42,1.1,7.68,7.68,0,0,0-1.19-1.59c3.53-.86,7-2.25,8.75-4Zm-.55,13.07h7.29v1.54h-7.29v.63c0,1-.25,1.46-1,1.72a9.88,9.88,0,0,1-3.23.27,6.68,6.68,0,0,0-.72-1.73c.91,0,2,0,2.3,0s.42-.1.42-.36v-.57H801.6V1188h7.28v-.7h-6.12v-1.52h6.12v-.67c-1.81.08-3.65.1-5.36.08a5,5,0,0,0-.38-1.37,78.22,78.22,0,0,0,11.89-.63l1.46,1.24a52.21,52.21,0,0,1-5.37.57v.78h6.25v1.52h-6.25Zm4.86-4.88H804v-3.42h12Zm-2.24-2.11h-7.62v.78h7.62Zm-1.29-3.25a24,24,0,0,1-2.49-1.39,19.51,19.51,0,0,1-2.43,1.39Z"/><path d="M807.09,1209.48a12.37,12.37,0,0,0,3.8.41c1.44,0,6.48,0,8.19-.07a8,8,0,0,0-.86,2.24h-7.33c-3.51,0-5.78-.47-7.28-2.6a13.51,13.51,0,0,1-.87,3.34c-.42-.26-1.43-.76-1.9-1,.93-1.92,1.12-5.09,1.16-8.34l2.07.15c0,.84-.06,1.68-.1,2.46a6.12,6.12,0,0,0,1,2v-5.72h-3.69v-2h3.22v-1.77h-2.68v-2h2.68v-1.84h2.12v1.84h2.53v2h-2.53v1.77h3v2h-2.56v2h2.41v2h-2.41Zm6.17-.46c-2.12,0-2.81-.64-2.81-3.06v-10.43h7.34v7.22h-5.15V1206c0,.88.11,1,.91,1H816c.72,0,.85-.44,1-2.45a6.36,6.36,0,0,0,2,.87c-.24,2.7-.85,3.61-2.75,3.61Zm-.62-11.51v3.28h3v-3.28Z"/><path d="M806.48,1224.09A23.19,23.19,0,0,1,805,1229c.3.19.67.45,1.16.76,1.31.78,3.1.89,5.32.89a65.47,65.47,0,0,0,7.69-.49,8.38,8.38,0,0,0-.66,2.31c-1.56.1-4.92.23-7.15.23-2.52,0-4.12-.21-5.49-1-.79-.44-1.48-1.07-1.86-1.07s-1.12,1.29-1.59,2.38l-1.5-2.15a8.2,8.2,0,0,1,2-1.82,18.13,18.13,0,0,0,1.1-3.29h-2.39c.44-1.12.93-2.64,1.37-4.12h-1.71v-2h4.44c-.4,1.33-.85,2.85-1.31,4.18h.78l.34-.07Zm-3.19-5c-.21-.85-.72-2.22-1-3.26l2-.61c.36,1,.86,2.3,1.12,3.15Zm5.59,10.75h-2v-8.26h1.41v-5.81h8.18v5.81h1.39v6.35c0,.89-.15,1.36-.74,1.67a5.53,5.53,0,0,1-2.36.3,5.63,5.63,0,0,0-.49-1.63h-2.85v.59h-1.61v-4.79h4.95v4.08h.78c.21,0,.27-.05.27-.24v-4.62h-7Zm1.4-8.26h1.07v-3h3.13v-1.16h-4.2Zm2.89,3.93h-1.71v1.33h1.71Zm1.31-5.51H813v1.58h1.5Z"/><path d="M807.09,1248.26c-.25-.63-.72-1.56-1.18-2.42v7.56h-2.14v-7.06a19,19,0,0,1-1.88,4.1,13.75,13.75,0,0,0-1-2.24,19.17,19.17,0,0,0,2.33-5.09h-2.09V1241h2.61v-2.28c-.61.11-1.22.23-1.79.3a6.93,6.93,0,0,0-.61-1.74,24.33,24.33,0,0,0,5.49-1.58l1.2,1.86a16.4,16.4,0,0,1-2.15.68V1241H808v2.11h-2.13v.3c.5.55,2,2.53,2.38,3Zm11.63,2.75v2h-11v-2h4.57v-1.73h-3.6v-1.94h3.6v-1.53c-1,.07-2,.13-3,.17a6.45,6.45,0,0,0-.55-1.71,47.73,47.73,0,0,0,7.75-1l1.39,1.71c-1,.25-2.17.44-3.36.61v1.78H818v1.94h-3.4V1251Zm-.92-8h-9v-6.53h9Zm-2.18-4.63h-4.73v2.73h4.73Z"/><path d="M807.92,1274.68c1.46-.55,2.28-1.5,2.28-2.6H810a1.64,1.64,0,0,1-1.75-1.65,1.68,1.68,0,0,1,1.8-1.65c1.29,0,2,1,2,2.75a4.79,4.79,0,0,1-3.59,4.67Z"/><path d="M807.58,1293.67a18.63,18.63,0,0,1-1.27,6.78,23.67,23.67,0,0,1,2.22,2.37l-1.31,1.85c-.47-.63-1.16-1.43-1.93-2.26a12.93,12.93,0,0,1-2.87,3.15,7,7,0,0,0-1.45-1.43,11.54,11.54,0,0,0,2.89-3.19c-.85-.89-1.75-1.73-2.51-2.47a41.31,41.31,0,0,0,.91-4.44l-1,0-.21-2,1.5-.06c.19-1.34.32-2.69.4-3.89l2,.08c-.09,1.15-.24,2.45-.41,3.7l1.15-.06v-1.19h1.9v1.1l.93-.06v1.92Zm-2.81,5.32a16.07,16.07,0,0,0,.9-5.19l-1.45.11c-.23,1.37-.49,2.68-.76,3.88Zm11,4.44c.9,0,1.07-.44,1.2-2.39a6.69,6.69,0,0,0,1.94.81c-.29,2.68-.93,3.63-2.95,3.63h-3.63c-2.35,0-3-.66-3-3.25v-5.54l-1,.34-.56-2.11,1.52-.49v-4.73h2.06v4l1.42-.47v-5h2v4.37l1.71-.57.4-.28,1.69.55-.08.34a62.41,62.41,0,0,1-.78,8.17l-1.82-.51c.19-1.5.32-3.84.38-6l-1.5.52v6.13h-2v-5.45l-1.42.49v6.27c0,1,.15,1.18,1.17,1.18Z"/><path d="M817.75,1317.87v8.25H815.2v-1H802.15v-7.2h2.55v5h4v-6h-5.53V1310h2.39v4.71h3.14v-6.31h2.5v6.31h3.27V1310H817v6.89h-5.78v6h4v-5Z"/><path d="M808.36,1341.89l-6.89,2-.57-2.13c.76-.17,1.69-.41,2.71-.68v-3.82h-2.1v-2.07h2.1v-3.3h-2.28v-2.09H808v2.09H805.8v3.3h2v2.07h-2v3.25l2.26-.63Zm8.44,2.64c.34,0,.42-.31.45-2.21a5.58,5.58,0,0,0,1.89.84c-.2,2.6-.69,3.31-2.09,3.31h-1.43c-1.75,0-2.13-.65-2.13-2.57v-3.72h-1.16c-.34,3.09-1.21,5.3-5.26,6.49a6.91,6.91,0,0,0-1.25-1.86c3.44-.85,4-2.41,4.29-4.63h-1.39v-10.64H818v10.64h-2.33v3.72c0,.55,0,.63.36.63Zm-6-12h5v-1.18h-5Zm0,2.89h5v-1.18h-5Zm0,2.88h5v-1.17h-5Z"/><path d="M818.39,1352.17s0,.76,0,1c-.24,8.5-.45,11.52-1.23,12.52a2.53,2.53,0,0,1-1.82,1,23.6,23.6,0,0,1-3,0,5.22,5.22,0,0,0-.74-2.21c1.22.12,2.34.12,2.83.12a1,1,0,0,0,.84-.33c.55-.6.8-3.45,1-10.16H812.2a16.17,16.17,0,0,1-1.67,3,15.64,15.64,0,0,0-1.46-1.06V1365H804v1.39h-2V1352.3h2.15a20.58,20.58,0,0,0,.55-3.06l2.47.34c-.32,1-.67,1.9-1,2.72h3v3.08a19.75,19.75,0,0,0,2.56-6.12l2.15.49a23.24,23.24,0,0,1-.74,2.42ZM807,1354.28h-3v3.07h3Zm0,8.75v-3.72h-3V1363Zm6.31-1a40.77,40.77,0,0,0-2.64-4.39l1.77-1a46.13,46.13,0,0,1,2.79,4.22Z"/><path d="M807.68,1383.74h-3.86v1.68h-2.09v-14.59h5.95Zm-3.86-10.9v3.34h1.75v-3.34Zm1.75,8.89v-3.57h-1.75v3.57Zm8.95-8v1.8h3.76v2h-1.39v1.48h1.83v2h-1.83V1385c0,1.08-.21,1.65-1,2a8.38,8.38,0,0,1-3.17.38,8.18,8.18,0,0,0-.7-2.13c.91,0,2,0,2.24,0s.4-.07.4-.34v-4.08H808v-2h6.65v-1.48h-6.06v-2h3.67v-1.8H808v-2h4.28v-2h2.22v2h4.27v2Zm-3.86,7.46a23.35,23.35,0,0,1,2.28,3l-2,1.16a27,27,0,0,0-2.19-3.19Z"/><path d="M806.58,1390.76a39.51,39.51,0,0,1-1.47,4v13.12H803v-9.15c-.31.45-.61.87-.91,1.25a15.24,15.24,0,0,0-1.11-2.43,21.78,21.78,0,0,0,3.54-7.35Zm1.46,13.31h-2v-10.16h2Zm6.54-1c-.56,1.72-2,3.49-5.46,4.76a9.87,9.87,0,0,0-1.5-1.65c2.81-.84,4-2,4.56-3.11h-3.57v-1.9h3.95v-1.81h-1.4a11.18,11.18,0,0,1-1.22,1.75,11.32,11.32,0,0,0-1.75-1.12,10.15,10.15,0,0,0,2.17-3.9h-1.79v-1.88h6.25c.08-.49.15-1,.23-1.5h-5.62v-1.86h6.08l.32-.1,1.6.19c-.12,1.09-.29,2.23-.48,3.27h1.82v1.88h-8.15l1.79.42q-.17.48-.36,1h6.25v1.86h-3.46v1.81h4v1.9Zm1.12.13c1.06,1,2.64,2.33,3.45,3.19l-1.61,1.35c-.74-.86-2.26-2.32-3.38-3.36Z"/><path d="M819,1412.51c-.68,1.83-1.52,4-2.3,5.64a6.1,6.1,0,0,1,1.94,4.41c0,1.43-.3,2.36-1.06,2.85a2.77,2.77,0,0,1-1.33.51,8.91,8.91,0,0,1-1.65,0,5.56,5.56,0,0,0-.57-2.18,8.37,8.37,0,0,0,1.19,0,1.58,1.58,0,0,0,.76-.17c.36-.21.5-.67.5-1.3a5.47,5.47,0,0,0-2-3.89c.55-1.37,1.2-3.29,1.67-4.75h-2.41v14.55h-2.22V1412a23.26,23.26,0,0,1-2,4h1.41v2h-2.83c-.4.5-.8.93-1.22,1.39h3.42V1428h-2.14v-.72h-3.06v1H803v-5.75c-.32.21-.64.4-.94.57a11.27,11.27,0,0,0-1.32-1.88,17.36,17.36,0,0,0,4.54-3.14h-4v-2h3.3v-1.56h-2.48v-1.94h2.48v-1.84h2.09v1.84h2v1a17.79,17.79,0,0,0,.93-2.13l2,.55v-.36H817l.34-.07Zm-10.84,8.66h-3.06v1.22h3.06Zm0,4.26v-1.35h-3.06v1.35ZM807,1416c.36-.5.71-1,1.05-1.56h-1.43V1416Z"/><path d="M811.35,1446.24c.49,0,1,0,1.52,0,1.06,0,4.71,0,6.06,0a7.37,7.37,0,0,0-.76,2.16h-5.42c-3.48,0-5.83-.49-7.43-2.7a8.39,8.39,0,0,1-2.66,3,8.94,8.94,0,0,0-1.71-1.57,8,8,0,0,0,3.54-5.76l2.26.34c-.13.61-.29,1.18-.44,1.73a4.19,4.19,0,0,0,2.74,2.38V1441h-7.41v-2h16.75v2h-7v1.43h5.85v2h-5.85Zm5.24-8.06h-13.2v-6.59h13.2Zm-2.3-5h-8.7v1h8.7Zm0,2.45h-8.7v1h8.7Z"/><path d="M804.05,1460.05a12.71,12.71,0,0,0-3-1.82l1.23-1.66a11,11,0,0,1,3,1.66Zm-2.64,7.69a57.3,57.3,0,0,0,2.45-6.1l1.82,1.18c-.62,2-1.46,4.22-2.24,6.08Zm11.78-10.1v.91h5.17v8.62c0,.9-.16,1.31-.73,1.6a5.71,5.71,0,0,1-2.43.3,6.28,6.28,0,0,0-.49-1.65c.59,0,1.21,0,1.4,0s.27-.06.27-.25v-1.25a4.19,4.19,0,0,0-.63.65,4.39,4.39,0,0,1-.83-1.66,3.94,3.94,0,0,1-1.18,1.71,3.09,3.09,0,0,0-.55-.66v3h-2v-3a3.85,3.85,0,0,0-.53.57,4.93,4.93,0,0,1-.8-1.57,4.09,4.09,0,0,1-1.14,1.8,4.15,4.15,0,0,0-.6-.7v3h-1.92v-10.52h5v-.91h-2.68v-3H806v-1.19l-1.2,1.63a11.78,11.78,0,0,0-2.94-1.92l1.27-1.67a14.22,14.22,0,0,1,2.87,1.65v-.45h2.58v-1.35h2.11v1.35h3.25v-1.35h2.21v1.35h2.6v2h-2.6v3Zm-2.7,3.42a9.79,9.79,0,0,0,.72,4v-4.61h-3.07v5.24a4.73,4.73,0,0,0,1-2.77h.4l0-.46h-.86v-1.38Zm.15-5.3h3.25v-1.09h-3.25Zm2.55,4.67v5a4.36,4.36,0,0,0,.95-2.54h.4l0-.46h-.87v-1.38h1.88a8.86,8.86,0,0,0,.87,4.18v-4.81Z"/><path d="M816.44,1486.65c0,1.37-.33,2-1.2,2.39a11.45,11.45,0,0,1-4.2.44,9.62,9.62,0,0,0-.95-2.38c1.33.08,2.93.06,3.35.06s.6-.15.6-.55v-2.75h-8.13a10.23,10.23,0,0,1-3.21,5.68,8.52,8.52,0,0,0-1.75-1.64c2.87-2.45,3.14-6.08,3.14-9v-6.25h12.35Zm-2.4-5v-2.32h-7.61c0,.73-.06,1.52-.14,2.32Zm-7.61-6.78v2.32H814v-2.32Z"/><path d="M807.92,1510.83c1.46-.55,2.28-1.5,2.28-2.6H810a1.64,1.64,0,0,1-1.75-1.65,1.68,1.68,0,0,1,1.8-1.65c1.29,0,2,1,2,2.75a4.79,4.79,0,0,1-3.59,4.67Z"/><path d="M807.58,1529.82a18.63,18.63,0,0,1-1.27,6.78,23.67,23.67,0,0,1,2.22,2.37l-1.31,1.85c-.47-.63-1.16-1.43-1.93-2.26a12.93,12.93,0,0,1-2.87,3.15,6.74,6.74,0,0,0-1.45-1.42,11.71,11.71,0,0,0,2.89-3.2c-.85-.89-1.75-1.73-2.51-2.47a41.31,41.31,0,0,0,.91-4.44l-1,.06-.21-2,1.5,0c.19-1.35.32-2.7.4-3.9l2,.08c-.09,1.16-.24,2.45-.41,3.7l1.15-.06v-1.19h1.9v1.1l.93-.06v1.92Zm-2.81,5.32a16.07,16.07,0,0,0,.9-5.19l-1.45.11c-.23,1.37-.49,2.68-.76,3.88Zm11,4.44c.9,0,1.07-.43,1.2-2.39a6.69,6.69,0,0,0,1.94.81c-.29,2.68-.93,3.63-2.95,3.63h-3.63c-2.35,0-3-.66-3-3.25v-5.54l-1,.34-.56-2.11,1.52-.49v-4.73h2.06v4l1.42-.48v-5h2v4.36l1.71-.56.4-.29,1.69.55-.08.34a62.41,62.41,0,0,1-.78,8.17l-1.82-.51c.19-1.5.32-3.84.38-6l-1.5.52v6.13h-2v-5.45l-1.42.49v6.27c0,1,.15,1.18,1.17,1.18Z"/><path d="M818.66,1555.18v1.71H801.31v-1.71h4.36a8.2,8.2,0,0,0-.44-1l.8-.19h-1.94v-3.76h12V1554H815a12.11,12.11,0,0,1-.76,1.18Zm-9.88-7.9H802v-1.62h6.82v-1.14h2.3v1.14h7v1.62h-7v.78h5.85v1.56H803.27v-1.56h5.51Zm-5.07,10.31h12.78v4.68h-2.33v-.5h-8.23v.52h-2.22Zm2.22,1.5v1.16h8.23v-1.16Zm.31-6.47h7.58v-.95h-7.58Zm1.25,1.38a5.52,5.52,0,0,1,.53,1.18h3.91a9.92,9.92,0,0,0,.5-1.18Z"/><path d="M815.39,1571.67c0,.67,0,1.43-.07,2.23.58,3,1.73,5.73,3.72,7a7.08,7.08,0,0,0-1.43,1.9,10.17,10.17,0,0,1-3.07-4.88,12,12,0,0,1-2.89,4.9,7.08,7.08,0,0,0-1.27-1.31v.36h-6v.82h-1.73v-5.87a8.91,8.91,0,0,1-.72.85,12.5,12.5,0,0,0-.95-1.55,12.65,12.65,0,0,0,2.42-3.73h-1.6v-3.61h3.93v3.61h-1.67l.93.33c-.13.3-.28.62-.43,1h1.7a8.2,8.2,0,0,0-.41-.84l1.23-.45h-.57v-3.61h3.93V1572a21.89,21.89,0,0,0,1.71-7.11l2.07.32c-.09.82-.22,1.62-.38,2.42h3.44l.31-.08,1.38.4a36.14,36.14,0,0,1-1.29,5.32l-1.63-.52c.23-.81.47-1.93.68-3.07H813.4a15.64,15.64,0,0,1-1.66,4.42,11.72,11.72,0,0,0-1.71-1.38l.21-.34h-2.88a6.29,6.29,0,0,1,.66,1.29h2.53v1.5H808v.72h2.17v1.4H808v.8h2.32v1.41H808v.85h2.4v.65c2.79-3,3.06-6.86,3.06-9.4v-1.18h1.95Zm-12-4.14h-2.31v-1.59h2.31v-1h1.92v3.51H803.4Zm-.32,3.76h1.27V1570h-1.27Zm3.08,3.92h-1.79v.72h1.79Zm0,2.12h-1.79v.8h1.79Zm-1.79,3.06h1.79v-.85h-1.79Zm4.49-11.91h-1.94V1565h1.94v1H811v1.59h-2.18Zm-1.07,2.78h1.28V1570h-1.28Z"/><path d="M815.6,1592a15.91,15.91,0,0,1-2.94,6c2.24,1.06,4.25,2.12,5.73,3l-1.76,2.17c-1.5-1-3.56-2.15-5.87-3.33a19.71,19.71,0,0,1-8.13,3.21,8.64,8.64,0,0,0-1.35-2.2,19.79,19.79,0,0,0,6.93-2.26c-1.56-.74-3.17-1.47-4.77-2.09a48.27,48.27,0,0,0,2.17-4.47h-4v-2.43h5c.53-1.46,1-2.94,1.37-4.33l2.43.34a41.46,41.46,0,0,1-1.18,4h4.46c.12-.59.23-1.2.33-1.86l2.43.57c-.08.44-.15.87-.23,1.29h2.34V1592Zm-7.31,0c-.46,1.22-.95,2.38-1.41,3.38,1.14.5,2.3,1,3.4,1.49A11.81,11.81,0,0,0,813,1592Z"/><path d="M818.58,1620.81V1623H801.51v-2.22h7.33V1617h-5.15v-2.19h5.15v-3.34h-3.93a16.12,16.12,0,0,1-1.77,2.75,17.83,17.83,0,0,0-2-1.34,16.44,16.44,0,0,0,3.36-6.81l2.33.52c-.26.91-.56,1.8-.89,2.68h2.93v-3.42h2.37v3.42h6.4v2.2h-6.4v3.34h5.68V1617h-5.68v3.82Z"/><path d="M812.64,1632.38a48.76,48.76,0,0,1,6.32,5.15l-1.91,1.73a43.93,43.93,0,0,0-5.82-5.15V1644h-2.47v-9.27a22.79,22.79,0,0,1-6,4.67,12.9,12.9,0,0,0-1.56-2,20,20,0,0,0,8.19-7.47h-7.58v-2.31h16.47v2.31h-5.91a18.18,18.18,0,0,1-1.1,1.75v2Z"/><path d="M811.35,1662c.49,0,1,.06,1.52.06,1.06,0,4.71,0,6.06-.06a7.33,7.33,0,0,0-.76,2.17h-5.42c-3.48,0-5.83-.5-7.43-2.7a8.47,8.47,0,0,1-2.66,3,9,9,0,0,0-1.71-1.58,8,8,0,0,0,3.54-5.75l2.26.34c-.13.61-.29,1.18-.44,1.73a4.18,4.18,0,0,0,2.74,2.37v-4.82h-7.41v-2h16.75v2h-7v1.42h5.85v2h-5.85Zm5.24-8h-13.2v-6.6h13.2Zm-2.3-5h-8.7v1h8.7Zm0,2.45h-8.7v1h8.7Z"/><path d="M818.17,1667.72v17.12H816V1684H804v.86H801.9v-17.12ZM816,1682.14v-12.39H804v12.39Zm-5.07-7.16c0,.28-.08.55-.13.81a27.66,27.66,0,0,1,4.5,4.33l-1.58,1.39a30.52,30.52,0,0,0-3.53-3.76,7.34,7.34,0,0,1-4.07,4,6.44,6.44,0,0,0-1.35-1.81,6,6,0,0,0,4-5h-3.8v-2h4c.06-.77.08-1.59.1-2.48h2.2c0,.87-.05,1.69-.11,2.48h4v2Z"/><path d="M818.36,1698.59c-.33,3.69-.65,5.28-1.24,5.89a2,2,0,0,1-1.42.71,17.53,17.53,0,0,1-2.26,0,5,5,0,0,0-.61-2,15.66,15.66,0,0,0,1.84.09.82.82,0,0,0,.63-.2c.3-.31.55-1.26.78-3.42H804.77c-.3.22-.62.43-1,.64l1.73.55a7.92,7.92,0,0,1-2.22,4.3l-1.77-1.13a6.87,6.87,0,0,0,2.06-3.58c-.46.28-.94.53-1.41.77a14.06,14.06,0,0,0-1.18-2,17.34,17.34,0,0,0,7.28-6.52h-6.1v-2h3.19a15.1,15.1,0,0,0-1.2-2.42l2-.76a12.9,12.9,0,0,1,1.46,2.78l-1,.4h2.76a21.87,21.87,0,0,0,1.31-3.25l2.26.62c-.32.9-.68,1.77-1.08,2.63h3.72c-.19,1.14-.48,2.43-.72,3.47h2.16c-.21,1.14-.45,2.47-.68,3.5h2ZM808,1700.85a13.34,13.34,0,0,1,.51,3.5l-1.95.25a13.61,13.61,0,0,0-.38-3.52Zm.48-4.65a20.54,20.54,0,0,1-1.43,1.54h7.26c.11-.46.23-1,.34-1.54Zm2.33,4.31a14.75,14.75,0,0,1,.91,3.08l-1.8.45a16.35,16.35,0,0,0-.87-3.15Zm0-7.77c-.28.51-.59,1-.91,1.5h2.91c.11-.45.22-1,.32-1.5Zm2.11,10.32a10.85,10.85,0,0,0-1.12-2.57l1.56-.53a10,10,0,0,1,1.23,2.51Z"/><path d="M807.58,1713.64a18.56,18.56,0,0,1-1.27,6.78,23.64,23.64,0,0,1,2.22,2.38l-1.31,1.84c-.47-.63-1.16-1.42-1.93-2.26a12.75,12.75,0,0,1-2.87,3.15,7,7,0,0,0-1.45-1.42,11.68,11.68,0,0,0,2.89-3.19c-.85-.9-1.75-1.73-2.51-2.47a42.06,42.06,0,0,0,.91-4.45l-1,.06-.21-2,1.5-.06c.19-1.35.32-2.7.4-3.89l2,.07c-.09,1.16-.24,2.45-.41,3.71l1.15-.06v-1.2h1.9v1.1l.93,0v1.92Zm-2.81,5.32a16,16,0,0,0,.9-5.19l-1.45.12c-.23,1.37-.49,2.68-.76,3.87Zm11,4.45c.9,0,1.07-.44,1.2-2.4a6.45,6.45,0,0,0,1.94.82c-.29,2.68-.93,3.63-2.95,3.63h-3.63c-2.35,0-3-.67-3-3.25v-5.55l-1,.34-.56-2.1,1.52-.5v-4.73h2.06v4l1.42-.48v-5h2v4.37l1.71-.57.4-.29,1.69.55-.08.35a62.75,62.75,0,0,1-.78,8.17l-1.82-.52c.19-1.5.32-3.83.38-6l-1.5.51v6.14h-2v-5.45l-1.42.49v6.27c0,1,.15,1.18,1.17,1.18Z"/><path d="M808.25,1732.78a14.09,14.09,0,0,1-.76,1.5h8.83v9.38c0,1.12-.21,1.73-1,2.07a8.45,8.45,0,0,1-3.37.38,9.31,9.31,0,0,0-.68-2.18c1,0,2.07,0,2.39,0s.44-.11.44-.38v-1.14H807a6.67,6.67,0,0,1-2.11,3.79,7.71,7.71,0,0,0-1.64-1.73c1.64-1.43,1.77-3.46,1.77-5.23v-1.54a14.59,14.59,0,0,1-2.36,2.07,12.37,12.37,0,0,0-1.48-1.74,14.49,14.49,0,0,0,4.56-5.3H801.6v-2.13h5.09a22.07,22.07,0,0,0,.76-2.3l2.34.53c-.19.59-.4,1.18-.61,1.77h9.27v2.13Zm5.87,7.8v-1.23H807.3c0,.4,0,.8,0,1.23Zm0-4.31H807.3v1.2h6.82Z"/><path d="M807.68,1762.87h-3.86v1.67h-2.09V1750h5.95Zm-3.86-10.9v3.34h1.75V1752Zm1.75,8.89v-3.57h-1.75v3.57Zm8.95-8.06v1.81h3.76v2h-1.39V1758h1.83v2h-1.83v4.14c0,1.09-.21,1.66-1,2a8.38,8.38,0,0,1-3.17.38,8.18,8.18,0,0,0-.7-2.13c.91,0,2,0,2.24,0s.4-.08.4-.34V1760H808v-2h6.65v-1.48h-6.06v-2h3.67v-1.81H808v-2h4.28v-2h2.22v2h4.27v2Zm-3.86,7.47a23.35,23.35,0,0,1,2.28,3l-2,1.16a27.08,27.08,0,0,0-2.19-3.2Z"/><path d="M806.58,1769.88a39.51,39.51,0,0,1-1.47,3.95V1787H803v-9.16c-.31.46-.61.88-.91,1.26a15.24,15.24,0,0,0-1.11-2.43,21.87,21.87,0,0,0,3.54-7.35ZM808,1783.2h-2V1773h2Zm6.54-1c-.56,1.73-2,3.5-5.46,4.77a9.15,9.15,0,0,0-1.5-1.65c2.81-.84,4-2,4.56-3.12h-3.57v-1.9h3.95v-1.8h-1.4a10.62,10.62,0,0,1-1.22,1.74,12.12,12.12,0,0,0-1.75-1.12,10.18,10.18,0,0,0,2.17-3.89h-1.79v-1.88h6.25c.08-.5.15-1,.23-1.5h-5.62V1770h6.08l.32-.1,1.6.19c-.12,1.08-.29,2.22-.48,3.27h1.82v1.88h-8.15l1.79.42c-.11.32-.23.64-.36,1h6.25v1.86h-3.46v1.8h4v1.9Zm1.12.13c1.06,1,2.64,2.34,3.45,3.2l-1.61,1.34c-.74-.85-2.26-2.31-3.38-3.36Z"/><path d="M812.64,1795.78a48.76,48.76,0,0,1,6.32,5.15l-1.91,1.73a43.93,43.93,0,0,0-5.82-5.15v9.84h-2.47v-9.27a22.79,22.79,0,0,1-6,4.67,12.9,12.9,0,0,0-1.56-2,20,20,0,0,0,8.19-7.47h-7.58v-2.31h16.47v2.31h-5.91a18.18,18.18,0,0,1-1.1,1.75v2Z"/><path d="M811.35,1825.36c.49,0,1,.06,1.52.06,1.06,0,4.71,0,6.06-.06a7.33,7.33,0,0,0-.76,2.17h-5.42c-3.48,0-5.83-.5-7.43-2.7a8.47,8.47,0,0,1-2.66,3,8.67,8.67,0,0,0-1.71-1.58,8,8,0,0,0,3.54-5.75l2.26.34c-.13.61-.29,1.18-.44,1.73a4.18,4.18,0,0,0,2.74,2.37v-4.82h-7.41v-2h16.75v2h-7v1.42h5.85v2h-5.85Zm5.24-8h-13.2v-6.6h13.2Zm-2.3-5h-8.7v1h8.7Zm0,2.45h-8.7v1h8.7Z"/><path d="M815.6,1837.12a15.91,15.91,0,0,1-2.94,6c2.24,1.06,4.25,2.13,5.73,3l-1.76,2.17c-1.5-1-3.56-2.15-5.87-3.33a19.71,19.71,0,0,1-8.13,3.21,8.64,8.64,0,0,0-1.35-2.2,19.79,19.79,0,0,0,6.93-2.26c-1.56-.74-3.17-1.47-4.77-2.09a48.27,48.27,0,0,0,2.17-4.47h-4v-2.43h5c.53-1.46,1-2.94,1.37-4.33l2.43.34a41.46,41.46,0,0,1-1.18,4h4.46c.12-.59.23-1.19.33-1.86l2.43.57c-.08.44-.15.87-.23,1.29h2.34v2.43Zm-7.31,0c-.46,1.22-.95,2.38-1.41,3.38,1.14.5,2.3,1,3.4,1.49a11.81,11.81,0,0,0,2.72-4.87Z"/><path d="M818.58,1865.91v2.22H801.51v-2.22h7.33v-3.82h-5.15v-2.19h5.15v-3.34h-3.93a15.73,15.73,0,0,1-1.77,2.75,17.83,17.83,0,0,0-2-1.34,16.46,16.46,0,0,0,3.36-6.8l2.33.51c-.26.91-.56,1.8-.89,2.68h2.93v-3.42h2.37v3.42h6.4v2.2h-6.4v3.34h5.68v2.19h-5.68v3.82Z"/><path d="M807.92,1890c1.46-.55,2.28-1.5,2.28-2.6H810a1.64,1.64,0,0,1-1.75-1.65,1.68,1.68,0,0,1,1.8-1.66c1.29,0,2,1,2,2.76a4.79,4.79,0,0,1-3.59,4.67Z"/><path d="M817.9,1909.7a24.13,24.13,0,0,1-3.23,6.75c.49,1.38,1.05,2.18,1.56,2.18s.61-1,.72-3.36a6,6,0,0,0,1.94,1.33c-.34,3.55-1.1,4.41-2.89,4.41-1.22,0-2.18-.93-3-2.47a18.08,18.08,0,0,1-3,2.58,15.18,15.18,0,0,0-1.76-1.73,14.57,14.57,0,0,0,1.71-1.2c-2.81.63-5.82,1.28-8.08,1.75l-.41-2.32c2.12-.36,5.41-1,8.45-1.61l.21,2a15.32,15.32,0,0,0,1.92-1.94,41,41,0,0,1-1.33-7.86h-9.18V1906h9.06c0-.93-.07-1.83-.07-2.74H813c0,.91,0,1.83,0,2.74h3a13.49,13.49,0,0,0-2.26-1.43l1.35-1.4A12,12,0,0,1,818,1905l-1,1h1.41v2.24h-5.34a42.49,42.49,0,0,0,.74,5.2,22.72,22.72,0,0,0,1.79-4.29Zm-8.36-.24v6h-7.07v-6Zm-2.18,1.9h-2.83v2.18h2.83Z"/><path d="M807.58,1929.37a18.63,18.63,0,0,1-1.27,6.78,23.67,23.67,0,0,1,2.22,2.37l-1.31,1.85c-.47-.63-1.16-1.43-1.93-2.26a12.93,12.93,0,0,1-2.87,3.15,7,7,0,0,0-1.45-1.43,11.54,11.54,0,0,0,2.89-3.19c-.85-.89-1.75-1.73-2.51-2.47a41.31,41.31,0,0,0,.91-4.44l-1,.06-.21-2,1.5,0c.19-1.35.32-2.7.4-3.9l2,.08c-.09,1.16-.24,2.45-.41,3.7l1.15-.06v-1.19h1.9v1.1l.93-.06v1.92Zm-2.81,5.32a16.07,16.07,0,0,0,.9-5.19l-1.45.11c-.23,1.37-.49,2.68-.76,3.88Zm11,4.44c.9,0,1.07-.43,1.2-2.39a6.69,6.69,0,0,0,1.94.81c-.29,2.68-.93,3.63-2.95,3.63h-3.63c-2.35,0-3-.66-3-3.24v-5.55l-1,.34-.56-2.11,1.52-.49v-4.73h2.06v4l1.42-.47v-5h2v4.36l1.71-.57.4-.28,1.69.55-.08.34a62.41,62.41,0,0,1-.78,8.17l-1.82-.51c.19-1.5.32-3.84.38-6l-1.5.52v6.13h-2v-5.45l-1.42.49V1938c0,1,.15,1.18,1.17,1.18Z"/><path d="M812.64,1950.23a48.76,48.76,0,0,1,6.32,5.15l-1.91,1.73a44.66,44.66,0,0,0-5.82-5.15v9.84h-2.47v-9.27a22.79,22.79,0,0,1-6,4.67,12.9,12.9,0,0,0-1.56-2,19.89,19.89,0,0,0,8.19-7.47h-7.58v-2.31h16.47v2.31h-5.91a18.18,18.18,0,0,1-1.1,1.75v2Z"/><path d="M811.35,1979.81c.49,0,1,.06,1.52.06,1.06,0,4.71,0,6.06-.06a7.33,7.33,0,0,0-.76,2.17h-5.42c-3.48,0-5.83-.5-7.43-2.7a8.47,8.47,0,0,1-2.66,3,9,9,0,0,0-1.71-1.58,8,8,0,0,0,3.54-5.75l2.26.34c-.13.61-.29,1.18-.44,1.73a4.18,4.18,0,0,0,2.74,2.37v-4.82h-7.41v-2h16.75v2h-7V1976h5.85v2h-5.85Zm5.24-8h-13.2v-6.59h13.2Zm-2.3-5h-8.7v1h8.7Zm0,2.45h-8.7v1h8.7Z"/><path d="M815.6,1991.57a15.91,15.91,0,0,1-2.94,6c2.24,1.06,4.25,2.13,5.73,3l-1.76,2.17c-1.5-1-3.56-2.15-5.87-3.33a19.71,19.71,0,0,1-8.13,3.21,8.64,8.64,0,0,0-1.35-2.2,19.79,19.79,0,0,0,6.93-2.26c-1.56-.74-3.17-1.46-4.77-2.09a47.06,47.06,0,0,0,2.17-4.47h-4v-2.43h5c.53-1.46,1-2.94,1.37-4.33l2.43.34a41.46,41.46,0,0,1-1.18,4h4.46c.12-.59.23-1.19.33-1.86l2.43.57c-.08.44-.15.87-.23,1.29h2.34v2.43Zm-7.31,0c-.46,1.22-.95,2.38-1.41,3.39,1.14.49,2.3,1,3.4,1.48a11.81,11.81,0,0,0,2.72-4.87Z"/><path d="M818.58,2020.36v2.22H801.51v-2.22h7.33v-3.82h-5.15v-2.19h5.15V2011h-3.93a15.73,15.73,0,0,1-1.77,2.75,17.83,17.83,0,0,0-2-1.34,16.46,16.46,0,0,0,3.36-6.8l2.33.51c-.26.91-.56,1.8-.89,2.68h2.93v-3.42h2.37v3.42h6.4v2.2h-6.4v3.34h5.68v2.19h-5.68v3.82Z"/><path d="M807.92,2044.41c1.46-.55,2.28-1.5,2.28-2.6H810a1.64,1.64,0,0,1-1.75-1.65,1.68,1.68,0,0,1,1.8-1.66c1.29,0,2,1,2,2.76a4.79,4.79,0,0,1-3.59,4.67Z"/><path d="M809,2070.44a24.58,24.58,0,0,1-5.74,5,16.64,16.64,0,0,0-1.88-1.57,17.15,17.15,0,0,0,5.22-4.41Zm7.71-11.36v9.08H803.33v-9.08ZM805.67,2066h8.62v-4.76h-8.62Zm7.71,3.42a40.89,40.89,0,0,1,5.17,4.62l-2.13,1.33a35.2,35.2,0,0,0-5-4.79Z"/><path d="M811.35,2093.41c.49,0,1,.06,1.52.06,1.06,0,4.71,0,6.06-.06a7.33,7.33,0,0,0-.76,2.17h-5.42c-3.48,0-5.83-.5-7.43-2.7a8.47,8.47,0,0,1-2.66,3,9,9,0,0,0-1.71-1.58,8,8,0,0,0,3.54-5.75l2.26.34c-.13.61-.29,1.18-.44,1.73a4.18,4.18,0,0,0,2.74,2.37v-4.82h-7.41v-2h16.75v2h-7v1.42h5.85v2h-5.85Zm5.24-8h-13.2v-6.59h13.2Zm-2.3-5h-8.7v1h8.7Zm0,2.45h-8.7v1h8.7Z"/><path d="M807.58,2104.24a18.64,18.64,0,0,1-1.27,6.79,23.67,23.67,0,0,1,2.22,2.37l-1.31,1.84c-.47-.62-1.16-1.42-1.93-2.26a13,13,0,0,1-2.87,3.16,6.78,6.78,0,0,0-1.45-1.43,11.68,11.68,0,0,0,2.89-3.19c-.85-.89-1.75-1.73-2.51-2.47a41.54,41.54,0,0,0,.91-4.45l-1,.06-.21-2,1.5-.06c.19-1.35.32-2.7.4-3.89l2,.07c-.09,1.16-.24,2.45-.41,3.71l1.15-.06v-1.2h1.9v1.11l.93-.06v1.92Zm-2.81,5.32a16,16,0,0,0,.9-5.18l-1.45.11c-.23,1.37-.49,2.68-.76,3.88Zm11,4.45c.9,0,1.07-.44,1.2-2.4a6.45,6.45,0,0,0,1.94.82c-.29,2.68-.93,3.63-2.95,3.63h-3.63c-2.35,0-3-.67-3-3.25v-5.55l-1,.35-.56-2.11,1.52-.5v-4.73h2.06v4l1.42-.47v-5h2v4.37l1.71-.57.4-.28,1.69.55-.08.34a62.75,62.75,0,0,1-.78,8.17l-1.82-.52c.19-1.5.32-3.83.38-6l-1.5.51v6.14h-2v-5.45l-1.42.49v6.27c0,1.05.15,1.18,1.17,1.18Z"/><path d="M818.66,2129.61v1.71H801.31v-1.71h4.36a7.56,7.56,0,0,0-.44-1l.8-.19h-1.94v-3.76h12v3.76H815a12.11,12.11,0,0,1-.76,1.18Zm-9.88-7.91H802v-1.61h6.82V2119h2.3v1.14h7v1.61h-7v.78h5.85V2124H803.27v-1.56h5.51ZM803.71,2132h12.78v4.67h-2.33v-.49h-8.23v.51h-2.22Zm2.22,1.5v1.16h8.23v-1.16Zm.31-6.48h7.58v-.95h-7.58Zm1.25,1.39a5.52,5.52,0,0,1,.53,1.18h3.91a9.92,9.92,0,0,0,.5-1.18Z"/><path d="M815.39,2146.1c0,.66,0,1.42-.07,2.22.58,3,1.73,5.74,3.72,7a6.92,6.92,0,0,0-1.43,1.9,10.17,10.17,0,0,1-3.07-4.88,12,12,0,0,1-2.89,4.9,7.08,7.08,0,0,0-1.27-1.31v.36h-6v.82h-1.73v-5.87a8.91,8.91,0,0,1-.72.85,3,3,0,0,1,1.47-5.28h-1.6v-3.61h3.93v3.61h-1.67l.93.32c-.13.31-.28.63-.43,1h1.7a8,8,0,0,0-.41-.83l1.23-.46h-.57v-3.61h3.93v3.23a21.76,21.76,0,0,0,1.71-7.1l2.07.32c-.09.82-.22,1.61-.38,2.41h3.44l.31-.07,1.38.39a35.83,35.83,0,0,1-1.29,5.32l-1.63-.51c.23-.82.47-1.94.68-3.08H813.4a15.6,15.6,0,0,1-1.66,4.43,12.47,12.47,0,0,0-1.71-1.39,3.87,3.87,0,0,0,.21-.34h-2.88a6.56,6.56,0,0,1,.66,1.29h2.53v1.5H808v.73h2.17v1.4H808v.8h2.32v1.4H808v.86h2.4v.65c2.79-3,3.06-6.86,3.06-9.41v-1.18h1.95Zm-12-4.14h-2.31v-1.6h2.31v-1h1.92v3.52H803.4Zm-.32,3.76h1.27v-1.35h-1.27Zm3.08,3.91h-1.79v.73h1.79Zm0,2.13h-1.79v.8h1.79Zm-1.79,3.06h1.79V2154h-1.79Zm4.49-11.91h-1.94v-3.52h1.94v1H811v1.6h-2.18Zm-1.07,2.77h1.28v-1.29h-1.28Z"/><path d="M818.39,2162.74s0,.76,0,1c-.24,8.49-.45,11.51-1.23,12.52a2.52,2.52,0,0,1-1.82,1,20.36,20.36,0,0,1-3,0,5.18,5.18,0,0,0-.74-2.2c1.22.11,2.34.11,2.83.11a1,1,0,0,0,.84-.32c.55-.61.8-3.46,1-10.16H812.2a16.17,16.17,0,0,1-1.67,3,15.55,15.55,0,0,0-1.46-1.07v8.88H804V2177h-2v-14.11h2.15a20.58,20.58,0,0,0,.55-3.06l2.47.34c-.32,1-.67,1.9-1,2.72h3V2166a19.75,19.75,0,0,0,2.56-6.12l2.15.49a22.36,22.36,0,0,1-.74,2.41ZM807,2164.85h-3v3.08h3Zm0,8.76v-3.72h-3v3.72Zm6.31-1a40.71,40.71,0,0,0-2.64-4.38l1.77-1a44.8,44.8,0,0,1,2.79,4.22Z"/><path d="M811.12,2180.26c0,.8-.06,1.83-.14,3,.27,2.56,1.43,9.72,8.06,12.65a6,6,0,0,0-1.65,2,14.71,14.71,0,0,1-7.43-9,15.52,15.52,0,0,1-7,9.1,7.18,7.18,0,0,0-1.88-1.84c7.71-4.13,7.35-12.64,7.42-15.85Z"/><path d="M817.75,2210.15v8.24H815.2v-1H802.15v-7.2h2.55v5h4v-6h-5.53v-6.9h2.39V2207h3.14v-6.31h2.5V2207h3.27v-4.72H817v6.9h-5.78v6h4v-5Z"/><path d="M808.36,2234.16l-6.89,2-.57-2.13c.76-.17,1.69-.42,2.71-.68v-3.82h-2.1v-2.07h2.1v-3.31h-2.28v-2.09H808v2.09H805.8v3.31h2v2.07h-2v3.25l2.26-.63Zm8.44,2.64c.34,0,.42-.3.45-2.2a6,6,0,0,0,1.89.84c-.2,2.6-.69,3.3-2.09,3.3h-1.43c-1.75,0-2.13-.64-2.13-2.56v-3.73h-1.16c-.34,3.1-1.21,5.3-5.26,6.5a6.91,6.91,0,0,0-1.25-1.86c3.44-.86,4-2.41,4.29-4.64h-1.39v-10.63H818v10.63h-2.33v3.73c0,.55,0,.62.36.62Zm-6-12h5v-1.18h-5Zm0,2.88h5v-1.17h-5Zm0,2.89h5v-1.18h-5Z"/><path d="M812.64,2247.66a48.73,48.73,0,0,1,6.32,5.14l-1.91,1.73a45.41,45.41,0,0,0-5.82-5.15v9.84h-2.47V2250a22.62,22.62,0,0,1-6,4.68,12.9,12.9,0,0,0-1.56-2.05,20,20,0,0,0,8.19-7.47h-7.58v-2.32h16.47v2.32h-5.91a18.18,18.18,0,0,1-1.1,1.75v2Z"/><path d="M818.07,2277.08c0,1.18-.25,1.83-1,2.19a7.69,7.69,0,0,1-3.36.44,7.92,7.92,0,0,0-.78-2.25c1,.06,2.11.06,2.43,0s.46-.13.46-.43V2265H804.16v14.71H802v-16.85h16.11Zm-3.34-8.87h-9.48v-1.9h9.48Zm-6.5,7.81v1.25h-2.09v-7.59h7.73V2276Zm0-4.48v2.62h3.55v-2.62Z"/><path d="M818.39,2285.29s0,.76,0,1c-.24,8.49-.45,11.51-1.23,12.52a2.52,2.52,0,0,1-1.82,1,20.36,20.36,0,0,1-3,0,5.22,5.22,0,0,0-.74-2.2c1.22.11,2.34.11,2.83.11a1,1,0,0,0,.84-.32c.55-.61.8-3.46,1-10.16H812.2a16.17,16.17,0,0,1-1.67,3,15.55,15.55,0,0,0-1.46-1.07v8.88H804v1.38h-2v-14.11h2.15a20.58,20.58,0,0,0,.55-3.06l2.47.34c-.32.95-.67,1.9-1,2.72h3v3.08a19.75,19.75,0,0,0,2.56-6.12l2.15.49a22.36,22.36,0,0,1-.74,2.41ZM807,2287.4h-3v3.08h3Zm0,8.76v-3.72h-3v3.72Zm6.31-1a39.82,39.82,0,0,0-2.64-4.39l1.77-1a46.13,46.13,0,0,1,2.79,4.22Z"/><path d="M807.58,2308.49a18.64,18.64,0,0,1-1.27,6.79,23.67,23.67,0,0,1,2.22,2.37l-1.31,1.84c-.47-.62-1.16-1.42-1.93-2.26a13,13,0,0,1-2.87,3.16A6.78,6.78,0,0,0,801,2319a11.68,11.68,0,0,0,2.89-3.19c-.85-.89-1.75-1.73-2.51-2.47a41.54,41.54,0,0,0,.91-4.45l-1,.06-.21-2,1.5-.06c.19-1.35.32-2.7.4-3.89l2,.07c-.09,1.16-.24,2.45-.41,3.71l1.15-.06v-1.2h1.9v1.11l.93-.06v1.92Zm-2.81,5.32a16,16,0,0,0,.9-5.18l-1.45.11c-.23,1.37-.49,2.68-.76,3.88Zm11,4.45c.9,0,1.07-.44,1.2-2.4a6.45,6.45,0,0,0,1.94.82c-.29,2.68-.93,3.63-2.95,3.63h-3.63c-2.35,0-3-.67-3-3.25v-5.55l-1,.35-.56-2.11,1.52-.5v-4.73h2.06v4l1.42-.47v-5h2v4.37l1.71-.57.4-.28,1.69.55-.08.34a62.75,62.75,0,0,1-.78,8.17l-1.82-.52c.19-1.5.32-3.83.38-6l-1.5.51v6.14h-2v-5.45l-1.42.49v6.27c0,1,.15,1.18,1.17,1.18Z"/><path d="M818.66,2330.06a21,21,0,0,1-3.17,3.78v4.33c0,1.31-.25,2-1.1,2.36a10.19,10.19,0,0,1-3.86.41,9.6,9.6,0,0,0-.8-2.37c1.16.06,2.53,0,2.89,0s.53-.14.53-.48v-2.32a33,33,0,0,1-10.37,5,16.65,16.65,0,0,0-1.52-2.07,32.39,32.39,0,0,0,8.53-3.42c-2.83.23-5.57.42-7.64.59l-.23-2c.72,0,1.5-.1,2.38-.14V2325h3.93a14.62,14.62,0,0,0,.61-1.84l2.77.29a16.4,16.4,0,0,1-.87,1.55h4.75v5.36c.34-.46.66-.91,1-1.39Zm-12.1-3.1v1.1h6.59V2327Zm6.59,2.72h-6.59v1.12h6.59Zm-6.59,3.93c2-.13,4.12-.28,6.23-.44l.36-.3v-.44h-6.59Z"/><path d="M818.64,2358.18v2.28H801.37v-2.28h6.8v-14.31h2.43v5.43h6.71v2.3H810.6v6.58Z"/><path d="M807.92,2382.69c1.46-.56,2.28-1.51,2.28-2.61H810a1.64,1.64,0,0,1-1.75-1.65,1.68,1.68,0,0,1,1.8-1.65c1.29,0,2,1,2,2.75a4.8,4.8,0,0,1-3.59,4.68Z"/><path d="M804.05,2404.65a12.71,12.71,0,0,0-3-1.82l1.23-1.66a11,11,0,0,1,3,1.66Zm-2.64,7.7a59.08,59.08,0,0,0,2.45-6.1l1.82,1.17c-.62,2-1.46,4.22-2.24,6.08Zm11.78-10.11v.91h5.17v8.63c0,.89-.16,1.31-.73,1.59a5.53,5.53,0,0,1-2.43.31,6.24,6.24,0,0,0-.49-1.66c.59,0,1.21,0,1.4,0s.27-.05.27-.24v-1.26a4.19,4.19,0,0,0-.63.65,4.39,4.39,0,0,1-.83-1.66,3.94,3.94,0,0,1-1.18,1.71,3.36,3.36,0,0,0-.55-.66v3h-2v-3a3.85,3.85,0,0,0-.53.57,5,5,0,0,1-.8-1.58,4.18,4.18,0,0,1-1.14,1.81,4.19,4.19,0,0,0-.6-.71v3h-1.92v-10.53h5v-.91h-2.68v-3H806v-1.2l-1.2,1.63a11.78,11.78,0,0,0-2.94-1.92l1.27-1.67a14.22,14.22,0,0,1,2.87,1.65v-.45h2.58V2396h2.11v1.35h3.25V2396h2.21v1.35h2.6v2h-2.6v3Zm-2.7,3.42a9.84,9.84,0,0,0,.72,4V2405h-3.07v5.24a4.73,4.73,0,0,0,1-2.77h.4l0-.46h-.86v-1.38Zm.15-5.3h3.25v-1.08h-3.25Zm2.55,4.67v5a4.41,4.41,0,0,0,.95-2.55h.4l0-.46h-.87v-1.38h1.88a8.83,8.83,0,0,0,.87,4.18V2405Z"/><path d="M816.44,2431.25c0,1.37-.33,2-1.2,2.39a11.45,11.45,0,0,1-4.2.44,9.56,9.56,0,0,0-.95-2.37c1.33.07,2.93.05,3.35.05s.6-.15.6-.55v-2.75h-8.13a10.16,10.16,0,0,1-3.21,5.68,8.8,8.8,0,0,0-1.75-1.64c2.87-2.45,3.14-6.08,3.14-9v-6.25h12.35Zm-2.4-5V2424h-7.61c0,.72-.06,1.52-.14,2.31Zm-7.61-6.78v2.32H814v-2.32Z"/><path d="M817.63,2441.38a38.38,38.38,0,0,1-10.14,9.8,9.23,9.23,0,0,0,4.77.86,53.26,53.26,0,0,0,6.65-.46,11.68,11.68,0,0,0-.65,2.41c-1.35.1-4.22.21-6.08.21-2.33,0-3.85-.24-5.15-1-.81-.48-1.44-1.12-1.86-1.12-.59,0-1.44,1.27-2.22,2.49l-1.64-2.13c1.37-1.47,2.87-2.47,3.92-2.47h.11a33.25,33.25,0,0,0,8.4-7.37H802.28v-2.23h7.41c-.45-.81-1.16-1.86-1.71-2.66l2-1.08a31.28,31.28,0,0,1,2.12,3.08l-1.16.66h4.47l.44-.11Z"/><path d="M807.07,2462a22.15,22.15,0,0,1-1.5,2.51V2475h-2.13v-7.88c-.4.42-.81.8-1.19,1.14a14.78,14.78,0,0,0-1.2-2.11,15.72,15.72,0,0,0,4-4.86Zm-.34-4a20.51,20.51,0,0,1-4.33,4.66,3,3,0,0,1,2.33-5.42Zm10.58,9.6a10.6,10.6,0,0,1-3.17,4.27,20.45,20.45,0,0,0,4.46,1.22,8.28,8.28,0,0,0-1.35,1.95,17.54,17.54,0,0,1-5.16-1.8,20.51,20.51,0,0,1-5.25,1.84,7.35,7.35,0,0,0-1.06-1.92,18.08,18.08,0,0,0,4.33-1.23,11.1,11.1,0,0,1-1.25-1.12,15.35,15.35,0,0,1-1.24,1,15.88,15.88,0,0,0-1.48-1.64,15,15,0,0,0,1.37-1,11.77,11.77,0,0,1-1-1.67l1.84-.61a8.14,8.14,0,0,0,.52.92,12.44,12.44,0,0,0,1.31-1.83,12.4,12.4,0,0,0-3,.42,15.14,15.14,0,0,0-.67-2.05,6.07,6.07,0,0,0,2.15-.93,15.48,15.48,0,0,0,1.73-1,10.1,10.1,0,0,0-2.8.32,22.22,22.22,0,0,0-.72-2.12,4,4,0,0,0,1.28-.67,14.7,14.7,0,0,0,3.05-2.66l2.26,1a23.89,23.89,0,0,1-3,2.43l2.45,0c.72-.57,1.42-1.16,2-1.76L817,2460a37,37,0,0,1-6,4.06l4-.21c-.26-.38-.53-.74-.78-1.08l1.73-.89a42.32,42.32,0,0,1,2.87,4.12L817,2467.1a15.53,15.53,0,0,0-.87-1.53l-3.5.22c-.21.44-.44.86-.67,1.28h3.61l.36-.1Zm-6.63,1.23c-.15.19-.3.38-.46.55a12.29,12.29,0,0,0,1.9,1.47,8.17,8.17,0,0,0,2.15-2Z"/><path d="M818.45,2487.25h-4.63v5.41c0,1.29-.29,1.88-1.16,2.24a12,12,0,0,1-3.94.38,9,9,0,0,0-.79-2.3c1.21.06,2.64.06,3,.06s.53-.1.53-.44v-5.35h-10V2485h10v-2.28h2.34V2485h4.63Zm-14.29-3.39h-2.29v-4h7.18a12.72,12.72,0,0,0-.74-1.79l2.24-.53a12.75,12.75,0,0,1,1,2.32H818v4h-2.43V2482H804.16Zm1.26,3.84a16.4,16.4,0,0,1,3,3.78l-1.94,1.27a16.8,16.8,0,0,0-2.87-3.89Z"/><path d="M808.17,2503h-7v-1.79h3.19a17.8,17.8,0,0,0-1.2-2.39l1.69-.82a19.61,19.61,0,0,1,1.39,2.53l-1.24.68h3.21Zm10,7.56a8.39,8.39,0,0,1-2.61,2.83,19.07,19.07,0,0,0,3.52.62,8.1,8.1,0,0,0-1.24,1.79,15.18,15.18,0,0,1-4.42-1.25,22.3,22.3,0,0,1-4.87,1.29,6.45,6.45,0,0,0-.93-1.75v.68h-3.87v.8H801.9V2509h5.72v5.05a21.19,21.19,0,0,0,3.82-.74,8.64,8.64,0,0,1-1.5-1.58l.72-.23h-2.07V2510h7.9l.35-.08Zm-7.34-9.88h-2.62V2499h2.62v-.94h2v3.5h-1.63l.45.11c-.11.29-.23.59-.36.88h1.67c-.09-.31-.19-.63-.28-.89l1.57-.38v-3.22h2v.92h2.51v1.67h-2.51v.91h-1.41a9.56,9.56,0,0,1,.32,1h3.12v1.35H815v.64h2.74v1.12H815v.65h2.74v1.12H815v.68h3.63v1.32h-7.5v.28h-1.87v-3.87a5.7,5.7,0,0,1-.66.72,17,17,0,0,0-1.08-1.64v.63h-5.59v-1.71h5.59v1a10.2,10.2,0,0,0,2.3-3.69l1,.31Zm-8.89,5.72h5.59v1.7h-5.59Zm3.8,4.42h-2V2513h2Zm7.39-6.91h-2v.64h2Zm0,1.76h-2v.65h2Zm0,1.77h-2v.68h2Zm-1,4.08a5.08,5.08,0,0,0,1.38,1,6.62,6.62,0,0,0,1.54-1Z"/><path d="M818.39,2521.45s0,.76,0,1c-.24,8.49-.45,11.51-1.23,12.52a2.56,2.56,0,0,1-1.82,1.05,22.07,22.07,0,0,1-3,0,5.22,5.22,0,0,0-.74-2.2c1.22.11,2.34.11,2.83.11a1,1,0,0,0,.84-.32c.55-.61.8-3.46,1-10.16H812.2a16.17,16.17,0,0,1-1.67,3,15.55,15.55,0,0,0-1.46-1.07v8.88H804v1.38h-2v-14.11h2.15a20.58,20.58,0,0,0,.55-3.06l2.47.34c-.32.95-.67,1.9-1,2.72h3v3.08a19.75,19.75,0,0,0,2.56-6.12l2.15.49a23.24,23.24,0,0,1-.74,2.42Zm-11.38,2.1h-3v3.08h3Zm0,8.76v-3.72h-3v3.72Zm6.31-1a39.82,39.82,0,0,0-2.64-4.39l1.77-1a46.13,46.13,0,0,1,2.79,4.22Z"/><path d="M807.58,2544.64a18.64,18.64,0,0,1-1.27,6.79,23.67,23.67,0,0,1,2.22,2.37l-1.31,1.84c-.47-.62-1.16-1.42-1.93-2.26a13,13,0,0,1-2.87,3.16,7,7,0,0,0-1.45-1.43,11.68,11.68,0,0,0,2.89-3.19c-.85-.89-1.75-1.73-2.51-2.47a41.54,41.54,0,0,0,.91-4.45l-1,.06-.21-2,1.5-.06c.19-1.35.32-2.7.4-3.89l2,.07c-.09,1.16-.24,2.45-.41,3.71l1.15-.06v-1.2h1.9v1.11l.93-.06v1.92Zm-2.81,5.32a16,16,0,0,0,.9-5.18l-1.45.11c-.23,1.37-.49,2.68-.76,3.88Zm11,4.45c.9,0,1.07-.44,1.2-2.4a6.45,6.45,0,0,0,1.94.82c-.29,2.68-.93,3.63-2.95,3.63h-3.63c-2.35,0-3-.67-3-3.25v-5.55l-1,.35-.56-2.11,1.52-.5v-4.73h2.06v4l1.42-.47v-5h2v4.37l1.71-.57.4-.28,1.69.55-.08.34a62.75,62.75,0,0,1-.78,8.17l-1.82-.52c.19-1.5.32-3.83.38-6l-1.5.51v6.14h-2v-5.45l-1.42.49v6.27c0,1.05.15,1.18,1.17,1.18Z"/><path d="M807.92,2578c1.46-.55,2.28-1.5,2.28-2.61H810a1.64,1.64,0,0,1-1.75-1.65,1.68,1.68,0,0,1,1.8-1.65c1.29,0,2,1,2,2.75a4.79,4.79,0,0,1-3.59,4.68Z"/><path d="M811.61,2591.82l-.28.36a18.22,18.22,0,0,0,7.88,3.42,7.85,7.85,0,0,0-1.42,1.73l-1.18-.34v4.9H803.4v-4.79c-.39.13-.79.27-1.17.36a12.34,12.34,0,0,0-1.22-1.75c3.5-.81,6.88-2.39,8.61-4.59Zm4.31,4.92a20.55,20.55,0,0,1-2.58-1.16v.5h-6.67v-.38a21.77,21.77,0,0,1-2.3,1Zm-11.45,5.78h11.17v6.42h-2.32v-.46h-6.63v.51h-2.22Zm2.15-2a7.71,7.71,0,0,0-.65-2l1.46-.42h-2.14v2.39Zm.07,3.48v.76h6.63V2604Zm6.63,3v-.76h-6.63v.76Zm-4.31-8.87h-1.48a8.85,8.85,0,0,1,.76,2l-1.22.38H809Zm2.73-3.52a19,19,0,0,1-1.59-1.23c-.5.42-1,.83-1.62,1.23Zm-.91,3.52v2.39h1.77l-1.14-.32a14.53,14.53,0,0,0,.74-2.07Zm3.76,0h-2l1.48.36c-.38.76-.74,1.5-1,2h1.53Z"/><path d="M812.64,2617.83A48.76,48.76,0,0,1,819,2623l-1.91,1.73a44.66,44.66,0,0,0-5.82-5.15v9.84h-2.47v-9.27a22.59,22.59,0,0,1-6,4.67,13.36,13.36,0,0,0-1.56-2.05,19.94,19.94,0,0,0,8.19-7.46h-7.58V2613h16.47v2.32h-5.91a18.05,18.05,0,0,1-1.1,1.74v2Z"/><path d="M811.61,2632.67l-.28.36a18.22,18.22,0,0,0,7.88,3.42,7.85,7.85,0,0,0-1.42,1.73l-1.18-.34v4.9H803.4V2638c-.39.13-.79.27-1.17.36a12.27,12.27,0,0,0-1.22-1.74c3.5-.82,6.88-2.4,8.61-4.6Zm4.31,4.92a20.55,20.55,0,0,1-2.58-1.16v.5h-6.67v-.38a21.77,21.77,0,0,1-2.3,1Zm-11.45,5.78h11.17v6.42h-2.32v-.46h-6.63v.51h-2.22Zm2.15-2a7.71,7.71,0,0,0-.65-2l1.46-.42h-2.14v2.39Zm.07,3.48v.76h6.63v-.76Zm6.63,3v-.76h-6.63v.76ZM809,2639h-1.48a8.85,8.85,0,0,1,.76,2l-1.22.38H809Zm2.73-3.52a19,19,0,0,1-1.59-1.23c-.5.42-1,.83-1.62,1.23Zm-.91,3.52v2.39h1.77l-1.14-.32a14.11,14.11,0,0,0,.74-2.07Zm3.76,0h-2l1.48.36c-.38.76-.74,1.5-1,2h1.53Z"/><path d="M806.43,2661.42a24.49,24.49,0,0,1-1.56,4.86c.34.19.74.49,1.29.84,1.31.77,3.1.89,5.3.89a63,63,0,0,0,7.69-.5,8.39,8.39,0,0,0-.64,2.32c-1.56.1-4.94.23-7.16.23-2.51,0-4.11-.21-5.49-1-.78-.43-1.47-1.06-1.87-1.06s-1.1,1.29-1.57,2.37l-1.5-2.14a8.69,8.69,0,0,1,1.69-1.62,17.45,17.45,0,0,0,1.29-3.49h-2.28c.44-1.12,1-2.64,1.4-4.12h-1.74v-2h4.48c-.38,1.35-.87,2.87-1.33,4.18h.68l.35-.07Zm-3.16-5c-.21-.87-.7-2.24-1-3.29l2-.59c.36,1,.84,2.3,1.1,3.14Zm6.35-1.16h-3.78v-1.56h3.78v-1.18h1.88v1.18h1.12v-1.18h1.9v1.18h3.87v1.56h-3.87v.67h3.17v5H806.58v-5h3Zm-2.13,11.89v-5.64h9.25v5.64Zm1-9.31h1.14v-.76h-1.14Zm0,1.89h1.14V2659h-1.14Zm1.12,3.93h4.94v-.76H809.6Zm0,2.09h4.94V2665H809.6Zm1.9-10.49v.67h1.12v-.67Zm1.12,2.58v-.76H811.5v.76ZM811.5,2659v.78h1.12V2659Zm3-1.87v.76h1.18v-.76Zm1.18,1.87h-1.18v.78h1.18Z"/><path d="M807.76,2686.93c1.19-.21,2.43-.42,3.62-.6l.12,1.93c-3.33.65-6.92,1.29-9.5,1.75l-.49-2.09c1.13-.15,2.56-.38,4.1-.63v-2.58h-3.46v-2h3.46v-1.69h2.15v1.69h3.42v2h-3.42Zm-6.06-12.84h9.87V2676h-2.68a21,21,0,0,1,2.65,4l-1.71,1.12c-.12-.29-.27-.61-.44-.95-5.24.43-6.06.53-6.61.76-.14-.46-.5-1.47-.72-2.06a1.88,1.88,0,0,0,.87-.79,15.59,15.59,0,0,0,1.18-2.13H801.7Zm6.64,4.43c-.36-.55-.74-1.09-1.1-1.56l1.6-.93h-2.28a25,25,0,0,1-1.65,2.68Zm6.06,7.69h-2.09v-11.47h2.09Zm3.75-13v14.7c0,1.2-.23,1.77-.95,2.13a8.36,8.36,0,0,1-3.29.42,9.23,9.23,0,0,0-.76-2.17c1,0,2,0,2.36,0s.43-.11.43-.44v-14.68Z"/><path d="M808,2698.32h-6.91v-1.79h3a22,22,0,0,0-1-2.39l1.9-.65a21.13,21.13,0,0,1,1.16,2.56l-1.22.48h3Zm5.76,8.09c-.48,1.8-1.75,3.59-5.06,4.77a7.88,7.88,0,0,0-1.21-1.5v.45h-3.78v.76h-1.86v-6.5h5.64v5.1c2.39-.82,3.51-1.94,4-3.08H808v-2h4v-2h-3.28V2695h1.92v5.49h7.33v3.86h1v2Zm-6.29-5.51h-5.57v-1.71h5.57Zm-5.57.87h5.57v1.69h-5.57Zm3.71,4.41h-1.9v2.18h1.9Zm11.72-6.48H811.1V2694h6.25Zm-2.09-3.91h-2.19v2.09h2.19Zm-.7,11.11c1.36.74,3.45,1.94,4.48,2.66l-1.33,1.62a51.75,51.75,0,0,0-4.43-2.85Zm-.52-2.54h1.73v-2H814v2Z"/><path d="M808,2718.74h-6.84V2717h2.75a19.57,19.57,0,0,0-1-2.42l1.9-.66a18.2,18.2,0,0,1,1.16,2.58l-1.27.5H808Zm-.46,10a13.44,13.44,0,0,0,.93-3.72l1.58.46a12.48,12.48,0,0,1-1.2,4.37l-1.31-.55v1.29h-4v.76h-1.86v-6.5h5.85Zm.06-7.39h-5.89v-1.71h5.89Zm-5.89.88h5.89v1.69h-5.89Zm4,4.41H803.5v2.18h2.11Zm8.72-10.24c-.38,3.3-1.35,6.08-4.94,7.75a5.41,5.41,0,0,0-1.25-1.6,6.4,6.4,0,0,0,2.92-2.28c-.72-.7-1.82-1.65-2.62-2.35l1.2-1.2c.66.53,1.54,1.22,2.24,1.82a11.58,11.58,0,0,0,.43-2.14h-3.64v-1.9h9.69s0,.6-.06.85c-.19,4.73-.42,6.57-.93,7.2a1.87,1.87,0,0,1-1.39.76,12.65,12.65,0,0,1-2.2,0,5.59,5.59,0,0,0-.59-1.94c.72.06,1.42.08,1.77.08a.74.74,0,0,0,.6-.23c.27-.34.46-1.65.61-4.86Zm0,13c.55,0,.65-.31.7-2.3a6.15,6.15,0,0,0,1.73.72c-.19,2.64-.7,3.33-2.22,3.33h-2.09c-1.86,0-2.32-.57-2.32-2.36v-4.14H812v4.12c0,.55.09.63.66.63Zm-1.25-6.35a12.87,12.87,0,0,1,2.1,2.81l-1.4,1a16.07,16.07,0,0,0-2-2.9Zm4.29,1.14a17.66,17.66,0,0,1,1.65,4.07l-1.65.61a17.12,17.12,0,0,0-1.52-4.13Z"/><path d="M807.92,2752.86c1.46-.55,2.28-1.5,2.28-2.6H810a1.64,1.64,0,0,1-1.75-1.65,1.68,1.68,0,0,1,1.8-1.66c1.29,0,2,1,2,2.76a4.79,4.79,0,0,1-3.59,4.67Z"/><path d="M809.5,2781.8c0,.93-.17,1.41-.79,1.71a6.72,6.72,0,0,1-2.63.32,6.23,6.23,0,0,0-.68-1.76c.68,0,1.42,0,1.65,0s.33-.07.33-.32v-1.94c-1,.69-1.9,1.33-2.76,1.88l-.47-1.33a8.33,8.33,0,0,1-1.35,3.57,9.32,9.32,0,0,0-1.58-1.51c1-1.49,1.08-3.58,1.08-5.23V2773h7.2Zm-1.06-14.25a41,41,0,0,1,2.26,4.37l-2,.8c-.11-.34-.28-.74-.47-1.2-4.81.48-5.59.59-6.14.82-.11-.44-.47-1.46-.7-2a2.3,2.3,0,0,0,1.05-.76,16.43,16.43,0,0,0,2.24-3.38l2.28.64a21.26,21.26,0,0,1-2.34,3.15l2.77-.21c-.28-.55-.55-1.08-.79-1.53Zm-4.05,9.69a23.78,23.78,0,0,1-.13,2.43c.85-.38,2-1,3.12-1.56v-.62l-.92.89c-.47-.49-1.35-1.23-2.07-1.82Zm0-2.39v1.35l1-.82c.65.45,1.46,1.12,2,1.61v-2.14Zm9.39-.33c-2.28,0-2.89-.83-2.89-2.94v-5.4h2.24v2.25h4.67v1.93h-4.67v1.26c0,.7.12,1,.72,1h2.78a9.2,9.2,0,0,0,1.74-.16c0,.59.14,1.41.21,1.92a7.23,7.23,0,0,1-1.91.17Zm2.39,7.26c.65,0,.78-.32.88-2.07a6.29,6.29,0,0,0,2,.82c-.23,2.49-.82,3.23-2.62,3.23h-2.7c-2.24,0-2.79-.67-2.79-2.74v-6h2.24v1.9h4.81v2h-4.81V2781c0,.67.13.76.88.76Z"/><path d="M812.64,2792.71a48.73,48.73,0,0,1,6.32,5.14l-1.91,1.73a44.65,44.65,0,0,0-5.82-5.14v9.84h-2.47V2795a22.62,22.62,0,0,1-6,4.68,12.9,12.9,0,0,0-1.56-2,20,20,0,0,0,8.19-7.47h-7.58v-2.32h16.47v2.32h-5.91a18.18,18.18,0,0,1-1.1,1.75v2Z"/><path d="M809.5,2822.65c0,.93-.17,1.41-.79,1.71a6.72,6.72,0,0,1-2.63.32,6.23,6.23,0,0,0-.68-1.76c.68,0,1.42,0,1.65,0s.33-.07.33-.32v-1.94c-1,.69-1.9,1.33-2.76,1.88l-.47-1.33a8.43,8.43,0,0,1-1.35,3.58,9,9,0,0,0-1.58-1.52c1-1.49,1.08-3.58,1.08-5.23v-4.27h7.2Zm-1.06-14.25a41,41,0,0,1,2.26,4.37l-2,.8c-.11-.34-.28-.74-.47-1.2-4.81.48-5.59.59-6.14.82-.11-.44-.47-1.46-.7-2a2.3,2.3,0,0,0,1.05-.76,16.43,16.43,0,0,0,2.24-3.38l2.28.64a20.75,20.75,0,0,1-2.34,3.15l2.77-.2c-.28-.56-.55-1.09-.79-1.54Zm-4.05,9.69a23.78,23.78,0,0,1-.13,2.43c.85-.38,2-.95,3.12-1.56v-.62l-.92.89c-.47-.49-1.35-1.23-2.07-1.82Zm0-2.39v1.35l1-.82c.65.45,1.46,1.12,2,1.61v-2.14Zm9.39-.33c-2.28,0-2.89-.83-2.89-2.94V2807h2.24v2.25h4.67v1.93h-4.67v1.26c0,.7.12,1,.72,1h2.78a9.2,9.2,0,0,0,1.74-.16c0,.59.14,1.41.21,1.92a7.23,7.23,0,0,1-1.91.17Zm2.39,7.26c.65,0,.78-.32.88-2.07a6.29,6.29,0,0,0,2,.82c-.23,2.49-.82,3.23-2.62,3.23h-2.7c-2.24,0-2.79-.67-2.79-2.74v-6h2.24v1.9h4.81v2h-4.81v2.07c0,.67.13.76.88.76Z"/><path d="M806.43,2836.29a24.81,24.81,0,0,1-1.56,4.87c.34.18.74.49,1.29.83,1.31.78,3.1.89,5.3.89a65.06,65.06,0,0,0,7.69-.49,8.39,8.39,0,0,0-.64,2.32c-1.56.09-4.94.23-7.16.23-2.51,0-4.11-.21-5.49-1-.78-.44-1.47-1.06-1.87-1.06s-1.1,1.29-1.57,2.37l-1.5-2.15a8.92,8.92,0,0,1,1.69-1.61,17.55,17.55,0,0,0,1.29-3.5h-2.28c.44-1.12,1-2.64,1.4-4.12h-1.74v-2h4.48c-.38,1.35-.87,2.86-1.33,4.18h.68l.35-.08Zm-3.16-5c-.21-.87-.7-2.24-1-3.28l2-.59c.36,1,.84,2.3,1.1,3.13Zm6.35-1.15h-3.78v-1.56h3.78v-1.18h1.88v1.18h1.12v-1.18h1.9v1.18h3.87v1.56h-3.87v.66h3.17v5H806.58v-5h3Zm-2.13,11.89v-5.64h9.25v5.64Zm1-9.31h1.14V2832h-1.14Zm0,1.88h1.14v-.78h-1.14Zm1.12,3.93h4.94v-.76H809.6Zm0,2.09h4.94v-.78H809.6Zm1.9-10.48v.66h1.12v-.66Zm1.12,2.58V2832H811.5v.76Zm-1.12,1.1v.78h1.12v-.78Zm3-1.86v.76h1.18V2832Zm1.18,1.86h-1.18v.78h1.18Z"/><path d="M807.76,2861.81c1.19-.21,2.43-.42,3.62-.61l.12,1.94c-3.33.64-6.92,1.29-9.5,1.75l-.49-2.09c1.13-.16,2.56-.38,4.1-.63v-2.58h-3.46v-2h3.46v-1.69h2.15v1.69h3.42v2h-3.42ZM801.7,2849h9.87v1.93h-2.68a21.62,21.62,0,0,1,2.65,4l-1.71,1.12c-.12-.28-.27-.61-.44-1-5.24.44-6.06.53-6.61.76-.14-.45-.5-1.46-.72-2.05a1.92,1.92,0,0,0,.87-.8,15,15,0,0,0,1.18-2.13H801.7Zm6.64,4.42c-.36-.55-.74-1.08-1.1-1.56l1.6-.93h-2.28a23.14,23.14,0,0,1-1.65,2.68Zm6.06,7.7h-2.09v-11.48h2.09Zm3.75-13v14.71c0,1.2-.23,1.77-.95,2.13a8.39,8.39,0,0,1-3.29.41,9.32,9.32,0,0,0-.76-2.16c1,0,2,0,2.36,0s.43-.12.43-.44v-14.69Z"/><path d="M807.7,2882.21c-2.09.75-4.37,1.47-6.19,2.06L801,2882c.67-.17,1.45-.38,2.32-.63v-4.46h-1.92v-2.07h1.92v-3.35h-2.09v-2.11h6.27v2.11h-2v3.35h1.71v2.07h-1.71v3.8c.62-.19,1.25-.38,1.86-.59Zm11.28,1.16v2.05H806.77v-2.05H812v-1.8h-3.93v-2H812v-1.64h-3.8v-8.83h9.92v8.83h-3.82v1.64h4v2h-4v1.8Zm-8.74-10.81h2V2871h-2Zm0,3.42h2v-1.63h-2Zm5.74-5H814.1v1.57H816Zm0,3.36H814.1V2876H816Z"/><path d="M818.91,2903.23h-3.23v3.13h-2.15v-3.13H810v-1.94h3.51v-1.71H812a7.14,7.14,0,0,1-.76,1.46,11.12,11.12,0,0,0-1.48-.79v4c0,.9-.15,1.47-.72,1.79a5.39,5.39,0,0,1-2.53.38,6,6,0,0,0-.64-1.92c.76,0,1.5,0,1.73,0s.32-.08.32-.32v-2.74h-3.78a11.9,11.9,0,0,1-1.5,5,7.72,7.72,0,0,0-1.56-1c1.27-2,1.37-4.79,1.37-6.92v-2.81a12.29,12.29,0,0,0-1.48-1.21,13.3,13.3,0,0,0,2.81-5.83l2,.41a11.71,11.71,0,0,1-.4,1.35h1.73l.29-.09,1.29.8a22.07,22.07,0,0,1-1,2.39h2.13v1.16a4,4,0,0,0,2.41-3.21H810v-1.85h8.43s0,.48,0,.73c-.09,3-.24,4.33-.66,4.82a1.69,1.69,0,0,1-1.16.63,15,15,0,0,1-1.92.06,4.66,4.66,0,0,0-.51-1.83c.59.06,1.1.08,1.37.08a.57.57,0,0,0,.51-.21,5.9,5.9,0,0,0,.34-2.43h-2.2a5.81,5.81,0,0,1-3,4.61l1.69.35c-.08.39-.16.81-.27,1.21h.93V2896h2.15v1.71h2.85v1.9h-2.85v1.71h3.23Zm-14.21-11.06c-.21.48-.42.95-.65,1.39h1.63c.19-.42.37-.91.54-1.39Zm-.48,6.38c0,.4,0,.82,0,1.26h1.1v-1.58h-1.08Zm0-1.91h1.08v-1.43h-1.08Zm2.57,0h1.08v-1.43h-1.08Zm1.08,3.17v-1.58h-1.08v1.58Zm1.84.11a10.08,10.08,0,0,0,1.31-3.7l-.4.19a5.37,5.37,0,0,0-.91-1.29Z"/><path d="M807.92,2927.74c1.46-.55,2.28-1.5,2.28-2.6H810a1.64,1.64,0,0,1-1.75-1.66,1.68,1.68,0,0,1,1.8-1.65c1.29,0,2,1,2,2.75a4.79,4.79,0,0,1-3.59,4.68Z"/><path d="M817.94,2950a18.88,18.88,0,0,1-3.16,4.16c.52,1.46,1.11,2.33,1.68,2.33.39,0,.62-.91.72-3.15a5.62,5.62,0,0,0,1.86,1.29c-.36,3.33-1.06,4.16-2.79,4.16-1.39,0-2.45-1.14-3.27-3a20.11,20.11,0,0,1-3.51,2.32,10.67,10.67,0,0,0-1.51-1.83,19.07,19.07,0,0,0,4.24-2.67,35.35,35.35,0,0,1-1-5.1h-3.85v2.17l2.92-.53.17,2.05-3.09.63v3.25c0,1.23-.27,1.84-1,2.2a8.32,8.32,0,0,1-3.42.44,8.51,8.51,0,0,0-.8-2.28c1.07.05,2.17,0,2.51,0s.46-.1.46-.4v-2.76c-1.22.25-2.4.5-3.4.69l-.56-2.28c1.09-.17,2.46-.38,4-.65v-2.55h-3.59v-2.14h3.59v-2.17c-1,.17-2.08.31-3,.42a8.71,8.71,0,0,0-.65-1.9,47.77,47.77,0,0,0,7.54-1.6l1.52,1.92c-1,.29-2,.54-3.09.76v2.57H811c-.15-1.71-.21-3.48-.22-5.21h2.37a46.85,46.85,0,0,0,.19,5.21h5.17v2.14h-4.94c.15,1.14.34,2.25.55,3.21a15.52,15.52,0,0,0,1.8-2.58Zm-1.39-4.18a14.67,14.67,0,0,0-2.7-3.14l1.71-1.16a16.52,16.52,0,0,1,2.81,3Z"/><path d="M809.5,2977.1c0,.93-.17,1.41-.79,1.71a6.72,6.72,0,0,1-2.63.32,6.23,6.23,0,0,0-.68-1.76c.68,0,1.42,0,1.65,0s.33-.07.33-.32v-1.94c-1,.69-1.9,1.33-2.76,1.88l-.47-1.33a8.43,8.43,0,0,1-1.35,3.58,9,9,0,0,0-1.58-1.52c1-1.49,1.08-3.58,1.08-5.23v-4.27h7.2Zm-1.06-14.25a41,41,0,0,1,2.26,4.37l-2,.8c-.11-.34-.28-.74-.47-1.2-4.81.48-5.59.59-6.14.82-.11-.44-.47-1.46-.7-2a2.3,2.3,0,0,0,1.05-.76,16.43,16.43,0,0,0,2.24-3.38l2.28.64a20.75,20.75,0,0,1-2.34,3.15l2.77-.2c-.28-.56-.55-1.09-.79-1.54Zm-4.05,9.69a23.78,23.78,0,0,1-.13,2.43c.85-.38,2-.95,3.12-1.55v-.63l-.92.89c-.47-.49-1.35-1.23-2.07-1.82Zm0-2.39v1.35l1-.82c.65.45,1.46,1.12,2,1.61v-2.14Zm9.39-.33c-2.28,0-2.89-.83-2.89-2.94v-5.4h2.24v2.25h4.67v1.93h-4.67v1.26c0,.7.12,1,.72,1h2.78a9.2,9.2,0,0,0,1.74-.16c0,.59.14,1.41.21,1.92a7.23,7.23,0,0,1-1.91.17Zm2.39,7.26c.65,0,.78-.32.88-2.07a6.29,6.29,0,0,0,2,.82c-.23,2.49-.82,3.23-2.62,3.23h-2.7c-2.24,0-2.79-.67-2.79-2.74v-6h2.24v1.9h4.81v2h-4.81v2.07c0,.67.13.76.88.76Z"/><path d="M816,2987.93a29.06,29.06,0,0,1,2.92,2.38l-1.46,1.42a27.47,27.47,0,0,0-3.34-2.91,7.42,7.42,0,0,1-2.7,2.55h4.92v8.17H814V2999h-8.22v.6h-2.21v-8a10.82,10.82,0,0,1-1,.66,8.19,8.19,0,0,0-1.48-1.53,6.24,6.24,0,0,0,3-2.78h-2.66v-1.78h3.23a8.57,8.57,0,0,0,.09-1.09h-2.7v-1.71h2.7v-1.48h2.15v1.48h2.28v1.71h-2.28a10.37,10.37,0,0,1-.08,1.09h2.59v1.78h-2.51c.83.63,1.8,1.33,2.35,1.77l-1.44,1.52a26,26,0,0,0-2.13-1.81,7.81,7.81,0,0,1-1.84,2h6.59a7.23,7.23,0,0,0-1.18-1.22,5.3,5.3,0,0,0,2.91-2.22H810v-1.78h2.8a7.53,7.53,0,0,0,.07-1v-.06h-2.58v-1.71h2.58v-1.48h2.17v1.48h2.85v1.71h-2.85v.1a8.61,8.61,0,0,1-.06,1h3.55v1.78Zm-2,5.32h-8.22v1.08H814Zm0,3.88V2996h-8.22v1.18Z"/><path d="M807.58,3008a18.63,18.63,0,0,1-1.27,6.78,23.67,23.67,0,0,1,2.22,2.37l-1.31,1.84c-.47-.62-1.16-1.42-1.93-2.26a13,13,0,0,1-2.87,3.16,7,7,0,0,0-1.45-1.43,11.68,11.68,0,0,0,2.89-3.19c-.85-.89-1.75-1.73-2.51-2.47a41.82,41.82,0,0,0,.91-4.44l-1,0-.21-2,1.5-.06c.19-1.35.32-2.69.4-3.89l2,.07c-.09,1.16-.24,2.46-.41,3.71l1.15-.06V3005h1.9v1.1l.93-.06v1.92Zm-2.81,5.31a16,16,0,0,0,.9-5.18l-1.45.11c-.23,1.37-.49,2.68-.76,3.88Zm11,4.45c.9,0,1.07-.44,1.2-2.39a6.69,6.69,0,0,0,1.94.81c-.29,2.68-.93,3.63-2.95,3.63h-3.63c-2.35,0-3-.66-3-3.25V3011l-1,.34-.56-2.11,1.52-.5V3004h2.06v4l1.42-.47v-5h2v4.37l1.71-.57.4-.28,1.69.55-.08.34a62.41,62.41,0,0,1-.78,8.17l-1.82-.51c.19-1.5.32-3.84.38-6l-1.5.51v6.14h-2v-5.45l-1.42.49v6.27c0,1.05.15,1.18,1.17,1.18Z"/><path d="M807.47,3034.9a19.34,19.34,0,0,0-1.39-1.84v7.39h-2.22v-7a16.48,16.48,0,0,1-2.11,1.66,11.37,11.37,0,0,0-.85-2.32,13.49,13.49,0,0,0,4.82-4.9h-4.27v-2h3.25a12.84,12.84,0,0,0-1.47-2.18l1.79-.95a11.47,11.47,0,0,1,1.75,2.39l-1.26.74h1.43l.4-.09,1.19.87a19.19,19.19,0,0,1-2.18,4c.76.69,2.15,2,2.51,2.38Zm11.34-4h-2.13v9.54h-2.31v-9.54h-2.7c-.06,3-.44,7-2.07,9.58a8.3,8.3,0,0,0-2.05-1.22c1.67-2.66,1.8-6.5,1.8-9.25v-5.21a35.44,35.44,0,0,0,7.39-1.95l1.88,1.88a43,43,0,0,1-7,1.78v2.21h7.14Z"/><path d="M817.18,3055v.84h1.46v1.35h-1.46v2c0,.86-.13,1.26-.71,1.5a5.59,5.59,0,0,1-2.31.27,6.24,6.24,0,0,0-.52-1.6l-.3.21a7.31,7.31,0,0,0-1.2-1.75l1-.62H812v-1.35h3.15V3055h-8.32v-1l-.78,1.33a19.91,19.91,0,0,0-1.12-1.9v7.45h-1.73V3054a14.14,14.14,0,0,1-1.67,1.63,12.85,12.85,0,0,0-.66-2.34,12.27,12.27,0,0,0,3.83-4.9H801.3v-2h2.5a11.82,11.82,0,0,0-1.08-2.05l1.35-1.07a12.11,12.11,0,0,1,1.35,2.38l-.87.74h1.15l.29-.1,1,.88a22.26,22.26,0,0,1-1.73,4c.59.68,1.65,2,1.95,2.35l-.09.17h11.78V3055Zm-.63-4c.1-.38.17-.88.27-1.39h-9.71v-1.35h10.14l.29-.08,1.31.35c-.21,1-.49,2.12-.72,2.88Zm-4.88-5.29h-4.49v-1.27h4.49v-1h2.2v1h4.71v1.27h-4.71v.73h3.9v1.25h-9.69v-1.25h3.59Zm0,13.78H809v.81h-1.63v-4.63h4.35Zm-.23-7.58v-.59H808.5v-1.14h7.82v1.14h-2.83v.59h4.07V3053H807.49v-1.16Zm-2.49,5v1.39h1.14v-1.39Zm6.23.33h-1.61a8.16,8.16,0,0,1,1.1,1.48l-1,.68c.54,0,1.09,0,1.28,0s.24,0,.24-.25Z"/><path d="M807.92,3082.19c1.46-.55,2.28-1.5,2.28-2.6H810a1.64,1.64,0,0,1-1.75-1.66,1.68,1.68,0,0,1,1.8-1.65c1.29,0,2,1,2,2.76a4.79,4.79,0,0,1-3.59,4.67Z"/><path d="M808.34,3103.58a20.22,20.22,0,0,1-1.36,1.87h2.56v-1.56h2.19v1.56H817v4.5c0,1-.19,1.52-.89,1.84a7.88,7.88,0,0,1-2.91.32,7.52,7.52,0,0,0-.68-1.93c.76,0,1.63,0,1.88,0s.34-.07.34-.28v-2.51h-3v5.79h-2.19v-5.79h-2.7v4.83H804.6v-4.47a12,12,0,0,1-2.11,1.43,11.29,11.29,0,0,0-1.5-1.69,14.25,14.25,0,0,0,4.66-3.94h-4.09v-2h5.38a12.29,12.29,0,0,0,.64-1.39c-1.38.38-2.77.67-4.08.93a15.83,15.83,0,0,0-1.54-1.88c1.82-.27,3.74-.61,5.55-1.06-1.48-.48-3-.91-4.28-1.26l1.58-1.31c1.75.42,3.84,1,5.87,1.62a18.07,18.07,0,0,0,4.08-1.88l1.89,1.29a25.34,25.34,0,0,1-3,1.56,37.64,37.64,0,0,1,3.68,1.46l-1.73,1.56a46.64,46.64,0,0,0-4.82-2c-.52.17-1,.34-1.6.49l1.05.29c-.21.53-.46,1-.72,1.54h9v2Z"/><path d="M802.66,3119.6h-1.42v-1.9h3.63c-.17-.45-.38-.91-.55-1.29l2-.57a14,14,0,0,1,.82,1.86h2.6v1.58a9.82,9.82,0,0,0,2.41-3.33l2.15.36c-.13.31-.29.57-.44.88h3.31l.4-.06,1.36.46c-1.15,4.8-4.08,6.91-8.32,8a6.69,6.69,0,0,0-1.06-1.69,11.47,11.47,0,0,0,2.51-.76c-.44-.54-1-1.18-1.58-1.77l-.57.44a5.87,5.87,0,0,0-1.54-1.41c.34-.25.69-.49,1-.76h-4.66v2.68c0,.59.08.78.56.78h2.43a8.27,8.27,0,0,0,1.52-.13,15.6,15.6,0,0,0,.19,1.86,6.14,6.14,0,0,1-1.66.15H805.3c-2.1,0-2.64-.72-2.64-2.7Zm8.46,11.86h7.31v1.86H801.56v-1.86h7.26v-1h-6.23v-1.79h6.23v-1c-2,.09-3.91.15-5.74.15a7.19,7.19,0,0,0-.47-1.81,101.74,101.74,0,0,0,13.92-1.06l.93,1.84a57.55,57.55,0,0,1-6.34.72v1.16h6.42v1.79h-6.42Zm2.45-9.18a6.61,6.61,0,0,0,.83-.65,25.21,25.21,0,0,0-2.31-1.84c-.14.15-.31.32-.46.5C812.28,3120.93,813,3121.69,813.57,3122.28Zm-.29-3.38c.73.51,1.52,1.06,2.17,1.57a6.56,6.56,0,0,0,.85-1.57Z"/><path d="M807.58,3142a18.56,18.56,0,0,1-1.27,6.78,23.64,23.64,0,0,1,2.22,2.38l-1.31,1.84c-.47-.63-1.16-1.42-1.93-2.26a12.75,12.75,0,0,1-2.87,3.15,7,7,0,0,0-1.45-1.42,11.68,11.68,0,0,0,2.89-3.19c-.85-.9-1.75-1.73-2.51-2.47a42.06,42.06,0,0,0,.91-4.45l-1,.06-.21-2,1.5-.06c.19-1.35.32-2.7.4-3.89l2,.07c-.09,1.16-.24,2.45-.41,3.71l1.15-.06V3139h1.9v1.1l.93,0V3142Zm-2.81,5.32a16,16,0,0,0,.9-5.19l-1.45.12c-.23,1.37-.49,2.68-.76,3.87Zm11,4.45c.9,0,1.07-.44,1.2-2.4a6.45,6.45,0,0,0,1.94.82c-.29,2.68-.93,3.63-2.95,3.63h-3.63c-2.35,0-3-.67-3-3.25V3145l-1,.34-.56-2.1,1.52-.5v-4.73h2.06v4l1.42-.48v-5h2v4.37l1.71-.57.4-.29,1.69.55-.08.35a62.75,62.75,0,0,1-.78,8.17l-1.82-.52c.19-1.5.32-3.84.38-6l-1.5.51v6.14h-2v-5.45l-1.42.49v6.27c0,1,.15,1.18,1.17,1.18Z"/><path d="M818.6,3164h-4.73l1.67.42c-.4.59-.81,1.18-1.21,1.71h2.92v2h-6.11v1.57h7v2h-7v2.85h-2.38v-2.85H801.9v-2h6.86v-1.57H803v-2h2.66a13,13,0,0,0-.84-1.73l1.39-.4h-4.77v-2h7.31v-1.48h-5.37v-2h5.37v-1.71h2.38v1.71h5.58v2h-5.58V3162h7.46Zm-6.57,2.13a17.71,17.71,0,0,0,1-2.13h-5.85a8.08,8.08,0,0,1,.87,1.79l-1.14.34Z"/><path d="M808.31,3186.27h10.1v8.61h-2.18v-.74h-5.85v.76h-2.07v-7l-.9,1.21a20.62,20.62,0,0,0-1.44-1.76v7.61h-2.22v-6.32a16.88,16.88,0,0,1-1.92,1.58,9.15,9.15,0,0,0-1.05-2.15,13.87,13.87,0,0,0,4.83-5.32h-4.14v-2h2.6a23.92,23.92,0,0,0-1.41-2.66l1.77-.76A21.61,21.61,0,0,1,806,3180l-1.48.74h2.26l.38-.1,1.25.82a18.94,18.94,0,0,1-1.94,3.87c.52.4,1.33,1.12,1.87,1.6Zm10.16-8.32v1.9H808.19V3178Zm-.89,2.72v4.75h-8.34v-4.75Zm-7.2,7.41v1.25h1.88v-1.25Zm0,4.25h1.88V3191h-1.88Zm5.11-10h-4.26v1.37h4.26Zm.74,5.72h-2v1.25h2Zm0,4.25V3191h-2v1.31Z"/><path d="M807.92,3216.21c1.46-.55,2.28-1.5,2.28-2.6H810a1.64,1.64,0,0,1-1.75-1.65,1.68,1.68,0,0,1,1.8-1.65c1.29,0,2,1,2,2.75a4.79,4.79,0,0,1-3.59,4.67Z"/><path d="M818.17,3230.12v17.12H816v-.85H804v.85H801.9v-17.12ZM816,3244.54v-12.38H804v12.38Zm-5.07-7.16c0,.29-.08.55-.13.82a27.25,27.25,0,0,1,4.5,4.33l-1.58,1.39a31.25,31.25,0,0,0-3.53-3.77,7.34,7.34,0,0,1-4.07,4,6.39,6.39,0,0,0-1.35-1.8,6.07,6.07,0,0,0,4-5h-3.8v-2h4c.06-.78.08-1.6.1-2.49h2.2c0,.87-.05,1.69-.11,2.49h4v2Z"/><path d="M818.36,3261c-.33,3.68-.65,5.28-1.24,5.89a2,2,0,0,1-1.42.7,15.61,15.61,0,0,1-2.26,0,5,5,0,0,0-.61-2,14.11,14.11,0,0,0,1.84.1.82.82,0,0,0,.63-.21c.3-.3.55-1.25.78-3.42H804.77a10.23,10.23,0,0,1-1,.65l1.73.55a7.93,7.93,0,0,1-2.22,4.29l-1.77-1.12a6.94,6.94,0,0,0,2.06-3.59c-.46.28-.94.53-1.41.78a14.17,14.17,0,0,0-1.18-2,17.32,17.32,0,0,0,7.28-6.51h-6.1v-2h3.19a15,15,0,0,0-1.2-2.41l2-.76a12.62,12.62,0,0,1,1.46,2.77l-1,.4h2.76a21.44,21.44,0,0,0,1.31-3.25l2.26.63c-.32.89-.68,1.77-1.08,2.62h3.72c-.19,1.14-.48,2.43-.72,3.48h2.16c-.21,1.14-.45,2.47-.68,3.49h2ZM808,3263.26a13.21,13.21,0,0,1,.51,3.49l-1.95.25a13.53,13.53,0,0,0-.38-3.51Zm.48-4.66a17.27,17.27,0,0,1-1.43,1.54h7.26c.11-.45.23-1,.34-1.54Zm2.33,4.32a14.85,14.85,0,0,1,.91,3.07l-1.8.46a16,16,0,0,0-.87-3.15Zm0-7.77c-.28.51-.59,1-.91,1.5h2.91c.11-.46.22-1,.32-1.5Zm2.11,10.31a11,11,0,0,0-1.12-2.56l1.56-.53a9.79,9.79,0,0,1,1.23,2.5Z"/><path d="M807.58,3276.05a18.63,18.63,0,0,1-1.27,6.78,23.67,23.67,0,0,1,2.22,2.37l-1.31,1.85c-.47-.63-1.16-1.43-1.93-2.26a12.93,12.93,0,0,1-2.87,3.15,7,7,0,0,0-1.45-1.43,11.54,11.54,0,0,0,2.89-3.19c-.85-.89-1.75-1.73-2.51-2.47a41.31,41.31,0,0,0,.91-4.44l-1,.05-.21-2,1.5,0c.19-1.35.32-2.7.4-3.9l2,.08c-.09,1.16-.24,2.45-.41,3.7l1.15-.06V3273h1.9v1.1l.93-.06V3276Zm-2.81,5.32a16.07,16.07,0,0,0,.9-5.19l-1.45.11c-.23,1.37-.49,2.68-.76,3.88Zm11,4.44c.9,0,1.07-.43,1.2-2.39a6.69,6.69,0,0,0,1.94.81c-.29,2.68-.93,3.63-2.95,3.63h-3.63c-2.35,0-3-.66-3-3.24v-5.55l-1,.34-.56-2.11,1.52-.49v-4.73h2.06v4l1.42-.47v-5h2V3275l1.71-.57.4-.28,1.69.55-.08.34a62.41,62.41,0,0,1-.78,8.17l-1.82-.51c.19-1.5.32-3.84.38-6l-1.5.52v6.13h-2v-5.45l-1.42.49v6.27c0,1,.15,1.18,1.17,1.18Z"/><path d="M818.6,3298h-4.73l1.67.42c-.4.59-.81,1.18-1.21,1.71h2.92v2h-6.11v1.58h7v2h-7v2.85h-2.38v-2.85H801.9v-2h6.86v-1.58H803v-2h2.66a12.47,12.47,0,0,0-.84-1.73l1.39-.4h-4.77v-2h7.31v-1.49h-5.37v-2h5.37v-1.71h2.38v1.71h5.58v2h-5.58V3296h7.46Zm-6.57,2.13a18.45,18.45,0,0,0,1-2.13h-5.85a7.88,7.88,0,0,1,.87,1.79l-1.14.34Z"/><path d="M808.31,3320.3h10.1v8.6h-2.18v-.74h-5.85v.76h-2.07v-7l-.9,1.22a20.59,20.59,0,0,0-1.44-1.77V3329h-2.22v-6.33a16.88,16.88,0,0,1-1.92,1.58,9.15,9.15,0,0,0-1.05-2.15,13.84,13.84,0,0,0,4.83-5.31h-4.14v-2h2.6a24.84,24.84,0,0,0-1.41-2.66l1.77-.76A23.17,23.17,0,0,1,806,3314l-1.48.74h2.26l.38-.09,1.25.81a19.28,19.28,0,0,1-1.94,3.88c.52.4,1.33,1.12,1.87,1.6Zm10.16-8.32v1.9H808.19V3312Zm-.89,2.71v4.75h-8.34v-4.75Zm-7.2,7.41v1.26h1.88v-1.26Zm0,4.26h1.88v-1.31h-1.88Zm5.11-10h-4.26v1.37h4.26Zm.74,5.72h-2v1.26h2Zm0,4.26v-1.31h-2v1.31Z"/><path d="M811.35,3346.92c.49,0,1,0,1.52,0,1.06,0,4.71,0,6.06,0a7.37,7.37,0,0,0-.76,2.16h-5.42c-3.48,0-5.83-.49-7.43-2.7a8.39,8.39,0,0,1-2.66,3,8.94,8.94,0,0,0-1.71-1.57,8,8,0,0,0,3.54-5.76l2.26.34c-.13.61-.29,1.18-.44,1.73a4.19,4.19,0,0,0,2.74,2.38v-4.83h-7.41v-2h16.75v2h-7v1.43h5.85v2h-5.85Zm5.24-8.06h-13.2v-6.59h13.2Zm-2.3-5h-8.7v1h8.7Zm0,2.46h-8.7v1h8.7Z"/><path d="M817.94,3361.05a18.65,18.65,0,0,1-3.16,4.16c.52,1.46,1.11,2.34,1.68,2.34.39,0,.62-.91.72-3.15a5.78,5.78,0,0,0,1.86,1.29c-.36,3.32-1.06,4.16-2.79,4.16-1.39,0-2.45-1.14-3.27-3a19.5,19.5,0,0,1-3.51,2.31,10.26,10.26,0,0,0-1.51-1.82,19.49,19.49,0,0,0,4.24-2.68,35.2,35.2,0,0,1-1-5.09h-3.85v2.17l2.92-.54.17,2.06-3.09.62v3.25c0,1.24-.27,1.84-1,2.2a8,8,0,0,1-3.42.44,8.63,8.63,0,0,0-.8-2.28c1.07.06,2.17,0,2.51,0s.46-.09.46-.4v-2.75l-3.4.68-.56-2.28c1.09-.17,2.46-.38,4-.64v-2.55h-3.59v-2.15h3.59v-2.16c-1,.17-2.08.3-3,.42a8.53,8.53,0,0,0-.65-1.9,47.77,47.77,0,0,0,7.54-1.6l1.52,1.92c-1,.28-2,.53-3.09.76v2.56H811c-.15-1.71-.21-3.47-.22-5.2h2.37a46.75,46.75,0,0,0,.19,5.2h5.17v2.15h-4.94c.15,1.14.34,2.24.55,3.21a16,16,0,0,0,1.8-2.58Zm-1.39-4.18a14.88,14.88,0,0,0-2.7-3.13l1.71-1.16a16.21,16.21,0,0,1,2.81,3Z"/><path d="M818.6,3379.71h-4.73l1.67.42c-.4.59-.81,1.18-1.21,1.71h2.92v2h-6.11v1.58h7v2h-7v2.85h-2.38v-2.85H801.9v-2h6.86v-1.58H803v-2h2.66a12.47,12.47,0,0,0-.84-1.73l1.39-.4h-4.77v-2h7.31v-1.49h-5.37v-1.95h5.37v-1.71h2.38v1.71h5.58v1.95h-5.58v1.49h7.46Zm-6.57,2.13a18.45,18.45,0,0,0,1-2.13h-5.85a7.88,7.88,0,0,1,.87,1.79l-1.14.34Z"/><path d="M808.31,3402h10.1v8.6h-2.18v-.74h-5.85v.76h-2.07v-7l-.9,1.22A20.59,20.59,0,0,0,806,3403v7.62h-2.22v-6.33a16.88,16.88,0,0,1-1.92,1.58,9.15,9.15,0,0,0-1.05-2.15,13.84,13.84,0,0,0,4.83-5.31h-4.14v-2h2.6a24.84,24.84,0,0,0-1.41-2.66l1.77-.76a23.17,23.17,0,0,1,1.54,2.68l-1.48.74h2.26l.38-.09,1.25.81a19.28,19.28,0,0,1-1.94,3.88c.52.4,1.33,1.12,1.87,1.6Zm10.16-8.32v1.9H808.19v-1.9Zm-.89,2.71v4.75h-8.34v-4.75Zm-7.2,7.41v1.26h1.88v-1.26Zm0,4.26h1.88v-1.31h-1.88Zm5.11-10h-4.26v1.37h4.26Zm.74,5.72h-2v1.26h2Zm0,4.26v-1.31h-2v1.31Z"/><path d="M818.39,3416.25s0,.76,0,1c-.24,8.5-.45,11.52-1.23,12.52a2.5,2.5,0,0,1-1.82,1.05,23.6,23.6,0,0,1-3,0,5.22,5.22,0,0,0-.74-2.21c1.22.12,2.34.12,2.83.12a1,1,0,0,0,.84-.33c.55-.6.8-3.45,1-10.16H812.2a16.17,16.17,0,0,1-1.67,3,15.64,15.64,0,0,0-1.46-1.06v8.87H804v1.39h-2v-14.12h2.15a20.58,20.58,0,0,0,.55-3.06l2.47.34c-.32,1-.67,1.9-1,2.72h3v3.08a19.75,19.75,0,0,0,2.56-6.12l2.15.49a23.24,23.24,0,0,1-.74,2.42ZM807,3418.36h-3v3.07h3Zm0,8.75v-3.72h-3v3.72Zm6.31-1a40.77,40.77,0,0,0-2.64-4.39l1.77-1a46.13,46.13,0,0,1,2.79,4.22Z"/><path d="M818.77,3446.21h-2v3.3h-2.3v-.77h-3.42v.59c0,1.12-.27,1.57-1,1.89a9.79,9.79,0,0,1-3.36.33,7.13,7.13,0,0,0-.74-1.79c.91,0,2,0,2.34,0s.47-.13.47-.47v-.59H803v-1.64h5.77v-.89h-7.52v-1.73h7.52v-.82h-5.62v-1.52h5.62v-.83h-5.15v-3.76h5.15v-.78H801.7V3435h7.08v-1.23h2.3V3435h7.26v1.79h-7.26v.78h5.39v3.76h-5.39v.83h5.72v2.34h2Zm-10-6.33V3439h-3v.91Zm2.3-.91v.91h3.08V3439Zm0,5.51h3.42v-.82h-3.42Zm3.42,1.73h-3.42v.89h3.42Z"/><path d="M807.92,3472.79c1.46-.55,2.28-1.5,2.28-2.6H810a1.64,1.64,0,0,1-1.75-1.66,1.68,1.68,0,0,1,1.8-1.65c1.29,0,2,1,2,2.76a4.79,4.79,0,0,1-3.59,4.67Z"/><path d="M807.58,3491.77a18.56,18.56,0,0,1-1.27,6.78,23.64,23.64,0,0,1,2.22,2.38l-1.31,1.84c-.47-.62-1.16-1.42-1.93-2.26a13,13,0,0,1-2.87,3.16,6.78,6.78,0,0,0-1.45-1.43,11.68,11.68,0,0,0,2.89-3.19c-.85-.89-1.75-1.73-2.51-2.47a41.54,41.54,0,0,0,.91-4.45l-1,.06-.21-2,1.5-.06c.19-1.35.32-2.7.4-3.89l2,.07c-.09,1.16-.24,2.45-.41,3.71l1.15-.06v-1.2h1.9v1.1l.93,0v1.92Zm-2.81,5.32a16,16,0,0,0,.9-5.18l-1.45.11c-.23,1.37-.49,2.68-.76,3.87Zm11,4.45c.9,0,1.07-.44,1.2-2.4a6.45,6.45,0,0,0,1.94.82c-.29,2.68-.93,3.63-2.95,3.63h-3.63c-2.35,0-3-.67-3-3.25v-5.55l-1,.34-.56-2.1,1.52-.5v-4.73h2.06v4l1.42-.48v-5h2v4.37l1.71-.57.4-.29,1.69.56-.08.34a62.75,62.75,0,0,1-.78,8.17l-1.82-.52c.19-1.5.32-3.83.38-6l-1.5.51v6.14h-2v-5.45l-1.42.49v6.27c0,1,.15,1.18,1.17,1.18Z"/><path d="M804.91,3513.45a51.08,51.08,0,0,1-1.39,7.88l-2.28-.91a36.91,36.91,0,0,0,1.46-7.39Zm3.57-1.54v8.82c0,.89.15,1,1.06,1h2.72c1,0,1.12-.61,1.25-3.57a6.79,6.79,0,0,0,2.13,1c-.27,3.61-.88,4.73-3.21,4.73h-3.16c-2.47,0-3.15-.76-3.15-3.15v-8.82Zm-.17-5.11a34.78,34.78,0,0,1,5.26,3.93l-1.67,1.77a33.84,33.84,0,0,0-5.13-4.16Zm8.28,5.63a35.67,35.67,0,0,1,2.45,7.06l-2.3,1a31.74,31.74,0,0,0-2.26-7.16Z"/><path d="M805.89,3535.62a12.06,12.06,0,0,0,1.31-1.82l1.33,1.24c-.6.55-1.17,1.12-1.65,1.57l1.33,1.43L807,3539.8a24.6,24.6,0,0,0-1.48-2.12v7h-2v-6.78a14.06,14.06,0,0,1-1.79,1.76,9.38,9.38,0,0,0-1-2.24,15.11,15.11,0,0,0,4.32-5.22h-3.75v-2h3a25.86,25.86,0,0,0-1.4-2.31l1.61-1a20.31,20.31,0,0,1,1.6,2.39l-1.29.91h1.33l.36-.09,1.12.91a21.4,21.4,0,0,1-2.15,4.24v.11Zm12.85,6.63v2H807.93v-2h4.21v-1.93h-3.49v-2h3.49v-1.48h-3.61v-9.06H818v9.06h-3.76v1.48h3.9v2h-3.9v1.93Zm-8.19-10.82h1.59v-1.73h-1.59Zm1.59,3.53v-1.77h-1.59V3535Zm3.75-5.26h-1.64v1.73h1.64Zm0,3.49h-1.64V3535h1.64Z"/><path d="M807.49,3548.11a29.25,29.25,0,0,1-1.82,3.95v13h-2.28v-9.5c-.4.48-.8.95-1.18,1.37a15.51,15.51,0,0,0-1.26-2.41,19.77,19.77,0,0,0,4.34-7.11Zm11.44,14.25v2.14H806.67v-2.14h5.06v-3.82h-4v-2.13h4v-3.34h-4.64v-2.15h5.11a15.06,15.06,0,0,0-1.35-3l2.09-.7a15.22,15.22,0,0,1,1.5,2.95l-2,.7h6.17v2.15H814v3.34h4.11v2.13H814v3.82Z"/><path d="M817.8,3570.3a31.31,31.31,0,0,1-6.53,5.28v7.33c0,1.3-.3,1.9-1.24,2.25a13,13,0,0,1-4.12.38,7.83,7.83,0,0,0-.91-2.28c1.35,0,2.91,0,3.33,0s.56-.11.56-.43v-8.42a23.12,23.12,0,0,0,4.37-3.11h-11v-2.23h13.19l.49-.13Z"/><path d="M818.75,3595.66v2.46H801.28v-2.46Z"/><path d="M806.71,3609.31a37.61,37.61,0,0,1-1.48,3.61v13.47h-2.15v-9.73a18.43,18.43,0,0,1-1.27,1.63,16.06,16.06,0,0,0-1.06-2.45,20.08,20.08,0,0,0,3.87-7.18Zm11.61.28v16.59h-2.15v-.93H809v1.1h-2v-16.76Zm-2.15,13.7v-11.74H809v11.74Zm-2.73-7.77v1.63h1.82v5.09H810v-5.09h1.69v-1.63H809.5v-1.63h2.19V3612h1.75v1.94h2.29v1.63Zm.13,3.19h-1.94v2h1.94Z"/><path d="M817.46,3639.4s0,.61-.07.91c-.31,3.46-.69,5-1.29,5.63a2.71,2.71,0,0,1-1.89.74c-.66.05-1.82,0-3,0a4.36,4.36,0,0,0-.74-2.07c1.18.09,2.38.11,2.89.11a1.27,1.27,0,0,0,.84-.19c.34-.29.62-1.24.83-3.12h-5c-.95,2.45-3,4.3-7.76,5.34a6,6,0,0,0-1.17-2c3.7-.72,5.47-1.85,6.36-3.37H801.9v-2h6.29c.08-.42.15-.85.21-1.31h-5.22V3630h13.66v8.11h-6.06c-.06.46-.14.87-.21,1.31Zm-12-6.25h3.34v-1.31h-3.34Zm0,3.08h3.34v-1.33h-3.34Zm9-4.39h-3.4v1.31h3.4Zm0,3.06h-3.4v1.33h3.4Z"/><path d="M818.58,3664.46v2.22H801.51v-2.22h7.33v-3.82h-5.15v-2.18h5.15v-3.34h-3.93a16.12,16.12,0,0,1-1.77,2.75,19.33,19.33,0,0,0-2-1.35,16.46,16.46,0,0,0,3.36-6.8l2.33.51c-.26.91-.56,1.81-.89,2.68h2.93v-3.42h2.37v3.42h6.4v2.21h-6.4v3.34h5.68v2.18h-5.68v3.82Z"/><path d="M807.92,3688.52c1.46-.56,2.28-1.51,2.28-2.61H810a1.64,1.64,0,0,1-1.75-1.65,1.68,1.68,0,0,1,1.8-1.65c1.29,0,2,1,2,2.75a4.8,4.8,0,0,1-3.59,4.68Z"/><path d="M806.69,3710.9a16.15,16.15,0,0,1-1.59,4.77c.28.17.62.38,1.06.62,1.31.75,3.11.86,5.28.86a62.52,62.52,0,0,0,7.71-.51,9.4,9.4,0,0,0-.68,2.39c-1.54.11-4.9.23-7.12.23-2.49,0-4.11-.21-5.49-1-.8-.42-1.45-1-1.85-1s-1.14,1.24-1.65,2.26l-1.48-2.18a7.28,7.28,0,0,1,1.8-1.6,11.05,11.05,0,0,0,1.58-3.42H801.6c.49-1.12,1.06-2.64,1.56-4.12h-1.9v-2H806c-.46,1.34-1,2.86-1.5,4.17H805l.34-.05Zm-3.25-5.19c-.32-.87-1-2.26-1.4-3.28l2-.73c.48,1.05,1.11,2.32,1.47,3.14Zm15.14-.05H806.5v-1.75h5a16.37,16.37,0,0,0-.82-1.62l2.18-.68a15.19,15.19,0,0,1,1.12,2l-.76.25h5.32Zm-10.92,5.66h9.5v4.8h-9.5ZM817,3708h-9.12v-1.59H817Zm-9.12.86H817v1.59h-9.12Zm1.9,5.66h5.17v-1.6h-5.17Z"/><path d="M811.35,3737.52c.49,0,1,.05,1.52.05,1.06,0,4.71,0,6.06-.05a7.37,7.37,0,0,0-.76,2.16h-5.42c-3.48,0-5.83-.49-7.43-2.7a8.3,8.3,0,0,1-2.66,3,8.94,8.94,0,0,0-1.71-1.57,8,8,0,0,0,3.54-5.76l2.26.34c-.13.61-.29,1.18-.44,1.73a4.17,4.17,0,0,0,2.74,2.38v-4.83h-7.41v-2h16.75v2h-7v1.43h5.85v2h-5.85Zm5.24-8.06h-13.2v-6.59h13.2Zm-2.3-5h-8.7v1h8.7Zm0,2.45h-8.7v1h8.7Z"/><path d="M817.69,3753.82s0,.55,0,.8c-.15,3.11-.38,4.48-.85,5a2,2,0,0,1-1.43.67,17.43,17.43,0,0,1-2.39,0,4.83,4.83,0,0,0-.57-1.94,15.25,15.25,0,0,0,1.86.07.73.73,0,0,0,.63-.19c.23-.24.36-1,.49-2.66H806c-.19.16-.38.31-.57.44l1.44.55a11,11,0,0,1-1.5,3.37l-1.82-.8a9.81,9.81,0,0,0,1.41-2.8,16.82,16.82,0,0,1-2.42,1.32,13.29,13.29,0,0,0-1.31-1.75,11.4,11.4,0,0,0,4.71-3h-1.84v-5.67a22.62,22.62,0,0,0,4.41-1.21l1.31,1.39a27.88,27.88,0,0,1-3.71.94v.78h3.16v1.49h-3.16v.76h7.75v-.76h-3.11v-1.49h3.11v-.74H810.4v-1.52h5.49v6H808.4a10.06,10.06,0,0,1-.63.87Zm.51-9.86v3.89h-2.12v-1.95H803.84v1.95h-2.05V3744h6.82a7.86,7.86,0,0,0-.36-.84l2.3-.64a12.77,12.77,0,0,1,.74,1.48Zm-9.34,12.2a10.57,10.57,0,0,1,.57,3.32l-1.79.25a11.75,11.75,0,0,0-.46-3.4Zm2.22-.14a9.63,9.63,0,0,1,1,2.74l-1.68.45a10.06,10.06,0,0,0-.89-2.81Zm1.94,2.23a7.15,7.15,0,0,0-1.22-1.9l1.45-.61a6.91,6.91,0,0,1,1.31,1.82Z"/><path d="M807.58,3768.77a18.56,18.56,0,0,1-1.27,6.78,23.64,23.64,0,0,1,2.22,2.38l-1.31,1.84c-.47-.62-1.16-1.42-1.93-2.26a13,13,0,0,1-2.87,3.16,6.78,6.78,0,0,0-1.45-1.43,11.68,11.68,0,0,0,2.89-3.19c-.85-.89-1.75-1.73-2.51-2.47a41.54,41.54,0,0,0,.91-4.45l-1,.06-.21-2,1.5-.06c.19-1.35.32-2.7.4-3.89l2,.07c-.09,1.16-.24,2.45-.41,3.71l1.15-.06v-1.2h1.9v1.1l.93,0v1.92Zm-2.81,5.32a16,16,0,0,0,.9-5.18l-1.45.11c-.23,1.37-.49,2.68-.76,3.87Zm11,4.45c.9,0,1.07-.44,1.2-2.4a6.45,6.45,0,0,0,1.94.82c-.29,2.68-.93,3.63-2.95,3.63h-3.63c-2.35,0-3-.67-3-3.25v-5.55l-1,.34-.56-2.1,1.52-.5v-4.73h2.06v4l1.42-.48v-5h2v4.37l1.71-.57.4-.29,1.69.56-.08.34a62.75,62.75,0,0,1-.78,8.17l-1.82-.52c.19-1.5.32-3.83.38-6l-1.5.51v6.14h-2v-5.45l-1.42.49v6.27c0,1,.15,1.18,1.17,1.18Z"/><path d="M807.92,3802.12c1.46-.56,2.28-1.51,2.28-2.61H810a1.64,1.64,0,0,1-1.75-1.65,1.68,1.68,0,0,1,1.8-1.65c1.29,0,2,1,2,2.75a4.8,4.8,0,0,1-3.59,4.68Z"/><path d="M817.69,3826.57s0,.55,0,.8c-.15,3.11-.38,4.48-.85,5a2,2,0,0,1-1.43.67,14.7,14.7,0,0,1-2.39,0,4.83,4.83,0,0,0-.57-1.94,15.77,15.77,0,0,0,1.86.08.76.76,0,0,0,.63-.19c.23-.25.36-1,.49-2.66H806c-.19.15-.38.3-.57.43l1.44.55a11,11,0,0,1-1.5,3.37l-1.82-.8a9.88,9.88,0,0,0,1.41-2.79,16.75,16.75,0,0,1-2.42,1.31,13.29,13.29,0,0,0-1.31-1.75,11.4,11.4,0,0,0,4.71-3h-1.84V3820a23.31,23.31,0,0,0,4.41-1.22l1.31,1.39a27.85,27.85,0,0,1-3.71.95v.77h3.16v1.49h-3.16v.76h7.75v-.76h-3.11v-1.49h3.11v-.74H810.4v-1.52h5.49v6H808.4a8.72,8.72,0,0,1-.63.87Zm.51-9.86v3.89h-2.12v-1.95H803.84v1.95h-2.05v-3.89h6.82a7.7,7.7,0,0,0-.36-.83l2.3-.65a12.77,12.77,0,0,1,.74,1.48Zm-9.34,12.2a10.57,10.57,0,0,1,.57,3.32l-1.79.25a11.75,11.75,0,0,0-.46-3.4Zm2.22-.14a9.63,9.63,0,0,1,1,2.74l-1.68.45a10.26,10.26,0,0,0-.89-2.81ZM813,3831a7.15,7.15,0,0,0-1.22-1.9l1.45-.61a6.91,6.91,0,0,1,1.31,1.82Z"/><path d="M807.58,3841.52a18.64,18.64,0,0,1-1.27,6.79,23.67,23.67,0,0,1,2.22,2.37l-1.31,1.84c-.47-.62-1.16-1.42-1.93-2.26a13,13,0,0,1-2.87,3.16A6.78,6.78,0,0,0,801,3852a11.68,11.68,0,0,0,2.89-3.19c-.85-.89-1.75-1.73-2.51-2.47a41.54,41.54,0,0,0,.91-4.45l-1,.06-.21-2,1.5-.06c.19-1.35.32-2.7.4-3.89l2,.07c-.09,1.16-.24,2.45-.41,3.71l1.15-.06v-1.2h1.9v1.11l.93-.06v1.92Zm-2.81,5.32a16,16,0,0,0,.9-5.18l-1.45.11c-.23,1.37-.49,2.68-.76,3.88Zm11,4.45c.9,0,1.07-.44,1.2-2.4a6.45,6.45,0,0,0,1.94.82c-.29,2.68-.93,3.63-2.95,3.63h-3.63c-2.35,0-3-.67-3-3.25v-5.55l-1,.35-.56-2.11,1.52-.5v-4.73h2.06v4l1.42-.47v-5h2v4.37l1.71-.57.4-.28,1.69.55-.08.34a62.75,62.75,0,0,1-.78,8.17l-1.82-.52c.19-1.5.32-3.83.38-6l-1.5.51v6.14h-2v-5.45l-1.42.49v6.27c0,1,.15,1.18,1.17,1.18Z"/><path d="M817.69,3867.42s0,.55,0,.8c-.15,3.11-.38,4.48-.85,5a2,2,0,0,1-1.43.67,14.7,14.7,0,0,1-2.39,0,4.83,4.83,0,0,0-.57-1.94,15.25,15.25,0,0,0,1.86.07.76.76,0,0,0,.63-.18c.23-.25.36-1,.49-2.66H806c-.19.15-.38.3-.57.43l1.44.55a11,11,0,0,1-1.5,3.37l-1.82-.8a9.81,9.81,0,0,0,1.41-2.8,15.9,15.9,0,0,1-2.42,1.32,13.29,13.29,0,0,0-1.31-1.75,11.4,11.4,0,0,0,4.71-3h-1.84v-5.67a22.62,22.62,0,0,0,4.41-1.21l1.31,1.39a27.85,27.85,0,0,1-3.71,1v.77h3.16v1.49h-3.16v.76h7.75v-.76h-3.11v-1.49h3.11V3862H810.4v-1.52h5.49v6H808.4a10.06,10.06,0,0,1-.63.87Zm.51-9.86v3.89h-2.12v-1.95H803.84v1.95h-2.05v-3.89h6.82a8.84,8.84,0,0,0-.36-.84l2.3-.64a12.77,12.77,0,0,1,.74,1.48Zm-9.34,12.2a10.57,10.57,0,0,1,.57,3.32l-1.79.25a11.75,11.75,0,0,0-.46-3.4Zm2.22-.14a9.63,9.63,0,0,1,1,2.74l-1.68.45a10.16,10.16,0,0,0-.89-2.81Zm1.94,2.23a7.15,7.15,0,0,0-1.22-1.9l1.45-.61a6.91,6.91,0,0,1,1.31,1.82Z"/><path d="M807.58,3882.37a18.64,18.64,0,0,1-1.27,6.79,23.67,23.67,0,0,1,2.22,2.37l-1.31,1.84c-.47-.62-1.16-1.42-1.93-2.26a13,13,0,0,1-2.87,3.16,6.78,6.78,0,0,0-1.45-1.43,11.68,11.68,0,0,0,2.89-3.19c-.85-.89-1.75-1.73-2.51-2.47a41.54,41.54,0,0,0,.91-4.45l-1,.06-.21-2,1.5-.06c.19-1.35.32-2.7.4-3.89l2,.07c-.09,1.16-.24,2.45-.41,3.71l1.15-.06v-1.2h1.9v1.11l.93-.06v1.92Zm-2.81,5.32a16,16,0,0,0,.9-5.18l-1.45.11c-.23,1.37-.49,2.68-.76,3.88Zm11,4.45c.9,0,1.07-.44,1.2-2.4a6.45,6.45,0,0,0,1.94.82c-.29,2.68-.93,3.63-2.95,3.63h-3.63c-2.35,0-3-.67-3-3.25v-5.55l-1,.35-.56-2.11,1.52-.5v-4.73h2.06v4l1.42-.47v-5h2v4.37l1.71-.57.4-.28,1.69.55-.08.34a62.75,62.75,0,0,1-.78,8.17l-1.82-.52c.19-1.5.32-3.83.38-6l-1.5.51v6.14h-2v-5.45l-1.42.49V3891c0,1,.15,1.18,1.17,1.18Z"/><path d="M817.69,3908.27s0,.55,0,.8c-.15,3.11-.38,4.48-.85,5a2,2,0,0,1-1.43.67,14.7,14.7,0,0,1-2.39,0,4.83,4.83,0,0,0-.57-1.94,15.77,15.77,0,0,0,1.86.08.76.76,0,0,0,.63-.19c.23-.25.36-1,.49-2.66H806c-.19.15-.38.3-.57.43l1.44.55a11,11,0,0,1-1.5,3.37l-1.82-.8a9.88,9.88,0,0,0,1.41-2.79,16.75,16.75,0,0,1-2.42,1.31,13.29,13.29,0,0,0-1.31-1.75,11.4,11.4,0,0,0,4.71-3h-1.84v-5.66a23.31,23.31,0,0,0,4.41-1.22l1.31,1.39a27.85,27.85,0,0,1-3.71,1v.77h3.16v1.49h-3.16v.76h7.75v-.76h-3.11v-1.49h3.11v-.74H810.4v-1.52h5.49v6H808.4a8.72,8.72,0,0,1-.63.87Zm.51-9.86v3.89h-2.12v-2H803.84v2h-2.05v-3.89h6.82a7.7,7.7,0,0,0-.36-.83l2.3-.65a12.77,12.77,0,0,1,.74,1.48Zm-9.34,12.2a10.57,10.57,0,0,1,.57,3.32l-1.79.25a11.75,11.75,0,0,0-.46-3.4Zm2.22-.14a9.63,9.63,0,0,1,1,2.74l-1.68.46a10.22,10.22,0,0,0-.89-2.82Zm1.94,2.23a7.31,7.31,0,0,0-1.22-1.9l1.45-.61a6.91,6.91,0,0,1,1.31,1.82Z"/><path d="M807.58,3923.22a18.64,18.64,0,0,1-1.27,6.79,23.67,23.67,0,0,1,2.22,2.37l-1.31,1.84c-.47-.62-1.16-1.42-1.93-2.26a13,13,0,0,1-2.87,3.16,7,7,0,0,0-1.45-1.43,11.68,11.68,0,0,0,2.89-3.19c-.85-.89-1.75-1.73-2.51-2.47a41.54,41.54,0,0,0,.91-4.45l-1,.06-.21-2,1.5-.06c.19-1.35.32-2.7.4-3.89l2,.07c-.09,1.16-.24,2.45-.41,3.71l1.15-.06v-1.2h1.9v1.11l.93-.06v1.92Zm-2.81,5.32a16,16,0,0,0,.9-5.18l-1.45.11c-.23,1.37-.49,2.68-.76,3.88Zm11,4.45c.9,0,1.07-.44,1.2-2.4a6.45,6.45,0,0,0,1.94.82c-.29,2.68-.93,3.63-2.95,3.63h-3.63c-2.35,0-3-.66-3-3.25v-5.55l-1,.35-.56-2.11,1.52-.5v-4.73h2.06v4l1.42-.47v-5h2v4.37l1.71-.57.4-.28,1.69.55-.08.34a62.75,62.75,0,0,1-.78,8.17l-1.82-.52c.19-1.5.32-3.83.38-6l-1.5.51v6.14h-2v-5.45l-1.42.49v6.27c0,1.05.15,1.18,1.17,1.18Z"/></svg>