<svg id="圖層_1" data-name="圖層 1" xmlns="http://www.w3.org/2000/svg" viewBox="0 0 1620 4062.28"><defs><style>.cls-1{fill:#f9c90d;}</style></defs><rect class="cls-1" width="1620" height="4062.28"/><path d="M817.94,75.37a19.15,19.15,0,0,1-3.15,4.16c.51,1.46,1.1,2.34,1.67,2.34.4,0,.62-.92.72-3.16A5.48,5.48,0,0,0,819,80c-.36,3.33-1.06,4.17-2.79,4.17-1.39,0-2.45-1.14-3.27-3a19.56,19.56,0,0,1-3.51,2.32,10.18,10.18,0,0,0-1.5-1.82A19.67,19.67,0,0,0,812.2,79a35.2,35.2,0,0,1-1-5.09h-3.85v2.16l2.92-.53.17,2-3.09.63v3.25c0,1.23-.27,1.84-1,2.2a8.15,8.15,0,0,1-3.42.44,8.63,8.63,0,0,0-.8-2.28c1.07.06,2.17,0,2.51,0s.46-.1.46-.4V78.67c-1.22.25-2.4.5-3.4.69l-.56-2.28c1.09-.17,2.46-.38,4-.65V73.89h-3.59V71.74h3.59V69.58c-1,.17-2.07.3-3,.41a8.89,8.89,0,0,0-.65-1.9A49,49,0,0,0,809,66.5l1.52,1.92c-1,.28-2,.53-3.09.76v2.56H811c-.15-1.71-.21-3.48-.22-5.2h2.37a46.75,46.75,0,0,0,.19,5.2h5.17v2.15h-4.94c.15,1.14.34,2.24.55,3.21a15.6,15.6,0,0,0,1.8-2.59Zm-1.39-4.18a14.88,14.88,0,0,0-2.7-3.13l1.71-1.16a16.31,16.31,0,0,1,2.82,3Z"/><path d="M811.35,102.08c.49,0,1,.06,1.52.06,1.06,0,4.71,0,6.06-.06a7.33,7.33,0,0,0-.76,2.17h-5.42c-3.47,0-5.83-.5-7.43-2.7a8.54,8.54,0,0,1-2.65,3A9.63,9.63,0,0,0,801,103a8,8,0,0,0,3.53-5.75l2.26.34c-.13.61-.29,1.18-.44,1.73a4.18,4.18,0,0,0,2.74,2.37V96.86h-7.41v-2h16.75v2h-7v1.42h5.85v2h-5.85Zm5.24-8h-13.2V87.44h13.2Zm-2.3-5h-8.7v1h8.7Zm0,2.45h-8.7v1h8.7Z"/><path d="M814.18,112a9.59,9.59,0,0,0,4.94,4.79,10.11,10.11,0,0,0-1.64,1.88,14.52,14.52,0,0,1-1.84-1.25v.09c-.23,4.14-.47,5.85-1,6.5a2.26,2.26,0,0,1-1.6.76,19.79,19.79,0,0,1-2.55,0,4.65,4.65,0,0,0-.68-2.09c.91.09,1.8.09,2.2.09a.89.89,0,0,0,.71-.23c.3-.3.51-1.4.66-3.91h-3.63c-.57,2.83-1.93,5-6.61,6.33a7.09,7.09,0,0,0-1.27-2c3.93-.89,5-2.45,5.41-4.37h-2.83v-1.08a14.54,14.54,0,0,1-1.67,1.19,14.41,14.41,0,0,0-1.8-1.67,10.68,10.68,0,0,0,4.71-4.52l2.28.67a13.54,13.54,0,0,1-2.49,3.38h9.35a13.76,13.76,0,0,1-2.08-2.62h-4.06v-2Zm-9.2-1.63h-3.44v-2H805v-1.13h2.24v1.13h2.42v2h-2.42v1.25H805Zm7.92,0h-2.56v-2h2.56v-1.13h2.25v1.13h3.28v2h-3.28v1.31H812.9Z"/><path d="M807.59,133.34a18.83,18.83,0,0,1-1.28,6.78,23.88,23.88,0,0,1,2.23,2.38l-1.32,1.84a27.61,27.61,0,0,0-1.93-2.26,12.93,12.93,0,0,1-2.87,3.15,6.74,6.74,0,0,0-1.45-1.42,11.57,11.57,0,0,0,2.89-3.2c-.85-.89-1.75-1.72-2.51-2.46a44.5,44.5,0,0,0,.92-4.45l-1,.06-.21-2,1.5-.05c.19-1.35.32-2.7.4-3.9l2,.08c-.09,1.16-.24,2.45-.41,3.7l1.16-.05v-1.2h1.9v1.1l.93-.06v1.92Zm-2.82,5.32a16.07,16.07,0,0,0,.9-5.19l-1.45.12c-.23,1.36-.49,2.67-.76,3.87Zm11,4.44c.9,0,1.07-.43,1.2-2.39a7,7,0,0,0,1.94.82c-.29,2.68-.93,3.63-2.95,3.63h-3.63c-2.35,0-3-.67-3-3.25v-5.55l-1,.34-.55-2.11,1.52-.49v-4.73h2.05v4l1.42-.48v-5h2v4.37l1.71-.57.4-.29,1.69.55-.08.34a62.41,62.41,0,0,1-.78,8.17l-1.82-.51c.19-1.5.32-3.84.38-6l-1.5.51v6.13h-2v-5.45l-1.42.5v6.27c0,1,.15,1.17,1.17,1.17Z"/><path d="M808.25,152.47a11.11,11.11,0,0,1-.76,1.5h8.83v9.39c0,1.12-.21,1.73-1,2.07a8.42,8.42,0,0,1-3.37.38,9.39,9.39,0,0,0-.68-2.19c1,.06,2.07.06,2.39.06s.44-.11.44-.38v-1.14H807a6.65,6.65,0,0,1-2.11,3.78,8.16,8.16,0,0,0-1.64-1.73c1.64-1.42,1.77-3.46,1.77-5.22v-1.54a15.48,15.48,0,0,1-2.35,2.07,13.9,13.9,0,0,0-1.49-1.75,14.33,14.33,0,0,0,4.56-5.3H801.6v-2.13h5.09a21.16,21.16,0,0,0,.76-2.29l2.34.53c-.19.59-.4,1.18-.61,1.76h9.27v2.13Zm5.87,7.81V159H807.3c0,.4,0,.8,0,1.24Zm0-4.31H807.3v1.19h6.82Z"/><path d="M807.68,182.57h-3.86v1.67h-2.09V169.65h5.95Zm-3.86-10.91V175h1.75v-3.35Zm1.75,8.89V177h-1.75v3.57Zm8.95-8.05v1.8h3.76v2h-1.39v1.48h1.83v2h-1.83v4.14c0,1.08-.21,1.65-1,2a8.27,8.27,0,0,1-3.18.38,8.11,8.11,0,0,0-.7-2.12c.91,0,2,0,2.24,0s.4-.07.4-.34V179.7H808v-2h6.65v-1.48h-6.06v-2h3.67v-1.8H808v-2h4.28v-2h2.22v2h4.27v2ZM810.66,180a24.78,24.78,0,0,1,2.28,3l-2,1.16a27.88,27.88,0,0,0-2.19-3.19Z"/><path d="M806.58,189.58a42,42,0,0,1-1.46,3.95v13.13H803V197.5a15,15,0,0,1-.91,1.25,15.16,15.16,0,0,0-1.1-2.43,21.86,21.86,0,0,0,3.53-7.35ZM808,202.9h-2V192.73h2Zm6.54-1c-.55,1.73-2,3.49-5.46,4.77a9.54,9.54,0,0,0-1.5-1.66c2.81-.83,4-2,4.56-3.11h-3.57V200h3.95v-1.81h-1.4a10.31,10.31,0,0,1-1.22,1.75,12.12,12.12,0,0,0-1.75-1.12,10.18,10.18,0,0,0,2.17-3.89h-1.79v-1.88h6.25c.08-.5.15-1,.23-1.51h-5.62v-1.86h6.08l.32-.09,1.6.19c-.12,1.08-.29,2.22-.48,3.27h1.82V195h-8.14l1.78.41c-.11.33-.23.65-.36,1h6.25v1.86h-3.46V200h4v1.9Zm1.12.13c1.06,1,2.64,2.34,3.45,3.19l-1.61,1.35c-.74-.85-2.26-2.32-3.38-3.36Z"/><path d="M816.17,225.15c.61,0,.74-.19.82-1.49a6.45,6.45,0,0,0,1.86.69c-.23,2-.8,2.49-2.45,2.49h-2.79c-2.26,0-2.83-.5-2.83-2.19v-.85h-2.09c-.57,1.9-2.05,2.83-6.61,3.28a6.15,6.15,0,0,0-1-1.71c3.62-.21,4.8-.62,5.3-1.57h-2v-6.41h11v6.41H813v.83c0,.48.15.52.91.52Zm-12.46-6.92h-2V215.4h2.09l-.3-4.5,0,0a23.18,23.18,0,0,0,3.44-1.54l1.2.95a21.72,21.72,0,0,1-2.61,1.1l0,.46h2V213h-1.88l.06.58h1.88v1.18h-1.81l0,.61h2.64c-.23-.23-.53-.51-.74-.68a11.18,11.18,0,0,0,1.48-.82c-.32-.21-.64-.42-.95-.59l.86-.76a11.42,11.42,0,0,1,1,.61,5.29,5.29,0,0,0,.72-.82l.08,0a7,7,0,0,0-.82-.68,7.91,7.91,0,0,1-1.44.89,7.86,7.86,0,0,0-.93-.87,10.27,10.27,0,0,0,1.35-.73c-.29-.17-.57-.34-.84-.47l.86-.76c.3.15.6.34.93.53a4.72,4.72,0,0,0,.72-.78l1.2.34a6.14,6.14,0,0,1-.92,1.07c.31.23.57.45.78.64l-.83.84,1.1.28a9.27,9.27,0,0,1-1,1.18,8.85,8.85,0,0,1,.93.78l-.82.78h3.12l0-.61h-1.9v-1.18h2l0-.58h-2v-1.18h2l0-.59h-2.3V210h4.35c-.06,1.76-.15,3.91-.31,5.45h2v2.83h-2.09v-1.42h-12.5Zm2.89,1h6.59v-.63H806.6Zm0,1.71h6.59v-.63H806.6Zm0,1.77h6.59V222H806.6Zm4.5-7.26a8.11,8.11,0,0,0-.89-.78,12.85,12.85,0,0,1-1.14.78Z"/><path d="M807.39,234.78a18.3,18.3,0,0,1-1.65,2.39v10.32h-2.18v-7.88a18.12,18.12,0,0,1-1.71,1.53,16,16,0,0,0-1.09-2.33,16.88,16.88,0,0,0,4.66-4.89Zm-.32-4.12a20.1,20.1,0,0,1-5,4.77,12.87,12.87,0,0,0-1.13-1.92,13.54,13.54,0,0,0,4-3.73Zm11.55,11.91H816v2.7c0,1-.19,1.57-.93,1.9a7.59,7.59,0,0,1-3,.32,7.39,7.39,0,0,0-.7-2c.8,0,1.69,0,1.94,0s.34-.09.34-.3v-2.64h-4a20.71,20.71,0,0,1,2.17,2.37l-1.69,1.2A16.22,16.22,0,0,0,808,243.5l1.41-.93h-2.66v-1.92h7v-1.08h-6.5v-1.85h11v1.85H816v1.08h2.58Zm-1-5.68h-9.41v-6.57h9.41Zm-2.28-5h-4.94v1h4.94Zm0,2.43h-4.94v1h4.94Z"/><path d="M807.59,255.89a18.83,18.83,0,0,1-1.28,6.78,23.88,23.88,0,0,1,2.23,2.38l-1.32,1.84a27.61,27.61,0,0,0-1.93-2.26,12.93,12.93,0,0,1-2.87,3.15,6.74,6.74,0,0,0-1.45-1.42,11.68,11.68,0,0,0,2.89-3.19c-.85-.9-1.75-1.73-2.51-2.47a44.5,44.5,0,0,0,.92-4.45l-1,.06-.21-2,1.5-.05c.19-1.35.32-2.7.4-3.9l2,.08c-.09,1.16-.24,2.45-.41,3.7l1.16,0v-1.2h1.9V254l.93-.06v1.92Zm-2.82,5.32a16.07,16.07,0,0,0,.9-5.19l-1.45.12c-.23,1.36-.49,2.67-.76,3.87Zm11,4.44c.9,0,1.07-.43,1.2-2.39a7,7,0,0,0,1.94.82c-.29,2.68-.93,3.63-2.95,3.63h-3.63c-2.35,0-3-.67-3-3.25v-5.55l-1,.34-.55-2.11,1.52-.49v-4.73h2.05v4l1.42-.48v-5h2v4.37l1.71-.57.4-.29,1.69.55-.08.34a62.41,62.41,0,0,1-.78,8.17l-1.82-.51c.19-1.5.32-3.84.38-6l-1.5.51v6.14h-2v-5.46l-1.42.5v6.27c0,1,.15,1.17,1.17,1.17Z"/><path d="M811.35,285.91c.49,0,1,0,1.52,0,1.06,0,4.71,0,6.06,0a7.37,7.37,0,0,0-.76,2.16h-5.42c-3.47,0-5.83-.49-7.43-2.69a8.54,8.54,0,0,1-2.65,3,9.27,9.27,0,0,0-1.71-1.58,8.06,8.06,0,0,0,3.53-5.76l2.26.35c-.13.6-.29,1.17-.44,1.72a4.17,4.17,0,0,0,2.74,2.38v-4.83h-7.41v-2h16.75v2h-7v1.43h5.85v1.95h-5.85Zm5.24-8.06h-13.2v-6.59h13.2Zm-2.3-5h-8.7v1h8.7Zm0,2.45h-8.7v1h8.7Z"/><path d="M815.6,297.67a15.79,15.79,0,0,1-2.94,6c2.24,1.07,4.25,2.13,5.73,3l-1.76,2.16c-1.5-1-3.55-2.14-5.87-3.32a19.84,19.84,0,0,1-8.13,3.21,8.53,8.53,0,0,0-1.35-2.21,19.25,19.25,0,0,0,6.93-2.26c-1.56-.74-3.17-1.46-4.77-2.09a46.8,46.8,0,0,0,2.17-4.46h-4v-2.43h5a43.8,43.8,0,0,0,1.37-4.33l2.43.34a39.54,39.54,0,0,1-1.18,4h4.47c.11-.59.22-1.2.32-1.86l2.43.57c-.08.43-.15.87-.23,1.29h2.34v2.43Zm-7.31,0c-.46,1.22-.95,2.37-1.41,3.38,1.14.49,2.3,1,3.4,1.48a11.77,11.77,0,0,0,2.72-4.86Z"/><path d="M818.58,326.45v2.23H801.51v-2.23h7.33v-3.82h-5.15v-2.18h5.15v-3.34h-3.93a15.53,15.53,0,0,1-1.77,2.75,19.33,19.33,0,0,0-2-1.35,16.39,16.39,0,0,0,3.36-6.8l2.34.51c-.27.92-.57,1.81-.9,2.68h2.93v-3.42h2.37v3.42h6.41v2.21h-6.41v3.34h5.68v2.18h-5.68v3.82Z"/><path d="M807.92,350.51c1.46-.55,2.28-1.5,2.28-2.61H810a1.64,1.64,0,0,1-1.75-1.65,1.68,1.68,0,0,1,1.8-1.65c1.3,0,2,1,2,2.75a4.79,4.79,0,0,1-3.59,4.68Z"/><path d="M807.59,369.49a18.83,18.83,0,0,1-1.28,6.78,23.88,23.88,0,0,1,2.23,2.38l-1.32,1.84a27.61,27.61,0,0,0-1.93-2.26,12.93,12.93,0,0,1-2.87,3.15A7,7,0,0,0,801,380a11.68,11.68,0,0,0,2.89-3.19c-.85-.9-1.75-1.73-2.51-2.47a44.5,44.5,0,0,0,.92-4.45l-1,.06-.21-2,1.5-.06c.19-1.35.32-2.7.4-3.9l2,.08c-.09,1.16-.24,2.45-.41,3.7l1.16-.05v-1.2h1.9v1.1l.93-.05v1.91Zm-2.82,5.32a16.07,16.07,0,0,0,.9-5.19l-1.45.12c-.23,1.36-.49,2.68-.76,3.87Zm11,4.44c.9,0,1.07-.43,1.2-2.39a7,7,0,0,0,1.94.82c-.29,2.68-.93,3.63-2.95,3.63h-3.63c-2.35,0-3-.67-3-3.25v-5.55l-1,.34-.55-2.11,1.52-.49v-4.73h2.05v4l1.42-.48v-5h2v4.37l1.71-.57.4-.29,1.69.55-.08.34a62.41,62.41,0,0,1-.78,8.17l-1.82-.51c.19-1.5.32-3.84.38-6l-1.5.51v6.14h-2v-5.46l-1.42.5v6.27c0,1,.15,1.17,1.17,1.17Z"/><path d="M818.66,394.85v1.71H801.32v-1.71h4.35a7.41,7.41,0,0,0-.44-1l.8-.19h-1.94v-3.77h12v3.77H815a11.3,11.3,0,0,1-.76,1.17Zm-9.88-7.9H802v-1.61h6.82V384.2h2.3v1.14h7V387h-7v.78h5.85v1.56H803.27v-1.56h5.51Zm-5.07,10.32H816.5v4.67h-2.34v-.49h-8.23V402h-2.22Zm2.22,1.5v1.16h8.23v-1.16Zm.31-6.48h7.58v-1h-7.58Zm1.25,1.39a5.45,5.45,0,0,1,.53,1.17h3.92a9.7,9.7,0,0,0,.49-1.17Z"/><path d="M815.39,411.35c0,.66,0,1.42-.07,2.22.59,3,1.73,5.74,3.72,7.05a6.89,6.89,0,0,0-1.42,1.9,10.09,10.09,0,0,1-3.08-4.89,12.13,12.13,0,0,1-2.89,4.91,7.11,7.11,0,0,0-1.27-1.32v.37h-6v.81h-1.72v-5.87a10.92,10.92,0,0,1-.73.86,11.88,11.88,0,0,0-.95-1.56,12.53,12.53,0,0,0,2.42-3.72h-1.6V408.5h3.93v3.61h-1.67l.93.32c-.13.3-.28.63-.43.95h1.71c-.14-.29-.27-.59-.42-.84l1.23-.45h-.57v-3.61h3.93v3.23a21.89,21.89,0,0,0,1.71-7.11l2.08.32c-.1.82-.23,1.62-.38,2.42h3.43l.31-.08,1.38.4a36.14,36.14,0,0,1-1.29,5.32l-1.63-.51c.23-.82.47-1.94.68-3.08H813.4a15.91,15.91,0,0,1-1.65,4.43,12.34,12.34,0,0,0-1.71-1.39l.2-.34h-2.88a6.56,6.56,0,0,1,.66,1.29h2.53v1.5H808v.72h2.17V417H808v.79h2.32v1.41H808v.86h2.4v.64c2.79-3,3.06-6.86,3.06-9.4v-1.18h1.95Zm-12-4.14h-2.32v-1.6h2.32v-1h1.91v3.51h-1.91Zm-.33,3.76h1.28v-1.35h-1.28Zm3.08,3.91h-1.79v.72h1.79Zm0,2.13h-1.79v.79h1.79Zm-1.79,3.06h1.79v-.86h-1.79Zm4.49-11.92h-1.94v-3.51h1.94v.95H811v1.6h-2.18Zm-1.07,2.78h1.28v-1.29h-1.28Z"/><path d="M815.6,431.7a15.94,15.94,0,0,1-2.94,6c2.24,1.06,4.25,2.13,5.73,3l-1.76,2.17c-1.5-1-3.55-2.15-5.87-3.33a19.71,19.71,0,0,1-8.13,3.21,8.64,8.64,0,0,0-1.35-2.2,19.45,19.45,0,0,0,6.93-2.26c-1.56-.74-3.17-1.46-4.77-2.09a46.8,46.8,0,0,0,2.17-4.46h-4v-2.44h5a43,43,0,0,0,1.37-4.33l2.43.34a38.79,38.79,0,0,1-1.18,4h4.47c.11-.59.22-1.19.32-1.86l2.43.57c-.08.44-.15.88-.23,1.29h2.34v2.44Zm-7.31,0c-.46,1.21-.95,2.37-1.41,3.38,1.14.49,2.3,1,3.4,1.48A11.84,11.84,0,0,0,813,431.7Z"/><path d="M818.58,460.48v2.22H801.51v-2.22h7.33v-3.82h-5.15v-2.18h5.15v-3.35h-3.93a15.28,15.28,0,0,1-1.77,2.76,17.88,17.88,0,0,0-2-1.35,16.46,16.46,0,0,0,3.36-6.8l2.34.51c-.27.91-.57,1.8-.9,2.68h2.93v-3.42h2.37v3.42h6.41v2.2h-6.41v3.35h5.68v2.18h-5.68v3.82Z"/><path d="M807.92,484.53c1.46-.55,2.28-1.5,2.28-2.6H810a1.64,1.64,0,0,1-1.75-1.65,1.68,1.68,0,0,1,1.8-1.66c1.3,0,2,1,2,2.76a4.79,4.79,0,0,1-3.59,4.67Z"/><path d="M807.59,503.51a18.88,18.88,0,0,1-1.28,6.79,23.91,23.91,0,0,1,2.23,2.37l-1.32,1.84c-.47-.62-1.15-1.42-1.93-2.26a12.79,12.79,0,0,1-2.87,3.16A7,7,0,0,0,801,514a11.68,11.68,0,0,0,2.89-3.19c-.85-.89-1.75-1.73-2.51-2.47a44.25,44.25,0,0,0,.92-4.44l-1,.05-.21-2,1.5-.06c.19-1.35.32-2.69.4-3.89l2,.07c-.09,1.16-.24,2.46-.41,3.71l1.16-.06v-1.19h1.9v1.1l.93-.06v1.92Zm-2.82,5.32a16,16,0,0,0,.9-5.18l-1.45.11c-.23,1.37-.49,2.68-.76,3.88Zm11,4.45c.9,0,1.07-.44,1.2-2.39a6.69,6.69,0,0,0,1.94.81c-.29,2.68-.93,3.63-2.95,3.63h-3.63c-2.35,0-3-.66-3-3.25v-5.54l-1,.34-.55-2.11,1.52-.49v-4.74h2.05v4l1.42-.47v-5h2v4.37l1.71-.57.4-.28,1.69.55-.08.34a62.41,62.41,0,0,1-.78,8.17l-1.82-.51c.19-1.51.32-3.84.38-6l-1.5.52v6.13h-2v-5.45l-1.42.49v6.27c0,1,.15,1.18,1.17,1.18Z"/><path d="M818.45,520.86V523H808.29a22.34,22.34,0,0,1-2.22,3.74V536h-2.3v-6.61a14.12,14.12,0,0,1-1.67,1.33A15.54,15.54,0,0,0,801,528.5,14.37,14.37,0,0,0,805.7,523h-4.12v-2.17h5.13c.32-.89.61-1.76.84-2.64l2.37.57q-.31,1.05-.72,2.07Zm-4.56,12.56h4.5v2.09H807v-2.09h4.6v-4.33h-3.85V527h3.85v-3.16h2.28V527h3.76v2.09h-3.76Z"/><path d="M804.05,547.35a12.84,12.84,0,0,0-3-1.83l1.23-1.65a11,11,0,0,1,3,1.65ZM801.41,555a57.3,57.3,0,0,0,2.45-6.1l1.83,1.18c-.63,2-1.47,4.22-2.25,6.08Zm11.78-10.11v.92h5.17v8.62c0,.89-.16,1.31-.72,1.6a5.79,5.79,0,0,1-2.44.3,5.83,5.83,0,0,0-.49-1.65c.59,0,1.22,0,1.4,0s.27-.06.27-.25v-1.25a4.16,4.16,0,0,0-.63.64,4.27,4.27,0,0,1-.83-1.65,4,4,0,0,1-1.18,1.71,2.87,2.87,0,0,0-.55-.66v3h-2v-3a4.48,4.48,0,0,0-.53.57,5,5,0,0,1-.8-1.57,3.92,3.92,0,0,1-1.14,1.8,4.15,4.15,0,0,0-.6-.7v3h-1.92V545.85h5v-.92h-2.67v-3H806v-1.2l-1.2,1.64a11.51,11.51,0,0,0-2.94-1.92l1.27-1.67a14.22,14.22,0,0,1,2.87,1.65V540h2.59v-1.34h2.1V540h3.25v-1.34h2.21V540h2.6v2h-2.6v3Zm-2.7,3.42a9.81,9.81,0,0,0,.72,4v-4.61h-3.07V553a4.73,4.73,0,0,0,1-2.77h.4l0-.46h-.86v-1.39Zm.15-5.3h3.25V542h-3.25Zm2.55,4.68v5a4.36,4.36,0,0,0,.95-2.54h.4l0-.46h-.87v-1.39h1.88a8.8,8.8,0,0,0,.87,4.18v-4.8Z"/><path d="M816.44,574c0,1.36-.33,2-1.2,2.39a11.45,11.45,0,0,1-4.2.44,9.62,9.62,0,0,0-.95-2.38c1.33.08,2.93.06,3.35.06s.6-.15.6-.55v-2.76h-8.13a10.16,10.16,0,0,1-3.21,5.68A9,9,0,0,0,801,575.2c2.86-2.45,3.13-6.08,3.13-9V560h12.35Zm-2.4-5v-2.32h-7.61c0,.72-.06,1.52-.14,2.32Zm-7.61-6.78v2.31H814v-2.31Z"/><path d="M818.39,582.44s0,.76,0,1c-.25,8.49-.46,11.51-1.24,12.52a2.52,2.52,0,0,1-1.82,1,20.3,20.3,0,0,1-3,0,5.14,5.14,0,0,0-.74-2.2c1.22.11,2.34.11,2.83.11a1,1,0,0,0,.84-.32c.55-.61.8-3.46,1-10.17H812.2a16.28,16.28,0,0,1-1.67,3,13,13,0,0,0-1.46-1.07v8.87H804v1.39h-2V582.57h2.15a20.46,20.46,0,0,0,.55-3.05l2.47.34c-.32.95-.66,1.9-1,2.71h3v3.08a19.59,19.59,0,0,0,2.56-6.11l2.15.49a23.07,23.07,0,0,1-.74,2.41ZM807,584.55h-3v3.08h3Zm0,8.76v-3.73h-3v3.73Zm6.31-1a40.77,40.77,0,0,0-2.64-4.39l1.77-1a46.08,46.08,0,0,1,2.79,4.21Z"/><path d="M815.51,609v8.68h-2.4v-6.42h-7a11.74,11.74,0,0,1-2.9,6.5,8.54,8.54,0,0,0-1.71-1.79c2.35-2.58,2.62-6.09,2.62-9.3v-6.44h2.28v4h6.17v-4.29h2.34v6.57h-8.51v.16c0,.77,0,1.54-.06,2.33Z"/><path d="M812.09,629.58a19.92,19.92,0,0,1-2.78,3.72,27.63,27.63,0,0,1,3,2.7l-1.59,1.44a35.72,35.72,0,0,0-2.87-2.77,24.12,24.12,0,0,1-5.28,3.48,10.74,10.74,0,0,0-1.35-1.94A17.61,17.61,0,0,0,810,628.8Zm-1.26-3.69a18.85,18.85,0,0,1-8,8.21,12.52,12.52,0,0,0-1.33-1.86A15.91,15.91,0,0,0,806.2,629c-2.89.21-3.5.33-3.9.5-.11-.44-.45-1.45-.68-2a2.72,2.72,0,0,0,1.16-.79,15.81,15.81,0,0,0,1.67-2h-3.11v-2.07h4.52a10.41,10.41,0,0,0-.86-1.86l2.13-.5a8.88,8.88,0,0,1,1.12,2.36H812v2.07h-4.9a23.81,23.81,0,0,1-2.26,2.55l3-.16a13,13,0,0,0,1-1.78Zm4.09,7.2h-2.13V622.42h2.13Zm3.44-12.52v14.9c0,1.25-.25,1.82-1,2.16a8.67,8.67,0,0,1-3.53.42,8.61,8.61,0,0,0-.73-2.16c1,.05,2.19,0,2.53,0s.47-.12.47-.46V620.57Z"/><path d="M817.64,645.35a38.41,38.41,0,0,1-10.15,9.8c1.18.73,2.77.86,4.77.86a53.26,53.26,0,0,0,6.65-.46,11.85,11.85,0,0,0-.65,2.41c-1.35.1-4.22.21-6.08.21-2.33,0-3.85-.24-5.15-1-.81-.48-1.44-1.12-1.86-1.12-.59,0-1.44,1.27-2.22,2.49l-1.63-2.13c1.36-1.46,2.86-2.47,3.91-2.47h.11a33.25,33.25,0,0,0,8.4-7.37H802.29v-2.22h7.4a30.67,30.67,0,0,0-1.71-2.66l2-1.09a31.28,31.28,0,0,1,2.12,3.08l-1.15.67h4.46l.44-.12Z"/><path d="M804.28,668.8V679H802v-17h7.27v6.86Zm0-5.23v1h2.93v-1Zm2.93,3.61V666.1h-2.93v1.08Zm10.86,9.1c0,1.22-.25,1.88-1,2.24a8.17,8.17,0,0,1-3.47.44,8.43,8.43,0,0,0-.5-1.77h-4.71v1h-2v-8.22h7.32v6.74c.74,0,1.44,0,1.69,0s.45-.11.45-.42v-7.43h-5.16v-6.89h7.44Zm-9.69-4.67v1.14h3.14v-1.14Zm3.14,3.93v-1.18h-3.14v1.18Zm1.25-12v1h3v-1Zm3,3.65V666.1h-3v1.12Z"/><path d="M807.21,686.6a20,20,0,0,1-1.45,2.36v10.39H803.6v-7.68a20.11,20.11,0,0,1-1.6,1.6,17,17,0,0,0-1.12-2.34,17.62,17.62,0,0,0,4.33-5.13Zm-.2-4.07a19.91,19.91,0,0,1-4.88,4.77,13.65,13.65,0,0,0-1.14-1.9,13.89,13.89,0,0,0,3.86-3.72Zm3-.74h2.22v9.05c0,3.43-.44,6.82-3.31,8.7a9.49,9.49,0,0,0-1.57-1.6,5.61,5.61,0,0,0,2.24-3.29c-.72.23-1.44.46-2.11.65l-.76-2.2c.86-.12,2-.33,3.23-.55,0-.57.06-1.16.06-1.73v-.15h-2.53v-2H810v-2h-2.66v-2H810Zm8.85,12.92h-3v4.66h-2.24V681.75h2.24v2.84h2.83v2h-2.83v2h2.66v2h-2.66v2h3Z"/><path d="M818.24,703.22v16.27H816v-.9h-6.74v1h-2.11V707.21a24.38,24.38,0,0,1-1.56,2.34v10.24h-2.2v-7.73c-.46.45-.92.89-1.35,1.25A14.93,14.93,0,0,0,801,711a16.8,16.8,0,0,0,4.33-4.83l1.85.74v-3.67ZM807,703a20.52,20.52,0,0,1-4.69,4.79,10.73,10.73,0,0,0-1.15-1.92,12.93,12.93,0,0,0,3.67-3.71Zm9,13.49v-11.1h-6.74v11.1Zm-1-9.18v7.16h-4.81v-7.16Zm-1.77,1.82h-1.34v3.52h1.34Z"/><path d="M807.92,741.11c1.46-.55,2.28-1.5,2.28-2.61H810a1.64,1.64,0,0,1-1.75-1.65,1.68,1.68,0,0,1,1.8-1.65c1.3,0,2,1,2,2.75a4.79,4.79,0,0,1-3.59,4.68Z"/><path d="M811.75,761.82c1.25,3.7,3.55,6.69,7.1,8.13a9.09,9.09,0,0,0-1.67,2.13c-3.44-1.62-5.64-4.39-7.13-8.06a13,13,0,0,1-7.1,8.08,6.65,6.65,0,0,0-1.69-1.92,11.42,11.42,0,0,0,6.9-8.36h-6.54v-2.34h6.92c.18-1.78.17-3.51.18-5.07h2.47a50.14,50.14,0,0,1-.22,5.07h7.46v2.34Z"/><path d="M818.6,784.14c-2.67,5.78-8.91,7.77-16.14,8.46a9.1,9.1,0,0,0-.92-2.19,31.16,31.16,0,0,0,8.23-1.5,25.59,25.59,0,0,0-2-1.76,19.6,19.6,0,0,1-2.45,1,7.15,7.15,0,0,0-1.38-1.75,16,16,0,0,0,8-4.92l2.45.57c-.38.44-.74.86-1.16,1.28h3.4l.42-.12Zm-2.5-7c-2.45,4.37-7.85,6.73-13.32,7.75a8.26,8.26,0,0,0-1-2,26.7,26.7,0,0,0,5.61-1.44,22.59,22.59,0,0,0-1.86-1.71c-.55.3-1.12.58-1.73.85a7,7,0,0,0-1.54-1.61,16.3,16.3,0,0,0,6.59-4.24l2.43.57c-.32.34-.66.68-1,1h4l.39-.1Zm-8.32,1.2-.56.38a15,15,0,0,1,2.15,1.84,12.41,12.41,0,0,0,3.14-2.22Zm3.05,7-1.1.74A17.67,17.67,0,0,1,812,788a10,10,0,0,0,3.2-2.62Z"/><path d="M817.6,800.67a26,26,0,0,1-1.64,7.17,8.13,8.13,0,0,0,3,3.36,6,6,0,0,0-1.27,1.54,9.13,9.13,0,0,1-2.75-3,11,11,0,0,1-3.4,3.36,8.2,8.2,0,0,0-.86-1.37l-1.21,1a20.06,20.06,0,0,0-2.46-1.32,19.3,19.3,0,0,1-5.31,1.41,6.39,6.39,0,0,0-.82-1.44,23,23,0,0,0,4-.86c-.86-.34-1.73-.64-2.53-.87a10.51,10.51,0,0,0,.84-1.1l-1.71.09-.17-1.5,2.92-.13a11.77,11.77,0,0,0,.67-1.18h-2.8v-3.44h3.4v-.53h-2.88v-2h-1.45v-1.6h1.45V796.4h2.88v-1.16h1.71v1.16h3.06v1.92h1.29v1.6h-1.29v2h-3.06v.53h3.48v1.39c1.25-2,1.88-5.26,2.22-8.53l1.9.24c-.13,1.07-.28,2.13-.49,3.16h4.5v2ZM804,804.51h1.55v-.7H804Zm.53-6.68v.6h1v-.6Zm1,2.65v-.68h-1v.68ZM805,809c.63.2,1.27.43,1.9.68a3.32,3.32,0,0,0,1.33-1.35l-2.89.15Zm5.17-.78a4,4,0,0,1-1.45,2.24c.69.3,1.3.61,1.83.87a8.39,8.39,0,0,0,3.38-3.63,26,26,0,0,1-1.12-3.78,10.07,10.07,0,0,1-.72,1.39,13,13,0,0,0-1.39-1.39v2h-3.8c-.19.36-.4.72-.61,1.1l2.23-.11v-.67h1.76v.59l.61,0,0,1.43Zm-2.95-10.39v.6h1.11v-.6Zm1.11,2.65v-.68h-1.11v.68Zm-1.11,3.33v.7h1.52v-.7Zm6.69-3.14a31.3,31.3,0,0,0,1,4.56,24.81,24.81,0,0,0,.82-4.56Z"/><path d="M817.48,821.19a21.14,21.14,0,0,1-2.09,7,9,9,0,0,0,3.75,3.16,8.63,8.63,0,0,0-1.56,1.94,10.31,10.31,0,0,1-3.55-3.06,12.37,12.37,0,0,1-4,3.21,9,9,0,0,0-1.26-2,10,10,0,0,0,4.07-3.25,21.14,21.14,0,0,1-1.42-3.91,11.47,11.47,0,0,1-1,1.56,14.59,14.59,0,0,0-1.33-1.46c-.09,5.28-.19,7.33-.66,8a1.81,1.81,0,0,1-1.28.84,13.32,13.32,0,0,1-2,.08,5.79,5.79,0,0,0-.59-2.06c.61,0,1.16.06,1.46.06a.58.58,0,0,0,.54-.28c.24-.42.36-2,.43-6.46h-1.59c0,3-.44,6.15-2.8,8.75a7.88,7.88,0,0,0-1.65-1.48c2-2.35,2.32-5.07,2.32-7.52v-3.67H801.3v-2.09H805a18.43,18.43,0,0,0-.78-2.47l2-.47a22.69,22.69,0,0,1,.91,2.49l-1.56.45h4.15v2.09h-4.39v1.86h3.76s0,.65,0,.92v.15a18.81,18.81,0,0,0,2.72-7.9L814,816c-.17,1-.38,2.09-.64,3.07h5.51v2.09Zm-4.75.08a23.17,23.17,0,0,0,1.35,4.58,19.58,19.58,0,0,0,1.18-4.66h-2.49Z"/><path d="M810.83,839.76v3l.38-.44a42.48,42.48,0,0,1,6.48,3.84L816,848.21a38.07,38.07,0,0,0-5.19-3.46v9H808.4v-14h-6.86v-2.28h16.93v2.28Z"/><path d="M818.39,859.44s0,.76,0,1c-.25,8.49-.46,11.51-1.24,12.52a2.52,2.52,0,0,1-1.82,1,20.3,20.3,0,0,1-3,0,5.14,5.14,0,0,0-.74-2.2c1.22.11,2.34.11,2.83.11a1,1,0,0,0,.84-.32c.55-.61.8-3.46,1-10.17H812.2a16.28,16.28,0,0,1-1.67,3,13,13,0,0,0-1.46-1.07v8.87H804v1.39h-2V859.57h2.15a20.46,20.46,0,0,0,.55-3.05l2.47.34c-.32.95-.66,1.9-1,2.71h3v3.08a19.59,19.59,0,0,0,2.56-6.11l2.15.49a23.07,23.07,0,0,1-.74,2.41ZM807,861.55h-3v3.08h3Zm0,8.76v-3.73h-3v3.73Zm6.31-1a40.77,40.77,0,0,0-2.64-4.39l1.77-1a46.08,46.08,0,0,1,2.79,4.21Z"/><path d="M804.05,885.62a12.5,12.5,0,0,0-3-1.82l1.23-1.65a11,11,0,0,1,3,1.65Zm-2.64,7.7a59.08,59.08,0,0,0,2.45-6.1l1.83,1.18c-.63,2-1.47,4.21-2.25,6.08Zm11.78-10.11v.91h5.17v8.63c0,.89-.16,1.31-.72,1.59a5.61,5.61,0,0,1-2.44.31,5.89,5.89,0,0,0-.49-1.66c.59,0,1.22,0,1.4,0s.27,0,.27-.24v-1.26a4.19,4.19,0,0,0-.63.65,4.41,4.41,0,0,1-.83-1.65,4.06,4.06,0,0,1-1.18,1.71,3.12,3.12,0,0,0-.55-.67v3h-2v-3a4.48,4.48,0,0,0-.53.57,5,5,0,0,1-.8-1.58,4,4,0,0,1-1.14,1.81,4.19,4.19,0,0,0-.6-.71v3h-1.92V884.12h5v-.91h-2.67v-3H806v-1.2l-1.2,1.63a11.77,11.77,0,0,0-2.94-1.91l1.27-1.68a14.24,14.24,0,0,1,2.87,1.66v-.46h2.59v-1.35h2.1v1.35h3.25v-1.35h2.21v1.35h2.6v2h-2.6v3Zm-2.7,3.42a9.84,9.84,0,0,0,.72,4V886h-3.07v5.25a4.76,4.76,0,0,0,1-2.78h.4l0-.45h-.86v-1.39Zm.15-5.3h3.25v-1.08h-3.25Zm2.55,4.67v5a4.41,4.41,0,0,0,.95-2.55h.4l0-.45h-.87v-1.39h1.88a8.8,8.8,0,0,0,.87,4.18V886Z"/><path d="M816.44,912.22c0,1.37-.33,2-1.2,2.4a11.72,11.72,0,0,1-4.2.43,9.56,9.56,0,0,0-.95-2.37c1.33.07,2.93.06,3.35.06s.6-.16.6-.56v-2.75h-8.13a10.16,10.16,0,0,1-3.21,5.68,8.68,8.68,0,0,0-1.74-1.63c2.86-2.45,3.13-6.08,3.13-9v-6.25h12.35Zm-2.4-5v-2.32h-7.61c0,.72-.06,1.52-.14,2.32Zm-7.61-6.79v2.32H814v-2.32Z"/><path d="M819,919.79c-.68,1.82-1.52,4-2.3,5.64a6.06,6.06,0,0,1,1.94,4.4c0,1.43-.3,2.36-1.06,2.85a2.88,2.88,0,0,1-1.33.52,11.06,11.06,0,0,1-1.65,0A5.57,5.57,0,0,0,814,931a8.37,8.37,0,0,0,1.19,0,1.58,1.58,0,0,0,.76-.17c.36-.21.5-.67.5-1.29a5.48,5.48,0,0,0-2-3.9c.55-1.36,1.2-3.28,1.67-4.75h-2.41v14.56h-2.22V919.25a22.57,22.57,0,0,1-2,4h1.41v2h-2.83c-.4.49-.8.93-1.22,1.38h3.42v8.57h-2.14v-.72h-3.06v1H803v-5.76c-.33.21-.65.4-.95.57a12.16,12.16,0,0,0-1.32-1.88,17.62,17.62,0,0,0,4.55-3.13h-4v-2h3.3v-1.56h-2.48V919.8h2.48V918h2.09v1.84h2v1a17,17,0,0,0,.93-2.12l2,.55v-.36H817l.34-.08Zm-10.84,8.66h-3.06v1.21h3.06Zm0,4.25v-1.34h-3.06v1.34ZM807,923.3q.54-.74,1.05-1.56h-1.43v1.56Z"/><path d="M811.35,953.51c.49,0,1,.06,1.52.06,1.06,0,4.71,0,6.06-.06a7.37,7.37,0,0,0-.76,2.16h-5.42c-3.47,0-5.83-.49-7.43-2.69a8.54,8.54,0,0,1-2.65,3,9.27,9.27,0,0,0-1.71-1.58,8.06,8.06,0,0,0,3.53-5.76l2.26.35c-.13.6-.29,1.17-.44,1.73a4.18,4.18,0,0,0,2.74,2.37v-4.83h-7.41v-2h16.75v2h-7v1.43h5.85v2h-5.85Zm5.24-8.06h-13.2v-6.59h13.2Zm-2.3-5h-8.7v1h8.7Zm0,2.45h-8.7v1h8.7Z"/><path d="M807.59,964.34a18.83,18.83,0,0,1-1.28,6.78,23.88,23.88,0,0,1,2.23,2.38l-1.32,1.84a29.4,29.4,0,0,0-1.93-2.26,12.93,12.93,0,0,1-2.87,3.15,6.74,6.74,0,0,0-1.45-1.42,11.68,11.68,0,0,0,2.89-3.19c-.85-.9-1.75-1.73-2.51-2.47a44.5,44.5,0,0,0,.92-4.45l-1,.06-.21-2,1.5-.06c.19-1.35.32-2.7.4-3.9l2,.08c-.09,1.16-.24,2.45-.41,3.7l1.16,0v-1.2h1.9v1.1l.93,0v1.91Zm-2.82,5.32a16.07,16.07,0,0,0,.9-5.19l-1.45.12c-.23,1.37-.49,2.68-.76,3.87Zm11,4.44c.9,0,1.07-.43,1.2-2.39a7,7,0,0,0,1.94.82c-.29,2.68-.93,3.63-2.95,3.63h-3.63c-2.35,0-3-.67-3-3.25v-5.55l-1,.34-.55-2.11,1.52-.49v-4.73h2.05v4l1.42-.48v-5h2v4.37l1.71-.57.4-.29,1.69.55-.08.34a62.41,62.41,0,0,1-.78,8.17l-1.82-.51c.19-1.5.32-3.84.38-6l-1.5.51v6.14h-2v-5.46l-1.42.5v6.27c0,1,.15,1.17,1.17,1.17Z"/><path d="M818.39,982s0,.76,0,1c-.25,8.49-.46,11.51-1.24,12.52a2.52,2.52,0,0,1-1.82,1,20.3,20.3,0,0,1-3,0,5.14,5.14,0,0,0-.74-2.2c1.22.11,2.34.11,2.83.11a1,1,0,0,0,.84-.32c.55-.61.8-3.46,1-10.17H812.2a16.28,16.28,0,0,1-1.67,3,13,13,0,0,0-1.46-1.07v8.87H804v1.39h-2V982.12h2.15a20.23,20.23,0,0,0,.55-3l2.47.34c-.32,1-.66,1.9-1,2.71h3v3.08a19.59,19.59,0,0,0,2.56-6.11l2.15.49A23.07,23.07,0,0,1,813,982ZM807,984.1h-3v3.08h3Zm0,8.76v-3.73h-3v3.73Zm6.31-1a40.77,40.77,0,0,0-2.64-4.39l1.77-1a44.8,44.8,0,0,1,2.79,4.22Z"/><path d="M807.92,1018.11c1.46-.55,2.28-1.5,2.28-2.6H810a1.65,1.65,0,0,1-1.75-1.66,1.68,1.68,0,0,1,1.8-1.65c1.3,0,2,1,2,2.76a4.79,4.79,0,0,1-3.59,4.67Z"/><path d="M807.49,1032.17a29.28,29.28,0,0,1-1.86,3.93v13h-2.22v-9.64c-.44.56-.88,1.07-1.31,1.52a15.34,15.34,0,0,0-1.24-2.46,20,20,0,0,0,4.45-7.07Zm11.44,14.23v2.11H806.56v-2.11Zm-1.37-1.86h-9.67v-11.93h9.67Zm-2.47-9.84h-4.86v2.77h4.86Zm0,4.86h-4.86v2.89h4.86Z"/><path d="M811.75,1059.24c1.25,3.71,3.55,6.69,7.1,8.14a9,9,0,0,0-1.67,2.12c-3.44-1.61-5.64-4.39-7.13-8a13,13,0,0,1-7.1,8.07,6.92,6.92,0,0,0-1.69-1.92,11.4,11.4,0,0,0,6.9-8.36h-6.54v-2.33h6.92c.18-1.79.17-3.52.18-5.07h2.47a50.38,50.38,0,0,1-.22,5.07h7.46v2.33Z"/><path d="M818.6,1081.57c-2.67,5.77-8.91,7.77-16.14,8.45a9.2,9.2,0,0,0-.92-2.18,31.57,31.57,0,0,0,8.23-1.5,25.61,25.61,0,0,0-2-1.77,21.23,21.23,0,0,1-2.45,1,7,7,0,0,0-1.38-1.75,16.14,16.14,0,0,0,8-4.92l2.45.57c-.38.43-.74.85-1.16,1.27h3.4l.42-.11Zm-2.5-7c-2.45,4.37-7.85,6.72-13.32,7.75a8.51,8.51,0,0,0-1-2,26.1,26.1,0,0,0,5.61-1.44,24.5,24.5,0,0,0-1.86-1.71c-.55.3-1.12.59-1.73.86a6.8,6.8,0,0,0-1.54-1.62,16.2,16.2,0,0,0,6.59-4.24l2.43.57c-.32.35-.66.69-1,1h4l.39-.09Zm-8.32,1.19c-.18.14-.37.25-.56.39a14.41,14.41,0,0,1,2.15,1.84,12.69,12.69,0,0,0,3.14-2.23Zm3.05,7-1.1.74a17.67,17.67,0,0,1,2.22,1.88,10.29,10.29,0,0,0,3.2-2.62Z"/><path d="M817.6,1098.1a25.88,25.88,0,0,1-1.64,7.16,8.07,8.07,0,0,0,3,3.36,6.37,6.37,0,0,0-1.27,1.54,9,9,0,0,1-2.75-3,10.91,10.91,0,0,1-3.4,3.36,7.78,7.78,0,0,0-.86-1.36l-1.21,1a20.13,20.13,0,0,0-2.46-1.31,20,20,0,0,1-5.31,1.41,6.46,6.46,0,0,0-.82-1.45,23.07,23.07,0,0,0,4-.85c-.86-.34-1.73-.65-2.53-.88a8.76,8.76,0,0,0,.84-1.1l-1.71.1-.17-1.5,2.92-.14a11.77,11.77,0,0,0,.67-1.18h-2.8v-3.43h3.4v-.54h-2.88v-2h-1.45v-1.6h1.45v-1.91h2.88v-1.16h1.71v1.16h3.06v1.91h1.29v1.6h-1.29v2h-3.06v.54h3.48v1.38c1.25-2,1.88-5.26,2.22-8.53l1.9.25c-.13,1.06-.28,2.13-.49,3.15h4.5v2ZM804,1101.94h1.55v-.71H804Zm.53-6.69v.61h1v-.61Zm1,2.66v-.68h-1v.68Zm-.51,8.51c.63.21,1.27.44,1.9.68a3.26,3.26,0,0,0,1.33-1.35l-2.89.16Zm5.17-.78a4,4,0,0,1-1.45,2.24c.69.31,1.3.61,1.83.88a8.45,8.45,0,0,0,3.38-3.63,26,26,0,0,1-1.12-3.78,9.94,9.94,0,0,1-.72,1.38,12.1,12.1,0,0,0-1.39-1.38v2h-3.8c-.19.37-.4.73-.61,1.11l2.23-.12v-.66h1.76v.59l.61,0,0,1.42Zm-2.95-10.39v.61h1.11v-.61Zm1.11,2.66v-.68h-1.11v.68Zm-1.11,3.32v.71h1.52v-.71Zm6.69-3.13a31.87,31.87,0,0,0,1,4.56,25,25,0,0,0,.82-4.56Z"/><path d="M819,1115.09c-.68,1.82-1.52,4-2.3,5.64a6.07,6.07,0,0,1,1.94,4.41c0,1.42-.3,2.35-1.06,2.85a3,3,0,0,1-1.33.51,8.89,8.89,0,0,1-1.65,0,5.57,5.57,0,0,0-.57-2.19,8.37,8.37,0,0,0,1.19,0,1.58,1.58,0,0,0,.76-.17c.36-.21.5-.66.5-1.29a5.48,5.48,0,0,0-2-3.9c.55-1.36,1.2-3.28,1.67-4.75h-2.41v14.56h-2.22v-16.27a22.57,22.57,0,0,1-2,4h1.41v2h-2.83c-.4.49-.8.93-1.22,1.38h3.42v8.57h-2.14v-.72h-3.06v1H803V1125c-.33.21-.65.4-.95.57a12.16,12.16,0,0,0-1.32-1.88,17.62,17.62,0,0,0,4.55-3.13h-4v-2h3.3V1117h-2.48v-1.93h2.48v-1.85h2.09v1.85h2v1a17,17,0,0,0,.93-2.12l2,.55v-.36H817l.34-.08Zm-10.84,8.66h-3.06V1125h3.06Zm0,4.25v-1.34h-3.06V1128Zm-1.11-9.4q.54-.74,1.05-1.56h-1.43v1.56Z"/><path d="M811.35,1148.81c.49,0,1,.06,1.52.06,1.06,0,4.71,0,6.06-.06a7.33,7.33,0,0,0-.76,2.17h-5.42c-3.47,0-5.83-.5-7.43-2.7a8.54,8.54,0,0,1-2.65,3,9.27,9.27,0,0,0-1.71-1.58,8.06,8.06,0,0,0,3.53-5.76l2.26.35c-.13.61-.29,1.18-.44,1.73a4.18,4.18,0,0,0,2.74,2.37v-4.83h-7.41v-2h16.75v2h-7V1145h5.85v2h-5.85Zm5.24-8.06h-13.2v-6.59h13.2Zm-2.3-5h-8.7v1h8.7Zm0,2.45h-8.7v1h8.7Z"/><path d="M817.94,1163a19.15,19.15,0,0,1-3.15,4.16c.51,1.46,1.1,2.33,1.67,2.33.4,0,.62-.91.72-3.15a5.78,5.78,0,0,0,1.86,1.29c-.36,3.33-1.06,4.16-2.79,4.16-1.39,0-2.45-1.14-3.27-3a20.11,20.11,0,0,1-3.51,2.32,10.59,10.59,0,0,0-1.5-1.83,19.24,19.24,0,0,0,4.23-2.67,35.35,35.35,0,0,1-1-5.1h-3.85v2.17l2.92-.53.17,2.05-3.09.63V1169c0,1.23-.27,1.84-1,2.2a8.32,8.32,0,0,1-3.42.44,8.51,8.51,0,0,0-.8-2.28c1.07,0,2.17,0,2.51,0s.46-.1.46-.4v-2.76c-1.22.25-2.4.5-3.4.69l-.56-2.28c1.09-.17,2.46-.38,4-.65v-2.55h-3.59v-2.14h3.59v-2.17c-1,.17-2.07.31-3,.42a8.71,8.71,0,0,0-.65-1.9,47.77,47.77,0,0,0,7.54-1.6l1.52,1.92c-1,.29-2,.54-3.09.76v2.57H811c-.15-1.71-.21-3.48-.22-5.21h2.37a46.85,46.85,0,0,0,.19,5.21h5.17v2.14h-4.94c.15,1.14.34,2.25.55,3.21a15.52,15.52,0,0,0,1.8-2.58Zm-1.39-4.18a14.67,14.67,0,0,0-2.7-3.14l1.71-1.16a17,17,0,0,1,2.82,3Z"/><path d="M816.89,1185.56a25.65,25.65,0,0,0-2.45-2.21,7.86,7.86,0,0,1-1.27,1.64,9.74,9.74,0,0,0-1.48-1,16.67,16.67,0,0,0,7.26,5.3,9.89,9.89,0,0,0-1.68,2.07,18.36,18.36,0,0,1-6.15-4.81v5.53h-2.38v-5.41a18.43,18.43,0,0,1-6.09,4.69,14,14,0,0,0-1.6-1.94,16.77,16.77,0,0,0,7.69-6.12v-4.39h-6.91v-2.22h6.91v-2.33h2.38v2.33h7.16v2.22h-7.16v4.26l.28.44a8.49,8.49,0,0,0,2.4-4.58l2.2.4a16.52,16.52,0,0,1-.63,2c1.09.84,2.4,1.84,3.1,2.49Zm-9.78-6.08a20.51,20.51,0,0,1-.68,2c.68.59,1.4,1.21,1.84,1.67l-1.52,1.58a16.11,16.11,0,0,0-1.27-1.33,10.21,10.21,0,0,1-2.19,2.6,12.87,12.87,0,0,0-1.75-1.48,9.21,9.21,0,0,0,3.37-5.51Z"/><path d="M816,1200.85a30.51,30.51,0,0,1,2.93,2.38l-1.47,1.42a27.48,27.48,0,0,0-3.34-2.9,7.49,7.49,0,0,1-2.7,2.54h4.92v8.17H814v-.53h-8.22v.61h-2.21v-8c-.32.23-.68.46-1,.67a7.93,7.93,0,0,0-1.48-1.54,6.24,6.24,0,0,0,3-2.78h-2.66v-1.78h3.23a8.42,8.42,0,0,0,.09-1.09H802.1v-1.71h2.69v-1.48h2.15v1.48h2.28V1198h-2.28a10.37,10.37,0,0,1-.08,1.09h2.59v1.78h-2.51c.84.63,1.8,1.33,2.36,1.77l-1.45,1.52a26,26,0,0,0-2.13-1.81,7.81,7.81,0,0,1-1.84,2h6.59a6.76,6.76,0,0,0-1.17-1.21,5.36,5.36,0,0,0,2.9-2.23H810v-1.78h2.79a6.22,6.22,0,0,0,.07-1V1198h-2.58v-1.71h2.58v-1.48h2.17v1.48h2.85V1198h-2.85v.1a8.61,8.61,0,0,1-.06,1h3.56v1.78Zm-2,5.32h-8.22v1.08H814Zm0,3.88v-1.18h-8.22v1.18Z"/><path d="M807.59,1220.92a18.87,18.87,0,0,1-1.28,6.78,23.91,23.91,0,0,1,2.23,2.37l-1.32,1.85a27.61,27.61,0,0,0-1.93-2.26,12.93,12.93,0,0,1-2.87,3.15,7,7,0,0,0-1.45-1.43,11.54,11.54,0,0,0,2.89-3.19c-.85-.89-1.75-1.73-2.51-2.47a43.67,43.67,0,0,0,.92-4.44l-1,0-.21-2,1.5-.06c.19-1.34.32-2.69.4-3.89l2,.08c-.09,1.15-.24,2.45-.41,3.7l1.16-.06v-1.19h1.9v1.1l.93-.06v1.92Zm-2.82,5.32a16.07,16.07,0,0,0,.9-5.19l-1.45.11c-.23,1.37-.49,2.68-.76,3.88Zm11,4.44c.9,0,1.07-.44,1.2-2.39a6.69,6.69,0,0,0,1.94.81c-.29,2.68-.93,3.63-2.95,3.63h-3.63c-2.35,0-3-.66-3-3.25v-5.54l-1,.34-.55-2.11,1.52-.49V1217h2.05v4l1.42-.47v-5h2v4.37l1.71-.57.4-.28,1.69.55-.08.34a62.41,62.41,0,0,1-.78,8.17l-1.82-.51c.19-1.5.32-3.84.38-6l-1.5.52v6.13h-2v-5.45l-1.42.49v6.27c0,1,.15,1.18,1.17,1.18Z"/><path d="M811.67,1236.15l-.3.31a24.55,24.55,0,0,0,7.59,2.7,8.28,8.28,0,0,0-1.27,1.67,26.51,26.51,0,0,1-3.3-1v.5h-8.67v-.54a33.34,33.34,0,0,1-3.42,1.11,7.74,7.74,0,0,0-1.19-1.6c3.53-.85,7-2.24,8.75-4Zm-.55,13.07h7.29v1.54h-7.29v.63c0,1-.25,1.46-1,1.73a10.22,10.22,0,0,1-3.23.26,6.16,6.16,0,0,0-.72-1.72c.91,0,2,0,2.3,0s.42-.09.42-.36v-.57H801.6v-1.54h7.28v-.7h-6.12V1247h6.12v-.66c-1.81.07-3.65.09-5.36.07a5.08,5.08,0,0,0-.38-1.37,79.7,79.7,0,0,0,11.89-.62l1.47,1.23a47.61,47.61,0,0,1-5.38.57v.78h6.25v1.52h-6.25Zm4.86-4.88H804v-3.42h12Zm-2.24-2.11h-7.62v.78h7.62Zm-1.29-3.24a27.29,27.29,0,0,1-2.49-1.39,20.86,20.86,0,0,1-2.43,1.39Z"/><path d="M807.09,1270.75a12.34,12.34,0,0,0,3.8.42c1.44,0,6.48,0,8.19-.08a8,8,0,0,0-.86,2.24h-7.33c-3.51,0-5.77-.47-7.28-2.6a13.16,13.16,0,0,1-.87,3.35,18.81,18.81,0,0,0-1.9-1c.93-1.92,1.12-5.09,1.16-8.34l2.07.15c0,.83-.06,1.67-.09,2.45a5.84,5.84,0,0,0,1,2v-5.71h-3.68v-2h3.21v-1.77h-2.68v-2h2.68v-1.85h2.12V1258h2.53v2h-2.53v1.77h3v2h-2.57v2h2.41v2h-2.41Zm6.18-.45c-2.13,0-2.82-.65-2.82-3.06v-10.43h7.34V1264h-5.15v3.21c0,.87.11,1,.91,1H816c.72,0,.86-.43,1-2.45a6.57,6.57,0,0,0,2,.88c-.25,2.69-.86,3.61-2.76,3.61Zm-.63-11.52v3.29h3v-3.29Z"/><path d="M806.48,1285.36a23,23,0,0,1-1.48,4.94c.31.19.67.46,1.16.76,1.31.78,3.1.9,5.32.9a63.25,63.25,0,0,0,7.69-.5,8.44,8.44,0,0,0-.66,2.32c-1.56.09-4.92.23-7.14.23-2.53,0-4.13-.21-5.49-1-.8-.44-1.49-1.06-1.87-1.06s-1.12,1.29-1.59,2.37l-1.5-2.15a8.84,8.84,0,0,1,2-1.82,17.87,17.87,0,0,0,1.1-3.29h-2.39c.44-1.12.93-2.64,1.37-4.12h-1.71v-2h4.44c-.4,1.33-.85,2.85-1.31,4.18h.78l.34-.08Zm-3.19-5c-.21-.86-.72-2.23-1-3.27l2-.61c.36,1,.86,2.3,1.12,3.15Zm5.59,10.75h-2v-8.26h1.41V1277h8.18v5.82h1.39v6.34c0,.89-.15,1.37-.74,1.67a5.36,5.36,0,0,1-2.36.31,5.69,5.69,0,0,0-.49-1.64h-2.85v.59h-1.61v-4.79h4.95v4.09h.78c.21,0,.27-.06.27-.25v-4.61h-7Zm1.4-8.26h1.07v-3h3.13v-1.16h-4.2Zm2.89,3.93h-1.71v1.33h1.71Zm1.31-5.51H813v1.58h1.5Z"/><path d="M807.09,1309.53a26,26,0,0,0-1.18-2.41v7.56h-2.14v-7.07a19.05,19.05,0,0,1-1.88,4.11,13.5,13.5,0,0,0-1-2.25,19,19,0,0,0,2.33-5.09h-2.09v-2.11h2.61V1300c-.61.11-1.22.22-1.79.3a7.14,7.14,0,0,0-.61-1.75,23.34,23.34,0,0,0,5.49-1.58l1.2,1.87a18.06,18.06,0,0,1-2.15.68v2.75H808v2.11h-2.13v.31c.5.55,2,2.52,2.38,3Zm11.63,2.76v2h-11v-2h4.58v-1.73h-3.61v-1.94h3.61v-1.54c-1,.08-2,.13-3,.17a6.69,6.69,0,0,0-.55-1.71,47.82,47.82,0,0,0,7.75-1l1.39,1.71c-1,.24-2.17.43-3.36.6v1.79H818v1.94h-3.4v1.73Zm-.91-8h-9v-6.54h9Zm-2.19-4.64h-4.73v2.74h4.73Z"/><path d="M807.92,1336c1.46-.55,2.28-1.5,2.28-2.6H810a1.65,1.65,0,0,1-1.75-1.66,1.68,1.68,0,0,1,1.8-1.65c1.3,0,2,1,2,2.76a4.79,4.79,0,0,1-3.59,4.67Z"/><path d="M807.59,1354.94a18.79,18.79,0,0,1-1.28,6.78,23.88,23.88,0,0,1,2.23,2.38l-1.32,1.84a29.4,29.4,0,0,0-1.93-2.26,12.75,12.75,0,0,1-2.87,3.15,7,7,0,0,0-1.45-1.42,11.68,11.68,0,0,0,2.89-3.19c-.85-.9-1.75-1.73-2.51-2.47a44.5,44.5,0,0,0,.92-4.45l-1,.06-.21-2,1.5-.06c.19-1.35.32-2.7.4-3.89l2,.07c-.09,1.16-.24,2.45-.41,3.71l1.16-.06v-1.2h1.9v1.1l.93,0v1.92Zm-2.82,5.32a16,16,0,0,0,.9-5.19l-1.45.12c-.23,1.37-.49,2.68-.76,3.87Zm11,4.45c.9,0,1.07-.44,1.2-2.4a6.45,6.45,0,0,0,1.94.82c-.29,2.68-.93,3.63-2.95,3.63h-3.63c-2.35,0-3-.67-3-3.25V1358l-1,.34-.55-2.1,1.52-.5V1351h2.05v4l1.42-.48v-5h2v4.37l1.71-.57.4-.29,1.69.55-.08.35a62.75,62.75,0,0,1-.78,8.17l-1.82-.52c.19-1.5.32-3.84.38-6l-1.5.51v6.14h-2v-5.45l-1.42.49v6.27c0,1,.15,1.18,1.17,1.18Z"/><path d="M817.75,1379.15v8.24H815.2v-1H802.15v-7.2h2.55v4.95h4v-6h-5.53v-6.9h2.39V1376h3.14v-6.3h2.5v6.3h3.27v-4.71H817v6.9h-5.78v6h4v-5Z"/><path d="M808.36,1403.16l-6.89,2-.57-2.13c.76-.17,1.69-.42,2.71-.69v-3.81h-2.1v-2.08h2.1v-3.3h-2.27v-2.09H808v2.09H805.8v3.3h2v2.08h-2v3.24l2.26-.62Zm8.44,2.64c.34,0,.42-.3.46-2.2a5.71,5.71,0,0,0,1.88.83c-.19,2.61-.69,3.31-2.09,3.31h-1.43c-1.75,0-2.13-.65-2.13-2.56v-3.73h-1.16c-.34,3.1-1.21,5.3-5.26,6.5a6.76,6.76,0,0,0-1.25-1.86c3.44-.86,4-2.42,4.29-4.64h-1.39v-10.64H818v10.64h-2.34v3.73c0,.55,0,.62.36.62Zm-6-12h5v-1.17h-5Zm0,2.89h5v-1.18h-5Zm0,2.89h5v-1.18h-5Z"/><path d="M818.39,1413.44s0,.76,0,1c-.25,8.49-.46,11.51-1.24,12.52a2.52,2.52,0,0,1-1.82,1,20.3,20.3,0,0,1-3,0,5.14,5.14,0,0,0-.74-2.2c1.22.11,2.34.11,2.83.11a1,1,0,0,0,.84-.32c.55-.61.8-3.46,1-10.16H812.2a16.51,16.51,0,0,1-1.67,3,13,13,0,0,0-1.46-1.07v8.87H804v1.39h-2v-14.11h2.15a20.58,20.58,0,0,0,.55-3.06l2.47.34c-.32,1-.66,1.9-1,2.72h3v3.07a19.59,19.59,0,0,0,2.56-6.11l2.15.49a22.36,22.36,0,0,1-.74,2.41ZM807,1415.55h-3v3.08h3Zm0,8.76v-3.72h-3v3.72Zm6.31-1a39.76,39.76,0,0,0-2.64-4.38l1.77-1a44.8,44.8,0,0,1,2.79,4.22Z"/><path d="M807.68,1445h-3.86v1.67h-2.09V1432.1h5.95Zm-3.86-10.9v3.34h1.75v-3.34Zm1.75,8.89v-3.58h-1.75V1443Zm8.95-8.06v1.81h3.76v2h-1.39v1.48h1.83v2h-1.83v4.14c0,1.09-.21,1.66-1,2a8.47,8.47,0,0,1-3.18.38,8.18,8.18,0,0,0-.7-2.13c.91,0,2,0,2.24,0s.4-.08.4-.34v-4.09H808v-2h6.65v-1.48h-6.06v-2h3.67V1435H808v-2h4.28v-2h2.22v2h4.27v2Zm-3.86,7.47a23.35,23.35,0,0,1,2.28,3l-2,1.16a27.08,27.08,0,0,0-2.19-3.2Z"/><path d="M806.58,1452a42,42,0,0,1-1.46,4v13.13H803V1460c-.3.46-.61.88-.91,1.26a15.16,15.16,0,0,0-1.1-2.43,22,22,0,0,0,3.53-7.36Zm1.46,13.32h-2v-10.16h2Zm6.54-1c-.55,1.73-2,3.5-5.46,4.77a9.15,9.15,0,0,0-1.5-1.65c2.81-.84,4-2,4.56-3.12h-3.57v-1.9h3.95v-1.8h-1.4a10.62,10.62,0,0,1-1.22,1.74,12.12,12.12,0,0,0-1.75-1.12,10.18,10.18,0,0,0,2.17-3.89h-1.79v-1.88h6.25c.08-.5.15-1,.23-1.5h-5.62v-1.86h6.08l.32-.1,1.6.19c-.12,1.08-.29,2.22-.48,3.27h1.82v1.88h-8.14l1.78.42c-.11.32-.23.64-.36,1h6.25v1.87h-3.46v1.8h4v1.9Zm1.12.13c1.06,1,2.64,2.34,3.45,3.2l-1.61,1.34c-.74-.85-2.26-2.31-3.38-3.36Z"/><path d="M819,1473.79c-.68,1.82-1.52,4-2.3,5.64a6.07,6.07,0,0,1,1.94,4.41c0,1.42-.3,2.35-1.06,2.85a3,3,0,0,1-1.33.51,8.89,8.89,0,0,1-1.65,0A5.57,5.57,0,0,0,814,1485a8.37,8.37,0,0,0,1.19,0,1.58,1.58,0,0,0,.76-.17c.36-.21.5-.66.5-1.29a5.48,5.48,0,0,0-2-3.9c.55-1.36,1.2-3.28,1.67-4.75h-2.41v14.56h-2.22v-16.27a22.57,22.57,0,0,1-2,4h1.41v2h-2.83c-.4.49-.8.93-1.22,1.38h3.42v8.57h-2.14v-.72h-3.06v1H803v-5.76c-.33.21-.65.4-.95.57a12.16,12.16,0,0,0-1.32-1.88,17.62,17.62,0,0,0,4.55-3.13h-4v-2h3.3v-1.56h-2.48v-1.93h2.48V1472h2.09v1.85h2v1a17,17,0,0,0,.93-2.12l2,.55v-.36H817l.34-.08Zm-10.84,8.66h-3.06v1.22h3.06Zm0,4.26v-1.35h-3.06v1.35ZM807,1477.3q.54-.73,1.05-1.56h-1.43v1.56Z"/><path d="M811.35,1507.51c.49,0,1,.06,1.52.06,1.06,0,4.71,0,6.06-.06a7.33,7.33,0,0,0-.76,2.17h-5.42c-3.47,0-5.83-.5-7.43-2.7a8.54,8.54,0,0,1-2.65,3,9.27,9.27,0,0,0-1.71-1.58,8.06,8.06,0,0,0,3.53-5.75l2.26.34c-.13.61-.29,1.18-.44,1.73a4.18,4.18,0,0,0,2.74,2.37v-4.82h-7.41v-2h16.75v2h-7v1.42h5.85v2h-5.85Zm5.24-8h-13.2v-6.6h13.2Zm-2.3-5h-8.7v1h8.7Zm0,2.45h-8.7v1h8.7Z"/><path d="M804.05,1521.32a13.19,13.19,0,0,0-3-1.82l1.23-1.65a11,11,0,0,1,3,1.65Zm-2.64,7.7a58.17,58.17,0,0,0,2.45-6.1l1.83,1.18c-.63,2-1.47,4.22-2.25,6.08Zm11.78-10.11v.91h5.17v8.63c0,.89-.16,1.31-.72,1.59a5.61,5.61,0,0,1-2.44.31,5.73,5.73,0,0,0-.49-1.65h1.4c.19,0,.27-.06.27-.25v-1.26a4.19,4.19,0,0,0-.63.65,4.41,4.41,0,0,1-.83-1.65,4.06,4.06,0,0,1-1.18,1.71,3.12,3.12,0,0,0-.55-.67v3h-2v-3a4.48,4.48,0,0,0-.53.57,5,5,0,0,1-.8-1.58,4,4,0,0,1-1.14,1.81,4.19,4.19,0,0,0-.6-.71v3h-1.92v-10.53h5v-.91h-2.67v-3H806v-1.2l-1.2,1.63a11.77,11.77,0,0,0-2.94-1.91l1.27-1.68a14.24,14.24,0,0,1,2.87,1.66V1514h2.59v-1.35h2.1V1514h3.25v-1.35h2.21V1514h2.6v2h-2.6v3Zm-2.7,3.42a9.84,9.84,0,0,0,.72,4v-4.62h-3.07V1527a4.76,4.76,0,0,0,1-2.78h.4l0-.45h-.86v-1.39Zm.15-5.3h3.25V1516h-3.25Zm2.55,4.67v5a4.36,4.36,0,0,0,.95-2.55h.4l0-.45h-.87v-1.39h1.88a8.8,8.8,0,0,0,.87,4.18v-4.81Z"/><path d="M816.44,1547.92c0,1.37-.33,2-1.2,2.4a11.5,11.5,0,0,1-4.2.43,9.71,9.71,0,0,0-.95-2.37c1.33.08,2.93.06,3.35.06s.6-.16.6-.55v-2.76h-8.13a10.16,10.16,0,0,1-3.21,5.68,9,9,0,0,0-1.74-1.63c2.86-2.45,3.13-6.08,3.13-9V1534h12.35Zm-2.4-5v-2.32h-7.61c0,.72-.06,1.52-.14,2.32Zm-7.61-6.79v2.32H814v-2.32Z"/><path d="M807.92,1572.11c1.46-.55,2.28-1.5,2.28-2.6H810a1.65,1.65,0,0,1-1.75-1.66,1.68,1.68,0,0,1,1.8-1.65c1.3,0,2,1,2,2.76a4.79,4.79,0,0,1-3.59,4.67Z"/><path d="M807.59,1591.09a18.79,18.79,0,0,1-1.28,6.78,23.88,23.88,0,0,1,2.23,2.38l-1.32,1.84a29.4,29.4,0,0,0-1.93-2.26,12.75,12.75,0,0,1-2.87,3.15,7,7,0,0,0-1.45-1.42,11.68,11.68,0,0,0,2.89-3.19c-.85-.9-1.75-1.73-2.51-2.47a44.5,44.5,0,0,0,.92-4.45l-1,.06-.21-2,1.5-.06c.19-1.35.32-2.7.4-3.89l2,.07c-.09,1.16-.24,2.45-.41,3.71l1.16-.06v-1.2h1.9v1.1l.93-.05V1591Zm-2.82,5.32a16,16,0,0,0,.9-5.19l-1.45.12c-.23,1.37-.49,2.68-.76,3.87Zm11,4.45c.9,0,1.07-.44,1.2-2.4a6.45,6.45,0,0,0,1.94.82c-.29,2.68-.93,3.63-2.95,3.63h-3.63c-2.35,0-3-.67-3-3.25v-5.55l-1,.34-.55-2.1,1.52-.5v-4.73h2.05v4l1.42-.48v-5h2V1590l1.71-.57.4-.29,1.69.56-.08.34a62.75,62.75,0,0,1-.78,8.17l-1.82-.52c.19-1.5.32-3.83.38-6l-1.5.51v6.14h-2v-5.45l-1.42.49v6.27c0,1,.15,1.18,1.17,1.18Z"/><path d="M818.66,1616.46v1.71H801.32v-1.71h4.35a7,7,0,0,0-.44-1l.8-.19h-1.94v-3.76h12v3.76H815a12.69,12.69,0,0,1-.76,1.18Zm-9.88-7.91H802v-1.61h6.82v-1.14h2.3v1.14h7v1.61h-7v.78h5.85v1.56H803.27v-1.56h5.51Zm-5.07,10.32H816.5v4.67h-2.34v-.49h-8.23v.51h-2.22Zm2.22,1.5v1.16h8.23v-1.16Zm.31-6.48h7.58v-1h-7.58Zm1.25,1.39a5.31,5.31,0,0,1,.53,1.18h3.92a9.83,9.83,0,0,0,.49-1.18Z"/><path d="M815.39,1633c0,.66,0,1.42-.07,2.22.59,3,1.73,5.74,3.72,7a6.89,6.89,0,0,0-1.42,1.9,10.11,10.11,0,0,1-3.08-4.88,12,12,0,0,1-2.89,4.9,6.77,6.77,0,0,0-1.27-1.31v.36h-6v.81h-1.72v-5.87a10.92,10.92,0,0,1-.73.86,3,3,0,0,1,1.47-5.28h-1.6v-3.61h3.93v3.61h-1.67l.93.32c-.13.3-.28.63-.43,1h1.71c-.14-.28-.27-.59-.42-.83l1.23-.46h-.57v-3.61h3.93v3.23a21.83,21.83,0,0,0,1.71-7.11l2.08.33c-.1.81-.23,1.61-.38,2.41h3.43l.31-.08,1.38.4a36.14,36.14,0,0,1-1.29,5.32l-1.63-.51c.23-.82.47-1.94.68-3.08H813.4a15.91,15.91,0,0,1-1.65,4.43A12.34,12.34,0,0,0,810,1634l.2-.34h-2.88A6.56,6.56,0,0,1,808,1635h2.53v1.5H808v.72h2.17v1.41H808v.8h2.32v1.4H808v.86h2.4v.64c2.79-3,3.06-6.85,3.06-9.4v-1.18h1.95Zm-12-4.14h-2.32v-1.6h2.32v-1h1.91v3.52h-1.91Zm-.33,3.76h1.28v-1.35h-1.28Zm3.08,3.91h-1.79v.72h1.79Zm0,2.13h-1.79v.8h1.79Zm-1.79,3.06h1.79v-.86h-1.79Zm4.49-11.91h-1.94v-3.52h1.94v1H811v1.6h-2.18Zm-1.07,2.77h1.28v-1.29h-1.28Z"/><path d="M815.6,1653.3a15.86,15.86,0,0,1-2.94,6c2.24,1.07,4.25,2.13,5.73,3l-1.76,2.17a65.53,65.53,0,0,0-5.87-3.32,19.84,19.84,0,0,1-8.13,3.21,8.53,8.53,0,0,0-1.35-2.21,19.25,19.25,0,0,0,6.93-2.26c-1.56-.74-3.17-1.46-4.77-2.09a46.8,46.8,0,0,0,2.17-4.46h-4v-2.43h5a44.65,44.65,0,0,0,1.37-4.33l2.43.34a39.54,39.54,0,0,1-1.18,4h4.47c.11-.59.22-1.2.32-1.87l2.43.58c-.08.43-.15.87-.23,1.29h2.34v2.43Zm-7.31,0c-.46,1.21-.95,2.37-1.41,3.38,1.14.49,2.3,1,3.4,1.48a11.77,11.77,0,0,0,2.72-4.86Z"/><path d="M818.58,1682.08v2.22H801.51v-2.22h7.33v-3.82h-5.15v-2.18h5.15v-3.34h-3.93a15.53,15.53,0,0,1-1.77,2.75,19.33,19.33,0,0,0-2-1.35,16.46,16.46,0,0,0,3.36-6.8l2.34.51c-.27.91-.57,1.81-.9,2.68h2.93v-3.42h2.37v3.42h6.41v2.21h-6.41v3.34h5.68v2.18h-5.68v3.82Z"/><path d="M812.64,1693.65a49.6,49.6,0,0,1,6.32,5.15l-1.91,1.73a44.66,44.66,0,0,0-5.82-5.15v9.84h-2.47V1696a22.83,22.83,0,0,1-6,4.68,13.44,13.44,0,0,0-1.56-2.06,19.88,19.88,0,0,0,8.19-7.46h-7.58v-2.32h16.47v2.32h-5.91a18.18,18.18,0,0,1-1.1,1.75v2Z"/><path d="M811.35,1723.24c.49,0,1,0,1.52,0,1.06,0,4.71,0,6.06,0a7.37,7.37,0,0,0-.76,2.16h-5.42c-3.47,0-5.83-.49-7.43-2.7a8.45,8.45,0,0,1-2.65,3,9.58,9.58,0,0,0-1.71-1.57,8.06,8.06,0,0,0,3.53-5.76l2.26.34c-.13.61-.29,1.18-.44,1.73a4.19,4.19,0,0,0,2.74,2.38V1718h-7.41v-2h16.75v2h-7v1.43h5.85v2h-5.85Zm5.24-8.06h-13.2v-6.59h13.2Zm-2.3-5h-8.7v1h8.7Zm0,2.45h-8.7v1h8.7Z"/><path d="M818.17,1729v17.12H816v-.85H804v.85h-2.08V1729ZM816,1743.41V1731H804v12.38Zm-5.07-7.16c0,.29-.08.55-.13.82a27.66,27.66,0,0,1,4.5,4.33l-1.58,1.39a30.46,30.46,0,0,0-3.53-3.77,7.34,7.34,0,0,1-4.07,4,6.55,6.55,0,0,0-1.34-1.8,6.06,6.06,0,0,0,4-5h-3.8v-2h4c.05-.78.07-1.6.09-2.49h2.2c0,.87-.05,1.69-.11,2.49h4v2Z"/><path d="M818.36,1759.87c-.33,3.68-.65,5.28-1.24,5.89a2,2,0,0,1-1.42.7,15.61,15.61,0,0,1-2.26,0,5,5,0,0,0-.61-2,14.11,14.11,0,0,0,1.84.1.82.82,0,0,0,.63-.21c.3-.3.55-1.25.78-3.42H804.77a10.23,10.23,0,0,1-1,.65l1.73.55a7.9,7.9,0,0,1-2.22,4.29l-1.77-1.12a6.86,6.86,0,0,0,2.06-3.59c-.46.29-.93.53-1.41.78a14.77,14.77,0,0,0-1.18-2,17.32,17.32,0,0,0,7.28-6.51h-6.1v-2h3.19a15,15,0,0,0-1.2-2.41l2-.76a12.62,12.62,0,0,1,1.46,2.77l-1,.4h2.76a21.44,21.44,0,0,0,1.31-3.25l2.26.63c-.32.89-.68,1.77-1.08,2.62h3.72c-.19,1.14-.47,2.43-.72,3.48h2.16c-.2,1.14-.45,2.47-.68,3.49h2ZM808,1762.13a13.25,13.25,0,0,1,.52,3.49l-2,.25a13.11,13.11,0,0,0-.38-3.51Zm.48-4.66a15.91,15.91,0,0,1-1.43,1.54h7.26c.11-.45.23-1,.34-1.54Zm2.33,4.32a15.44,15.44,0,0,1,.92,3.08l-1.81.45a16.16,16.16,0,0,0-.87-3.15Zm0-7.77c-.28.51-.59,1-.91,1.5h2.91c.11-.46.22-1,.32-1.5Zm2.11,10.31a11,11,0,0,0-1.12-2.56l1.56-.53a10,10,0,0,1,1.23,2.5Z"/><path d="M807.59,1774.92a18.87,18.87,0,0,1-1.28,6.78,23.91,23.91,0,0,1,2.23,2.37l-1.32,1.85a27.61,27.61,0,0,0-1.93-2.26,12.93,12.93,0,0,1-2.87,3.15,7,7,0,0,0-1.45-1.43,11.54,11.54,0,0,0,2.89-3.19c-.85-.89-1.75-1.73-2.51-2.47a43.67,43.67,0,0,0,.92-4.44l-1,0-.21-2,1.5,0c.19-1.35.32-2.7.4-3.9l2,.08c-.09,1.16-.24,2.45-.41,3.7l1.16-.06v-1.19h1.9v1.1l.93-.06v1.92Zm-2.82,5.32a16.07,16.07,0,0,0,.9-5.19l-1.45.11c-.23,1.37-.49,2.68-.76,3.88Zm11,4.44c.9,0,1.07-.43,1.2-2.39a6.69,6.69,0,0,0,1.94.81c-.29,2.68-.93,3.63-2.95,3.63h-3.63c-2.35,0-3-.66-3-3.25v-5.54l-1,.34-.55-2.11,1.52-.49V1771h2.05v4l1.42-.47v-5h2v4.37l1.71-.57.4-.28,1.69.55-.08.34a62.41,62.41,0,0,1-.78,8.17l-1.82-.51c.19-1.5.32-3.84.38-6l-1.5.52v6.13h-2v-5.45l-1.42.49v6.27c0,1,.15,1.18,1.17,1.18Z"/><path d="M808.25,1794.05a11.74,11.74,0,0,1-.76,1.5h8.83v9.39c0,1.12-.21,1.72-1,2.07a8.42,8.42,0,0,1-3.37.38,9.39,9.39,0,0,0-.68-2.19c1,.06,2.07.06,2.39.06s.44-.12.44-.38v-1.14H807a6.68,6.68,0,0,1-2.11,3.78,7.71,7.71,0,0,0-1.64-1.73c1.64-1.42,1.77-3.46,1.77-5.22V1799a15.48,15.48,0,0,1-2.35,2.07,13.23,13.23,0,0,0-1.49-1.75,14.33,14.33,0,0,0,4.56-5.3H801.6v-2.13h5.09a22.07,22.07,0,0,0,.76-2.3l2.34.54c-.19.58-.4,1.17-.61,1.76h9.27v2.13Zm5.87,7.81v-1.24H807.3c0,.4,0,.8,0,1.24Zm0-4.31H807.3v1.19h6.82Z"/><path d="M807.68,1824.14h-3.86v1.68h-2.09v-14.59h5.95Zm-3.86-10.9v3.34h1.75v-3.34Zm1.75,8.89v-3.57h-1.75v3.57Zm8.95-8.05v1.8h3.76v2h-1.39v1.48h1.83v2h-1.83v4.14c0,1.08-.21,1.65-1,2a8.27,8.27,0,0,1-3.18.38,8.3,8.3,0,0,0-.7-2.13c.91,0,2,0,2.24,0s.4-.07.4-.34v-4.08H808v-2h6.65v-1.48h-6.06v-2h3.67v-1.8H808v-2h4.28v-2h2.22v2h4.27v2Zm-3.86,7.46a24,24,0,0,1,2.28,3l-2,1.16a27,27,0,0,0-2.19-3.19Z"/><path d="M806.58,1831.16a42,42,0,0,1-1.46,3.95v13.13H803v-9.16c-.3.46-.61.87-.91,1.25a15.16,15.16,0,0,0-1.1-2.43,22,22,0,0,0,3.53-7.35Zm1.46,13.31h-2v-10.16h2Zm6.54-1c-.55,1.72-2,3.49-5.46,4.76a9.87,9.87,0,0,0-1.5-1.65c2.81-.83,4-2,4.56-3.11h-3.57v-1.9h3.95v-1.81h-1.4a10.73,10.73,0,0,1-1.22,1.75,11.32,11.32,0,0,0-1.75-1.12,10.15,10.15,0,0,0,2.17-3.9h-1.79v-1.88h6.25c.08-.49.15-1,.23-1.5h-5.62v-1.86h6.08l.32-.09,1.6.18c-.12,1.09-.29,2.23-.48,3.27h1.82v1.88h-8.14l1.78.42q-.17.48-.36,1h6.25v1.86h-3.46v1.81h4v1.9Zm1.12.13c1.06,1,2.64,2.33,3.45,3.19l-1.61,1.35c-.74-.86-2.26-2.32-3.38-3.36Z"/><path d="M812.64,1857.05a49.6,49.6,0,0,1,6.32,5.15l-1.91,1.73a45.41,45.41,0,0,0-5.82-5.15v9.84h-2.47v-9.27a22.62,22.62,0,0,1-6,4.68,13.44,13.44,0,0,0-1.56-2.06,19.81,19.81,0,0,0,8.19-7.46h-7.58v-2.32h16.47v2.32h-5.91a18.18,18.18,0,0,1-1.1,1.75v2Z"/><path d="M811.35,1886.64c.49,0,1,0,1.52,0,1.06,0,4.71,0,6.06,0a7.37,7.37,0,0,0-.76,2.16h-5.42c-3.47,0-5.83-.49-7.43-2.7a8.45,8.45,0,0,1-2.65,3,9.58,9.58,0,0,0-1.71-1.57,8.06,8.06,0,0,0,3.53-5.76l2.26.34c-.13.61-.29,1.18-.44,1.73a4.19,4.19,0,0,0,2.74,2.38v-4.83h-7.41v-2h16.75v2h-7v1.43h5.85v2h-5.85Zm5.24-8.06h-13.2V1872h13.2Zm-2.3-5h-8.7v1h8.7Zm0,2.45h-8.7v1h8.7Z"/><path d="M815.6,1898.4a15.86,15.86,0,0,1-2.94,6c2.24,1.07,4.25,2.13,5.73,3l-1.76,2.17a65.53,65.53,0,0,0-5.87-3.32,19.84,19.84,0,0,1-8.13,3.21,8.53,8.53,0,0,0-1.35-2.21,19.25,19.25,0,0,0,6.93-2.26c-1.56-.74-3.17-1.46-4.77-2.09a46.8,46.8,0,0,0,2.17-4.46h-4V1896h5a44,44,0,0,0,1.37-4.34l2.43.35a39.54,39.54,0,0,1-1.18,4h4.47c.11-.59.22-1.2.32-1.87l2.43.57c-.08.44-.15.88-.23,1.3h2.34v2.43Zm-7.31,0c-.46,1.21-.95,2.37-1.41,3.38,1.14.49,2.3,1,3.4,1.48a11.77,11.77,0,0,0,2.72-4.86Z"/><path d="M818.58,1927.18v2.22H801.51v-2.22h7.33v-3.82h-5.15v-2.18h5.15v-3.35h-3.93a15.28,15.28,0,0,1-1.77,2.76,17.88,17.88,0,0,0-2-1.35,16.46,16.46,0,0,0,3.36-6.8l2.34.51c-.27.91-.57,1.81-.9,2.68h2.93v-3.42h2.37v3.42h6.41v2.2h-6.41v3.35h5.68v2.18h-5.68v3.82Z"/><path d="M807.92,1951.23c1.46-.55,2.28-1.5,2.28-2.6H810a1.64,1.64,0,0,1-1.75-1.65,1.68,1.68,0,0,1,1.8-1.65c1.3,0,2,1,2,2.75a4.79,4.79,0,0,1-3.59,4.67Z"/><path d="M817.9,1971a24.2,24.2,0,0,1-3.23,6.74c.5,1.39,1.05,2.19,1.56,2.19s.61-1,.72-3.37a5.71,5.71,0,0,0,1.94,1.33c-.34,3.56-1.1,4.41-2.89,4.41-1.21,0-2.18-.93-3-2.47a18.51,18.51,0,0,1-3,2.59,15.29,15.29,0,0,0-1.77-1.73,14.57,14.57,0,0,0,1.71-1.2c-2.81.63-5.81,1.27-8.07,1.75l-.42-2.32c2.12-.36,5.41-1,8.45-1.61l.21,2a16,16,0,0,0,1.92-1.94,41.93,41.93,0,0,1-1.33-7.87h-9.18v-2.24h9.07c0-.93-.08-1.82-.08-2.73H813c0,.91,0,1.82,0,2.73h3a14.12,14.12,0,0,0-2.26-1.42l1.35-1.41a12.37,12.37,0,0,1,2.88,1.81l-1,1h1.41v2.24h-5.34a42.39,42.39,0,0,0,.74,5.21,22.34,22.34,0,0,0,1.79-4.29Zm-8.36-.25v6h-7.07v-6Zm-2.18,1.9h-2.83v2.19h2.83Z"/><path d="M807.59,1990.64a18.79,18.79,0,0,1-1.28,6.78,23.88,23.88,0,0,1,2.23,2.38l-1.32,1.84c-.47-.62-1.15-1.42-1.93-2.26a13,13,0,0,1-2.87,3.16,6.78,6.78,0,0,0-1.45-1.43,11.68,11.68,0,0,0,2.89-3.19c-.85-.89-1.75-1.73-2.51-2.47a43.92,43.92,0,0,0,.92-4.45l-1,.06-.21-2,1.5-.06c.19-1.35.32-2.7.4-3.89l2,.07c-.09,1.16-.24,2.45-.41,3.71l1.16-.06v-1.2h1.9v1.11l.93-.06v1.92Zm-2.82,5.32a16,16,0,0,0,.9-5.18l-1.45.11c-.23,1.37-.49,2.68-.76,3.87Zm11,4.45c.9,0,1.07-.44,1.2-2.4a6.45,6.45,0,0,0,1.94.82c-.29,2.68-.93,3.63-2.95,3.63h-3.63c-2.35,0-3-.67-3-3.25v-5.55l-1,.34-.55-2.1,1.52-.5v-4.73h2.05v4l1.42-.48v-5h2v4.37l1.71-.57.4-.28,1.69.55-.08.34a62.75,62.75,0,0,1-.78,8.17l-1.82-.52c.19-1.5.32-3.83.38-6l-1.5.51v6.14h-2v-5.45l-1.42.49v6.27c0,1,.15,1.18,1.17,1.18Z"/><path d="M812.64,2011.5a49.6,49.6,0,0,1,6.32,5.15l-1.91,1.73a45.41,45.41,0,0,0-5.82-5.15v9.84h-2.47v-9.27a22.62,22.62,0,0,1-6,4.68,13.44,13.44,0,0,0-1.56-2.06,19.81,19.81,0,0,0,8.19-7.46h-7.58v-2.32h16.47V2009h-5.91a18.18,18.18,0,0,1-1.1,1.75v2Z"/><path d="M811.35,2041.09c.49,0,1,.05,1.52.05,1.06,0,4.71,0,6.06-.05a7.37,7.37,0,0,0-.76,2.16h-5.42c-3.47,0-5.83-.49-7.43-2.7a8.45,8.45,0,0,1-2.65,3A9.58,9.58,0,0,0,801,2042a8.06,8.06,0,0,0,3.53-5.76l2.26.34c-.13.61-.29,1.18-.44,1.73a4.19,4.19,0,0,0,2.74,2.38v-4.83h-7.41v-2h16.75v2h-7v1.43h5.85v2h-5.85Zm5.24-8.06h-13.2v-6.59h13.2Zm-2.3-5h-8.7v1h8.7Zm0,2.45h-8.7v1h8.7Z"/><path d="M815.6,2052.85a15.86,15.86,0,0,1-2.94,6c2.24,1.07,4.25,2.13,5.73,3l-1.76,2.17a65.53,65.53,0,0,0-5.87-3.32,19.84,19.84,0,0,1-8.13,3.21,8.53,8.53,0,0,0-1.35-2.21,19.25,19.25,0,0,0,6.93-2.26c-1.56-.74-3.17-1.46-4.77-2.09a46.8,46.8,0,0,0,2.17-4.46h-4v-2.43h5a44,44,0,0,0,1.37-4.34l2.43.35a39.54,39.54,0,0,1-1.18,4h4.47c.11-.59.22-1.2.32-1.87l2.43.57c-.08.44-.15.88-.23,1.3h2.34v2.43Zm-7.31,0c-.46,1.21-.95,2.37-1.41,3.38,1.14.49,2.3,1,3.4,1.48a11.77,11.77,0,0,0,2.72-4.86Z"/><path d="M818.58,2081.63v2.23H801.51v-2.23h7.33v-3.82h-5.15v-2.18h5.15v-3.34h-3.93a15.53,15.53,0,0,1-1.77,2.75,19.33,19.33,0,0,0-2-1.35,16.39,16.39,0,0,0,3.36-6.8l2.34.51c-.27.92-.57,1.81-.9,2.68h2.93v-3.42h2.37v3.42h6.41v2.21h-6.41v3.34h5.68v2.18h-5.68v3.82Z"/><path d="M807.92,2105.69c1.46-.56,2.28-1.51,2.28-2.61H810a1.64,1.64,0,0,1-1.75-1.65,1.68,1.68,0,0,1,1.8-1.65c1.3,0,2,1,2,2.75a4.8,4.8,0,0,1-3.59,4.68Z"/><path d="M809,2131.72a24.38,24.38,0,0,1-5.74,5,16.72,16.72,0,0,0-1.88-1.58,17.3,17.3,0,0,0,5.23-4.4Zm7.71-11.36v9.08H803.33v-9.08Zm-11.07,6.93h8.62v-4.77h-8.62Zm7.71,3.42a40.89,40.89,0,0,1,5.17,4.62l-2.13,1.33a34.12,34.12,0,0,0-5-4.79Z"/><path d="M811.35,2154.69c.49,0,1,0,1.52,0,1.06,0,4.71,0,6.06,0a7.37,7.37,0,0,0-.76,2.16h-5.42c-3.47,0-5.83-.49-7.43-2.7a8.37,8.37,0,0,1-2.65,3,9.58,9.58,0,0,0-1.71-1.57,8.06,8.06,0,0,0,3.53-5.76l2.26.34c-.13.61-.29,1.18-.44,1.73a4.17,4.17,0,0,0,2.74,2.38v-4.83h-7.41v-2h16.75v2h-7v1.43h5.85v2h-5.85Zm5.24-8.06h-13.2V2140h13.2Zm-2.3-5h-8.7v1h8.7Zm0,2.45h-8.7v1h8.7Z"/><path d="M807.59,2165.52a18.87,18.87,0,0,1-1.28,6.78,23.91,23.91,0,0,1,2.23,2.37l-1.32,1.85a27.61,27.61,0,0,0-1.93-2.26,12.93,12.93,0,0,1-2.87,3.15A6.74,6.74,0,0,0,801,2176a11.71,11.71,0,0,0,2.89-3.2c-.85-.89-1.75-1.73-2.51-2.47a43.67,43.67,0,0,0,.92-4.44l-1,.06-.21-2,1.5-.05c.19-1.35.32-2.7.4-3.9l2,.08c-.09,1.16-.24,2.45-.41,3.7l1.16-.06v-1.19h1.9v1.1l.93-.06v1.92Zm-2.82,5.32a16.07,16.07,0,0,0,.9-5.19l-1.45.11c-.23,1.37-.49,2.68-.76,3.88Zm11,4.44c.9,0,1.07-.43,1.2-2.39a7,7,0,0,0,1.94.82c-.29,2.67-.93,3.62-2.95,3.62h-3.63c-2.35,0-3-.66-3-3.24v-5.55l-1,.34-.55-2.11,1.52-.49v-4.73h2.05v4l1.42-.47v-5h2v4.36l1.71-.56.4-.29,1.69.55-.08.34a62.41,62.41,0,0,1-.78,8.17l-1.82-.51c.19-1.5.32-3.84.38-6l-1.5.52v6.13h-2v-5.45l-1.42.49v6.27c0,1.05.15,1.18,1.17,1.18Z"/><path d="M818.66,2190.88v1.71H801.32v-1.71h4.35a8.2,8.2,0,0,0-.44-1l.8-.18h-1.94v-3.77h12v3.77H815a11.3,11.3,0,0,1-.76,1.17Zm-9.88-7.9H802v-1.61h6.82v-1.14h2.3v1.14h7V2183h-7v.78h5.85v1.56H803.27v-1.56h5.51Zm-5.07,10.31H816.5V2198h-2.34v-.5h-8.23v.52h-2.22Zm2.22,1.51V2196h8.23v-1.16Zm.31-6.48h7.58v-1h-7.58Zm1.25,1.39a5.24,5.24,0,0,1,.53,1.17h3.92a10.42,10.42,0,0,0,.49-1.17Z"/><path d="M815.39,2207.38c0,.66,0,1.42-.07,2.22.59,3,1.73,5.73,3.72,7.05a6.75,6.75,0,0,0-1.42,1.9,10.19,10.19,0,0,1-3.08-4.89,12,12,0,0,1-2.89,4.9,7.07,7.07,0,0,0-1.27-1.31v.36h-6v.82h-1.72v-5.87c-.25.32-.48.59-.73.86a11.88,11.88,0,0,0-.95-1.56,12.45,12.45,0,0,0,2.42-3.73h-1.6v-3.6h3.93v3.6h-1.67l.93.33c-.13.3-.28.62-.43.95h1.71c-.14-.29-.27-.59-.42-.84l1.23-.45h-.57v-3.61h3.93v3.23a21.89,21.89,0,0,0,1.71-7.11l2.08.32c-.1.82-.23,1.62-.38,2.42h3.43l.31-.08,1.38.4a36.14,36.14,0,0,1-1.29,5.32l-1.63-.51c.23-.82.47-1.94.68-3.08H813.4a15.72,15.72,0,0,1-1.65,4.42,12.28,12.28,0,0,0-1.71-1.38l.2-.34h-2.88a6.29,6.29,0,0,1,.66,1.29h2.53v1.5H808v.72h2.17V2213H808v.79h2.32v1.41H808v.85h2.4v.65c2.79-3,3.06-6.86,3.06-9.4v-1.18h1.95Zm-12-4.15h-2.32v-1.59h2.32v-1h1.91v3.51h-1.91Zm-.33,3.77h1.28v-1.35h-1.28Zm3.08,3.91h-1.79v.72h1.79Zm0,2.13h-1.79v.79h1.79Zm-1.79,3.05h1.79v-.85h-1.79Zm4.49-11.91h-1.94v-3.51h1.94v.95H811v1.59h-2.18Zm-1.07,2.78h1.28v-1.29h-1.28Z"/><path d="M818.39,2224s0,.76,0,1c-.25,8.5-.46,11.52-1.24,12.52a2.5,2.5,0,0,1-1.82,1.05,21.8,21.8,0,0,1-3,0,5.22,5.22,0,0,0-.74-2.21c1.22.12,2.34.12,2.83.12a1,1,0,0,0,.84-.33c.55-.6.8-3.45,1-10.16H812.2a15.86,15.86,0,0,1-1.67,3,14.41,14.41,0,0,0-1.46-1.06v8.87H804v1.39h-2v-14.12h2.15a20.35,20.35,0,0,0,.55-3.06l2.47.35c-.32.95-.66,1.9-1,2.71h3v3.08a19.65,19.65,0,0,0,2.56-6.12l2.15.5A23.83,23.83,0,0,1,813,2224ZM807,2226.13h-3v3.08h3Zm0,8.76v-3.73h-3v3.73Zm6.31-1a40.77,40.77,0,0,0-2.64-4.39l1.77-1a47.55,47.55,0,0,1,2.79,4.22Z"/><path d="M811.12,2241.54c0,.8-.06,1.82-.13,3,.26,2.57,1.42,9.73,8,12.65a6,6,0,0,0-1.65,2,14.68,14.68,0,0,1-7.43-9,15.42,15.42,0,0,1-7,9.1,7.33,7.33,0,0,0-1.88-1.84c7.71-4.12,7.35-12.63,7.43-15.84Z"/><path d="M817.75,2271.42v8.25H815.2v-1H802.15v-7.2h2.55v5h4v-6h-5.53v-6.9h2.39v4.71h3.14v-6.31h2.5v6.31h3.27v-4.71H817v6.9h-5.78v6h4v-5Z"/><path d="M808.36,2295.44l-6.89,2-.57-2.12c.76-.18,1.69-.42,2.71-.69v-3.82h-2.1v-2.07h2.1v-3.3h-2.27v-2.09H808v2.09H805.8v3.3h2v2.07h-2v3.25l2.26-.63Zm8.44,2.64c.34,0,.42-.3.46-2.2a5.71,5.71,0,0,0,1.88.83c-.19,2.6-.69,3.31-2.09,3.31h-1.43c-1.75,0-2.13-.65-2.13-2.57v-3.72h-1.16c-.34,3.1-1.21,5.3-5.26,6.5a6.76,6.76,0,0,0-1.25-1.86c3.44-.86,4-2.42,4.29-4.64h-1.39v-10.64H818v10.64h-2.34v3.72c0,.55,0,.63.36.63Zm-6-12h5v-1.18h-5Zm0,2.89h5v-1.18h-5Zm0,2.89h5v-1.18h-5Z"/><path d="M812.64,2308.93a48.76,48.76,0,0,1,6.32,5.15l-1.91,1.73a44.66,44.66,0,0,0-5.82-5.15v9.84h-2.47v-9.27a22.79,22.79,0,0,1-6,4.67,12.9,12.9,0,0,0-1.56-2.05,19.83,19.83,0,0,0,8.19-7.47h-7.58v-2.31h16.47v2.31h-5.91a18.18,18.18,0,0,1-1.1,1.75v2Z"/><path d="M818.07,2338.36c0,1.18-.25,1.82-1,2.18a7.69,7.69,0,0,1-3.36.44,7.57,7.57,0,0,0-.78-2.24c1,.06,2.11.06,2.43,0s.46-.14.46-.44v-12.08H804.17V2341H802v-16.85h16.11Zm-3.34-8.87h-9.48v-1.9h9.48Zm-6.5,7.81v1.25h-2.09V2331h7.73v6.35Zm0-4.49v2.62h3.55v-2.62Z"/><path d="M818.39,2346.57s0,.76,0,1c-.25,8.5-.46,11.52-1.24,12.52a2.5,2.5,0,0,1-1.82,1,21.8,21.8,0,0,1-3,0,5.22,5.22,0,0,0-.74-2.21c1.22.12,2.34.12,2.83.12a1,1,0,0,0,.84-.33c.55-.6.8-3.45,1-10.16H812.2a15.86,15.86,0,0,1-1.67,3,14.41,14.41,0,0,0-1.46-1.06v8.87H804v1.39h-2V2346.7h2.15a20.35,20.35,0,0,0,.55-3.06l2.47.35c-.32,1-.66,1.9-1,2.71h3v3.08a19.65,19.65,0,0,0,2.56-6.12l2.15.5a23.83,23.83,0,0,1-.74,2.41ZM807,2348.68h-3v3.08h3Zm0,8.76v-3.73h-3v3.73Zm6.31-1a40.77,40.77,0,0,0-2.64-4.39l1.77-1a47.55,47.55,0,0,1,2.79,4.22Z"/><path d="M807.59,2369.77a18.87,18.87,0,0,1-1.28,6.78,23.91,23.91,0,0,1,2.23,2.37l-1.32,1.85a27.61,27.61,0,0,0-1.93-2.26,12.93,12.93,0,0,1-2.87,3.15,6.74,6.74,0,0,0-1.45-1.42,11.71,11.71,0,0,0,2.89-3.2c-.85-.89-1.75-1.73-2.51-2.47a43.67,43.67,0,0,0,.92-4.44l-1,.06-.21-2,1.5-.05c.19-1.35.32-2.7.4-3.9l2,.08c-.09,1.16-.24,2.45-.41,3.7l1.16-.06v-1.19h1.9v1.1l.93-.06v1.92Zm-2.82,5.32a16.07,16.07,0,0,0,.9-5.19l-1.45.11c-.23,1.37-.49,2.68-.76,3.88Zm11,4.44c.9,0,1.07-.43,1.2-2.39a7,7,0,0,0,1.94.82c-.29,2.67-.93,3.62-2.95,3.62h-3.63c-2.35,0-3-.66-3-3.24v-5.55l-1,.34-.55-2.11,1.52-.49v-4.73h2.05v4l1.42-.47v-5h2v4.36l1.71-.56.4-.29,1.69.55-.08.34a62.41,62.41,0,0,1-.78,8.17l-1.82-.51c.19-1.5.32-3.84.38-6l-1.5.52V2377h-2v-5.45l-1.42.49v6.27c0,1.05.15,1.18,1.17,1.18Z"/><path d="M818.66,2391.33a20.7,20.7,0,0,1-3.17,3.78v4.34c0,1.31-.25,2-1.1,2.35a10.15,10.15,0,0,1-3.86.42,9.54,9.54,0,0,0-.8-2.38c1.16.06,2.53,0,2.89,0s.53-.13.53-.47v-2.32a33.48,33.48,0,0,1-10.37,5,17.53,17.53,0,0,0-1.52-2.08,32,32,0,0,0,8.53-3.41c-2.83.22-5.57.41-7.64.58l-.23-2,2.38-.13v-8.74h3.93a15.17,15.17,0,0,0,.61-1.84l2.77.28c-.26.55-.57,1.06-.87,1.56h4.75v5.36c.34-.46.66-.92,1-1.39Zm-12.1-3.09v1.1h6.59v-1.1Zm6.59,2.71h-6.59v1.12h6.59Zm-6.59,3.94,6.23-.44.36-.31v-.43h-6.59Z"/><path d="M818.64,2419.45v2.28H801.37v-2.28h6.8v-14.3h2.44v5.43h6.7v2.3h-6.7v6.57Z"/><path d="M807.92,2444c1.46-.55,2.28-1.5,2.28-2.6H810a1.64,1.64,0,0,1-1.75-1.65,1.68,1.68,0,0,1,1.8-1.66c1.3,0,2,1,2,2.76a4.79,4.79,0,0,1-3.59,4.67Z"/><path d="M804.05,2465.93a12.84,12.84,0,0,0-3-1.83l1.23-1.65a11,11,0,0,1,3,1.65Zm-2.64,7.69a58.17,58.17,0,0,0,2.45-6.1l1.83,1.18c-.63,2-1.47,4.22-2.25,6.08Zm11.78-10.11v.91h5.17v8.63c0,.89-.16,1.31-.72,1.6a5.79,5.79,0,0,1-2.44.3,5.83,5.83,0,0,0-.49-1.65c.59,0,1.22,0,1.4,0s.27-.06.27-.25v-1.25a3.76,3.76,0,0,0-.63.64,4.41,4.41,0,0,1-.83-1.65,4.06,4.06,0,0,1-1.18,1.71,3.12,3.12,0,0,0-.55-.67v3h-2v-3a4.48,4.48,0,0,0-.53.57,5,5,0,0,1-.8-1.58,4,4,0,0,1-1.14,1.81,4.15,4.15,0,0,0-.6-.7v3h-1.92v-10.53h5v-.91h-2.67v-3H806v-1.2l-1.2,1.64a11.51,11.51,0,0,0-2.94-1.92l1.27-1.67a13.76,13.76,0,0,1,2.87,1.65v-.46h2.59v-1.35h2.1v1.35h3.25v-1.35h2.21v1.35h2.6v2h-2.6v3Zm-2.7,3.42a9.81,9.81,0,0,0,.72,4v-4.61h-3.07v5.24a4.76,4.76,0,0,0,1-2.77h.4l0-.46h-.86v-1.39Zm.15-5.3h3.25v-1.08h-3.25Zm2.55,4.68v5a4.36,4.36,0,0,0,.95-2.54h.4l0-.46h-.87v-1.39h1.88a8.8,8.8,0,0,0,.87,4.18v-4.8Z"/><path d="M816.44,2492.53c0,1.36-.33,2-1.2,2.39a11.45,11.45,0,0,1-4.2.44,9.62,9.62,0,0,0-.95-2.38c1.33.08,2.93.06,3.35.06s.6-.15.6-.55v-2.76h-8.13a10.16,10.16,0,0,1-3.21,5.68,9,9,0,0,0-1.74-1.63c2.86-2.45,3.13-6.08,3.13-9v-6.25h12.35Zm-2.4-5v-2.32h-7.61c0,.72-.06,1.52-.14,2.32Zm-7.61-6.78v2.31H814v-2.31Z"/><path d="M817.64,2502.65a38.45,38.45,0,0,1-10.15,9.81,9.24,9.24,0,0,0,4.77.85,55.26,55.26,0,0,0,6.65-.45,11.51,11.51,0,0,0-.65,2.41c-1.35.09-4.22.21-6.08.21-2.33,0-3.85-.25-5.15-1.05-.81-.47-1.44-1.12-1.86-1.12-.59,0-1.44,1.27-2.22,2.49l-1.63-2.13c1.36-1.46,2.86-2.47,3.91-2.47h.11a33.06,33.06,0,0,0,8.4-7.37H802.29v-2.22h7.4c-.45-.82-1.15-1.86-1.71-2.66l2-1.08a32.46,32.46,0,0,1,2.12,3.07l-1.15.67h4.46l.44-.11Z"/><path d="M807.07,2523.31a22,22,0,0,1-1.5,2.5v10.51h-2.13v-7.88c-.39.41-.81.79-1.19,1.14a13.77,13.77,0,0,0-1.2-2.11,15.76,15.76,0,0,0,4-4.87Zm-.34-4a20.67,20.67,0,0,1-4.33,4.65,15.89,15.89,0,0,0-1.2-1.63,15.73,15.73,0,0,0,3.54-3.78Zm10.58,9.59a10.57,10.57,0,0,1-3.17,4.28,19.9,19.9,0,0,0,4.46,1.21,8.21,8.21,0,0,0-1.34,2,17.5,17.5,0,0,1-5.17-1.81,20.16,20.16,0,0,1-5.25,1.85,6.92,6.92,0,0,0-1.06-1.92,18.57,18.57,0,0,0,4.33-1.24,12,12,0,0,1-1.25-1.12,13.43,13.43,0,0,1-1.24,1,15.81,15.81,0,0,0-1.48-1.63c.46-.31.91-.63,1.37-1a11.77,11.77,0,0,1-1-1.67l1.85-.61a6.67,6.67,0,0,0,.51.91,12.9,12.9,0,0,0,1.31-1.82,12,12,0,0,0-3,.42,15.7,15.7,0,0,0-.67-2.06,5.72,5.72,0,0,0,2.15-.93,16.7,16.7,0,0,0,1.73-1,9.48,9.48,0,0,0-2.79.32c-.14-.47-.48-1.54-.73-2.13a3.73,3.73,0,0,0,1.28-.66,15.35,15.35,0,0,0,3.05-2.66l2.27,1a25.69,25.69,0,0,1-3,2.43l2.45,0c.72-.57,1.42-1.16,2-1.77l2.11,1.14a36,36,0,0,1-6,4.07l4-.21c-.26-.38-.53-.74-.78-1.08l1.73-.9a42.38,42.38,0,0,1,2.87,4.13l-1.86,1.06a15.56,15.56,0,0,0-.87-1.54l-3.5.23c-.21.44-.44.85-.66,1.27h3.61l.36-.09Zm-6.63,1.24c-.15.19-.3.38-.45.55a11.36,11.36,0,0,0,1.9,1.46,8.08,8.08,0,0,0,2.14-2Z"/><path d="M818.45,2548.52h-4.63v5.41c0,1.3-.29,1.88-1.16,2.24a11.74,11.74,0,0,1-3.94.38,8.77,8.77,0,0,0-.79-2.29c1.21,0,2.64,0,3,0s.53-.09.53-.43v-5.36h-10v-2.22h10V2544h2.34v2.28h4.63Zm-14.28-3.38h-2.3v-4h7.18a13.23,13.23,0,0,0-.74-1.79l2.24-.53a12.38,12.38,0,0,1,1,2.32H818v4h-2.43v-1.9H804.17Zm1.25,3.83a16.44,16.44,0,0,1,3,3.79l-1.94,1.27a16.84,16.84,0,0,0-2.87-3.9Z"/><path d="M808.17,2564.29h-7v-1.79h3.19a17.8,17.8,0,0,0-1.2-2.39l1.69-.82a20.3,20.3,0,0,1,1.39,2.53l-1.24.68h3.21Zm10,7.56a8.39,8.39,0,0,1-2.61,2.83,19,19,0,0,0,3.52.63,8,8,0,0,0-1.24,1.78,14.59,14.59,0,0,1-4.42-1.25,21.09,21.09,0,0,1-4.87,1.29,6.59,6.59,0,0,0-.93-1.75v.69h-3.87v.8h-1.84v-6.56h5.71v5.06a21.18,21.18,0,0,0,3.82-.75,8.28,8.28,0,0,1-1.5-1.57l.72-.23h-2.07v-1.52h7.91l.34-.08Zm-7.34-9.88h-2.62v-1.67h2.62v-.93h2v3.5h-1.63l.45.11c-.11.28-.23.59-.36.87h1.67c-.09-.3-.19-.62-.28-.89l1.57-.38v-3.21h2v.91h2.51V2562h-2.51v.92h-1.41c.12.3.23.66.33,1h3.11v1.35H815v.65h2.74V2567H815v.64h2.74v1.13H815v.68h3.63v1.31h-7.5v.28h-1.86v-3.87a5.82,5.82,0,0,1-.67.72,16.92,16.92,0,0,0-1.08-1.63v.62h-5.59v-1.71h5.59v1a10.16,10.16,0,0,0,2.3-3.68l1,.3Zm-8.89,5.72h5.59v1.71h-5.59Zm3.8,4.43h-2v2.12h2Zm7.39-6.92h-2v.65h2Zm0,1.77h-2v.64h2Zm0,1.77h-2v.68h2Zm-1,4.08a5.3,5.3,0,0,0,1.38,1,7,7,0,0,0,1.54-1Z"/><path d="M818.39,2582.72s0,.76,0,1c-.25,8.49-.46,11.51-1.24,12.52a2.52,2.52,0,0,1-1.82,1,20.3,20.3,0,0,1-3,0,5.22,5.22,0,0,0-.74-2.21c1.22.12,2.34.12,2.83.12a1,1,0,0,0,.84-.32c.55-.61.8-3.46,1-10.17H812.2a15.86,15.86,0,0,1-1.67,3,14.41,14.41,0,0,0-1.46-1.06v8.87H804V2597h-2v-14.12h2.15a20.35,20.35,0,0,0,.55-3.06l2.47.35c-.32,1-.66,1.9-1,2.71h3v3.08a19.55,19.55,0,0,0,2.56-6.12l2.15.5a23.83,23.83,0,0,1-.74,2.41ZM807,2584.83h-3v3.08h3Zm0,8.76v-3.73h-3v3.73Zm6.31-1a40.77,40.77,0,0,0-2.64-4.39l1.77-1a46.08,46.08,0,0,1,2.79,4.21Z"/><path d="M807.59,2605.92a18.83,18.83,0,0,1-1.28,6.78,23.88,23.88,0,0,1,2.23,2.38l-1.32,1.84a27.61,27.61,0,0,0-1.93-2.26,12.93,12.93,0,0,1-2.87,3.15,6.74,6.74,0,0,0-1.45-1.42,11.68,11.68,0,0,0,2.89-3.19c-.85-.9-1.75-1.73-2.51-2.47a44.5,44.5,0,0,0,.92-4.45l-1,.06-.21-2,1.5-.05c.19-1.35.32-2.7.4-3.9l2,.08c-.09,1.16-.24,2.45-.41,3.7l1.16-.05v-1.2h1.9v1.1l.93-.06v1.92Zm-2.82,5.32a16.07,16.07,0,0,0,.9-5.19l-1.45.12c-.23,1.36-.49,2.67-.76,3.87Zm11,4.44c.9,0,1.07-.43,1.2-2.39a7,7,0,0,0,1.94.82c-.29,2.68-.93,3.63-2.95,3.63h-3.63c-2.35,0-3-.67-3-3.25v-5.55l-1,.34-.55-2.11,1.52-.49V2602h2.05v4l1.42-.48v-5h2v4.37l1.71-.57.4-.29,1.69.55-.08.34a62.41,62.41,0,0,1-.78,8.17l-1.82-.51c.19-1.5.32-3.84.38-6l-1.5.51v6.14h-2v-5.46l-1.42.5v6.27c0,1,.15,1.17,1.17,1.17Z"/><path d="M807.92,2639.26c1.46-.55,2.28-1.5,2.28-2.6H810a1.64,1.64,0,0,1-1.75-1.65,1.68,1.68,0,0,1,1.8-1.66c1.3,0,2,1,2,2.76a4.79,4.79,0,0,1-3.59,4.67Z"/><path d="M811.61,2653.1l-.28.36a18.27,18.27,0,0,0,7.88,3.42,7.62,7.62,0,0,0-1.42,1.73c-.38-.1-.78-.23-1.18-.35v4.9h-13.2v-4.78c-.4.13-.8.26-1.18.36A12.34,12.34,0,0,0,801,2657c3.5-.82,6.88-2.39,8.61-4.6Zm4.32,4.92a23.21,23.21,0,0,1-2.59-1.16v.49h-6.67V2657a24.07,24.07,0,0,1-2.3,1.05Zm-11.46,5.77h11.17v6.42h-2.32v-.45h-6.63v.51h-2.22Zm2.15-2a7.9,7.9,0,0,0-.65-2l1.46-.42h-2.14v2.4Zm.07,3.47v.76h6.63v-.76Zm6.63,3v-.76h-6.63v.76ZM809,2659.4h-1.48a9.1,9.1,0,0,1,.76,2l-1.22.38H809Zm2.74-3.51a19.26,19.26,0,0,1-1.6-1.24c-.49.42-1,.84-1.61,1.24Zm-.92,3.51v2.4h1.77l-1.14-.33a14.11,14.11,0,0,0,.74-2.07Zm3.77,0h-2l1.48.36c-.38.76-.74,1.5-1,2h1.54Z"/><path d="M812.64,2679.11a48.73,48.73,0,0,1,6.32,5.14l-1.91,1.73a45.41,45.41,0,0,0-5.82-5.15v9.85h-2.47v-9.28a22.62,22.62,0,0,1-6,4.68,12.9,12.9,0,0,0-1.56-2,19.9,19.9,0,0,0,8.19-7.47h-7.58v-2.32h16.47v2.32h-5.91a18.18,18.18,0,0,1-1.1,1.75v2Z"/><path d="M811.61,2694l-.28.36a18.27,18.27,0,0,0,7.88,3.42,7.41,7.41,0,0,0-1.42,1.73c-.38-.1-.78-.23-1.18-.35v4.9h-13.2v-4.78c-.4.13-.8.26-1.18.36a12.34,12.34,0,0,0-1.22-1.75c3.5-.82,6.88-2.39,8.61-4.6Zm4.32,4.92a23.21,23.21,0,0,1-2.59-1.16v.49h-6.67v-.38a24.07,24.07,0,0,1-2.3,1Zm-11.46,5.77h11.17v6.42h-2.32v-.45h-6.63v.51h-2.22Zm2.15-2a7.9,7.9,0,0,0-.65-2l1.46-.42h-2.14v2.4Zm.07,3.47v.76h6.63v-.76Zm6.63,3v-.76h-6.63v.76Zm-4.31-8.87h-1.48a9.1,9.1,0,0,1,.76,2l-1.22.38H809Zm2.74-3.51a19.26,19.26,0,0,1-1.6-1.24c-.49.42-1,.84-1.61,1.24Zm-.92,3.51v2.4h1.77l-1.14-.33a14.11,14.11,0,0,0,.74-2.07Zm3.77,0h-2l1.48.36c-.38.76-.74,1.5-1,2h1.54Z"/><path d="M806.43,2722.69a24.81,24.81,0,0,1-1.56,4.87c.34.19.74.49,1.29.83,1.31.78,3.1.89,5.3.89a64.92,64.92,0,0,0,7.69-.49,8.39,8.39,0,0,0-.64,2.32c-1.56.09-4.94.23-7.16.23-2.51,0-4.11-.21-5.49-1-.78-.44-1.47-1.06-1.87-1.06s-1.1,1.29-1.57,2.37l-1.5-2.15a8.92,8.92,0,0,1,1.69-1.61,17.55,17.55,0,0,0,1.29-3.5h-2.28c.44-1.12,1-2.64,1.41-4.12h-1.75v-2h4.48c-.38,1.35-.87,2.87-1.33,4.18h.69l.34-.08Zm-3.16-5c-.21-.87-.7-2.24-1-3.28l2-.59c.36,1,.84,2.3,1.1,3.13Zm6.35-1.15h-3.78V2715h3.78v-1.18h1.88V2715h1.12v-1.18h1.9V2715h3.87v1.56h-3.87v.66h3.17v5H806.58v-5h3Zm-2.13,11.89v-5.64h9.25v5.64Zm1-9.31h1.14v-.76h-1.14Zm0,1.88h1.14v-.78h-1.14Zm1.12,3.93h4.94v-.76H809.6Zm0,2.09h4.94v-.78H809.6Zm1.9-10.48v.66h1.12v-.66Zm1.12,2.58v-.76H811.5v.76Zm-1.12,1.1v.78h1.12v-.78Zm3-1.86v.76h1.18v-.76Zm1.18,1.86h-1.18v.78h1.18Z"/><path d="M807.76,2748.21c1.19-.21,2.43-.42,3.63-.61l.11,1.94c-3.33.64-6.92,1.29-9.5,1.75l-.49-2.09c1.14-.16,2.56-.38,4.1-.63V2746h-3.46v-2h3.46v-1.69h2.15V2744h3.42v2h-3.42Zm-6.06-12.84h9.87v1.93H808.9a22,22,0,0,1,2.64,4l-1.71,1.12c-.12-.28-.27-.61-.44-.95-5.24.44-6.06.53-6.61.76-.13-.45-.49-1.46-.72-2.05a1.87,1.87,0,0,0,.87-.8,15,15,0,0,0,1.18-2.13H801.7Zm6.65,4.42c-.37-.55-.75-1.08-1.11-1.56l1.6-.93h-2.28a21.84,21.84,0,0,1-1.65,2.68Zm6.06,7.7h-2.09V2736h2.09Zm3.74-13v14.71c0,1.19-.23,1.76-.95,2.13a8.36,8.36,0,0,1-3.29.41,8.87,8.87,0,0,0-.76-2.16c1,0,2,0,2.36,0s.43-.12.43-.44v-14.69Z"/><path d="M808,2759.59h-6.91v-1.79h3a22,22,0,0,0-1-2.39l1.9-.65a19.77,19.77,0,0,1,1.16,2.57l-1.22.47h3Zm5.76,8.09c-.48,1.81-1.75,3.59-5.06,4.77a7.8,7.8,0,0,0-1.21-1.5v.46h-3.78v.76h-1.86v-6.5h5.64v5.09c2.39-.82,3.51-1.94,4-3.08H808v-2h4v-2h-3.28v-7.38h1.92v5.49h7.33v3.85h1v2Zm-6.29-5.51h-5.57v-1.71h5.57Zm-5.57.88h5.57v1.69h-5.57Zm3.71,4.41h-1.9v2.18h1.9Zm11.72-6.48H811.1v-5.74h6.25Zm-2.09-3.92h-2.18v2.09h2.18Zm-.7,11.12c1.37.74,3.45,1.94,4.48,2.66l-1.33,1.61c-1-.74-3-2-4.43-2.85Zm-.52-2.55h1.73v-2H814v2Z"/><path d="M808,2780h-6.84v-1.79h2.75a20.1,20.1,0,0,0-1-2.41l1.9-.67a18.28,18.28,0,0,1,1.16,2.59l-1.27.49H808Zm-.46,10a13.18,13.18,0,0,0,.93-3.72l1.58.45a12.42,12.42,0,0,1-1.2,4.37l-1.31-.55v1.29h-4v.76h-1.86v-6.5h5.85Zm.06-7.39h-5.89v-1.71h5.89Zm-5.89.87h5.89v1.69h-5.89Zm4,4.41H803.5v2.18h2.11Zm8.72-10.24c-.38,3.31-1.35,6.08-4.94,7.75a5.5,5.5,0,0,0-1.25-1.59,6.4,6.4,0,0,0,2.92-2.28c-.72-.71-1.82-1.66-2.62-2.36l1.2-1.2c.66.54,1.54,1.22,2.24,1.83a12.78,12.78,0,0,0,.44-2.15h-3.65v-1.9h9.69s0,.61-.06.86c-.19,4.73-.42,6.57-.93,7.2a1.93,1.93,0,0,1-1.39.76,13.91,13.91,0,0,1-2.2,0,5.54,5.54,0,0,0-.59-1.93c.72.05,1.42.07,1.77.07a.74.74,0,0,0,.6-.23c.27-.34.46-1.65.61-4.86Zm0,13c.55,0,.65-.3.7-2.3a6.17,6.17,0,0,0,1.73.73c-.19,2.64-.7,3.32-2.22,3.32h-2.09c-1.86,0-2.32-.57-2.32-2.36v-4.14H812v4.13c0,.55.1.62.67.62Zm-1.25-6.34a12.49,12.49,0,0,1,2.11,2.81l-1.41,1a15.62,15.62,0,0,0-2-2.91Zm4.29,1.14a17.16,17.16,0,0,1,1.65,4.06l-1.65.61a16.79,16.79,0,0,0-1.52-4.12Z"/><path d="M807.92,2814.14c1.46-.55,2.28-1.5,2.28-2.61H810a1.64,1.64,0,0,1-1.75-1.65,1.68,1.68,0,0,1,1.8-1.65c1.3,0,2,1,2,2.75a4.79,4.79,0,0,1-3.59,4.68Z"/><path d="M809.5,2843.07c0,.93-.17,1.41-.79,1.71a6.51,6.51,0,0,1-2.63.33,5.89,5.89,0,0,0-.68-1.77c.68,0,1.43,0,1.65,0s.33-.08.33-.33v-1.93c-1,.68-1.9,1.33-2.76,1.88l-.47-1.33a8.43,8.43,0,0,1-1.35,3.57,9.39,9.39,0,0,0-1.58-1.52c1-1.48,1.08-3.57,1.08-5.22v-4.28h7.2Zm-1.06-14.24a40.07,40.07,0,0,1,2.26,4.37l-2,.79c-.11-.34-.28-.74-.47-1.19-4.81.47-5.58.58-6.14.81-.11-.43-.47-1.46-.7-2a2.23,2.23,0,0,0,1.05-.76,16.43,16.43,0,0,0,2.24-3.38l2.28.64a20.84,20.84,0,0,1-2.34,3.16l2.77-.21-.79-1.54Zm-4.05,9.68a21.39,21.39,0,0,1-.13,2.44c.86-.38,2-.95,3.12-1.56v-.63l-.92.89a26.11,26.11,0,0,0-2.07-1.82Zm0-2.39v1.35l1-.82c.65.46,1.47,1.12,2,1.62v-2.15Zm9.39-.32c-2.28,0-2.89-.84-2.89-3v-5.39h2.24v2.24h4.68v1.94h-4.68v1.25c0,.7.12,1,.72,1h2.78a10.38,10.38,0,0,0,1.75-.15c0,.59.13,1.4.2,1.92a7.63,7.63,0,0,1-1.91.17Zm2.39,7.25c.65,0,.78-.32.88-2.07a5.85,5.85,0,0,0,2,.82c-.23,2.49-.81,3.23-2.62,3.23h-2.7c-2.24,0-2.79-.66-2.79-2.74v-6h2.24v1.9h4.81v2h-4.81v2.07c0,.67.14.76.88.76Z"/><path d="M812.64,2854a48.76,48.76,0,0,1,6.32,5.15l-1.91,1.73a44.66,44.66,0,0,0-5.82-5.15v9.84h-2.47v-9.27a22.59,22.59,0,0,1-6,4.67,13.87,13.87,0,0,0-1.56-2,19.88,19.88,0,0,0,8.19-7.46h-7.58v-2.32h16.47v2.32h-5.91a18.05,18.05,0,0,1-1.1,1.74v2Z"/><path d="M809.5,2883.92c0,.94-.17,1.41-.79,1.71a6.51,6.51,0,0,1-2.63.33,5.89,5.89,0,0,0-.68-1.77c.68,0,1.43,0,1.65,0s.33-.08.33-.32V2882c-1,.68-1.9,1.33-2.76,1.88l-.47-1.33a8.43,8.43,0,0,1-1.35,3.57,9.39,9.39,0,0,0-1.58-1.52c1-1.48,1.08-3.57,1.08-5.22v-4.28h7.2Zm-1.06-14.24a40.07,40.07,0,0,1,2.26,4.37l-2,.79c-.11-.34-.28-.74-.47-1.19-4.81.47-5.58.59-6.14.81-.11-.43-.47-1.46-.7-2a2.16,2.16,0,0,0,1.05-.76,16.43,16.43,0,0,0,2.24-3.38l2.28.65a21.26,21.26,0,0,1-2.34,3.15l2.77-.21-.79-1.54Zm-4.05,9.69a21.34,21.34,0,0,1-.13,2.43c.86-.38,2-1,3.12-1.56v-.63l-.92.89a26.11,26.11,0,0,0-2.07-1.82Zm0-2.4v1.35l1-.82c.65.46,1.47,1.12,2,1.62V2877Zm9.39-.32c-2.28,0-2.89-.84-2.89-3v-5.39h2.24v2.24h4.68v1.94h-4.68v1.25c0,.7.12,1,.72,1h2.78a10.38,10.38,0,0,0,1.75-.15c0,.59.13,1.4.2,1.92a7.63,7.63,0,0,1-1.91.17Zm2.39,7.26c.65,0,.78-.33.88-2.08a5.85,5.85,0,0,0,2,.82c-.23,2.49-.81,3.23-2.62,3.23h-2.7c-2.24,0-2.79-.66-2.79-2.73v-6h2.24v1.9h4.81v2h-4.81v2.07c0,.66.14.76.88.76Z"/><path d="M806.43,2897.57a24.49,24.49,0,0,1-1.56,4.86c.34.19.74.49,1.29.84,1.31.77,3.1.89,5.3.89a64.92,64.92,0,0,0,7.69-.49,8.32,8.32,0,0,0-.64,2.31c-1.56.1-4.94.23-7.16.23-2.51,0-4.11-.21-5.49-1-.78-.43-1.47-1.06-1.87-1.06s-1.1,1.29-1.57,2.37l-1.5-2.14a8.69,8.69,0,0,1,1.69-1.62,17.45,17.45,0,0,0,1.29-3.49h-2.28c.44-1.12,1-2.64,1.41-4.12h-1.75v-2h4.48c-.38,1.35-.87,2.87-1.33,4.18h.69l.34-.07Zm-3.16-5c-.21-.87-.7-2.24-1-3.29l2-.59c.36,1,.84,2.3,1.1,3.14Zm6.35-1.16h-3.78v-1.56h3.78v-1.17h1.88v1.17h1.12v-1.17h1.9v1.17h3.87v1.56h-3.87v.67h3.17v5H806.58v-5h3Zm-2.13,11.89v-5.64h9.25v5.64Zm1-9.31h1.14v-.76h-1.14Zm0,1.89h1.14v-.78h-1.14Zm1.12,3.93h4.94v-.76H809.6Zm0,2.09h4.94v-.78H809.6Zm1.9-10.49v.67h1.12v-.67Zm1.12,2.58v-.76H811.5v.76Zm-1.12,1.11v.78h1.12v-.78Zm3-1.87v.76h1.18v-.76Zm1.18,1.87h-1.18v.78h1.18Z"/><path d="M807.76,2923.08c1.19-.21,2.43-.41,3.63-.6l.11,1.93c-3.33.65-6.92,1.3-9.5,1.75l-.49-2.09c1.14-.15,2.56-.38,4.1-.63v-2.58h-3.46v-2h3.46v-1.69h2.15v1.69h3.42v2h-3.42Zm-6.06-12.84h9.87v1.94H808.9a21.39,21.39,0,0,1,2.64,4.05l-1.71,1.12c-.12-.29-.27-.61-.44-.95-5.24.43-6.06.53-6.61.76-.13-.46-.49-1.47-.72-2.06a1.84,1.84,0,0,0,.87-.79,15.59,15.59,0,0,0,1.18-2.13H801.7Zm6.65,4.43c-.37-.55-.75-1.09-1.11-1.56l1.6-.93h-2.28a23.47,23.47,0,0,1-1.65,2.68Zm6.06,7.69h-2.09v-11.47h2.09Zm3.74-13V2924c0,1.2-.23,1.77-.95,2.13a8.33,8.33,0,0,1-3.29.42,8.8,8.8,0,0,0-.76-2.17c1,0,2,0,2.36,0s.43-.11.43-.44v-14.68Z"/><path d="M807.7,2943.49c-2.09.74-4.37,1.46-6.19,2.05l-.52-2.3,2.32-.62v-4.47h-1.92v-2.07h1.92v-3.34h-2.09v-2.11h6.27v2.11h-2v3.34h1.71v2.07h-1.71v3.8c.62-.19,1.25-.38,1.86-.59Zm11.28,1.16v2H806.77v-2H812v-1.81h-3.93v-2H812v-1.63h-3.8v-8.84h9.92v8.84h-3.82v1.63h4v2h-4v1.81Zm-8.74-10.81h2v-1.58h-2Zm0,3.42h2v-1.64h-2Zm5.74-5H814.1v1.58H816Zm0,3.36H814.1v1.64H816Z"/><path d="M818.91,2964.5h-3.23v3.14h-2.15v-3.14H810v-1.93h3.51v-1.71H812a7.41,7.41,0,0,1-.76,1.46,10.05,10.05,0,0,0-1.48-.8v4c0,.89-.15,1.46-.72,1.79a5.39,5.39,0,0,1-2.53.38,5.88,5.88,0,0,0-.64-1.92c.76,0,1.5,0,1.73,0s.32-.07.32-.32v-2.73h-3.78a11.9,11.9,0,0,1-1.5,5,7.84,7.84,0,0,0-1.56-1c1.27-2,1.37-4.79,1.37-6.92V2957a12.58,12.58,0,0,0-1.48-1.22,13.25,13.25,0,0,0,2.81-5.83l2,.42a13,13,0,0,1-.4,1.35h1.73l.29-.1,1.29.8a23.1,23.1,0,0,1-1,2.39h2.12V2956a4,4,0,0,0,2.42-3.21H810v-1.84h8.43s0,.48,0,.72c-.09,3-.24,4.33-.66,4.83a1.64,1.64,0,0,1-1.16.62,13.36,13.36,0,0,1-1.92.06,4.57,4.57,0,0,0-.51-1.82c.59.05,1.1.07,1.37.07a.57.57,0,0,0,.51-.21,5.85,5.85,0,0,0,.34-2.43h-2.2a5.8,5.8,0,0,1-3,4.62l1.69.34c-.08.4-.16.82-.27,1.22h.93v-1.71h2.15V2959h2.85v1.9h-2.85v1.71h3.23Zm-14.21-11.05c-.21.47-.42,1-.65,1.38h1.64c.19-.41.36-.91.53-1.38Zm-.48,6.38c0,.4,0,.82,0,1.25h1.11v-1.57h-1.09Zm0-1.92h1.09v-1.42h-1.09Zm2.57,0h1.08v-1.42h-1.08Zm1.08,3.17v-1.57h-1.08v1.57Zm1.84.12a10.13,10.13,0,0,0,1.31-3.71c-.13.06-.26.14-.39.19a5.72,5.72,0,0,0-.92-1.29Z"/><path d="M807.92,2989c1.46-.55,2.28-1.5,2.28-2.6H810a1.64,1.64,0,0,1-1.75-1.65,1.68,1.68,0,0,1,1.8-1.66c1.3,0,2,1,2,2.76a4.79,4.79,0,0,1-3.59,4.67Z"/><path d="M817.94,3011.3a18.92,18.92,0,0,1-3.15,4.16c.51,1.46,1.1,2.34,1.67,2.34.4,0,.62-.91.72-3.16a5.66,5.66,0,0,0,1.86,1.3c-.36,3.32-1.06,4.16-2.79,4.16-1.39,0-2.45-1.14-3.27-3a19,19,0,0,1-3.51,2.32,10.18,10.18,0,0,0-1.5-1.82,19.67,19.67,0,0,0,4.23-2.68,35.2,35.2,0,0,1-1-5.09h-3.85V3012l2.92-.53.17,2.05-3.09.63v3.25c0,1.23-.27,1.84-1,2.2a8.15,8.15,0,0,1-3.42.44,8.63,8.63,0,0,0-.8-2.28c1.07.06,2.17,0,2.51,0s.46-.09.46-.4v-2.75l-3.4.68-.56-2.28c1.09-.17,2.46-.38,4-.65v-2.54h-3.59v-2.15h3.59v-2.16c-1,.17-2.07.3-3,.41a8.89,8.89,0,0,0-.65-1.9,47.84,47.84,0,0,0,7.54-1.59l1.52,1.92c-1,.28-2,.53-3.09.76v2.56H811c-.15-1.71-.21-3.47-.22-5.2h2.37a46.75,46.75,0,0,0,.19,5.2h5.17v2.15h-4.94c.15,1.14.34,2.24.55,3.21a16,16,0,0,0,1.8-2.58Zm-1.39-4.18a14.88,14.88,0,0,0-2.7-3.13l1.71-1.16a16.63,16.63,0,0,1,2.82,3Z"/><path d="M809.5,3038.38c0,.93-.17,1.4-.79,1.7a6.51,6.51,0,0,1-2.63.33,6,6,0,0,0-.68-1.77c.68,0,1.43,0,1.65,0s.33-.08.33-.32v-1.94c-1,.68-1.9,1.33-2.76,1.88l-.47-1.33a8.43,8.43,0,0,1-1.35,3.57,9.39,9.39,0,0,0-1.58-1.52c1-1.48,1.08-3.57,1.08-5.22v-4.28h7.2Zm-1.06-14.25a40.07,40.07,0,0,1,2.26,4.37l-2,.79c-.11-.34-.28-.74-.47-1.19-4.81.47-5.58.59-6.14.81-.11-.43-.47-1.46-.7-2a2.16,2.16,0,0,0,1.05-.76,16.43,16.43,0,0,0,2.24-3.38l2.28.65a21.26,21.26,0,0,1-2.34,3.15l2.77-.21-.79-1.54Zm-4.05,9.69a21.34,21.34,0,0,1-.13,2.43c.86-.38,2-.95,3.12-1.56v-.63l-.92.9a24.19,24.19,0,0,0-2.07-1.83Zm0-2.4v1.35l1-.82c.65.46,1.47,1.12,2,1.62v-2.15Zm9.39-.32c-2.28,0-2.89-.84-2.89-2.95v-5.39h2.24V3025h4.68v1.94h-4.68v1.25c0,.7.12,1,.72,1h2.78a10.38,10.38,0,0,0,1.75-.15c0,.59.13,1.41.2,1.92a7.63,7.63,0,0,1-1.91.17Zm2.39,7.26c.65,0,.78-.33.88-2.07a6,6,0,0,0,2,.81c-.23,2.49-.81,3.23-2.62,3.23h-2.7c-2.24,0-2.79-.66-2.79-2.73v-6h2.24v1.9h4.81v2h-4.81v2.07c0,.66.14.76.88.76Z"/><path d="M816,3049.21a30.59,30.59,0,0,1,2.93,2.37l-1.47,1.43a27.47,27.47,0,0,0-3.34-2.91,7.59,7.59,0,0,1-2.7,2.55h4.92v8.16H814v-.53h-8.22v.61h-2.21v-8c-.32.23-.68.46-1,.67a7.93,7.93,0,0,0-1.48-1.54,6.28,6.28,0,0,0,3-2.77h-2.66v-1.79h3.23a8.42,8.42,0,0,0,.09-1.08H802.1v-1.71h2.69v-1.48h2.15v1.48h2.28v1.71h-2.28a10.18,10.18,0,0,1-.08,1.08h2.59v1.79h-2.51c.84.62,1.8,1.33,2.36,1.76l-1.45,1.52c-.47-.47-1.33-1.17-2.13-1.8a8,8,0,0,1-1.84,2h6.59a6.84,6.84,0,0,0-1.17-1.22,5.35,5.35,0,0,0,2.9-2.22H810v-1.79h2.79a6.1,6.1,0,0,0,.07-1v-.06h-2.58v-1.71h2.58v-1.48h2.17v1.48h2.85v1.71h-2.85v.09a8.35,8.35,0,0,1-.06,1h3.56v1.79Zm-2,5.32h-8.22v1.08H814Zm0,3.87v-1.18h-8.22v1.18Z"/><path d="M807.59,3069.27a18.83,18.83,0,0,1-1.28,6.78,23.88,23.88,0,0,1,2.23,2.38l-1.32,1.84a27.61,27.61,0,0,0-1.93-2.26,12.93,12.93,0,0,1-2.87,3.15,6.74,6.74,0,0,0-1.45-1.42,11.68,11.68,0,0,0,2.89-3.19c-.85-.9-1.75-1.73-2.51-2.47a44.5,44.5,0,0,0,.92-4.45l-1,.06-.21-2,1.5-.06c.19-1.35.32-2.7.4-3.9l2,.08c-.09,1.16-.24,2.45-.41,3.7l1.16-.05v-1.2h1.9v1.1l.93,0v1.91Zm-2.82,5.32a16.07,16.07,0,0,0,.9-5.19l-1.45.12c-.23,1.36-.49,2.68-.76,3.87Zm11,4.44c.9,0,1.07-.43,1.2-2.39a7,7,0,0,0,1.94.82c-.29,2.68-.93,3.63-2.95,3.63h-3.63c-2.35,0-3-.67-3-3.25v-5.55l-1,.34-.55-2.11,1.52-.49v-4.73h2.05v4l1.42-.48v-5h2v4.37l1.71-.57.4-.29,1.69.55-.08.34a62.41,62.41,0,0,1-.78,8.17l-1.82-.51c.19-1.5.32-3.84.38-6l-1.5.51v6.14h-2v-5.46l-1.42.5v6.27c0,1,.15,1.17,1.17,1.17Z"/><path d="M807.47,3096.17a22.26,22.26,0,0,0-1.39-1.84v7.39h-2.22v-6.95a17.3,17.3,0,0,1-2.11,1.65,11.6,11.6,0,0,0-.85-2.32,13.34,13.34,0,0,0,4.82-4.9h-4.27v-2h3.25a12.71,12.71,0,0,0-1.47-2.19L805,3084a11.51,11.51,0,0,1,1.75,2.4l-1.26.74h1.43l.4-.1,1.2.88a20.27,20.27,0,0,1-2.19,4c.76.68,2.15,2,2.51,2.37Zm11.34-4h-2.13v9.53h-2.31v-9.53h-2.7c-.06,3-.44,6.95-2.07,9.57a8.62,8.62,0,0,0-2.05-1.22c1.67-2.65,1.8-6.49,1.8-9.25v-5.2a35.4,35.4,0,0,0,7.39-2l1.88,1.88a43,43,0,0,1-7,1.79v2.2h7.14Z"/><path d="M817.18,3116.24v.83h1.46v1.35h-1.46v2c0,.85-.13,1.25-.7,1.5a5.82,5.82,0,0,1-2.32.26,6.41,6.41,0,0,0-.51-1.59l-.31.21a6.93,6.93,0,0,0-1.2-1.75l1-.63H812v-1.35h3.15v-.83h-8.32v-1l-.78,1.33a17.71,17.71,0,0,0-1.12-1.9v7.45h-1.73v-6.92a12.72,12.72,0,0,1-1.67,1.63,12.73,12.73,0,0,0-.66-2.33,12.52,12.52,0,0,0,3.84-4.9H801.3v-2h2.5a12.19,12.19,0,0,0-1.08-2.05l1.35-1.06a12,12,0,0,1,1.35,2.37l-.87.74h1.15l.29-.09,1,.87a21.66,21.66,0,0,1-1.73,4c.59.69,1.65,2,2,2.36l-.1.17h11.78v1.35Zm-.63-4c.1-.38.17-.87.27-1.39h-9.71v-1.35h10.15l.28-.07,1.31.34c-.21,1-.49,2.13-.72,2.89Zm-4.88-5.28h-4.48v-1.27h4.48v-1h2.2v1h4.71v1.27h-4.71v.72h3.9v1.25h-9.69v-1.25h3.59Zm0,13.77H809v.82h-1.63v-4.64h4.35Zm-.23-7.58v-.59H808.5v-1.14h7.82v1.14h-2.83v.59h4.07v1.16H807.49v-1.16Zm-2.49,5v1.39h1.14v-1.39Zm6.23.32h-1.61a8.52,8.52,0,0,1,1.1,1.48l-1,.69c.54,0,1.09,0,1.28,0s.24-.06.24-.25Z"/><path d="M807.92,3143.46c1.46-.55,2.28-1.5,2.28-2.6H810a1.64,1.64,0,0,1-1.75-1.65,1.68,1.68,0,0,1,1.8-1.66c1.3,0,2,1,2,2.76a4.79,4.79,0,0,1-3.59,4.67Z"/><path d="M808.35,3164.86c-.42.64-.88,1.25-1.37,1.86h2.56v-1.56h2.19v1.56H817v4.5c0,1-.19,1.52-.89,1.84a7.64,7.64,0,0,1-2.91.33,7.11,7.11,0,0,0-.68-1.94c.76,0,1.63,0,1.88,0s.34-.08.34-.29v-2.5h-3v5.79h-2.19v-5.79h-2.7v4.82H804.6v-4.46a12,12,0,0,1-2.11,1.42,12.36,12.36,0,0,0-1.5-1.69,14.34,14.34,0,0,0,4.66-3.93h-4.09v-2h5.38a12.26,12.26,0,0,0,.65-1.38c-1.39.38-2.78.66-4.09.93a14.38,14.38,0,0,0-1.54-1.88,56,56,0,0,0,5.55-1.07c-1.48-.47-3-.91-4.28-1.25l1.58-1.31c1.75.41,3.84,1,5.87,1.61a18.37,18.37,0,0,0,4.09-1.88l1.88,1.29a24,24,0,0,1-3,1.56c1.4.5,2.68,1,3.68,1.46l-1.73,1.56a49,49,0,0,0-4.82-2c-.51.18-1,.35-1.6.5l1.05.28a16.62,16.62,0,0,1-.72,1.54h9v2Z"/><path d="M802.67,3180.88h-1.43V3179h3.63c-.17-.46-.38-.92-.55-1.3l2-.56a12.35,12.35,0,0,1,.82,1.86h2.6v1.57a9.79,9.79,0,0,0,2.41-3.32l2.15.36c-.13.3-.28.57-.44.87h3.31l.4-.05,1.37.45c-1.16,4.81-4.09,6.92-8.32,8a7.22,7.22,0,0,0-1.07-1.69,11.47,11.47,0,0,0,2.51-.76c-.44-.53-1-1.18-1.58-1.76-.19.15-.38.3-.57.43a5.83,5.83,0,0,0-1.54-1.4c.34-.25.69-.5,1-.76h-4.65v2.67c0,.59.07.78.55.78h2.43a7.42,7.42,0,0,0,1.52-.13,17.72,17.72,0,0,0,.19,1.86,5.72,5.72,0,0,1-1.65.15h-2.47c-2.11,0-2.64-.72-2.64-2.69Zm8.45,11.85h7.31v1.86H801.56v-1.86h7.26v-1h-6.23v-1.78h6.23v-1c-2,.1-3.91.15-5.74.15a6.62,6.62,0,0,0-.47-1.8,103.23,103.23,0,0,0,13.92-1.07l.93,1.85a60.08,60.08,0,0,1-6.34.72v1.16h6.42v1.78h-6.42Zm2.45-9.18a6.43,6.43,0,0,0,.84-.64,26.88,26.88,0,0,0-2.32-1.84c-.14.15-.31.32-.46.49C812.28,3182.21,813,3183,813.57,3183.55Zm-.29-3.38c.73.52,1.52,1.07,2.17,1.58a6.63,6.63,0,0,0,.85-1.58Z"/><path d="M807.59,3203.3a18.87,18.87,0,0,1-1.28,6.78,23.91,23.91,0,0,1,2.23,2.37l-1.32,1.84a29.49,29.49,0,0,0-1.93-2.25,12.93,12.93,0,0,1-2.87,3.15,7,7,0,0,0-1.45-1.43,11.54,11.54,0,0,0,2.89-3.19c-.85-.89-1.75-1.73-2.51-2.47a43.67,43.67,0,0,0,.92-4.44l-1,.05-.21-2,1.5-.06c.19-1.34.32-2.69.4-3.89l2,.08c-.09,1.15-.24,2.45-.41,3.7l1.16-.06v-1.19h1.9v1.1l.93-.06v1.92Zm-2.82,5.32a16.07,16.07,0,0,0,.9-5.19l-1.45.11c-.23,1.37-.49,2.68-.76,3.88Zm11,4.44c.9,0,1.07-.44,1.2-2.39a6.69,6.69,0,0,0,1.94.81c-.29,2.68-.93,3.63-2.95,3.63h-3.63c-2.35,0-3-.66-3-3.25v-5.54l-1,.34-.55-2.11,1.52-.49v-4.73h2.05v4l1.42-.47v-5h2v4.37l1.71-.57.4-.28,1.69.55-.08.34a62.41,62.41,0,0,1-.78,8.17l-1.82-.51c.19-1.5.32-3.84.38-6l-1.5.52v6.13h-2v-5.45l-1.42.49v6.27c0,1,.15,1.18,1.17,1.18Z"/><path d="M818.6,3225.26h-4.73l1.68.42c-.4.59-.82,1.18-1.22,1.71h2.93v2h-6.12v1.58h7v2h-7v2.84h-2.38v-2.84h-6.85v-2h6.85v-1.58H803v-2h2.66a11.44,11.44,0,0,0-.84-1.73l1.39-.4h-4.77v-2h7.31v-1.48h-5.37v-2h5.37v-1.71h2.38v1.71h5.58v2h-5.58v1.48h7.46Zm-6.57,2.13a19.26,19.26,0,0,0,1-2.13h-5.85A8,8,0,0,1,808,3227l-1.14.35Z"/><path d="M808.31,3247.55h10.1v8.6h-2.18v-.74h-5.85v.76h-2.07v-7l-.9,1.22a20.59,20.59,0,0,0-1.44-1.77v7.62h-2.22v-6.33a16.88,16.88,0,0,1-1.92,1.58,9.15,9.15,0,0,0-1.05-2.15,13.72,13.72,0,0,0,4.83-5.32h-4.14v-2h2.6a26.6,26.6,0,0,0-1.4-2.66l1.76-.76a23.17,23.17,0,0,1,1.54,2.68l-1.48.74h2.26l.38-.09,1.25.81a19.78,19.78,0,0,1-1.93,3.88c.51.4,1.33,1.12,1.86,1.59Zm10.16-8.32v1.89H808.19v-1.89Zm-.89,2.71v4.75h-8.34v-4.75Zm-7.2,7.41v1.25h1.88v-1.25Zm0,4.26h1.88v-1.31h-1.88Zm5.11-10h-4.26V3245h4.26Zm.74,5.72h-2v1.25h2Zm0,4.26v-1.31h-2v1.31Z"/><path d="M807.92,3277.49c1.46-.55,2.28-1.5,2.28-2.6H810a1.65,1.65,0,0,1-1.75-1.66,1.68,1.68,0,0,1,1.8-1.65c1.3,0,2,1,2,2.75a4.79,4.79,0,0,1-3.59,4.68Z"/><path d="M818.17,3291.4v17.12H816v-.86H804v.86h-2.08V3291.4ZM816,3305.82v-12.39H804v12.39Zm-5.07-7.16c0,.28-.08.55-.13.81a27.66,27.66,0,0,1,4.5,4.33l-1.58,1.39a29.76,29.76,0,0,0-3.53-3.76,7.34,7.34,0,0,1-4.07,4,6.6,6.6,0,0,0-1.34-1.81,6.05,6.05,0,0,0,4-5h-3.8v-2h4c.05-.78.07-1.59.09-2.49h2.2c0,.88-.05,1.7-.11,2.49h4v2Z"/><path d="M818.36,3322.27c-.33,3.69-.65,5.28-1.24,5.89a2,2,0,0,1-1.42.71,17.53,17.53,0,0,1-2.26,0,5,5,0,0,0-.61-2,15.66,15.66,0,0,0,1.84.09.82.82,0,0,0,.63-.2c.3-.31.55-1.26.78-3.42H804.77c-.3.22-.62.43-1,.64l1.73.55a7.92,7.92,0,0,1-2.22,4.3l-1.77-1.13a6.86,6.86,0,0,0,2.06-3.59c-.46.29-.93.54-1.41.78a14.06,14.06,0,0,0-1.18-2,17.34,17.34,0,0,0,7.28-6.52h-6.1v-2h3.19a15.1,15.1,0,0,0-1.2-2.42l2-.76a12.9,12.9,0,0,1,1.46,2.78l-1,.4h2.76a21.87,21.87,0,0,0,1.31-3.25l2.26.62c-.32.9-.68,1.77-1.08,2.63h3.72c-.19,1.14-.47,2.43-.72,3.47h2.16c-.2,1.14-.45,2.47-.68,3.5h2ZM808,3324.53a13.38,13.38,0,0,1,.52,3.5l-2,.25a13.14,13.14,0,0,0-.38-3.52Zm.48-4.65a18.64,18.64,0,0,1-1.43,1.54h7.26c.11-.46.23-1,.34-1.54Zm2.33,4.31a15.44,15.44,0,0,1,.92,3.08l-1.81.45a16.35,16.35,0,0,0-.87-3.15Zm0-7.77c-.28.51-.59,1-.91,1.5h2.91c.11-.45.22-1,.32-1.5Zm2.11,10.32a10.85,10.85,0,0,0-1.12-2.57l1.56-.53a10,10,0,0,1,1.23,2.51Z"/><path d="M807.59,3337.32a18.83,18.83,0,0,1-1.28,6.78,23.88,23.88,0,0,1,2.23,2.38l-1.32,1.84a29.4,29.4,0,0,0-1.93-2.26,12.75,12.75,0,0,1-2.87,3.15,7,7,0,0,0-1.45-1.42,11.68,11.68,0,0,0,2.89-3.19c-.85-.9-1.75-1.73-2.51-2.47a44.5,44.5,0,0,0,.92-4.45l-1,.06-.21-2,1.5-.06c.19-1.35.32-2.7.4-3.9l2,.08c-.09,1.16-.24,2.45-.41,3.71l1.16-.06v-1.2h1.9v1.1l.93-.05v1.92Zm-2.82,5.32a16,16,0,0,0,.9-5.19l-1.45.12c-.23,1.37-.49,2.68-.76,3.87Zm11,4.45c.9,0,1.07-.44,1.2-2.4a6.45,6.45,0,0,0,1.94.82c-.29,2.68-.93,3.63-2.95,3.63h-3.63c-2.35,0-3-.67-3-3.25v-5.55l-1,.34-.55-2.1,1.52-.5v-4.73h2.05v4l1.42-.48v-5h2v4.37l1.71-.57.4-.29,1.69.55-.08.35a62.75,62.75,0,0,1-.78,8.17l-1.82-.52c.19-1.5.32-3.84.38-6l-1.5.51v6.14h-2v-5.45l-1.42.49v6.27c0,1,.15,1.18,1.17,1.18Z"/><path d="M818.6,3359.29h-4.73l1.68.41c-.4.59-.82,1.18-1.22,1.71h2.93v2h-6.12V3365h7v2h-7v2.85h-2.38v-2.85h-6.85v-2h6.85v-1.57H803v-2h2.66a11.91,11.91,0,0,0-.84-1.73l1.39-.39h-4.77v-2h7.31v-1.48h-5.37v-2h5.37v-1.71h2.38v1.71h5.58v2h-5.58v1.48h7.46Zm-6.57,2.12a18.32,18.32,0,0,0,1-2.12h-5.85a7.82,7.82,0,0,1,.87,1.78l-1.14.34Z"/><path d="M808.31,3381.57h10.1v8.61h-2.18v-.74h-5.85v.76h-2.07v-7l-.9,1.21a20.62,20.62,0,0,0-1.44-1.76v7.62h-2.22v-6.33a16.88,16.88,0,0,1-1.92,1.58,9.15,9.15,0,0,0-1.05-2.15,13.72,13.72,0,0,0,4.83-5.32h-4.14v-2h2.6a25.55,25.55,0,0,0-1.4-2.66l1.76-.76a21.61,21.61,0,0,1,1.54,2.68l-1.48.74h2.26l.38-.1,1.25.82a19.42,19.42,0,0,1-1.93,3.87c.51.4,1.33,1.13,1.86,1.6Zm10.16-8.32v1.9H808.19v-1.9Zm-.89,2.72v4.75h-8.34V3376Zm-7.2,7.41v1.25h1.88v-1.25Zm0,4.25h1.88v-1.31h-1.88Zm5.11-10h-4.26V3379h4.26Zm.74,5.72h-2v1.25h2Zm0,4.25v-1.31h-2v1.31Z"/><path d="M811.35,3408.19c.49,0,1,.06,1.52.06,1.06,0,4.71,0,6.06-.06a7.33,7.33,0,0,0-.76,2.17h-5.42c-3.47,0-5.83-.5-7.43-2.7a8.54,8.54,0,0,1-2.65,3,9.27,9.27,0,0,0-1.71-1.58,8,8,0,0,0,3.53-5.75l2.26.34c-.13.61-.29,1.18-.44,1.73a4.18,4.18,0,0,0,2.74,2.37V3403h-7.41v-2h16.75v2h-7v1.42h5.85v2h-5.85Zm5.24-8.05h-13.2v-6.6h13.2Zm-2.3-5h-8.7v1h8.7Zm0,2.45h-8.7v1h8.7Z"/><path d="M817.94,3422.33a19.15,19.15,0,0,1-3.15,4.16c.51,1.46,1.1,2.33,1.67,2.33.4,0,.62-.91.72-3.15A5.62,5.62,0,0,0,819,3427c-.36,3.33-1.06,4.16-2.79,4.16-1.39,0-2.45-1.14-3.27-3a20.11,20.11,0,0,1-3.51,2.32,10.18,10.18,0,0,0-1.5-1.82,19.67,19.67,0,0,0,4.23-2.68,35.2,35.2,0,0,1-1-5.09h-3.85V3423l2.92-.53.17,2.05-3.09.63v3.25c0,1.23-.27,1.84-1,2.2a8.15,8.15,0,0,1-3.42.44,8.51,8.51,0,0,0-.8-2.28c1.07.05,2.17,0,2.51,0s.46-.1.46-.4v-2.76c-1.22.25-2.4.5-3.4.69l-.56-2.28c1.09-.17,2.46-.38,4-.65v-2.54h-3.59v-2.15h3.59v-2.17c-1,.17-2.07.31-3,.42a8.71,8.71,0,0,0-.65-1.9,49,49,0,0,0,7.54-1.59l1.52,1.91c-1,.29-2,.54-3.09.76v2.57H811c-.15-1.71-.21-3.48-.22-5.21h2.37a46.85,46.85,0,0,0,.19,5.21h5.17v2.15h-4.94c.15,1.14.34,2.24.55,3.21a16,16,0,0,0,1.8-2.59Zm-1.39-4.18a14.67,14.67,0,0,0-2.7-3.14l1.71-1.16a16.67,16.67,0,0,1,2.82,3Z"/><path d="M818.6,3441h-4.73l1.68.41c-.4.59-.82,1.18-1.22,1.71h2.93v2h-6.12v1.58h7v2h-7v2.85h-2.38v-2.85h-6.85v-2h6.85v-1.58H803v-2h2.66a11.91,11.91,0,0,0-.84-1.73l1.39-.39h-4.77v-2h7.31v-1.48h-5.37v-2h5.37v-1.71h2.38v1.71h5.58v2h-5.58V3439h7.46Zm-6.57,2.12a18.32,18.32,0,0,0,1-2.12h-5.85a7.82,7.82,0,0,1,.87,1.78l-1.14.34Z"/><path d="M808.31,3463.27h10.1v8.61h-2.18v-.74h-5.85v.76h-2.07v-7l-.9,1.21a20.62,20.62,0,0,0-1.44-1.76v7.61h-2.22v-6.32a16.88,16.88,0,0,1-1.92,1.58,9.15,9.15,0,0,0-1.05-2.15,13.79,13.79,0,0,0,4.83-5.32h-4.14v-2h2.6a25.55,25.55,0,0,0-1.4-2.66l1.76-.76A21.61,21.61,0,0,1,806,3457l-1.48.74h2.26l.38-.1,1.25.82a19.42,19.42,0,0,1-1.93,3.87c.51.4,1.33,1.12,1.86,1.6Zm10.16-8.32v1.9H808.19V3455Zm-.89,2.72v4.75h-8.34v-4.75Zm-7.2,7.41v1.25h1.88v-1.25Zm0,4.25h1.88V3468h-1.88Zm5.11-10h-4.26v1.37h4.26Zm.74,5.72h-2v1.25h2Zm0,4.25V3468h-2v1.31Z"/><path d="M818.39,3477.52s0,.76,0,1c-.25,8.49-.46,11.51-1.24,12.52a2.52,2.52,0,0,1-1.82,1,20.3,20.3,0,0,1-3,0,5.14,5.14,0,0,0-.74-2.2c1.22.11,2.34.11,2.83.11a1,1,0,0,0,.84-.32c.55-.61.8-3.46,1-10.16H812.2a16.51,16.51,0,0,1-1.67,3,13,13,0,0,0-1.46-1.07v8.87H804v1.39h-2v-14.11h2.15a20.58,20.58,0,0,0,.55-3.06l2.47.34c-.32.95-.66,1.9-1,2.72h3v3.07a19.59,19.59,0,0,0,2.56-6.11l2.15.49a22.36,22.36,0,0,1-.74,2.41ZM807,3479.63h-3v3.08h3Zm0,8.76v-3.72h-3v3.72Zm6.31-1a39.76,39.76,0,0,0-2.64-4.38l1.77-1a44.8,44.8,0,0,1,2.79,4.22Z"/><path d="M818.77,3507.48h-2v3.31h-2.3V3510h-3.42v.59c0,1.12-.27,1.58-1,1.9a9.85,9.85,0,0,1-3.36.32A6.58,6.58,0,0,0,806,3511c.91,0,2,0,2.34,0s.47-.14.47-.48V3510H803v-1.63h5.77v-.9h-7.52v-1.72h7.52v-.82h-5.62v-1.52h5.62v-.84h-5.15v-3.76h5.15V3498H801.7v-1.78h7.08V3495h2.3v1.24h7.26V3498h-7.26v.78h5.4v3.76h-5.4v.84h5.72v2.34h2Zm-10-6.32v-.91h-3v.91Zm2.3-.91v.91h3.08v-.91Zm0,5.51h3.42v-.82h-3.42Zm3.42,1.72h-3.42v.9h3.42Z"/><path d="M807.92,3534.06c1.46-.55,2.28-1.5,2.28-2.6H810a1.64,1.64,0,0,1-1.75-1.65,1.68,1.68,0,0,1,1.8-1.65c1.3,0,2,1,2,2.75a4.79,4.79,0,0,1-3.59,4.67Z"/><path d="M807.59,3553.05a18.87,18.87,0,0,1-1.28,6.78,23.91,23.91,0,0,1,2.23,2.37l-1.32,1.85a27.61,27.61,0,0,0-1.93-2.26,12.93,12.93,0,0,1-2.87,3.15,7,7,0,0,0-1.45-1.43,11.54,11.54,0,0,0,2.89-3.19c-.85-.89-1.75-1.73-2.51-2.47a43.67,43.67,0,0,0,.92-4.44l-1,.05-.21-2,1.5,0c.19-1.35.32-2.7.4-3.9l2,.08c-.09,1.16-.24,2.45-.41,3.7l1.16-.06V3550h1.9v1.1l.93-.06V3553Zm-2.82,5.32a16.07,16.07,0,0,0,.9-5.19l-1.45.11c-.23,1.37-.49,2.68-.76,3.88Zm11,4.44c.9,0,1.07-.43,1.2-2.39a6.69,6.69,0,0,0,1.94.81c-.29,2.68-.93,3.63-2.95,3.63h-3.63c-2.35,0-3-.66-3-3.24v-5.55l-1,.34-.55-2.11,1.52-.49v-4.73h2.05v4l1.42-.47v-5h2V3552l1.71-.57.4-.28,1.69.55-.08.34a62.41,62.41,0,0,1-.78,8.17l-1.82-.51c.19-1.5.32-3.84.38-6l-1.5.52v6.13h-2v-5.45l-1.42.49v6.27c0,1,.15,1.18,1.17,1.18Z"/><path d="M804.91,3574.73a50.12,50.12,0,0,1-1.39,7.88l-2.28-.91a36.5,36.5,0,0,0,1.46-7.39Zm3.57-1.54V3582c0,.9.15,1.05,1.06,1.05h2.72c1,0,1.12-.61,1.25-3.57a7,7,0,0,0,2.13.95c-.27,3.61-.87,4.73-3.21,4.73h-3.15c-2.47,0-3.16-.76-3.16-3.16v-8.81Zm-.17-5.11a34.12,34.12,0,0,1,5.26,3.93l-1.67,1.77a32.77,32.77,0,0,0-5.13-4.16Zm8.28,5.62a35.53,35.53,0,0,1,2.45,7.07l-2.3.95a31.74,31.74,0,0,0-2.26-7.16Z"/><path d="M805.89,3596.9a12.92,12.92,0,0,0,1.32-1.82l1.33,1.23c-.61.55-1.18,1.12-1.66,1.58l1.33,1.42-1.18,1.77a24.56,24.56,0,0,0-1.48-2.13v7h-2v-6.78a14.17,14.17,0,0,1-1.79,1.77,9.21,9.21,0,0,0-1-2.24,15.15,15.15,0,0,0,4.32-5.23h-3.75v-2h3a26,26,0,0,0-1.4-2.32l1.61-1a19.58,19.58,0,0,1,1.6,2.4l-1.29.91h1.33l.36-.1,1.12.92a21.32,21.32,0,0,1-2.15,4.23v.12Zm12.85,6.63v2H807.93v-2h4.21v-1.94h-3.49v-2h3.49v-1.49h-3.6v-9.06H818v9.06h-3.76v1.49h3.9v2h-3.9v1.94Zm-8.19-10.83h1.59V3591h-1.59Zm1.59,3.53v-1.76h-1.59v1.76Zm3.75-5.26h-1.64v1.73h1.64Zm0,3.5h-1.64v1.76h1.64Z"/><path d="M807.49,3609.38a29.25,29.25,0,0,1-1.82,3.95v13h-2.28v-9.5c-.4.47-.8,1-1.18,1.37a16.42,16.42,0,0,0-1.25-2.42,19.84,19.84,0,0,0,4.33-7.1Zm11.44,14.25v2.15H806.67v-2.15h5.06v-3.82h-4v-2.13h4v-3.34h-4.64v-2.15h5.11a15,15,0,0,0-1.35-2.94l2.09-.7a14.88,14.88,0,0,1,1.5,2.94l-2,.7h6.17v2.15H814v3.34h4.1v2.13H814v3.82Z"/><path d="M817.81,3631.57a31.42,31.42,0,0,1-6.54,5.29v7.33c0,1.29-.3,1.9-1.23,2.24a12.84,12.84,0,0,1-4.13.38,8.06,8.06,0,0,0-.91-2.28c1.35.06,2.91,0,3.33,0s.57-.11.57-.44v-8.41a23.83,23.83,0,0,0,4.37-3.12h-11v-2.22h13.19l.49-.13Z"/><path d="M818.76,3656.94v2.45H801.28v-2.45Z"/><path d="M806.71,3670.58a35.61,35.61,0,0,1-1.48,3.61v13.47h-2.15v-9.73a18.2,18.2,0,0,1-1.27,1.64,16.06,16.06,0,0,0-1.06-2.45,20.17,20.17,0,0,0,3.87-7.18Zm11.61.29v16.58h-2.15v-.93H809v1.1h-2v-16.75Zm-2.15,13.69v-11.74H809v11.74Zm-2.73-7.77v1.64h1.82v5.09H810v-5.09h1.69v-1.64H809.5v-1.63h2.19v-1.94h1.75v1.94h2.29v1.63Zm.13,3.2h-1.94v2h1.94Z"/><path d="M817.46,3700.68s0,.61-.07.91c-.31,3.46-.69,5-1.29,5.62a2.66,2.66,0,0,1-1.88.74c-.67.06-1.83,0-3,0a4.4,4.4,0,0,0-.74-2.07c1.18.1,2.38.11,2.89.11a1.27,1.27,0,0,0,.84-.18c.34-.29.62-1.24.83-3.12h-5c-.95,2.45-3,4.29-7.75,5.34a6.23,6.23,0,0,0-1.18-2c3.7-.72,5.47-1.84,6.36-3.36h-5.54v-2h6.28c.08-.42.16-.86.21-1.31h-5.22v-8.12h13.66v8.12h-6.06c-.06.45-.14.87-.21,1.31Zm-12-6.25h3.34v-1.31h-3.34Zm0,3.07h3.34v-1.33h-3.34Zm9-4.38h-3.4v1.31h3.4Zm0,3.05h-3.4v1.33h3.4Z"/><path d="M818.58,3725.74V3728H801.51v-2.22h7.33v-3.82h-5.15v-2.19h5.15v-3.34h-3.93a15.17,15.17,0,0,1-1.77,2.75,17.83,17.83,0,0,0-2-1.34,16.46,16.46,0,0,0,3.36-6.8l2.34.51c-.27.91-.57,1.8-.9,2.68h2.93v-3.42h2.37v3.42h6.41v2.2h-6.41v3.34h5.68v2.19h-5.68v3.82Z"/><path d="M807.92,3749.79c1.46-.55,2.28-1.5,2.28-2.6H810a1.64,1.64,0,0,1-1.75-1.65,1.68,1.68,0,0,1,1.8-1.66c1.3,0,2,1,2,2.76a4.79,4.79,0,0,1-3.59,4.67Z"/><path d="M806.69,3772.17a16.05,16.05,0,0,1-1.59,4.77c.28.17.62.38,1.06.63,1.31.74,3.12.85,5.28.85a62.52,62.52,0,0,0,7.71-.51,9.64,9.64,0,0,0-.68,2.39c-1.54.12-4.9.23-7.12.23-2.49,0-4.11-.21-5.49-1-.8-.41-1.45-1-1.85-1s-1.14,1.23-1.65,2.26l-1.48-2.19a7.43,7.43,0,0,1,1.8-1.59,11.16,11.16,0,0,0,1.58-3.42H801.6c.5-1.13,1.07-2.64,1.56-4.13h-1.9v-2H806c-.46,1.35-1,2.87-1.5,4.18H805l.34-.06Zm-3.25-5.18c-.32-.88-1-2.26-1.4-3.29l2-.72c.48,1,1.11,2.32,1.47,3.13Zm15.14-.06H806.5v-1.75h5a13.5,13.5,0,0,0-.82-1.61l2.18-.69a15.94,15.94,0,0,1,1.13,2.06l-.76.24h5.31Zm-10.92,5.66h9.5v4.81h-9.5Zm9.33-3.32h-9.12v-1.6H817Zm-9.12.85H817v1.6h-9.12Zm1.9,5.66h5.17v-1.59h-5.17Z"/><path d="M811.35,3798.79c.49,0,1,.06,1.52.06,1.06,0,4.71,0,6.06-.06a7.33,7.33,0,0,0-.76,2.17h-5.42c-3.47,0-5.83-.5-7.43-2.7a8.54,8.54,0,0,1-2.65,3,9.63,9.63,0,0,0-1.71-1.58,8,8,0,0,0,3.53-5.75l2.26.34c-.13.61-.29,1.18-.44,1.73a4.18,4.18,0,0,0,2.74,2.37v-4.82h-7.41v-2h16.75v2h-7V3795h5.85v2h-5.85Zm5.24-8.05h-13.2v-6.6h13.2Zm-2.3-5h-8.7v1h8.7Zm0,2.45h-8.7v1h8.7Z"/><path d="M817.69,3815.09s0,.56,0,.8c-.15,3.12-.38,4.49-.85,5a2,2,0,0,1-1.43.66,14.7,14.7,0,0,1-2.39,0,4.87,4.87,0,0,0-.57-1.94,13.82,13.82,0,0,0,1.86.08.76.76,0,0,0,.63-.19c.23-.25.36-1,.49-2.66H806l-.57.44,1.44.55a10.83,10.83,0,0,1-1.5,3.36l-1.82-.8a9.75,9.75,0,0,0,1.41-2.79,16.75,16.75,0,0,1-2.42,1.31,13.29,13.29,0,0,0-1.31-1.75,11.24,11.24,0,0,0,4.71-3h-1.84v-5.66a22.59,22.59,0,0,0,4.41-1.22l1.31,1.39a27.85,27.85,0,0,1-3.71.95v.78h3.16v1.48h-3.16v.76h7.76v-.76h-3.12v-1.48h3.12v-.74H810.4v-1.52h5.49v6H808.4a10.56,10.56,0,0,1-.62.87Zm.51-9.86v3.9h-2.12v-2H803.84v2h-2.05v-3.9h6.82a6.71,6.71,0,0,0-.36-.83l2.3-.65a13.62,13.62,0,0,1,.74,1.48Zm-9.34,12.2a10.58,10.58,0,0,1,.57,3.33l-1.79.24a12.11,12.11,0,0,0-.45-3.4Zm2.22-.13a9.47,9.47,0,0,1,1,2.73l-1.68.46a10.06,10.06,0,0,0-.89-2.81Zm1.94,2.22a7.31,7.31,0,0,0-1.22-1.9l1.45-.61a6.79,6.79,0,0,1,1.31,1.83Z"/><path d="M807.59,3830.05a18.83,18.83,0,0,1-1.28,6.78,22.83,22.83,0,0,1,2.23,2.38l-1.32,1.84a27.61,27.61,0,0,0-1.93-2.26,12.93,12.93,0,0,1-2.87,3.15,6.74,6.74,0,0,0-1.45-1.42,11.71,11.71,0,0,0,2.89-3.2c-.85-.89-1.75-1.73-2.51-2.47a43.67,43.67,0,0,0,.92-4.44l-1,.06-.21-2,1.5,0c.19-1.35.32-2.7.4-3.9l2,.08c-.09,1.16-.24,2.45-.41,3.7l1.16-.05V3827h1.9v1.1l.93-.06V3830Zm-2.82,5.32a16.07,16.07,0,0,0,.9-5.19l-1.45.11c-.23,1.37-.49,2.68-.76,3.88Zm11,4.44c.9,0,1.07-.43,1.2-2.39a7,7,0,0,0,1.94.82c-.29,2.67-.93,3.62-2.95,3.62h-3.63c-2.35,0-3-.66-3-3.24v-5.55l-1,.34-.55-2.11,1.52-.49v-4.73h2.05v4l1.42-.48v-5h2V3829l1.71-.56.4-.29,1.69.55-.08.34a62.41,62.41,0,0,1-.78,8.17l-1.82-.51c.19-1.5.32-3.84.38-6l-1.5.52v6.13h-2v-5.45l-1.42.5v6.26c0,1,.15,1.18,1.17,1.18Z"/><path d="M807.92,3863.39c1.46-.55,2.28-1.5,2.28-2.6H810a1.64,1.64,0,0,1-1.75-1.65,1.68,1.68,0,0,1,1.8-1.66c1.3,0,2,1,2,2.76a4.79,4.79,0,0,1-3.59,4.67Z"/><path d="M817.69,3887.84s0,.56,0,.8c-.15,3.12-.38,4.49-.85,5a2,2,0,0,1-1.43.66,14.7,14.7,0,0,1-2.39,0,4.87,4.87,0,0,0-.57-1.94,13.82,13.82,0,0,0,1.86.08.76.76,0,0,0,.63-.19c.23-.25.36-1,.49-2.66H806l-.57.44,1.44.55a10.83,10.83,0,0,1-1.5,3.36l-1.82-.8a9.75,9.75,0,0,0,1.41-2.79,16.75,16.75,0,0,1-2.42,1.31,13.29,13.29,0,0,0-1.31-1.75,11.24,11.24,0,0,0,4.71-3h-1.84v-5.66a22.59,22.59,0,0,0,4.41-1.22l1.31,1.39a27.85,27.85,0,0,1-3.71.95v.78h3.16v1.48h-3.16v.76h7.76v-.76h-3.12v-1.48h3.12v-.74H810.4V3881h5.49v6H808.4a10.56,10.56,0,0,1-.62.87Zm.51-9.86v3.9h-2.12v-2H803.84v2h-2.05V3878h6.82a6.71,6.71,0,0,0-.36-.83l2.3-.65a13.62,13.62,0,0,1,.74,1.48Zm-9.34,12.2a10.58,10.58,0,0,1,.57,3.33l-1.79.24a12.11,12.11,0,0,0-.45-3.4Zm2.22-.13a9.47,9.47,0,0,1,1,2.73l-1.68.46a10.06,10.06,0,0,0-.89-2.81Zm1.94,2.22a7.31,7.31,0,0,0-1.22-1.9l1.45-.61a6.79,6.79,0,0,1,1.31,1.83Z"/><path d="M807.59,3902.8a18.83,18.83,0,0,1-1.28,6.78,23.88,23.88,0,0,1,2.23,2.38l-1.32,1.84a27.61,27.61,0,0,0-1.93-2.26,12.93,12.93,0,0,1-2.87,3.15,6.74,6.74,0,0,0-1.45-1.42,11.68,11.68,0,0,0,2.89-3.19c-.85-.9-1.75-1.73-2.51-2.47a44.5,44.5,0,0,0,.92-4.45l-1,.06-.21-2,1.5,0c.19-1.35.32-2.7.4-3.9l2,.08c-.09,1.16-.24,2.45-.41,3.7l1.16-.05v-1.2h1.9v1.1l.93-.06v1.92Zm-2.82,5.32a16.07,16.07,0,0,0,.9-5.19l-1.45.12c-.23,1.36-.49,2.67-.76,3.87Zm11,4.44c.9,0,1.07-.43,1.2-2.39a7,7,0,0,0,1.94.82c-.29,2.68-.93,3.63-2.95,3.63h-3.63c-2.35,0-3-.67-3-3.25v-5.55l-1,.34-.55-2.11,1.52-.49v-4.73h2.05v4l1.42-.48v-5h2v4.37l1.71-.57.4-.29,1.69.55-.08.34a62.41,62.41,0,0,1-.78,8.17l-1.82-.51c.19-1.5.32-3.84.38-6l-1.5.51v6.14h-2v-5.46l-1.42.5v6.27c0,1,.15,1.17,1.17,1.17Z"/><path d="M817.69,3928.7s0,.55,0,.79c-.15,3.12-.38,4.49-.85,5a2,2,0,0,1-1.43.66,14.7,14.7,0,0,1-2.39,0,4.87,4.87,0,0,0-.57-1.94,13.82,13.82,0,0,0,1.86.08.76.76,0,0,0,.63-.19c.23-.25.36-1,.49-2.66H806l-.57.44,1.44.55a10.83,10.83,0,0,1-1.5,3.36l-1.82-.8a9.75,9.75,0,0,0,1.41-2.79,16.75,16.75,0,0,1-2.42,1.31,13.29,13.29,0,0,0-1.31-1.75,11.24,11.24,0,0,0,4.71-3h-1.84v-5.66a21.91,21.91,0,0,0,4.41-1.22l1.31,1.39a27.85,27.85,0,0,1-3.71,1v.78h3.16v1.48h-3.16v.76h7.76v-.76h-3.12v-1.48h3.12v-.74H810.4v-1.52h5.49v6H808.4c-.19.3-.4.59-.62.88Zm.51-9.87v3.9h-2.12v-2H803.84v2h-2.05v-3.9h6.82a6.71,6.71,0,0,0-.36-.83l2.3-.65a13.62,13.62,0,0,1,.74,1.48Zm-9.34,12.2a10.58,10.58,0,0,1,.57,3.33l-1.79.24a12.11,12.11,0,0,0-.45-3.4Zm2.22-.13a9.47,9.47,0,0,1,1,2.73l-1.68.46a10.06,10.06,0,0,0-.89-2.81Zm1.94,2.22a7.31,7.31,0,0,0-1.22-1.9l1.45-.61a7.11,7.11,0,0,1,1.31,1.83Z"/><path d="M807.59,3943.65a18.83,18.83,0,0,1-1.28,6.78,23.88,23.88,0,0,1,2.23,2.38l-1.32,1.84a27.61,27.61,0,0,0-1.93-2.26,12.93,12.93,0,0,1-2.87,3.15,6.74,6.74,0,0,0-1.45-1.42,11.71,11.71,0,0,0,2.89-3.2c-.85-.89-1.75-1.72-2.51-2.46a44.5,44.5,0,0,0,.92-4.45l-1,.06-.21-2,1.5-.05c.19-1.35.32-2.7.4-3.9l2,.08c-.09,1.16-.24,2.45-.41,3.7l1.16-.05v-1.2h1.9v1.1l.93-.06v1.92Zm-2.82,5.32a16.07,16.07,0,0,0,.9-5.19l-1.45.12c-.23,1.36-.49,2.67-.76,3.87Zm11,4.44c.9,0,1.07-.43,1.2-2.39a7,7,0,0,0,1.94.82c-.29,2.67-.93,3.62-2.95,3.62h-3.63c-2.35,0-3-.66-3-3.24v-5.55l-1,.34-.55-2.11,1.52-.49v-4.73h2.05v4l1.42-.48v-5h2v4.37l1.71-.57.4-.29,1.69.55-.08.34a62.41,62.41,0,0,1-.78,8.17l-1.82-.51c.19-1.5.32-3.84.38-6l-1.5.51v6.13h-2v-5.45l-1.42.5v6.27c0,1,.15,1.17,1.17,1.17Z"/><path d="M817.69,3969.54s0,.56,0,.8c-.15,3.12-.38,4.49-.85,5a2,2,0,0,1-1.43.66,14.7,14.7,0,0,1-2.39,0,4.87,4.87,0,0,0-.57-1.94,13.82,13.82,0,0,0,1.86.08.76.76,0,0,0,.63-.19c.23-.25.36-1,.49-2.66H806l-.57.44,1.44.55a10.83,10.83,0,0,1-1.5,3.36l-1.82-.8a9.75,9.75,0,0,0,1.41-2.79,16.75,16.75,0,0,1-2.42,1.31,13.29,13.29,0,0,0-1.31-1.75,11.24,11.24,0,0,0,4.71-3h-1.84V3963a22.59,22.59,0,0,0,4.41-1.22l1.31,1.39a27.85,27.85,0,0,1-3.71,1v.78h3.16v1.48h-3.16v.76h7.76v-.76h-3.12v-1.48h3.12v-.74H810.4v-1.52h5.49v6H808.4a10.56,10.56,0,0,1-.62.87Zm.51-9.86v3.9h-2.12v-2H803.84v2h-2.05v-3.9h6.82a6.71,6.71,0,0,0-.36-.83l2.3-.65a13.62,13.62,0,0,1,.74,1.48Zm-9.34,12.2a10.58,10.58,0,0,1,.57,3.33l-1.79.24a12.11,12.11,0,0,0-.45-3.4Zm2.22-.13a9.47,9.47,0,0,1,1,2.73l-1.68.46a10.06,10.06,0,0,0-.89-2.81ZM813,3974a7.31,7.31,0,0,0-1.22-1.9l1.45-.61a6.94,6.94,0,0,1,1.31,1.83Z"/><path d="M807.59,3984.5a18.83,18.83,0,0,1-1.28,6.78,22.83,22.83,0,0,1,2.23,2.38l-1.32,1.84a27.61,27.61,0,0,0-1.93-2.26,12.93,12.93,0,0,1-2.87,3.15A6.74,6.74,0,0,0,801,3995a11.71,11.71,0,0,0,2.89-3.2c-.85-.89-1.75-1.73-2.51-2.47a43.67,43.67,0,0,0,.92-4.44l-1,.06-.21-2,1.5-.05c.19-1.35.32-2.7.4-3.9l2,.08c-.09,1.16-.24,2.45-.41,3.7l1.16-.05v-1.2h1.9v1.1l.93-.06v1.92Zm-2.82,5.32a16.07,16.07,0,0,0,.9-5.19l-1.45.12c-.23,1.36-.49,2.67-.76,3.87Zm11,4.44c.9,0,1.07-.43,1.2-2.39a7,7,0,0,0,1.94.82c-.29,2.67-.93,3.62-2.95,3.62h-3.63c-2.35,0-3-.66-3-3.24v-5.55l-1,.34-.55-2.11,1.52-.49v-4.73h2.05v4l1.42-.47v-5h2v4.37l1.71-.57.4-.29,1.69.55-.08.34a62.41,62.41,0,0,1-.78,8.17l-1.82-.51c.19-1.5.32-3.84.38-6l-1.5.52v6.13h-2v-5.45l-1.42.5v6.26c0,1.05.15,1.18,1.17,1.18Z"/></svg>