<svg id="圖層_1" data-name="圖層 1" xmlns="http://www.w3.org/2000/svg" viewBox="0 0 1620 4420.12"><defs><style>.cls-1{fill:#ffc331;}</style></defs><rect class="cls-1" width="1620" height="4420.12"/><path d="M878,75.37a18.88,18.88,0,0,1-3.16,4.16c.51,1.46,1.1,2.34,1.67,2.34.4,0,.63-.92.73-3.16A5.48,5.48,0,0,0,879.05,80c-.36,3.33-1.07,4.17-2.79,4.17-1.39,0-2.46-1.14-3.27-3a19.28,19.28,0,0,1-3.52,2.32,9.77,9.77,0,0,0-1.5-1.82A19.73,19.73,0,0,0,872.21,79a35.2,35.2,0,0,1-1-5.09h-3.86v2.16l2.93-.53.17,2-3.1.63v3.25c0,1.23-.26,1.84-1,2.2a8.15,8.15,0,0,1-3.42.44,9.41,9.41,0,0,0-.8-2.28c1.06.06,2.17,0,2.51,0s.45-.1.45-.4V78.67c-1.21.25-2.39.5-3.4.69l-.55-2.28c1.08-.17,2.45-.38,4-.65V73.89h-3.59V71.74h3.59V69.58c-1,.17-2.07.3-3,.41a8.34,8.34,0,0,0-.64-1.9A49,49,0,0,0,869,66.5l1.52,1.92c-1,.28-2,.53-3.1.76v2.56H871c-.15-1.71-.21-3.48-.23-5.2h2.38a46.75,46.75,0,0,0,.19,5.2h5.16v2.15h-4.94c.16,1.14.35,2.24.56,3.21a15.6,15.6,0,0,0,1.8-2.59Zm-1.39-4.18a15.18,15.18,0,0,0-2.7-3.13l1.71-1.16a15.9,15.9,0,0,1,2.81,3Z"/><path d="M871.35,102.08c.5,0,1,.06,1.52.06,1.07,0,4.71,0,6.06-.06a8,8,0,0,0-.76,2.17h-5.41c-3.48,0-5.83-.5-7.43-2.7a8.57,8.57,0,0,1-2.66,3A9.29,9.29,0,0,0,861,103a8,8,0,0,0,3.54-5.75l2.26.34c-.14.61-.29,1.18-.44,1.73a4.19,4.19,0,0,0,2.73,2.37V96.86h-7.4v-2H878.4v2h-7v1.42h5.85v2h-5.85Zm5.25-8H863.39V87.44H876.6Zm-2.3-5h-8.7v1h8.7Zm0,2.45h-8.7v1h8.7Z"/><path d="M867.84,108.39A19,19,0,0,1,866,111a14.38,14.38,0,0,1,1.16,6.47c0,2.64-.21,5.23-1.14,6.44a1.89,1.89,0,0,1-1.21.8,8.76,8.76,0,0,1-2.61.19,4.68,4.68,0,0,0-.62-2.34,10.62,10.62,0,0,0,2.11,0,.73.73,0,0,0,.59-.34c.38-.51.57-2.22.58-4.33a16.48,16.48,0,0,1-2.43,2.49,9.89,9.89,0,0,0-1.54-1.71,12.78,12.78,0,0,0,3.8-4,10.5,10.5,0,0,0-.38-1.75,15,15,0,0,1-1.84,1.6,9.29,9.29,0,0,0-1.56-1.5,14.08,14.08,0,0,0,2.42-2.18,10.93,10.93,0,0,0-2.17-2.36l1.69-1.31a13.46,13.46,0,0,1,1.9,1.86,16,16,0,0,0,1-1.63Zm6.82,7.94a11.65,11.65,0,0,0,4.25,6.44,10,10,0,0,0-1.38,2.19,13.85,13.85,0,0,1-4.39-6.56,12,12,0,0,1-4.62,6.6,9.82,9.82,0,0,0-1.61-1.85c4.41-3.07,4.77-8,4.77-11.34v-4.5h2.26v4.52c0,.44,0,.91,0,1.39a23.89,23.89,0,0,0,.68,2.89,31.57,31.57,0,0,0,1.69-5.48l2.38.76c-.67,2-1.47,4.16-2.13,5.59Zm-5.81.84a60.1,60.1,0,0,0-1.26-6.1l2.09-.64a55.88,55.88,0,0,1,1.46,5.94Z"/><path d="M874.66,137.44c-.19.31-.34.59-.51.84h4.18v1.65H866.59a5.75,5.75,0,0,1-.12.86H870s0,.43-.06.68c-.17,1.88-.38,2.81-.78,3.21a1.69,1.69,0,0,1-1.2.51,15.45,15.45,0,0,1-2,0,4.19,4.19,0,0,0-.44-1.61,12.42,12.42,0,0,0,1.43.07.69.69,0,0,0,.53-.15,2.86,2.86,0,0,0,.34-1.16h-1.79c-.55,1.39-1.65,2.38-3.89,3a5.26,5.26,0,0,0-1-1.48,4.48,4.48,0,0,0,2.76-1.56h-2v-1.57h2.62a5.75,5.75,0,0,0,.12-.86h-3v-1.65h4.42a4,4,0,0,0-.45-.88l1.42-.19h-3.51V133.4h13v3.81h-3.38Zm3.78-8.72v1.64h-7.35v.76h6v1.55H863v-1.55h5.78v-.76h-7.12v-1.64h7.12v-1.06h2.3v1.06Zm-12.84,7.07h8.74v-.95H865.6Zm2.22,1.42a3.47,3.47,0,0,1,.61,1.07h3.4c.15-.36.3-.76.4-1.07Zm2.94,3.33h6.79v4.8h-2.09v-.43h-2.7v.45h-2Zm2,1.54v1.29h2.7v-1.29Z"/><path d="M808.07,74.51A13.73,13.73,0,0,1,802.86,83,9.46,9.46,0,0,0,801,81.26a10.49,10.49,0,0,0,4.16-5.17h-3.69V74h4.64l.4-.09Zm10.29-1.29a46.54,46.54,0,0,1-4.61,3.69A11.73,11.73,0,0,0,819,81a8.45,8.45,0,0,0-1.58,2,13,13,0,0,1-6.13-5.87v4.35c0,1.23-.25,1.84-1.07,2.22a9.29,9.29,0,0,1-3.53.38,9.4,9.4,0,0,0-.76-2.26c.95.06,2.13.06,2.47,0s.45-.12.45-.42V72.37h-4.74V70.2h7a40.07,40.07,0,0,0-5.56-1.92l1.12-1.84a34.51,34.51,0,0,1,7,2.32l-1.22,2.11c-.32-.19-.74-.4-1.19-.61v1.58a19.9,19.9,0,0,0,1.34,3.34,24.27,24.27,0,0,0,3.63-3.5Z"/><path d="M806.49,95.66a23,23,0,0,1-1.5,4.94c.3.19.66.46,1.18.76,1.29.78,3.07.89,5.3.89a64.58,64.58,0,0,0,7.67-.49,9.14,9.14,0,0,0-.64,2.32c-1.58.09-4.92.22-7.15.22-2.52,0-4.12-.2-5.49-1-.79-.44-1.46-1.07-1.86-1.07s-1.12,1.3-1.57,2.38l-1.51-2.15a8,8,0,0,1,2-1.8,18.62,18.62,0,0,0,1.1-3.31h-2.39c.44-1.12.95-2.64,1.37-4.12h-1.71v-2h4.44c-.4,1.34-.85,2.85-1.29,4.18h.76l.34-.08Zm-3.21-5c-.21-.87-.7-2.24-1-3.28l2-.59c.36,1,.83,2.28,1.1,3.13Zm10,6.48c.48.21,1,.46,1.52.71a12.57,12.57,0,0,0,1.31-1h-3.28A9.81,9.81,0,0,1,811,98.25v1.57l2.58-.59a8.22,8.22,0,0,0,.06,1.52c-3.53.93-4.12,1.16-4.48,1.41a4.83,4.83,0,0,0-.59-1.48,1,1,0,0,0,.65-1.05v-.45A18.51,18.51,0,0,1,807,100a10.1,10.1,0,0,0-1.19-1.61A16.21,16.21,0,0,0,810,96.86h-2.45V92.64H817v3.91l1.31.84a21.75,21.75,0,0,1-2.05,1.29,19.49,19.49,0,0,1,2.23,1.37l-1.26,1.31a30.91,30.91,0,0,0-5.2-3.06Zm5.19-5.24H806.26V90.3h4.85v-.83h-3.88V87.89h3.88V86.81h2.18v1.08h4v1.58h-4v.83h5.13Zm-3.57,2.22h-5.21v1.2h5.21Z"/><path d="M818.4,110.14s0,.76,0,1c-.24,8.49-.45,11.51-1.23,12.52a2.54,2.54,0,0,1-1.83,1,20.19,20.19,0,0,1-3,0,5.36,5.36,0,0,0-.74-2.21c1.22.12,2.34.12,2.83.12a1,1,0,0,0,.84-.32c.55-.61.79-3.46,1-10.17h-4.06a16.43,16.43,0,0,1-1.67,3,14.67,14.67,0,0,0-1.47-1.06V123H804v1.39h-2V110.27h2.15a21.7,21.7,0,0,0,.55-3.06l2.47.35c-.33,1-.67,1.9-1,2.71h2.94v3.08a19.43,19.43,0,0,0,2.57-6.12l2.15.5a23.9,23.9,0,0,1-.75,2.41ZM807,112.25h-3v3.08h3Zm0,8.76v-3.73h-3V121Zm6.31-1a40.77,40.77,0,0,0-2.64-4.39l1.77-1a46.08,46.08,0,0,1,2.79,4.21Z"/><path d="M807.84,128.82a19.56,19.56,0,0,1-1.81,2.6,14.42,14.42,0,0,1,1.16,6.48c0,2.64-.21,5.22-1.14,6.44a1.93,1.93,0,0,1-1.21.8,9.47,9.47,0,0,1-2.61.19,4.65,4.65,0,0,0-.62-2.34,10.62,10.62,0,0,0,2.11,0,.73.73,0,0,0,.59-.34c.38-.52.57-2.23.58-4.34a16,16,0,0,1-2.43,2.49,9.89,9.89,0,0,0-1.54-1.71,12.74,12.74,0,0,0,3.8-4,10.5,10.5,0,0,0-.38-1.75,16,16,0,0,1-1.84,1.6,9.29,9.29,0,0,0-1.56-1.5,13.74,13.74,0,0,0,2.42-2.19,10.93,10.93,0,0,0-2.17-2.36l1.69-1.31a13.5,13.5,0,0,1,1.9,1.87,17.33,17.33,0,0,0,1-1.64Zm6.82,7.94a11.68,11.68,0,0,0,4.25,6.44,10,10,0,0,0-1.38,2.18,13.87,13.87,0,0,1-4.39-6.55,12,12,0,0,1-4.62,6.59,10.08,10.08,0,0,0-1.61-1.84c4.41-3.08,4.77-8,4.77-11.34v-4.51h2.26v4.53c0,.43,0,.91,0,1.38a23.45,23.45,0,0,0,.68,2.89,31.19,31.19,0,0,0,1.69-5.47l2.38.76c-.67,2-1.47,4.16-2.13,5.58Zm-5.81.83a60,60,0,0,0-1.26-6.09l2.09-.65a56.61,56.61,0,0,1,1.46,6Z"/><path d="M814.66,157.87c-.19.3-.34.59-.51.83h4.18v1.66H806.59a5.44,5.44,0,0,1-.12.85H810s0,.44-.06.68c-.17,1.89-.38,2.82-.78,3.22a1.74,1.74,0,0,1-1.2.51,17.53,17.53,0,0,1-2,0,4.24,4.24,0,0,0-.44-1.62,10.88,10.88,0,0,0,1.43.08.69.69,0,0,0,.53-.15,3,3,0,0,0,.34-1.16h-1.79c-.55,1.38-1.65,2.37-3.89,3a5.13,5.13,0,0,0-1-1.48,4.57,4.57,0,0,0,2.76-1.56h-2v-1.58h2.62a5.44,5.44,0,0,0,.12-.85h-3V158.7h4.42a4.21,4.21,0,0,0-.45-.87l1.42-.19h-3.51v-3.82h13v3.82h-3.38Zm3.78-8.72v1.63h-7.35v.76h6v1.56H803v-1.56h5.78v-.76h-7.12v-1.63h7.12v-1.07h2.3v1.07Zm-12.84,7.06h8.74v-1H805.6Zm2.22,1.43a3.43,3.43,0,0,1,.61,1.06h3.4c.15-.36.3-.76.4-1.06Zm2.94,3.32h6.79v4.81h-2.09v-.44h-2.7v.46h-2Zm2,1.54v1.29h2.7V162.5Z"/><path d="M811.35,183.78c.5,0,1,.06,1.52.06,1.07,0,4.71,0,6.06-.06a8,8,0,0,0-.76,2.17h-5.41c-3.48,0-5.83-.5-7.43-2.7a8.57,8.57,0,0,1-2.66,3,9.29,9.29,0,0,0-1.71-1.58,8,8,0,0,0,3.54-5.75l2.26.34c-.14.61-.29,1.18-.44,1.73a4.19,4.19,0,0,0,2.73,2.37v-4.82h-7.4v-2H818.4v2h-7V180h5.85v2h-5.85Zm5.25-8.05H803.39v-6.59H816.6Zm-2.3-5h-8.7v1h8.7Zm0,2.45h-8.7v1h8.7Z"/><path d="M818.76,196.38v2.45H801.29v-2.45Z"/><path d="M806.72,210a35.61,35.61,0,0,1-1.48,3.61V227.1h-2.15v-9.72c-.42.58-.84,1.14-1.27,1.63a16.14,16.14,0,0,0-1.07-2.45,20.18,20.18,0,0,0,3.88-7.18Zm11.61.29v16.58h-2.15V226H809v1.1H807V210.31ZM816.18,224V212.27H809V224Zm-2.74-7.77v1.63h1.83V223H810v-5.09h1.69v-1.63h-2.19V214.6h2.19v-1.94h1.74v1.94h2.3v1.64Zm.14,3.19h-1.94v2h1.94Z"/><path d="M818.46,232.39v2.16H808.3a21.36,21.36,0,0,1-2.23,3.74v9.2h-2.3v-6.61a14.54,14.54,0,0,1-1.67,1.33A16.13,16.13,0,0,0,801,240a14.3,14.3,0,0,0,4.73-5.47h-4.12v-2.16h5.13c.32-.9.61-1.77.83-2.64l2.38.57c-.21.7-.46,1.38-.72,2.07Zm-4.56,12.55h4.5V247H807v-2.09h4.6v-4.33h-3.86v-2.09h3.86v-3.15h2.28v3.15h3.76v2.09H813.9Z"/><path d="M813.1,262.84a10.3,10.3,0,0,0,.23,1.5c-2.58.71-3.65,1-4.18,1.24.7.05,1.5.07,2.32.07a64.58,64.58,0,0,0,7.67-.49,9.14,9.14,0,0,0-.64,2.32c-1.58.09-4.92.23-7.15.23-2.5,0-4.12-.21-5.49-1-.78-.44-1.46-1.07-1.86-1.07s-1.1,1.3-1.57,2.38l-1.51-2.15A7.94,7.94,0,0,1,803,264a20.62,20.62,0,0,0,1-3.27h-2.33c.45-1.14,1-2.64,1.42-4.12h-1.74v-2h4.5c-.4,1.34-.9,2.86-1.35,4.18h.68l.34-.08.95.34a25.91,25.91,0,0,1-.74,3,18.89,18.89,0,0,0,4.54-1.35h-2.83v-3.49h9.77v3.49h-.4l1.06.69c-.53.38-1.12.77-1.69,1.1.8.47,1.54.93,2,1.27l-1.1,1.39c-1-.84-3.21-2.19-4.75-3.14l1-1.17,1.37.81c.45-.3.93-.64,1.31-.95h-3.1a11,11,0,0,1-2.28,1.52v1.2Zm-9.8-8.77c-.21-.86-.72-2.23-1-3.25l2-.61c.36,1,.85,2.3,1.12,3.13Zm5.45,9a16.87,16.87,0,0,1-2,.57,7.79,7.79,0,0,0-1.12-1.48A15.57,15.57,0,0,1,805,264c.32.21.68.48,1.16.76a6.66,6.66,0,0,0,2.45.76,4.46,4.46,0,0,0-.55-1.18,1,1,0,0,0,.68-1.1Zm9.86-6.42H805.88v-1.56h12.73Zm-.87-2.15H806.83V250.7h10.91ZM809.89,252h-1.16v1.31h1.16Zm-.42,7.54h5.44v-1h-5.44Zm3.35-7.54H811.6v1.31h1.22Zm2.9,0h-1.21v1.31h1.21Z"/><path d="M804.63,279.54a15.64,15.64,0,0,0-3.52-2.07l1.18-1.69a15.49,15.49,0,0,1,3.59,1.9Zm2.24,2.59c-1,2-2.09,4.16-3.19,6l-1.94-1.48a59,59,0,0,0,3.44-6Zm-1.18-7.64a14,14,0,0,0-3.47-2.13l1.23-1.67a14,14,0,0,1,3.57,2Zm12.24,5.45a11.2,11.2,0,0,1-3.1,4.94,16.53,16.53,0,0,0,4.26,1.41,8.57,8.57,0,0,0-1.49,2,15.3,15.3,0,0,1-4.75-2,18.29,18.29,0,0,1-5.54,2,7.73,7.73,0,0,0-1.12-2,16.32,16.32,0,0,0,4.78-1.47,12.82,12.82,0,0,1-2.28-2.92l1.47-.5h-2.57v-2H816l.4-.08Zm-6.77-5.64a11.33,11.33,0,0,1-2.92,5,12.84,12.84,0,0,0-2-1.43c1.94-1.52,2.93-4.14,3.31-7.28l2.33.27c-.07.48-.15.93-.24,1.39h6.19s0,.53-.06.83c-.19,3.06-.43,4.43-.95,5a2.1,2.1,0,0,1-1.52.68,22.83,22.83,0,0,1-2.47,0,4.65,4.65,0,0,0-.66-2.09,19.47,19.47,0,0,0,2.09.12.93.93,0,0,0,.66-.19,4.7,4.7,0,0,0,.52-2.36Zm-.34,7.12a9.45,9.45,0,0,0,2,2.23,8,8,0,0,0,2-2.23Z"/><path d="M804.25,298.49v10.29h-2.2v-17h7.31v6.73Zm0-5.11v1h3v-1Zm3,3.47v-1h-3v1Zm5.57,7.66v3.91h-2v-3.91H809a6.19,6.19,0,0,1-2.43,4.25,9.47,9.47,0,0,0-1.45-1.29,4.43,4.43,0,0,0,1.94-3h-1.92v-1.84h2v-1.43h-1.73v-1.78h9.17v1.78H812.8v1.43h2.09v1.84Zm-2-1.84v-1.43h-1.77v1.43Zm7.24,3.47c0,1.16-.21,1.79-.89,2.15a6.77,6.77,0,0,1-3.12.44,8.33,8.33,0,0,0-.68-2.25c.85,0,1.78,0,2.07,0s.4-.11.4-.38v-7.6h-5.23v-6.76h7.45Zm-5.3-12.76v1h3.08v-1Zm3.08,3.51v-1.08h-3.08v1.08Z"/><path d="M808,317.14a18.64,18.64,0,0,1-1.19,6.56,27.06,27.06,0,0,1,2.08,2.07l-1.38,1.77c-.44-.52-1-1.16-1.73-1.85a12.64,12.64,0,0,1-3.25,3.5,6.93,6.93,0,0,0-1.52-1.54,11.46,11.46,0,0,0,3.21-3.44c-1-.87-1.9-1.73-2.73-2.45a42.59,42.59,0,0,0,1-4.24l-1.23.08-.21-2c.55,0,1.16,0,1.8-.08.23-1.35.42-2.72.51-3.93l2.09.13c-.13,1.16-.3,2.43-.53,3.71l1-.06v-1.22h2v1.11l.84,0,0,1.88Zm-3.4.25c-.26,1.31-.57,2.59-.85,3.71.45.36.91.76,1.36,1.15a15.64,15.64,0,0,0,.86-4.95Zm12.65,3.16a11.15,11.15,0,0,0-.47-1.26c-6.19.53-7.14.63-7.85.91-.13-.43-.47-1.52-.72-2.11.4-.11.74-.49,1.2-1.17a27.31,27.31,0,0,0,2.62-5.44l2.35.63a35,35,0,0,1-2.94,5.51l4.29-.3c-.47-.8-1-1.6-1.48-2.28l1.81-.9a21.33,21.33,0,0,1,3.13,5.36Zm-8.2.72h8.89v7.92h-2.17v-.74h-4.65v.76H809Zm2.07,2v3.21h4.65v-3.21Z"/><path d="M817.64,336.45a38.38,38.38,0,0,1-10.14,9.8,9.21,9.21,0,0,0,4.76.86,53.13,53.13,0,0,0,6.65-.46,12.49,12.49,0,0,0-.64,2.41c-1.35.1-4.22.21-6.08.21-2.34,0-3.86-.24-5.15-1-.82-.48-1.44-1.12-1.86-1.12-.59,0-1.44,1.27-2.22,2.48l-1.64-2.12c1.37-1.47,2.87-2.47,3.92-2.47h.11a33.43,33.43,0,0,0,8.4-7.37H802.29V335.4h7.41c-.46-.81-1.16-1.86-1.71-2.66l2-1.08a31.5,31.5,0,0,1,2.13,3.08l-1.16.66h4.47l.43-.11Z"/><path d="M807.08,357.1a22.15,22.15,0,0,1-1.5,2.51v10.51h-2.13v-7.89c-.4.42-.82.8-1.2,1.14a13.78,13.78,0,0,0-1.19-2.11,15.69,15.69,0,0,0,4-4.86Zm-.34-4a20.51,20.51,0,0,1-4.33,4.66,15,15,0,0,0-1.2-1.64,15.14,15.14,0,0,0,3.53-3.78Zm10.58,9.6a10.69,10.69,0,0,1-3.17,4.27,20.45,20.45,0,0,0,4.46,1.22,8.28,8.28,0,0,0-1.35,1.95,17.6,17.6,0,0,1-5.17-1.8,19.94,19.94,0,0,1-5.24,1.84,7.35,7.35,0,0,0-1.06-1.92,18.08,18.08,0,0,0,4.33-1.23,11.2,11.2,0,0,1-1.26-1.12,13.67,13.67,0,0,1-1.23,1,15.88,15.88,0,0,0-1.48-1.64c.45-.3.91-.63,1.37-1a11.51,11.51,0,0,1-1-1.68l1.84-.6a8.89,8.89,0,0,0,.51.91,11.8,11.8,0,0,0,1.32-1.83,12.54,12.54,0,0,0-3,.42,13.72,13.72,0,0,0-.66-2.05,6,6,0,0,0,2.15-.93,16.46,16.46,0,0,0,1.73-1,10,10,0,0,0-2.8.32,22.22,22.22,0,0,0-.72-2.12,3.83,3.83,0,0,0,1.27-.67,14.43,14.43,0,0,0,3.06-2.66l2.26,1a23.3,23.3,0,0,1-3,2.43l2.45,0c.72-.57,1.43-1.15,2.06-1.76l2.1,1.14a35.82,35.82,0,0,1-6,4.06l4-.21-.78-1.08L816,357a42.32,42.32,0,0,1,2.87,4.12L817,362.17a17.13,17.13,0,0,0-.88-1.53l-3.49.22c-.21.44-.44.86-.67,1.28h3.61l.36-.1Zm-6.63,1.23c-.15.19-.3.38-.46.55a11.83,11.83,0,0,0,1.9,1.47,8,8,0,0,0,2.15-2Z"/><path d="M818.4,375.67s0,.75,0,1c-.24,8.49-.45,11.51-1.23,12.52a2.54,2.54,0,0,1-1.83,1,20.19,20.19,0,0,1-3,0,5.37,5.37,0,0,0-.74-2.2c1.22.11,2.34.11,2.83.11a1,1,0,0,0,.84-.32c.55-.61.79-3.46,1-10.16h-4.06a16.77,16.77,0,0,1-1.67,3,14.59,14.59,0,0,0-1.47-1.07v8.88H804v1.38h-2V375.8h2.15a22,22,0,0,0,.55-3.06l2.47.34c-.33.95-.67,1.9-1,2.72h2.94v3.08a19.53,19.53,0,0,0,2.57-6.12l2.15.49a23.3,23.3,0,0,1-.75,2.42ZM807,377.77h-3v3.08h3Zm0,8.76v-3.72h-3v3.72Zm6.31-1a39.82,39.82,0,0,0-2.64-4.39l1.77-1a46.13,46.13,0,0,1,2.79,4.22Z"/><path d="M817.68,398.67a20.85,20.85,0,0,1-2.38,7.22,9.45,9.45,0,0,0,3.8,3.06,8.15,8.15,0,0,0-1.53,2,10.51,10.51,0,0,1-3.71-3.06,13.65,13.65,0,0,1-4.27,3,9.46,9.46,0,0,0-1.2-1.94H804v1.12h-2.09v-8.4h2.53v-2.92h-3.31v-2.11h3.31v-3.48h2.26v3.48h3.11v2.11H806.7v2.92h2.09c-.19-.15-.38-.28-.53-.38,1.69-1.84,2.73-4.88,3.25-8.13l2.31.37a29.53,29.53,0,0,1-.72,3h5.8v2.12ZM807,403.78h-3v3.06h3Zm2.15,4.72a10,10,0,0,0,3.42-2.61A21.64,21.64,0,0,1,811,401.6a10.49,10.49,0,0,1-.83,1.2c-.21-.19-.57-.52-.95-.82Zm3.23-9.83a21,21,0,0,0,1.55,5.06,17.45,17.45,0,0,0,1.45-5.06Z"/><path d="M818.78,426.05h-2v3.31h-2.3v-.78h-3.42v.59c0,1.12-.27,1.57-1,1.9a10.15,10.15,0,0,1-3.36.32,7.52,7.52,0,0,0-.74-1.79c.91,0,2,0,2.33,0s.48-.13.48-.47v-.59H803v-1.64h5.78v-.89h-7.52v-1.73h7.52v-.81h-5.62V422h5.62v-.84h-5.15v-3.76h5.15v-.78H801.7v-1.79h7.09v-1.23h2.3v1.23h7.25v1.79h-7.25v.78h5.39v3.76h-5.39V422h5.72v2.33h2Zm-10-6.32v-.92h-3v.92Zm2.3-.92v.92h3.08v-.92Zm0,5.51h3.42v-.81h-3.42Zm3.42,1.73h-3.42v.89h3.42Z"/><path d="M807.93,452.63c1.46-.55,2.27-1.5,2.27-2.6H810a1.63,1.63,0,0,1-1.74-1.65,1.68,1.68,0,0,1,1.8-1.66c1.29,0,2,1,2,2.76a4.79,4.79,0,0,1-3.59,4.67Z"/><path d="M808.07,474.07a13.73,13.73,0,0,1-5.21,8.43,9.79,9.79,0,0,0-1.82-1.69,10.44,10.44,0,0,0,4.16-5.17h-3.69v-2.13h4.64l.4-.09Zm10.29-1.3a45.13,45.13,0,0,1-4.61,3.69,11.73,11.73,0,0,0,5.28,4.1,8.45,8.45,0,0,0-1.58,2,13,13,0,0,1-6.13-5.87V481c0,1.23-.25,1.84-1.07,2.22a9.29,9.29,0,0,1-3.53.38,9.4,9.4,0,0,0-.76-2.26c.95.06,2.13.06,2.47,0s.45-.12.45-.42v-9.06h-4.74v-2.17h7a40.07,40.07,0,0,0-5.56-1.92l1.12-1.84a34.51,34.51,0,0,1,7,2.32l-1.22,2.11c-.32-.19-.74-.4-1.19-.61v1.58a19.9,19.9,0,0,0,1.34,3.34,23.78,23.78,0,0,0,3.63-3.5Z"/><path d="M806.49,495.21a23,23,0,0,1-1.5,4.94c.3.19.66.46,1.18.76,1.29.78,3.07.89,5.3.89a64.58,64.58,0,0,0,7.67-.49,9.14,9.14,0,0,0-.64,2.32c-1.58.09-4.92.23-7.15.23-2.52,0-4.12-.21-5.49-1-.79-.44-1.46-1.06-1.86-1.06s-1.12,1.29-1.57,2.37L800.92,502a8,8,0,0,1,2-1.8,18.62,18.62,0,0,0,1.1-3.31h-2.39c.44-1.12.95-2.64,1.37-4.12h-1.71v-2h4.44c-.4,1.35-.85,2.85-1.29,4.18h.76l.34-.08Zm-3.21-5c-.21-.87-.7-2.24-1-3.28l2-.59c.36,1,.83,2.28,1.1,3.13Zm10,6.48c.48.21,1,.46,1.52.71a12.57,12.57,0,0,0,1.31-1h-3.28A9.81,9.81,0,0,1,811,497.8v1.57l2.58-.59a8.22,8.22,0,0,0,.06,1.52c-3.53.93-4.12,1.16-4.48,1.41a4.83,4.83,0,0,0-.59-1.48,1,1,0,0,0,.65-1.05v-.45a16.92,16.92,0,0,1-2.21.81,10.1,10.1,0,0,0-1.19-1.61,16.21,16.21,0,0,0,4.19-1.52h-2.45v-4.22H817v3.91l1.31.84a21.75,21.75,0,0,1-2.05,1.29,19.49,19.49,0,0,1,2.23,1.37l-1.26,1.31a30.91,30.91,0,0,0-5.2-3.06Zm5.19-5.24H806.26v-1.62h4.85V489h-3.88v-1.58h3.88v-1.08h2.18v1.08h4V489h-4v.83h5.13Zm-3.57,2.22h-5.21v1.2h5.21Z"/><path d="M818.4,509.69s0,.76,0,1c-.24,8.49-.45,11.51-1.23,12.52a2.54,2.54,0,0,1-1.83,1,20.19,20.19,0,0,1-3,0,5.27,5.27,0,0,0-.74-2.2c1.22.11,2.34.11,2.83.11a1,1,0,0,0,.84-.32c.55-.61.79-3.46,1-10.17h-4.06a16.43,16.43,0,0,1-1.67,3,14.67,14.67,0,0,0-1.47-1.06v8.87H804v1.39h-2V509.82h2.15a21.7,21.7,0,0,0,.55-3.06l2.47.35c-.33.95-.67,1.9-1,2.71h2.94v3.08a19.33,19.33,0,0,0,2.57-6.12l2.15.5a23.9,23.9,0,0,1-.75,2.41ZM807,511.8h-3v3.08h3Zm0,8.76v-3.73h-3v3.73Zm6.31-1a40.77,40.77,0,0,0-2.64-4.39l1.77-1a46.08,46.08,0,0,1,2.79,4.21Z"/><path d="M807.84,528.37A19.56,19.56,0,0,1,806,531a14.42,14.42,0,0,1,1.16,6.48c0,2.64-.21,5.22-1.14,6.44a1.93,1.93,0,0,1-1.21.8,8.76,8.76,0,0,1-2.61.19,4.65,4.65,0,0,0-.62-2.34,10.62,10.62,0,0,0,2.11,0,.73.73,0,0,0,.59-.34c.38-.52.57-2.23.58-4.33a16.39,16.39,0,0,1-2.43,2.48,9.48,9.48,0,0,0-1.54-1.7,12.78,12.78,0,0,0,3.8-4,10.5,10.5,0,0,0-.38-1.75,16,16,0,0,1-1.84,1.6,9.29,9.29,0,0,0-1.56-1.5,13.74,13.74,0,0,0,2.42-2.19,11.17,11.17,0,0,0-2.17-2.36l1.69-1.31a13.5,13.5,0,0,1,1.9,1.87,17.33,17.33,0,0,0,1-1.64Zm6.82,7.94a11.65,11.65,0,0,0,4.25,6.44,10,10,0,0,0-1.38,2.18,13.87,13.87,0,0,1-4.39-6.55,12,12,0,0,1-4.62,6.59,10.08,10.08,0,0,0-1.61-1.84c4.41-3.08,4.77-8,4.77-11.34v-4.5h2.26v4.52c0,.43,0,.91,0,1.38a23.45,23.45,0,0,0,.68,2.89,31.19,31.19,0,0,0,1.69-5.47l2.38.76c-.67,2-1.47,4.16-2.13,5.59Zm-5.81.83a60,60,0,0,0-1.26-6.09l2.09-.65a56.61,56.61,0,0,1,1.46,6Z"/><path d="M814.66,557.42c-.19.3-.34.59-.51.83h4.18v1.66H806.59a5.44,5.44,0,0,1-.12.85H810s0,.44-.06.69c-.17,1.88-.38,2.81-.78,3.21a1.74,1.74,0,0,1-1.2.51,15.45,15.45,0,0,1-2,0,4.24,4.24,0,0,0-.44-1.62,10.88,10.88,0,0,0,1.43.08.69.69,0,0,0,.53-.15,3,3,0,0,0,.34-1.16h-1.79c-.55,1.38-1.65,2.37-3.89,3a5.13,5.13,0,0,0-1-1.48,4.53,4.53,0,0,0,2.76-1.56h-2v-1.58h2.62a5.44,5.44,0,0,0,.12-.85h-3v-1.66h4.42a4.21,4.21,0,0,0-.45-.87l1.42-.19h-3.51v-3.82h13v3.82h-3.38Zm3.78-8.72v1.63h-7.35v.76h6v1.56H803v-1.56h5.78v-.76h-7.12V548.7h7.12v-1.07h2.3v1.07Zm-12.84,7.06h8.74v-.94H805.6Zm2.22,1.43a3.43,3.43,0,0,1,.61,1.06h3.4c.15-.36.3-.76.4-1.06Zm2.94,3.32h6.79v4.81h-2.09v-.44h-2.7v.46h-2Zm2,1.54v1.29h2.7v-1.29Z"/><path d="M811.35,583.33c.5,0,1,.06,1.52.06,1.07,0,4.71,0,6.06-.06a8.06,8.06,0,0,0-.76,2.17h-5.41c-3.48,0-5.83-.5-7.43-2.7a8.57,8.57,0,0,1-2.66,3,8.92,8.92,0,0,0-1.71-1.57,8.06,8.06,0,0,0,3.54-5.76l2.26.34c-.14.61-.29,1.18-.44,1.73a4.19,4.19,0,0,0,2.73,2.37v-4.82h-7.4v-2H818.4v2h-7v1.42h5.85v2h-5.85Zm5.25-8.05H803.39v-6.59H816.6Zm-2.3-5h-8.7v1h8.7Zm0,2.45h-8.7v1h8.7Z"/><path d="M818.76,595.93v2.45H801.29v-2.45Z"/><path d="M806.72,609.57a35.61,35.61,0,0,1-1.48,3.61v13.47h-2.15v-9.72c-.42.58-.84,1.14-1.27,1.63a16.14,16.14,0,0,0-1.07-2.45,20.18,20.18,0,0,0,3.88-7.18Zm11.61.29v16.58h-2.15v-.93H809v1.1H807V609.86Zm-2.15,13.7V611.82H809v11.74Zm-2.74-7.77v1.63h1.83v5.09H810v-5.09h1.69v-1.63h-2.19v-1.64h2.19v-1.94h1.74v1.94h2.3v1.64Zm.14,3.19h-1.94v2h1.94Z"/><path d="M814,644.29c2,0,2.26-.5,2.55-3.25a8.2,8.2,0,0,0,2.28.87c-.44,3.57-1.27,4.62-4.73,4.62h-6.29c-3.67,0-4.79-.73-4.79-3.59v-8.86h2.34v2.59H814v-4H802.27v-2.24h14.08v9.4H814v-.89h-8.62v4.05c0,1.17.34,1.35,2.43,1.35Z"/><path d="M806.87,661.52c0-.23-.09-.51-.15-.82-3.8.57-4.49.7-4.9.91-.12-.4-.46-1.4-.71-2a3.24,3.24,0,0,0,1.49-1.24c.22-.26.66-.81,1.19-1.57a7.47,7.47,0,0,0-2.12.41c-.12-.4-.44-1.34-.67-1.86.38-.11.7-.47,1.08-1a21.35,21.35,0,0,0,2.26-4.68l2,.82a26.78,26.78,0,0,1-2.55,4.54l1.26-.09a27.44,27.44,0,0,0,1.27-2.47l1.86,1.14a34.51,34.51,0,0,1-3.87,5.66l2-.25c-.13-.51-.3-1-.45-1.48l1.61-.51a26.64,26.64,0,0,1,1.18,3.91Zm-3.17,1a23,23,0,0,1-.88,4.86,12.58,12.58,0,0,0-1.76-.65,16.8,16.8,0,0,0,.79-4.5Zm1.94-.33c.22,1.28.45,2.85.51,3.92l-1.73.34a34.45,34.45,0,0,0-.4-3.93Zm1.88-.59a26,26,0,0,1,.87,2.89l-1.6.57a21.83,21.83,0,0,0-.81-3ZM818.86,665v2.07H808V665h4.29v-2.63h-3.42v-2h9.22v2h-3.52V665ZM812,653.31c-.57,1-1.22,2.05-1.83,3a20,20,0,0,1,2,3l-1.8.7a19.71,19.71,0,0,0-2.25-3.71,29.43,29.43,0,0,0,2-3.43Zm6.63-.76H808.41v-2h10.24Zm-5.07,7.37a20.35,20.35,0,0,0-2.3-3.66,30.58,30.58,0,0,0,2-3.37l1.9.44c-.57,1-1.23,2-1.82,2.91a21.84,21.84,0,0,1,2,2.94Zm3.34.08a19.08,19.08,0,0,0-2.51-3.71,28.27,28.27,0,0,0,2.09-3.43l1.94.45c-.59,1-1.27,2.05-1.9,3a21,21,0,0,1,2.17,3Z"/><path d="M808.33,674.78a22.82,22.82,0,0,1-2.3,3.9v9.19h-2.28v-6.63a17.5,17.5,0,0,1-1.78,1.41,18.08,18.08,0,0,0-1.06-2.17,14.84,14.84,0,0,0,4.86-5.7h-4.18v-2.16h5.15c.3-.84.57-1.66.78-2.47l2.35.57c-.19.64-.42,1.25-.64,1.9h9.23v2.16Zm10.41,8.36h-4.5v2.38c0,1.14-.19,1.72-1,2.07a10.08,10.08,0,0,1-3.43.32,8.89,8.89,0,0,0-.63-2.17c1,.06,2.07.06,2.37.06s.42-.09.42-.34v-2.32h-4.82V681H812V679.7a13,13,0,0,0,1.81-1.4h-5.15v-2h7.22l.47-.13,1.43,1.16a23,23,0,0,1-3.5,3V681h4.5Z"/><path d="M818.46,693.21v2.17H808.3a21.73,21.73,0,0,1-2.23,3.74v9.19h-2.3V701.7A12.66,12.66,0,0,1,802.1,703a16.61,16.61,0,0,0-1.12-2.18,14.37,14.37,0,0,0,4.73-5.47h-4.12v-2.17h5.13a27.64,27.64,0,0,0,.83-2.64l2.38.57c-.21.7-.46,1.39-.72,2.07Zm-4.56,12.56h4.5v2.09H807v-2.09h4.6v-4.33h-3.86v-2.09h3.86v-3.16h2.28v3.16h3.76v2.09H813.9Z"/><path d="M806.49,719.89a23.79,23.79,0,0,1-1.48,4.94c.3.19.66.45,1.16.76,1.31.78,3.09.89,5.32.89a65.47,65.47,0,0,0,7.69-.49,7.66,7.66,0,0,0-.66,2.31c-1.56.1-4.93.23-7.15.23-2.52,0-4.12-.21-5.49-1-.8-.43-1.48-1.06-1.86-1.06s-1.12,1.29-1.59,2.37l-1.51-2.14a8.7,8.7,0,0,1,2-1.83,17.76,17.76,0,0,0,1.1-3.28h-2.39c.43-1.12.93-2.64,1.36-4.12h-1.7v-2h4.44c-.4,1.33-.85,2.85-1.31,4.18h.78l.34-.08Zm-3.19-5c-.21-.85-.72-2.22-1-3.27l2-.61c.36,1,.85,2.3,1.12,3.16Zm5.58,10.75h-2v-8.26h1.4v-5.81h8.19v5.81h1.39v6.34c0,.9-.15,1.37-.74,1.68a5.53,5.53,0,0,1-2.36.3,6,6,0,0,0-.49-1.63h-2.85v.59h-1.62v-4.79h5V724h.78c.21,0,.27-.05.27-.24v-4.62h-7Zm1.41-8.26h1.06v-3h3.14v-1.16h-4.2Zm2.89,3.93h-1.71v1.33h1.71Zm1.31-5.51H813v1.58h1.5Z"/><path d="M818.4,734.37s0,.76,0,1c-.24,8.49-.45,11.51-1.23,12.52a2.58,2.58,0,0,1-1.83,1.05,21.89,21.89,0,0,1-3,0,5.37,5.37,0,0,0-.74-2.2c1.22.11,2.34.11,2.83.11a1,1,0,0,0,.84-.32c.55-.61.79-3.46,1-10.16h-4.06a16.77,16.77,0,0,1-1.67,3,13.23,13.23,0,0,0-1.47-1.06v8.87H804v1.38h-2V734.5h2.15a22,22,0,0,0,.55-3.06l2.47.34c-.33,1-.67,1.9-1,2.72h2.94v3.08a19.53,19.53,0,0,0,2.57-6.12l2.15.49a23.3,23.3,0,0,1-.75,2.42ZM807,736.47h-3v3.08h3Zm0,8.76v-3.72h-3v3.72Zm6.31-1a40.77,40.77,0,0,0-2.64-4.39l1.77-1a46.13,46.13,0,0,1,2.79,4.22Z"/><path d="M817.68,757.37a20.85,20.85,0,0,1-2.38,7.22,9.45,9.45,0,0,0,3.8,3.06,8.15,8.15,0,0,0-1.53,2,10.51,10.51,0,0,1-3.71-3.06,13.65,13.65,0,0,1-4.27,3,9.46,9.46,0,0,0-1.2-1.94H804v1.12h-2.09v-8.39h2.53v-2.93h-3.31v-2.11h3.31v-3.48h2.26v3.48h3.11v2.11H806.7v2.93h2.09a4.2,4.2,0,0,0-.53-.38c1.69-1.85,2.73-4.89,3.25-8.14l2.31.37a29.53,29.53,0,0,1-.72,3h5.8v2.12ZM807,762.48h-3v3.06h3Zm2.15,4.72a10,10,0,0,0,3.42-2.61A21.64,21.64,0,0,1,811,760.3a10.49,10.49,0,0,1-.83,1.2c-.21-.19-.57-.52-.95-.82Zm3.23-9.83a21,21,0,0,0,1.55,5.06,17.45,17.45,0,0,0,1.45-5.06Z"/><path d="M818.78,784.75h-2v3.31h-2.3v-.78h-3.42v.59c0,1.12-.27,1.57-1,1.9a10.15,10.15,0,0,1-3.36.32,7.52,7.52,0,0,0-.74-1.79c.91,0,2,0,2.33,0s.48-.13.48-.47v-.59H803v-1.63h5.78v-.9h-7.52V783h7.52v-.81h-5.62v-1.52h5.62v-.84h-5.15v-3.76h5.15v-.78H801.7v-1.78h7.09v-1.24h2.3v1.24h7.25v1.78h-7.25v.78h5.39v3.76h-5.39v.84h5.72V783h2Zm-10-6.32v-.92h-3v.92Zm2.3-.92v.92h3.08v-.92Zm0,5.51h3.42v-.81h-3.42Zm3.42,1.73h-3.42v.9h3.42Z"/><path d="M807.93,811.33c1.46-.55,2.27-1.5,2.27-2.6H810a1.63,1.63,0,0,1-1.74-1.65,1.68,1.68,0,0,1,1.8-1.66c1.29,0,2,1,2,2.76a4.79,4.79,0,0,1-3.59,4.67Z"/><path d="M811,827.9v1.64h6.77v10.52c0,1.05-.23,1.56-.93,1.88a7.69,7.69,0,0,1-3,.34,7.86,7.86,0,0,0-.72-1.92c.82,0,1.77,0,2,0s.38-.09.38-.36v-1.27a4.87,4.87,0,0,0-1,.72,6.56,6.56,0,0,1-1.1-2.36,7.94,7.94,0,0,1-1.3,2.36,7.82,7.82,0,0,0-1.14-.84v3.65h-2.14V839a5.45,5.45,0,0,0-.73.64,6.81,6.81,0,0,1-1.15-2.43,7.46,7.46,0,0,1-1.43,2.49,6.1,6.1,0,0,0-1-.78v3.42h-2.16V829.54h6.46V827.9h-7.09v-2.22h16.59v2.22Zm-3.25,4.64a10.47,10.47,0,0,0,1.11,5.53v-6.43h-4.3v7a8.43,8.43,0,0,0,1.73-4.58h-1v-1.5Zm3.25-.9v7a9.08,9.08,0,0,0,1.77-4.58h-1v-1.5h2.49c0,2.09.11,4.12,1.27,5.81v-6.71Z"/><path d="M806.72,845.72a35.61,35.61,0,0,1-1.48,3.61V862.8h-2.15v-9.72a20.52,20.52,0,0,1-1.27,1.63,16.14,16.14,0,0,0-1.07-2.45,20.18,20.18,0,0,0,3.88-7.18Zm11.61.29v16.58h-2.15v-.93H809v1.1H807V846Zm-2.15,13.7V848H809v11.74Zm-2.74-7.77v1.63h1.83v5.09H810v-5.09h1.69v-1.63h-2.19V850.3h2.19v-1.93h1.74v1.93h2.3v1.64Zm.14,3.19h-1.94v2h1.94Z"/><path d="M817.68,871a20.86,20.86,0,0,1-2.38,7.21,9.45,9.45,0,0,0,3.8,3.06,8.15,8.15,0,0,0-1.53,2,10.51,10.51,0,0,1-3.71-3.06,13.5,13.5,0,0,1-4.27,3,9.46,9.46,0,0,0-1.2-1.94H804v1.12h-2.09V874h2.53v-2.93h-3.31v-2.11h3.31v-3.47h2.26v3.47h3.11v2.11H806.7V874h2.09a5.54,5.54,0,0,0-.53-.38c1.69-1.85,2.73-4.89,3.25-8.13l2.31.36a29.53,29.53,0,0,1-.72,3h5.8V871ZM807,876.09h-3v3h3Zm2.15,4.71a10,10,0,0,0,3.42-2.61A21.64,21.64,0,0,1,811,873.9a9.68,9.68,0,0,1-.83,1.2c-.21-.19-.57-.52-.95-.82Zm3.23-9.82a21,21,0,0,0,1.55,5,17.47,17.47,0,0,0,1.45-5Z"/><path d="M818.78,898.35h-2v3.31h-2.3v-.78h-3.42v.59c0,1.12-.27,1.57-1,1.9a10.15,10.15,0,0,1-3.36.32,7.29,7.29,0,0,0-.74-1.78c.91,0,2,0,2.33,0s.48-.13.48-.47v-.59H803v-1.63h5.78v-.9h-7.52v-1.73h7.52v-.81h-5.62v-1.52h5.62v-.84h-5.15v-3.76h5.15v-.78H801.7v-1.78h7.09v-1.24h2.3v1.24h7.25v1.78h-7.25v.78h5.39v3.76h-5.39v.84h5.72v2.33h2Zm-10-6.32v-.91h-3V892Zm2.3-.91V892h3.08v-.91Zm0,5.5h3.42v-.81h-3.42Zm3.42,1.73h-3.42v.9h3.42Z"/><path d="M819,908.31c-.68,1.82-1.52,4-2.3,5.64a6.07,6.07,0,0,1,1.94,4.41c0,1.42-.3,2.36-1.06,2.85a2.81,2.81,0,0,1-1.33.51,9,9,0,0,1-1.66,0,5.52,5.52,0,0,0-.57-2.18,10.17,10.17,0,0,0,1.2,0,1.47,1.47,0,0,0,.76-.17c.36-.21.49-.66.49-1.29a5.45,5.45,0,0,0-2-3.89c.55-1.37,1.19-3.29,1.67-4.75h-2.41V924h-2.23V907.78a23.22,23.22,0,0,1-2,4.05h1.41v2h-2.83c-.4.49-.8.93-1.22,1.39h3.42v8.56h-2.15V923h-3.06v1H803v-5.75c-.32.21-.64.39-.95.57a10.64,10.64,0,0,0-1.31-1.88,17.78,17.78,0,0,0,4.54-3.14h-4v-2h3.3v-1.56h-2.49v-1.94h2.49v-1.84h2.09v1.84h2v1a19.55,19.55,0,0,0,.93-2.13l2,.55v-.36H817l.35-.08ZM808.14,917h-3.06v1.22h3.06Zm0,4.26v-1.35h-3.06v1.35Zm-1.1-9.4c.36-.5.7-1,1.05-1.56h-1.43v1.56Z"/><path d="M809.51,942.39c0,.94-.17,1.41-.8,1.71a6.45,6.45,0,0,1-2.62.33,6.17,6.17,0,0,0-.68-1.77c.68,0,1.42,0,1.65,0s.32-.08.32-.32v-1.94c-1,.68-1.9,1.33-2.75,1.88l-.48-1.33a8.3,8.3,0,0,1-1.35,3.57,9,9,0,0,0-1.57-1.52c1-1.48,1.08-3.57,1.08-5.22v-4.28h7.2Zm-1.06-14.24a41.93,41.93,0,0,1,2.26,4.37l-2,.79c-.11-.34-.28-.74-.47-1.19-4.81.47-5.59.59-6.14.81-.11-.43-.47-1.46-.7-2a2.14,2.14,0,0,0,1-.76,16,16,0,0,0,2.24-3.38l2.28.65a21.19,21.19,0,0,1-2.33,3.15l2.77-.21c-.28-.55-.55-1.08-.8-1.54Zm-4.05,9.68a24,24,0,0,1-.13,2.44c.85-.38,2-.95,3.11-1.56v-.63l-.91.89c-.47-.49-1.35-1.23-2.07-1.82Zm0-2.39v1.35l1-.82c.65.46,1.46,1.12,2,1.62v-2.15Zm9.39-.32c-2.28,0-2.89-.84-2.89-3v-5.39h2.24V929h4.67V931h-4.67v1.25c0,.7.11,1,.72,1h2.78a10.26,10.26,0,0,0,1.74-.15c0,.59.14,1.4.21,1.92a7.77,7.77,0,0,1-1.92.17Zm2.39,7.26c.64,0,.78-.33.87-2.08a6,6,0,0,0,2,.82c-.23,2.49-.82,3.23-2.62,3.23h-2.7c-2.24,0-2.79-.66-2.79-2.73v-6h2.24v1.9H818v2h-4.81v2.08c0,.66.13.76.87.76Z"/><path d="M808.26,951.57a12.42,12.42,0,0,1-.76,1.5h8.83v9.39c0,1.12-.21,1.73-1,2.07a8.36,8.36,0,0,1-3.36.38,9.39,9.39,0,0,0-.68-2.19c1,.06,2.07.06,2.39.06s.44-.11.44-.38v-1.14H807a6.63,6.63,0,0,1-2.1,3.78,8.16,8.16,0,0,0-1.64-1.73c1.64-1.42,1.77-3.45,1.77-5.22v-1.54a15.09,15.09,0,0,1-2.36,2.07,13,13,0,0,0-1.48-1.75,14.33,14.33,0,0,0,4.56-5.3h-4.12v-2.12h5.09c.3-.78.55-1.54.76-2.3l2.34.53c-.19.59-.4,1.18-.61,1.77h9.27v2.12Zm5.87,7.81v-1.23h-6.82c0,.39,0,.79,0,1.23Zm0-4.31h-6.82v1.19h6.82Z"/><path d="M817,970V985.3h-2.42v-.93h-9v1h-2.3V970h4.86a22.61,22.61,0,0,0,.52-2.49l2.73.31c-.28.76-.59,1.5-.89,2.18Zm-11.44,2.17v1.95h9v-1.95Zm0,4v2h9v-2Zm9,6v-2h-9v2Z"/><path d="M814.11,1003.16c1.9,0,2.16-.48,2.41-3.21a8.52,8.52,0,0,0,2.3.85c-.42,3.63-1.25,4.62-4.65,4.62H808c-3.55,0-4.71-.69-4.71-3.4v-6.84h10.83v-3.76H803.07V989.1h13.47v9.38h-2.41V997.4h-8.48V1002c0,1,.35,1.18,2.38,1.18Z"/><path d="M818.4,1011.37s0,.76,0,1c-.24,8.49-.45,11.51-1.23,12.52a2.58,2.58,0,0,1-1.83,1,21.89,21.89,0,0,1-3,0,5.37,5.37,0,0,0-.74-2.2c1.22.11,2.34.11,2.83.11a1,1,0,0,0,.84-.32c.55-.61.79-3.46,1-10.16h-4.06a16.77,16.77,0,0,1-1.67,3,13.23,13.23,0,0,0-1.47-1.06v8.87H804v1.38h-2V1011.5h2.15a22,22,0,0,0,.55-3.06l2.47.34c-.33,1-.67,1.9-1,2.72h2.94v3.08a19.53,19.53,0,0,0,2.57-6.12l2.15.49a23.3,23.3,0,0,1-.75,2.42Zm-11.38,2.1h-3v3.08h3Zm0,8.76v-3.72h-3v3.72Zm6.31-1a40.77,40.77,0,0,0-2.64-4.39l1.77-1a46.13,46.13,0,0,1,2.79,4.22Z"/><path d="M809.45,1032.89c-.28,3.19-1.25,4.83-6.74,5.55a5.19,5.19,0,0,0-1.06-1.86c4.61-.46,5.3-1.43,5.49-3.69h-3.2v2.59h-2.22v-4.64h7c-.19-.51-.38-1-.59-1.48l2.38-.67c.34.67.74,1.47,1,2.15h6.78v4.28h-2.36v-2.23h-2.68v2.3c0,.53.1.72.67.72h2.83a10,10,0,0,0,1.8-.13c.06.59.12,1.46.19,2a7.87,7.87,0,0,1-1.92.15h-2.94c-2.26,0-2.87-.72-2.87-2.78v-2.26Zm1.87,11.19h7v2.13H801.74v-2.13h7.18V1041h-5v-2.09h12.65V1041h-5.2Z"/><path d="M804.29,1056.87V1067h-2.24v-17h7.27v6.86Zm0-5.22v1h2.92v-1Zm2.92,3.6v-1.08h-2.92v1.08Zm10.87,9.11c0,1.21-.25,1.88-1,2.24a8.23,8.23,0,0,1-3.48.43,7.87,7.87,0,0,0-.49-1.76h-4.71v1h-2V1058h7.31v6.74c.74,0,1.45,0,1.69,0s.46-.11.46-.41v-7.43h-5.17V1050h7.45Zm-9.69-4.68v1.14h3.13v-1.14Zm3.13,3.93v-1.17h-3.13v1.17Zm1.26-12v1h3v-1Zm3,3.64v-1.12h-3v1.12Z"/><path d="M807.93,1088.33c1.46-.55,2.27-1.5,2.27-2.6H810a1.63,1.63,0,0,1-1.74-1.65,1.68,1.68,0,0,1,1.8-1.66c1.29,0,2,1,2,2.76a4.79,4.79,0,0,1-3.59,4.67Z"/><path d="M811,1104.9v1.64h6.77v10.52c0,1-.23,1.56-.93,1.88a7.69,7.69,0,0,1-3,.34,7.64,7.64,0,0,0-.72-1.91c.82,0,1.77,0,2,0s.38-.09.38-.36v-1.27a4.87,4.87,0,0,0-1,.72,6.59,6.59,0,0,1-1.1-2.35,8,8,0,0,1-1.3,2.35,7.78,7.78,0,0,0-1.14-.83v3.64h-2.14V1116a5.45,5.45,0,0,0-.73.65,6.94,6.94,0,0,1-1.15-2.44,7.46,7.46,0,0,1-1.43,2.49,6.1,6.1,0,0,0-1-.78v3.42h-2.16v-12.76h6.46v-1.64h-7.09v-2.22h16.59v2.22Zm-3.25,4.64a10.45,10.45,0,0,0,1.11,5.53v-6.42h-4.3v7a8.43,8.43,0,0,0,1.73-4.58h-1v-1.5Zm3.25-.89v7a9,9,0,0,0,1.77-4.58h-1v-1.5h2.49c0,2.09.11,4.12,1.27,5.81v-6.7Z"/><path d="M806.72,1122.73a36.42,36.42,0,0,1-1.48,3.6v13.47h-2.15v-9.72a20.52,20.52,0,0,1-1.27,1.63,16.14,16.14,0,0,0-1.07-2.45,20.18,20.18,0,0,0,3.88-7.18Zm11.61.28v16.58h-2.15v-.93H809v1.11H807V1123Zm-2.15,13.7V1125H809v11.74Zm-2.74-7.77v1.63h1.83v5.09H810v-5.09h1.69v-1.63h-2.19v-1.64h2.19v-1.93h1.74v1.93h2.3v1.64Zm.14,3.19h-1.94v2h1.94Z"/><path d="M817.68,1148a20.86,20.86,0,0,1-2.38,7.21,9.45,9.45,0,0,0,3.8,3.06,8.15,8.15,0,0,0-1.53,2,10.51,10.51,0,0,1-3.71-3.06,13.5,13.5,0,0,1-4.27,3,9.46,9.46,0,0,0-1.2-1.94H804v1.12h-2.09V1151h2.53v-2.93h-3.31v-2.11h3.31v-3.47h2.26v3.47h3.11v2.11H806.7V1151h2.09a5.54,5.54,0,0,0-.53-.38c1.69-1.85,2.73-4.89,3.25-8.13l2.31.36a29.53,29.53,0,0,1-.72,3h5.8V1148ZM807,1153.09h-3v3.05h3Zm2.15,4.71a10,10,0,0,0,3.42-2.61,21.64,21.64,0,0,1-1.64-4.29,9.68,9.68,0,0,1-.83,1.2c-.21-.19-.57-.52-.95-.82Zm3.23-9.82a21,21,0,0,0,1.55,5,17.47,17.47,0,0,0,1.45-5Z"/><path d="M818.78,1175.35h-2v3.31h-2.3v-.78h-3.42v.59c0,1.12-.27,1.57-1,1.9a10.15,10.15,0,0,1-3.36.32,7.29,7.29,0,0,0-.74-1.78c.91,0,2,0,2.33,0s.48-.13.48-.47v-.59H803v-1.63h5.78v-.9h-7.52v-1.73h7.52v-.81h-5.62v-1.52h5.62v-.84h-5.15v-3.76h5.15v-.78H801.7v-1.78h7.09v-1.24h2.3v1.24h7.25v1.78h-7.25v.78h5.39v3.76h-5.39v.84h5.72v2.33h2Zm-10-6.32v-.91h-3v.91Zm2.3-.91v.91h3.08v-.91Zm0,5.5h3.42v-.81h-3.42Zm3.42,1.73h-3.42v.9h3.42Z"/><path d="M819,1185.31c-.68,1.82-1.52,4-2.3,5.64a6.07,6.07,0,0,1,1.94,4.41c0,1.42-.3,2.36-1.06,2.85a2.81,2.81,0,0,1-1.33.51,9,9,0,0,1-1.66,0,5.52,5.52,0,0,0-.57-2.18,10.17,10.17,0,0,0,1.2,0,1.47,1.47,0,0,0,.76-.17c.36-.21.49-.66.49-1.29a5.45,5.45,0,0,0-2-3.89c.55-1.37,1.19-3.29,1.67-4.75h-2.41V1201h-2.23v-16.26a23.22,23.22,0,0,1-2,4h1.41v2h-2.83c-.4.49-.8.93-1.22,1.39h3.42v8.56h-2.15V1200h-3.06v1H803v-5.75c-.32.21-.64.39-.95.57a10.64,10.64,0,0,0-1.31-1.88,17.78,17.78,0,0,0,4.54-3.14h-4v-2h3.3v-1.56h-2.49v-1.94h2.49v-1.84h2.09v1.84h2v1a19.55,19.55,0,0,0,.93-2.13l2,.55v-.36H817l.35-.08ZM808.14,1194h-3.06v1.22h3.06Zm0,4.26v-1.35h-3.06v1.35Zm-1.1-9.4c.36-.5.7-1,1.05-1.56h-1.43v1.56Z"/><path d="M809.51,1219.4c0,.93-.17,1.4-.8,1.7a6.45,6.45,0,0,1-2.62.33,6.4,6.4,0,0,0-.68-1.77c.68,0,1.42,0,1.65,0s.32-.08.32-.32v-1.94c-1,.68-1.9,1.33-2.75,1.88l-.48-1.33a8.3,8.3,0,0,1-1.35,3.57,9,9,0,0,0-1.57-1.52c1-1.48,1.08-3.57,1.08-5.22v-4.28h7.2Zm-1.06-14.25a41.93,41.93,0,0,1,2.26,4.37l-2,.79c-.11-.34-.28-.74-.47-1.19-4.81.47-5.59.59-6.14.81-.11-.43-.47-1.46-.7-2a2.14,2.14,0,0,0,1-.76,16,16,0,0,0,2.24-3.38l2.28.65a21.19,21.19,0,0,1-2.33,3.15l2.77-.21c-.28-.55-.55-1.08-.8-1.54Zm-4.05,9.69a23.93,23.93,0,0,1-.13,2.43c.85-.38,2-1,3.11-1.56v-.63l-.91.9a25.83,25.83,0,0,0-2.07-1.83Zm0-2.4v1.35l1-.82c.65.46,1.46,1.12,2,1.62v-2.15Zm9.39-.32c-2.28,0-2.89-.84-2.89-2.95v-5.39h2.24V1206h4.67V1208h-4.67v1.25c0,.71.11,1,.72,1h2.78a10.26,10.26,0,0,0,1.74-.15c0,.59.14,1.41.21,1.92a7.77,7.77,0,0,1-1.92.17Zm2.39,7.26c.64,0,.78-.33.87-2.07a6.2,6.2,0,0,0,2,.81c-.23,2.49-.82,3.23-2.62,3.23h-2.7c-2.24,0-2.79-.66-2.79-2.73v-6h2.24v1.9H818v2h-4.81v2.07c0,.66.13.76.87.76Z"/><path d="M807.36,1229.11h-6.23v-1.77h2.7a12,12,0,0,0-1-2.51l1.6-.57a13.2,13.2,0,0,1,1.12,2.53l-1.35.55h3.15Zm-.49,11.76H803.3v.79h-1.58v-6.49h5.15Zm-.11-9.2h-4.85V1230h4.85Zm-4.85.87h4.85v1.69h-4.85Zm1.39,4.35v2.25h2v-2.25Zm15.35,1.37a11.41,11.41,0,0,1-1.84,1,7.56,7.56,0,0,0,2.37,1,6.66,6.66,0,0,0-1.16,1.59,7.46,7.46,0,0,1-5-4.71h-.25a8.05,8.05,0,0,1-1.25.95v1.5l2.2-.36a11.13,11.13,0,0,0,.08,1.67c-3,.59-3.63.78-4,1a5.18,5.18,0,0,0-.93-1.27,2.35,2.35,0,0,0,.9-1.6,13.53,13.53,0,0,1-1.79.7,9.27,9.27,0,0,0-1-1.4,14,14,0,0,0,3.22-1.18h-2.85v-1.54H810V1235H808.2v-1.34H810V1233H808v-1.35H810v-.84h-1.82v-3.32h4.52v3.32H812v.84h2v-.84h-.59v-3.32h4.6v3.32h-2v.84h2.34V1233h-2.34v.63h2.11V1235h-2.11v.61h2.76v1.54h-4a5.82,5.82,0,0,0,.8,1.14,17.87,17.87,0,0,0,1.84-1.1Zm0-11.26H807.55v-1.62H812a9.59,9.59,0,0,0-.42-1l1.88-.57a8.5,8.5,0,0,1,.74,1.52h4.37Zm-8.78,2.68h1.22v-1h-1.22Zm2.21,4h2V1233h-2Zm0,1.95h2V1235h-2Zm3-5.92h1.27v-1h-1.27Z"/><path d="M811,1255.48c-.11.32-.23.62-.36.91h6.78v3.87c0,.92-.15,1.41-.76,1.71a5.3,5.3,0,0,1-2.39.33,6.58,6.58,0,0,0-.65-1.85c.57,0,1.16,0,1.35,0s.27,0,.27-.22v-2.09h-2.07v4h-2v-4h-2v4h-2v-4h-1.94v4.12H803v-5.89h5.49c.08-.31.16-.61.21-.91h-7.12v-1.75h2.62l-.55-1.52c1.2-.15,2.83-.4,4.54-.65l.08,1.28c-1.35.32-2.7.62-3.88.89h14v1.75Zm-7.2-3.35h-2.14v-4.25h7.18v-.9h-6.33v-1.61h14.89V1247h-6.36v.9h7.33v4.25h-2.26v-2.58h-1.06l.72,1a19.63,19.63,0,0,1-3.4.93l-.7-1.08a19.05,19.05,0,0,0,2.69-.82h-3.32v3.67h-2.2v-3.67h-3.77a20.5,20.5,0,0,1,3.08.78l-.59,1.23a24.8,24.8,0,0,0-3.28-1l.59-1.06h-1.07Zm8-.74a23.62,23.62,0,0,1,4.37.91l-.42,1.43a26.59,26.59,0,0,0-4.39-1.08Z"/><path d="M814.85,1277.63a8.73,8.73,0,0,1-1.71,2c2,.48,3.84,1,5.28,1.45l-2,1.59c-1.41-.53-3.29-1.08-5.45-1.65-2.17,1-5,1.48-8.72,1.75a6.67,6.67,0,0,0-.84-2,32.06,32.06,0,0,0,5.91-.66c-1.22-.25-2.45-.5-3.73-.73.46-.53,1-1.14,1.45-1.82H801.4v-1.86h4.82a16.82,16.82,0,0,0,.95-1.73h-4.59v-5.32h4.1v-1.08h-5v-2h16.55v2h-5.15v1.08h4.54V1274H807.44l2,.46c-.19.41-.41.83-.66,1.27h4.58c.15-.34.28-.7.42-1.07l2.18.54c-.06.19-.13.36-.19.53h2.85v1.86Zm-10.16-5.36h2v-1.76h-2Zm2.9,5.36c-.17.25-.36.49-.53.72,1.12.21,2.26.44,3.36.69a6.71,6.71,0,0,0,1.71-1.41Zm1.22-8.91H811v-1.08h-2.14Zm2.14,3.55v-1.76h-2.14v1.76Zm2.13-1.76v1.76h2.28v-1.76Z"/><path d="M817.93,1287.85v4.43h-2.38V1290H804.29v2.26H802v-4.43h7.1a14.94,14.94,0,0,0-.82-1.95l2.21-.65a12.91,12.91,0,0,1,1.12,2.6Zm-4.26,12.67c1.46,0,1.69-.41,1.92-2.86a8.42,8.42,0,0,0,2.26.93c-.38,3.23-1.12,4.18-4.06,4.18h-5.11c-3.25,0-4.2-.74-4.2-3.35v-7.84h2.37v3.68a38.43,38.43,0,0,0,7.2-2.6l1.81,1.8a52,52,0,0,1-9,2.85v2.07c0,1,.27,1.14,1.92,1.14Z"/><path d="M818.4,1308.79s0,.76,0,1c-.24,8.49-.45,11.51-1.23,12.52a2.54,2.54,0,0,1-1.83,1,20.19,20.19,0,0,1-3,0,5.27,5.27,0,0,0-.74-2.2c1.22.11,2.34.11,2.83.11a1,1,0,0,0,.84-.32c.55-.61.79-3.46,1-10.17h-4.06a16.88,16.88,0,0,1-1.67,3,13.18,13.18,0,0,0-1.47-1.07v8.87H804V1323h-2v-14.12h2.15a21.83,21.83,0,0,0,.55-3.05l2.47.34c-.33,1-.67,1.9-1,2.71h2.94V1312a19.37,19.37,0,0,0,2.57-6.11l2.15.49a23.13,23.13,0,0,1-.75,2.41ZM807,1310.9h-3V1314h3Zm0,8.76v-3.73h-3v3.73Zm6.31-1a40.77,40.77,0,0,0-2.64-4.39l1.77-1a44.8,44.8,0,0,1,2.79,4.22Z"/><path d="M811.13,1326.31c0,.8-.06,1.82-.14,3,.27,2.57,1.43,9.73,8.06,12.66a6.07,6.07,0,0,0-1.66,2,14.71,14.71,0,0,1-7.42-9,15.52,15.52,0,0,1-7,9.1,7.41,7.41,0,0,0-1.89-1.85c7.72-4.12,7.36-12.63,7.43-15.84Z"/><path d="M808.2,1354.3c-.13.26-.28.51-.44.78h8.89v9.44h-2.28v-.69H807.5v.69h-2.17v-6.25a14.74,14.74,0,0,1-2.92,2.28,13.25,13.25,0,0,0-1.43-1.83,12.64,12.64,0,0,0,4.64-4.42h-4v-1.79h5c.13-.27.24-.55.36-.82h-4V1350h4.64c.07-.26.15-.53.2-.81-1.57,0-3.15.07-4.63,0a5.9,5.9,0,0,0-.42-1.69,96.49,96.49,0,0,0,13.32-.76l1.33,1.62a63.94,63.94,0,0,1-7.11.68c-.07.31-.17.61-.26.91h7.44v1.71h-8c-.1.27-.21.55-.32.82h9.4v1.79Zm6.17,2.48H807.5v.82h6.87Zm0,2.23H807.5v.83h6.87Zm0,3.11v-.87H807.5v.87Z"/><path d="M807.76,1381.1c1.2-.21,2.43-.41,3.63-.6l.12,1.93c-3.33.65-6.92,1.3-9.5,1.75l-.5-2.09c1.14-.15,2.57-.38,4.11-.63v-2.58h-3.46v-2h3.46v-1.69h2.14v1.69h3.42v2h-3.42Zm-6.06-12.84h9.88v1.94H808.9a20.45,20.45,0,0,1,2.64,4l-1.71,1.12c-.11-.29-.26-.61-.43-.95-5.25.43-6.06.53-6.61.76-.14-.46-.5-1.47-.73-2.06a1.8,1.8,0,0,0,.88-.79,15.59,15.59,0,0,0,1.18-2.13H801.7Zm6.65,4.43c-.36-.55-.74-1.08-1.1-1.56l1.6-.93h-2.28a23.54,23.54,0,0,1-1.66,2.68Zm6.06,7.69h-2.09v-11.47h2.09Zm3.74-13v14.7c0,1.2-.22,1.77-.95,2.13a8.27,8.27,0,0,1-3.28.42,9.7,9.7,0,0,0-.76-2.17c1,0,2,0,2.35,0s.44-.11.44-.44v-14.68Z"/><path d="M807.93,1406.18c1.46-.55,2.27-1.5,2.27-2.6H810a1.63,1.63,0,0,1-1.74-1.65,1.68,1.68,0,0,1,1.8-1.66c1.29,0,2,1,2,2.76a4.79,4.79,0,0,1-3.59,4.67Z"/><path d="M811,1422.75v1.64h6.77v10.52c0,1-.23,1.56-.93,1.88a7.51,7.51,0,0,1-3,.34,7.64,7.64,0,0,0-.72-1.91c.82,0,1.77,0,2,0s.38-.09.38-.36v-1.27a4.87,4.87,0,0,0-1,.72,6.59,6.59,0,0,1-1.1-2.35,8,8,0,0,1-1.3,2.35,7.78,7.78,0,0,0-1.14-.83v3.64h-2.14v-3.34a5.45,5.45,0,0,0-.73.65A6.94,6.94,0,0,1,807,1432a7.46,7.46,0,0,1-1.43,2.49,6.1,6.1,0,0,0-1-.78v3.42h-2.16v-12.76h6.46v-1.64h-7.09v-2.22h16.59v2.22Zm-3.25,4.64a10.45,10.45,0,0,0,1.11,5.53v-6.42h-4.3v7a8.43,8.43,0,0,0,1.73-4.58h-1v-1.5Zm3.25-.89v7a9,9,0,0,0,1.77-4.58h-1v-1.5h2.49c0,2.09.11,4.12,1.27,5.81v-6.7Z"/><path d="M806.72,1440.58a37.61,37.61,0,0,1-1.48,3.61v13.46h-2.15v-9.72a20.52,20.52,0,0,1-1.27,1.63,16.14,16.14,0,0,0-1.07-2.45,20.1,20.1,0,0,0,3.88-7.18Zm11.61.28v16.59h-2.15v-.94H809v1.11H807v-16.76Zm-2.15,13.7v-11.74H809v11.74Zm-2.74-7.77v1.63h1.83v5.09H810v-5.09h1.69v-1.63h-2.19v-1.64h2.19v-1.93h1.74v1.93h2.3v1.64Zm.14,3.19h-1.94v2h1.94Z"/><path d="M817.68,1465.83a20.86,20.86,0,0,1-2.38,7.21,9.36,9.36,0,0,0,3.8,3.06,8.15,8.15,0,0,0-1.53,2,10.51,10.51,0,0,1-3.71-3.06,13.5,13.5,0,0,1-4.27,3,9.46,9.46,0,0,0-1.2-1.94H804v1.12h-2.09v-8.39h2.53v-2.93h-3.31v-2.11h3.31v-3.47h2.26v3.47h3.11v2.11H806.7v2.93h2.09a5.54,5.54,0,0,0-.53-.38c1.69-1.85,2.73-4.88,3.25-8.13l2.31.36a29.53,29.53,0,0,1-.72,3h5.8v2.13ZM807,1470.94h-3v3h3Zm2.15,4.71a10,10,0,0,0,3.42-2.61,21.64,21.64,0,0,1-1.64-4.29,9.68,9.68,0,0,1-.83,1.2c-.21-.19-.57-.51-.95-.82Zm3.23-9.82a21,21,0,0,0,1.55,5.05,17.47,17.47,0,0,0,1.45-5.05Z"/><path d="M818.78,1493.2h-2v3.31h-2.3v-.78h-3.42v.59c0,1.12-.27,1.58-1,1.9a10.15,10.15,0,0,1-3.36.32,7.29,7.29,0,0,0-.74-1.78c.91,0,2,0,2.33,0s.48-.13.48-.47v-.59H803v-1.63h5.78v-.9h-7.52v-1.73h7.52v-.81h-5.62v-1.52h5.62v-.84h-5.15v-3.76h5.15v-.78H801.7V1482h7.09v-1.24h2.3V1482h7.25v1.78h-7.25v.78h5.39v3.76h-5.39v.84h5.72v2.33h2Zm-10-6.32V1486h-3v.91Zm2.3-.91v.91h3.08V1486Zm0,5.5h3.42v-.81h-3.42Zm3.42,1.73h-3.42v.9h3.42Z"/><path d="M819,1503.16c-.68,1.82-1.52,4-2.3,5.64a6.07,6.07,0,0,1,1.94,4.41c0,1.42-.3,2.36-1.06,2.85a2.81,2.81,0,0,1-1.33.51,9,9,0,0,1-1.66,0,5.52,5.52,0,0,0-.57-2.18,10.4,10.4,0,0,0,1.2,0,1.47,1.47,0,0,0,.76-.18c.36-.2.49-.66.49-1.29a5.45,5.45,0,0,0-2-3.89c.55-1.37,1.19-3.29,1.67-4.75h-2.41v14.55h-2.23v-16.26a23.22,23.22,0,0,1-2,4h1.41v2h-2.83c-.4.5-.8.93-1.22,1.39h3.42v8.57h-2.15v-.73h-3.06v1H803v-5.75c-.32.21-.64.4-.95.57a10.64,10.64,0,0,0-1.31-1.88,17.78,17.78,0,0,0,4.54-3.14h-4v-2h3.3v-1.56h-2.49v-1.94h2.49v-1.84h2.09v1.84h2v1a19.55,19.55,0,0,0,.93-2.13l2,.55v-.36H817l.35-.08Zm-10.85,8.66h-3.06V1513h3.06Zm0,4.26v-1.35h-3.06v1.35Zm-1.1-9.4c.36-.5.7-1,1.05-1.56h-1.43v1.56Z"/><path d="M809.51,1537.25c0,.93-.17,1.4-.8,1.71a6.66,6.66,0,0,1-2.62.32,6.4,6.4,0,0,0-.68-1.77c.68,0,1.42,0,1.65,0s.32-.08.32-.32v-1.94c-1,.68-1.9,1.33-2.75,1.88l-.48-1.33a8.3,8.3,0,0,1-1.35,3.57,9,9,0,0,0-1.57-1.52c1-1.48,1.08-3.57,1.08-5.22v-4.28h7.2ZM808.45,1523a43,43,0,0,1,2.26,4.37l-2,.8c-.11-.35-.28-.75-.47-1.2-4.81.47-5.59.59-6.14.82-.11-.44-.47-1.47-.7-2a2.14,2.14,0,0,0,1-.76,16,16,0,0,0,2.24-3.38l2.28.65a21.19,21.19,0,0,1-2.33,3.15l2.77-.21c-.28-.55-.55-1.08-.8-1.54Zm-4.05,9.69a23.93,23.93,0,0,1-.13,2.43c.85-.38,2-.95,3.11-1.56v-.63l-.91.9a25.83,25.83,0,0,0-2.07-1.83Zm0-2.4v1.35l1-.82c.65.46,1.46,1.13,2,1.62v-2.15Zm9.39-.32c-2.28,0-2.89-.84-2.89-2.94v-5.4h2.24v2.24h4.67v1.94h-4.67v1.25c0,.71.11,1,.72,1h2.78a10.26,10.26,0,0,0,1.74-.15c0,.59.14,1.41.21,1.92a7.77,7.77,0,0,1-1.92.17Zm2.39,7.26c.64,0,.78-.33.87-2.07a6.2,6.2,0,0,0,2,.81c-.23,2.49-.82,3.23-2.62,3.23h-2.7c-2.24,0-2.79-.66-2.79-2.73v-6h2.24v1.9H818v2h-4.81v2.07c0,.66.13.76.87.76Z"/><path d="M818.53,1545.17a24,24,0,0,1-2.24,1.75A13.26,13.26,0,0,0,819,1548a8,8,0,0,0-1.35,1.79,13.08,13.08,0,0,1-2.16-.91v1.63c0,.46,0,.61.28.61h.93a3.9,3.9,0,0,0,1-.1c0,.46.08,1.1.15,1.54a3.56,3.56,0,0,1-1.1.12h-1.18c-1.59,0-1.9-.65-1.9-2.19v-1.1H811.9a4.39,4.39,0,0,1-2.09,3.76,8.82,8.82,0,0,0-1.13-1.22v.57h-3.77c-.07.44-.13.9-.19,1.31h4s0,.52,0,.78c-.21,2.57-.44,3.8-.93,4.3a2,2,0,0,1-1.52.62,19.8,19.8,0,0,1-2.51,0,4.36,4.36,0,0,0-.65-1.88c1,.08,1.88.1,2.3.1a.86.86,0,0,0,.68-.19c.23-.21.4-.82.54-2.11h-4c.26-1.24.57-3.12.74-4.62h3.36v-1.33h-2.75v-.3a16.35,16.35,0,0,1-1.73.74,8.91,8.91,0,0,0-1.22-1.65,12.48,12.48,0,0,0,3.19-1.47,19.66,19.66,0,0,0-1.76-1.14l1.29-1.19a14.54,14.54,0,0,1,2,1.19,9.77,9.77,0,0,0,1.11-1.21H803v-1.77h5l.38-.09,1.39.68a10.79,10.79,0,0,1-3.57,4.5h2.49v3.78A2.74,2.74,0,0,0,810,1549v-1.35h3.63a13.27,13.27,0,0,1-3.84-5l1.81-.53a7.36,7.36,0,0,0,1.08,1.79,17.58,17.58,0,0,0,1.79-1.75l1.61,1.16c-.78.65-1.59,1.33-2.31,1.84.32.31.66.59,1,.86a16.16,16.16,0,0,0,2.11-2Zm-1.38,8.4a8.55,8.55,0,0,1-2.09,3.38c.85.47,1.63,1,2.2,1.33l-1.14,1.5c-.64-.46-1.56-1-2.58-1.65a14.08,14.08,0,0,1-4.24,1.63,6.37,6.37,0,0,0-.95-1.63,11.86,11.86,0,0,0,3.38-1.07c-.93-.51-1.82-1-2.64-1.46l.76-.91h-.45v-1.5h6.17l.34-.06Zm-6.31,1.12c.8.42,1.67.85,2.53,1.33a7.5,7.5,0,0,0,1.19-1.33Z"/><path d="M818.59,1577.43v2.22H801.51v-2.22h7.34v-3.82H803.7v-2.18h5.15v-3.35h-3.94a15.83,15.83,0,0,1-1.76,2.76,18,18,0,0,0-2-1.35,16.35,16.35,0,0,0,3.37-6.8l2.33.51c-.26.91-.57,1.81-.89,2.68h2.93v-3.42h2.37v3.42h6.4v2.2h-6.4v3.35h5.68v2.18h-5.68v3.82Z"/><path d="M801.29,1599a9.37,9.37,0,0,0,2.35-3.23l1.88.84a11.85,11.85,0,0,1-2.35,3.49Zm17-10.27H801.82V1587h4a9.19,9.19,0,0,0-.38-1l1.42-.28h-4.08v-1.75h6.15a9.22,9.22,0,0,0-.32-.89l2.2-.4a8.34,8.34,0,0,1,.55,1.29h5.91v1.75h-3.89l1.52.26c-.23.38-.42.74-.61,1.07h4Zm-2,6.47h-5.81a15.08,15.08,0,0,1,2,1.26l-1.39,1.38a13.67,13.67,0,0,0-3-1.88l.78-.76H804v-5.79H816.2Zm-4.41,3.37c.7,0,.82-.21.91-1.54a6.63,6.63,0,0,0,1.92.7c-.25,2.11-.85,2.64-2.62,2.64h-3.06c-2.39,0-3-.55-3-2.34v-2h2.2v2c0,.5.15.56,1,.56Zm2.17-7.75h-7.87v.81H814Zm0,2.14h-7.87v.82H814Zm-6.42-7.31a10.22,10.22,0,0,1,.53,1.33h3.87c.19-.44.4-.93.53-1.33Zm8.6,10a14.67,14.67,0,0,1,2.32,3.37l-2,.87a14,14,0,0,0-2.18-3.44Z"/><path d="M809.3,1606l1.62.46c-.88,7.69-3.65,12.36-7.87,14.57a10.05,10.05,0,0,0-1.9-1.9,10.94,10.94,0,0,0,5.13-4.83c-.63-.8-1.56-1.78-2.45-2.7a12.14,12.14,0,0,1-1,1.45,21,21,0,0,0-1.9-1.45c1.65-1.9,2.77-5,3.36-8.3l2.28.4c-.17.82-.36,1.6-.57,2.38h2.81Zm-3.95,2.22c-.17.5-.34,1-.53,1.41.76.74,1.71,1.61,2.45,2.41a20.71,20.71,0,0,0,1-3.82Zm11.78,6.65a35.36,35.36,0,0,0-3.06-3.55V1621h-2.39v-17.74h2.39v6.31l.84-.61c1.31,1.29,3.23,3.15,4.14,4.31Z"/><path d="M807.93,1642.33c1.46-.55,2.27-1.5,2.27-2.6H810a1.63,1.63,0,0,1-1.74-1.65,1.67,1.67,0,0,1,1.8-1.65c1.29,0,2,1,2,2.75a4.79,4.79,0,0,1-3.59,4.67Z"/><path d="M807.84,1656.79a19,19,0,0,1-1.81,2.61,14.42,14.42,0,0,1,1.16,6.48c0,2.64-.21,5.22-1.14,6.44a1.92,1.92,0,0,1-1.21.79,8.76,8.76,0,0,1-2.61.19,4.64,4.64,0,0,0-.62-2.33,12.46,12.46,0,0,0,2.11,0,.74.74,0,0,0,.59-.35c.38-.51.57-2.22.58-4.33a16,16,0,0,1-2.43,2.49,9.89,9.89,0,0,0-1.54-1.71,12.67,12.67,0,0,0,3.8-4,10.61,10.61,0,0,0-.38-1.74,14.94,14.94,0,0,1-1.84,1.59,9.7,9.7,0,0,0-1.56-1.5,14.08,14.08,0,0,0,2.42-2.18,10.93,10.93,0,0,0-2.17-2.36l1.69-1.31a14,14,0,0,1,1.9,1.86,16,16,0,0,0,1-1.63Zm6.82,8a11.68,11.68,0,0,0,4.25,6.44,10,10,0,0,0-1.38,2.18,13.87,13.87,0,0,1-4.39-6.55,12,12,0,0,1-4.62,6.59,10.08,10.08,0,0,0-1.61-1.84c4.41-3.08,4.77-8,4.77-11.35v-4.5h2.26v4.52c0,.44,0,.92,0,1.39a23.45,23.45,0,0,0,.68,2.89,31.46,31.46,0,0,0,1.69-5.47l2.38.76c-.67,2-1.47,4.16-2.13,5.58Zm-5.81.83a60.1,60.1,0,0,0-1.26-6.1l2.09-.64a56.47,56.47,0,0,1,1.46,5.94Z"/><path d="M814.66,1685.84c-.19.31-.34.59-.51.84h4.18v1.65H806.59a5.57,5.57,0,0,1-.12.86H810s0,.43-.06.68c-.17,1.88-.38,2.81-.78,3.21a1.75,1.75,0,0,1-1.2.52,18,18,0,0,1-2,0,4.24,4.24,0,0,0-.44-1.61,10.88,10.88,0,0,0,1.43.08.65.65,0,0,0,.53-.16,2.86,2.86,0,0,0,.34-1.16h-1.79c-.55,1.39-1.65,2.38-3.89,3a5.26,5.26,0,0,0-1-1.48,4.48,4.48,0,0,0,2.76-1.56h-2v-1.57h2.62a5.57,5.57,0,0,0,.12-.86h-3v-1.65h4.42a4,4,0,0,0-.45-.87l1.42-.19h-3.51v-3.82h13v3.82h-3.38Zm3.78-8.72v1.64h-7.35v.76h6v1.56H803v-1.56h5.78v-.76h-7.12v-1.64h7.12v-1.06h2.3v1.06Zm-12.84,7.07h8.74v-1H805.6Zm2.22,1.43a3.43,3.43,0,0,1,.61,1.06h3.4c.15-.36.3-.76.4-1.06Zm2.94,3.32h6.79v4.81h-2.09v-.44h-2.7v.46h-2Zm2,1.54v1.29h2.7v-1.29Z"/><path d="M818.46,1699.09v2.16H808.3a21.44,21.44,0,0,1-2.23,3.75v9.19h-2.3v-6.61a14.54,14.54,0,0,1-1.67,1.33,16,16,0,0,0-1.12-2.18,14.4,14.4,0,0,0,4.73-5.48h-4.12v-2.16h5.13c.32-.89.61-1.77.83-2.64l2.38.57c-.21.7-.46,1.38-.72,2.07Zm-4.56,12.56h4.5v2.09H807v-2.09h4.6v-4.34h-3.86v-2.09h3.86v-3.15h2.28v3.15h3.76v2.09H813.9Z"/><path d="M806.7,1726a16.45,16.45,0,0,1-1.6,4.77l1.07.63c1.31.74,3.11.85,5.28.85a62.65,62.65,0,0,0,7.71-.51,9.64,9.64,0,0,0-.68,2.39c-1.54.12-4.9.23-7.13.23-2.49,0-4.1-.21-5.49-1-.79-.42-1.44-1-1.84-1s-1.14,1.24-1.65,2.27l-1.48-2.19a7.25,7.25,0,0,1,1.8-1.59,11.52,11.52,0,0,0,1.58-3.42h-2.66c.49-1.13,1.06-2.65,1.56-4.13h-1.9v-2H806c-.45,1.35-1,2.87-1.5,4.18h.5l.34-.06Zm-3.25-5.18c-.32-.88-1-2.26-1.4-3.29l2-.72c.48,1,1.1,2.32,1.46,3.13Zm15.14-.06H806.51V1719h5a13.45,13.45,0,0,0-.81-1.61l2.18-.69a16.39,16.39,0,0,1,1.12,2l-.76.25h5.32Zm-10.92,5.66h9.5v4.81h-9.5Zm9.33-3.32h-9.12v-1.6H817Zm-9.12.85H817v1.6h-9.12Zm1.9,5.66h5.16V1728h-5.16Z"/><path d="M805.9,1746a11.63,11.63,0,0,0,1.31-1.83l1.33,1.24c-.61.55-1.18,1.12-1.65,1.58l1.33,1.42L807,1750.2a24.56,24.56,0,0,0-1.48-2.13v7h-2v-6.78a14.88,14.88,0,0,1-1.79,1.77,9.21,9.21,0,0,0-1-2.24,15,15,0,0,0,4.31-5.23h-3.74v-2h3a26,26,0,0,0-1.4-2.32l1.61-1a20.8,20.8,0,0,1,1.6,2.4l-1.3.91h1.33l.37-.1,1.12.91a21.67,21.67,0,0,1-2.15,4.24v.12Zm12.84,6.63v2H807.93v-2h4.22v-1.94h-3.49v-2h3.49v-1.49h-3.61v-9.06H818v9.06h-3.76v1.49h3.89v2h-3.89v1.94Zm-8.18-10.83h1.59v-1.73h-1.59Zm1.59,3.53v-1.76h-1.59v1.76Zm3.74-5.26h-1.63v1.73h1.63Zm0,3.5h-1.63v1.76h1.63Z"/><path d="M811.62,1758.29c-.1.12-.19.25-.29.36a18.32,18.32,0,0,0,7.89,3.42,7.89,7.89,0,0,0-1.43,1.73c-.38-.09-.78-.23-1.17-.34v4.9H803.41v-4.79c-.4.14-.8.27-1.18.37a11.48,11.48,0,0,0-1.21-1.75c3.49-.82,6.88-2.4,8.6-4.6Zm4.31,4.92a19.92,19.92,0,0,1-2.58-1.16v.5h-6.67v-.38a21.77,21.77,0,0,1-2.3,1ZM804.48,1769h11.17v6.42h-2.32V1775H806.7v.52h-2.22Zm2.14-2a7.54,7.54,0,0,0-.64-2l1.46-.42h-2.15V1767Zm.08,3.48v.76h6.63v-.76Zm6.63,3v-.76H806.7v.76ZM809,1764.6h-1.48a9,9,0,0,1,.76,2l-1.22.38H809Zm2.73-3.51a17.54,17.54,0,0,1-1.59-1.24c-.5.42-1,.84-1.62,1.24Zm-.91,3.51V1767h1.77l-1.14-.32a15.37,15.37,0,0,0,.74-2.07Zm3.76,0h-2l1.48.36c-.38.76-.74,1.5-1.05,2h1.54Z"/><path d="M811.35,1793.46c.5,0,1,.06,1.52.06,1.07,0,4.71,0,6.06-.06a8,8,0,0,0-.76,2.17h-5.41c-3.48,0-5.83-.5-7.43-2.7a8.57,8.57,0,0,1-2.66,3,9,9,0,0,0-1.71-1.58,8,8,0,0,0,3.54-5.75l2.26.34c-.14.61-.29,1.18-.44,1.73a4.19,4.19,0,0,0,2.73,2.37v-4.82h-7.4v-2H818.4v2h-7v1.42h5.85v2h-5.85Zm5.25-8H803.39v-6.6H816.6Zm-2.3-5h-8.7v1h8.7Zm0,2.45h-8.7v1h8.7Z"/><path d="M806.7,1806.91c0,1-.19,1.41-.84,1.71a7.29,7.29,0,0,1-2.71.31,7.1,7.1,0,0,0-.59-1.79,16,16,0,0,0,1.65,0c.25,0,.32-.08.32-.28v-1.26l-2.86.34-.25-2,3.11-.27v-1.65h-2.79v-1.9h2.79v-1.56h2.17v1.56h2.43v1.9H806.7v1.42l2.49-.28,0,1.84-2.54.33Zm-3,2.47h12.78v6.94h-2.31v-.65h-8.25v.7H803.7Zm2.22,2v2.35h8.25v-2.35Zm12.67-8.55v1.86h-2.3V1809h-2.16v-4.31h-2.28a5.9,5.9,0,0,1-2.43,4.47,7.25,7.25,0,0,0-1.62-1.45A5.05,5.05,0,0,0,810,1803v-3a33.47,33.47,0,0,0,6.38-1.37l1.75,1.52a34.61,34.61,0,0,1-6.16,1.31v1.35Z"/><path d="M818.57,1833.29h-7.25v1.36c0,1-.23,1.5-1,1.81a11.13,11.13,0,0,1-3.25.28,7.29,7.29,0,0,0-.68-1.9c.89,0,2,0,2.31,0s.4-.06.4-.28v-1.29H801.4v-1.79h7.69V1831a14.48,14.48,0,0,0,2.09-1.1h-6.1v-1.58h8.27l.47-.11,1.28,1.15a27.48,27.48,0,0,1-3.63,2.19h7.1Zm-14.68-3.58h-2.15v-3.89h1.43l-.35-5.64a26.69,26.69,0,0,0,3.84-1.07l.91,1.31a17.49,17.49,0,0,1-2.58.73l0,.55h2.41v1.4H805.1l0,.65h2.34v1c.45-.23.91-.46,1.33-.72-.36-.23-.72-.44-1.07-.63l1-.89c.38.19.78.41,1.18.64a7,7,0,0,0,.76-.8l1.48.44a8.25,8.25,0,0,1-1,1.14,7.32,7.32,0,0,1,1.14.87l-1.12,1a12,12,0,0,0-1.1-.93,14.77,14.77,0,0,1-1.54,1h6.15l.08-.67h-2.24v-1.4h2.37l0-.65h-2.32v-1.4h2.42l0-.63h-2.56v-1.43h4.77c-.1,2-.23,4.41-.4,6.18h1.41v3.89h-2.25v-2.26H803.89Zm1.37-3.89h3.07a11.44,11.44,0,0,0-.85-.87v.2h-2.26Zm5.88-3.5a9.26,9.26,0,0,0-1-.79,10.36,10.36,0,0,1-1.54,1,10.91,10.91,0,0,0-1.18-1,8.9,8.9,0,0,0,1.44-.74c-.36-.21-.68-.4-1-.57l1-.88c.37.18.76.38,1.16.61a6.08,6.08,0,0,0,.69-.76l1.48.44a7.09,7.09,0,0,1-1,1c.38.27.72.54,1,.76Z"/><path d="M807.93,1858.06c1.46-.55,2.27-1.5,2.27-2.6H810a1.64,1.64,0,0,1-1.74-1.66,1.68,1.68,0,0,1,1.8-1.65c1.29,0,2,1,2,2.76a4.79,4.79,0,0,1-3.59,4.67Z"/><path d="M811.62,1871.89c-.1.12-.19.25-.29.36a18.32,18.32,0,0,0,7.89,3.42,7.89,7.89,0,0,0-1.43,1.73c-.38-.09-.78-.23-1.17-.34v4.9H803.41v-4.79c-.4.14-.8.27-1.18.37a11.48,11.48,0,0,0-1.21-1.75c3.49-.82,6.88-2.4,8.6-4.6Zm4.31,4.92a21.32,21.32,0,0,1-2.58-1.15v.49h-6.67v-.38a21.77,21.77,0,0,1-2.3,1Zm-11.45,5.78h11.17V1889h-2.32v-.46H806.7v.52h-2.22Zm2.14-2a7.54,7.54,0,0,0-.64-2l1.46-.42h-2.15v2.39Zm.08,3.48v.76h6.63v-.76Zm6.63,3v-.76H806.7v.76ZM809,1878.2h-1.48a9,9,0,0,1,.76,2l-1.22.38H809Zm2.73-3.51a17.54,17.54,0,0,1-1.59-1.24c-.5.42-1,.84-1.62,1.24Zm-.91,3.51v2.39h1.77l-1.14-.32a15.37,15.37,0,0,0,.74-2.07Zm3.76,0h-2l1.48.36c-.38.76-.74,1.5-1.05,2h1.54Z"/><path d="M811.35,1907.06c.5,0,1,.06,1.52.06,1.07,0,4.71,0,6.06-.06a8,8,0,0,0-.76,2.17h-5.41c-3.48,0-5.83-.5-7.43-2.7a8.57,8.57,0,0,1-2.66,3A9,9,0,0,0,801,1908a8,8,0,0,0,3.54-5.75l2.26.34c-.14.61-.29,1.18-.44,1.73a4.19,4.19,0,0,0,2.73,2.37v-4.82h-7.4v-2H818.4v2h-7v1.42h5.85v2h-5.85Zm5.25-8H803.39v-6.6H816.6Zm-2.3-5h-8.7v1h8.7Zm0,2.45h-8.7v1h8.7Z"/><path d="M816.08,1924.24a9.84,9.84,0,0,1-3.11,2.9,42.47,42.47,0,0,0,5.83.71,8.59,8.59,0,0,0-1.27,2.09,31.58,31.58,0,0,1-7.51-1.45,33.18,33.18,0,0,1-7.52,1.5,7.28,7.28,0,0,0-1.14-1.88,35.1,35.1,0,0,0,6-.8,12.47,12.47,0,0,1-1.91-1.23c-.69.36-1.37.66-2,.93a12.17,12.17,0,0,0-1.56-1.48,15.36,15.36,0,0,0,2.06-.78,13.61,13.61,0,0,1-1.16-1.41l1.78-.72a9.36,9.36,0,0,0,1.12,1.24,10.29,10.29,0,0,0,2-1.52c-.84-.25-1.06-.78-1.06-1.88v-1.31h2.07v1.31c0,.43.13.47.78.47h2c.46,0,.59-.11.65-.87a6.39,6.39,0,0,0,1.73.57c-.21,1.46-.73,1.86-2.15,1.86h-1.75l.12,0a9.43,9.43,0,0,1-.73.83h5l.38,0Zm-12-4.18h-2.15v-3.48H805a7,7,0,0,0-.8-1.33l1-.42-2.34.06a6.31,6.31,0,0,0-.43-1.63,90.1,90.1,0,0,0,13.29-1.09l1.5,1.5a22.42,22.42,0,0,1-2.41.4l1.69.55c-.47.69-1,1.37-1.42,2h3.06v3.74h-1.81a7.81,7.81,0,0,1,1.2,1.37l-1.62,1.22a14.08,14.08,0,0,0-2.9-3l1.52-1.09c.43.33.91.73,1.36,1.13v-1.6h-5.14a7.35,7.35,0,0,1,1.27.84l-1.12,1.25a11.93,11.93,0,0,0-2.72-1.63l.42-.46H804Zm2.35-.36a6.76,6.76,0,0,1-2,3l-1.57-1.22a5.54,5.54,0,0,0,1.9-2.54Zm3.1-5.08c-1.08.06-2.15.14-3.23.17a5.39,5.39,0,0,1,.86,1.45l-.8.34h2.77a7.09,7.09,0,0,0-.76-1.54Zm-2.24,10.4a15.86,15.86,0,0,0,3,1.38,9.65,9.65,0,0,0,2.39-1.4h-5.37Zm5.6-8.44a23,23,0,0,0,1.32-2.41c-1.24.15-2.57.28-3.92.4a4.83,4.83,0,0,1,.82,1.59l-1.14.42Z"/><path d="M801,1941.32a26.46,26.46,0,0,0,.95-5l1.71.25a29.47,29.47,0,0,1-.89,5.34Zm17.8-2.7v1.62H807.14v-1.6l-.44.25a16.29,16.29,0,0,0-.76-2v13.47h-2.07V1932.6h2.07v3l1-.46c.45,1,1.06,2.21,1.31,3l-1,.55h4.56v-.82h-3.51v-1.52h3.51v-.76h-4.18v-1.61h4.18v-1.29H814v1.29h4.18v1.61H814v.76h3.59v1.52H814v.82Zm-1,9.59c0,1-.19,1.52-.9,1.83a7.13,7.13,0,0,1-2.9.32,8.9,8.9,0,0,0-.61-1.92c.78.06,1.67,0,1.92,0s.34-.08.34-.3v-.65H810a7.08,7.08,0,0,1-1.39,3A9.52,9.52,0,0,0,807,1949a7.21,7.21,0,0,0,1.17-4.63V1941h9.62Zm-2.15-2.24v-.87h-5.38c0,.28,0,.57,0,.87Zm-5.36-3.44v1h5.36v-1Z"/><path d="M807.93,1971.66c1.46-.55,2.27-1.5,2.27-2.6H810a1.63,1.63,0,0,1-1.74-1.65,1.68,1.68,0,0,1,1.8-1.66c1.29,0,2,1,2,2.76a4.79,4.79,0,0,1-3.59,4.67Z"/><path d="M811.62,1985.49l-.29.37a18.32,18.32,0,0,0,7.89,3.42,7.61,7.61,0,0,0-1.43,1.72c-.38-.09-.78-.22-1.17-.34v4.9H803.41v-4.78c-.4.13-.8.26-1.18.36a11.48,11.48,0,0,0-1.21-1.75c3.49-.82,6.88-2.39,8.6-4.6Zm4.31,4.93a23.05,23.05,0,0,1-2.58-1.16v.49h-6.67v-.38a24.07,24.07,0,0,1-2.3,1.05Zm-11.45,5.77h11.17v6.42h-2.32v-.45H806.7v.51h-2.22Zm2.14-2a7.48,7.48,0,0,0-.64-2l1.46-.42h-2.15v2.4Zm.08,3.47v.76h6.63v-.76Zm6.63,3v-.76H806.7v.76ZM809,1991.8h-1.48a8.92,8.92,0,0,1,.76,2l-1.22.38H809Zm2.73-3.51a17.54,17.54,0,0,1-1.59-1.24c-.5.42-1,.84-1.62,1.24Zm-.91,3.51v2.4h1.77l-1.14-.33a15.37,15.37,0,0,0,.74-2.07Zm3.76,0h-2l1.48.36c-.38.76-.74,1.5-1.05,2h1.54Z"/><path d="M811.35,2020.66c.5,0,1,.06,1.52.06,1.07,0,4.71,0,6.06-.06a8,8,0,0,0-.76,2.17h-5.41c-3.48,0-5.83-.5-7.43-2.7a8.57,8.57,0,0,1-2.66,3,9.29,9.29,0,0,0-1.71-1.58,8,8,0,0,0,3.54-5.75l2.26.34c-.14.61-.29,1.18-.44,1.73a4.19,4.19,0,0,0,2.73,2.37v-4.82h-7.4v-2H818.4v2h-7v1.42h5.85v2h-5.85Zm5.25-8.05H803.39V2006H816.6Zm-2.3-5h-8.7v1h8.7Zm0,2.45h-8.7v1h8.7Z"/><path d="M801.25,2041.33a13.12,13.12,0,0,0,2-4.4l2,.74a16,16,0,0,1-2,4.78Zm7.84-5.73h-5.94v-9h13.6v9h-7.18a14.8,14.8,0,0,1,3.51,2.41l-1.61,1.54a15.57,15.57,0,0,0-3.71-2.72Zm-3.82-5.46h3.58v-1.59h-3.58Zm0,3.5h3.58V2032h-3.58Zm6.71,7.5c.78,0,.93-.28,1-2.16a6.33,6.33,0,0,0,2,.83c-.25,2.7-.91,3.38-2.89,3.38H809c-2.51,0-3.14-.66-3.14-2.67v-3.12h2.28v3.1c0,.57.17.64,1.12.64Zm2.53-12.59H811v1.59h3.48Zm0,3.42H811v1.67h3.48Zm1.82,4.84a16.72,16.72,0,0,1,2.51,4.6l-2.2.93a17.38,17.38,0,0,0-2.32-4.69Z"/><path d="M804.59,2053.88a10.91,10.91,0,0,1-2.15,2.75,7.9,7.9,0,0,0-1.44-1.56,11.31,11.31,0,0,0,3.23-4.24h-2.76v-1.91h3.12v-2.68h2.15v2.68h2.68v1.91h-2.68v.71a35.4,35.4,0,0,1,3,2.09l-1.18,1.8c-.44-.47-1.14-1.16-1.82-1.78v4h-2.15Zm-3.46,8a13,13,0,0,0,1.66-3.91l2,.8a18.45,18.45,0,0,1-1.6,4.14Zm10.85-.3c.89,0,1-.27,1.14-2.19a5.5,5.5,0,0,0,2,.8c-.28,2.72-.91,3.38-3,3.38h-3.42c-2.58,0-3.23-.62-3.23-2.6v-2.6h2.22v2.56c0,.57.2.65,1.22.65Zm-2.2-4.71.38.34v-10h7.71v10.22h-7.52c.74.68,1.55,1.48,2,2l-1.63,1.37a31.06,31.06,0,0,0-2.51-2.64Zm2.43-6.82h3.49V2049h-3.49Zm0,2.77h3.49v-1.1h-3.49Zm0,2.79h3.49v-1.14h-3.49Zm4.39,2.11c.76,1.18,1.86,2.79,2.37,3.78l-2.11,1.08c-.45-1-1.5-2.67-2.24-4Z"/><path d="M807.93,2085.26c1.46-.55,2.27-1.5,2.27-2.6H810a1.63,1.63,0,0,1-1.74-1.65,1.68,1.68,0,0,1,1.8-1.66c1.29,0,2,1,2,2.76a4.79,4.79,0,0,1-3.59,4.67Z"/><path d="M811.62,2099.09l-.29.37a18.32,18.32,0,0,0,7.89,3.42,7.61,7.61,0,0,0-1.43,1.72c-.38-.09-.78-.22-1.17-.34v4.9H803.41v-4.78c-.4.13-.8.26-1.18.36A11.48,11.48,0,0,0,801,2103c3.49-.82,6.88-2.39,8.6-4.6Zm4.31,4.93a23.05,23.05,0,0,1-2.58-1.16v.49h-6.67V2103a24.07,24.07,0,0,1-2.3,1.05Zm-11.45,5.77h11.17v6.42h-2.32v-.45H806.7v.51h-2.22Zm2.14-2a7.48,7.48,0,0,0-.64-2l1.46-.42h-2.15v2.4Zm.08,3.47v.76h6.63v-.76Zm6.63,3v-.76H806.7v.76ZM809,2105.4h-1.48a9.1,9.1,0,0,1,.76,2l-1.22.38H809Zm2.73-3.51a17.54,17.54,0,0,1-1.59-1.24c-.5.42-1,.84-1.62,1.24Zm-.91,3.51v2.4h1.77l-1.14-.33a15.37,15.37,0,0,0,.74-2.07Zm3.76,0h-2l1.48.36c-.38.76-.74,1.5-1.05,2h1.54Z"/><path d="M811.35,2134.26c.5,0,1,.06,1.52.06,1.07,0,4.71,0,6.06-.06a8,8,0,0,0-.76,2.17h-5.41c-3.48,0-5.83-.5-7.43-2.7a8.57,8.57,0,0,1-2.66,3,9.29,9.29,0,0,0-1.71-1.58,8,8,0,0,0,3.54-5.75l2.26.34c-.14.61-.29,1.18-.44,1.73a4.19,4.19,0,0,0,2.73,2.37V2129h-7.4v-2H818.4v2h-7v1.42h5.85v2h-5.85Zm5.25-8.05H803.39v-6.59H816.6Zm-2.3-5h-8.7v1h8.7Zm0,2.45h-8.7v1h8.7Z"/><path d="M803.74,2146.59h-2.07v-4.27h7.18v-.76h-6.33v-1.48h14.89v1.48h-6.36v.76h7.33v4.27H816.2l-.4,1.37a30.15,30.15,0,0,0-4.39-1.06l.44-1.27a25.44,25.44,0,0,1,4.27.89v-2.72h-1l.68,1a18.87,18.87,0,0,1-3.38.91l-.7-1.06a21.46,21.46,0,0,0,2.6-.82h-3.25v3.95h-2.2v-3.95h-3.63a21.6,21.6,0,0,1,3,.78l-.61,1.22a21.92,21.92,0,0,0-3.26-.93l.53-1.07h-1v2.6c1.16-.13,2.76-.36,4.39-.6l.08,1.29-4,.91Zm12.12,8.57c1,0,1.14-.28,1.27-1.88a5.64,5.64,0,0,0,1.88.7c-.27,2.28-.89,2.89-3,2.89h-4c-2.59,0-3.33-.53-3.33-2.51v-.05h-3.15v.81h-2.17v-6.89h13.17v6.08H810.9v.05c0,.69.23.8,1.36.8Zm-10.28-5.41v.85h3.15v-.85Zm3.15,3v-.86h-3.15v.86Zm5.61-3H810.9v.85h3.44Zm0,3v-.86H810.9v.86Z"/><path d="M805,2173.72a15,15,0,0,1-2,3.27,12.74,12.74,0,0,0-1.56-1.18,9.25,9.25,0,0,0,1.73-2.66Zm7-5.2H801.4v-1.71h4.27c-.09-.21-.17-.4-.26-.57l1.48-.3h-4.64v-5.46h9.12v5.46h-3.72a7.07,7.07,0,0,1,.44.87H812Zm-4.22,4.56v2.49c0,.93-.13,1.38-.78,1.67a6.28,6.28,0,0,1-2.39.28,6.76,6.76,0,0,0-.63-1.8c.57,0,1.16,0,1.35,0s.25-.06.25-.23v-2.43h-3.06v-3.91h8.55v3.91Zm-3.42-10.53h4.73v-.7H804.4Zm0,2h4.73v-.72H804.4Zm.25,7h4.25v-1h-4.25Zm14.21-.25a16.16,16.16,0,0,1-6.16,6,8.58,8.58,0,0,0-1.5-1.73l.17.42-1.67.8a19.12,19.12,0,0,0-1.56-3.1l1.6-.66a28.53,28.53,0,0,1,1.42,2.48,12.58,12.58,0,0,0,5.61-5Zm-.78-10.35a17.87,17.87,0,0,1-5,4.59,8.77,8.77,0,0,0-1.59-1.57,13.51,13.51,0,0,0,4.46-3.9Zm.42,5.12a19.65,19.65,0,0,1-5.4,4.87,7.76,7.76,0,0,0-1.56-1.58,14.82,14.82,0,0,0,4.89-4.16Z"/><path d="M807.93,2198.86c1.46-.55,2.27-1.5,2.27-2.6H810a1.63,1.63,0,0,1-1.74-1.65,1.68,1.68,0,0,1,1.8-1.66c1.29,0,2,1,2,2.76a4.79,4.79,0,0,1-3.59,4.67Z"/><path d="M817.93,2214.56V2219h-2.38v-2.26H804.29V2219H802v-4.42h7.1a15.07,15.07,0,0,0-.82-2l2.21-.64a12.67,12.67,0,0,1,1.12,2.6Zm-4.26,12.67c1.46,0,1.69-.42,1.92-2.87a8.11,8.11,0,0,0,2.26.93c-.38,3.23-1.12,4.18-4.06,4.18h-5.11c-3.25,0-4.2-.74-4.2-3.34v-7.85h2.37V2222a39.11,39.11,0,0,0,7.2-2.61l1.81,1.81a52,52,0,0,1-9,2.85v2.07c0,1,.27,1.14,1.92,1.14Z"/><path d="M818.59,2236.12h-2.18v11.32c0,1.37-.33,2-1.22,2.42a12.79,12.79,0,0,1-4.29.42,10.65,10.65,0,0,0-.93-2.4c1.35.08,3,.06,3.45.06s.61-.13.61-.53v-11.29H801.47v-2.28h17.12Zm-13.16,9.48V2247h-2.21v-8.79h8.06v7.35Zm0-5.2v3H809v-3Z"/><path d="M809.28,2265.38c-2.5,1.12-5.32,2.32-7.46,3.21l-.76-2.41c.72-.25,1.57-.55,2.52-.93l-.38-11.1,2.36-.09.34,10.28c1-.4,1.92-.8,2.87-1.18Zm7.87,5.34a33.59,33.59,0,0,0-3.56-4.58,13.46,13.46,0,0,1-5.77,4.62,12.69,12.69,0,0,0-1.81-2c6-2.28,8-6.88,8.69-14.68l2.49.22a29.57,29.57,0,0,1-2.32,9.66,42.4,42.4,0,0,1,4.22,4.88ZM810,2261a19.28,19.28,0,0,0-2.83-4.71l2-1a19.1,19.1,0,0,1,3,4.55Z"/><path d="M818.46,2276v2.17H808.3a21.73,21.73,0,0,1-2.23,3.74v9.19h-2.3v-6.61a12.66,12.66,0,0,1-1.67,1.33,16.61,16.61,0,0,0-1.12-2.18,14.37,14.37,0,0,0,4.73-5.47h-4.12V2276h5.13a27.64,27.64,0,0,0,.83-2.64l2.38.57c-.21.7-.46,1.39-.72,2.07Zm-4.56,12.56h4.5v2.09H807v-2.09h4.6v-4.33h-3.86v-2.09h3.86V2279h2.28v3.16h3.76v2.09H813.9Z"/><path d="M810.16,2294.79s0,.86,0,1.14c0,9.83,0,13.23-.59,14.18a2,2,0,0,1-1.43,1.1,9.37,9.37,0,0,1-2.28.11,6.17,6.17,0,0,0-.68-2.41c.7.06,1.33.06,1.69.06a.63.63,0,0,0,.59-.4,10,10,0,0,0,.34-3.23h-2.33a14.1,14.1,0,0,1-2.61,6.25,11.11,11.11,0,0,0-1.84-1.67,10.08,10.08,0,0,0,2.17-4.58H801.4v-2h2.13c.09-.72.15-1.44.21-2.22h-2.11v-2h2.2c0-.75,0-1.51,0-2.28H801.4v-2.06Zm-2.34,8.55c0-.66,0-1.38,0-2.22H806c-.06.78-.13,1.5-.21,2.22Zm-1.71-6.49q0,1.16-.06,2.28h1.81l0-2.28Zm12.8-1.16c-.74,1.78-1.63,3.91-2.47,5.58a5.77,5.77,0,0,1,2.15,4.39,3.07,3.07,0,0,1-1.12,2.77,3.42,3.42,0,0,1-1.39.48,13,13,0,0,1-1.8,0,5.41,5.41,0,0,0-.63-2.13,8.62,8.62,0,0,0,1.39,0,2.21,2.21,0,0,0,.87-.17c.4-.21.53-.63.53-1.26,0-1.06-.51-2.39-2.22-3.87.63-1.37,1.31-3.25,1.83-4.69h-2.57v14.7h-2.15v-16.83H817l.32-.08Z"/><path d="M817.6,2328.06a26.53,26.53,0,0,1-2.49,1.16,14.16,14.16,0,0,0,3.88,1.08,7.18,7.18,0,0,0-1.23,1.73c-3.63-.7-6.18-2.33-7.75-5h0a12.26,12.26,0,0,1-2.38,1.36v1.49l4.14-.61a12.21,12.21,0,0,0,.29,1.63c-5.11.86-6.08,1.05-6.63,1.31l-.06,0a9.86,9.86,0,0,0-1.12-1.71,2.33,2.33,0,0,0,1.23-1.29,22.1,22.1,0,0,1-3.3.82,8.07,8.07,0,0,0-1.12-1.49,23.2,23.2,0,0,0,5.87-1.55h-5.47v-1.7h7.42v-.6h-6v-1.5h6v-.63h-5.28v-4.92h13.06v4.92h-5.55v.63h6v1.5h-6v.6h7.5v1.7h-2.18Zm.73-11H801.68v-1.63h7.26a6.81,6.81,0,0,0-.4-.86l2.07-.49a7.23,7.23,0,0,1,.71,1.35h7Zm-12.62,2.55h3.15v-.7h-3.15Zm3.15,1.78v-.7h-3.15v.7Zm5.53-2.48h-3.3v.7h3.3Zm0,1.78h-3.3v.7h3.3Zm-2.26,6.35a7.57,7.57,0,0,0,1.48,1.34A21.38,21.38,0,0,0,816,2327Z"/><path d="M818.17,2335.59s0,.57,0,.83c-.17,4-.36,5.68-.85,6.27a1.81,1.81,0,0,1-1.35.72,12.3,12.3,0,0,1-2.18,0,4.72,4.72,0,0,0-.59-1.94,13.85,13.85,0,0,0,1.67.06.62.62,0,0,0,.57-.21c.25-.3.42-1.31.53-3.83h-2.07c-.3,2.79-1.1,4.95-3.86,6.3a6,6,0,0,0-.95-1.33l-1.29.52c-.06-.27-.15-.54-.24-.84-3.54.89-4.2,1.12-4.62,1.4a6.9,6.9,0,0,0-1.18-1.61,2.58,2.58,0,0,0,.84-2v-3.78a33.86,33.86,0,0,0,5.32-1.62l1.44,1.67a34.52,34.52,0,0,1-4.54,1.24v3.28l2-.43a13.37,13.37,0,0,0-.86-1.69l1.82-.73a21.83,21.83,0,0,1,1.89,3.82,5.21,5.21,0,0,0,2.18-4.21H810v-1.94Zm-14.62,8.58h13.2v8.21h-2.43v-.55h-8.48v.63h-2.29Zm2.29,1.79v1.18H809V2346ZM809,2350v-1.27h-3.2V2350Zm5.28-4.08h-3.14v1.18h3.14Zm0,4.08v-1.27h-3.14V2350Z"/><path d="M810.84,2358.79v3l.38-.44a43,43,0,0,1,6.48,3.84l-1.67,2.07a37.17,37.17,0,0,0-5.19-3.46v9h-2.43v-14h-6.86v-2.28h16.93v2.28Z"/><path d="M818.76,2383v2.45H801.29V2383Z"/><path d="M810.31,2400.43c-.4.92-.78,1.9-1.16,2.7h2.22v2h-10v-2h2.43a14,14,0,0,0-.95-2.66l1.54-.38h-2.54v-2h3.59a11.62,11.62,0,0,0-.61-1.65l2.07-.59a20.66,20.66,0,0,1,.91,2.24H811v2h-2.22Zm-8.09,6.12h8.43v7h-2.22v-.76h-4.07v.85h-2.14Zm2.14,2v2.31h4.07v-2.31Zm.46-8.48a14.13,14.13,0,0,1,1,2.72l-1.14.32H807a22.4,22.4,0,0,0,1.07-3Zm14.06-2.33c-.65,1.82-1.43,4-2.15,5.64a6.31,6.31,0,0,1,1.8,4.44c0,1.37-.3,2.3-1,2.8a2.82,2.82,0,0,1-1.26.45,7,7,0,0,1-1.46,0,5.51,5.51,0,0,0-.55-2.09c.42,0,.8,0,1.06,0a1.3,1.3,0,0,0,.71-.19c.32-.19.43-.67.43-1.31a5.73,5.73,0,0,0-1.84-3.92c.53-1.38,1.12-3.32,1.56-4.76h-2.13v14.74h-2v-16.78H817l.32-.07Z"/><path d="M813.65,2416.68a11.76,11.76,0,0,0,5.45,6.84,12.75,12.75,0,0,0-1.59,2.09,12.58,12.58,0,0,1-1.45-1.1c-.2,5.6-.43,7.78-1.1,8.56a2.26,2.26,0,0,1-1.73.92,19.43,19.43,0,0,1-2.86.05,5.53,5.53,0,0,0-.75-2.28c1,.08,2,.1,2.51.1a.88.88,0,0,0,.76-.27c.38-.42.59-2.11.76-6.06h-3.74c-.48,3.65-1.71,6.9-6.63,8.74a7.59,7.59,0,0,0-1.5-2.09c4.29-1.39,5.28-3.89,5.66-6.65h-3.21v-1.25a16.73,16.73,0,0,1-1.43,1.37,14,14,0,0,0-1.89-1.68,13.44,13.44,0,0,0,4.71-6.93l2.37.57a19.77,19.77,0,0,1-3,5.72h9.84a15.87,15.87,0,0,1-2.87-4.54h-3v-2.11Z"/><path d="M818.4,2439.75s0,.75,0,1c-.24,8.49-.45,11.51-1.23,12.52a2.54,2.54,0,0,1-1.83,1,20.19,20.19,0,0,1-3,0,5.37,5.37,0,0,0-.74-2.2c1.22.11,2.34.11,2.83.11a1,1,0,0,0,.84-.32c.55-.61.79-3.46,1-10.16h-4.06a16.77,16.77,0,0,1-1.67,3,14.59,14.59,0,0,0-1.47-1.07v8.88H804V2454h-2v-14.11h2.15a22,22,0,0,0,.55-3.06l2.47.34c-.33,1-.67,1.9-1,2.72h2.94V2443a19.53,19.53,0,0,0,2.57-6.12l2.15.49a23.3,23.3,0,0,1-.75,2.42Zm-11.38,2.1h-3v3.08h3Zm0,8.76v-3.72h-3v3.72Zm6.31-1a39.82,39.82,0,0,0-2.64-4.39l1.77-1a46.13,46.13,0,0,1,2.79,4.22Z"/><path d="M817,2459.7V2475h-2.42V2474h-9v.95h-2.3V2459.7h4.86a22.61,22.61,0,0,0,.52-2.49l2.73.3c-.28.76-.59,1.5-.89,2.19Zm-11.44,2.16v2h9v-2Zm0,4v2h9v-2Zm9,6v-2h-9v2Z"/><path d="M814.11,2492.81c1.9,0,2.16-.47,2.41-3.21a8.89,8.89,0,0,0,2.3.86c-.42,3.62-1.25,4.61-4.65,4.61H808c-3.55,0-4.71-.68-4.71-3.4v-6.84h10.83v-3.76H803.07v-2.32h13.47v9.39h-2.41v-1.09h-8.48v4.58c0,1,.35,1.18,2.38,1.18Z"/><path d="M807.93,2516.71c1.46-.55,2.27-1.5,2.27-2.6H810a1.63,1.63,0,0,1-1.74-1.65,1.68,1.68,0,0,1,1.8-1.66c1.29,0,2,1,2,2.76a4.79,4.79,0,0,1-3.59,4.67Z"/><path d="M817.93,2532.41v4.42h-2.38v-2.26H804.29v2.26H802v-4.42h7.1a15.07,15.07,0,0,0-.82-2l2.21-.64a12.67,12.67,0,0,1,1.12,2.6Zm-4.26,12.67c1.46,0,1.69-.42,1.92-2.87a8.11,8.11,0,0,0,2.26.93c-.38,3.23-1.12,4.18-4.06,4.18h-5.11c-3.25,0-4.2-.74-4.2-3.34v-7.85h2.37v3.69a38.39,38.39,0,0,0,7.2-2.61l1.81,1.81a52,52,0,0,1-9,2.85v2.07c0,1,.27,1.14,1.92,1.14Z"/><path d="M818.59,2554h-2.18v11.32c0,1.37-.33,2-1.22,2.42a12.79,12.79,0,0,1-4.29.42,10.65,10.65,0,0,0-.93-2.4c1.35.08,3,.06,3.45.06s.61-.13.61-.53V2554H801.47v-2.28h17.12Zm-13.16,9.48v1.45h-2.21v-8.8h8.06v7.35Zm0-5.2v3H809v-3Z"/><path d="M809.28,2583.23c-2.5,1.12-5.32,2.32-7.46,3.21l-.76-2.41c.72-.25,1.57-.55,2.52-.93l-.38-11.1,2.36-.09.34,10.28c1-.4,1.92-.8,2.87-1.18Zm7.87,5.34a34.21,34.21,0,0,0-3.56-4.58,13.46,13.46,0,0,1-5.77,4.62,12.69,12.69,0,0,0-1.81-2c6-2.28,8-6.87,8.69-14.68l2.49.23a29.58,29.58,0,0,1-2.32,9.65,42.4,42.4,0,0,1,4.22,4.88Zm-7.13-9.74a19.14,19.14,0,0,0-2.83-4.72l2-1a19.15,19.15,0,0,1,3,4.56Z"/><path d="M808.33,2596.13a22,22,0,0,1-1.54,2.87h3.06v-2.18h2.28V2599h5.45v5.89c0,1.05-.2,1.62-1,2a8.55,8.55,0,0,1-3.18.34,7.54,7.54,0,0,0-.7-2.05c.87,0,1.88,0,2.15,0s.4-.08.4-.33v-3.7h-3.16V2609h-2.28v-7.84h-3v6.17h-2.26v-5.49a16.07,16.07,0,0,1-2.41,2.09,16,16,0,0,0-1.27-2,14.85,14.85,0,0,0,4.9-5.8h-4.24V2594h5.21a20.24,20.24,0,0,0,.85-2.76l2.34.54c-.23.74-.48,1.48-.74,2.22h9.27v2.16Z"/><path d="M818.55,2627.33v1.6h-17v-1.6h2.21v-7.66h4.67c0-.22.08-.47.11-.74h-6.72v-1.65h6.9c0-.27.05-.53.07-.78h-6.19v-4.12h15v4.12h-6.52c0,.25-.08.51-.11.78H818v1.65h-7.33l-.13.74h5.72v7.66Zm-11.72-13.45H804.7v1.1h2.13Zm-1,7.16v.71H814V2621Zm8.15,1.83h-8.15v.74H814Zm-8.15,2.62H814v-.78h-8.15Zm0,1.84H814v-.7h-8.15Zm3-12.35H811v-1.1h-2.15Zm4.22,0h2.2v-1.1h-2.2Z"/><path d="M810.16,2633.07s0,.85,0,1.14c0,9.82,0,13.22-.59,14.17a2,2,0,0,1-1.43,1.1,8.84,8.84,0,0,1-2.28.12,6.12,6.12,0,0,0-.68-2.41c.7,0,1.33,0,1.69,0a.61.61,0,0,0,.59-.4,9.91,9.91,0,0,0,.34-3.23h-2.33a14.1,14.1,0,0,1-2.61,6.25,11.57,11.57,0,0,0-1.84-1.67,10,10,0,0,0,2.17-4.58H801.4v-2h2.13c.09-.72.15-1.45.21-2.22h-2.11v-2h2.2c0-.74,0-1.5,0-2.28H801.4v-2Zm-2.34,8.55c0-.67,0-1.39,0-2.22H806c-.06.77-.13,1.5-.21,2.22Zm-1.71-6.5q0,1.17-.06,2.28h1.81l0-2.28Zm12.8-1.16c-.74,1.79-1.63,3.92-2.47,5.59a5.76,5.76,0,0,1,2.15,4.39,3.07,3.07,0,0,1-1.12,2.77,3.42,3.42,0,0,1-1.39.48,14.9,14.9,0,0,1-1.8,0,5.37,5.37,0,0,0-.63-2.12,9.73,9.73,0,0,0,1.39,0,2,2,0,0,0,.87-.17c.4-.21.53-.62.53-1.25,0-1.07-.51-2.39-2.22-3.88.63-1.36,1.31-3.25,1.83-4.69h-2.57v14.7h-2.15V2633H817l.32-.07Z"/><path d="M805.9,2661.25a12.11,12.11,0,0,0,1.31-1.83l1.33,1.24c-.61.55-1.18,1.12-1.65,1.57l1.33,1.43-1.18,1.76a24.6,24.6,0,0,0-1.48-2.12v7h-2v-6.78a14.06,14.06,0,0,1-1.79,1.76,9.56,9.56,0,0,0-1-2.24,15,15,0,0,0,4.31-5.22h-3.74v-2h3a24.65,24.65,0,0,0-1.4-2.32l1.61-1a21.64,21.64,0,0,1,1.6,2.39l-1.3.92h1.33l.37-.1,1.12.91a21.67,21.67,0,0,1-2.15,4.24v.11Zm12.84,6.63v2H807.93v-2h4.22v-1.94h-3.49v-2h3.49v-1.48h-3.61v-9.06H818v9.06h-3.76V2664h3.89v2h-3.89v1.94Zm-8.18-10.83h1.59v-1.73h-1.59Zm1.59,3.53v-1.77h-1.59v1.77Zm3.74-5.26h-1.63v1.73h1.63Zm0,3.49h-1.63v1.77h1.63Z"/><path d="M818.4,2675.9s0,.76,0,1c-.24,8.49-.45,11.51-1.23,12.52a2.58,2.58,0,0,1-1.83,1,21.89,21.89,0,0,1-3,0,5.37,5.37,0,0,0-.74-2.2c1.22.11,2.34.11,2.83.11a1,1,0,0,0,.84-.32c.55-.61.79-3.46,1-10.16h-4.06a16.77,16.77,0,0,1-1.67,3,14.67,14.67,0,0,0-1.47-1.06v8.87H804v1.38h-2V2676h2.15a22,22,0,0,0,.55-3.06l2.47.34c-.33,1-.67,1.9-1,2.72h2.94v3.08a19.53,19.53,0,0,0,2.57-6.12l2.15.49a23.3,23.3,0,0,1-.75,2.42ZM807,2678h-3v3.08h3Zm0,8.76V2683h-3v3.72Zm6.31-1a40.77,40.77,0,0,0-2.64-4.39l1.77-1a46.13,46.13,0,0,1,2.79,4.22Z"/><path d="M816,2704.58c-.06.8-.1,1.47-.15,2.07H818v2h-2.35a3.89,3.89,0,0,1-.5,1.56,2,2,0,0,1-1.57.89,12.81,12.81,0,0,1-2.53,0,4.42,4.42,0,0,0-.55-1.73,15.7,15.7,0,0,0,2,.08c.33,0,.5,0,.67-.31a2,2,0,0,0,.23-.53H803.17c.22-1.12.45-2.55.68-4.05h-2.62v-2h2.91c.15-1.14.28-2.32.39-3.36-.47.57-.93,1.12-1.4,1.59a17.37,17.37,0,0,0-2-1.31,16.8,16.8,0,0,0,4.37-6.19l2.25.65c-.17.38-.37.77-.55,1.17h11v2H806c-.33.51-.65,1-1,1.46h11.25s0,.72,0,1c0,1.1-.08,2.07-.12,3h2.74v2Zm-9.92-.07c-.11.76-.21,1.46-.32,2.14H810a13.5,13.5,0,0,0-2.26-1.4l.76-.74Zm.51-3.93c-.07.68-.17,1.36-.26,2.07h3.78a11.28,11.28,0,0,0-2.21-1.31l.78-.76Zm7,6.07c0-.6.1-1.29.13-2.14h-3.95a12.45,12.45,0,0,1,2.23,1.5l-.65.64Zm.21-4c0-.65.06-1.31.08-2.07H810.1a11.71,11.71,0,0,1,2.16,1.42l-.64.65Z"/><path d="M806.72,2714.5a35.61,35.61,0,0,1-1.48,3.61v13.47h-2.15v-9.72a20.52,20.52,0,0,1-1.27,1.63,16.14,16.14,0,0,0-1.07-2.45,20.18,20.18,0,0,0,3.88-7.18Zm11.61.29v16.58h-2.15v-.93H809v1.1H807v-16.75Zm-2.15,13.7v-11.74H809v11.74Zm-2.74-7.77v1.63h1.83v5.09H810v-5.09h1.69v-1.63h-2.19v-1.64h2.19v-1.94h1.74v1.94h2.3v1.64Zm.14,3.19h-1.94v2h1.94Z"/><path d="M803.39,2747a20.38,20.38,0,0,1-.83,4.62,9.86,9.86,0,0,0-1.64-.55,15.59,15.59,0,0,0,.76-4.33Zm-1.72-5.32a.12.12,0,0,0,0,.08,19,19,0,0,0-.63-1.81c.36-.09.68-.45,1-1a20.87,20.87,0,0,0,2.25-4.64l1.88.76a29.34,29.34,0,0,1-2.53,4.58l1.39-.09c.47-.84,1-1.73,1.34-2.62l1.71,1.06a33.34,33.34,0,0,1-4,5.91l2.2-.29c-.19-.53-.42-1.08-.65-1.57l1.51-.56a16.18,16.18,0,0,1,1.29,3.56l-1.6.64c0-.15-.06-.32-.09-.51-3.88.61-4.53.8-5,1a16.08,16.08,0,0,0-.63-1.83c.48-.11.88-.57,1.46-1.27a20.69,20.69,0,0,0,1.3-1.75,7.75,7.75,0,0,0-2.26.42Zm3.7,4.92a30.15,30.15,0,0,1,.51,3.95l-1.63.42a39.88,39.88,0,0,0-.42-4Zm2-.55a30.45,30.45,0,0,1,1.1,3.55l-1.53.58a27.35,27.35,0,0,0-1-3.65Zm11.08-10.9v16.32h-2.17v-.9H811v1.05h-2v-16.47Zm-7.43,2.28v4.6h1.52v-4.6Zm0,11h1.52v-4.37H811Zm5.26-11H814.6v4.6h1.69Zm0,11v-4.37H814.6v4.37Z"/><path d="M808,2766.89a32.73,32.73,0,0,1,2.57,4.1l-1.84,1c-.18-.4-.44-.88-.73-1.39-4.18,1-4.9,1.24-5.34,1.5a6.21,6.21,0,0,0-1-1.75,2,2,0,0,0,.8-1.67v-8.32a15.09,15.09,0,0,0-1.3-1.65,11.19,11.19,0,0,0,2.87-4.14l2.23.66c-.08.21-.18.4-.27.61h4v1.9H807a10.7,10.7,0,0,1,1.35,1.35l-1.18,1h2.66v6.78h-5.37v2.54l2.43-.53c-.25-.4-.52-.78-.74-1.14Zm-3-9.2a19.3,19.3,0,0,1-1.76,2.34h3.26a16.9,16.9,0,0,0-1.36-1.43l1.1-.91Zm2.83,4h-3.26v1h3.26Zm0,3.4v-.8h-3.26v.8Zm11-7.43h-3.18a10.82,10.82,0,0,1,1.18,1.2l-1.35,1.14h2.72v7.86c0,1.05-.17,1.62-.91,2a7.36,7.36,0,0,1-3,.36,8.16,8.16,0,0,0-.65-2.07c.86,0,1.81,0,2.07,0s.38-.08.38-.33v-5.75h-3v10.28h-2.13v-11.69a15.86,15.86,0,0,0-1.65-1.54,11,11,0,0,0,2.49-4.61l2.29.57-.22.7h5Zm-3.8,2.34a13.49,13.49,0,0,0-1.49-1.56l1-.78H813a17.18,17.18,0,0,1-1.37,2.34Z"/><path d="M807.93,2793.71c1.46-.55,2.27-1.5,2.27-2.6H810a1.63,1.63,0,0,1-1.74-1.65,1.68,1.68,0,0,1,1.8-1.66c1.29,0,2,1,2,2.76a4.79,4.79,0,0,1-3.59,4.67Z"/><path d="M817.93,2809.41v4.42h-2.38v-2.26H804.29v2.26H802v-4.42h7.1a15.07,15.07,0,0,0-.82-2l2.21-.64a12.67,12.67,0,0,1,1.12,2.6Zm-4.26,12.67c1.46,0,1.69-.42,1.92-2.87a8.11,8.11,0,0,0,2.26.93c-.38,3.23-1.12,4.18-4.06,4.18h-5.11c-3.25,0-4.2-.74-4.2-3.34v-7.85h2.37v3.69a37.7,37.7,0,0,0,7.2-2.61l1.81,1.81a52,52,0,0,1-9,2.85v2.07c0,1,.27,1.14,1.92,1.14Z"/><path d="M818.59,2831h-2.18v11.33c0,1.36-.33,2-1.22,2.41a12.79,12.79,0,0,1-4.29.42,10.65,10.65,0,0,0-.93-2.4c1.35.08,3,.06,3.45.06s.61-.13.61-.53V2831H801.47v-2.28h17.12Zm-13.16,9.48v1.45h-2.21v-8.8h8.06v7.35Zm0-5.2v3H809v-3Z"/><path d="M809.28,2860.23c-2.5,1.12-5.32,2.32-7.46,3.21l-.76-2.41c.72-.25,1.57-.55,2.52-.93l-.38-11.1,2.36-.09.34,10.28c1-.4,1.92-.8,2.87-1.18Zm7.87,5.34a34.21,34.21,0,0,0-3.56-4.58,13.46,13.46,0,0,1-5.77,4.62,12.69,12.69,0,0,0-1.81-2c6-2.28,8-6.87,8.69-14.68l2.49.23a29.58,29.58,0,0,1-2.32,9.65,42.4,42.4,0,0,1,4.22,4.88Zm-7.13-9.74a19.14,19.14,0,0,0-2.83-4.72l2-1a19.15,19.15,0,0,1,3,4.56Z"/><path d="M818.46,2870.89v2.17H808.3a21.73,21.73,0,0,1-2.23,3.74v9.2h-2.3v-6.62a12.66,12.66,0,0,1-1.67,1.33,16.61,16.61,0,0,0-1.12-2.18,14.37,14.37,0,0,0,4.73-5.47h-4.12v-2.17h5.13a27.64,27.64,0,0,0,.83-2.64l2.38.57c-.21.7-.46,1.39-.72,2.07Zm-4.56,12.56h4.5v2.09H807v-2.09h4.6v-4.33h-3.86V2877h3.86v-3.15h2.28V2877h3.76v2.09H813.9Z"/><path d="M801.29,2904.86a9.46,9.46,0,0,0,2.35-3.23l1.88.84a11.85,11.85,0,0,1-2.35,3.49Zm17-10.28H801.82v-1.74h4a9.19,9.19,0,0,0-.38-1.05l1.42-.28h-4.08v-1.75h6.15a9.22,9.22,0,0,0-.32-.89l2.2-.4a8.34,8.34,0,0,1,.55,1.29h5.91v1.75h-3.89l1.52.26c-.23.38-.42.74-.61,1.07h4Zm-2,6.48h-5.81a15.08,15.08,0,0,1,2,1.26L811,2903.7a13.31,13.31,0,0,0-3-1.88l.78-.76H804v-5.79H816.2Zm-4.41,3.36c.7,0,.82-.2.91-1.53a6.63,6.63,0,0,0,1.92.7c-.25,2.11-.85,2.64-2.62,2.64h-3.06c-2.39,0-3-.55-3-2.34v-2h2.2v2c0,.5.15.55,1,.55Zm2.17-7.75h-7.87v.82H814Zm0,2.15h-7.87v.82H814Zm-6.42-7.31a9.69,9.69,0,0,1,.53,1.33h3.87c.19-.44.4-.93.53-1.33Zm8.6,9.95a14.85,14.85,0,0,1,2.32,3.36l-2,.88a14,14,0,0,0-2.18-3.44Z"/><path d="M817.93,2911.53V2916h-2.38v-2.26H804.29V2916H802v-4.43h7.1a15.54,15.54,0,0,0-.82-2l2.21-.65a12.91,12.91,0,0,1,1.12,2.6Zm-4.26,12.68c1.46,0,1.69-.42,1.92-2.87a8.11,8.11,0,0,0,2.26.93c-.38,3.23-1.12,4.18-4.06,4.18h-5.11c-3.25,0-4.2-.74-4.2-3.35v-7.84h2.37v3.68a38.43,38.43,0,0,0,7.2-2.6l1.81,1.8a52,52,0,0,1-9,2.85v2.08c0,1,.27,1.14,1.92,1.14Z"/><path d="M811.35,2944.84c.5,0,1,.06,1.52.06,1.07,0,4.71,0,6.06-.06a8,8,0,0,0-.76,2.16h-5.41c-3.48,0-5.83-.49-7.43-2.69a8.57,8.57,0,0,1-2.66,3,9,9,0,0,0-1.71-1.58,8,8,0,0,0,3.54-5.76l2.26.35c-.14.6-.29,1.17-.44,1.73a4.19,4.19,0,0,0,2.73,2.37v-4.83h-7.4v-2H818.4v2h-7V2941h5.85v2h-5.85Zm5.25-8.06H803.39v-6.59H816.6Zm-2.3-5h-8.7v1h8.7Zm0,2.45h-8.7v1h8.7Z"/><path d="M812.65,2956.11a49.42,49.42,0,0,1,6.32,5.14l-1.92,1.73a43.85,43.85,0,0,0-5.81-5.14v9.84h-2.47v-9.27a22.79,22.79,0,0,1-6,4.67,12.9,12.9,0,0,0-1.56-2,20,20,0,0,0,8.19-7.47h-7.58v-2.32h16.47v2.32h-5.91a18.18,18.18,0,0,1-1.1,1.75v2Z"/><path d="M811.35,2985.69c.5,0,1,.06,1.52.06,1.07,0,4.71,0,6.06-.06a8,8,0,0,0-.76,2.16h-5.41c-3.48,0-5.83-.49-7.43-2.69a8.57,8.57,0,0,1-2.66,3,9,9,0,0,0-1.71-1.58,8,8,0,0,0,3.54-5.76l2.26.35c-.14.6-.29,1.17-.44,1.73a4.19,4.19,0,0,0,2.73,2.37v-4.83h-7.4v-2H818.4v2h-7v1.43h5.85v2h-5.85Zm5.25-8.06H803.39V2971H816.6Zm-2.3-5h-8.7v1h8.7Zm0,2.45h-8.7v1h8.7Z"/><path d="M817.93,2993.23v4.43h-2.38v-2.26H804.29v2.26H802v-4.43h7.1a14.94,14.94,0,0,0-.82-1.95l2.21-.65a12.91,12.91,0,0,1,1.12,2.6Zm-4.26,12.67c1.46,0,1.69-.41,1.92-2.86a8.42,8.42,0,0,0,2.26.93c-.38,3.23-1.12,4.18-4.06,4.18h-5.11c-3.25,0-4.2-.74-4.2-3.35V2997h2.37v3.68a38.43,38.43,0,0,0,7.2-2.6l1.81,1.8a52,52,0,0,1-9,2.85v2.07c0,1,.27,1.14,1.92,1.14Z"/><path d="M818.67,3021.88v1.71H801.32v-1.71h4.35a6.29,6.29,0,0,0-.43-1l.79-.19H804.1V3017h12v3.76H815a13.22,13.22,0,0,1-.76,1.17Zm-9.88-7.9H802v-1.61h6.82v-1.14h2.3v1.14h7V3014h-7v.78h5.85v1.56H803.28v-1.56h5.51Zm-5.07,10.32H816.5V3029h-2.33v-.49h-8.23v.51h-2.22Zm2.22,1.5V3027h8.23v-1.16Zm.3-6.48h7.58v-1h-7.58Zm1.26,1.39a6,6,0,0,1,.53,1.17h3.91a11.74,11.74,0,0,0,.5-1.17Z"/><path d="M815.4,3038.38c0,.66,0,1.42-.08,2.22.59,3,1.73,5.74,3.73,7.05a6.92,6.92,0,0,0-1.43,1.9,10.17,10.17,0,0,1-3.07-4.88,12.15,12.15,0,0,1-2.89,4.9,7.08,7.08,0,0,0-1.27-1.31v.36h-6v.81h-1.73v-5.87a9.08,9.08,0,0,1-.72.86,12.57,12.57,0,0,0-.95-1.56,12.7,12.7,0,0,0,2.41-3.72H801.8v-3.61h3.93v3.61h-1.67l.93.32c-.13.3-.29.63-.44.95h1.71a6.58,6.58,0,0,0-.42-.84l1.24-.45h-.57v-3.61h3.93v3.23a22.15,22.15,0,0,0,1.71-7.11l2.07.33c-.09.81-.23,1.61-.38,2.41h3.44l.3-.08,1.39.4a37.46,37.46,0,0,1-1.29,5.32l-1.63-.51c.22-.82.47-1.94.68-3.08h-3.32a15.6,15.6,0,0,1-1.66,4.43,11.77,11.77,0,0,0-1.71-1.39c.08-.11.14-.23.21-.34h-2.89a6.11,6.11,0,0,1,.67,1.29h2.53v1.5H808v.72h2.17V3044H808v.8h2.32v1.4H808v.86h2.4v.64c2.79-3,3.05-6.86,3.05-9.4v-1.18h2Zm-12-4.14h-2.32v-1.6h2.32v-1h1.92v3.52h-1.92Zm-.32,3.76h1.27v-1.35h-1.27Zm3.08,3.91h-1.79v.72h1.79Zm0,2.13h-1.79v.8h1.79Zm-1.79,3.06h1.79v-.86h-1.79Zm4.48-11.91h-1.93v-3.52h1.93v.95h2.19v1.6h-2.19ZM807.8,3038h1.27v-1.29H807.8Z"/><path d="M818.4,3055s0,.76,0,1c-.24,8.49-.45,11.51-1.23,12.52a2.54,2.54,0,0,1-1.83,1,20.19,20.19,0,0,1-3,0,5.27,5.27,0,0,0-.74-2.2c1.22.11,2.34.11,2.83.11a1,1,0,0,0,.84-.32c.55-.61.79-3.46,1-10.17h-4.06a16.88,16.88,0,0,1-1.67,3,13.18,13.18,0,0,0-1.47-1.07v8.87H804v1.39h-2v-14.12h2.15a21.57,21.57,0,0,0,.55-3.05l2.47.34c-.33.95-.67,1.9-1,2.71h2.94v3.08a19.37,19.37,0,0,0,2.57-6.11l2.15.49A23.13,23.13,0,0,1,813,3055ZM807,3057.13h-3v3.08h3Zm0,8.76v-3.73h-3v3.73Zm6.31-1a40.77,40.77,0,0,0-2.64-4.39l1.77-1a46.08,46.08,0,0,1,2.79,4.21Z"/><path d="M806.81,3084.28c-.22-.55-.62-1.41-1-2.22v8.19h-2v-7.11a16.57,16.57,0,0,1-1.73,3.74,11.19,11.19,0,0,0-1-2,19.13,19.13,0,0,0,2.55-6.37h-2.11v-2.09h2.28v-3.91h2v3.91h1.9v2.09h-1.9v.84c.51.7,1.88,2.79,2.2,3.31Zm5.17.78a7.81,7.81,0,0,1-3.93,4.9,9.27,9.27,0,0,0-1.16-1.44,6.16,6.16,0,0,0,2.64-2.38h-2.07v-1.52h3l.33-.06Zm6.78-.91c-.93.68-1.94,1.38-2.79,1.92a8.64,8.64,0,0,0,3.15,2,9.25,9.25,0,0,0-1.33,1.65,9.39,9.39,0,0,1-3.49-3v1.48c0,.95-.17,1.45-.82,1.75a6.36,6.36,0,0,1-2.62.32,6.07,6.07,0,0,0-.57-1.84c.66,0,1.39,0,1.6,0s.3-.06.3-.27V3084h-3.12v-1.54h4.56c-.87-.36-1.84-.72-2.68-1l.56-.61h-3.88v-1.65h4.52v-.74h-3.3v-1.54h3.3v-.7h-4v-1.6h2a12.38,12.38,0,0,0-.86-1.5l1.65-.61a11.16,11.16,0,0,1,1.16,1.9l-.49.21h3.06l-.38-.13a16.5,16.5,0,0,0,1-2l2,.57-1.14,1.54h2.34v1.6h-4.18v.7H818v1.54h-3.72v.74h4.5v1.65h-4.73a14.67,14.67,0,0,1,2.37,1l-1.19,1.35a9.52,9.52,0,0,0-1-.5v1a7.68,7.68,0,0,0,.68,1.18,19.79,19.79,0,0,0,2.13-2Z"/><path d="M818.65,3103.41h-7.37V3108c0,1.27-.29,1.9-1.18,2.26a11.37,11.37,0,0,1-4,.4,9.15,9.15,0,0,0-1-2.34c1.33.08,2.81.08,3.21.06s.55-.11.55-.44v-4.52H801.4v-2.26h7.52v-2.64a23.26,23.26,0,0,0,3.67-2.24h-9.31V3094h11.83l.54-.12,1.71,1.32a28.82,28.82,0,0,1-6.08,4.48v1.44h7.37Z"/><path d="M807.93,3132c1.46-.55,2.27-1.5,2.27-2.6H810a1.64,1.64,0,0,1-1.74-1.66,1.68,1.68,0,0,1,1.8-1.65c1.29,0,2,1,2,2.75a4.79,4.79,0,0,1-3.59,4.68Z"/><path d="M817.93,3147.68v4.43h-2.38v-2.26H804.29v2.26H802v-4.43h7.1a15.54,15.54,0,0,0-.82-1.95l2.21-.65a12.91,12.91,0,0,1,1.12,2.6Zm-4.26,12.68c1.46,0,1.69-.42,1.92-2.87a8.11,8.11,0,0,0,2.26.93c-.38,3.23-1.12,4.18-4.06,4.18h-5.11c-3.25,0-4.2-.74-4.2-3.35v-7.84h2.37v3.68a38.43,38.43,0,0,0,7.2-2.6l1.81,1.8a52,52,0,0,1-9,2.85v2.08c0,1,.27,1.14,1.92,1.14Z"/><path d="M818.59,3169.25h-2.18v11.32c0,1.37-.33,2-1.22,2.41a12.79,12.79,0,0,1-4.29.42A10.76,10.76,0,0,0,810,3181c1.35.07,3,.06,3.45.06s.61-.14.61-.54v-11.28H801.47V3167h17.12Zm-13.16,9.48v1.44h-2.21v-8.79h8.06v7.35Zm0-5.21v3H809v-3Z"/><path d="M809.28,3198.51c-2.5,1.12-5.32,2.32-7.46,3.21l-.76-2.41c.72-.25,1.57-.56,2.52-.94l-.38-11.09,2.36-.09.34,10.27c1-.4,1.92-.79,2.87-1.17Zm7.87,5.34a33,33,0,0,0-3.56-4.58,13.52,13.52,0,0,1-5.77,4.61,12.64,12.64,0,0,0-1.81-2c6-2.28,8-6.88,8.69-14.69l2.49.23a29.45,29.45,0,0,1-2.32,9.65,43.26,43.26,0,0,1,4.22,4.88ZM810,3194.1a19.1,19.1,0,0,0-2.83-4.71l2-1a19.35,19.35,0,0,1,3,4.56Z"/><path d="M810.71,3215.49a23.07,23.07,0,0,1-1.39,5.08c.32.19.67.45,1.12.76a7.2,7.2,0,0,0,3.88.81,41.49,41.49,0,0,0,4.75-.3,9.57,9.57,0,0,0-.52,2.11c-1,.07-3,.15-4.27.15a7.29,7.29,0,0,1-4.12-1c-.69-.45-1.26-1-1.66-1s-1.1,1.22-1.59,2.28l-1.37-2a8,8,0,0,1,2-1.83,19.37,19.37,0,0,0,1.07-3.62h-1.5v0a3,3,0,0,1-.8,2.42,2,2,0,0,1-1,.38,6.06,6.06,0,0,1-1.14,0,4,4,0,0,0-.46-1.67,3.91,3.91,0,0,0,.82,0,.79.79,0,0,0,.51-.15c.25-.17.33-.67.33-1.24a5.88,5.88,0,0,0-1.31-3.6c.38-1.18.74-2.68,1-3.9h-1.58v14.93h-1.78v-16.94h4l.26-.06,1.27.7c-.47,1.58-1.06,3.54-1.59,5.06a6.78,6.78,0,0,1,1.35,3.38c.34-1,.7-2.34,1-3.59h-1.36V3211h3.15a8,8,0,0,0,1.48-1.73H810.1v-1.44h2a10.08,10.08,0,0,0,.44-1.31l1.79.34c-.1.32-.19.65-.31,1h4.7v1.44h-5.3c-.14.29-.29.55-.44.82h5.17v1.23h-2v.9h2.43v1.23h-7v-1.23h2.62v-.9h-1.42v-.93a9.35,9.35,0,0,1-2.41,2.59c-.1-.17-.25-.46-.44-.74-.27,1-.55,2.09-.84,3.06h.52l.28-.06Zm-2.74-5.18c-.19-.86-.55-2.15-.8-3.16l1.71-.38c.27,1,.63,2.23.84,3Zm10.18,9.61c0,.82-.17,1.14-.7,1.39a6.42,6.42,0,0,1-2.34.23,6.81,6.81,0,0,0-.51-1.39c.55,0,1.2,0,1.37,0s.27-.08.27-.25v-1l-3,.82-.4-1.2a7.78,7.78,0,0,1-.76,2.89,7.28,7.28,0,0,0-1.55-1.05,8.16,8.16,0,0,0,.59-3.66v-2.66h7Zm-1.91-2.24v-2.28h-3.31v1.42c0,.4,0,.86,0,1.33.67-.07,1.43-.19,2.26-.32a19.14,19.14,0,0,0-2-1.29l.8-1a15.65,15.65,0,0,1,2.24,1.2l-.74,1.08Z"/><path d="M810.82,3237.23a10.93,10.93,0,0,1-1.65,4.41,8.35,8.35,0,0,0,4.52,1c.82,0,4.22,0,5.28,0a6.13,6.13,0,0,0-.66,1.84h-4.72c-2.31,0-4.17-.28-5.6-1.39a9.44,9.44,0,0,1-3,1.79,5.81,5.81,0,0,0-1-1.56,7.11,7.11,0,0,0,2.83-1.56,7.36,7.36,0,0,1-.76-1.34,6.67,6.67,0,0,1-.81.93c-.17-.21-.5-.57-.8-.9a12.14,12.14,0,0,1-1.58,4.39,8.16,8.16,0,0,0-1.76-1.35c1.53-2.47,1.65-6.06,1.65-8.56v-4.45h6V3227H811v1h6.08v1.57H811v.84h5.65l.36-.1,1.59.39a22,22,0,0,1-1.25,3.4l-1.88-.54a14,14,0,0,0,.49-1.44h-5.11v.7l4.35-.24.06,1.36-4.41.25c0,.44.13.63.8.63h3.65a14.42,14.42,0,0,0,2.35-.17c.06.59.12,1.14.19,1.61a10.69,10.69,0,0,1-2.33.15h-4.13c-2,0-2.6-.64-2.66-2.09l-3.11.17-.08-1.38,3.19-.17v-.82h-3.83v2.75a31.7,31.7,0,0,1-.29,4.45,10.55,10.55,0,0,0,2.13-3.7l1.69.41a6.82,6.82,0,0,1-.4,1h1.39l.34,0Zm-3.7,1.54a7.54,7.54,0,0,0,.76,1.61,7.2,7.2,0,0,0,.85-1.86h-1.46Zm8.83,3.17c-1.2,0-1.54-.38-1.54-1.65v-1.6h-1.12a4.61,4.61,0,0,1-1.77,3.71,7.07,7.07,0,0,0-1.38-1.18,3.23,3.23,0,0,0,1.38-2.87v-1.29h4.53v3.23c0,.42,0,.45.22.45h.38c.21,0,.27-.22.33-1.36a4.28,4.28,0,0,0,1.31.53c-.12,1.56-.5,2-1.41,2Z"/><path d="M816,3262.84c.65,0,.76-.32.85-2.53a7.07,7.07,0,0,0,2.07.9c-.24,3-.83,3.78-2.71,3.78h-2.51c-2.26,0-2.79-.69-2.79-2.81v-3h-2.3c-.4,3-1.52,5-6.21,6.08a7.21,7.21,0,0,0-1.26-2c3.9-.72,4.71-2,5-4.06h-2.32V3248h12.42v11.15h-3.09v3c0,.61.11.68.83.68Zm-10-11.7H814V3250H806Zm0,3H814V3253H806Zm0,3H814V3256H806Z"/><path d="M807.76,3281.78l3.63-.6.12,1.93c-3.33.65-6.92,1.3-9.5,1.75l-.5-2.09c1.14-.15,2.57-.38,4.11-.62v-2.59h-3.46v-1.95h3.46v-1.7h2.14v1.7h3.42v1.95h-3.42Zm-6.06-12.84h9.88v1.94H808.9a21,21,0,0,1,2.64,4l-1.71,1.12c-.11-.29-.26-.61-.43-1-5.25.43-6.06.53-6.61.76-.14-.46-.5-1.47-.73-2.05a1.88,1.88,0,0,0,.88-.8,15.59,15.59,0,0,0,1.18-2.13H801.7Zm6.65,4.43c-.36-.55-.74-1.08-1.1-1.56l1.6-.93h-2.28a23.54,23.54,0,0,1-1.66,2.68Zm6.06,7.69h-2.09v-11.47h2.09Zm3.74-13v14.7c0,1.2-.22,1.77-.95,2.13a8.27,8.27,0,0,1-3.28.42,9.7,9.7,0,0,0-.76-2.17c1,0,2,0,2.35,0s.44-.11.44-.44V3268Z"/><path d="M806.49,3297.12a23.79,23.79,0,0,1-1.48,4.94c.3.19.66.45,1.16.76,1.31.78,3.09.89,5.32.89a65.47,65.47,0,0,0,7.69-.49,7.74,7.74,0,0,0-.66,2.31c-1.56.1-4.93.23-7.15.23-2.52,0-4.12-.21-5.49-1-.8-.43-1.48-1.06-1.86-1.06s-1.12,1.29-1.59,2.38l-1.51-2.15a8.41,8.41,0,0,1,2-1.82,18.13,18.13,0,0,0,1.1-3.29h-2.39c.43-1.12.93-2.64,1.36-4.12h-1.7v-2h4.44c-.4,1.33-.85,2.85-1.31,4.18h.78l.34-.07Zm-3.19-5c-.21-.85-.72-2.22-1-3.27l2-.6c.36,1,.85,2.29,1.12,3.15Zm5.58,10.75h-2v-8.26h1.4v-5.81h8.19v5.81h1.39V3301c0,.89-.15,1.36-.74,1.67a5.53,5.53,0,0,1-2.36.3,6,6,0,0,0-.49-1.63h-2.85v.59h-1.62v-4.79h5v4.08h.78c.21,0,.27,0,.27-.24v-4.62h-7Zm1.41-8.26h1.06v-3h3.14v-1.16h-4.2Zm2.89,3.93h-1.71v1.33h1.71Zm1.31-5.51H813v1.58h1.5Z"/><path d="M809.62,3318.53a32.82,32.82,0,0,1-3.53,4.65l7.7-.45c-.67-1-1.37-1.92-2-2.74l2.09-.91a31.83,31.83,0,0,1,4.22,6.12l-2.2,1.14c-.21-.48-.48-1-.8-1.58-9.58.76-10.91.82-11.86,1.18-.13-.46-.51-1.6-.77-2.22a3.17,3.17,0,0,0,1.46-1.14,26.77,26.77,0,0,0,2.87-4h-5.34v-2.28h7.39v-2.7h-5.95v-2.28h5.95v-2.62h2.39v2.62h6.12v2.28H811.2v2.7h7.49v2.28Z"/><path d="M818.4,3332s0,.76,0,1c-.24,8.49-.45,11.51-1.23,12.52a2.54,2.54,0,0,1-1.83,1,20.19,20.19,0,0,1-3,0,5.27,5.27,0,0,0-.74-2.2c1.22.11,2.34.11,2.83.11a1,1,0,0,0,.84-.32c.55-.61.79-3.46,1-10.17h-4.06a16.88,16.88,0,0,1-1.67,3,13.18,13.18,0,0,0-1.47-1.07v8.87H804v1.39h-2v-14.12h2.15a21.57,21.57,0,0,0,.55-3.05l2.47.34c-.33.95-.67,1.9-1,2.71h2.94v3.08a19.37,19.37,0,0,0,2.57-6.11l2.15.49A23.13,23.13,0,0,1,813,3332ZM807,3334.13h-3v3.08h3Zm0,8.76v-3.73h-3v3.73Zm6.31-1a40.77,40.77,0,0,0-2.64-4.39l1.77-1a46.08,46.08,0,0,1,2.79,4.21Z"/><path d="M817.93,3351.93v4.43h-2.38v-2.26H804.29v2.26H802v-4.43h7.1a15.54,15.54,0,0,0-.82-1.95l2.21-.65a12.91,12.91,0,0,1,1.12,2.6Zm-4.26,12.68c1.46,0,1.69-.42,1.92-2.87a8.11,8.11,0,0,0,2.26.93c-.38,3.23-1.12,4.18-4.06,4.18h-5.11c-3.25,0-4.2-.74-4.2-3.35v-7.84h2.37v3.68a38.43,38.43,0,0,0,7.2-2.6l1.81,1.8a52,52,0,0,1-9,2.85v2.08c0,1,.27,1.14,1.92,1.14Z"/><path d="M807.93,3388.56c1.46-.55,2.27-1.5,2.27-2.6H810a1.63,1.63,0,0,1-1.74-1.65,1.67,1.67,0,0,1,1.8-1.65c1.29,0,2,1,2,2.75a4.79,4.79,0,0,1-3.59,4.67Z"/><path d="M809,3414.59a24.62,24.62,0,0,1-5.74,5,16.56,16.56,0,0,0-1.88-1.58,17.27,17.27,0,0,0,5.22-4.41Zm7.71-11.36v9.08H803.34v-9.08Zm-11.08,6.94h8.63v-4.77h-8.63Zm7.72,3.42a41.44,41.44,0,0,1,5.16,4.61l-2.12,1.33a34.63,34.63,0,0,0-5-4.78Z"/><path d="M811.35,3437.56c.5,0,1,.06,1.52.06,1.07,0,4.71,0,6.06-.06a8.19,8.19,0,0,0-.76,2.17h-5.41c-3.48,0-5.83-.49-7.43-2.7a8.48,8.48,0,0,1-2.66,3,8.92,8.92,0,0,0-1.71-1.57,8,8,0,0,0,3.54-5.76l2.26.34c-.14.61-.29,1.18-.44,1.73a4.2,4.2,0,0,0,2.73,2.38v-4.83h-7.4v-2H818.4v2h-7v1.42h5.85v2h-5.85Zm5.25-8H803.39v-6.59H816.6Zm-2.3-5h-8.7v1h8.7Zm0,2.46h-8.7v1h8.7Z"/><path d="M808.37,3455.77l-6.9,2-.56-2.13c.76-.17,1.69-.41,2.71-.68v-3.82h-2.11v-2.07h2.11v-3.3h-2.28v-2.09H808v2.09h-2.18v3.3h2v2.07h-2v3.25l2.26-.63Zm8.44,2.64c.34,0,.41-.31.45-2.21a5.61,5.61,0,0,0,1.88.84c-.19,2.6-.68,3.31-2.09,3.31h-1.42c-1.75,0-2.13-.65-2.13-2.57v-3.72h-1.16c-.34,3.09-1.21,5.3-5.26,6.49a6.91,6.91,0,0,0-1.25-1.86c3.43-.85,4-2.41,4.29-4.63h-1.39v-10.64H818v10.64h-2.33v3.72c0,.55,0,.63.36.63Zm-6-12h5v-1.18h-5Zm0,2.89h5v-1.18h-5Zm0,2.88h5V3451h-5Z"/><path d="M818.71,3468.46v1.62h-3.44l-.16,1.48H804.19l.19-1.48h-3v-1.62h3.21l.19-1.44h10.75l-.13,1.44Zm-5.06,9.8c1.67.46,3.35.95,4.47,1.31l-1.54,1.39c-1.37-.51-3.59-1.27-5.78-1.84l.78-.86H808.1l1.14.84a23.19,23.19,0,0,1-6.45,1.88,11.08,11.08,0,0,0-1.2-1.54,25.09,25.09,0,0,0,5-1.18h-2.72v-6.15h12.39v6.15ZM804,3468h-2v-3.31h6.93a8.61,8.61,0,0,0-.55-1.14l2-.55a10.39,10.39,0,0,1,.87,1.69h6.94V3468H816v-1.56H804Zm2.09,5.83H814v-.55h-7.91Zm0,1.67H814v-.59h-7.91Zm0,1.67H814v-.61h-7.91Zm.31-6.7h2.5l.08-.61h-2.51Zm.28-2.28-.07.55h2.48l.06-.55Zm6.52,2.28.06-.61h-2.44l-.07.61Zm.19-2.28H811l0,.55h2.39Z"/><path d="M811.35,3498.84c.5,0,1,.06,1.52.06,1.07,0,4.71,0,6.06-.06a8,8,0,0,0-.76,2.17h-5.41c-3.48,0-5.83-.5-7.43-2.7a8.57,8.57,0,0,1-2.66,3,9,9,0,0,0-1.71-1.58,8,8,0,0,0,3.54-5.75l2.26.34c-.14.61-.29,1.18-.44,1.73a4.19,4.19,0,0,0,2.73,2.37v-4.82h-7.4v-2H818.4v2h-7V3495h5.85v2h-5.85Zm5.25-8.05H803.39v-6.6H816.6Zm-2.3-5h-8.7v1h8.7Zm0,2.45h-8.7v1h8.7Z"/><path d="M805.1,3509.31v-.74a20.63,20.63,0,0,1-2,1.37h8v6H804.5c0,.19-.06.4-.1.59h7.14v5.07h-2v-.51h-3.52v.59h-1.88v-3.93A12,12,0,0,1,803,3521a10.78,10.78,0,0,0-2-.87c1.5-2.41,1.65-5.82,1.65-8v-1.92l-.43.23a12,12,0,0,0-1.18-2.16,13.09,13.09,0,0,0,5.64-4.32l2.07.82c-.11.17-.23.32-.34.48,1.41.81,3,1.74,3.86,2.37l-1.16,1.9c-.52-.42-1.26-.91-2.07-1.44v1.23Zm3.94,5v-.77h-4.35c0,.24,0,.51,0,.77Zm-4.32-2.84v.74H809v-.74Zm4.16-3.52-1.8-1.14c-.4.38-.82.78-1.24,1.14ZM806.05,3518v1.35h3.52V3518Zm8.68-1.5h-2.12v-10.6h2.12Zm3.48-12.5v15c0,1.21-.23,1.82-.93,2.18a7.19,7.19,0,0,1-3.27.46,9.2,9.2,0,0,0-.66-2.26c1,0,1.95,0,2.26,0s.44-.1.44-.42V3504Z"/><path d="M807.5,3525.16a29.9,29.9,0,0,1-1.83,4v13h-2.28v-9.5c-.4.48-.79,1-1.17,1.37a15.51,15.51,0,0,0-1.26-2.41,19.75,19.75,0,0,0,4.33-7.11Zm6,4.48v2h4.92v2.06h-4.92v2.14h5.17v2.09h-5.17v4.22H811.2v-12.5h-.72a20.79,20.79,0,0,1-2.49,3.69,14.63,14.63,0,0,0-1.73-1.58,19,19,0,0,0,4-7.16l2.18.55a21.24,21.24,0,0,1-.93,2.35h7.37v2.15Z"/><path d="M811.68,3552.55c-.74.54-1.47,1-2.25,1.52h6.9v8.44H814v-.5h-6.53v.57h-2.26v-6.21c-.95.42-1.94.84-2.91,1.2a12.41,12.41,0,0,0-1.38-1.86,33.51,33.51,0,0,0,7.06-3.16h-6.46v-2h6.1v-1.73h-4.46v-2h4.46v-2h2.24v2H814v.93a22.11,22.11,0,0,0,1.95-2.41l1.94,1a27.35,27.35,0,0,1-3.74,4.18h4.41v2Zm2.29,3.37h-6.53v1.21H814Zm0,4.21v-1.29h-6.53v1.29Zm-4.14-9.57h1a26.37,26.37,0,0,0,2-1.73h-3.1Z"/><path d="M807.93,3583.86c1.46-.55,2.27-1.5,2.27-2.6H810a1.63,1.63,0,0,1-1.74-1.65,1.67,1.67,0,0,1,1.8-1.65c1.29,0,2,1,2,2.75a4.79,4.79,0,0,1-3.59,4.67Z"/><path d="M816,3608.34c-.06.79-.1,1.46-.15,2.07H818v2h-2.35a3.83,3.83,0,0,1-.5,1.56,2,2,0,0,1-1.57.89,12.81,12.81,0,0,1-2.53,0,4.53,4.53,0,0,0-.55-1.73,15.7,15.7,0,0,0,2,.08c.33,0,.5,0,.67-.3a2.25,2.25,0,0,0,.23-.54H803.17c.22-1.12.45-2.54.68-4h-2.62v-2h2.91c.15-1.14.28-2.31.39-3.36-.47.57-.93,1.12-1.4,1.6a16.17,16.17,0,0,0-2-1.31,16.93,16.93,0,0,0,4.37-6.2l2.25.65c-.17.38-.37.78-.55,1.18h11v2H806c-.33.51-.65,1-1,1.46h11.25s0,.73,0,1c0,1.1-.08,2.07-.12,3h2.74v2Zm-9.92-.08c-.11.76-.21,1.46-.32,2.15H810a12.93,12.93,0,0,0-2.26-1.41l.76-.74Zm.51-3.93c-.07.68-.17,1.37-.26,2.07h3.78a11.8,11.8,0,0,0-2.21-1.31l.78-.76Zm7,6.08c0-.61.1-1.29.13-2.15h-3.95a13.6,13.6,0,0,1,2.23,1.5l-.65.65Zm.21-4c0-.65.06-1.31.08-2.07H810.1a12.83,12.83,0,0,1,2.16,1.42l-.64.65Z"/><path d="M811.62,3626.86a10.7,10.7,0,0,0,7.47,6.21,8,8,0,0,0-1.56,2.11,12.19,12.19,0,0,1-7.47-6.46c-1,2.53-3.19,4.92-7.46,6.52a8.83,8.83,0,0,0-1.49-2c4.39-1.55,6.25-4,7-6.42h-6.36v-2.32h6.84c0-.51.06-1,.06-1.46v-1.92h-6.22v-2.31h15v2.31h-6.46v2c0,.46,0,.93,0,1.42h7.24v2.32Z"/><path d="M817.58,3653.06c0,1.22-.26,1.83-1,2.17a8.82,8.82,0,0,1-3.65.4,8.51,8.51,0,0,0-.72-2.17c1.06.06,2.32,0,2.66,0s.49-.11.49-.46v-2.85h-4v5.31h-2.28v-5.31h-3.87a10.94,10.94,0,0,1-2.39,5.65,8.51,8.51,0,0,0-1.79-1.47c2.07-2.28,2.24-5.66,2.24-8.32v-6.78h14.34Zm-8.53-5v-2.34h-3.57v.34c0,.61,0,1.29-.05,2Zm-3.57-6.65v2.2h3.57v-2.2Zm9.86,0h-4v2.2h4Zm0,6.65v-2.34h-4v2.34Z"/><path d="M818,3667.43a18.88,18.88,0,0,1-3.16,4.16c.51,1.46,1.1,2.33,1.67,2.33.4,0,.63-.91.73-3.15a5.62,5.62,0,0,0,1.86,1.29c-.36,3.33-1.07,4.16-2.79,4.16-1.39,0-2.46-1.14-3.27-3a19.81,19.81,0,0,1-3.52,2.32,10.15,10.15,0,0,0-1.5-1.83,19.3,19.3,0,0,0,4.24-2.67,35.2,35.2,0,0,1-1-5.09h-3.86v2.16l2.93-.53.17,2.05-3.1.63v3.25c0,1.23-.26,1.84-1,2.2a8.15,8.15,0,0,1-3.42.44,9.26,9.26,0,0,0-.8-2.28c1.06.05,2.17,0,2.51,0s.45-.1.45-.4v-2.76c-1.21.25-2.39.5-3.4.69l-.55-2.28c1.08-.17,2.45-.38,4-.65V3666h-3.59v-2.15h3.59v-2.17c-1,.17-2.07.31-3,.42a8.18,8.18,0,0,0-.64-1.9,47.77,47.77,0,0,0,7.54-1.6l1.52,1.92c-1,.29-2,.54-3.1.76v2.57H811c-.15-1.71-.21-3.48-.23-5.21h2.38a46.85,46.85,0,0,0,.19,5.21h5.16V3666h-4.94c.16,1.13.35,2.24.56,3.21a16,16,0,0,0,1.8-2.59Zm-1.39-4.18a15,15,0,0,0-2.7-3.14l1.71-1.16a16.52,16.52,0,0,1,2.81,3Z"/><path d="M811.85,3687.09h-3.27v9.44h-2.09v-16.64c-.38,1.09-.82,2.21-1.31,3.29v13.39H803v-9.5a14.44,14.44,0,0,1-1.18,1.56,15.8,15.8,0,0,0-1.08-2.43,20.77,20.77,0,0,0,3.76-7.33l2.09.62-.11.36h5.34Zm-3.27-5.53v1.09h1.56v-1.09Zm1.56,3.82v-1.12h-1.56v1.12Zm8.2,8.57c0,1.25-.26,1.86-1,2.19a10,10,0,0,1-3.76.41,8.58,8.58,0,0,0-.72-2.18c1.15.07,2.46.06,2.84,0s.5-.12.5-.48v-6.84H812.7v-7.24h5.64Zm-3.85-12.39v1.09h1.69v-1.09Zm1.69,3.82v-1.12h-1.69v1.12Z"/><path d="M812.65,3705.41a49.45,49.45,0,0,1,6.32,5.15l-1.92,1.73a43.16,43.16,0,0,0-5.81-5.15V3717h-2.47v-9.27a22.79,22.79,0,0,1-6,4.67,12.9,12.9,0,0,0-1.56-2.05,20,20,0,0,0,8.19-7.47h-7.58v-2.31h16.47v2.31h-5.91a18.18,18.18,0,0,1-1.1,1.75v2Z"/><path d="M808,3724.62h-6.84v-1.79h2.76a20.1,20.1,0,0,0-1-2.41l1.9-.67a18.28,18.28,0,0,1,1.16,2.59l-1.27.49H808Zm-.45,10a13.44,13.44,0,0,0,.93-3.72l1.58.45a12.63,12.63,0,0,1-1.2,4.37l-1.31-.55v1.29h-4v.76h-1.86v-6.49h5.85Zm0-7.39h-5.88v-1.71h5.88Zm-5.88.88h5.88v1.69h-5.88Zm4,4.4h-2.11v2.19h2.11Zm8.72-10.24c-.38,3.31-1.35,6.08-4.94,7.75a5.37,5.37,0,0,0-1.26-1.59,6.37,6.37,0,0,0,2.93-2.28c-.72-.7-1.83-1.65-2.62-2.36l1.19-1.19c.67.53,1.54,1.21,2.25,1.82a12.78,12.78,0,0,0,.43-2.15h-3.64v-1.9h9.68s0,.61-.05.86c-.19,4.73-.42,6.57-.93,7.2a2,2,0,0,1-1.39.76,15,15,0,0,1-2.2,0,5.59,5.59,0,0,0-.59-1.94c.72.06,1.42.07,1.76.07a.74.74,0,0,0,.61-.22c.27-.35.46-1.66.61-4.87Zm0,13c.55,0,.64-.31.7-2.3a6.15,6.15,0,0,0,1.73.72c-.19,2.64-.7,3.32-2.22,3.32h-2.09c-1.86,0-2.32-.57-2.32-2.35v-4.14H812v4.12c0,.55.09.63.66.63Zm-1.26-6.35a12.41,12.41,0,0,1,2.11,2.81l-1.4,1a16.05,16.05,0,0,0-2-2.91Zm4.3,1.14a17.48,17.48,0,0,1,1.65,4.07l-1.65.6a17.21,17.21,0,0,0-1.52-4.12Z"/><path d="M804,3743.3h2.93v1.76h-5.49v-1.76h2.28a19.29,19.29,0,0,0-1.09-2.53l1.58-.59a15.66,15.66,0,0,1,1.24,2.51Zm2.57,4.33H802v-1.71h4.58Zm-4.58.87h4.58v1.69H802Zm4.61,8.32h-3v.8H802v-6.5h4.59Zm-3-4v2.24H805v-2.24Zm14.86-3.78a18.23,18.23,0,0,1-2.18,4.62c.2.95.41,1.5.64,1.5s.4-.82.48-2.26a6.7,6.7,0,0,0,1.44,1.25c-.48,2.93-1.31,3.57-2,3.57-.85,0-1.52-.79-2-2.18a13.59,13.59,0,0,1-2.49,2.22,6.21,6.21,0,0,0-1.27-1.23,10.81,10.81,0,0,0,1.14-.88h-1.12v-.45h-1.69v1.36h-1.81v-8.26h5.34V3755a16.21,16.21,0,0,0,1.35-1.58,48.6,48.6,0,0,1-.72-5.77H807v-1.9h1.12a15.33,15.33,0,0,0-.36-1.79l1.52-.27a14.43,14.43,0,0,1,.46,2.06h.68a18.26,18.26,0,0,0,.4-2.07l1.71.24c-.19.65-.38,1.29-.55,1.83h1.46c-.09-1.73-.15-3.61-.19-5.59h2c0,1.94.07,3.82.15,5.59h3.27v1.9h-3.14c.08,1.12.17,2.14.29,3.09a21.14,21.14,0,0,0,.93-2.54Zm-5.55-5.39h-5.64V3742h2a14.2,14.2,0,0,0-.61-1.37l1.75-.48a12.15,12.15,0,0,1,.84,1.85h1.61Zm-3.51,6.17V3751h1.69v-1.18Zm1.69,3.88v-1.22h-1.69v1.22Zm5.6-8.48a20.66,20.66,0,0,0-1.31-3.4l1.64-.64a20.62,20.62,0,0,1,1.42,3.3Z"/><path d="M818.4,3763.47s0,.76,0,1c-.24,8.49-.45,11.51-1.23,12.52a2.54,2.54,0,0,1-1.83,1,20.19,20.19,0,0,1-3,0,5.27,5.27,0,0,0-.74-2.2c1.22.11,2.34.11,2.83.11a1,1,0,0,0,.84-.32c.55-.61.79-3.46,1-10.17h-4.06a16.88,16.88,0,0,1-1.67,3,13.18,13.18,0,0,0-1.47-1.07v8.87H804v1.39h-2v-14.11h2.15a22,22,0,0,0,.55-3.06l2.47.34c-.33,1-.67,1.9-1,2.72h2.94v3.07a19.37,19.37,0,0,0,2.57-6.11l2.15.49a23.13,23.13,0,0,1-.75,2.41ZM807,3765.58h-3v3.08h3Zm0,8.76v-3.72h-3v3.72Zm6.31-1a40.77,40.77,0,0,0-2.64-4.39l1.77-1a44.8,44.8,0,0,1,2.79,4.22Z"/><path d="M808.48,3785.89h-7.33v-1.78h3.29a18.92,18.92,0,0,0-1.24-2.4l1.75-.81a18.42,18.42,0,0,1,1.43,2.52l-1.28.69h3.38Zm-.55,11.78h-4.08v.8H802v-6.55h6Zm-.13-9.21H802v-1.71h5.81Zm-5.81.85h5.81V3791H802Zm1.86,4.41v2.13H806v-2.13Zm15-4.86v1.86H808.16v-1.86h2.26c.12-.63.27-1.33.4-2.09h-1.71v-1.83h2c.08-.47.14-1,.21-1.4h-2.71v-1.86h9.74v1.86h-4.8c-.08.45-.16.93-.25,1.4h3.93v3.92Zm-9.77,2.75h8.74v7.07h-2.2v-.63h-4.43v.69h-2.11Zm2.11,1.94v2.56h4.43v-2.56Zm1.79-6.78c-.14.76-.29,1.46-.42,2.09h2.58v-2.09Z"/><path d="M813.25,3816.23a19.87,19.87,0,0,0,5.66,1.16,8,8,0,0,0-1.17,1.68,15.79,15.79,0,0,1-6.61-2.36v2.43h-2.28v-2.32a18.91,18.91,0,0,1-6.52,2.23,7.41,7.41,0,0,0-1.16-1.54,22,22,0,0,0,5.59-1.28h-5.11v-1.52h7.2v-.55h-4.66v-4.42h11.49v4.42h-4.55v.55h7.27v1.52Zm5.4-8.9H801.44v-1.53h10.94l.17-.55h-8.43a33.63,33.63,0,0,0,1.4-3.89l2.15.3-.19.55h6.06l.36-.09,1.65.3c-.25,1.16-.57,2.32-.89,3.38h4Zm-2.38,3.45v-1.59H803.64v1.59H801.7v-2.92h16.61v2.92Zm-10,.69h2.61v-.61h-2.61Zm2.61,1.59v-.61h-2.61v.61Zm4-9,.15-.61H807.1l-.21.61Zm.65,6.82h-2.41v.61h2.41Zm0,1.59h-2.41v.61h2.41Z"/><path d="M816.67,3837.3c.31,0,.38-.24.42-2a5.61,5.61,0,0,0,1.94.86c-.21,2.54-.76,3.25-2.09,3.25h-1.27c-1.73,0-2.09-.69-2.09-2.64v-3.8h-.88c-.28,3-1,5.35-4.06,6.74a6.74,6.74,0,0,0-1.12-1.58v.42h-3.71v.8h-1.94v-6.56h5.65v5.1c2.35-1,2.79-2.74,3-4.92h-1.24v-5.15c-.2.21-.43.42-.64.61a13.43,13.43,0,0,0-1.6-1.6l.08-.06h-6V3825H804a17,17,0,0,0-.91-2.4l1.9-.59a13,13,0,0,1,1,2.45l-1.46.54h3.35v1a13,13,0,0,0,2.69-3.93l2.09.64a18.82,18.82,0,0,1-2.64,4.18h6.52a35.79,35.79,0,0,0-3.12-3.95l1.58-1.06a31.44,31.44,0,0,1,4,5l-1.71,1.24c-.12-.21-.23-.42-.38-.65v5.44h-1.2v3.76c0,.55,0,.6.3.6Zm-9.4-8h-5.36v-1.71h5.36Zm-5.36.83h5.36v1.71h-5.36Zm3.74,4.43h-1.84v2.13h1.84Zm5.72-3.59h3.35v-2.11h-3.35Z"/><path d="M817.68,3847.76a21,21,0,0,1-2.38,7.22,9.53,9.53,0,0,0,3.8,3.06,7.91,7.91,0,0,0-1.53,1.95,10.4,10.4,0,0,1-3.71-3.06,13.34,13.34,0,0,1-4.27,3,9.14,9.14,0,0,0-1.2-1.93H804v1.12h-2.09v-8.4h2.53v-2.93h-3.31v-2.11h3.31v-3.47h2.26v3.47h3.11v2.11H806.7v2.93h2.09a5.54,5.54,0,0,0-.53-.38c1.69-1.84,2.73-4.88,3.25-8.13l2.31.36a29.53,29.53,0,0,1-.72,3h5.8v2.13ZM807,3852.87h-3v3.06h3Zm2.15,4.71a10.14,10.14,0,0,0,3.42-2.6,22,22,0,0,1-1.64-4.3,9.68,9.68,0,0,1-.83,1.2c-.21-.19-.57-.51-.95-.82Zm3.23-9.82a21,21,0,0,0,1.55,5,17.38,17.38,0,0,0,1.45-5Z"/><path d="M818.78,3875.13h-2v3.31h-2.3v-.78h-3.42v.59c0,1.12-.27,1.58-1,1.9a10.15,10.15,0,0,1-3.36.32,7.29,7.29,0,0,0-.74-1.78c.91,0,2,0,2.33,0s.48-.13.48-.47v-.59H803V3876h5.78v-.9h-7.52v-1.72h7.52v-.82h-5.62v-1.52h5.62v-.84h-5.15v-3.76h5.15v-.78H801.7v-1.78h7.09v-1.24h2.3v1.24h7.25v1.78h-7.25v.78h5.39v3.76h-5.39v.84h5.72v2.34h2Zm-10-6.32v-.91h-3v.91Zm2.3-.91v.91h3.08v-.91Zm0,5.51h3.42v-.82h-3.42Zm3.42,1.72h-3.42v.9h3.42Z"/><path d="M812.09,3892.62c-.72.36-1.46.68-2.22,1h7v7.2H814.6v-.49h-7.26v.49h-2.2v-5.56c-1,.3-2.09.57-3.13.81a14.85,14.85,0,0,0-1-1.78,45.73,45.73,0,0,0,6.36-1.67h-5.81v-1.94h6.12v-1.09h-4.56v-1.84h4.56v-1h2.24v1h4.18v1.58a14.72,14.72,0,0,0,2.49-2.07l1.67,1.06a20.59,20.59,0,0,1-2.83,2.36h3.09v1.94Zm-7.1-6.56h-3.44v-1.94H805v-1h2.24v1h2.41v1.94h-2.41v1.16H805Zm9.61,9.27h-7.26v.93h7.26Zm0,3.29v-.95h-7.26v.95Zm-4.67-7.94h2c.63-.34,1.26-.71,1.85-1.09h-3.82Zm3-4.62h-2.56v-1.94h2.56v-1h2.24v1h3.29v1.94h-3.29v1.16h-2.24Z"/></svg>