<svg id="圖層_1" data-name="圖層 1" xmlns="http://www.w3.org/2000/svg" viewBox="0 0 1620 3966.4"><defs><style>.cls-1{fill:#f9c90d;}</style></defs><rect class="cls-1" x="-2.83" width="1620" height="3966.4"/><path d="M847.94,75.37a18.84,18.84,0,0,1-3.15,4.16c.51,1.46,1.1,2.34,1.67,2.34.4,0,.63-.92.72-3.16A5.48,5.48,0,0,0,849,80c-.36,3.33-1.06,4.17-2.79,4.17-1.39,0-2.45-1.14-3.27-3a19.56,19.56,0,0,1-3.51,2.32,10.18,10.18,0,0,0-1.5-1.82A19.67,19.67,0,0,0,842.2,79a35.2,35.2,0,0,1-1-5.09h-3.85v2.16l2.92-.53.17,2-3.09.63v3.25c0,1.23-.27,1.84-1,2.2a8.15,8.15,0,0,1-3.42.44,8.63,8.63,0,0,0-.8-2.28c1.07.06,2.17,0,2.51,0s.46-.1.46-.4V78.67c-1.22.25-2.4.5-3.4.69l-.55-2.28c1.08-.17,2.45-.38,4-.65V73.89h-3.59V71.74h3.59V69.58c-1,.17-2.07.3-3,.41a8.89,8.89,0,0,0-.65-1.9A48.74,48.74,0,0,0,839,66.5l1.52,1.92c-1,.28-2,.53-3.09.76v2.56H841c-.15-1.71-.2-3.48-.22-5.2h2.37a46.75,46.75,0,0,0,.19,5.2h5.17v2.15h-4.94c.15,1.14.34,2.24.55,3.21a15.6,15.6,0,0,0,1.8-2.59Zm-1.39-4.18a15.11,15.11,0,0,0-2.69-3.13l1.7-1.16a16,16,0,0,1,2.82,3Z"/><path d="M841.35,102.08c.49,0,1,.06,1.52.06,1.06,0,4.71,0,6.06-.06a7.33,7.33,0,0,0-.76,2.17h-5.42c-3.47,0-5.83-.5-7.42-2.7a8.66,8.66,0,0,1-2.66,3A9.63,9.63,0,0,0,831,103a8,8,0,0,0,3.53-5.75l2.26.34c-.13.61-.28,1.18-.44,1.73a4.18,4.18,0,0,0,2.74,2.37V96.86h-7.41v-2H848.4v2h-7v1.42h5.85v2h-5.85Zm5.24-8h-13.2V87.44h13.2Zm-2.3-5h-8.7v1h8.7Zm0,2.45h-8.7v1h8.7Z"/><path d="M837.83,108.39A19.87,19.87,0,0,1,836,111a14.38,14.38,0,0,1,1.16,6.47c0,2.64-.21,5.23-1.14,6.44a1.91,1.91,0,0,1-1.22.8,8.69,8.69,0,0,1-2.6.19,4.8,4.8,0,0,0-.63-2.34,10.62,10.62,0,0,0,2.11,0,.7.7,0,0,0,.59-.34c.38-.51.57-2.22.59-4.33a17,17,0,0,1-2.43,2.49,10.31,10.31,0,0,0-1.54-1.71,12.78,12.78,0,0,0,3.8-4,11.61,11.61,0,0,0-.38-1.75,15.83,15.83,0,0,1-1.84,1.6,10.12,10.12,0,0,0-1.56-1.5,14,14,0,0,0,2.41-2.18,10.44,10.44,0,0,0-2.17-2.36l1.7-1.31a13.36,13.36,0,0,1,1.89,1.86,14.43,14.43,0,0,0,1-1.63Zm6.82,7.94a11.61,11.61,0,0,0,4.26,6.44,10.06,10.06,0,0,0-1.39,2.19,13.92,13.92,0,0,1-4.39-6.56,12,12,0,0,1-4.61,6.6,9.52,9.52,0,0,0-1.62-1.85c4.41-3.07,4.77-8,4.77-11.34v-4.5h2.26v4.52c0,.44,0,.91,0,1.39a22.15,22.15,0,0,0,.69,2.89,33.4,33.4,0,0,0,1.69-5.48l2.37.76a57.94,57.94,0,0,1-2.13,5.59Zm-5.81.84c-.19-1.54-.76-4.12-1.25-6.1l2.09-.64a58.43,58.43,0,0,1,1.46,5.94Z"/><path d="M844.65,137.44c-.19.31-.34.59-.51.84h4.18v1.65H836.58a7.47,7.47,0,0,1-.11.86H840s0,.43-.06.68c-.17,1.88-.38,2.81-.78,3.21a1.69,1.69,0,0,1-1.19.51,15.61,15.61,0,0,1-2,0,4.19,4.19,0,0,0-.44-1.61,12.42,12.42,0,0,0,1.43.07.66.66,0,0,0,.53-.15,2.71,2.71,0,0,0,.34-1.16h-1.78c-.55,1.39-1.66,2.38-3.9,3a5.23,5.23,0,0,0-1-1.48,4.45,4.45,0,0,0,2.75-1.56h-2v-1.57h2.62a7.47,7.47,0,0,0,.11-.86h-3v-1.65h4.43a4.57,4.57,0,0,0-.46-.88l1.43-.19H833.5V133.4h13v3.81h-3.38Zm3.78-8.72v1.64h-7.35v.76h6v1.55H833v-1.55h5.77v-.76h-7.12v-1.64h7.12v-1.06h2.3v1.06Zm-12.84,7.07h8.74v-.95h-8.74Zm2.22,1.42a3.1,3.1,0,0,1,.61,1.07h3.4a11.23,11.23,0,0,0,.4-1.07Zm3,3.33h6.78v4.8h-2.09v-.43h-2.7v.45h-2Zm2,1.54v1.29h2.7v-1.29Z"/><path d="M778.06,74.51a13.76,13.76,0,0,1-5.2,8.44A9.52,9.52,0,0,0,771,81.26a10.38,10.38,0,0,0,4.16-5.17h-3.68V74h4.63l.4-.09Zm10.3-1.29a47.81,47.81,0,0,1-4.62,3.69A11.73,11.73,0,0,0,789,81a8.41,8.41,0,0,0-1.57,2,13,13,0,0,1-6.14-5.87v4.35c0,1.23-.25,1.84-1.06,2.22a9.32,9.32,0,0,1-3.54.38,8.6,8.6,0,0,0-.76-2.26c.95.06,2.13.06,2.47,0s.46-.12.46-.42V72.37h-4.75V70.2h7a40.2,40.2,0,0,0-5.57-1.92l1.12-1.84a34.3,34.3,0,0,1,7,2.32l-1.21,2.11c-.33-.19-.74-.4-1.2-.61v1.58a19.92,19.92,0,0,0,1.35,3.34,24.76,24.76,0,0,0,3.63-3.5Z"/><path d="M776.48,95.66a23,23,0,0,1-1.5,4.94c.31.19.67.46,1.18.76,1.29.78,3.08.89,5.3.89a64.62,64.62,0,0,0,7.68-.49,8.78,8.78,0,0,0-.65,2.32c-1.58.09-4.92.22-7.14.22-2.53,0-4.13-.2-5.49-1-.8-.44-1.47-1.07-1.86-1.07s-1.12,1.3-1.58,2.38l-1.5-2.15a8,8,0,0,1,2-1.8A19.46,19.46,0,0,0,774,97.35h-2.4c.44-1.12.95-2.64,1.37-4.12h-1.71v-2h4.45c-.4,1.34-.86,2.85-1.3,4.18h.76l.35-.08Zm-3.21-5c-.21-.87-.7-2.24-1-3.28l2-.59c.36,1,.84,2.28,1.1,3.13Zm10,6.48,1.52.71a13.72,13.72,0,0,0,1.31-1h-3.29A9.73,9.73,0,0,1,781,98.25v1.57l2.58-.59a7.43,7.43,0,0,0,.06,1.52c-3.54.93-4.13,1.16-4.49,1.41a4.59,4.59,0,0,0-.59-1.48,1,1,0,0,0,.65-1.05v-.45a17.76,17.76,0,0,1-2.2.81,10.18,10.18,0,0,0-1.2-1.61,16.29,16.29,0,0,0,4.2-1.52h-2.45V92.64H787v3.91l1.31.84c-.67.48-1.39.91-2.05,1.29a19.26,19.26,0,0,1,2.22,1.37l-1.25,1.31a30.64,30.64,0,0,0-5.21-3.06Zm5.18-5.24H776.26V90.3h4.84v-.83h-3.88V87.89h3.88V86.81h2.19v1.08h4v1.58h-4v.83h5.12Zm-3.57,2.22h-5.2v1.2h5.2Z"/><path d="M788.4,110.14s0,.76,0,1c-.25,8.49-.46,11.51-1.24,12.52a2.52,2.52,0,0,1-1.82,1,20.19,20.19,0,0,1-3,0,5.38,5.38,0,0,0-.75-2.21c1.22.12,2.34.12,2.84.12a1,1,0,0,0,.83-.32c.55-.61.8-3.46,1-10.17H782.2a15.86,15.86,0,0,1-1.67,3,14.41,14.41,0,0,0-1.46-1.06V123H774v1.39h-2.06V110.27h2.15a19.17,19.17,0,0,0,.55-3.06l2.47.35c-.32,1-.66,1.9-1,2.71h3v3.08a19.65,19.65,0,0,0,2.56-6.12l2.15.5a23.83,23.83,0,0,1-.74,2.41ZM777,112.25h-3v3.08h3Zm0,8.76v-3.73h-3V121Zm6.3-1a40.77,40.77,0,0,0-2.64-4.39l1.77-1a46.08,46.08,0,0,1,2.79,4.21Z"/><path d="M777.83,128.82a20.46,20.46,0,0,1-1.8,2.6,14.42,14.42,0,0,1,1.16,6.48c0,2.64-.21,5.22-1.14,6.44a2,2,0,0,1-1.22.8,9.4,9.4,0,0,1-2.6.19,4.77,4.77,0,0,0-.63-2.34,10.62,10.62,0,0,0,2.11,0,.7.7,0,0,0,.59-.34c.38-.52.57-2.23.59-4.34a16.49,16.49,0,0,1-2.43,2.49,10.31,10.31,0,0,0-1.54-1.71,12.74,12.74,0,0,0,3.8-4,11.61,11.61,0,0,0-.38-1.75,16.84,16.84,0,0,1-1.84,1.6,10.12,10.12,0,0,0-1.56-1.5,13.69,13.69,0,0,0,2.41-2.19,10.44,10.44,0,0,0-2.17-2.36l1.7-1.31a13.4,13.4,0,0,1,1.89,1.87,15.48,15.48,0,0,0,1-1.64Zm6.82,7.94a11.65,11.65,0,0,0,4.26,6.44,10,10,0,0,0-1.39,2.18,13.94,13.94,0,0,1-4.39-6.55,12,12,0,0,1-4.61,6.59,9.76,9.76,0,0,0-1.62-1.84c4.41-3.08,4.77-8,4.77-11.34v-4.51h2.26v4.53c0,.43,0,.91,0,1.38a21.77,21.77,0,0,0,.69,2.89,33,33,0,0,0,1.69-5.47l2.37.76a57.67,57.67,0,0,1-2.13,5.58Zm-5.81.83c-.19-1.53-.76-4.12-1.25-6.09l2.09-.65a59.21,59.21,0,0,1,1.46,6Z"/><path d="M784.65,157.87c-.19.3-.34.59-.51.83h4.18v1.66H776.58a7,7,0,0,1-.11.85H780s0,.44-.06.68c-.17,1.89-.38,2.82-.78,3.22a1.73,1.73,0,0,1-1.19.51,17.72,17.72,0,0,1-2,0,4.24,4.24,0,0,0-.44-1.62,10.88,10.88,0,0,0,1.43.08.66.66,0,0,0,.53-.15,2.82,2.82,0,0,0,.34-1.16h-1.78c-.55,1.38-1.66,2.37-3.9,3a5.09,5.09,0,0,0-1-1.48,4.54,4.54,0,0,0,2.75-1.56h-2v-1.58h2.62a7,7,0,0,0,.11-.85h-3V158.7h4.43a4.79,4.79,0,0,0-.46-.87l1.43-.19H773.5v-3.82h13v3.82h-3.38Zm3.78-8.72v1.63h-7.35v.76h6v1.56H773v-1.56h5.77v-.76h-7.12v-1.63h7.12v-1.07h2.3v1.07Zm-12.84,7.06h8.74v-1h-8.74Zm2.22,1.43a3.07,3.07,0,0,1,.61,1.06h3.4c.15-.36.31-.76.4-1.06Zm3,3.32h6.78v4.81h-2.09v-.44h-2.7v.46h-2Zm2,1.54v1.29h2.7V162.5Z"/><path d="M781.35,183.78c.49,0,1,.06,1.52.06,1.06,0,4.71,0,6.06-.06a7.33,7.33,0,0,0-.76,2.17h-5.42c-3.47,0-5.83-.5-7.42-2.7a8.66,8.66,0,0,1-2.66,3,9.63,9.63,0,0,0-1.71-1.58,8,8,0,0,0,3.53-5.75l2.26.34c-.13.61-.28,1.18-.44,1.73a4.18,4.18,0,0,0,2.74,2.37v-4.82h-7.41v-2H788.4v2h-7V180h5.85v2h-5.85Zm5.24-8.05h-13.2v-6.59h13.2Zm-2.3-5h-8.7v1h8.7Zm0,2.45h-8.7v1h8.7Z"/><path d="M788.76,196.38v2.45H771.28v-2.45Z"/><path d="M776.71,210a35.61,35.61,0,0,1-1.48,3.61V227.1h-2.15v-9.72a18,18,0,0,1-1.27,1.63,16.06,16.06,0,0,0-1.06-2.45,20.17,20.17,0,0,0,3.87-7.18Zm11.61.29v16.58h-2.15V226H779v1.1h-2V210.31ZM786.17,224V212.27H779V224Zm-2.73-7.77v1.63h1.82V223H780v-5.09h1.69v-1.63h-2.18V214.6h2.18v-1.94h1.75v1.94h2.3v1.64Zm.13,3.19h-1.94v2h1.94Z"/><path d="M788.45,232.39v2.16H778.29a21.94,21.94,0,0,1-2.22,3.74v9.2h-2.3v-6.61a15.46,15.46,0,0,1-1.67,1.33A15.11,15.11,0,0,0,771,240a14.32,14.32,0,0,0,4.74-5.47h-4.13v-2.16h5.13c.33-.9.61-1.77.84-2.64l2.37.57c-.21.7-.45,1.38-.72,2.07Zm-4.56,12.55h4.51V247H777v-2.09h4.59v-4.33h-3.85v-2.09h3.85v-3.15h2.28v3.15h3.76v2.09h-3.76Z"/><path d="M783.09,262.84a11.87,11.87,0,0,0,.23,1.5c-2.58.71-3.64,1-4.18,1.24.71.05,1.5.07,2.32.07a64.62,64.62,0,0,0,7.68-.49,8.78,8.78,0,0,0-.65,2.32c-1.58.09-4.92.23-7.14.23-2.51,0-4.13-.21-5.49-1-.78-.44-1.47-1.07-1.86-1.07s-1.11,1.3-1.58,2.38l-1.5-2.15A7.76,7.76,0,0,1,773,264a21.72,21.72,0,0,0,1-3.27H771.6c.46-1.14,1-2.64,1.43-4.12h-1.75v-2h4.5c-.4,1.34-.89,2.86-1.35,4.18h.69l.34-.08.95.34a28.07,28.07,0,0,1-.74,3,19,19,0,0,0,4.54-1.35h-2.83v-3.49h9.76v3.49h-.4l1.07.69c-.54.38-1.12.77-1.69,1.1.79.47,1.53.93,2,1.27l-1.1,1.39c-1-.84-3.21-2.19-4.75-3.14l1-1.17,1.37.81a15.85,15.85,0,0,0,1.31-.95h-3.09a11.31,11.31,0,0,1-2.28,1.52v1.2Zm-9.8-8.77c-.21-.86-.72-2.23-1-3.25l2-.61c.36,1,.86,2.3,1.12,3.13Zm5.46,9a17.46,17.46,0,0,1-2,.57,8.23,8.23,0,0,0-1.12-1.48A15.59,15.59,0,0,1,775,264c.33.21.69.48,1.16.76a6.66,6.66,0,0,0,2.45.76,4.17,4.17,0,0,0-.55-1.18,1,1,0,0,0,.69-1.1Zm9.85-6.42H775.88v-1.56H788.6Zm-.87-2.15h-10.9V250.7h10.9ZM779.89,252h-1.16v1.31h1.16Zm-.42,7.54h5.43v-1h-5.43Zm3.34-7.54h-1.22v1.31h1.22Zm2.91,0H784.5v1.31h1.22Z"/><path d="M774.62,279.54a15.79,15.79,0,0,0-3.51-2.07l1.18-1.69a15.7,15.7,0,0,1,3.59,1.9Zm2.24,2.59c-1,2-2.09,4.16-3.19,6l-1.94-1.48a59,59,0,0,0,3.44-6Zm-1.17-7.64a14.09,14.09,0,0,0-3.48-2.13l1.23-1.67a14.08,14.08,0,0,1,3.58,2Zm12.23,5.45a11.11,11.11,0,0,1-3.1,4.94,16.66,16.66,0,0,0,4.26,1.41,8.54,8.54,0,0,0-1.48,2,15.2,15.2,0,0,1-4.75-2,18.46,18.46,0,0,1-5.55,2,7.45,7.45,0,0,0-1.12-2,16.39,16.39,0,0,0,4.79-1.47,12.28,12.28,0,0,1-2.28-2.92l1.46-.5h-2.56v-2H786l.4-.08Zm-6.76-5.64a11.44,11.44,0,0,1-2.93,5,12.74,12.74,0,0,0-2-1.43c1.93-1.52,2.92-4.14,3.3-7.28l2.34.27c-.08.48-.15.93-.25,1.39h6.19s0,.53-.05.83c-.19,3.06-.44,4.43-.95,5a2.12,2.12,0,0,1-1.52.68,22.89,22.89,0,0,1-2.47,0,4.8,4.8,0,0,0-.67-2.09,19.6,19.6,0,0,0,2.09.12.94.94,0,0,0,.67-.19,4.75,4.75,0,0,0,.51-2.36Zm-.34,7.12a9.24,9.24,0,0,0,2,2.23,8,8,0,0,0,1.95-2.23Z"/><path d="M774.24,298.49v10.29H772v-17h7.31v6.73Zm0-5.11v1h3v-1Zm3,3.47v-1h-3v1Zm5.57,7.66v3.91h-2v-3.91H779a6.15,6.15,0,0,1-2.43,4.25,9.39,9.39,0,0,0-1.44-1.29,4.45,4.45,0,0,0,1.93-3h-1.91v-1.84h2v-1.43H775.4v-1.78h9.18v1.78h-1.79v1.43h2.09v1.84Zm-2-1.84v-1.43h-1.77v1.43Zm7.23,3.47c0,1.16-.21,1.79-.89,2.15a6.72,6.72,0,0,1-3.11.44,8,8,0,0,0-.69-2.25c.86,0,1.79,0,2.07,0s.4-.11.4-.38v-7.6h-5.22v-6.76h7.44Zm-5.3-12.76v1h3.08v-1Zm3.08,3.51v-1.08h-3.08v1.08Z"/><path d="M778,317.14a18.67,18.67,0,0,1-1.2,6.56,27.43,27.43,0,0,1,2.09,2.07l-1.39,1.77a24,24,0,0,0-1.73-1.85,12.75,12.75,0,0,1-3.24,3.5,7.2,7.2,0,0,0-1.53-1.54,11.63,11.63,0,0,0,3.22-3.44c-1-.87-1.9-1.73-2.74-2.45.36-1.14.72-2.64,1-4.24l-1.24.08-.21-2c.55,0,1.16,0,1.81-.08.22-1.35.41-2.72.51-3.93l2.09.13c-.13,1.16-.31,2.43-.53,3.71l1-.06v-1.22h2v1.11l.83,0,0,1.88Zm-3.4.25c-.27,1.31-.57,2.59-.86,3.71.46.36.91.76,1.37,1.15a15.33,15.33,0,0,0,.85-4.95Zm12.65,3.16c-.12-.38-.29-.82-.48-1.26-6.19.53-7.14.63-7.84.91-.14-.43-.48-1.52-.72-2.11.39-.11.74-.49,1.19-1.17a26.22,26.22,0,0,0,2.62-5.44l2.36.63a35.9,35.9,0,0,1-3,5.51l4.3-.3c-.48-.8-1-1.6-1.48-2.28l1.8-.9a21.7,21.7,0,0,1,3.14,5.36Zm-8.21.72h8.89v7.92h-2.16v-.74h-4.66v.76H779Zm2.07,2v3.21h4.66v-3.21Z"/><path d="M787.64,336.45a38.57,38.57,0,0,1-10.15,9.8,9.23,9.23,0,0,0,4.77.86,53.26,53.26,0,0,0,6.65-.46,11.85,11.85,0,0,0-.65,2.41c-1.35.1-4.21.21-6.08.21-2.33,0-3.85-.24-5.14-1-.82-.48-1.45-1.12-1.87-1.12-.59,0-1.44,1.27-2.22,2.48l-1.63-2.12c1.36-1.47,2.87-2.47,3.91-2.47h.11a33.25,33.25,0,0,0,8.4-7.37H772.29V335.4h7.4c-.45-.81-1.15-1.86-1.7-2.66l2-1.08a33.35,33.35,0,0,1,2.13,3.08l-1.16.66h4.46l.44-.11Z"/><path d="M777.07,357.1a20.77,20.77,0,0,1-1.5,2.51v10.51h-2.13v-7.89c-.39.42-.81.8-1.19,1.14a14.78,14.78,0,0,0-1.2-2.11,15.72,15.72,0,0,0,4-4.86Zm-.34-4a20.51,20.51,0,0,1-4.33,4.66,13.79,13.79,0,0,0-1.2-1.64,15,15,0,0,0,3.54-3.78Zm10.58,9.6a10.6,10.6,0,0,1-3.17,4.27,20.45,20.45,0,0,0,4.46,1.22,8,8,0,0,0-1.34,1.95,17.5,17.5,0,0,1-5.17-1.8,20,20,0,0,1-5.25,1.84,7.07,7.07,0,0,0-1.06-1.92,18.08,18.08,0,0,0,4.33-1.23,12,12,0,0,1-1.25-1.12,15.35,15.35,0,0,1-1.24,1,15.88,15.88,0,0,0-1.48-1.64c.46-.3.91-.63,1.37-1a12.47,12.47,0,0,1-1-1.68l1.85-.6a7.33,7.33,0,0,0,.51.91,12.44,12.44,0,0,0,1.31-1.83,12.51,12.51,0,0,0-3,.42,15.14,15.14,0,0,0-.67-2.05,5.89,5.89,0,0,0,2.15-.93,15.48,15.48,0,0,0,1.73-1,9.9,9.9,0,0,0-2.79.32c-.14-.47-.48-1.53-.73-2.12a4,4,0,0,0,1.28-.67,15,15,0,0,0,3.06-2.66l2.26,1a24.72,24.72,0,0,1-3,2.43l2.45,0c.72-.57,1.42-1.15,2-1.76l2.11,1.14a35.9,35.9,0,0,1-6,4.06l4-.21c-.26-.38-.53-.74-.77-1.08L786,357a42.32,42.32,0,0,1,2.87,4.12L787,362.17a16.77,16.77,0,0,0-.87-1.53l-3.5.22c-.21.44-.44.86-.66,1.28h3.61l.36-.1Zm-6.63,1.23c-.15.19-.3.38-.45.55a11.4,11.4,0,0,0,1.9,1.47,8.11,8.11,0,0,0,2.14-2Z"/><path d="M788.4,375.67s0,.75,0,1c-.25,8.49-.46,11.51-1.24,12.52a2.52,2.52,0,0,1-1.82,1,20.19,20.19,0,0,1-3,0,5.39,5.39,0,0,0-.75-2.2c1.22.11,2.34.11,2.84.11a1,1,0,0,0,.83-.32c.55-.61.8-3.46,1-10.16H782.2a16.17,16.17,0,0,1-1.67,3,14.33,14.33,0,0,0-1.46-1.07v8.88H774v1.38h-2.06V375.8h2.15a19.37,19.37,0,0,0,.55-3.06l2.47.34c-.32.95-.66,1.9-1,2.72h3v3.08a19.75,19.75,0,0,0,2.56-6.12l2.15.49a23.24,23.24,0,0,1-.74,2.42ZM777,377.77h-3v3.08h3Zm0,8.76v-3.72h-3v3.72Zm6.3-1a39.82,39.82,0,0,0-2.64-4.39l1.77-1a46.13,46.13,0,0,1,2.79,4.22Z"/><path d="M787.67,398.67a20.64,20.64,0,0,1-2.37,7.22,9.38,9.38,0,0,0,3.8,3.06,8.19,8.19,0,0,0-1.54,2,10.39,10.39,0,0,1-3.7-3.06,13.7,13.7,0,0,1-4.28,3,9.46,9.46,0,0,0-1.2-1.94H774v1.12h-2.09v-8.4h2.52v-2.92h-3.3v-2.11h3.3v-3.48h2.26v3.48h3.12v2.11h-3.12v2.92h2.09c-.19-.15-.38-.28-.53-.38,1.69-1.84,2.74-4.88,3.25-8.13l2.32.37a29.55,29.55,0,0,1-.73,3h5.8v2.12ZM777,403.78h-3v3.06h3Zm2.14,4.72a9.85,9.85,0,0,0,3.42-2.61A21.63,21.63,0,0,1,781,401.6a10.52,10.52,0,0,1-.84,1.2c-.21-.19-.57-.52-1-.82Zm3.23-9.83a21,21,0,0,0,1.56,5.06,17.46,17.46,0,0,0,1.44-5.06Z"/><path d="M788.78,426.05h-2v3.31h-2.3v-.78h-3.42v.59c0,1.12-.26,1.57-1,1.9a10.11,10.11,0,0,1-3.36.32,6.78,6.78,0,0,0-.74-1.79c.91,0,2,0,2.34,0s.47-.13.47-.47v-.59H773v-1.64h5.77v-.89h-7.52v-1.73h7.52v-.81h-5.62V422h5.62v-.84h-5.14v-3.76h5.14v-.78H771.7v-1.79h7.08v-1.23h2.3v1.23h7.26v1.79h-7.26v.78h5.4v3.76h-5.4V422h5.72v2.33h2Zm-10-6.32v-.92h-3v.92Zm2.3-.92v.92h3.08v-.92Zm0,5.51h3.42v-.81h-3.42Zm3.42,1.73h-3.42v.89h3.42Z"/><path d="M777.92,452.63c1.46-.55,2.28-1.5,2.28-2.6H780a1.64,1.64,0,0,1-1.75-1.65,1.69,1.69,0,0,1,1.81-1.66c1.29,0,2,1,2,2.76a4.79,4.79,0,0,1-3.59,4.67Z"/><path d="M778.06,474.07a13.76,13.76,0,0,1-5.2,8.43,9.85,9.85,0,0,0-1.83-1.69,10.34,10.34,0,0,0,4.16-5.17h-3.68v-2.13h4.63l.4-.09Zm10.3-1.3a46.33,46.33,0,0,1-4.62,3.69,11.73,11.73,0,0,0,5.28,4.1,8.41,8.41,0,0,0-1.57,2,13,13,0,0,1-6.14-5.87V481c0,1.23-.25,1.84-1.06,2.22a9.32,9.32,0,0,1-3.54.38,8.6,8.6,0,0,0-.76-2.26c.95.06,2.13.06,2.47,0s.46-.12.46-.42v-9.06h-4.75v-2.17h7a40.2,40.2,0,0,0-5.57-1.92l1.12-1.84a34.3,34.3,0,0,1,7,2.32l-1.21,2.11c-.33-.19-.74-.4-1.2-.61v1.58a19.92,19.92,0,0,0,1.35,3.34,24.25,24.25,0,0,0,3.63-3.5Z"/><path d="M776.48,495.21a23,23,0,0,1-1.5,4.94c.31.19.67.46,1.18.76,1.29.78,3.08.89,5.3.89a64.62,64.62,0,0,0,7.68-.49,8.78,8.78,0,0,0-.65,2.32c-1.58.09-4.92.23-7.14.23-2.53,0-4.13-.21-5.49-1-.8-.44-1.47-1.06-1.86-1.06s-1.12,1.29-1.58,2.37l-1.5-2.15a8,8,0,0,1,2-1.8A19.46,19.46,0,0,0,774,496.9h-2.4c.44-1.12.95-2.64,1.37-4.12h-1.71v-2h4.45c-.4,1.35-.86,2.85-1.3,4.18h.76l.35-.08Zm-3.21-5c-.21-.87-.7-2.24-1-3.28l2-.59c.36,1,.84,2.28,1.1,3.13Zm10,6.48,1.52.71a13.72,13.72,0,0,0,1.31-1h-3.29A9.73,9.73,0,0,1,781,497.8v1.57l2.58-.59a7.43,7.43,0,0,0,.06,1.52c-3.54.93-4.13,1.16-4.49,1.41a4.59,4.59,0,0,0-.59-1.48,1,1,0,0,0,.65-1.05v-.45a16.29,16.29,0,0,1-2.2.81,10.18,10.18,0,0,0-1.2-1.61,16.29,16.29,0,0,0,4.2-1.52h-2.45v-4.22H787v3.91l1.31.84c-.67.48-1.39.91-2.05,1.29a19.26,19.26,0,0,1,2.22,1.37l-1.25,1.31a30.64,30.64,0,0,0-5.21-3.06Zm5.18-5.24H776.26v-1.62h4.84V489h-3.88v-1.58h3.88v-1.08h2.19v1.08h4V489h-4v.83h5.12Zm-3.57,2.22h-5.2v1.2h5.2Z"/><path d="M788.4,509.69s0,.76,0,1c-.25,8.49-.46,11.51-1.24,12.52a2.52,2.52,0,0,1-1.82,1,20.19,20.19,0,0,1-3,0,5.29,5.29,0,0,0-.75-2.2c1.22.11,2.34.11,2.84.11a1,1,0,0,0,.83-.32c.55-.61.8-3.46,1-10.17H782.2a15.86,15.86,0,0,1-1.67,3,14.41,14.41,0,0,0-1.46-1.06v8.87H774v1.39h-2.06V509.82h2.15a19.17,19.17,0,0,0,.55-3.06l2.47.35c-.32.95-.66,1.9-1,2.71h3v3.08a19.55,19.55,0,0,0,2.56-6.12l2.15.5a23.83,23.83,0,0,1-.74,2.41ZM777,511.8h-3v3.08h3Zm0,8.76v-3.73h-3v3.73Zm6.3-1a40.77,40.77,0,0,0-2.64-4.39l1.77-1a46.08,46.08,0,0,1,2.79,4.21Z"/><path d="M777.83,528.37A20.46,20.46,0,0,1,776,531a14.42,14.42,0,0,1,1.16,6.48c0,2.64-.21,5.22-1.14,6.44a2,2,0,0,1-1.22.8,8.69,8.69,0,0,1-2.6.19,4.77,4.77,0,0,0-.63-2.34,10.62,10.62,0,0,0,2.11,0,.7.7,0,0,0,.59-.34c.38-.52.57-2.23.59-4.33a16.88,16.88,0,0,1-2.43,2.48,9.87,9.87,0,0,0-1.54-1.7,12.78,12.78,0,0,0,3.8-4,11.61,11.61,0,0,0-.38-1.75,16.84,16.84,0,0,1-1.84,1.6,10.12,10.12,0,0,0-1.56-1.5,13.69,13.69,0,0,0,2.41-2.19,10.66,10.66,0,0,0-2.17-2.36l1.7-1.31a13.4,13.4,0,0,1,1.89,1.87,15.48,15.48,0,0,0,1-1.64Zm6.82,7.94a11.61,11.61,0,0,0,4.26,6.44,10,10,0,0,0-1.39,2.18,13.94,13.94,0,0,1-4.39-6.55,12,12,0,0,1-4.61,6.59,9.76,9.76,0,0,0-1.62-1.84c4.41-3.08,4.77-8,4.77-11.34v-4.5h2.26v4.52c0,.43,0,.91,0,1.38a21.77,21.77,0,0,0,.69,2.89,33,33,0,0,0,1.69-5.47l2.37.76a57.94,57.94,0,0,1-2.13,5.59Zm-5.81.83c-.19-1.53-.76-4.12-1.25-6.09l2.09-.65a59.21,59.21,0,0,1,1.46,6Z"/><path d="M784.65,557.42c-.19.3-.34.59-.51.83h4.18v1.66H776.58a7,7,0,0,1-.11.85H780s0,.44-.06.69c-.17,1.88-.38,2.81-.78,3.21a1.73,1.73,0,0,1-1.19.51,15.61,15.61,0,0,1-2,0,4.24,4.24,0,0,0-.44-1.62,10.88,10.88,0,0,0,1.43.08.66.66,0,0,0,.53-.15,2.82,2.82,0,0,0,.34-1.16h-1.78c-.55,1.38-1.66,2.37-3.9,3a5.09,5.09,0,0,0-1-1.48,4.5,4.5,0,0,0,2.75-1.56h-2v-1.58h2.62a7,7,0,0,0,.11-.85h-3v-1.66h4.43a4.79,4.79,0,0,0-.46-.87l1.43-.19H773.5v-3.82h13v3.82h-3.38Zm3.78-8.72v1.63h-7.35v.76h6v1.56H773v-1.56h5.77v-.76h-7.12V548.7h7.12v-1.07h2.3v1.07Zm-12.84,7.06h8.74v-.94h-8.74Zm2.22,1.43a3.07,3.07,0,0,1,.61,1.06h3.4c.15-.36.31-.76.4-1.06Zm3,3.32h6.78v4.81h-2.09v-.44h-2.7v.46h-2Zm2,1.54v1.29h2.7v-1.29Z"/><path d="M781.35,583.33c.49,0,1,.06,1.52.06,1.06,0,4.71,0,6.06-.06a7.43,7.43,0,0,0-.76,2.17h-5.42c-3.47,0-5.83-.5-7.42-2.7a8.66,8.66,0,0,1-2.66,3,9.23,9.23,0,0,0-1.71-1.57,8.08,8.08,0,0,0,3.53-5.76l2.26.34c-.13.61-.28,1.18-.44,1.73a4.18,4.18,0,0,0,2.74,2.37v-4.82h-7.41v-2H788.4v2h-7v1.42h5.85v2h-5.85Zm5.24-8.05h-13.2v-6.59h13.2Zm-2.3-5h-8.7v1h8.7Zm0,2.45h-8.7v1h8.7Z"/><path d="M788.76,595.93v2.45H771.28v-2.45Z"/><path d="M776.71,609.57a35.61,35.61,0,0,1-1.48,3.61v13.47h-2.15v-9.72a18,18,0,0,1-1.27,1.63,16.06,16.06,0,0,0-1.06-2.45,20.17,20.17,0,0,0,3.87-7.18Zm11.61.29v16.58h-2.15v-.93H779v1.1h-2V609.86Zm-2.15,13.7V611.82H779v11.74Zm-2.73-7.77v1.63h1.82v5.09H780v-5.09h1.69v-1.63h-2.18v-1.64h2.18v-1.94h1.75v1.94h2.3v1.64Zm.13,3.19h-1.94v2h1.94Z"/><path d="M784,644.29c2,0,2.26-.5,2.54-3.25a8.32,8.32,0,0,0,2.28.87c-.43,3.57-1.27,4.62-4.73,4.62h-6.29c-3.66,0-4.78-.73-4.78-3.59v-8.86h2.33v2.59H784v-4H772.27v-2.24h14.07v9.4H784v-.89h-8.63v4.05c0,1.17.35,1.35,2.44,1.35Z"/><path d="M776.86,661.52c0-.23-.09-.51-.15-.82-3.8.57-4.48.7-4.9.91-.11-.4-.46-1.4-.7-2a3.28,3.28,0,0,0,1.48-1.24,19,19,0,0,0,1.2-1.57,7.49,7.49,0,0,0-2.13.41,18,18,0,0,0-.67-1.86,2.28,2.28,0,0,0,1.09-1,21.83,21.83,0,0,0,2.26-4.68l1.95.82a26.74,26.74,0,0,1-2.54,4.54l1.25-.09a27.55,27.55,0,0,0,1.28-2.47l1.86,1.14a34.56,34.56,0,0,1-3.88,5.66l2-.25c-.14-.51-.31-1-.46-1.48l1.62-.51a27.79,27.79,0,0,1,1.17,3.91Zm-3.17,1a22.46,22.46,0,0,1-.87,4.86,12.72,12.72,0,0,0-1.77-.65,16.78,16.78,0,0,0,.8-4.5Zm1.94-.33a34.37,34.37,0,0,1,.51,3.92l-1.73.34a34.45,34.45,0,0,0-.4-3.93Zm1.88-.59a26,26,0,0,1,.87,2.89l-1.59.57a22,22,0,0,0-.82-3ZM788.85,665v2.07H778V665h4.29v-2.63h-3.42v-2h9.21v2h-3.51V665ZM782,653.31c-.57,1-1.21,2.05-1.82,3a20,20,0,0,1,2,3l-1.81.7a19.59,19.59,0,0,0-2.24-3.71,27.88,27.88,0,0,0,2-3.43Zm6.63-.76H778.4v-2h10.24Zm-5.07,7.37a19.8,19.8,0,0,0-2.3-3.66,30.8,30.8,0,0,0,2-3.37l1.89.44c-.56,1-1.23,2-1.82,2.91a22,22,0,0,1,2,2.94Zm3.34.08a19,19,0,0,0-2.5-3.71,31.07,31.07,0,0,0,2.09-3.43l1.93.45c-.59,1-1.27,2.05-1.9,3a20.26,20.26,0,0,1,2.17,3Z"/><path d="M778.33,674.78a24.21,24.21,0,0,1-2.3,3.9v9.19h-2.28v-6.63a16.58,16.58,0,0,1-1.79,1.41,18.08,18.08,0,0,0-1.06-2.17,14.84,14.84,0,0,0,4.86-5.7h-4.18v-2.16h5.15c.31-.84.57-1.66.78-2.47l2.36.57c-.19.64-.42,1.25-.65,1.9h9.23v2.16Zm10.41,8.36h-4.5v2.38c0,1.14-.19,1.72-1,2.07a10.17,10.17,0,0,1-3.44.32,8.47,8.47,0,0,0-.63-2.17c1,.06,2.07.06,2.38.06s.42-.09.42-.34v-2.32h-4.83V681H782V679.7a13.54,13.54,0,0,0,1.8-1.4h-5.15v-2h7.22l.48-.13,1.42,1.16a23.39,23.39,0,0,1-3.49,3V681h4.5Z"/><path d="M788.45,693.21v2.17H778.29a22.34,22.34,0,0,1-2.22,3.74v9.19h-2.3V701.7A13.35,13.35,0,0,1,772.1,703a15.54,15.54,0,0,0-1.13-2.18,14.39,14.39,0,0,0,4.74-5.47h-4.13v-2.17h5.13c.33-.89.61-1.76.84-2.64l2.37.57q-.31,1.05-.72,2.07Zm-4.56,12.56h4.51v2.09H777v-2.09h4.59v-4.33h-3.85v-2.09h3.85v-3.16h2.28v3.16h3.76v2.09h-3.76Z"/><path d="M776.48,719.89a23.19,23.19,0,0,1-1.48,4.94c.31.19.67.45,1.16.76,1.31.78,3.1.89,5.32.89a65.19,65.19,0,0,0,7.69-.49,8.28,8.28,0,0,0-.66,2.31c-1.56.1-4.92.23-7.14.23-2.53,0-4.13-.21-5.49-1-.8-.43-1.49-1.06-1.87-1.06s-1.12,1.29-1.59,2.37l-1.5-2.14a8.67,8.67,0,0,1,2-1.83,17.76,17.76,0,0,0,1.1-3.28h-2.39c.44-1.12.93-2.64,1.37-4.12h-1.71v-2h4.44c-.39,1.33-.85,2.85-1.31,4.18h.78l.34-.08Zm-3.19-5c-.21-.85-.72-2.22-1-3.27l2-.61c.36,1,.86,2.3,1.12,3.16Zm5.59,10.75h-2v-8.26h1.41v-5.81h8.18v5.81h1.39v6.34c0,.9-.15,1.37-.74,1.68a5.53,5.53,0,0,1-2.36.3,5.63,5.63,0,0,0-.49-1.63h-2.85v.59h-1.61v-4.79h4.95V724h.78c.21,0,.27-.05.27-.24v-4.62h-7Zm1.4-8.26h1.07v-3h3.13v-1.16h-4.2Zm2.89,3.93h-1.71v1.33h1.71Zm1.31-5.51H783v1.58h1.5Z"/><path d="M788.4,734.37s0,.76,0,1c-.25,8.49-.46,11.51-1.24,12.52a2.56,2.56,0,0,1-1.82,1.05,21.89,21.89,0,0,1-3,0,5.39,5.39,0,0,0-.75-2.2c1.22.11,2.34.11,2.84.11a1,1,0,0,0,.83-.32c.55-.61.8-3.46,1-10.16H782.2a16.17,16.17,0,0,1-1.67,3,13,13,0,0,0-1.46-1.06v8.87H774v1.38h-2.06V734.5h2.15a19.37,19.37,0,0,0,.55-3.06l2.47.34c-.32,1-.66,1.9-1,2.72h3v3.08a19.75,19.75,0,0,0,2.56-6.12l2.15.49a23.24,23.24,0,0,1-.74,2.42ZM777,736.47h-3v3.08h3Zm0,8.76v-3.72h-3v3.72Zm6.3-1a40.77,40.77,0,0,0-2.64-4.39l1.77-1a46.13,46.13,0,0,1,2.79,4.22Z"/><path d="M787.67,757.37a20.64,20.64,0,0,1-2.37,7.22,9.38,9.38,0,0,0,3.8,3.06,8.19,8.19,0,0,0-1.54,2,10.39,10.39,0,0,1-3.7-3.06,13.7,13.7,0,0,1-4.28,3,9.46,9.46,0,0,0-1.2-1.94H774v1.12h-2.09v-8.39h2.52v-2.93h-3.3v-2.11h3.3v-3.48h2.26v3.48h3.12v2.11h-3.12v2.93h2.09a4.2,4.2,0,0,0-.53-.38c1.69-1.85,2.74-4.89,3.25-8.14l2.32.37a29.55,29.55,0,0,1-.73,3h5.8v2.12ZM777,762.48h-3v3.06h3Zm2.14,4.72a9.85,9.85,0,0,0,3.42-2.61A21.63,21.63,0,0,1,781,760.3a10.52,10.52,0,0,1-.84,1.2c-.21-.19-.57-.52-1-.82Zm3.23-9.83a21,21,0,0,0,1.56,5.06,17.46,17.46,0,0,0,1.44-5.06Z"/><path d="M788.78,784.75h-2v3.31h-2.3v-.78h-3.42v.59c0,1.12-.26,1.57-1,1.9a10.11,10.11,0,0,1-3.36.32,6.78,6.78,0,0,0-.74-1.79c.91,0,2,0,2.34,0s.47-.13.47-.47v-.59H773v-1.63h5.77v-.9h-7.52V783h7.52v-.81h-5.62v-1.52h5.62v-.84h-5.14v-3.76h5.14v-.78H771.7v-1.78h7.08v-1.24h2.3v1.24h7.26v1.78h-7.26v.78h5.4v3.76h-5.4v.84h5.72V783h2Zm-10-6.32v-.92h-3v.92Zm2.3-.92v.92h3.08v-.92Zm0,5.51h3.42v-.81h-3.42Zm3.42,1.73h-3.42v.9h3.42Z"/><path d="M777.92,811.33c1.46-.55,2.28-1.5,2.28-2.6H780a1.64,1.64,0,0,1-1.75-1.65,1.69,1.69,0,0,1,1.81-1.66c1.29,0,2,1,2,2.76a4.79,4.79,0,0,1-3.59,4.67Z"/><path d="M781,827.9v1.64h6.76v10.52c0,1.05-.23,1.56-.93,1.88a7.61,7.61,0,0,1-3,.34,8.77,8.77,0,0,0-.72-1.92c.81,0,1.76,0,2,0s.38-.09.38-.36v-1.27a5,5,0,0,0-1,.72,6.91,6.91,0,0,1-1.1-2.36,7.93,7.93,0,0,1-1.29,2.36,9.08,9.08,0,0,0-1.14-.84v3.65h-2.15V839a4.76,4.76,0,0,0-.72.64,7,7,0,0,1-1.16-2.43,7.62,7.62,0,0,1-1.42,2.49,6.57,6.57,0,0,0-1-.78v3.42h-2.17V829.54h6.46V827.9h-7.09v-2.22h16.59v2.22Zm-3.25,4.64a10.47,10.47,0,0,0,1.1,5.53v-6.43h-4.29v7a8.43,8.43,0,0,0,1.73-4.58h-1v-1.5Zm3.25-.9v7a9,9,0,0,0,1.76-4.58h-1v-1.5h2.49c0,2.09.11,4.12,1.27,5.81v-6.71Z"/><path d="M776.71,845.72a35.61,35.61,0,0,1-1.48,3.61V862.8h-2.15v-9.72a16.73,16.73,0,0,1-1.27,1.63,16.06,16.06,0,0,0-1.06-2.45,20.17,20.17,0,0,0,3.87-7.18Zm11.61.29v16.58h-2.15v-.93H779v1.1h-2V846Zm-2.15,13.7V848H779v11.74Zm-2.73-7.77v1.63h1.82v5.09H780v-5.09h1.69v-1.63h-2.18V850.3h2.18v-1.93h1.75v1.93h2.3v1.64Zm.13,3.19h-1.94v2h1.94Z"/><path d="M787.67,871a20.66,20.66,0,0,1-2.37,7.21,9.38,9.38,0,0,0,3.8,3.06,8.19,8.19,0,0,0-1.54,2,10.39,10.39,0,0,1-3.7-3.06,13.54,13.54,0,0,1-4.28,3,9.46,9.46,0,0,0-1.2-1.94H774v1.12h-2.09V874h2.52v-2.93h-3.3v-2.11h3.3v-3.47h2.26v3.47h3.12v2.11h-3.12V874h2.09a5.54,5.54,0,0,0-.53-.38c1.69-1.85,2.74-4.89,3.25-8.13l2.32.36a29.55,29.55,0,0,1-.73,3h5.8V871ZM777,876.09h-3v3h3Zm2.14,4.71a9.85,9.85,0,0,0,3.42-2.61A21.63,21.63,0,0,1,781,873.9a9.7,9.7,0,0,1-.84,1.2c-.21-.19-.57-.52-1-.82Zm3.23-9.82a21,21,0,0,0,1.56,5,17.48,17.48,0,0,0,1.44-5Z"/><path d="M788.78,898.35h-2v3.31h-2.3v-.78h-3.42v.59c0,1.12-.26,1.57-1,1.9a10.11,10.11,0,0,1-3.36.32,6.58,6.58,0,0,0-.74-1.78c.91,0,2,0,2.34,0s.47-.13.47-.47v-.59H773v-1.63h5.77v-.9h-7.52v-1.73h7.52v-.81h-5.62v-1.52h5.62v-.84h-5.14v-3.76h5.14v-.78H771.7v-1.78h7.08v-1.24h2.3v1.24h7.26v1.78h-7.26v.78h5.4v3.76h-5.4v.84h5.72v2.33h2Zm-10-6.32v-.91h-3V892Zm2.3-.91V892h3.08v-.91Zm0,5.5h3.42v-.81h-3.42Zm3.42,1.73h-3.42v.9h3.42Z"/><path d="M789,908.31c-.68,1.82-1.51,4-2.29,5.64a6.09,6.09,0,0,1,1.93,4.41c0,1.42-.3,2.36-1.06,2.85a2.77,2.77,0,0,1-1.33.51,8.89,8.89,0,0,1-1.65,0,5.52,5.52,0,0,0-.57-2.18,10,10,0,0,0,1.19,0,1.47,1.47,0,0,0,.76-.17c.36-.21.5-.66.5-1.29a5.47,5.47,0,0,0-2-3.89c.55-1.37,1.2-3.29,1.67-4.75h-2.41V924h-2.22V907.78a23.94,23.94,0,0,1-2,4.05h1.4v2h-2.83c-.4.49-.8.93-1.22,1.39h3.42v8.56h-2.14V923h-3.06v1H773v-5.75c-.33.21-.65.39-.95.57a11.81,11.81,0,0,0-1.31-1.88,17.78,17.78,0,0,0,4.54-3.14h-4v-2h3.31v-1.56h-2.49v-1.94h2.49v-1.84h2.09v1.84h2v1a17.79,17.79,0,0,0,.93-2.13l2,.55v-.36H787l.34-.08ZM778.14,917h-3.06v1.22h3.06Zm0,4.26v-1.35h-3.06v1.35Zm-1.1-9.4c.36-.5.7-1,1-1.56h-1.42v1.56Z"/><path d="M779.51,942.39c0,.94-.18,1.41-.8,1.71a6.48,6.48,0,0,1-2.62.33,6.2,6.2,0,0,0-.69-1.77c.69,0,1.43,0,1.65,0s.33-.08.33-.32v-1.94c-1,.68-1.9,1.33-2.76,1.88l-.47-1.33a8.43,8.43,0,0,1-1.35,3.57,9,9,0,0,0-1.58-1.52c1-1.48,1.08-3.57,1.08-5.22v-4.28h7.21Zm-1.07-14.24a38.38,38.38,0,0,1,2.26,4.37l-2,.79c-.12-.34-.29-.74-.48-1.19-4.81.47-5.58.59-6.13.81-.12-.43-.48-1.46-.71-2a2.16,2.16,0,0,0,1.05-.76,16,16,0,0,0,2.24-3.38l2.28.65a21.26,21.26,0,0,1-2.34,3.15l2.78-.21-.8-1.54Zm-4.05,9.68a21.39,21.39,0,0,1-.13,2.44c.86-.38,2-.95,3.12-1.56v-.63l-.91.89c-.48-.49-1.35-1.23-2.08-1.82Zm0-2.39v1.35l1-.82c.65.46,1.47,1.12,2,1.62v-2.15Zm9.39-.32c-2.28,0-2.89-.84-2.89-3v-5.39h2.24V929h4.68V931h-4.68v1.25c0,.7.12,1,.73,1h2.77a10.38,10.38,0,0,0,1.75-.15c0,.59.13,1.4.21,1.92a7.77,7.77,0,0,1-1.92.17Zm2.39,7.26c.65,0,.78-.33.88-2.08a5.85,5.85,0,0,0,2,.82c-.22,2.49-.81,3.23-2.62,3.23h-2.7c-2.24,0-2.79-.66-2.79-2.73v-6h2.24v1.9h4.81v2h-4.81v2.08c0,.66.14.76.88.76Z"/><path d="M778.25,951.57a11.11,11.11,0,0,1-.76,1.5h8.83v9.39c0,1.12-.2,1.73-1,2.07a8.42,8.42,0,0,1-3.37.38,8.94,8.94,0,0,0-.68-2.19c1,.06,2.07.06,2.39.06s.44-.11.44-.38v-1.14H777a6.59,6.59,0,0,1-2.11,3.78,8.11,8.11,0,0,0-1.63-1.73c1.63-1.42,1.76-3.45,1.76-5.22v-1.54a15.48,15.48,0,0,1-2.35,2.07,14.71,14.71,0,0,0-1.48-1.75,14.4,14.4,0,0,0,4.55-5.3H771.6v-2.12h5.09a22.07,22.07,0,0,0,.76-2.3l2.34.53c-.19.59-.4,1.18-.61,1.77h9.27v2.12Zm5.87,7.81v-1.23H777.3c0,.39,0,.79,0,1.23Zm0-4.31H777.3v1.19h6.82Z"/><path d="M787,970V985.3h-2.41v-.93h-9v1h-2.29V970h4.86a20.42,20.42,0,0,0,.51-2.49l2.74.31c-.29.76-.59,1.5-.9,2.18Zm-11.44,2.17v1.95h9v-1.95Zm0,4v2h9v-2Zm9,6v-2h-9v2Z"/><path d="M784.1,1003.16c1.9,0,2.17-.48,2.41-3.21a8.64,8.64,0,0,0,2.3.85c-.41,3.63-1.25,4.62-4.65,4.62H778c-3.55,0-4.71-.69-4.71-3.4v-6.84h10.83v-3.76H773.06V989.1h13.47v9.38h-2.41V997.4h-8.47V1002c0,1,.34,1.18,2.37,1.18Z"/><path d="M788.4,1011.37s0,.76,0,1c-.25,8.49-.46,11.51-1.24,12.52a2.56,2.56,0,0,1-1.82,1,21.89,21.89,0,0,1-3,0,5.39,5.39,0,0,0-.75-2.2c1.22.11,2.34.11,2.84.11a1,1,0,0,0,.83-.32c.55-.61.8-3.46,1-10.16H782.2a16.17,16.17,0,0,1-1.67,3,13,13,0,0,0-1.46-1.06v8.87H774v1.38h-2.06V1011.5h2.15a19.37,19.37,0,0,0,.55-3.06l2.47.34c-.32,1-.66,1.9-1,2.72h3v3.08a19.75,19.75,0,0,0,2.56-6.12l2.15.49a23.24,23.24,0,0,1-.74,2.42Zm-11.38,2.1h-3v3.08h3Zm0,8.76v-3.72h-3v3.72Zm6.3-1a40.77,40.77,0,0,0-2.64-4.39l1.77-1a46.13,46.13,0,0,1,2.79,4.22Z"/><path d="M779.45,1032.89c-.29,3.19-1.26,4.83-6.75,5.55a5,5,0,0,0-1.06-1.86c4.62-.46,5.3-1.43,5.49-3.69h-3.19v2.59h-2.22v-4.64h7c-.19-.51-.38-1-.59-1.48l2.37-.67c.35.67.74,1.47,1,2.15h6.78v4.28h-2.35v-2.23h-2.68v2.3c0,.53.09.72.66.72h2.83a10.2,10.2,0,0,0,1.81-.13c.05.59.11,1.46.19,2a7.91,7.91,0,0,1-1.92.15h-3c-2.26,0-2.86-.72-2.86-2.78v-2.26Zm1.86,11.19h7.05v2.13H771.73v-2.13h7.19V1041h-5.06v-2.09h12.65V1041h-5.2Z"/><path d="M774.28,1056.87V1067H772v-17h7.27v6.86Zm0-5.22v1h2.93v-1Zm2.93,3.6v-1.08h-2.93v1.08Zm10.86,9.11c0,1.21-.24,1.88-1,2.24a8.28,8.28,0,0,1-3.48.43,8.52,8.52,0,0,0-.5-1.76h-4.71v1h-2V1058h7.32v6.74c.74,0,1.44,0,1.69,0s.45-.11.45-.41v-7.43h-5.16V1050h7.44Zm-9.69-4.68v1.14h3.14v-1.14Zm3.14,3.93v-1.17h-3.14v1.17Zm1.25-12v1h3v-1Zm3,3.64v-1.12h-3v1.12Z"/><path d="M777.92,1088.33c1.46-.55,2.28-1.5,2.28-2.6H780a1.64,1.64,0,0,1-1.75-1.65,1.69,1.69,0,0,1,1.81-1.66c1.29,0,2,1,2,2.76a4.79,4.79,0,0,1-3.59,4.67Z"/><path d="M781,1104.9v1.64h6.76v10.52c0,1-.23,1.56-.93,1.88a7.61,7.61,0,0,1-3,.34,8.51,8.51,0,0,0-.72-1.91c.81,0,1.76,0,2,0s.38-.09.38-.36v-1.27a5,5,0,0,0-1,.72,7,7,0,0,1-1.1-2.35,8,8,0,0,1-1.29,2.35,9,9,0,0,0-1.14-.83v3.64h-2.15V1116a4.77,4.77,0,0,0-.72.65,7.14,7.14,0,0,1-1.16-2.44,7.62,7.62,0,0,1-1.42,2.49,6.57,6.57,0,0,0-1-.78v3.42h-2.17v-12.76h6.46v-1.64h-7.09v-2.22h16.59v2.22Zm-3.25,4.64a10.45,10.45,0,0,0,1.1,5.53v-6.42h-4.29v7a8.43,8.43,0,0,0,1.73-4.58h-1v-1.5Zm3.25-.89v7a9,9,0,0,0,1.76-4.58h-1v-1.5h2.49c0,2.09.11,4.12,1.27,5.81v-6.7Z"/><path d="M776.71,1122.73a36.42,36.42,0,0,1-1.48,3.6v13.47h-2.15v-9.72a16.73,16.73,0,0,1-1.27,1.63,16.06,16.06,0,0,0-1.06-2.45,20.17,20.17,0,0,0,3.87-7.18Zm11.61.28v16.58h-2.15v-.93H779v1.11h-2V1123Zm-2.15,13.7V1125H779v11.74Zm-2.73-7.77v1.63h1.82v5.09H780v-5.09h1.69v-1.63h-2.18v-1.64h2.18v-1.93h1.75v1.93h2.3v1.64Zm.13,3.19h-1.94v2h1.94Z"/><path d="M787.67,1148a20.66,20.66,0,0,1-2.37,7.21,9.38,9.38,0,0,0,3.8,3.06,8.19,8.19,0,0,0-1.54,2,10.39,10.39,0,0,1-3.7-3.06,13.54,13.54,0,0,1-4.28,3,9.46,9.46,0,0,0-1.2-1.94H774v1.12h-2.09V1151h2.52v-2.93h-3.3v-2.11h3.3v-3.47h2.26v3.47h3.12v2.11h-3.12V1151h2.09a5.54,5.54,0,0,0-.53-.38c1.69-1.85,2.74-4.89,3.25-8.13l2.32.36a29.55,29.55,0,0,1-.73,3h5.8V1148ZM777,1153.09h-3v3.05h3Zm2.14,4.71a9.85,9.85,0,0,0,3.42-2.61,21.63,21.63,0,0,1-1.63-4.29,9.7,9.7,0,0,1-.84,1.2c-.21-.19-.57-.52-1-.82Zm3.23-9.82a21,21,0,0,0,1.56,5,17.48,17.48,0,0,0,1.44-5Z"/><path d="M788.78,1175.35h-2v3.31h-2.3v-.78h-3.42v.59c0,1.12-.26,1.57-1,1.9a10.11,10.11,0,0,1-3.36.32,6.58,6.58,0,0,0-.74-1.78c.91,0,2,0,2.34,0s.47-.13.47-.47v-.59H773v-1.63h5.77v-.9h-7.52v-1.73h7.52v-.81h-5.62v-1.52h5.62v-.84h-5.14v-3.76h5.14v-.78H771.7v-1.78h7.08v-1.24h2.3v1.24h7.26v1.78h-7.26v.78h5.4v3.76h-5.4v.84h5.72v2.33h2Zm-10-6.32v-.91h-3v.91Zm2.3-.91v.91h3.08v-.91Zm0,5.5h3.42v-.81h-3.42Zm3.42,1.73h-3.42v.9h3.42Z"/><path d="M789,1185.31c-.68,1.82-1.51,4-2.29,5.64a6.09,6.09,0,0,1,1.93,4.41c0,1.42-.3,2.36-1.06,2.85a2.77,2.77,0,0,1-1.33.51,8.89,8.89,0,0,1-1.65,0,5.52,5.52,0,0,0-.57-2.18,10,10,0,0,0,1.19,0,1.47,1.47,0,0,0,.76-.17c.36-.21.5-.66.5-1.29a5.47,5.47,0,0,0-2-3.89c.55-1.37,1.2-3.29,1.67-4.75h-2.41V1201h-2.22v-16.26a23.94,23.94,0,0,1-2,4h1.4v2h-2.83c-.4.49-.8.93-1.22,1.39h3.42v8.56h-2.14V1200h-3.06v1H773v-5.75c-.33.21-.65.39-.95.57a11.81,11.81,0,0,0-1.31-1.88,17.78,17.78,0,0,0,4.54-3.14h-4v-2h3.31v-1.56h-2.49v-1.94h2.49v-1.84h2.09v1.84h2v1a17.79,17.79,0,0,0,.93-2.13l2,.55v-.36H787l.34-.08ZM778.14,1194h-3.06v1.22h3.06Zm0,4.26v-1.35h-3.06v1.35Zm-1.1-9.4c.36-.5.7-1,1-1.56h-1.42v1.56Z"/><path d="M779.51,1219.4c0,.93-.18,1.4-.8,1.7a6.48,6.48,0,0,1-2.62.33,6.44,6.44,0,0,0-.69-1.77c.69,0,1.43,0,1.65,0s.33-.08.33-.32v-1.94c-1,.68-1.9,1.33-2.76,1.88l-.47-1.33a8.43,8.43,0,0,1-1.35,3.57,9,9,0,0,0-1.58-1.52c1-1.48,1.08-3.57,1.08-5.22v-4.28h7.21Zm-1.07-14.25a38.38,38.38,0,0,1,2.26,4.37l-2,.79c-.12-.34-.29-.74-.48-1.19-4.81.47-5.58.59-6.13.81-.12-.43-.48-1.46-.71-2a2.16,2.16,0,0,0,1.05-.76,16,16,0,0,0,2.24-3.38l2.28.65a21.26,21.26,0,0,1-2.34,3.15l2.78-.21-.8-1.54Zm-4.05,9.69a21.34,21.34,0,0,1-.13,2.43c.86-.38,2-1,3.12-1.56v-.63l-.91.9a26.12,26.12,0,0,0-2.08-1.83Zm0-2.4v1.35l1-.82c.65.46,1.47,1.12,2,1.62v-2.15Zm9.39-.32c-2.28,0-2.89-.84-2.89-2.95v-5.39h2.24V1206h4.68V1208h-4.68v1.25c0,.71.12,1,.73,1h2.77a10.38,10.38,0,0,0,1.75-.15c0,.59.13,1.41.21,1.92a7.77,7.77,0,0,1-1.92.17Zm2.39,7.26c.65,0,.78-.33.88-2.07a6,6,0,0,0,2,.81c-.22,2.49-.81,3.23-2.62,3.23h-2.7c-2.24,0-2.79-.66-2.79-2.73v-6h2.24v1.9h4.81v2h-4.81v2.07c0,.66.14.76.88.76Z"/><path d="M777.36,1229.11h-6.23v-1.77h2.69a11.89,11.89,0,0,0-1-2.51l1.59-.57a12.61,12.61,0,0,1,1.12,2.53l-1.35.55h3.16Zm-.5,11.76h-3.57v.79h-1.57v-6.49h5.14Zm-.11-9.2h-4.84V1230h4.84Zm-4.84.87h4.84v1.69h-4.84Zm1.38,4.35v2.25h2v-2.25Zm15.35,1.37a11,11,0,0,1-1.84,1,7.56,7.56,0,0,0,2.37,1,6.62,6.62,0,0,0-1.15,1.59,7.45,7.45,0,0,1-5-4.71h-.25a7.61,7.61,0,0,1-1.25.95v1.5l2.2-.36a11.13,11.13,0,0,0,.08,1.67c-3,.59-3.63.78-4,1a5.46,5.46,0,0,0-.93-1.27,2.38,2.38,0,0,0,.89-1.6,14,14,0,0,1-1.78.7,9.34,9.34,0,0,0-1-1.4,14.28,14.28,0,0,0,3.23-1.18h-2.85v-1.54H780V1235h-1.85v-1.34H780V1233H778v-1.35H780v-.84h-1.83v-3.32h4.52v3.32H782v.84h2v-.84h-.59v-3.32h4.59v3.32h-2v.84h2.33V1233h-2.33v.63h2.11V1235h-2.11v.61h2.75v1.54h-4a6.28,6.28,0,0,0,.8,1.14,16.85,16.85,0,0,0,1.84-1.1Zm0-11.26H777.55v-1.62H782a6.45,6.45,0,0,0-.42-1l1.88-.57a9.31,9.31,0,0,1,.75,1.52h4.36Zm-8.77,2.68H781v-1h-1.21Zm2.2,4h2V1233h-2Zm0,1.95h2V1235h-2Zm3-5.92h1.27v-1h-1.27Z"/><path d="M781,1255.48c-.12.32-.23.62-.37.91h6.79v3.87c0,.92-.16,1.41-.76,1.71a5.32,5.32,0,0,1-2.4.33,6.56,6.56,0,0,0-.64-1.85c.57,0,1.16,0,1.35,0s.26,0,.26-.22v-2.09h-2.07v4h-2v-4h-2v4h-2.06v-4h-1.93v4.12H773v-5.89h5.49c.07-.31.15-.61.21-.91h-7.13v-1.75h2.62l-.55-1.52c1.2-.15,2.83-.4,4.54-.65l.08,1.28c-1.35.32-2.7.62-3.88.89h14v1.75Zm-7.2-3.35h-2.15v-4.25h7.18v-.9h-6.33v-1.61h14.9V1247H781v.9h7.34v4.25h-2.26v-2.58h-1.07l.72,1a19.39,19.39,0,0,1-3.4.93l-.7-1.08a19.58,19.58,0,0,0,2.7-.82H781v3.67h-2.2v-3.67h-3.76a21.14,21.14,0,0,1,3.08.78l-.59,1.23a25,25,0,0,0-3.29-1l.59-1.06h-1.06Zm8-.74a23.27,23.27,0,0,1,4.37.91l-.42,1.43a26.46,26.46,0,0,0-4.38-1.08Z"/><path d="M784.84,1277.63a8.27,8.27,0,0,1-1.71,2c2,.48,3.84,1,5.28,1.45l-2,1.59c-1.4-.53-3.29-1.08-5.45-1.65-2.17,1-5,1.48-8.72,1.75a6.18,6.18,0,0,0-.84-2,32,32,0,0,0,5.91-.66c-1.21-.25-2.45-.5-3.72-.73.45-.53,1-1.14,1.44-1.82h-3.61v-1.86h4.83c.36-.59.68-1.18.95-1.73h-4.6v-5.32h4.1v-1.08h-5v-2h16.54v2h-5.14v1.08h4.54V1274H777.43l2,.46c-.19.41-.42.83-.67,1.27h4.58c.15-.34.29-.7.42-1.07l2.18.54c-.05.19-.13.36-.18.53h2.84v1.86Zm-10.16-5.36h2v-1.76h-2Zm2.91,5.36c-.17.25-.37.49-.54.72,1.13.21,2.26.44,3.37.69a7.07,7.07,0,0,0,1.71-1.41Zm1.21-8.91H781v-1.08H778.8Zm2.15,3.55v-1.76H778.8v1.76Zm2.13-1.76v1.76h2.28v-1.76Z"/><path d="M787.92,1287.85v4.43h-2.37V1290H774.28v2.26H772v-4.43h7.11a16.46,16.46,0,0,0-.82-1.95l2.2-.65a12.36,12.36,0,0,1,1.12,2.6Zm-4.25,12.67c1.46,0,1.69-.41,1.91-2.86a8.42,8.42,0,0,0,2.26.93c-.37,3.23-1.12,4.18-4.06,4.18h-5.11c-3.25,0-4.2-.74-4.2-3.35v-7.84h2.37v3.68a38.55,38.55,0,0,0,7.21-2.6l1.8,1.8a51.71,51.71,0,0,1-9,2.85v2.07c0,1,.27,1.14,1.92,1.14Z"/><path d="M788.4,1308.79s0,.76,0,1c-.25,8.49-.46,11.51-1.24,12.52a2.52,2.52,0,0,1-1.82,1,20.19,20.19,0,0,1-3,0,5.29,5.29,0,0,0-.75-2.2c1.22.11,2.34.11,2.84.11a1,1,0,0,0,.83-.32c.55-.61.8-3.46,1-10.17H782.2a16.28,16.28,0,0,1-1.67,3,13,13,0,0,0-1.46-1.07v8.87H774V1323h-2.06v-14.12h2.15a19.25,19.25,0,0,0,.55-3.05l2.47.34c-.32,1-.66,1.9-1,2.71h3V1312a19.59,19.59,0,0,0,2.56-6.11l2.15.49a23.07,23.07,0,0,1-.74,2.41ZM777,1310.9h-3V1314h3Zm0,8.76v-3.73h-3v3.73Zm6.3-1a40.77,40.77,0,0,0-2.64-4.39l1.77-1a44.8,44.8,0,0,1,2.79,4.22Z"/><path d="M781.12,1326.31c0,.8-.06,1.82-.13,3,.26,2.57,1.42,9.73,8,12.66a6,6,0,0,0-1.65,2,14.69,14.69,0,0,1-7.43-9,15.48,15.48,0,0,1-7,9.1,7.36,7.36,0,0,0-1.88-1.85c7.71-4.12,7.35-12.63,7.43-15.84Z"/><path d="M778.19,1354.3c-.13.26-.28.51-.43.78h8.89v9.44h-2.28v-.69h-6.88v.69h-2.16v-6.25a15.11,15.11,0,0,1-2.93,2.28,12.53,12.53,0,0,0-1.43-1.83,12.64,12.64,0,0,0,4.64-4.42h-4.05v-1.79h5c.13-.27.25-.55.36-.82h-4V1350h4.64c.07-.26.15-.53.21-.81-1.58,0-3.16.07-4.64,0a5.59,5.59,0,0,0-.42-1.69,96.49,96.49,0,0,0,13.32-.76l1.33,1.62a63.74,63.74,0,0,1-7.1.68c-.08.31-.17.61-.27.91h7.45v1.71h-8.06c-.09.27-.21.55-.32.82h9.4v1.79Zm6.18,2.48h-6.88v.82h6.88Zm0,2.23h-6.88v.83h6.88Zm0,3.11v-.87h-6.88v.87Z"/><path d="M777.76,1381.1c1.19-.21,2.43-.41,3.63-.6l.11,1.93c-3.32.65-6.92,1.3-9.5,1.75l-.49-2.09c1.14-.15,2.56-.38,4.1-.63v-2.58h-3.46v-2h3.46v-1.69h2.15v1.69h3.42v2h-3.42Zm-6.06-12.84h9.88v1.94H778.9a20.91,20.91,0,0,1,2.64,4l-1.71,1.12c-.12-.29-.27-.61-.44-.95-5.24.43-6.06.53-6.61.76-.13-.46-.49-1.47-.72-2.06a1.79,1.79,0,0,0,.87-.79,15.59,15.59,0,0,0,1.18-2.13H771.7Zm6.65,4.43c-.36-.55-.75-1.08-1.11-1.56l1.6-.93h-2.28a22.13,22.13,0,0,1-1.65,2.68Zm6.06,7.69h-2.09v-11.47h2.09Zm3.74-13v14.7c0,1.2-.23,1.77-.95,2.13a8.33,8.33,0,0,1-3.29.42,8.8,8.8,0,0,0-.76-2.17c1,0,2,0,2.36,0s.43-.11.43-.44v-14.68Z"/><path d="M777.92,1406.18c1.46-.55,2.28-1.5,2.28-2.6H780a1.64,1.64,0,0,1-1.75-1.65,1.69,1.69,0,0,1,1.81-1.66c1.29,0,2,1,2,2.76a4.79,4.79,0,0,1-3.59,4.67Z"/><path d="M781,1422.75v1.64h6.76v10.52c0,1-.23,1.56-.93,1.88a7.43,7.43,0,0,1-3,.34,8.51,8.51,0,0,0-.72-1.91c.81,0,1.76,0,2,0s.38-.09.38-.36v-1.27a5,5,0,0,0-1,.72,7,7,0,0,1-1.1-2.35,8,8,0,0,1-1.29,2.35,9,9,0,0,0-1.14-.83v3.64h-2.15v-3.34a4.77,4.77,0,0,0-.72.65,7.14,7.14,0,0,1-1.16-2.44,7.62,7.62,0,0,1-1.42,2.49,6.57,6.57,0,0,0-1-.78v3.42h-2.17v-12.76h6.46v-1.64h-7.09v-2.22h16.59v2.22Zm-3.25,4.64a10.45,10.45,0,0,0,1.1,5.53v-6.42h-4.29v7a8.43,8.43,0,0,0,1.73-4.58h-1v-1.5Zm3.25-.89v7a9,9,0,0,0,1.76-4.58h-1v-1.5h2.49c0,2.09.11,4.12,1.27,5.81v-6.7Z"/><path d="M776.71,1440.58a37.61,37.61,0,0,1-1.48,3.61v13.46h-2.15v-9.72a16.73,16.73,0,0,1-1.27,1.63,16.06,16.06,0,0,0-1.06-2.45,20.08,20.08,0,0,0,3.87-7.18Zm11.61.28v16.59h-2.15v-.94H779v1.11h-2v-16.76Zm-2.15,13.7v-11.74H779v11.74Zm-2.73-7.77v1.63h1.82v5.09H780v-5.09h1.69v-1.63h-2.18v-1.64h2.18v-1.93h1.75v1.93h2.3v1.64Zm.13,3.19h-1.94v2h1.94Z"/><path d="M787.67,1465.83a20.66,20.66,0,0,1-2.37,7.21,9.3,9.3,0,0,0,3.8,3.06,8.19,8.19,0,0,0-1.54,2,10.39,10.39,0,0,1-3.7-3.06,13.54,13.54,0,0,1-4.28,3,9.46,9.46,0,0,0-1.2-1.94H774v1.12h-2.09v-8.39h2.52v-2.93h-3.3v-2.11h3.3v-3.47h2.26v3.47h3.12v2.11h-3.12v2.93h2.09a5.54,5.54,0,0,0-.53-.38c1.69-1.85,2.74-4.88,3.25-8.13l2.32.36a29.55,29.55,0,0,1-.73,3h5.8v2.13ZM777,1470.94h-3v3h3Zm2.14,4.71a9.85,9.85,0,0,0,3.42-2.61,21.63,21.63,0,0,1-1.63-4.29,9.7,9.7,0,0,1-.84,1.2c-.21-.19-.57-.51-1-.82Zm3.23-9.82a21,21,0,0,0,1.56,5.05,17.48,17.48,0,0,0,1.44-5.05Z"/><path d="M788.78,1493.2h-2v3.31h-2.3v-.78h-3.42v.59c0,1.12-.26,1.58-1,1.9a10.11,10.11,0,0,1-3.36.32,6.58,6.58,0,0,0-.74-1.78c.91,0,2,0,2.34,0s.47-.13.47-.47v-.59H773v-1.63h5.77v-.9h-7.52v-1.73h7.52v-.81h-5.62v-1.52h5.62v-.84h-5.14v-3.76h5.14v-.78H771.7V1482h7.08v-1.24h2.3V1482h7.26v1.78h-7.26v.78h5.4v3.76h-5.4v.84h5.72v2.33h2Zm-10-6.32V1486h-3v.91Zm2.3-.91v.91h3.08V1486Zm0,5.5h3.42v-.81h-3.42Zm3.42,1.73h-3.42v.9h3.42Z"/><path d="M789,1503.16c-.68,1.82-1.51,4-2.29,5.64a6.09,6.09,0,0,1,1.93,4.41c0,1.42-.3,2.36-1.06,2.85a2.77,2.77,0,0,1-1.33.51,8.89,8.89,0,0,1-1.65,0,5.52,5.52,0,0,0-.57-2.18,10.17,10.17,0,0,0,1.19,0,1.47,1.47,0,0,0,.76-.18c.36-.2.5-.66.5-1.29a5.47,5.47,0,0,0-2-3.89c.55-1.37,1.2-3.29,1.67-4.75h-2.41v14.55h-2.22v-16.26a23.94,23.94,0,0,1-2,4h1.4v2h-2.83c-.4.5-.8.93-1.22,1.39h3.42v8.57h-2.14v-.73h-3.06v1H773v-5.75c-.33.21-.65.4-.95.57a11.81,11.81,0,0,0-1.31-1.88,17.78,17.78,0,0,0,4.54-3.14h-4v-2h3.31v-1.56h-2.49v-1.94h2.49v-1.84h2.09v1.84h2v1a17.79,17.79,0,0,0,.93-2.13l2,.55v-.36H787l.34-.08Zm-10.84,8.66h-3.06V1513h3.06Zm0,4.26v-1.35h-3.06v1.35Zm-1.1-9.4c.36-.5.7-1,1-1.56h-1.42v1.56Z"/><path d="M779.51,1537.25c0,.93-.18,1.4-.8,1.71a6.69,6.69,0,0,1-2.62.32,6.44,6.44,0,0,0-.69-1.77c.69,0,1.43,0,1.65,0s.33-.08.33-.32v-1.94c-1,.68-1.9,1.33-2.76,1.88l-.47-1.33a8.43,8.43,0,0,1-1.35,3.57,9,9,0,0,0-1.58-1.52c1-1.48,1.08-3.57,1.08-5.22v-4.28h7.21ZM778.44,1523a39.23,39.23,0,0,1,2.26,4.37l-2,.8c-.12-.35-.29-.75-.48-1.2-4.81.47-5.58.59-6.13.82-.12-.44-.48-1.47-.71-2a2.16,2.16,0,0,0,1.05-.76,16,16,0,0,0,2.24-3.38l2.28.65a21.26,21.26,0,0,1-2.34,3.15l2.78-.21-.8-1.54Zm-4.05,9.69a21.34,21.34,0,0,1-.13,2.43c.86-.38,2-.95,3.12-1.56v-.63l-.91.9a26.12,26.12,0,0,0-2.08-1.83Zm0-2.4v1.35l1-.82c.65.46,1.47,1.13,2,1.62v-2.15Zm9.39-.32c-2.28,0-2.89-.84-2.89-2.94v-5.4h2.24v2.24h4.68v1.94h-4.68v1.25c0,.71.12,1,.73,1h2.77a10.38,10.38,0,0,0,1.75-.15c0,.59.13,1.41.21,1.92a7.77,7.77,0,0,1-1.92.17Zm2.39,7.26c.65,0,.78-.33.88-2.07a6,6,0,0,0,2,.81c-.22,2.49-.81,3.23-2.62,3.23h-2.7c-2.24,0-2.79-.66-2.79-2.73v-6h2.24v1.9h4.81v2h-4.81v2.07c0,.66.14.76.88.76Z"/><path d="M788.53,1545.17a25.43,25.43,0,0,1-2.24,1.75A13,13,0,0,0,789,1548a8.67,8.67,0,0,0-1.35,1.79,13.46,13.46,0,0,1-2.16-.91v1.63c0,.46,0,.61.28.61h.94a3.82,3.82,0,0,0,1-.1c0,.46.08,1.1.16,1.54a3.66,3.66,0,0,1-1.11.12h-1.17c-1.6,0-1.9-.65-1.9-2.19v-1.1H781.9a4.41,4.41,0,0,1-2.09,3.76,8.94,8.94,0,0,0-1.14-1.22v.57h-3.76c-.08.44-.14.9-.19,1.31h3.95s0,.52,0,.78c-.21,2.57-.44,3.8-.93,4.3a2,2,0,0,1-1.52.62,19.77,19.77,0,0,1-2.51,0,4.22,4.22,0,0,0-.64-1.88c1,.08,1.88.1,2.3.1a.87.87,0,0,0,.68-.19c.23-.21.4-.82.53-2.11h-4c.27-1.24.57-3.12.74-4.62h3.37v-1.33H773.9v-.3a16.35,16.35,0,0,1-1.73.74,8.86,8.86,0,0,0-1.21-1.65,12.64,12.64,0,0,0,3.19-1.47,19.84,19.84,0,0,0-1.77-1.14l1.29-1.19a14.07,14.07,0,0,1,2,1.19,9,9,0,0,0,1.1-1.21H773v-1.77h5l.38-.09,1.38.68a10.71,10.71,0,0,1-3.57,4.5h2.49v3.78A2.73,2.73,0,0,0,780,1549v-1.35h3.63a13.07,13.07,0,0,1-3.84-5l1.8-.53a7.72,7.72,0,0,0,1.09,1.79,17.43,17.43,0,0,0,1.78-1.75l1.62,1.16c-.78.65-1.6,1.33-2.32,1.84a11.76,11.76,0,0,0,1,.86,16.05,16.05,0,0,0,2.1-2Zm-1.39,8.4a8.44,8.44,0,0,1-2.09,3.38c.86.47,1.64,1,2.21,1.33l-1.14,1.5c-.65-.46-1.56-1-2.59-1.65a14,14,0,0,1-4.23,1.63,6.37,6.37,0,0,0-.95-1.63,12.06,12.06,0,0,0,3.38-1.07l-2.64-1.46.76-.91h-.46v-1.5h6.17l.35-.06Zm-6.3,1.12c.79.42,1.67.85,2.52,1.33a7.19,7.19,0,0,0,1.2-1.33Z"/><path d="M788.59,1577.43v2.22H771.51v-2.22h7.33v-3.82h-5.15v-2.18h5.15v-3.35h-3.93a15.28,15.28,0,0,1-1.77,2.76,17.88,17.88,0,0,0-2-1.35,16.46,16.46,0,0,0,3.36-6.8l2.34.51c-.27.91-.57,1.81-.9,2.68h2.93v-3.42h2.38v3.42h6.4v2.2h-6.4v3.35h5.67v2.18h-5.67v3.82Z"/><path d="M771.28,1599a9.4,9.4,0,0,0,2.36-3.23l1.88.84a11.69,11.69,0,0,1-2.36,3.49Zm17-10.27H771.81V1587h4a7.61,7.61,0,0,0-.38-1l1.43-.28h-4.09v-1.75h6.16a9.2,9.2,0,0,0-.33-.89l2.21-.4a8.34,8.34,0,0,1,.55,1.29h5.91v1.75h-3.9l1.52.26c-.23.38-.42.74-.61,1.07h4Zm-2,6.47h-5.81a14.44,14.44,0,0,1,2,1.26l-1.38,1.38a13.76,13.76,0,0,0-3-1.88l.78-.76H774v-5.79h12.23Zm-4.41,3.37c.71,0,.82-.21.92-1.54a6.52,6.52,0,0,0,1.92.7c-.25,2.11-.86,2.64-2.63,2.64h-3.06c-2.39,0-3-.55-3-2.34v-2h2.21v2c0,.5.15.56,1,.56Zm2.17-7.75h-7.86v.81H784Zm0,2.14h-7.86v.82H784Zm-6.42-7.31a8,8,0,0,1,.53,1.33h3.88c.19-.44.4-.93.53-1.33Zm8.61,10a14.61,14.61,0,0,1,2.31,3.37l-2,.87a14.37,14.37,0,0,0-2.19-3.44Z"/><path d="M779.3,1606l1.61.46c-.87,7.69-3.65,12.36-7.86,14.57a10.05,10.05,0,0,0-1.9-1.9,11,11,0,0,0,5.13-4.83c-.63-.8-1.56-1.78-2.46-2.7a12.13,12.13,0,0,1-.94,1.45,19.88,19.88,0,0,0-1.91-1.45c1.66-1.9,2.78-5,3.37-8.3l2.28.4c-.17.82-.36,1.6-.57,2.38h2.81Zm-4,2.22c-.17.5-.34,1-.53,1.41.76.74,1.71,1.61,2.45,2.41a19.94,19.94,0,0,0,1-3.82Zm11.78,6.65a34.1,34.1,0,0,0-3.06-3.55V1621h-2.39v-17.74h2.39v6.31l.84-.61c1.31,1.29,3.23,3.15,4.14,4.31Z"/><path d="M777.92,1642.33c1.46-.55,2.28-1.5,2.28-2.6H780a1.64,1.64,0,0,1-1.75-1.65,1.68,1.68,0,0,1,1.81-1.65c1.29,0,2,1,2,2.75a4.79,4.79,0,0,1-3.59,4.67Z"/><path d="M777.83,1656.79a19.87,19.87,0,0,1-1.8,2.61,14.42,14.42,0,0,1,1.16,6.48c0,2.64-.21,5.22-1.14,6.44a1.94,1.94,0,0,1-1.22.79,8.69,8.69,0,0,1-2.6.19,4.76,4.76,0,0,0-.63-2.33,12.46,12.46,0,0,0,2.11,0,.71.71,0,0,0,.59-.35c.38-.51.57-2.22.59-4.33a16.49,16.49,0,0,1-2.43,2.49,10.31,10.31,0,0,0-1.54-1.71,12.67,12.67,0,0,0,3.8-4,11.76,11.76,0,0,0-.38-1.74,15.72,15.72,0,0,1-1.84,1.59,10.61,10.61,0,0,0-1.56-1.5,14,14,0,0,0,2.41-2.18,10.44,10.44,0,0,0-2.17-2.36l1.7-1.31a13.92,13.92,0,0,1,1.89,1.86,14.43,14.43,0,0,0,1-1.63Zm6.82,8a11.65,11.65,0,0,0,4.26,6.44,10,10,0,0,0-1.39,2.18,13.94,13.94,0,0,1-4.39-6.55,12,12,0,0,1-4.61,6.59,9.76,9.76,0,0,0-1.62-1.84c4.41-3.08,4.77-8,4.77-11.35v-4.5h2.26v4.52c0,.44,0,.92,0,1.39a21.77,21.77,0,0,0,.69,2.89,33.28,33.28,0,0,0,1.69-5.47l2.37.76a57.67,57.67,0,0,1-2.13,5.58Zm-5.81.83c-.19-1.54-.76-4.12-1.25-6.1l2.09-.64a59.08,59.08,0,0,1,1.46,5.94Z"/><path d="M784.65,1685.84c-.19.31-.34.59-.51.84h4.18v1.65H776.58a7.19,7.19,0,0,1-.11.86H780s0,.43-.06.68c-.17,1.88-.38,2.81-.78,3.21a1.74,1.74,0,0,1-1.19.52,18.18,18.18,0,0,1-2,0,4.24,4.24,0,0,0-.44-1.61,10.88,10.88,0,0,0,1.43.08.63.63,0,0,0,.53-.16,2.71,2.71,0,0,0,.34-1.16h-1.78c-.55,1.39-1.66,2.38-3.9,3a5.23,5.23,0,0,0-1-1.48,4.45,4.45,0,0,0,2.75-1.56h-2v-1.57h2.62a7.19,7.19,0,0,0,.11-.86h-3v-1.65h4.43a4.48,4.48,0,0,0-.46-.87l1.43-.19H773.5v-3.82h13v3.82h-3.38Zm3.78-8.72v1.64h-7.35v.76h6v1.56H773v-1.56h5.77v-.76h-7.12v-1.64h7.12v-1.06h2.3v1.06Zm-12.84,7.07h8.74v-1h-8.74Zm2.22,1.43a3.07,3.07,0,0,1,.61,1.06h3.4c.15-.36.31-.76.4-1.06Zm3,3.32h6.78v4.81h-2.09v-.44h-2.7v.46h-2Zm2,1.54v1.29h2.7v-1.29Z"/><path d="M788.45,1699.09v2.16H778.29a22,22,0,0,1-2.22,3.75v9.19h-2.3v-6.61a15.46,15.46,0,0,1-1.67,1.33,15,15,0,0,0-1.13-2.18,14.43,14.43,0,0,0,4.74-5.48h-4.13v-2.16h5.13q.49-1.33.84-2.64l2.37.57c-.21.7-.45,1.38-.72,2.07Zm-4.56,12.56h4.51v2.09H777v-2.09h4.59v-4.34h-3.85v-2.09h3.85v-3.15h2.28v3.15h3.76v2.09h-3.76Z"/><path d="M776.69,1726a16.15,16.15,0,0,1-1.59,4.77c.28.17.62.38,1.06.63,1.31.74,3.12.85,5.28.85a62.81,62.81,0,0,0,7.72-.51,9.26,9.26,0,0,0-.69,2.39c-1.54.12-4.9.23-7.12.23-2.49,0-4.11-.21-5.49-1-.8-.42-1.45-1-1.85-1s-1.13,1.24-1.65,2.27l-1.48-2.19a7.43,7.43,0,0,1,1.8-1.59,11.27,11.27,0,0,0,1.58-3.42H771.6c.5-1.13,1.07-2.65,1.56-4.13h-1.9v-2H776c-.46,1.35-1,2.87-1.5,4.18H775l.34-.06Zm-3.25-5.18c-.32-.88-1-2.26-1.4-3.29l2-.72c.47,1,1.1,2.32,1.46,3.13Zm15.15-.06H776.5V1719h5a13.5,13.5,0,0,0-.82-1.61l2.19-.69a17.8,17.8,0,0,1,1.12,2l-.76.25h5.32Zm-10.93,5.66h9.5v4.81h-9.5Zm9.33-3.32h-9.12v-1.6H787Zm-9.12.85H787v1.6h-9.12Zm1.9,5.66h5.17V1728h-5.17Z"/><path d="M775.9,1746a13.1,13.1,0,0,0,1.31-1.83l1.33,1.24c-.61.55-1.18,1.12-1.66,1.58l1.33,1.42L777,1750.2c-.33-.53-.9-1.37-1.49-2.13v7h-2v-6.78a14.88,14.88,0,0,1-1.79,1.77,9.61,9.61,0,0,0-.94-2.24,15.24,15.24,0,0,0,4.31-5.23h-3.75v-2h3c-.37-.7-.94-1.62-1.41-2.32l1.61-1a19.58,19.58,0,0,1,1.6,2.4l-1.29.91h1.33l.36-.1,1.12.91a21.13,21.13,0,0,1-2.15,4.24v.12Zm12.84,6.63v2H777.93v-2h4.22v-1.94h-3.5v-2h3.5v-1.49h-3.61v-9.06H788v9.06h-3.77v1.49h3.9v2h-3.9v1.94Zm-8.19-10.83h1.6v-1.73h-1.6Zm1.6,3.53v-1.76h-1.6v1.76Zm3.74-5.26h-1.64v1.73h1.64Zm0,3.5h-1.64v1.76h1.64Z"/><path d="M781.61,1758.29l-.28.36a18.27,18.27,0,0,0,7.88,3.42,7.85,7.85,0,0,0-1.42,1.73c-.38-.09-.78-.23-1.18-.34v4.9h-13.2v-4.79c-.4.14-.8.27-1.18.37a12.34,12.34,0,0,0-1.22-1.75c3.5-.82,6.88-2.4,8.61-4.6Zm4.32,4.92a20.05,20.05,0,0,1-2.59-1.16v.5h-6.67v-.38a22.57,22.57,0,0,1-2.29,1ZM774.47,1769h11.17v6.42h-2.32V1775h-6.63v.52h-2.22Zm2.15-2a7.58,7.58,0,0,0-.65-2l1.46-.42h-2.14V1767Zm.07,3.48v.76h6.63v-.76Zm6.63,3v-.76h-6.63v.76ZM779,1764.6h-1.48a8.56,8.56,0,0,1,.76,2l-1.22.38H779Zm2.74-3.51a19.26,19.26,0,0,1-1.6-1.24c-.49.42-1,.84-1.61,1.24Zm-.91,3.51V1767h1.76l-1.14-.32a14.11,14.11,0,0,0,.74-2.07Zm3.76,0h-2l1.48.36c-.38.76-.74,1.5-1,2h1.54Z"/><path d="M781.35,1793.46c.49,0,1,.06,1.52.06,1.06,0,4.71,0,6.06-.06a7.33,7.33,0,0,0-.76,2.17h-5.42c-3.47,0-5.83-.5-7.42-2.7a8.66,8.66,0,0,1-2.66,3,9.27,9.27,0,0,0-1.71-1.58,8.06,8.06,0,0,0,3.53-5.75l2.26.34c-.13.61-.28,1.18-.44,1.73a4.18,4.18,0,0,0,2.74,2.37v-4.82h-7.41v-2H788.4v2h-7v1.42h5.85v2h-5.85Zm5.24-8h-13.2v-6.6h13.2Zm-2.3-5h-8.7v1h8.7Zm0,2.45h-8.7v1h8.7Z"/><path d="M776.69,1806.91c0,1-.19,1.41-.83,1.71a7.35,7.35,0,0,1-2.72.31,6.72,6.72,0,0,0-.59-1.79,16,16,0,0,0,1.65,0c.25,0,.33-.08.33-.28v-1.26l-2.87.34-.25-2,3.12-.27v-1.65h-2.8v-1.9h2.8v-1.56h2.16v1.56h2.44v1.9h-2.44v1.42l2.49-.28.06,1.84-2.55.33Zm-3,2.47h12.79v6.94h-2.32v-.65h-8.25v.7h-2.22Zm2.22,2v2.35h8.25v-2.35Zm12.68-8.55v1.86h-2.3V1809h-2.17v-4.31h-2.28a5.9,5.9,0,0,1-2.43,4.47,7,7,0,0,0-1.61-1.45,5,5,0,0,0,2.14-4.67v-3a33.47,33.47,0,0,0,6.38-1.37l1.75,1.52a34.49,34.49,0,0,1-6.15,1.31v1.35Z"/><path d="M788.57,1833.29h-7.26v1.36c0,1-.23,1.5-1,1.81a11.09,11.09,0,0,1-3.25.28,7,7,0,0,0-.68-1.9c.89,0,2,0,2.32,0s.4-.06.4-.28v-1.29h-7.7v-1.79h7.7V1831a15.61,15.61,0,0,0,2.09-1.1h-6.1v-1.58h8.26l.48-.11,1.27,1.15a26.85,26.85,0,0,1-3.63,2.19h7.11Zm-14.69-3.58h-2.15v-3.89h1.43l-.34-5.64a26.69,26.69,0,0,0,3.84-1.07l.91,1.31a17.29,17.29,0,0,1-2.59.73l0,.55h2.41v1.4H775.1l0,.65h2.33v1c.46-.23.91-.46,1.33-.72-.36-.23-.72-.44-1.06-.63l1-.89c.38.19.78.41,1.18.64a6.26,6.26,0,0,0,.76-.8l1.48.44a7.56,7.56,0,0,1-1,1.14,8.42,8.42,0,0,1,1.14.87l-1.12,1a13.81,13.81,0,0,0-1.11-.93,13.79,13.79,0,0,1-1.54,1h6.16l.07-.67h-2.24v-1.4h2.38l0-.65h-2.32v-1.4h2.41l0-.63h-2.57v-1.43h4.77c-.09,2-.22,4.41-.4,6.18h1.41v3.89h-2.24v-2.26h-12.2Zm1.37-3.89h3.08a10,10,0,0,0-.86-.87v.2h-2.26Zm5.89-3.5a10.68,10.68,0,0,0-1-.79,9.43,9.43,0,0,1-1.54,1,9.28,9.28,0,0,0-1.18-1,9,9,0,0,0,1.45-.74c-.36-.21-.69-.4-1-.57l1-.88c.36.18.76.38,1.16.61a6.86,6.86,0,0,0,.68-.76l1.48.44a6.58,6.58,0,0,1-.95,1c.38.27.73.54,1,.76Z"/><path d="M777.92,1858.06c1.46-.55,2.28-1.5,2.28-2.6H780a1.65,1.65,0,0,1-1.75-1.66,1.69,1.69,0,0,1,1.81-1.65c1.29,0,2,1,2,2.76a4.79,4.79,0,0,1-3.59,4.67Z"/><path d="M781.61,1871.89l-.28.36a18.27,18.27,0,0,0,7.88,3.42,7.85,7.85,0,0,0-1.42,1.73c-.38-.09-.78-.23-1.18-.34v4.9h-13.2v-4.79c-.4.14-.8.27-1.18.37a12.34,12.34,0,0,0-1.22-1.75c3.5-.82,6.88-2.4,8.61-4.6Zm4.32,4.92a21.46,21.46,0,0,1-2.59-1.15v.49h-6.67v-.38a22.57,22.57,0,0,1-2.29,1Zm-11.46,5.78h11.17V1889h-2.32v-.46h-6.63v.52h-2.22Zm2.15-2a7.58,7.58,0,0,0-.65-2l1.46-.42h-2.14v2.39Zm.07,3.48v.76h6.63v-.76Zm6.63,3v-.76h-6.63v.76ZM779,1878.2h-1.48a8.56,8.56,0,0,1,.76,2l-1.22.38H779Zm2.74-3.51a19.26,19.26,0,0,1-1.6-1.24c-.49.42-1,.84-1.61,1.24Zm-.91,3.51v2.39h1.76l-1.14-.32a14.11,14.11,0,0,0,.74-2.07Zm3.76,0h-2l1.48.36c-.38.76-.74,1.5-1,2h1.54Z"/><path d="M781.35,1907.06c.49,0,1,.06,1.52.06,1.06,0,4.71,0,6.06-.06a7.33,7.33,0,0,0-.76,2.17h-5.42c-3.47,0-5.83-.5-7.42-2.7a8.66,8.66,0,0,1-2.66,3A9.27,9.27,0,0,0,771,1908a8,8,0,0,0,3.53-5.75l2.26.34c-.13.61-.28,1.18-.44,1.73a4.18,4.18,0,0,0,2.74,2.37v-4.82h-7.41v-2H788.4v2h-7v1.42h5.85v2h-5.85Zm5.24-8h-13.2v-6.6h13.2Zm-2.3-5h-8.7v1h8.7Zm0,2.45h-8.7v1h8.7Z"/><path d="M786.08,1924.24a9.87,9.87,0,0,1-3.12,2.9,42.86,42.86,0,0,0,5.83.71,9.26,9.26,0,0,0-1.27,2.09,31.39,31.39,0,0,1-7.5-1.45,33.29,33.29,0,0,1-7.52,1.5,7.61,7.61,0,0,0-1.15-1.88,35.35,35.35,0,0,0,6-.8,12.57,12.57,0,0,1-1.92-1.23c-.68.36-1.37.66-2,.93a13.65,13.65,0,0,0-1.56-1.48,15.76,15.76,0,0,0,2-.78,13.61,13.61,0,0,1-1.16-1.41l1.79-.72a8.15,8.15,0,0,0,1.12,1.24,10.21,10.21,0,0,0,2-1.52c-.83-.25-1.06-.78-1.06-1.88v-1.31h2.07v1.31c0,.43.13.47.78.47h2c.46,0,.59-.11.65-.87a6.63,6.63,0,0,0,1.73.57c-.21,1.46-.72,1.86-2.15,1.86h-1.74l.11,0c-.23.28-.46.57-.72.83h5l.38,0ZM774,1920.06h-2.14v-3.48H775a6.53,6.53,0,0,0-.8-1.33l1-.42-2.33.06a6,6,0,0,0-.44-1.63,90.37,90.37,0,0,0,13.3-1.09l1.5,1.5a22.62,22.62,0,0,1-2.42.4l1.7.55c-.48.69-1,1.37-1.43,2h3.06v3.74h-1.81a7.06,7.06,0,0,1,1.2,1.37l-1.61,1.22a14.14,14.14,0,0,0-2.91-3l1.52-1.09c.44.33.91.73,1.37,1.13v-1.6h-5.15a7.35,7.35,0,0,1,1.27.84l-1.12,1.25a12.07,12.07,0,0,0-2.71-1.63l.41-.46H774Zm2.36-.36a6.92,6.92,0,0,1-2,3l-1.58-1.22a5.41,5.41,0,0,0,1.9-2.54Zm3.1-5.08c-1.09.06-2.15.14-3.23.17a5.08,5.08,0,0,1,.85,1.45l-.8.34h2.78a8.13,8.13,0,0,0-.76-1.54Zm-2.25,10.4a16.15,16.15,0,0,0,3,1.38,9.72,9.72,0,0,0,2.4-1.4h-5.38Zm5.61-8.44a21.26,21.26,0,0,0,1.31-2.41c-1.24.15-2.57.28-3.91.4a4.61,4.61,0,0,1,.81,1.59l-1.14.42Z"/><path d="M771,1941.32a28.17,28.17,0,0,0,.95-5l1.71.25a30.37,30.37,0,0,1-.9,5.34Zm17.8-2.7v1.62H777.13v-1.6l-.44.25a14.85,14.85,0,0,0-.76-2v13.47h-2.07V1932.6h2.07v3l1-.46a31,31,0,0,1,1.31,3l-1,.55h4.56v-.82h-3.52v-1.52h3.52v-.76h-4.18v-1.61h4.18v-1.29H784v1.29h4.18v1.61H784v.76h3.59v1.52H784v.82Zm-1,9.59c0,1-.19,1.52-.89,1.83a7.21,7.21,0,0,1-2.91.32,8.38,8.38,0,0,0-.61-1.92c.78.06,1.67,0,1.92,0s.34-.08.34-.3v-.65H780a7,7,0,0,1-1.39,3A9.16,9.16,0,0,0,777,1949a7.22,7.22,0,0,0,1.18-4.63V1941h9.61ZM785.6,1946v-.87h-5.37c0,.28,0,.57,0,.87Zm-5.35-3.44v1h5.35v-1Z"/><path d="M777.92,1971.66c1.46-.55,2.28-1.5,2.28-2.6H780a1.64,1.64,0,0,1-1.75-1.65,1.69,1.69,0,0,1,1.81-1.66c1.29,0,2,1,2,2.76a4.79,4.79,0,0,1-3.59,4.67Z"/><path d="M781.61,1985.49l-.28.37a18.27,18.27,0,0,0,7.88,3.42,7.57,7.57,0,0,0-1.42,1.72c-.38-.09-.78-.22-1.18-.34v4.9h-13.2v-4.78c-.4.13-.8.26-1.18.36a12.34,12.34,0,0,0-1.22-1.75c3.5-.82,6.88-2.39,8.61-4.6Zm4.32,4.93a23.21,23.21,0,0,1-2.59-1.16v.49h-6.67v-.38a25.06,25.06,0,0,1-2.29,1.05Zm-11.46,5.77h11.17v6.42h-2.32v-.45h-6.63v.51h-2.22Zm2.15-2a7.52,7.52,0,0,0-.65-2l1.46-.42h-2.14v2.4Zm.07,3.47v.76h6.63v-.76Zm6.63,3v-.76h-6.63v.76ZM779,1991.8h-1.48a8.46,8.46,0,0,1,.76,2l-1.22.38H779Zm2.74-3.51a19.26,19.26,0,0,1-1.6-1.24c-.49.42-1,.84-1.61,1.24Zm-.91,3.51v2.4h1.76l-1.14-.33a14.11,14.11,0,0,0,.74-2.07Zm3.76,0h-2l1.48.36c-.38.76-.74,1.5-1,2h1.54Z"/><path d="M781.35,2020.66c.49,0,1,.06,1.52.06,1.06,0,4.71,0,6.06-.06a7.33,7.33,0,0,0-.76,2.17h-5.42c-3.47,0-5.83-.5-7.42-2.7a8.66,8.66,0,0,1-2.66,3,9.63,9.63,0,0,0-1.71-1.58,8,8,0,0,0,3.53-5.75l2.26.34c-.13.61-.28,1.18-.44,1.73a4.18,4.18,0,0,0,2.74,2.37v-4.82h-7.41v-2H788.4v2h-7v1.42h5.85v2h-5.85Zm5.24-8.05h-13.2V2006h13.2Zm-2.3-5h-8.7v1h8.7Zm0,2.45h-8.7v1h8.7Z"/><path d="M771.24,2041.33a12.94,12.94,0,0,0,2-4.4l2,.74a16,16,0,0,1-2,4.78Zm7.85-5.73h-6v-9h13.6v9h-7.18a14.67,14.67,0,0,1,3.52,2.41l-1.62,1.54a15.5,15.5,0,0,0-3.7-2.72Zm-3.82-5.46h3.57v-1.59h-3.57Zm0,3.5h3.57V2032h-3.57Zm6.7,7.5c.78,0,.94-.28,1-2.16a6.33,6.33,0,0,0,2,.83c-.25,2.7-.91,3.38-2.89,3.38H779c-2.51,0-3.13-.66-3.13-2.67v-3.12h2.28v3.1c0,.57.17.64,1.12.64Zm2.53-12.59H781v1.59h3.48Zm0,3.42H781v1.67h3.48Zm1.82,4.84a16.46,16.46,0,0,1,2.51,4.6l-2.2.93a16.81,16.81,0,0,0-2.32-4.69Z"/><path d="M774.58,2053.88a10.67,10.67,0,0,1-2.14,2.75,8,8,0,0,0-1.45-1.56,11.21,11.21,0,0,0,3.23-4.24h-2.75v-1.91h3.11v-2.68h2.15v2.68h2.68v1.91h-2.68v.71a33.85,33.85,0,0,1,3,2.09l-1.18,1.8c-.43-.47-1.13-1.16-1.82-1.78v4h-2.15Zm-3.45,8a13,13,0,0,0,1.65-3.91l2,.8a18.93,18.93,0,0,1-1.59,4.14Zm10.84-.3c.9,0,1-.27,1.14-2.19a5.48,5.48,0,0,0,2,.8c-.29,2.72-.91,3.38-3,3.38h-3.42c-2.59,0-3.23-.62-3.23-2.6v-2.6h2.22v2.56c0,.57.19.65,1.21.65Zm-2.2-4.71.38.34v-10h7.71v10.22h-7.52a27,27,0,0,1,2,2l-1.63,1.37a28.18,28.18,0,0,0-2.51-2.64Zm2.43-6.82h3.5V2049h-3.5Zm0,2.77h3.5v-1.1h-3.5Zm0,2.79h3.5v-1.14h-3.5Zm4.39,2.11c.76,1.18,1.86,2.79,2.38,3.78l-2.11,1.08c-.46-1-1.5-2.67-2.24-4Z"/><path d="M777.92,2085.26c1.46-.55,2.28-1.5,2.28-2.6H780a1.64,1.64,0,0,1-1.75-1.65,1.69,1.69,0,0,1,1.81-1.66c1.29,0,2,1,2,2.76a4.79,4.79,0,0,1-3.59,4.67Z"/><path d="M781.61,2099.09l-.28.37a18.27,18.27,0,0,0,7.88,3.42,7.57,7.57,0,0,0-1.42,1.72c-.38-.09-.78-.22-1.18-.34v4.9h-13.2v-4.78c-.4.13-.8.26-1.18.36A12.34,12.34,0,0,0,771,2103c3.5-.82,6.88-2.39,8.61-4.6Zm4.32,4.93a23.21,23.21,0,0,1-2.59-1.16v.49h-6.67V2103a25.06,25.06,0,0,1-2.29,1.05Zm-11.46,5.77h11.17v6.42h-2.32v-.45h-6.63v.51h-2.22Zm2.15-2a7.52,7.52,0,0,0-.65-2l1.46-.42h-2.14v2.4Zm.07,3.47v.76h6.63v-.76Zm6.63,3v-.76h-6.63v.76ZM779,2105.4h-1.48a8.63,8.63,0,0,1,.76,2l-1.22.38H779Zm2.74-3.51a19.26,19.26,0,0,1-1.6-1.24c-.49.42-1,.84-1.61,1.24Zm-.91,3.51v2.4h1.76l-1.14-.33a14.11,14.11,0,0,0,.74-2.07Zm3.76,0h-2l1.48.36c-.38.76-.74,1.5-1,2h1.54Z"/><path d="M781.35,2134.26c.49,0,1,.06,1.52.06,1.06,0,4.71,0,6.06-.06a7.33,7.33,0,0,0-.76,2.17h-5.42c-3.47,0-5.83-.5-7.42-2.7a8.66,8.66,0,0,1-2.66,3,9.63,9.63,0,0,0-1.71-1.58,8,8,0,0,0,3.53-5.75l2.26.34c-.13.61-.28,1.18-.44,1.73a4.18,4.18,0,0,0,2.74,2.37V2129h-7.41v-2H788.4v2h-7v1.42h5.85v2h-5.85Zm5.24-8.05h-13.2v-6.59h13.2Zm-2.3-5h-8.7v1h8.7Zm0,2.45h-8.7v1h8.7Z"/><path d="M773.73,2146.59h-2.07v-4.27h7.18v-.76h-6.33v-1.48h14.9v1.48H781v.76h7.34v4.27h-2.19l-.4,1.37a29.83,29.83,0,0,0-4.39-1.06l.44-1.27a25.78,25.78,0,0,1,4.28.89v-2.72h-1l.68,1a18.64,18.64,0,0,1-3.38.91l-.7-1.06a21.46,21.46,0,0,0,2.6-.82H781v3.95h-2.2v-3.95h-3.63a21.77,21.77,0,0,1,3,.78l-.61,1.22a22.07,22.07,0,0,0-3.27-.93l.53-1.07h-1v2.6c1.15-.13,2.75-.36,4.38-.6l.08,1.29-4,.91Zm12.12,8.57c1,0,1.14-.28,1.27-1.88a5.64,5.64,0,0,0,1.88.7c-.26,2.28-.89,2.89-3,2.89h-4c-2.58,0-3.32-.53-3.32-2.51v-.05h-3.16v.81h-2.16v-6.89h13.16v6.08h-5.68v.05c0,.69.23.8,1.37.8Zm-10.28-5.41v.85h3.16v-.85Zm3.16,3v-.86h-3.16v.86Zm5.6-3h-3.44v.85h3.44Zm0,3v-.86h-3.44v.86Z"/><path d="M775,2173.72a14.68,14.68,0,0,1-2.05,3.27,12.74,12.74,0,0,0-1.56-1.18,9,9,0,0,0,1.73-2.66Zm7-5.2H771.39v-1.71h4.28c-.1-.21-.17-.4-.27-.57l1.48-.3h-4.63v-5.46h9.12v5.46h-3.73a5.07,5.07,0,0,1,.44.87H782Zm-4.22,4.56v2.49c0,.93-.13,1.38-.77,1.67a6.31,6.31,0,0,1-2.4.28,6.43,6.43,0,0,0-.63-1.8c.57,0,1.16,0,1.35,0s.25-.06.25-.23v-2.43h-3.06v-3.91h8.55v3.91Zm-3.42-10.53h4.74v-.7h-4.74Zm0,2h4.74v-.72h-4.74Zm.25,7h4.26v-1h-4.26Zm14.21-.25a16.14,16.14,0,0,1-6.15,6,8.9,8.9,0,0,0-1.5-1.73,4.08,4.08,0,0,0,.17.42l-1.68.8a19,19,0,0,0-1.55-3.1l1.59-.66a26.29,26.29,0,0,1,1.43,2.48,12.61,12.61,0,0,0,5.6-5Zm-.78-10.35a18,18,0,0,1-5,4.59,8.84,8.84,0,0,0-1.6-1.57,13.31,13.31,0,0,0,4.46-3.9Zm.42,5.12a19.51,19.51,0,0,1-5.4,4.87,7.7,7.7,0,0,0-1.55-1.58,14.69,14.69,0,0,0,4.88-4.16Z"/><path d="M777.92,2198.86c1.46-.55,2.28-1.5,2.28-2.6H780a1.64,1.64,0,0,1-1.75-1.65,1.69,1.69,0,0,1,1.81-1.66c1.29,0,2,1,2,2.76a4.79,4.79,0,0,1-3.59,4.67Z"/><path d="M787.92,2214.56V2219h-2.37v-2.26H774.28V2219H772v-4.42h7.11a16.6,16.6,0,0,0-.82-2l2.2-.64a12.14,12.14,0,0,1,1.12,2.6Zm-4.25,12.67c1.46,0,1.69-.42,1.91-2.87a8.11,8.11,0,0,0,2.26.93c-.37,3.23-1.12,4.18-4.06,4.18h-5.11c-3.25,0-4.2-.74-4.2-3.34v-7.85h2.37V2222a39.23,39.23,0,0,0,7.21-2.61l1.8,1.81a51.71,51.71,0,0,1-9,2.85v2.07c0,1,.27,1.14,1.92,1.14Z"/><path d="M788.59,2236.12H786.4v11.32c0,1.37-.32,2-1.22,2.42a12.75,12.75,0,0,1-4.29.42,10.19,10.19,0,0,0-.93-2.4c1.35.08,3,.06,3.46.06s.61-.13.61-.53v-11.29H771.47v-2.28h17.12Zm-13.17,9.48V2247h-2.2v-8.79h8v7.35Zm0-5.2v3H779v-3Z"/><path d="M779.28,2265.38c-2.51,1.12-5.32,2.32-7.47,3.21l-.76-2.41c.72-.25,1.58-.55,2.53-.93l-.38-11.1,2.35-.09.35,10.28c.94-.4,1.91-.8,2.86-1.18Zm7.86,5.34a32.64,32.64,0,0,0-3.55-4.58,13.55,13.55,0,0,1-5.78,4.62,13.11,13.11,0,0,0-1.8-2c6-2.28,8-6.88,8.68-14.68l2.49.22a29.32,29.32,0,0,1-2.32,9.66,40.51,40.51,0,0,1,4.22,4.88ZM780,2261a19.6,19.6,0,0,0-2.83-4.71l2-1a19.35,19.35,0,0,1,3,4.55Z"/><path d="M788.45,2276v2.17H778.29a22.34,22.34,0,0,1-2.22,3.74v9.19h-2.3v-6.61a13.35,13.35,0,0,1-1.67,1.33,15.54,15.54,0,0,0-1.13-2.18,14.39,14.39,0,0,0,4.74-5.47h-4.13V2276h5.13c.33-.89.61-1.76.84-2.64l2.37.57q-.31,1.05-.72,2.07Zm-4.56,12.56h4.51v2.09H777v-2.09h4.59v-4.33h-3.85v-2.09h3.85V2279h2.28v3.16h3.76v2.09h-3.76Z"/><path d="M780.15,2294.79s0,.86,0,1.14c0,9.83,0,13.23-.59,14.18a2,2,0,0,1-1.42,1.1,9.44,9.44,0,0,1-2.28.11,6.36,6.36,0,0,0-.69-2.41c.71.06,1.33.06,1.69.06a.63.63,0,0,0,.59-.4,9.81,9.81,0,0,0,.35-3.23h-2.34a14,14,0,0,1-2.6,6.25,11.2,11.2,0,0,0-1.85-1.67,10,10,0,0,0,2.17-4.58h-1.77v-2h2.13c.1-.72.15-1.44.21-2.22h-2.11v-2h2.2c0-.75,0-1.51,0-2.28h-2.47v-2.06Zm-2.34,8.55c0-.66,0-1.38,0-2.22H776c-.05.78-.13,1.5-.21,2.22Zm-1.71-6.49c0,.77,0,1.53-.05,2.28h1.8l0-2.28Zm12.81-1.16c-.74,1.78-1.64,3.91-2.47,5.58a5.77,5.77,0,0,1,2.15,4.39,3.09,3.09,0,0,1-1.12,2.77,3.47,3.47,0,0,1-1.39.48,13.17,13.17,0,0,1-1.81,0,5.23,5.23,0,0,0-.62-2.13,8.5,8.5,0,0,0,1.38,0,2.26,2.26,0,0,0,.88-.17c.4-.21.53-.63.53-1.26,0-1.06-.51-2.39-2.22-3.87.62-1.37,1.31-3.25,1.82-4.69h-2.57v14.7h-2.14v-16.83H787l.32-.08Z"/><path d="M787.6,2328.06c-.8.42-1.69.84-2.49,1.16a14,14,0,0,0,3.87,1.08,7.77,7.77,0,0,0-1.23,1.73c-3.63-.7-6.17-2.33-7.75-5h0a12,12,0,0,1-2.38,1.36v1.49l4.15-.61a12.26,12.26,0,0,0,.28,1.63c-5.11.86-6.08,1.05-6.63,1.31l-.06,0a9.31,9.31,0,0,0-1.12-1.71,2.35,2.35,0,0,0,1.24-1.29,22.23,22.23,0,0,1-3.31.82,7.65,7.65,0,0,0-1.12-1.49,23.2,23.2,0,0,0,5.87-1.55h-5.47v-1.7h7.43v-.6h-6v-1.5h6v-.63h-5.28v-4.92h13v4.92h-5.55v.63h6v1.5h-6v.6h7.51v1.7H786.4Zm.72-11H771.68v-1.63h7.25a8.56,8.56,0,0,0-.39-.86l2.07-.49a7.19,7.19,0,0,1,.7,1.35h7Zm-12.61,2.55h3.15v-.7h-3.15Zm3.15,1.78v-.7h-3.15v.7Zm5.53-2.48h-3.31v.7h3.31Zm0,1.78h-3.31v.7h3.31Zm-2.26,6.35a7.3,7.3,0,0,0,1.48,1.34A20.35,20.35,0,0,0,786,2327Z"/><path d="M788.17,2335.59s0,.57,0,.83c-.17,4-.36,5.68-.86,6.27a1.8,1.8,0,0,1-1.35.72,12.3,12.3,0,0,1-2.18,0,4.72,4.72,0,0,0-.59-1.94,13.85,13.85,0,0,0,1.67.06.62.62,0,0,0,.57-.21c.25-.3.42-1.31.53-3.83h-2.07c-.3,2.79-1.1,4.95-3.85,6.3a6,6,0,0,0-.95-1.33l-1.29.52c-.06-.27-.16-.54-.25-.84-3.53.89-4.2,1.12-4.62,1.4a6.62,6.62,0,0,0-1.18-1.61,2.58,2.58,0,0,0,.84-2v-3.78a33.86,33.86,0,0,0,5.32-1.62l1.44,1.67a34.09,34.09,0,0,1-4.54,1.24v3.28l2-.43a14.81,14.81,0,0,0-.85-1.69l1.82-.73a22.49,22.49,0,0,1,1.88,3.82,5.21,5.21,0,0,0,2.18-4.21H780v-1.94Zm-14.63,8.58h13.2v8.21h-2.43v-.55h-8.47v.63h-2.3Zm2.3,1.79v1.18H779V2346ZM779,2350v-1.27h-3.19V2350Zm5.28-4.08h-3.13v1.18h3.13Zm0,4.08v-1.27h-3.13V2350Z"/><path d="M780.84,2358.79v3l.38-.44a42.85,42.85,0,0,1,6.47,3.84l-1.67,2.07a37.6,37.6,0,0,0-5.18-3.46v9H778.4v-14h-6.85v-2.28h16.92v2.28Z"/><path d="M788.76,2383v2.45H771.28V2383Z"/><path d="M780.3,2400.43c-.4.92-.78,1.9-1.16,2.7h2.23v2h-10v-2h2.43a14,14,0,0,0-.95-2.66l1.54-.38h-2.55v-2h3.59a11.62,11.62,0,0,0-.61-1.65l2.07-.59a18.92,18.92,0,0,1,.92,2.24H781v2h-2.23Zm-8.09,6.12h8.43v7h-2.22v-.76h-4.06v.85h-2.15Zm2.15,2v2.31h4.06v-2.31Zm.45-8.48a13.58,13.58,0,0,1,1.05,2.72l-1.14.32H777a21.07,21.07,0,0,0,1.06-3Zm14.06-2.33c-.65,1.82-1.42,4-2.15,5.64a6.33,6.33,0,0,1,1.81,4.44,3.22,3.22,0,0,1-1,2.8,2.82,2.82,0,0,1-1.25.45,7.07,7.07,0,0,1-1.47,0,5.17,5.17,0,0,0-.55-2.09c.42,0,.8,0,1.07,0a1.29,1.29,0,0,0,.7-.19c.32-.19.44-.67.44-1.31a5.73,5.73,0,0,0-1.84-3.92c.53-1.38,1.12-3.32,1.55-4.76h-2.12v14.74h-2v-16.78H787l.32-.07Z"/><path d="M783.65,2416.68a11.72,11.72,0,0,0,5.45,6.84,12.26,12.26,0,0,0-1.6,2.09,12.47,12.47,0,0,1-1.44-1.1c-.21,5.6-.44,7.78-1.1,8.56a2.28,2.28,0,0,1-1.73.92,19.61,19.61,0,0,1-2.87.05,5.51,5.51,0,0,0-.74-2.28c1,.08,2,.1,2.51.1a.88.88,0,0,0,.76-.27c.38-.42.58-2.11.76-6.06H779.9c-.47,3.65-1.71,6.9-6.63,8.74a7.38,7.38,0,0,0-1.5-2.09c4.3-1.39,5.28-3.89,5.66-6.65h-3.21v-1.25a16.62,16.62,0,0,1-1.42,1.37,14.71,14.71,0,0,0-1.9-1.68,13.32,13.32,0,0,0,4.71-6.93l2.38.57a19.79,19.79,0,0,1-3,5.72h9.84a16.09,16.09,0,0,1-2.87-4.54h-3v-2.11Z"/><path d="M788.4,2439.75s0,.75,0,1c-.25,8.49-.46,11.51-1.24,12.52a2.52,2.52,0,0,1-1.82,1,20.19,20.19,0,0,1-3,0,5.39,5.39,0,0,0-.75-2.2c1.22.11,2.34.11,2.84.11a1,1,0,0,0,.83-.32c.55-.61.8-3.46,1-10.16H782.2a16.17,16.17,0,0,1-1.67,3,14.33,14.33,0,0,0-1.46-1.07v8.88H774V2454h-2.06v-14.11h2.15a19.37,19.37,0,0,0,.55-3.06l2.47.34c-.32,1-.66,1.9-1,2.72h3V2443a19.75,19.75,0,0,0,2.56-6.12l2.15.49a23.24,23.24,0,0,1-.74,2.42Zm-11.38,2.1h-3v3.08h3Zm0,8.76v-3.72h-3v3.72Zm6.3-1a39.82,39.82,0,0,0-2.64-4.39l1.77-1a46.13,46.13,0,0,1,2.79,4.22Z"/><path d="M787,2459.7V2475h-2.41V2474h-9v.95h-2.29V2459.7h4.86a20.42,20.42,0,0,0,.51-2.49l2.74.3c-.29.76-.59,1.5-.9,2.19Zm-11.44,2.16v2h9v-2Zm0,4v2h9v-2Zm9,6v-2h-9v2Z"/><path d="M784.1,2492.81c1.9,0,2.17-.47,2.41-3.21a9,9,0,0,0,2.3.86c-.41,3.62-1.25,4.61-4.65,4.61H778c-3.55,0-4.71-.68-4.71-3.4v-6.84h10.83v-3.76H773.06v-2.32h13.47v9.39h-2.41v-1.09h-8.47v4.58c0,1,.34,1.18,2.37,1.18Z"/><path d="M777.92,2516.71c1.46-.55,2.28-1.5,2.28-2.6H780a1.64,1.64,0,0,1-1.75-1.65,1.69,1.69,0,0,1,1.81-1.66c1.29,0,2,1,2,2.76a4.79,4.79,0,0,1-3.59,4.67Z"/><path d="M787.92,2532.41v4.42h-2.37v-2.26H774.28v2.26H772v-4.42h7.11a16.6,16.6,0,0,0-.82-2l2.2-.64a12.14,12.14,0,0,1,1.12,2.6Zm-4.25,12.67c1.46,0,1.69-.42,1.91-2.87a8.11,8.11,0,0,0,2.26.93c-.37,3.23-1.12,4.18-4.06,4.18h-5.11c-3.25,0-4.2-.74-4.2-3.34v-7.85h2.37v3.69a38.51,38.51,0,0,0,7.21-2.61l1.8,1.81a51.71,51.71,0,0,1-9,2.85v2.07c0,1,.27,1.14,1.92,1.14Z"/><path d="M788.59,2554H786.4v11.32c0,1.37-.32,2-1.22,2.42a12.75,12.75,0,0,1-4.29.42,10.19,10.19,0,0,0-.93-2.4c1.35.08,3,.06,3.46.06s.61-.13.61-.53V2554H771.47v-2.28h17.12Zm-13.17,9.48v1.45h-2.2v-8.8h8v7.35Zm0-5.2v3H779v-3Z"/><path d="M779.28,2583.23c-2.51,1.12-5.32,2.32-7.47,3.21l-.76-2.41c.72-.25,1.58-.55,2.53-.93l-.38-11.1,2.35-.09.35,10.28c.94-.4,1.91-.8,2.86-1.18Zm7.86,5.34a33.23,33.23,0,0,0-3.55-4.58,13.55,13.55,0,0,1-5.78,4.62,13.11,13.11,0,0,0-1.8-2c6-2.28,8-6.87,8.68-14.68l2.49.23a29.32,29.32,0,0,1-2.32,9.65,40.51,40.51,0,0,1,4.22,4.88Zm-7.12-9.74a19.46,19.46,0,0,0-2.83-4.72l2-1a19.39,19.39,0,0,1,3,4.56Z"/><path d="M778.33,2596.13a23.24,23.24,0,0,1-1.54,2.87h3.06v-2.18h2.28V2599h5.45v5.89c0,1.05-.21,1.62-1,2a8.49,8.49,0,0,1-3.17.34,7.91,7.91,0,0,0-.71-2.05c.88,0,1.89,0,2.15,0s.4-.08.4-.33v-3.7h-3.15V2609h-2.28v-7.84h-3v6.17h-2.26v-5.49a16.07,16.07,0,0,1-2.41,2.09,14,14,0,0,0-1.27-2,14.77,14.77,0,0,0,4.9-5.8h-4.24V2594h5.21a18.93,18.93,0,0,0,.85-2.76l2.34.54c-.23.74-.47,1.48-.74,2.22h9.27v2.16Z"/><path d="M788.55,2627.33v1.6h-17v-1.6h2.2v-7.66h4.67c0-.22.08-.47.12-.74h-6.73v-1.65h6.9c0-.27.06-.53.08-.78h-6.2v-4.12h15v4.12H781c0,.25-.07.51-.11.78H788v1.65h-7.34l-.13.74h5.72v7.66Zm-11.72-13.45H774.7v1.1h2.13Zm-1,7.16v.71H784V2621Zm8.15,1.83h-8.15v.74H784Zm-8.15,2.62H784v-.78h-8.15Zm0,1.84H784v-.7h-8.15Zm3-12.35H781v-1.1h-2.14Zm4.21,0h2.21v-1.1h-2.21Z"/><path d="M780.15,2633.07s0,.85,0,1.14c0,9.82,0,13.22-.59,14.17a2,2,0,0,1-1.42,1.1,8.9,8.9,0,0,1-2.28.12,6.31,6.31,0,0,0-.69-2.41c.71,0,1.33,0,1.69,0a.61.61,0,0,0,.59-.4,9.76,9.76,0,0,0,.35-3.23h-2.34a14,14,0,0,1-2.6,6.25,11.66,11.66,0,0,0-1.85-1.67,9.93,9.93,0,0,0,2.17-4.58h-1.77v-2h2.13c.1-.72.15-1.45.21-2.22h-2.11v-2h2.2c0-.74,0-1.5,0-2.28h-2.47v-2Zm-2.34,8.55c0-.67,0-1.39,0-2.22H776c-.05.77-.13,1.5-.21,2.22Zm-1.71-6.5c0,.78,0,1.54-.05,2.28h1.8l0-2.28Zm12.81-1.16c-.74,1.79-1.64,3.92-2.47,5.59a5.76,5.76,0,0,1,2.15,4.39,3.09,3.09,0,0,1-1.12,2.77,3.47,3.47,0,0,1-1.39.48,15.11,15.11,0,0,1-1.81,0,5.19,5.19,0,0,0-.62-2.12,9.59,9.59,0,0,0,1.38,0,2.09,2.09,0,0,0,.88-.17c.4-.21.53-.62.53-1.25,0-1.07-.51-2.39-2.22-3.88.62-1.36,1.31-3.25,1.82-4.69h-2.57v14.7h-2.14V2633H787l.32-.07Z"/><path d="M775.9,2661.25a13.71,13.71,0,0,0,1.31-1.83l1.33,1.24c-.61.55-1.18,1.12-1.66,1.57l1.33,1.43-1.17,1.76c-.33-.53-.9-1.36-1.49-2.12v7h-2v-6.78a14.06,14.06,0,0,1-1.79,1.76,10,10,0,0,0-.94-2.24,15.2,15.2,0,0,0,4.31-5.22h-3.75v-2h3a27.12,27.12,0,0,0-1.41-2.32l1.61-1a20.31,20.31,0,0,1,1.6,2.39l-1.29.92h1.33l.36-.1,1.12.91a21.13,21.13,0,0,1-2.15,4.24v.11Zm12.84,6.63v2H777.93v-2h4.22v-1.94h-3.5v-2h3.5v-1.48h-3.61v-9.06H788v9.06h-3.77V2664h3.9v2h-3.9v1.94Zm-8.19-10.83h1.6v-1.73h-1.6Zm1.6,3.53v-1.77h-1.6v1.77Zm3.74-5.26h-1.64v1.73h1.64Zm0,3.49h-1.64v1.77h1.64Z"/><path d="M788.4,2675.9s0,.76,0,1c-.25,8.49-.46,11.51-1.24,12.52a2.56,2.56,0,0,1-1.82,1,21.89,21.89,0,0,1-3,0,5.39,5.39,0,0,0-.75-2.2c1.22.11,2.34.11,2.84.11a1,1,0,0,0,.83-.32c.55-.61.8-3.46,1-10.16H782.2a16.17,16.17,0,0,1-1.67,3,14.41,14.41,0,0,0-1.46-1.06v8.87H774v1.38h-2.06V2676h2.15a19.37,19.37,0,0,0,.55-3.06l2.47.34c-.32,1-.66,1.9-1,2.72h3v3.08a19.75,19.75,0,0,0,2.56-6.12l2.15.49a23.24,23.24,0,0,1-.74,2.42ZM777,2678h-3v3.08h3Zm0,8.76V2683h-3v3.72Zm6.3-1a40.77,40.77,0,0,0-2.64-4.39l1.77-1a46.13,46.13,0,0,1,2.79,4.22Z"/><path d="M786,2704.58c-.06.8-.09,1.47-.15,2.07H788v2h-2.36a3.76,3.76,0,0,1-.49,1.56,2,2,0,0,1-1.58.89,12.81,12.81,0,0,1-2.53,0,4.26,4.26,0,0,0-.55-1.73,15.9,15.9,0,0,0,2,.08.63.63,0,0,0,.66-.31,1.7,1.7,0,0,0,.23-.53H773.16c.23-1.12.46-2.55.68-4.05h-2.62v-2h2.91c.15-1.14.28-2.32.4-3.36-.48.57-.93,1.12-1.41,1.59a17.23,17.23,0,0,0-2-1.31,16.92,16.92,0,0,0,4.37-6.19l2.24.65c-.17.38-.36.77-.55,1.17h11v2H776c-.32.51-.64,1-1,1.46h11.25s0,.72,0,1c0,1.1-.07,2.07-.11,3h2.73v2Zm-9.92-.07c-.11.76-.2,1.46-.32,2.14h4.16a13.11,13.11,0,0,0-2.26-1.4l.76-.74Zm.52-3.93c-.08.68-.17,1.36-.27,2.07h3.78a11.21,11.21,0,0,0-2.2-1.31l.78-.76Zm7,6.07c0-.6.09-1.29.13-2.14h-3.95a12.33,12.33,0,0,1,2.22,1.5l-.65.64Zm.2-4c0-.65.06-1.31.08-2.07h-3.86a11.82,11.82,0,0,1,2.17,1.42l-.65.65Z"/><path d="M776.71,2714.5a35.61,35.61,0,0,1-1.48,3.61v13.47h-2.15v-9.72a16.73,16.73,0,0,1-1.27,1.63,16.06,16.06,0,0,0-1.06-2.45,20.17,20.17,0,0,0,3.87-7.18Zm11.61.29v16.58h-2.15v-.93H779v1.1h-2v-16.75Zm-2.15,13.7v-11.74H779v11.74Zm-2.73-7.77v1.63h1.82v5.09H780v-5.09h1.69v-1.63h-2.18v-1.64h2.18v-1.94h1.75v1.94h2.3v1.64Zm.13,3.19h-1.94v2h1.94Z"/><path d="M773.39,2747a20.34,20.34,0,0,1-.84,4.62,10.06,10.06,0,0,0-1.63-.55,16.36,16.36,0,0,0,.76-4.33Zm-1.73-5.32a.12.12,0,0,0,0,.08,16.53,16.53,0,0,0-.63-1.81c.36-.09.69-.45,1-1a20.52,20.52,0,0,0,2.24-4.64l1.88.76a28.54,28.54,0,0,1-2.53,4.58l1.39-.09c.48-.84,1-1.73,1.35-2.62l1.71,1.06a33.39,33.39,0,0,1-4,5.91l2.2-.29c-.19-.53-.41-1.08-.64-1.57l1.5-.56a15.68,15.68,0,0,1,1.29,3.56l-1.6.64a3.94,3.94,0,0,0-.09-.51c-3.87.61-4.52.8-5,1a15.86,15.86,0,0,0-.62-1.83c.47-.11.87-.57,1.46-1.27a19.09,19.09,0,0,0,1.29-1.75,7.75,7.75,0,0,0-2.26.42Zm3.7,4.92a32.07,32.07,0,0,1,.52,3.95l-1.64.42a39.88,39.88,0,0,0-.42-4Zm2-.55a32.5,32.5,0,0,1,1.1,3.55l-1.54.58a27.35,27.35,0,0,0-1-3.65Zm11.07-10.9v16.32h-2.16v-.9H781v1.05h-2v-16.47Zm-7.43,2.28v4.6h1.52v-4.6Zm0,11h1.52v-4.37H781Zm5.27-11H784.6v4.6h1.69Zm0,11v-4.37H784.6v4.37Z"/><path d="M778,2766.89a32.57,32.57,0,0,1,2.56,4.1l-1.84,1c-.17-.4-.44-.88-.72-1.39-4.18,1-4.9,1.24-5.34,1.5a6.24,6.24,0,0,0-1-1.75,2,2,0,0,0,.8-1.67v-8.32a16.41,16.41,0,0,0-1.29-1.65,11.19,11.19,0,0,0,2.87-4.14l2.22.66c-.08.21-.17.4-.27.61h4v1.9H777a12.23,12.23,0,0,1,1.35,1.35l-1.18,1h2.66v6.78h-5.38v2.54l2.43-.53c-.24-.4-.51-.78-.74-1.14Zm-3-9.2a18.36,18.36,0,0,1-1.77,2.34h3.27a15.53,15.53,0,0,0-1.37-1.43l1.1-.91Zm2.83,4h-3.27v1h3.27Zm0,3.4v-.8h-3.27v.8Zm11-7.43h-3.17a11.79,11.79,0,0,1,1.18,1.2l-1.35,1.14h2.71v7.86c0,1.05-.17,1.62-.91,2a7.3,7.3,0,0,1-3,.36,7.78,7.78,0,0,0-.65-2.07c.86,0,1.81,0,2.08,0s.38-.08.38-.33v-5.75h-3v10.28h-2.12v-11.69a15,15,0,0,0-1.66-1.54,10.84,10.84,0,0,0,2.49-4.61l2.3.57c-.08.23-.15.47-.23.7h5Zm-3.8,2.34a14.27,14.27,0,0,0-1.48-1.56l1-.78h-1.43a17.16,17.16,0,0,1-1.36,2.34Z"/><path d="M777.92,2793.71c1.46-.55,2.28-1.5,2.28-2.6H780a1.64,1.64,0,0,1-1.75-1.65,1.69,1.69,0,0,1,1.81-1.66c1.29,0,2,1,2,2.76a4.79,4.79,0,0,1-3.59,4.67Z"/><path d="M787.92,2809.41v4.42h-2.37v-2.26H774.28v2.26H772v-4.42h7.11a16.6,16.6,0,0,0-.82-2l2.2-.64a12.14,12.14,0,0,1,1.12,2.6Zm-4.25,12.67c1.46,0,1.69-.42,1.91-2.87a8.11,8.11,0,0,0,2.26.93c-.37,3.23-1.12,4.18-4.06,4.18h-5.11c-3.25,0-4.2-.74-4.2-3.34v-7.85h2.37v3.69a37.81,37.81,0,0,0,7.21-2.61l1.8,1.81a51.71,51.71,0,0,1-9,2.85v2.07c0,1,.27,1.14,1.92,1.14Z"/><path d="M788.59,2831H786.4v11.33c0,1.36-.32,2-1.22,2.41a12.75,12.75,0,0,1-4.29.42,10.19,10.19,0,0,0-.93-2.4c1.35.08,3,.06,3.46.06s.61-.13.61-.53V2831H771.47v-2.28h17.12Zm-13.17,9.48v1.45h-2.2v-8.8h8v7.35Zm0-5.2v3H779v-3Z"/><path d="M779.28,2860.23c-2.51,1.12-5.32,2.32-7.47,3.21l-.76-2.41c.72-.25,1.58-.55,2.53-.93l-.38-11.1,2.35-.09.35,10.28c.94-.4,1.91-.8,2.86-1.18Zm7.86,5.34a33.23,33.23,0,0,0-3.55-4.58,13.55,13.55,0,0,1-5.78,4.62,13.11,13.11,0,0,0-1.8-2c6-2.28,8-6.87,8.68-14.68l2.49.23a29.32,29.32,0,0,1-2.32,9.65,40.51,40.51,0,0,1,4.22,4.88Zm-7.12-9.74a19.46,19.46,0,0,0-2.83-4.72l2-1a19.39,19.39,0,0,1,3,4.56Z"/><path d="M788.45,2870.89v2.17H778.29a22.34,22.34,0,0,1-2.22,3.74v9.2h-2.3v-6.62a13.35,13.35,0,0,1-1.67,1.33,15.54,15.54,0,0,0-1.13-2.18,14.39,14.39,0,0,0,4.74-5.47h-4.13v-2.17h5.13c.33-.89.61-1.76.84-2.64l2.37.57q-.31,1-.72,2.07Zm-4.56,12.56h4.51v2.09H777v-2.09h4.59v-4.33h-3.85V2877h3.85v-3.15h2.28V2877h3.76v2.09h-3.76Z"/><path d="M771.28,2904.86a9.49,9.49,0,0,0,2.36-3.23l1.88.84a11.69,11.69,0,0,1-2.36,3.49Zm17-10.28H771.81v-1.74h4a7.61,7.61,0,0,0-.38-1.05l1.43-.28h-4.09v-1.75h6.16a9.2,9.2,0,0,0-.33-.89l2.21-.4a8.34,8.34,0,0,1,.55,1.29h5.91v1.75h-3.9l1.52.26c-.23.38-.42.74-.61,1.07h4Zm-2,6.48h-5.81a14.44,14.44,0,0,1,2,1.26L781,2903.7a13.39,13.39,0,0,0-3-1.88l.78-.76H774v-5.79h12.23Zm-4.41,3.36c.71,0,.82-.2.92-1.53a6.52,6.52,0,0,0,1.92.7c-.25,2.11-.86,2.64-2.63,2.64h-3.06c-2.39,0-3-.55-3-2.34v-2h2.21v2c0,.5.15.55,1,.55Zm2.17-7.75h-7.86v.82H784Zm0,2.15h-7.86v.82H784Zm-6.42-7.31a7.67,7.67,0,0,1,.53,1.33h3.88c.19-.44.4-.93.53-1.33Zm8.61,9.95a14.78,14.78,0,0,1,2.31,3.36l-2,.88a14.37,14.37,0,0,0-2.19-3.44Z"/><path d="M787.92,2911.53V2916h-2.37v-2.26H774.28V2916H772v-4.43h7.11a17.19,17.19,0,0,0-.82-2l2.2-.65a12.36,12.36,0,0,1,1.12,2.6Zm-4.25,12.68c1.46,0,1.69-.42,1.91-2.87a8.11,8.11,0,0,0,2.26.93c-.37,3.23-1.12,4.18-4.06,4.18h-5.11c-3.25,0-4.2-.74-4.2-3.35v-7.84h2.37v3.68a38.55,38.55,0,0,0,7.21-2.6l1.8,1.8a51.71,51.71,0,0,1-9,2.85v2.08c0,1,.27,1.14,1.92,1.14Z"/><path d="M781.35,2944.84c.49,0,1,.06,1.52.06,1.06,0,4.71,0,6.06-.06a7.37,7.37,0,0,0-.76,2.16h-5.42c-3.47,0-5.83-.49-7.42-2.69a8.66,8.66,0,0,1-2.66,3,9.27,9.27,0,0,0-1.71-1.58,8.06,8.06,0,0,0,3.53-5.76l2.26.35c-.13.6-.28,1.17-.44,1.73a4.18,4.18,0,0,0,2.74,2.37v-4.83h-7.41v-2H788.4v2h-7V2941h5.85v2h-5.85Zm5.24-8.06h-13.2v-6.59h13.2Zm-2.3-5h-8.7v1h8.7Zm0,2.45h-8.7v1h8.7Z"/><path d="M782.64,2956.11a49.56,49.56,0,0,1,6.33,5.14l-1.92,1.73a44,44,0,0,0-5.82-5.14v9.84h-2.47v-9.27a22.63,22.63,0,0,1-6,4.67,13.46,13.46,0,0,0-1.55-2,19.93,19.93,0,0,0,8.18-7.47h-7.58v-2.32h16.47v2.32h-5.9a20.51,20.51,0,0,1-1.11,1.75v2Z"/><path d="M781.35,2985.69c.49,0,1,.06,1.52.06,1.06,0,4.71,0,6.06-.06a7.37,7.37,0,0,0-.76,2.16h-5.42c-3.47,0-5.83-.49-7.42-2.69a8.66,8.66,0,0,1-2.66,3,9.27,9.27,0,0,0-1.71-1.58,8.06,8.06,0,0,0,3.53-5.76l2.26.35c-.13.6-.28,1.17-.44,1.73a4.18,4.18,0,0,0,2.74,2.37v-4.83h-7.41v-2H788.4v2h-7v1.43h5.85v2h-5.85Zm5.24-8.06h-13.2V2971h13.2Zm-2.3-5h-8.7v1h8.7Zm0,2.45h-8.7v1h8.7Z"/><path d="M787.92,2993.23v4.43h-2.37v-2.26H774.28v2.26H772v-4.43h7.11a16.46,16.46,0,0,0-.82-1.95l2.2-.65a12.36,12.36,0,0,1,1.12,2.6Zm-4.25,12.67c1.46,0,1.69-.41,1.91-2.86a8.42,8.42,0,0,0,2.26.93c-.37,3.23-1.12,4.18-4.06,4.18h-5.11c-3.25,0-4.2-.74-4.2-3.35V2997h2.37v3.68a38.55,38.55,0,0,0,7.21-2.6l1.8,1.8a51.71,51.71,0,0,1-9,2.85v2.07c0,1,.27,1.14,1.92,1.14Z"/><path d="M788.66,3021.88v1.71H771.32v-1.71h4.35a7.41,7.41,0,0,0-.44-1l.8-.19h-1.94V3017h12v3.76H785a11.3,11.3,0,0,1-.76,1.17Zm-9.88-7.9H772v-1.61h6.82v-1.14h2.3v1.14h7V3014h-7v.78h5.85v1.56H773.27v-1.56h5.51Zm-5.07,10.32H786.5V3029h-2.34v-.49h-8.23v.51h-2.22Zm2.22,1.5V3027h8.23v-1.16Zm.31-6.48h7.58v-1h-7.58Zm1.25,1.39a5.45,5.45,0,0,1,.53,1.17h3.92a9.7,9.7,0,0,0,.49-1.17Z"/><path d="M785.39,3038.38c0,.66,0,1.42-.07,2.22.59,3,1.73,5.74,3.72,7.05a6.89,6.89,0,0,0-1.42,1.9,10.11,10.11,0,0,1-3.08-4.88,12,12,0,0,1-2.89,4.9,6.49,6.49,0,0,0-1.27-1.31v.36h-6v.81h-1.73v-5.87c-.25.33-.48.59-.72.86a14.09,14.09,0,0,0-1-1.56,12.53,12.53,0,0,0,2.42-3.72h-1.6v-3.61h3.93v3.61h-1.67l.93.32c-.13.3-.28.63-.43.95h1.71c-.14-.29-.27-.59-.42-.84l1.23-.45h-.57v-3.61h3.94v3.23a22.42,22.42,0,0,0,1.71-7.11l2.07.33c-.1.81-.23,1.61-.38,2.41h3.43l.31-.08,1.39.4a37.38,37.38,0,0,1-1.3,5.32l-1.63-.51c.23-.82.47-1.94.68-3.08H783.4a15.91,15.91,0,0,1-1.65,4.43,12.34,12.34,0,0,0-1.71-1.39c.07-.11.13-.23.21-.34h-2.89a6.56,6.56,0,0,1,.66,1.29h2.53v1.5H778v.72h2.16V3044H778v.8h2.31v1.4H778v.86h2.39v.64c2.79-3,3.06-6.86,3.06-9.4v-1.18h1.95Zm-12-4.14h-2.32v-1.6h2.32v-1h1.92v3.52h-1.92Zm-.33,3.76h1.28v-1.35h-1.28Zm3.08,3.91h-1.78v.72h1.78Zm0,2.13h-1.78v.8h1.78Zm-1.78,3.06h1.78v-.86h-1.78Zm4.48-11.91h-1.94v-3.52h1.94v.95H781v1.6h-2.18ZM777.8,3038h1.27v-1.29H777.8Z"/><path d="M788.4,3055s0,.76,0,1c-.25,8.49-.46,11.51-1.24,12.52a2.52,2.52,0,0,1-1.82,1,20.19,20.19,0,0,1-3,0,5.29,5.29,0,0,0-.75-2.2c1.22.11,2.34.11,2.84.11a1,1,0,0,0,.83-.32c.55-.61.8-3.46,1-10.17H782.2a16.28,16.28,0,0,1-1.67,3,13,13,0,0,0-1.46-1.07v8.87H774v1.39h-2.06v-14.12h2.15a19.05,19.05,0,0,0,.55-3.05l2.47.34c-.32.95-.66,1.9-1,2.71h3v3.08a19.59,19.59,0,0,0,2.56-6.11l2.15.49A23.07,23.07,0,0,1,783,3055ZM777,3057.13h-3v3.08h3Zm0,8.76v-3.73h-3v3.73Zm6.3-1a40.77,40.77,0,0,0-2.64-4.39l1.77-1a46.08,46.08,0,0,1,2.79,4.21Z"/><path d="M776.81,3084.28c-.23-.55-.63-1.41-1-2.22v8.19h-2v-7.11a15.74,15.74,0,0,1-1.73,3.74,10.55,10.55,0,0,0-1-2,18.92,18.92,0,0,0,2.55-6.37h-2.11v-2.09h2.28v-3.91h2v3.91h1.9v2.09h-1.9v.84c.52.7,1.88,2.79,2.21,3.31Zm5.16.78A7.78,7.78,0,0,1,778,3090a8.72,8.72,0,0,0-1.16-1.44,6.05,6.05,0,0,0,2.64-2.38h-2.07v-1.52h3l.32-.06Zm6.79-.91c-.93.68-1.94,1.38-2.8,1.92a8.68,8.68,0,0,0,3.16,2,8.44,8.44,0,0,0-1.33,1.65,9.34,9.34,0,0,1-3.5-3v1.48c0,.95-.17,1.45-.82,1.75a6.33,6.33,0,0,1-2.62.32,5.8,5.8,0,0,0-.57-1.84c.67,0,1.39,0,1.6,0s.3-.06.3-.27V3084h-3.11v-1.54h4.56c-.88-.36-1.85-.72-2.68-1l.55-.61h-3.88v-1.65h4.53v-.74h-3.31v-1.54h3.31v-.7h-4v-1.6h2a11.18,11.18,0,0,0-.86-1.5l1.66-.61a11.84,11.84,0,0,1,1.16,1.9l-.5.21h3.06l-.38-.13a18.27,18.27,0,0,0,1-2l2,.57c-.41.57-.79,1.08-1.14,1.54h2.34v1.6h-4.18v.7H788v1.54h-3.72v.74h4.5v1.65h-4.73a14.82,14.82,0,0,1,2.38,1l-1.2,1.35a8.57,8.57,0,0,0-1-.5v1a7,7,0,0,0,.69,1.18,19.63,19.63,0,0,0,2.12-2Z"/><path d="M788.64,3103.41h-7.37V3108c0,1.27-.28,1.9-1.18,2.26a11.37,11.37,0,0,1-4,.4,9.15,9.15,0,0,0-1-2.34c1.33.08,2.82.08,3.22.06s.55-.11.55-.44v-4.52h-7.53v-2.26h7.53v-2.64a23.63,23.63,0,0,0,3.66-2.24h-9.31V3094h11.84l.53-.12,1.71,1.32a28.32,28.32,0,0,1-6.08,4.48v1.44h7.37Z"/><path d="M777.92,3132c1.46-.55,2.28-1.5,2.28-2.6H780a1.65,1.65,0,0,1-1.75-1.66,1.69,1.69,0,0,1,1.81-1.65c1.29,0,2,1,2,2.75a4.79,4.79,0,0,1-3.59,4.68Z"/><path d="M787.92,3147.68v4.43h-2.37v-2.26H774.28v2.26H772v-4.43h7.11a17.19,17.19,0,0,0-.82-1.95l2.2-.65a12.36,12.36,0,0,1,1.12,2.6Zm-4.25,12.68c1.46,0,1.69-.42,1.91-2.87a8.11,8.11,0,0,0,2.26.93c-.37,3.23-1.12,4.18-4.06,4.18h-5.11c-3.25,0-4.2-.74-4.2-3.35v-7.84h2.37v3.68a38.55,38.55,0,0,0,7.21-2.6l1.8,1.8a51.71,51.71,0,0,1-9,2.85v2.08c0,1,.27,1.14,1.92,1.14Z"/><path d="M788.59,3169.25H786.4v11.32c0,1.37-.32,2-1.22,2.41a12.75,12.75,0,0,1-4.29.42A10.29,10.29,0,0,0,780,3181c1.35.07,3,.06,3.46.06s.61-.14.61-.54v-11.28H771.47V3167h17.12Zm-13.17,9.48v1.44h-2.2v-8.79h8v7.35Zm0-5.21v3H779v-3Z"/><path d="M779.28,3198.51c-2.51,1.12-5.32,2.32-7.47,3.21l-.76-2.41c.72-.25,1.58-.56,2.53-.94l-.38-11.09,2.35-.09.35,10.27c.94-.4,1.91-.79,2.86-1.17Zm7.86,5.34a32.07,32.07,0,0,0-3.55-4.58,13.61,13.61,0,0,1-5.78,4.61,13.06,13.06,0,0,0-1.8-2c6-2.28,8-6.88,8.68-14.69l2.49.23a29.2,29.2,0,0,1-2.32,9.65,41.3,41.3,0,0,1,4.22,4.88ZM780,3194.1a19.41,19.41,0,0,0-2.83-4.71l2-1a19.6,19.6,0,0,1,3,4.56Z"/><path d="M780.7,3215.49a22.53,22.53,0,0,1-1.39,5.08c.33.19.67.45,1.13.76a7.16,7.16,0,0,0,3.87.81,41.49,41.49,0,0,0,4.75-.3,9.53,9.53,0,0,0-.51,2.11c-1,.07-3,.15-4.28.15a7.31,7.31,0,0,1-4.12-1c-.68-.45-1.25-1-1.65-1s-1.1,1.22-1.6,2.28l-1.37-2a8,8,0,0,1,2-1.83,19.39,19.39,0,0,0,1.06-3.62h-1.5v0a3,3,0,0,1-.8,2.42,2,2,0,0,1-1,.38,6.06,6.06,0,0,1-1.14,0,4,4,0,0,0-.45-1.67,3.9,3.9,0,0,0,.82,0,.79.79,0,0,0,.51-.15c.25-.17.32-.67.32-1.24a5.88,5.88,0,0,0-1.31-3.6c.38-1.18.74-2.68,1-3.9h-1.58v14.93h-1.79v-16.94h4l.27-.06,1.27.7c-.48,1.58-1.06,3.54-1.6,5.06a6.59,6.59,0,0,1,1.35,3.38c.34-1,.71-2.34,1-3.59h-1.37V3211h3.16a8,8,0,0,0,1.48-1.73h-1.28v-1.44h2a11.85,11.85,0,0,0,.44-1.31l1.78.34c-.09.32-.19.65-.3,1h4.69v1.44h-5.3c-.13.29-.29.55-.44.82h5.17v1.23h-2v.9h2.43v1.23h-7v-1.23h2.62v-.9h-1.43v-.93a9.2,9.2,0,0,1-2.41,2.59c-.1-.17-.25-.46-.44-.74-.26,1-.55,2.09-.83,3.06h.51l.29-.06Zm-2.73-5.18c-.19-.86-.55-2.15-.8-3.16l1.71-.38c.26,1,.63,2.23.83,3Zm10.18,9.61c0,.82-.17,1.14-.7,1.39a6.48,6.48,0,0,1-2.34.23,7.45,7.45,0,0,0-.51-1.39c.55,0,1.19,0,1.36,0s.27-.08.27-.25v-1l-3,.82-.4-1.2a8,8,0,0,1-.76,2.89,7.35,7.35,0,0,0-1.56-1.05,8.16,8.16,0,0,0,.59-3.66v-2.66h7Zm-1.92-2.24v-2.28h-3.31v1.42c0,.4,0,.86,0,1.33.66-.07,1.42-.19,2.26-.32a19.32,19.32,0,0,0-2.06-1.29l.8-1a16.39,16.39,0,0,1,2.25,1.2l-.75,1.08Z"/><path d="M780.82,3237.23a11.08,11.08,0,0,1-1.66,4.41,8.37,8.37,0,0,0,4.52,1c.82,0,4.22,0,5.29,0a6.15,6.15,0,0,0-.67,1.84h-4.71c-2.32,0-4.18-.28-5.6-1.39a9.66,9.66,0,0,1-3,1.79,5.81,5.81,0,0,0-1-1.56,7.25,7.25,0,0,0,2.83-1.56,6.81,6.81,0,0,1-.76-1.34,6.73,6.73,0,0,1-.82.93c-.17-.21-.49-.57-.8-.9a12.13,12.13,0,0,1-1.57,4.39,8,8,0,0,0-1.77-1.35c1.54-2.47,1.65-6.06,1.65-8.56v-4.45h6V3227H781v1h6.08v1.57H781v.84h5.64l.36-.1,1.6.39a22,22,0,0,1-1.26,3.4l-1.88-.54a14,14,0,0,0,.49-1.44h-5.1v.7l4.34-.24.06,1.36-4.4.25c0,.44.13.63.79.63h3.65a14.64,14.64,0,0,0,2.36-.17c.05.59.11,1.14.19,1.61a10.79,10.79,0,0,1-2.34.15h-4.12c-2,0-2.61-.64-2.66-2.09l-3.12.17-.07-1.38,3.19-.17v-.82h-3.84v2.75a31.7,31.7,0,0,1-.29,4.45,10.25,10.25,0,0,0,2.13-3.7l1.69.41a5.85,5.85,0,0,1-.4,1h1.39l.34,0Zm-3.71,1.54a8.65,8.65,0,0,0,.76,1.61,7.21,7.21,0,0,0,.86-1.86h-1.47Zm8.83,3.17c-1.19,0-1.53-.38-1.53-1.65v-1.6h-1.12a4.61,4.61,0,0,1-1.77,3.71,7.43,7.43,0,0,0-1.39-1.18,3.22,3.22,0,0,0,1.39-2.87v-1.29H786v3.23c0,.42,0,.45.23.45h.38c.21,0,.26-.22.32-1.36a4.28,4.28,0,0,0,1.31.53c-.11,1.56-.49,2-1.4,2Z"/><path d="M786,3262.84c.65,0,.76-.32.86-2.53a6.85,6.85,0,0,0,2.07.9c-.25,3-.84,3.78-2.72,3.78h-2.51c-2.26,0-2.79-.69-2.79-2.81v-3h-2.3c-.4,3-1.52,5-6.21,6.08a7.41,7.41,0,0,0-1.25-2c3.89-.72,4.71-2,5-4.06h-2.32V3248h12.43v11.15h-3.1v3c0,.61.12.68.84.68Zm-10-11.7H784V3250H776Zm0,3H784V3253H776Zm0,3H784V3256H776Z"/><path d="M777.76,3281.78l3.63-.6.11,1.93c-3.32.65-6.92,1.3-9.5,1.75l-.49-2.09c1.14-.15,2.56-.38,4.1-.62v-2.59h-3.46v-1.95h3.46v-1.7h2.15v1.7h3.42v1.95h-3.42Zm-6.06-12.84h9.88v1.94H778.9a21.53,21.53,0,0,1,2.64,4l-1.71,1.12c-.12-.29-.27-.61-.44-1-5.24.43-6.06.53-6.61.76-.13-.46-.49-1.47-.72-2.05a1.87,1.87,0,0,0,.87-.8,15.59,15.59,0,0,0,1.18-2.13H771.7Zm6.65,4.43c-.36-.55-.75-1.08-1.11-1.56l1.6-.93h-2.28a22.13,22.13,0,0,1-1.65,2.68Zm6.06,7.69h-2.09v-11.47h2.09Zm3.74-13v14.7c0,1.2-.23,1.77-.95,2.13a8.33,8.33,0,0,1-3.29.42,8.8,8.8,0,0,0-.76-2.17c1,0,2,0,2.36,0s.43-.11.43-.44V3268Z"/><path d="M776.48,3297.12a23.19,23.19,0,0,1-1.48,4.94c.31.19.67.45,1.16.76,1.31.78,3.1.89,5.32.89a65.19,65.19,0,0,0,7.69-.49,8.38,8.38,0,0,0-.66,2.31c-1.56.1-4.92.23-7.14.23-2.53,0-4.13-.21-5.49-1-.8-.43-1.49-1.06-1.87-1.06s-1.12,1.29-1.59,2.38l-1.5-2.15a8.39,8.39,0,0,1,2-1.82,18.13,18.13,0,0,0,1.1-3.29h-2.39c.44-1.12.93-2.64,1.37-4.12h-1.71v-2h4.44c-.39,1.33-.85,2.85-1.31,4.18h.78l.34-.07Zm-3.19-5c-.21-.85-.72-2.22-1-3.27l2-.6c.36,1,.86,2.29,1.12,3.15Zm5.59,10.75h-2v-8.26h1.41v-5.81h8.18v5.81h1.39V3301c0,.89-.15,1.36-.74,1.67a5.53,5.53,0,0,1-2.36.3,5.63,5.63,0,0,0-.49-1.63h-2.85v.59h-1.61v-4.79h4.95v4.08h.78c.21,0,.27,0,.27-.24v-4.62h-7Zm1.4-8.26h1.07v-3h3.13v-1.16h-4.2Zm2.89,3.93h-1.71v1.33h1.71Zm1.31-5.51H783v1.58h1.5Z"/><path d="M779.62,3318.53a34.39,34.39,0,0,1-3.53,4.65l7.69-.45c-.67-1-1.37-1.92-2-2.74l2.09-.91a31.74,31.74,0,0,1,4.21,6.12l-2.2,1.14a15.71,15.71,0,0,0-.8-1.58c-9.57.76-10.9.82-11.85,1.18-.14-.46-.52-1.6-.78-2.22a3.17,3.17,0,0,0,1.46-1.14,25.38,25.38,0,0,0,2.87-4h-5.34v-2.28h7.39v-2.7h-5.94v-2.28h5.94v-2.62h2.4v2.62h6.11v2.28H781.2v2.7h7.48v2.28Z"/><path d="M788.4,3332s0,.76,0,1c-.25,8.49-.46,11.51-1.24,12.52a2.52,2.52,0,0,1-1.82,1,20.19,20.19,0,0,1-3,0,5.29,5.29,0,0,0-.75-2.2c1.22.11,2.34.11,2.84.11a1,1,0,0,0,.83-.32c.55-.61.8-3.46,1-10.17H782.2a16.28,16.28,0,0,1-1.67,3,13,13,0,0,0-1.46-1.07v8.87H774v1.39h-2.06v-14.12h2.15a19.05,19.05,0,0,0,.55-3.05l2.47.34c-.32.95-.66,1.9-1,2.71h3v3.08a19.59,19.59,0,0,0,2.56-6.11l2.15.49A23.07,23.07,0,0,1,783,3332ZM777,3334.13h-3v3.08h3Zm0,8.76v-3.73h-3v3.73Zm6.3-1a40.77,40.77,0,0,0-2.64-4.39l1.77-1a46.08,46.08,0,0,1,2.79,4.21Z"/><path d="M787.92,3351.93v4.43h-2.37v-2.26H774.28v2.26H772v-4.43h7.11a17.19,17.19,0,0,0-.82-1.95l2.2-.65a12.36,12.36,0,0,1,1.12,2.6Zm-4.25,12.68c1.46,0,1.69-.42,1.91-2.87a8.11,8.11,0,0,0,2.26.93c-.37,3.23-1.12,4.18-4.06,4.18h-5.11c-3.25,0-4.2-.74-4.2-3.35v-7.84h2.37v3.68a38.55,38.55,0,0,0,7.21-2.6l1.8,1.8a51.71,51.71,0,0,1-9,2.85v2.08c0,1,.27,1.14,1.92,1.14Z"/><path d="M777.92,3388.56c1.46-.55,2.28-1.5,2.28-2.6H780a1.64,1.64,0,0,1-1.75-1.65,1.68,1.68,0,0,1,1.81-1.65c1.29,0,2,1,2,2.75a4.79,4.79,0,0,1-3.59,4.67Z"/><path d="M779,3414.59a24.42,24.42,0,0,1-5.74,5,15.73,15.73,0,0,0-1.88-1.58,17.32,17.32,0,0,0,5.23-4.41Zm7.71-11.36v9.08H773.33v-9.08Zm-11.07,6.94h8.62v-4.77h-8.62Zm7.71,3.42a40.87,40.87,0,0,1,5.17,4.61l-2.13,1.33a34.63,34.63,0,0,0-5-4.78Z"/><path d="M781.35,3437.56c.49,0,1,.06,1.52.06,1.06,0,4.71,0,6.06-.06a7.54,7.54,0,0,0-.76,2.17h-5.42c-3.47,0-5.83-.49-7.42-2.7a8.58,8.58,0,0,1-2.66,3,9.23,9.23,0,0,0-1.71-1.57,8.06,8.06,0,0,0,3.53-5.76l2.26.34c-.13.61-.28,1.18-.44,1.73a4.19,4.19,0,0,0,2.74,2.38v-4.83h-7.41v-2H788.4v2h-7v1.42h5.85v2h-5.85Zm5.24-8h-13.2v-6.59h13.2Zm-2.3-5h-8.7v1h8.7Zm0,2.46h-8.7v1h8.7Z"/><path d="M778.37,3455.77l-6.9,2-.57-2.13c.76-.17,1.69-.41,2.72-.68v-3.82h-2.11v-2.07h2.11v-3.3h-2.28v-2.09H778v2.09H775.8v3.3h2v2.07h-2v3.25l2.26-.63Zm8.43,2.64c.34,0,.42-.31.46-2.21a5.53,5.53,0,0,0,1.88.84c-.19,2.6-.69,3.31-2.09,3.31h-1.43c-1.75,0-2.13-.65-2.13-2.57v-3.72h-1.15c-.35,3.09-1.22,5.3-5.27,6.49a6.68,6.68,0,0,0-1.25-1.86c3.44-.85,4-2.41,4.29-4.63h-1.38v-10.64H788v10.64h-2.34v3.72c0,.55,0,.63.36.63Zm-6-12h4.95v-1.18h-4.95Zm0,2.89h4.95v-1.18h-4.95Zm0,2.88h4.95V3451h-4.95Z"/><path d="M788.7,3468.46v1.62h-3.44l-.15,1.48H774.19l.19-1.48h-3v-1.62h3.21l.19-1.44h10.76l-.14,1.44Zm-5.05,9.8c1.67.46,3.34.95,4.46,1.31l-1.54,1.39c-1.37-.51-3.59-1.27-5.77-1.84l.78-.86H778.1l1.14.84a23.36,23.36,0,0,1-6.46,1.88,11.08,11.08,0,0,0-1.2-1.54,24.93,24.93,0,0,0,5-1.18h-2.72v-6.15h12.39v6.15ZM774,3468h-2v-3.31h6.93a8.61,8.61,0,0,0-.55-1.14l2-.55a9.71,9.71,0,0,1,.88,1.69h6.93V3468H786v-1.56H774Zm2.09,5.83H784v-.55h-7.9Zm0,1.67H784v-.59h-7.9Zm0,1.67H784v-.61h-7.9Zm.3-6.7h2.51l.07-.61h-2.5Zm.29-2.28-.08.55h2.49l.06-.55Zm6.51,2.28.06-.61h-2.43l-.08.61Zm.19-2.28H781l0,.55h2.39Z"/><path d="M781.35,3498.84c.49,0,1,.06,1.52.06,1.06,0,4.71,0,6.06-.06a7.33,7.33,0,0,0-.76,2.17h-5.42c-3.47,0-5.83-.5-7.42-2.7a8.66,8.66,0,0,1-2.66,3,9.27,9.27,0,0,0-1.71-1.58,8.06,8.06,0,0,0,3.53-5.75l2.26.34c-.13.61-.28,1.18-.44,1.73a4.18,4.18,0,0,0,2.74,2.37v-4.82h-7.41v-2H788.4v2h-7V3495h5.85v2h-5.85Zm5.24-8.05h-13.2v-6.6h13.2Zm-2.3-5h-8.7v1h8.7Zm0,2.45h-8.7v1h8.7Z"/><path d="M775.1,3509.31v-.74a20.77,20.77,0,0,1-2,1.37h8v6h-6.59c0,.19-.06.4-.1.59h7.15v5.07h-2v-.51h-3.51v.59h-1.88v-3.93A12.37,12.37,0,0,1,773,3521a10.49,10.49,0,0,0-2-.87c1.51-2.41,1.66-5.82,1.66-8v-1.92l-.44.23a12,12,0,0,0-1.18-2.16,13.12,13.12,0,0,0,5.65-4.32l2.07.82-.35.48c1.41.81,3,1.74,3.86,2.37l-1.16,1.9a24.24,24.24,0,0,0-2.07-1.44v1.23Zm3.93,5v-.77h-4.35c0,.24,0,.51,0,.77Zm-4.31-2.84v.74H779v-.74Zm4.16-3.52-1.81-1.14c-.4.38-.81.78-1.23,1.14ZM776.05,3518v1.35h3.51V3518Zm8.68-1.5H782.6v-10.6h2.13Zm3.48-12.5v15c0,1.21-.23,1.82-.94,2.18a7.14,7.14,0,0,1-3.26.46,9.23,9.23,0,0,0-.67-2.26c1,0,2,0,2.26,0s.44-.1.44-.42V3504Z"/><path d="M777.49,3525.16a29.83,29.83,0,0,1-1.82,4v13h-2.28v-9.5c-.4.48-.8,1-1.18,1.37a16.33,16.33,0,0,0-1.25-2.41,19.89,19.89,0,0,0,4.33-7.11Zm6,4.48v2h4.92v2.06h-4.92v2.14h5.17v2.09h-5.17v4.22H781.2v-12.5h-.73a21.33,21.33,0,0,1-2.48,3.69,16.39,16.39,0,0,0-1.73-1.58,18.85,18.85,0,0,0,4-7.16l2.19.55a23.4,23.4,0,0,1-.93,2.35h7.37v2.15Z"/><path d="M781.67,3552.55c-.74.54-1.46,1-2.24,1.52h6.89v8.44H784v-.5h-6.54v.57h-2.26v-6.21c-.95.42-1.93.84-2.9,1.2a12.49,12.49,0,0,0-1.39-1.86,33.59,33.59,0,0,0,7.07-3.16h-6.46v-2h6.1v-1.73h-4.47v-2h4.47v-2h2.24v2H784v.93a22.21,22.21,0,0,0,2-2.41l1.93,1a27.35,27.35,0,0,1-3.74,4.18h4.41v2Zm2.3,3.37h-6.54v1.21H784Zm0,4.21v-1.29h-6.54v1.29Zm-4.14-9.57h1a24.63,24.63,0,0,0,2-1.73h-3.09Z"/><path d="M777.92,3583.86c1.46-.55,2.28-1.5,2.28-2.6H780a1.64,1.64,0,0,1-1.75-1.65,1.68,1.68,0,0,1,1.81-1.65c1.29,0,2,1,2,2.75a4.79,4.79,0,0,1-3.59,4.67Z"/><path d="M786,3608.34c-.06.79-.09,1.46-.15,2.07H788v2h-2.36a3.71,3.71,0,0,1-.49,1.56,2,2,0,0,1-1.58.89,12.81,12.81,0,0,1-2.53,0,4.36,4.36,0,0,0-.55-1.73,15.9,15.9,0,0,0,2,.08.64.64,0,0,0,.66-.3,1.9,1.9,0,0,0,.23-.54H773.16c.23-1.12.46-2.54.68-4h-2.62v-2h2.91c.15-1.14.28-2.31.4-3.36-.48.57-.93,1.12-1.41,1.6a16,16,0,0,0-2-1.31,17,17,0,0,0,4.37-6.2l2.24.65c-.17.38-.36.78-.55,1.18h11v2H776c-.32.51-.64,1-1,1.46h11.25s0,.73,0,1c0,1.1-.07,2.07-.11,3h2.73v2Zm-9.92-.08c-.11.76-.2,1.46-.32,2.15h4.16a12.57,12.57,0,0,0-2.26-1.41l.76-.74Zm.52-3.93q-.12,1-.27,2.07h3.78a11.72,11.72,0,0,0-2.2-1.31l.78-.76Zm7,6.08c0-.61.09-1.29.13-2.15h-3.95a13.47,13.47,0,0,1,2.22,1.5l-.65.65Zm.2-4c0-.65.06-1.31.08-2.07h-3.86a13,13,0,0,1,2.17,1.42l-.65.65Z"/><path d="M781.61,3626.86a10.72,10.72,0,0,0,7.47,6.21,8.25,8.25,0,0,0-1.56,2.11,12.14,12.14,0,0,1-7.46-6.46c-1,2.53-3.2,4.92-7.47,6.52a8.79,8.79,0,0,0-1.48-2c4.39-1.55,6.25-4,7-6.42h-6.37v-2.32h6.84c0-.51.06-1,.06-1.46v-1.92h-6.21v-2.31h15v2.31H781v2c0,.46,0,.93,0,1.42h7.23v2.32Z"/><path d="M787.58,3653.06c0,1.22-.27,1.83-1,2.17a8.76,8.76,0,0,1-3.64.4,8.54,8.54,0,0,0-.73-2.17c1.07.06,2.32,0,2.66,0s.5-.11.5-.46v-2.85h-4v5.31h-2.28v-5.31h-3.88a10.86,10.86,0,0,1-2.39,5.65,8.26,8.26,0,0,0-1.79-1.47c2.07-2.28,2.25-5.66,2.25-8.32v-6.78h14.34Zm-8.53-5v-2.34h-3.57v.34c0,.61,0,1.29-.06,2Zm-3.57-6.65v2.2h3.57v-2.2Zm9.86,0h-4v2.2h4Zm0,6.65v-2.34h-4v2.34Z"/><path d="M787.94,3667.43a18.84,18.84,0,0,1-3.15,4.16c.51,1.46,1.1,2.33,1.67,2.33.4,0,.63-.91.72-3.15a5.62,5.62,0,0,0,1.86,1.29c-.36,3.33-1.06,4.16-2.79,4.16-1.39,0-2.45-1.14-3.27-3a20.11,20.11,0,0,1-3.51,2.32,10.59,10.59,0,0,0-1.5-1.83,19.24,19.24,0,0,0,4.23-2.67,35.2,35.2,0,0,1-1-5.09h-3.85v2.16l2.92-.53.17,2.05-3.09.63v3.25c0,1.23-.27,1.84-1,2.2a8.15,8.15,0,0,1-3.42.44,8.51,8.51,0,0,0-.8-2.28c1.07.05,2.17,0,2.51,0s.46-.1.46-.4v-2.76c-1.22.25-2.4.5-3.4.69l-.55-2.28c1.08-.17,2.45-.38,4-.65V3666h-3.59v-2.15h3.59v-2.17c-1,.17-2.07.31-3,.42a8.71,8.71,0,0,0-.65-1.9,47.53,47.53,0,0,0,7.54-1.6l1.52,1.92c-1,.29-2,.54-3.09.76v2.57H781c-.15-1.71-.2-3.48-.22-5.21h2.37a46.85,46.85,0,0,0,.19,5.21h5.17V3666h-4.94c.15,1.13.34,2.24.55,3.21a16,16,0,0,0,1.8-2.59Zm-1.39-4.18a14.89,14.89,0,0,0-2.69-3.14l1.7-1.16a16.6,16.6,0,0,1,2.82,3Z"/><path d="M781.84,3687.09h-3.27v9.44h-2.09v-16.64c-.38,1.09-.81,2.21-1.31,3.29v13.39H773v-9.5a14.44,14.44,0,0,1-1.18,1.56,15.8,15.8,0,0,0-1.08-2.43,21.1,21.1,0,0,0,3.76-7.33l2.09.62-.12.36h5.34Zm-3.27-5.53v1.09h1.56v-1.09Zm1.56,3.82v-1.12h-1.56v1.12Zm8.21,8.57c0,1.25-.27,1.86-1,2.19a9.92,9.92,0,0,1-3.76.41,8.58,8.58,0,0,0-.72-2.18c1.16.07,2.47.06,2.85,0s.49-.12.49-.48v-6.84H782.7v-7.24h5.64Zm-3.86-12.39v1.09h1.69v-1.09Zm1.69,3.82v-1.12h-1.69v1.12Z"/><path d="M782.64,3705.41a49.58,49.58,0,0,1,6.33,5.15l-1.92,1.73a43.3,43.3,0,0,0-5.82-5.15V3717h-2.47v-9.27a22.63,22.63,0,0,1-6,4.67,13.46,13.46,0,0,0-1.55-2.05,19.93,19.93,0,0,0,8.18-7.47h-7.58v-2.31h16.47v2.31h-5.9a20.51,20.51,0,0,1-1.11,1.75v2Z"/><path d="M778,3724.62h-6.84v-1.79h2.75a18.48,18.48,0,0,0-1-2.41l1.89-.67a17.21,17.21,0,0,1,1.16,2.59l-1.27.49H778Zm-.46,10a13.1,13.1,0,0,0,.93-3.72l1.58.45a12.42,12.42,0,0,1-1.2,4.37l-1.31-.55v1.29h-4v.76h-1.86v-6.49h5.85Zm.06-7.39h-5.89v-1.71h5.89Zm-5.89.88h5.89v1.69h-5.89Zm4,4.4H773.5v2.19h2.11Zm8.72-10.24c-.38,3.31-1.35,6.08-4.94,7.75a5.5,5.5,0,0,0-1.25-1.59,6.4,6.4,0,0,0,2.92-2.28c-.72-.7-1.82-1.65-2.62-2.36l1.2-1.19c.66.53,1.54,1.21,2.24,1.82a12.78,12.78,0,0,0,.44-2.15h-3.65v-1.9h9.69s0,.61-.06.86c-.19,4.73-.42,6.57-.93,7.2a1.93,1.93,0,0,1-1.39.76,15,15,0,0,1-2.2,0,5.59,5.59,0,0,0-.59-1.94c.72.06,1.43.07,1.77.07a.72.72,0,0,0,.6-.22c.27-.35.46-1.66.61-4.87Zm0,13c.55,0,.65-.31.71-2.3a6,6,0,0,0,1.72.72c-.19,2.64-.7,3.32-2.22,3.32h-2.09c-1.86,0-2.32-.57-2.32-2.35v-4.14H782v4.12c0,.55.1.63.67.63Zm-1.25-6.35a12.71,12.71,0,0,1,2.11,2.81l-1.41,1a16,16,0,0,0-2-2.91Zm4.29,1.14a17.06,17.06,0,0,1,1.65,4.07l-1.65.6a16.79,16.79,0,0,0-1.52-4.12Z"/><path d="M774,3743.3h2.92v1.76h-5.49v-1.76h2.28a19.15,19.15,0,0,0-1.08-2.53l1.57-.59a15.66,15.66,0,0,1,1.24,2.51Zm2.56,4.33H772v-1.71h4.58Zm-4.58.87h4.58v1.69H772Zm4.62,8.32h-3v.8H772v-6.5h4.6Zm-3-4v2.24H775v-2.24Zm14.85-3.78a18.23,18.23,0,0,1-2.18,4.62c.21.95.42,1.5.64,1.5s.4-.82.48-2.26a6.7,6.7,0,0,0,1.44,1.25c-.47,2.93-1.31,3.57-2,3.57-.86,0-1.52-.79-2-2.18a13.54,13.54,0,0,1-2.48,2.22,6.54,6.54,0,0,0-1.28-1.23,10.81,10.81,0,0,0,1.14-.88h-1.12v-.45h-1.69v1.36h-1.8v-8.26h5.34V3755a16.14,16.14,0,0,0,1.34-1.58,48.6,48.6,0,0,1-.72-5.77H777v-1.9h1.12c-.08-.57-.23-1.24-.36-1.79l1.52-.27a13.14,13.14,0,0,1,.45,2.06h.69a20.77,20.77,0,0,0,.4-2.07l1.71.24c-.19.65-.38,1.29-.55,1.83h1.46c-.1-1.73-.15-3.61-.19-5.59h2c0,1.94.08,3.82.16,5.59h3.26v1.9h-3.13c.07,1.12.17,2.14.28,3.09a19.55,19.55,0,0,0,.93-2.54Zm-5.54-5.39h-5.65V3742h2.06a14.2,14.2,0,0,0-.61-1.37l1.75-.48a13.14,13.14,0,0,1,.83,1.85h1.62Zm-3.52,6.17V3751h1.69v-1.18Zm1.69,3.88v-1.22h-1.69v1.22Zm5.61-8.48a21.6,21.6,0,0,0-1.31-3.4l1.63-.64a19.75,19.75,0,0,1,1.42,3.3Z"/><path d="M788.4,3763.47s0,.76,0,1c-.25,8.49-.46,11.51-1.24,12.52a2.52,2.52,0,0,1-1.82,1,20.19,20.19,0,0,1-3,0,5.29,5.29,0,0,0-.75-2.2c1.22.11,2.34.11,2.84.11a1,1,0,0,0,.83-.32c.55-.61.8-3.46,1-10.17H782.2a16.28,16.28,0,0,1-1.67,3,13,13,0,0,0-1.46-1.07v8.87H774v1.39h-2.06v-14.11h2.15a19.37,19.37,0,0,0,.55-3.06l2.47.34c-.32,1-.66,1.9-1,2.72h3v3.07a19.59,19.59,0,0,0,2.56-6.11l2.15.49a23.07,23.07,0,0,1-.74,2.41ZM777,3765.58h-3v3.08h3Zm0,8.76v-3.72h-3v3.72Zm6.3-1a40.77,40.77,0,0,0-2.64-4.39l1.77-1a44.8,44.8,0,0,1,2.79,4.22Z"/><path d="M778.48,3785.89h-7.33v-1.78h3.28a17.61,17.61,0,0,0-1.23-2.4l1.75-.81a17.3,17.3,0,0,1,1.42,2.52l-1.27.69h3.38Zm-.55,11.78h-4.09v.8h-1.9v-6.55h6Zm-.13-9.21H772v-1.71h5.82Zm-5.82.85h5.82V3791H772Zm1.86,4.41v2.13H776v-2.13Zm15-4.86v1.86H778.16v-1.86h2.26c.11-.63.26-1.33.4-2.09h-1.71v-1.83h2c.08-.47.13-1,.21-1.4h-2.72v-1.86h9.75v1.86h-4.81c-.08.45-.15.93-.25,1.4h3.94v3.92Zm-9.76,2.75h8.73v7.07h-2.2v-.63h-4.42v.69h-2.11Zm2.11,1.94v2.56h4.42v-2.56Zm1.78-6.78c-.13.76-.28,1.46-.42,2.09h2.59v-2.09Z"/><path d="M783.25,3816.23a19.87,19.87,0,0,0,5.66,1.16,8,8,0,0,0-1.18,1.68,15.79,15.79,0,0,1-6.61-2.36v2.43h-2.28v-2.32a18.91,18.91,0,0,1-6.52,2.23,7.36,7.36,0,0,0-1.15-1.54,22.06,22.06,0,0,0,5.58-1.28h-5.11v-1.52h7.2v-.55h-4.65v-4.42h11.49v4.42h-4.56v.55h7.28v1.52Zm5.39-8.9H771.43v-1.53h10.94l.17-.55h-8.43a33.59,33.59,0,0,0,1.41-3.89l2.14.3-.19.55h6.06l.36-.09,1.66.3c-.25,1.16-.57,2.32-.9,3.38h4Zm-2.37,3.45v-1.59H773.64v1.59H771.7v-2.92h16.6v2.92Zm-10,.69h2.6v-.61h-2.6Zm2.6,1.59v-.61h-2.6v.61Zm4-9,.15-.61h-5.95l-.21.61Zm.64,6.82h-2.41v.61h2.41Zm0,1.59h-2.41v.61h2.41Z"/><path d="M786.67,3837.3c.3,0,.38-.24.42-2a5.47,5.47,0,0,0,1.93.86c-.21,2.54-.76,3.25-2.09,3.25h-1.27c-1.73,0-2.09-.69-2.09-2.64v-3.8h-.87c-.29,3-1,5.35-4.07,6.74a6.46,6.46,0,0,0-1.12-1.58v.42h-3.7v.8h-1.94v-6.56h5.64v5.1c2.36-1,2.79-2.74,3-4.92h-1.23v-5.15c-.21.21-.44.42-.65.61a14.1,14.1,0,0,0-1.59-1.6l.07-.06h-5.94V3825H774a15.9,15.9,0,0,0-.92-2.4l1.9-.59a13.76,13.76,0,0,1,1,2.45l-1.46.54h3.34v1a13.18,13.18,0,0,0,2.7-3.93l2.09.64a19.58,19.58,0,0,1-2.64,4.18h6.51a35.68,35.68,0,0,0-3.11-3.95l1.57-1.06a30.89,30.89,0,0,1,4,5l-1.71,1.24c-.11-.21-.23-.42-.38-.65v5.44h-1.19v3.76c0,.55,0,.6.3.6Zm-9.41-8h-5.35v-1.71h5.35Zm-5.35.83h5.35v1.71h-5.35Zm3.74,4.43h-1.84v2.13h1.84Zm5.72-3.59h3.34v-2.11h-3.34Z"/><path d="M787.67,3847.76a20.78,20.78,0,0,1-2.37,7.22,9.46,9.46,0,0,0,3.8,3.06,7.94,7.94,0,0,0-1.54,1.95,10.28,10.28,0,0,1-3.7-3.06,13.39,13.39,0,0,1-4.28,3,9.14,9.14,0,0,0-1.2-1.93H774v1.12h-2.09v-8.4h2.52v-2.93h-3.3v-2.11h3.3v-3.47h2.26v3.47h3.12v2.11h-3.12v2.93h2.09a5.54,5.54,0,0,0-.53-.38c1.69-1.84,2.74-4.88,3.25-8.13l2.32.36a29.55,29.55,0,0,1-.73,3h5.8v2.13ZM777,3852.87h-3v3.06h3Zm2.14,4.71a10,10,0,0,0,3.42-2.6,22,22,0,0,1-1.63-4.3,9.7,9.7,0,0,1-.84,1.2c-.21-.19-.57-.51-1-.82Zm3.23-9.82a21,21,0,0,0,1.56,5,17.39,17.39,0,0,0,1.44-5Z"/><path d="M788.78,3875.13h-2v3.31h-2.3v-.78h-3.42v.59c0,1.12-.26,1.58-1,1.9a10.11,10.11,0,0,1-3.36.32,6.58,6.58,0,0,0-.74-1.78c.91,0,2,0,2.34,0s.47-.13.47-.47v-.59H773V3876h5.77v-.9h-7.52v-1.72h7.52v-.82h-5.62v-1.52h5.62v-.84h-5.14v-3.76h5.14v-.78H771.7v-1.78h7.08v-1.24h2.3v1.24h7.26v1.78h-7.26v.78h5.4v3.76h-5.4v.84h5.72v2.34h2Zm-10-6.32v-.91h-3v.91Zm2.3-.91v.91h3.08v-.91Zm0,5.51h3.42v-.82h-3.42Zm3.42,1.72h-3.42v.9h3.42Z"/><path d="M782.09,3892.62c-.72.36-1.46.68-2.22,1h7v7.2H784.6v-.49h-7.26v.49h-2.2v-5.56c-1,.3-2.09.57-3.14.81a13.58,13.58,0,0,0-1-1.78,45.87,45.87,0,0,0,6.37-1.67h-5.82v-1.94h6.12v-1.09h-4.56v-1.84h4.56v-1h2.24v1h4.18v1.58a14.33,14.33,0,0,0,2.49-2.07l1.67,1.06a19.46,19.46,0,0,1-2.83,2.36h3.1v1.94Zm-7.11-6.56h-3.43v-1.94H775v-1h2.24v1h2.42v1.94h-2.42v1.16H775Zm9.62,9.27h-7.26v.93h7.26Zm0,3.29v-.95h-7.26v.95Zm-4.68-7.94h2c.63-.34,1.25-.71,1.84-1.09h-3.82Zm3-4.62h-2.57v-1.94h2.57v-1h2.24v1h3.28v1.94h-3.28v1.16h-2.24Z"/></svg>