<svg xmlns="http://www.w3.org/2000/svg" viewBox="0 0 40 30.88"><g id="Line_and_font" data-name="Line and font"><path d="M34.21,30.88H5.79A5.8,5.8,0,0,1,0,25.09V5.79A5.8,5.8,0,0,1,5.79,0H34.21A5.8,5.8,0,0,1,40,5.79v19.3A5.8,5.8,0,0,1,34.21,30.88ZM5.79,2A3.79,3.79,0,0,0,2,5.79v19.3a3.79,3.79,0,0,0,3.79,3.79H34.21A3.79,3.79,0,0,0,38,25.09V5.79A3.79,3.79,0,0,0,34.21,2Z"/><path d="M20,16.44C14.26,16.44,3.13,4.26,1.88,2.87a1,1,0,0,1-.25-.73A.92.92,0,0,1,2,1.45,6.53,6.53,0,0,1,6,0H34.21A6.32,6.32,0,0,1,38,1.45a.92.92,0,0,1,.34.69,1,1,0,0,1-.25.73C36.87,4.26,25.74,16.44,20,16.44ZM4.18,2.42c3.76,4,12,12,15.82,12s12.08-8,15.83-12A3.75,3.75,0,0,0,34.21,2H6A4.32,4.32,0,0,0,4.18,2.42Z"/></g></svg>